<?xml version="1.0" encoding="UTF-8" standalone="no"?>
<svg
   xmlns:dc="http://purl.org/dc/elements/1.1/"
   xmlns:cc="http://creativecommons.org/ns#"
   xmlns:rdf="http://www.w3.org/1999/02/22-rdf-syntax-ns#"
   xmlns:svg="http://www.w3.org/2000/svg"
   xmlns="http://www.w3.org/2000/svg"
   xmlns:sodipodi="http://sodipodi.sourceforge.net/DTD/sodipodi-0.dtd"
   xmlns:inkscape="http://www.inkscape.org/namespaces/inkscape"
   inkscape:version="1.0 (4035a4fb49, 2020-05-01)"
   sodipodi:docname="CDF_RainFF_EFFCI10.svg"
   viewBox="0 0 488 416"
   height="416"
   width="488"
   xml:space="preserve"
   id="svg574"
   version="1.1"><metadata
     id="metadata580"><rdf:RDF><cc:Work
         rdf:about=""><dc:format>image/svg+xml</dc:format><dc:type
           rdf:resource="http://purl.org/dc/dcmitype/StillImage" /><dc:title></dc:title></cc:Work></rdf:RDF></metadata><defs
     id="defs578" /><sodipodi:namedview
     inkscape:current-layer="g582"
     inkscape:window-maximized="0"
     inkscape:window-y="0"
     inkscape:window-x="0"
     inkscape:cy="208"
     inkscape:cx="244"
     inkscape:zoom="1.7668269"
     showgrid="false"
     id="namedview576"
     inkscape:window-height="510"
     inkscape:window-width="743"
     inkscape:pageshadow="2"
     inkscape:pageopacity="0"
     guidetolerance="10"
     gridtolerance="10"
     objecttolerance="10"
     borderopacity="1"
     bordercolor="#666666"
     pagecolor="#ffffff" /><g
     transform="matrix(1.3333333,0,0,-1.3333333,0,416)"
     inkscape:label="ink_ext_XXXXXX"
     inkscape:groupmode="layer"
     id="g582"><g
       transform="scale(0.1)"
       id="g584"><path
         id="path586"
         style="fill:#ffffff;fill-opacity:1;fill-rule:nonzero;stroke:none"
         d="M -200,0 H 4000 V 3150 H -200 Z" /><path
         id="path588"
         style="fill:#ffffff;fill-opacity:1;fill-rule:nonzero;stroke:none"
         d="M -200,0 H 4000 V 3150 H -200 Z" /><path
         id="path590"
         style="fill:#ffffff;fill-opacity:1;fill-rule:nonzero;stroke:none"
         d="m 347.5,382.5 h 3255 V 2865 h -3255 z" /><path
         id="path592"
         style="fill:none;stroke:#dfdfdf;stroke-width:5.0025;stroke-linecap:butt;stroke-linejoin:round;stroke-miterlimit:10;stroke-dasharray:none;stroke-opacity:1"
         d="M 347.5,382.5 V 2865" /><path
         id="path594"
         style="fill:none;stroke:#dfdfdf;stroke-width:5.0025;stroke-linecap:butt;stroke-linejoin:round;stroke-miterlimit:10;stroke-dasharray:none;stroke-opacity:1"
         d="M 580,382.5 V 2865" /><path
         id="path596"
         style="fill:none;stroke:#dfdfdf;stroke-width:5.0025;stroke-linecap:butt;stroke-linejoin:round;stroke-miterlimit:10;stroke-dasharray:none;stroke-opacity:1"
         d="M 812.5,382.5 V 2865" /><path
         id="path598"
         style="fill:none;stroke:#dfdfdf;stroke-width:5.0025;stroke-linecap:butt;stroke-linejoin:round;stroke-miterlimit:10;stroke-dasharray:none;stroke-opacity:1"
         d="M 1045,382.5 V 2865" /><path
         id="path600"
         style="fill:none;stroke:#dfdfdf;stroke-width:5.0025;stroke-linecap:butt;stroke-linejoin:round;stroke-miterlimit:10;stroke-dasharray:none;stroke-opacity:1"
         d="M 1277.5,382.5 V 2865" /><path
         id="path602"
         style="fill:none;stroke:#dfdfdf;stroke-width:5.0025;stroke-linecap:butt;stroke-linejoin:round;stroke-miterlimit:10;stroke-dasharray:none;stroke-opacity:1"
         d="M 1510,382.5 V 2865" /><path
         id="path604"
         style="fill:none;stroke:#dfdfdf;stroke-width:5.0025;stroke-linecap:butt;stroke-linejoin:round;stroke-miterlimit:10;stroke-dasharray:none;stroke-opacity:1"
         d="M 1742.5,382.5 V 2865" /><path
         id="path606"
         style="fill:none;stroke:#dfdfdf;stroke-width:5.0025;stroke-linecap:butt;stroke-linejoin:round;stroke-miterlimit:10;stroke-dasharray:none;stroke-opacity:1"
         d="M 1975,382.5 V 2865" /><path
         id="path608"
         style="fill:none;stroke:#dfdfdf;stroke-width:5.0025;stroke-linecap:butt;stroke-linejoin:round;stroke-miterlimit:10;stroke-dasharray:none;stroke-opacity:1"
         d="M 2207.5,382.5 V 2865" /><path
         id="path610"
         style="fill:none;stroke:#dfdfdf;stroke-width:5.0025;stroke-linecap:butt;stroke-linejoin:round;stroke-miterlimit:10;stroke-dasharray:none;stroke-opacity:1"
         d="M 2440,382.5 V 2865" /><path
         id="path612"
         style="fill:none;stroke:#dfdfdf;stroke-width:5.0025;stroke-linecap:butt;stroke-linejoin:round;stroke-miterlimit:10;stroke-dasharray:none;stroke-opacity:1"
         d="M 2672.5,382.5 V 2865" /><path
         id="path614"
         style="fill:none;stroke:#dfdfdf;stroke-width:5.0025;stroke-linecap:butt;stroke-linejoin:round;stroke-miterlimit:10;stroke-dasharray:none;stroke-opacity:1"
         d="M 2905,382.5 V 2865" /><path
         id="path616"
         style="fill:none;stroke:#dfdfdf;stroke-width:5.0025;stroke-linecap:butt;stroke-linejoin:round;stroke-miterlimit:10;stroke-dasharray:none;stroke-opacity:1"
         d="M 3137.5,382.5 V 2865" /><path
         id="path618"
         style="fill:none;stroke:#dfdfdf;stroke-width:5.0025;stroke-linecap:butt;stroke-linejoin:round;stroke-miterlimit:10;stroke-dasharray:none;stroke-opacity:1"
         d="M 3370,382.5 V 2865" /><path
         id="path620"
         style="fill:none;stroke:#dfdfdf;stroke-width:5.0025;stroke-linecap:butt;stroke-linejoin:round;stroke-miterlimit:10;stroke-dasharray:none;stroke-opacity:1"
         d="M 3602.5,382.5 V 2865" /><path
         id="path622"
         style="fill:none;stroke:#dfdfdf;stroke-width:5.0025;stroke-linecap:butt;stroke-linejoin:round;stroke-miterlimit:10;stroke-dasharray:none;stroke-opacity:1"
         d="M 3602.5,382.5 H 347.5" /><path
         id="path624"
         style="fill:none;stroke:#dfdfdf;stroke-width:5.0025;stroke-linecap:butt;stroke-linejoin:round;stroke-miterlimit:10;stroke-dasharray:none;stroke-opacity:1"
         d="M 3602.5,630.75 H 347.5" /><path
         id="path626"
         style="fill:none;stroke:#dfdfdf;stroke-width:5.0025;stroke-linecap:butt;stroke-linejoin:round;stroke-miterlimit:10;stroke-dasharray:none;stroke-opacity:1"
         d="M 3602.5,879 H 347.5" /><path
         id="path628"
         style="fill:none;stroke:#dfdfdf;stroke-width:5.0025;stroke-linecap:butt;stroke-linejoin:round;stroke-miterlimit:10;stroke-dasharray:none;stroke-opacity:1"
         d="M 3602.5,1127.25 H 347.5" /><path
         id="path630"
         style="fill:none;stroke:#dfdfdf;stroke-width:5.0025;stroke-linecap:butt;stroke-linejoin:round;stroke-miterlimit:10;stroke-dasharray:none;stroke-opacity:1"
         d="M 3602.5,1375.5 H 347.5" /><path
         id="path632"
         style="fill:none;stroke:#dfdfdf;stroke-width:5.0025;stroke-linecap:butt;stroke-linejoin:round;stroke-miterlimit:10;stroke-dasharray:none;stroke-opacity:1"
         d="M 3602.5,1623.75 H 347.5" /><path
         id="path634"
         style="fill:none;stroke:#dfdfdf;stroke-width:5.0025;stroke-linecap:butt;stroke-linejoin:round;stroke-miterlimit:10;stroke-dasharray:none;stroke-opacity:1"
         d="M 3602.5,1872 H 347.5" /><path
         id="path636"
         style="fill:none;stroke:#dfdfdf;stroke-width:5.0025;stroke-linecap:butt;stroke-linejoin:round;stroke-miterlimit:10;stroke-dasharray:none;stroke-opacity:1"
         d="M 3602.5,2120.25 H 347.5" /><path
         id="path638"
         style="fill:none;stroke:#dfdfdf;stroke-width:5.0025;stroke-linecap:butt;stroke-linejoin:round;stroke-miterlimit:10;stroke-dasharray:none;stroke-opacity:1"
         d="M 3602.5,2368.5 H 347.5" /><path
         id="path640"
         style="fill:none;stroke:#dfdfdf;stroke-width:5.0025;stroke-linecap:butt;stroke-linejoin:round;stroke-miterlimit:10;stroke-dasharray:none;stroke-opacity:1"
         d="M 3602.5,2616.75 H 347.5" /><path
         id="path642"
         style="fill:none;stroke:#dfdfdf;stroke-width:5.0025;stroke-linecap:butt;stroke-linejoin:round;stroke-miterlimit:10;stroke-dasharray:none;stroke-opacity:1"
         d="M 3602.5,2865 H 347.5" /><path
         id="path644"
         style="fill:none;stroke:#262626;stroke-width:5.0025;stroke-linecap:square;stroke-linejoin:round;stroke-miterlimit:10;stroke-dasharray:none;stroke-opacity:1"
         d="m 347.5,382.5 h 3255" /><path
         id="path646"
         style="fill:none;stroke:#262626;stroke-width:5.0025;stroke-linecap:square;stroke-linejoin:round;stroke-miterlimit:10;stroke-dasharray:none;stroke-opacity:1"
         d="m 347.5,2865 h 3255" /><path
         id="path648"
         style="fill:none;stroke:#262626;stroke-width:5.0025;stroke-linecap:square;stroke-linejoin:round;stroke-miterlimit:10;stroke-dasharray:none;stroke-opacity:1"
         d="m 347.5,382.5 v 32.551" /><path
         id="path650"
         style="fill:none;stroke:#262626;stroke-width:5.0025;stroke-linecap:square;stroke-linejoin:round;stroke-miterlimit:10;stroke-dasharray:none;stroke-opacity:1"
         d="m 580,382.5 v 32.551" /><path
         id="path652"
         style="fill:none;stroke:#262626;stroke-width:5.0025;stroke-linecap:square;stroke-linejoin:round;stroke-miterlimit:10;stroke-dasharray:none;stroke-opacity:1"
         d="m 812.5,382.5 v 32.551" /><path
         id="path654"
         style="fill:none;stroke:#262626;stroke-width:5.0025;stroke-linecap:square;stroke-linejoin:round;stroke-miterlimit:10;stroke-dasharray:none;stroke-opacity:1"
         d="m 1045,382.5 v 32.551" /><path
         id="path656"
         style="fill:none;stroke:#262626;stroke-width:5.0025;stroke-linecap:square;stroke-linejoin:round;stroke-miterlimit:10;stroke-dasharray:none;stroke-opacity:1"
         d="m 1277.5,382.5 v 32.551" /><path
         id="path658"
         style="fill:none;stroke:#262626;stroke-width:5.0025;stroke-linecap:square;stroke-linejoin:round;stroke-miterlimit:10;stroke-dasharray:none;stroke-opacity:1"
         d="m 1510,382.5 v 32.551" /><path
         id="path660"
         style="fill:none;stroke:#262626;stroke-width:5.0025;stroke-linecap:square;stroke-linejoin:round;stroke-miterlimit:10;stroke-dasharray:none;stroke-opacity:1"
         d="m 1742.5,382.5 v 32.551" /><path
         id="path662"
         style="fill:none;stroke:#262626;stroke-width:5.0025;stroke-linecap:square;stroke-linejoin:round;stroke-miterlimit:10;stroke-dasharray:none;stroke-opacity:1"
         d="m 1975,382.5 v 32.551" /><path
         id="path664"
         style="fill:none;stroke:#262626;stroke-width:5.0025;stroke-linecap:square;stroke-linejoin:round;stroke-miterlimit:10;stroke-dasharray:none;stroke-opacity:1"
         d="m 2207.5,382.5 v 32.551" /><path
         id="path666"
         style="fill:none;stroke:#262626;stroke-width:5.0025;stroke-linecap:square;stroke-linejoin:round;stroke-miterlimit:10;stroke-dasharray:none;stroke-opacity:1"
         d="m 2440,382.5 v 32.551" /><path
         id="path668"
         style="fill:none;stroke:#262626;stroke-width:5.0025;stroke-linecap:square;stroke-linejoin:round;stroke-miterlimit:10;stroke-dasharray:none;stroke-opacity:1"
         d="m 2672.5,382.5 v 32.551" /><path
         id="path670"
         style="fill:none;stroke:#262626;stroke-width:5.0025;stroke-linecap:square;stroke-linejoin:round;stroke-miterlimit:10;stroke-dasharray:none;stroke-opacity:1"
         d="m 2905,382.5 v 32.551" /><path
         id="path672"
         style="fill:none;stroke:#262626;stroke-width:5.0025;stroke-linecap:square;stroke-linejoin:round;stroke-miterlimit:10;stroke-dasharray:none;stroke-opacity:1"
         d="m 3137.5,382.5 v 32.551" /><path
         id="path674"
         style="fill:none;stroke:#262626;stroke-width:5.0025;stroke-linecap:square;stroke-linejoin:round;stroke-miterlimit:10;stroke-dasharray:none;stroke-opacity:1"
         d="m 3370,382.5 v 32.551" /><path
         id="path676"
         style="fill:none;stroke:#262626;stroke-width:5.0025;stroke-linecap:square;stroke-linejoin:round;stroke-miterlimit:10;stroke-dasharray:none;stroke-opacity:1"
         d="m 3602.5,382.5 v 32.551" /><path
         id="path678"
         style="fill:none;stroke:#262626;stroke-width:5.0025;stroke-linecap:square;stroke-linejoin:round;stroke-miterlimit:10;stroke-dasharray:none;stroke-opacity:1"
         d="m 347.5,2865 v -32.55" /><path
         id="path680"
         style="fill:none;stroke:#262626;stroke-width:5.0025;stroke-linecap:square;stroke-linejoin:round;stroke-miterlimit:10;stroke-dasharray:none;stroke-opacity:1"
         d="m 580,2865 v -32.55" /><path
         id="path682"
         style="fill:none;stroke:#262626;stroke-width:5.0025;stroke-linecap:square;stroke-linejoin:round;stroke-miterlimit:10;stroke-dasharray:none;stroke-opacity:1"
         d="m 812.5,2865 v -32.55" /><path
         id="path684"
         style="fill:none;stroke:#262626;stroke-width:5.0025;stroke-linecap:square;stroke-linejoin:round;stroke-miterlimit:10;stroke-dasharray:none;stroke-opacity:1"
         d="m 1045,2865 v -32.55" /><path
         id="path686"
         style="fill:none;stroke:#262626;stroke-width:5.0025;stroke-linecap:square;stroke-linejoin:round;stroke-miterlimit:10;stroke-dasharray:none;stroke-opacity:1"
         d="m 1277.5,2865 v -32.55" /><path
         id="path688"
         style="fill:none;stroke:#262626;stroke-width:5.0025;stroke-linecap:square;stroke-linejoin:round;stroke-miterlimit:10;stroke-dasharray:none;stroke-opacity:1"
         d="m 1510,2865 v -32.55" /><path
         id="path690"
         style="fill:none;stroke:#262626;stroke-width:5.0025;stroke-linecap:square;stroke-linejoin:round;stroke-miterlimit:10;stroke-dasharray:none;stroke-opacity:1"
         d="m 1742.5,2865 v -32.55" /><path
         id="path692"
         style="fill:none;stroke:#262626;stroke-width:5.0025;stroke-linecap:square;stroke-linejoin:round;stroke-miterlimit:10;stroke-dasharray:none;stroke-opacity:1"
         d="m 1975,2865 v -32.55" /><path
         id="path694"
         style="fill:none;stroke:#262626;stroke-width:5.0025;stroke-linecap:square;stroke-linejoin:round;stroke-miterlimit:10;stroke-dasharray:none;stroke-opacity:1"
         d="m 2207.5,2865 v -32.55" /><path
         id="path696"
         style="fill:none;stroke:#262626;stroke-width:5.0025;stroke-linecap:square;stroke-linejoin:round;stroke-miterlimit:10;stroke-dasharray:none;stroke-opacity:1"
         d="m 2440,2865 v -32.55" /><path
         id="path698"
         style="fill:none;stroke:#262626;stroke-width:5.0025;stroke-linecap:square;stroke-linejoin:round;stroke-miterlimit:10;stroke-dasharray:none;stroke-opacity:1"
         d="m 2672.5,2865 v -32.55" /><path
         id="path700"
         style="fill:none;stroke:#262626;stroke-width:5.0025;stroke-linecap:square;stroke-linejoin:round;stroke-miterlimit:10;stroke-dasharray:none;stroke-opacity:1"
         d="m 2905,2865 v -32.55" /><path
         id="path702"
         style="fill:none;stroke:#262626;stroke-width:5.0025;stroke-linecap:square;stroke-linejoin:round;stroke-miterlimit:10;stroke-dasharray:none;stroke-opacity:1"
         d="m 3137.5,2865 v -32.55" /><path
         id="path704"
         style="fill:none;stroke:#262626;stroke-width:5.0025;stroke-linecap:square;stroke-linejoin:round;stroke-miterlimit:10;stroke-dasharray:none;stroke-opacity:1"
         d="m 3370,2865 v -32.55" /><path
         id="path706"
         style="fill:none;stroke:#262626;stroke-width:5.0025;stroke-linecap:square;stroke-linejoin:round;stroke-miterlimit:10;stroke-dasharray:none;stroke-opacity:1"
         d="m 3602.5,2865 v -32.55" /><g
         transform="scale(10)"
         id="g708"><text
           id="text740"
           style="font-variant:normal;font-weight:normal;font-size:9.99975px;font-family:Helvetica;-inkscape-font-specification:Helvetica;writing-mode:lr-tb;fill:#262626;fill-opacity:1;fill-rule:nonzero;stroke:none"
           transform="matrix(0.707107,0.707107,0.707107,-0.707107,37.4016,23.1129)"><tspan
             id="tspan710"
             y="0"
             x="0">0</tspan><tspan
             id="tspan712"
             sodipodi:role="line"
             y="16.440205"
             x="11.190503 16.750366">10</tspan><tspan
             id="tspan714"
             sodipodi:role="line"
             y="32.880409"
             x="27.630709 33.190571">20</tspan><tspan
             id="tspan716"
             sodipodi:role="line"
             y="49.320614"
             x="44.070915 49.630775">30</tspan><tspan
             id="tspan718"
             sodipodi:role="line"
             y="65.760818"
             x="60.51112 66.070984">40</tspan><tspan
             id="tspan720"
             sodipodi:role="line"
             y="82.201027"
             x="76.951324 82.511185">50</tspan><tspan
             id="tspan722"
             sodipodi:role="line"
             y="98.641228"
             x="93.391525 98.951393">60</tspan><tspan
             id="tspan724"
             sodipodi:role="line"
             y="115.08144"
             x="109.83173 115.39159">70</tspan><tspan
             id="tspan726"
             sodipodi:role="line"
             y="131.52164"
             x="126.27194 131.8318">80</tspan><tspan
             id="tspan728"
             sodipodi:role="line"
             y="147.96185"
             x="142.71214 148.272">90</tspan><tspan
             id="tspan730"
             sodipodi:role="line"
             y="164.40205"
             x="153.15245 158.71231 164.27217">100</tspan><tspan
             id="tspan732"
             sodipodi:role="line"
             y="180.84225"
             x="169.59265 175.15251 180.71237">110</tspan><tspan
             id="tspan734"
             sodipodi:role="line"
             y="197.28246"
             x="186.03285 191.59273 197.15259">120</tspan><tspan
             id="tspan736"
             sodipodi:role="line"
             y="213.72267"
             x="202.47307 208.03293 213.59279">130</tspan><tspan
             id="tspan738"
             sodipodi:role="line"
             y="230.16287"
             x="218.91327 224.47313 230.03299">140</tspan></text><text
           id="text744"
           style="font-variant:normal;font-weight:normal;font-size:11.0002px;font-family:Helvetica;-inkscape-font-specification:Helvetica;writing-mode:lr-tb;fill:#262626;fill-opacity:1;fill-rule:nonzero;stroke:none"
           transform="matrix(1,0,0,-1,154.375,2.06719)"><tspan
             id="tspan742"
             sodipodi:role="line"
             y="0"
             x="0 7.9421444 14.058255 16.500299 22.616411 25.674467 31.790579 34.232624 36.674667 39.732723 42.790779 51.953945 61.117111 64.175163 70.291275 76.407387 82.523499">Rainfall [mm/12h]</tspan></text></g><path
         id="path746"
         style="fill:none;stroke:#262626;stroke-width:5.0025;stroke-linecap:square;stroke-linejoin:round;stroke-miterlimit:10;stroke-dasharray:none;stroke-opacity:1"
         d="M 347.5,382.5 V 2865" /><path
         id="path748"
         style="fill:none;stroke:#262626;stroke-width:5.0025;stroke-linecap:square;stroke-linejoin:round;stroke-miterlimit:10;stroke-dasharray:none;stroke-opacity:1"
         d="M 3602.5,382.5 V 2865" /><path
         id="path750"
         style="fill:none;stroke:#262626;stroke-width:5.0025;stroke-linecap:square;stroke-linejoin:round;stroke-miterlimit:10;stroke-dasharray:none;stroke-opacity:1"
         d="m 347.5,382.5 h 32.551" /><path
         id="path752"
         style="fill:none;stroke:#262626;stroke-width:5.0025;stroke-linecap:square;stroke-linejoin:round;stroke-miterlimit:10;stroke-dasharray:none;stroke-opacity:1"
         d="m 347.5,630.75 h 32.551" /><path
         id="path754"
         style="fill:none;stroke:#262626;stroke-width:5.0025;stroke-linecap:square;stroke-linejoin:round;stroke-miterlimit:10;stroke-dasharray:none;stroke-opacity:1"
         d="m 347.5,879 h 32.551" /><path
         id="path756"
         style="fill:none;stroke:#262626;stroke-width:5.0025;stroke-linecap:square;stroke-linejoin:round;stroke-miterlimit:10;stroke-dasharray:none;stroke-opacity:1"
         d="m 347.5,1127.25 h 32.551" /><path
         id="path758"
         style="fill:none;stroke:#262626;stroke-width:5.0025;stroke-linecap:square;stroke-linejoin:round;stroke-miterlimit:10;stroke-dasharray:none;stroke-opacity:1"
         d="m 347.5,1375.5 h 32.551" /><path
         id="path760"
         style="fill:none;stroke:#262626;stroke-width:5.0025;stroke-linecap:square;stroke-linejoin:round;stroke-miterlimit:10;stroke-dasharray:none;stroke-opacity:1"
         d="m 347.5,1623.75 h 32.551" /><path
         id="path762"
         style="fill:none;stroke:#262626;stroke-width:5.0025;stroke-linecap:square;stroke-linejoin:round;stroke-miterlimit:10;stroke-dasharray:none;stroke-opacity:1"
         d="m 347.5,1872 h 32.551" /><path
         id="path764"
         style="fill:none;stroke:#262626;stroke-width:5.0025;stroke-linecap:square;stroke-linejoin:round;stroke-miterlimit:10;stroke-dasharray:none;stroke-opacity:1"
         d="m 347.5,2120.25 h 32.551" /><path
         id="path766"
         style="fill:none;stroke:#262626;stroke-width:5.0025;stroke-linecap:square;stroke-linejoin:round;stroke-miterlimit:10;stroke-dasharray:none;stroke-opacity:1"
         d="m 347.5,2368.5 h 32.551" /><path
         id="path768"
         style="fill:none;stroke:#262626;stroke-width:5.0025;stroke-linecap:square;stroke-linejoin:round;stroke-miterlimit:10;stroke-dasharray:none;stroke-opacity:1"
         d="m 347.5,2616.75 h 32.551" /><path
         id="path770"
         style="fill:none;stroke:#262626;stroke-width:5.0025;stroke-linecap:square;stroke-linejoin:round;stroke-miterlimit:10;stroke-dasharray:none;stroke-opacity:1"
         d="m 347.5,2865 h 32.551" /><path
         id="path772"
         style="fill:none;stroke:#262626;stroke-width:5.0025;stroke-linecap:square;stroke-linejoin:round;stroke-miterlimit:10;stroke-dasharray:none;stroke-opacity:1"
         d="m 3602.5,382.5 h -32.55" /><path
         id="path774"
         style="fill:none;stroke:#262626;stroke-width:5.0025;stroke-linecap:square;stroke-linejoin:round;stroke-miterlimit:10;stroke-dasharray:none;stroke-opacity:1"
         d="m 3602.5,630.75 h -32.55" /><path
         id="path776"
         style="fill:none;stroke:#262626;stroke-width:5.0025;stroke-linecap:square;stroke-linejoin:round;stroke-miterlimit:10;stroke-dasharray:none;stroke-opacity:1"
         d="m 3602.5,879 h -32.55" /><path
         id="path778"
         style="fill:none;stroke:#262626;stroke-width:5.0025;stroke-linecap:square;stroke-linejoin:round;stroke-miterlimit:10;stroke-dasharray:none;stroke-opacity:1"
         d="m 3602.5,1127.25 h -32.55" /><path
         id="path780"
         style="fill:none;stroke:#262626;stroke-width:5.0025;stroke-linecap:square;stroke-linejoin:round;stroke-miterlimit:10;stroke-dasharray:none;stroke-opacity:1"
         d="m 3602.5,1375.5 h -32.55" /><path
         id="path782"
         style="fill:none;stroke:#262626;stroke-width:5.0025;stroke-linecap:square;stroke-linejoin:round;stroke-miterlimit:10;stroke-dasharray:none;stroke-opacity:1"
         d="m 3602.5,1623.75 h -32.55" /><path
         id="path784"
         style="fill:none;stroke:#262626;stroke-width:5.0025;stroke-linecap:square;stroke-linejoin:round;stroke-miterlimit:10;stroke-dasharray:none;stroke-opacity:1"
         d="m 3602.5,1872 h -32.55" /><path
         id="path786"
         style="fill:none;stroke:#262626;stroke-width:5.0025;stroke-linecap:square;stroke-linejoin:round;stroke-miterlimit:10;stroke-dasharray:none;stroke-opacity:1"
         d="m 3602.5,2120.25 h -32.55" /><path
         id="path788"
         style="fill:none;stroke:#262626;stroke-width:5.0025;stroke-linecap:square;stroke-linejoin:round;stroke-miterlimit:10;stroke-dasharray:none;stroke-opacity:1"
         d="m 3602.5,2368.5 h -32.55" /><path
         id="path790"
         style="fill:none;stroke:#262626;stroke-width:5.0025;stroke-linecap:square;stroke-linejoin:round;stroke-miterlimit:10;stroke-dasharray:none;stroke-opacity:1"
         d="m 3602.5,2616.75 h -32.55" /><path
         id="path792"
         style="fill:none;stroke:#262626;stroke-width:5.0025;stroke-linecap:square;stroke-linejoin:round;stroke-miterlimit:10;stroke-dasharray:none;stroke-opacity:1"
         d="m 3602.5,2865 h -32.55" /><g
         transform="scale(10)"
         id="g794"><text
           id="text818"
           style="font-variant:normal;font-weight:normal;font-size:9.99975px;font-family:Helvetica;-inkscape-font-specification:Helvetica;writing-mode:lr-tb;fill:#262626;fill-opacity:1;fill-rule:nonzero;stroke:none"
           transform="matrix(1,0,0,-1,24.75,34.5)"><tspan
             id="tspan796"
             y="0"
             x="0">0</tspan><tspan
             id="tspan798"
             sodipodi:role="line"
             y="-24.825001"
             x="-5.25 0.309861">10</tspan><tspan
             id="tspan800"
             sodipodi:role="line"
             y="-49.650002"
             x="-5.25 0.309861">20</tspan><tspan
             id="tspan802"
             sodipodi:role="line"
             y="-74.474998"
             x="-5.25 0.309861">30</tspan><tspan
             id="tspan804"
             sodipodi:role="line"
             y="-99.300003"
             x="-5.25 0.309861">40</tspan><tspan
             id="tspan806"
             sodipodi:role="line"
             y="-124.125"
             x="-5.25 0.309861">50</tspan><tspan
             id="tspan808"
             sodipodi:role="line"
             y="-148.95"
             x="-5.25 0.309861">60</tspan><tspan
             id="tspan810"
             sodipodi:role="line"
             y="-173.77499"
             x="-5.25 0.309861">70</tspan><tspan
             id="tspan812"
             sodipodi:role="line"
             y="-198.60001"
             x="-5.25 0.309861">80</tspan><tspan
             id="tspan814"
             sodipodi:role="line"
             y="-223.425"
             x="-5.25 0.309861">90</tspan><tspan
             id="tspan816"
             sodipodi:role="line"
             y="-248.25"
             x="-11.25 -5.6901388 -0.13027801">100</tspan></text><text
           id="text822"
           style="font-variant:normal;font-weight:normal;font-size:11.0002px;font-family:Helvetica;-inkscape-font-specification:Helvetica;writing-mode:lr-tb;fill:#262626;fill-opacity:1;fill-rule:nonzero;stroke:none"
           transform="matrix(0,1,1,0,8.25,125.625)"><tspan
             id="tspan820"
             sodipodi:role="line"
             y="0"
             x="0 7.3371334 13.453244 17.116312 22.616411 28.732523 34.848633 37.906689 40.348732 42.790779 48.906891 54.40699 57.465046 60.523102 70.302277">Percentiles [%]</tspan></text></g><g
         transform="scale(10)"
         id="g824"><text
           id="text830"
           style="font-variant:normal;font-weight:bold;font-size:11.0002px;font-family:Helvetica;-inkscape-font-specification:Helvetica-Bold;writing-mode:lr-tb;fill:#000000;fill-opacity:1;fill-rule:nonzero;stroke:none"
           transform="matrix(1,0,0,-1,50.5004,303.563)"><tspan
             id="tspan826"
             sodipodi:role="line"
             y="0"
             x="0 7.9421444 15.884289 22.605412 25.663467 32.38459 36.047657 39.105713 43.384789 49.5009 52.558956 59.280079 62.943146 69.059258 72.11731 75.175369 78.233421 84.349533 90.465645 93.523697 100.24482 106.36093 112.47704 115.5351 121.65121 127.76733 133.88344 140.60455 146.72067 149.77872 155.89484 159.55791 165.67401 172.39514 175.45319 184.01135 187.0694 190.73247 197.45358 200.51164 204.17471 207.23277 213.34888 219.465 226.18611 229.24417 232.90724 235.96529 242.68642 249.40753 256.12866 259.18671 265.30283 271.41895 277.53503 284.25616 287.91922">CDF of rainfall values associated with flash flood events</tspan><tspan
             id="tspan828"
             sodipodi:role="line"
             y="12.75"
             x="69 75.721123 78.779175 85.500298 92.22142 98.942543 102.0006 106.27968 112.39579 119.11691 125.83804 130.11711 133.78018 139.89629 142.95435 151.5125 154.57056 158.23363 164.95474 168.0128 175.34993 182.07106 188.79218 196.73433 199.79237 206.21649 212.64061 218.75673">Flood reports with EFFCI&gt;=10</tspan></text></g><path
         id="path832"
         style="fill:none;stroke:#0000ff;stroke-width:20.0025;stroke-linecap:butt;stroke-linejoin:round;stroke-miterlimit:10;stroke-dasharray:none;stroke-opacity:1"
         d="m 347.5,407.324 v 744.746 l 0.234,24.83 1.161,24.83 1.859,24.82 2.094,24.83 1.629,24.82 1.625,24.82 2.558,24.83 2.094,24.83 2.09,24.82 2.558,24.82 2.325,24.83 2.789,24.83 2.328,24.82 3.254,24.83 3.023,24.82 3.02,24.82 3.257,24.83 2.79,24.83 3.718,24.82 3.723,24.82 3.484,24.83 4.653,24.83 3.718,24.82 3.954,24.83 4.183,24.82 5.117,24.82 5.348,24.83 6.742,24.83 6.277,24.82 6.278,24.82 5.578,24.83 7.676,24.83 6.972,24.82 6.977,24.83 7.672,24.82 9.066,24.82 9.766,24.83 9.066,24.83 8.141,24.82 12.785,24.82 10.695,24.83 11.161,24.83 11.39,24.82 15.348,24.83 13.715,24.82 17.672,24.82 16.273,24.83 16.973,24.83 19.531,24.82 24.879,24.82 20.691,24.83 24.645,24.83 27.203,24.82 30.922,24.83 35.34,24.82 36.734,24.82 41.851,24.83 47.661,24.83 59.054,24.82 64.17,24.82 75.8,24.83 94.16,24.83 116.48,24.82 134.16,24.83 190.41,24.82 285.05,24.82 403.15,24.83 916.75,24.83" /><path
         id="path834"
         style="fill:none;stroke:#ff0000;stroke-width:20.0025;stroke-linecap:butt;stroke-linejoin:round;stroke-miterlimit:10;stroke-dasharray:none;stroke-opacity:1"
         d="M 347.5,407.324 V 1276.2 l 0.234,24.82 0.465,24.83 0.696,24.83 0.699,24.82 0.465,24.82 0.929,24.83 1.16,24.83 1.165,24.82 1.164,24.83 1.16,24.82 1.164,24.82 1.394,24.83 1.629,24.83 1.395,24.82 1.625,24.82 1.629,24.83 1.629,24.83 1.859,24.82 1.859,24.83 1.86,24.82 2.093,24.82 2.09,24.83 2.094,24.83 2.789,24.82 2.559,24.82 2.789,24.83 3.258,24.83 3.484,24.82 3.953,24.83 3.723,24.82 4.648,24.82 4.184,24.83 5.117,24.83 5.348,24.82 5.578,24.82 5.812,24.83 6.278,24.83 7.441,24.82 6.973,24.83 7.675,24.82 8.832,24.82 8.836,24.83 8.371,24.83 10.461,24.82 11.161,24.82 11.859,24.83 13.715,24.83 16.508,24.82 14.183,24.83 14.414,24.82 20.696,24.82 22.32,24.83 24.644,24.83 31.153,24.82 29.992,24.82 36.273,24.83 44.637,24.83 63.242,24.82 73.469,24.83 92.538,24.82 147.4,24.82 238.55,24.83 548.7,24.83" /><path
         id="path836"
         style="fill:#ffffff;fill-opacity:1;fill-rule:nonzero;stroke:none"
         d="M 2567.5,465 H 3520 v 360 h -952.5 z" /><g
         transform="scale(10)"
         id="g838"><text
           id="text842"
           style="font-variant:normal;font-weight:normal;font-size:14.0002px;font-family:Helvetica;-inkscape-font-specification:Helvetica;writing-mode:lr-tb;fill:#000000;fill-opacity:1;fill-rule:nonzero;stroke:none"
           transform="matrix(1,0,0,-1,292,67.6004)"><tspan
             id="tspan840"
             sodipodi:role="line"
             y="0"
             x="0 7.784111 15.568222 19.460278 29.568422 37.352535 44.352634 48.24469">La Costa</tspan></text></g><path
         id="path844"
         style="fill:none;stroke:#0000ff;stroke-width:20.0025;stroke-linecap:butt;stroke-linejoin:round;stroke-miterlimit:10;stroke-dasharray:none;stroke-opacity:1"
         d="m 2597.5,728.504 h 300" /><g
         transform="scale(10)"
         id="g846"><text
           id="text850"
           style="font-variant:normal;font-weight:normal;font-size:14.0002px;font-family:Helvetica;-inkscape-font-specification:Helvetica;writing-mode:lr-tb;fill:#000000;fill-opacity:1;fill-rule:nonzero;stroke:none"
           transform="matrix(1,0,0,-1,292,50.8996)"><tspan
             id="tspan848"
             sodipodi:role="line"
             y="0"
             x="0 7.784111 15.568222 19.460278 28.798412 31.906456 39.690567 44.352634 49.014702">La Sierra</tspan></text></g><path
         id="path852"
         style="fill:none;stroke:#ff0000;stroke-width:20.0025;stroke-linecap:butt;stroke-linejoin:round;stroke-miterlimit:10;stroke-dasharray:none;stroke-opacity:1"
         d="m 2597.5,561.496 h 300" /><path
         id="path854"
         style="fill:none;stroke:#262626;stroke-width:5.0025;stroke-linecap:butt;stroke-linejoin:miter;stroke-miterlimit:10;stroke-dasharray:none;stroke-opacity:1"
         d="M 2567.5,465 H 3520 v 360 h -952.5 z" /></g></g></svg>
