<?xml version="1.0" encoding="UTF-8" standalone="no"?>
<svg
   xmlns:dc="http://purl.org/dc/elements/1.1/"
   xmlns:cc="http://creativecommons.org/ns#"
   xmlns:rdf="http://www.w3.org/1999/02/22-rdf-syntax-ns#"
   xmlns:svg="http://www.w3.org/2000/svg"
   xmlns="http://www.w3.org/2000/svg"
   xmlns:sodipodi="http://sodipodi.sourceforge.net/DTD/sodipodi-0.dtd"
   xmlns:inkscape="http://www.inkscape.org/namespaces/inkscape"
   inkscape:version="1.0 (4035a4fb49, 2020-05-01)"
   sodipodi:docname="CDF_RainFF_EFFCI06.svg"
   viewBox="0 0 488 416"
   height="416"
   width="488"
   xml:space="preserve"
   id="svg292"
   version="1.1"><metadata
     id="metadata298"><rdf:RDF><cc:Work
         rdf:about=""><dc:format>image/svg+xml</dc:format><dc:type
           rdf:resource="http://purl.org/dc/dcmitype/StillImage" /><dc:title></dc:title></cc:Work></rdf:RDF></metadata><defs
     id="defs296" /><sodipodi:namedview
     inkscape:current-layer="g300"
     inkscape:window-maximized="0"
     inkscape:window-y="0"
     inkscape:window-x="0"
     inkscape:cy="208"
     inkscape:cx="244"
     inkscape:zoom="1.7668269"
     showgrid="false"
     id="namedview294"
     inkscape:window-height="510"
     inkscape:window-width="743"
     inkscape:pageshadow="2"
     inkscape:pageopacity="0"
     guidetolerance="10"
     gridtolerance="10"
     objecttolerance="10"
     borderopacity="1"
     bordercolor="#666666"
     pagecolor="#ffffff" /><g
     transform="matrix(1.3333333,0,0,-1.3333333,0,416)"
     inkscape:label="ink_ext_XXXXXX"
     inkscape:groupmode="layer"
     id="g300"><g
       transform="scale(0.1)"
       id="g302"><path
         id="path304"
         style="fill:#ffffff;fill-opacity:1;fill-rule:nonzero;stroke:none"
         d="M -200,0 H 4000 V 3150 H -200 Z" /><path
         id="path306"
         style="fill:#ffffff;fill-opacity:1;fill-rule:nonzero;stroke:none"
         d="M -200,0 H 4000 V 3150 H -200 Z" /><path
         id="path308"
         style="fill:#ffffff;fill-opacity:1;fill-rule:nonzero;stroke:none"
         d="m 347.5,382.5 h 3255 V 2865 h -3255 z" /><path
         id="path310"
         style="fill:none;stroke:#dfdfdf;stroke-width:5.0025;stroke-linecap:butt;stroke-linejoin:round;stroke-miterlimit:10;stroke-dasharray:none;stroke-opacity:1"
         d="M 347.5,382.5 V 2865" /><path
         id="path312"
         style="fill:none;stroke:#dfdfdf;stroke-width:5.0025;stroke-linecap:butt;stroke-linejoin:round;stroke-miterlimit:10;stroke-dasharray:none;stroke-opacity:1"
         d="M 580,382.5 V 2865" /><path
         id="path314"
         style="fill:none;stroke:#dfdfdf;stroke-width:5.0025;stroke-linecap:butt;stroke-linejoin:round;stroke-miterlimit:10;stroke-dasharray:none;stroke-opacity:1"
         d="M 812.5,382.5 V 2865" /><path
         id="path316"
         style="fill:none;stroke:#dfdfdf;stroke-width:5.0025;stroke-linecap:butt;stroke-linejoin:round;stroke-miterlimit:10;stroke-dasharray:none;stroke-opacity:1"
         d="M 1045,382.5 V 2865" /><path
         id="path318"
         style="fill:none;stroke:#dfdfdf;stroke-width:5.0025;stroke-linecap:butt;stroke-linejoin:round;stroke-miterlimit:10;stroke-dasharray:none;stroke-opacity:1"
         d="M 1277.5,382.5 V 2865" /><path
         id="path320"
         style="fill:none;stroke:#dfdfdf;stroke-width:5.0025;stroke-linecap:butt;stroke-linejoin:round;stroke-miterlimit:10;stroke-dasharray:none;stroke-opacity:1"
         d="M 1510,382.5 V 2865" /><path
         id="path322"
         style="fill:none;stroke:#dfdfdf;stroke-width:5.0025;stroke-linecap:butt;stroke-linejoin:round;stroke-miterlimit:10;stroke-dasharray:none;stroke-opacity:1"
         d="M 1742.5,382.5 V 2865" /><path
         id="path324"
         style="fill:none;stroke:#dfdfdf;stroke-width:5.0025;stroke-linecap:butt;stroke-linejoin:round;stroke-miterlimit:10;stroke-dasharray:none;stroke-opacity:1"
         d="M 1975,382.5 V 2865" /><path
         id="path326"
         style="fill:none;stroke:#dfdfdf;stroke-width:5.0025;stroke-linecap:butt;stroke-linejoin:round;stroke-miterlimit:10;stroke-dasharray:none;stroke-opacity:1"
         d="M 2207.5,382.5 V 2865" /><path
         id="path328"
         style="fill:none;stroke:#dfdfdf;stroke-width:5.0025;stroke-linecap:butt;stroke-linejoin:round;stroke-miterlimit:10;stroke-dasharray:none;stroke-opacity:1"
         d="M 2440,382.5 V 2865" /><path
         id="path330"
         style="fill:none;stroke:#dfdfdf;stroke-width:5.0025;stroke-linecap:butt;stroke-linejoin:round;stroke-miterlimit:10;stroke-dasharray:none;stroke-opacity:1"
         d="M 2672.5,382.5 V 2865" /><path
         id="path332"
         style="fill:none;stroke:#dfdfdf;stroke-width:5.0025;stroke-linecap:butt;stroke-linejoin:round;stroke-miterlimit:10;stroke-dasharray:none;stroke-opacity:1"
         d="M 2905,382.5 V 2865" /><path
         id="path334"
         style="fill:none;stroke:#dfdfdf;stroke-width:5.0025;stroke-linecap:butt;stroke-linejoin:round;stroke-miterlimit:10;stroke-dasharray:none;stroke-opacity:1"
         d="M 3137.5,382.5 V 2865" /><path
         id="path336"
         style="fill:none;stroke:#dfdfdf;stroke-width:5.0025;stroke-linecap:butt;stroke-linejoin:round;stroke-miterlimit:10;stroke-dasharray:none;stroke-opacity:1"
         d="M 3370,382.5 V 2865" /><path
         id="path338"
         style="fill:none;stroke:#dfdfdf;stroke-width:5.0025;stroke-linecap:butt;stroke-linejoin:round;stroke-miterlimit:10;stroke-dasharray:none;stroke-opacity:1"
         d="M 3602.5,382.5 V 2865" /><path
         id="path340"
         style="fill:none;stroke:#dfdfdf;stroke-width:5.0025;stroke-linecap:butt;stroke-linejoin:round;stroke-miterlimit:10;stroke-dasharray:none;stroke-opacity:1"
         d="M 3602.5,382.5 H 347.5" /><path
         id="path342"
         style="fill:none;stroke:#dfdfdf;stroke-width:5.0025;stroke-linecap:butt;stroke-linejoin:round;stroke-miterlimit:10;stroke-dasharray:none;stroke-opacity:1"
         d="M 3602.5,630.75 H 347.5" /><path
         id="path344"
         style="fill:none;stroke:#dfdfdf;stroke-width:5.0025;stroke-linecap:butt;stroke-linejoin:round;stroke-miterlimit:10;stroke-dasharray:none;stroke-opacity:1"
         d="M 3602.5,879 H 347.5" /><path
         id="path346"
         style="fill:none;stroke:#dfdfdf;stroke-width:5.0025;stroke-linecap:butt;stroke-linejoin:round;stroke-miterlimit:10;stroke-dasharray:none;stroke-opacity:1"
         d="M 3602.5,1127.25 H 347.5" /><path
         id="path348"
         style="fill:none;stroke:#dfdfdf;stroke-width:5.0025;stroke-linecap:butt;stroke-linejoin:round;stroke-miterlimit:10;stroke-dasharray:none;stroke-opacity:1"
         d="M 3602.5,1375.5 H 347.5" /><path
         id="path350"
         style="fill:none;stroke:#dfdfdf;stroke-width:5.0025;stroke-linecap:butt;stroke-linejoin:round;stroke-miterlimit:10;stroke-dasharray:none;stroke-opacity:1"
         d="M 3602.5,1623.75 H 347.5" /><path
         id="path352"
         style="fill:none;stroke:#dfdfdf;stroke-width:5.0025;stroke-linecap:butt;stroke-linejoin:round;stroke-miterlimit:10;stroke-dasharray:none;stroke-opacity:1"
         d="M 3602.5,1872 H 347.5" /><path
         id="path354"
         style="fill:none;stroke:#dfdfdf;stroke-width:5.0025;stroke-linecap:butt;stroke-linejoin:round;stroke-miterlimit:10;stroke-dasharray:none;stroke-opacity:1"
         d="M 3602.5,2120.25 H 347.5" /><path
         id="path356"
         style="fill:none;stroke:#dfdfdf;stroke-width:5.0025;stroke-linecap:butt;stroke-linejoin:round;stroke-miterlimit:10;stroke-dasharray:none;stroke-opacity:1"
         d="M 3602.5,2368.5 H 347.5" /><path
         id="path358"
         style="fill:none;stroke:#dfdfdf;stroke-width:5.0025;stroke-linecap:butt;stroke-linejoin:round;stroke-miterlimit:10;stroke-dasharray:none;stroke-opacity:1"
         d="M 3602.5,2616.75 H 347.5" /><path
         id="path360"
         style="fill:none;stroke:#dfdfdf;stroke-width:5.0025;stroke-linecap:butt;stroke-linejoin:round;stroke-miterlimit:10;stroke-dasharray:none;stroke-opacity:1"
         d="M 3602.5,2865 H 347.5" /><path
         id="path362"
         style="fill:none;stroke:#262626;stroke-width:5.0025;stroke-linecap:square;stroke-linejoin:round;stroke-miterlimit:10;stroke-dasharray:none;stroke-opacity:1"
         d="m 347.5,382.5 h 3255" /><path
         id="path364"
         style="fill:none;stroke:#262626;stroke-width:5.0025;stroke-linecap:square;stroke-linejoin:round;stroke-miterlimit:10;stroke-dasharray:none;stroke-opacity:1"
         d="m 347.5,2865 h 3255" /><path
         id="path366"
         style="fill:none;stroke:#262626;stroke-width:5.0025;stroke-linecap:square;stroke-linejoin:round;stroke-miterlimit:10;stroke-dasharray:none;stroke-opacity:1"
         d="m 347.5,382.5 v 32.551" /><path
         id="path368"
         style="fill:none;stroke:#262626;stroke-width:5.0025;stroke-linecap:square;stroke-linejoin:round;stroke-miterlimit:10;stroke-dasharray:none;stroke-opacity:1"
         d="m 580,382.5 v 32.551" /><path
         id="path370"
         style="fill:none;stroke:#262626;stroke-width:5.0025;stroke-linecap:square;stroke-linejoin:round;stroke-miterlimit:10;stroke-dasharray:none;stroke-opacity:1"
         d="m 812.5,382.5 v 32.551" /><path
         id="path372"
         style="fill:none;stroke:#262626;stroke-width:5.0025;stroke-linecap:square;stroke-linejoin:round;stroke-miterlimit:10;stroke-dasharray:none;stroke-opacity:1"
         d="m 1045,382.5 v 32.551" /><path
         id="path374"
         style="fill:none;stroke:#262626;stroke-width:5.0025;stroke-linecap:square;stroke-linejoin:round;stroke-miterlimit:10;stroke-dasharray:none;stroke-opacity:1"
         d="m 1277.5,382.5 v 32.551" /><path
         id="path376"
         style="fill:none;stroke:#262626;stroke-width:5.0025;stroke-linecap:square;stroke-linejoin:round;stroke-miterlimit:10;stroke-dasharray:none;stroke-opacity:1"
         d="m 1510,382.5 v 32.551" /><path
         id="path378"
         style="fill:none;stroke:#262626;stroke-width:5.0025;stroke-linecap:square;stroke-linejoin:round;stroke-miterlimit:10;stroke-dasharray:none;stroke-opacity:1"
         d="m 1742.5,382.5 v 32.551" /><path
         id="path380"
         style="fill:none;stroke:#262626;stroke-width:5.0025;stroke-linecap:square;stroke-linejoin:round;stroke-miterlimit:10;stroke-dasharray:none;stroke-opacity:1"
         d="m 1975,382.5 v 32.551" /><path
         id="path382"
         style="fill:none;stroke:#262626;stroke-width:5.0025;stroke-linecap:square;stroke-linejoin:round;stroke-miterlimit:10;stroke-dasharray:none;stroke-opacity:1"
         d="m 2207.5,382.5 v 32.551" /><path
         id="path384"
         style="fill:none;stroke:#262626;stroke-width:5.0025;stroke-linecap:square;stroke-linejoin:round;stroke-miterlimit:10;stroke-dasharray:none;stroke-opacity:1"
         d="m 2440,382.5 v 32.551" /><path
         id="path386"
         style="fill:none;stroke:#262626;stroke-width:5.0025;stroke-linecap:square;stroke-linejoin:round;stroke-miterlimit:10;stroke-dasharray:none;stroke-opacity:1"
         d="m 2672.5,382.5 v 32.551" /><path
         id="path388"
         style="fill:none;stroke:#262626;stroke-width:5.0025;stroke-linecap:square;stroke-linejoin:round;stroke-miterlimit:10;stroke-dasharray:none;stroke-opacity:1"
         d="m 2905,382.5 v 32.551" /><path
         id="path390"
         style="fill:none;stroke:#262626;stroke-width:5.0025;stroke-linecap:square;stroke-linejoin:round;stroke-miterlimit:10;stroke-dasharray:none;stroke-opacity:1"
         d="m 3137.5,382.5 v 32.551" /><path
         id="path392"
         style="fill:none;stroke:#262626;stroke-width:5.0025;stroke-linecap:square;stroke-linejoin:round;stroke-miterlimit:10;stroke-dasharray:none;stroke-opacity:1"
         d="m 3370,382.5 v 32.551" /><path
         id="path394"
         style="fill:none;stroke:#262626;stroke-width:5.0025;stroke-linecap:square;stroke-linejoin:round;stroke-miterlimit:10;stroke-dasharray:none;stroke-opacity:1"
         d="m 3602.5,382.5 v 32.551" /><path
         id="path396"
         style="fill:none;stroke:#262626;stroke-width:5.0025;stroke-linecap:square;stroke-linejoin:round;stroke-miterlimit:10;stroke-dasharray:none;stroke-opacity:1"
         d="m 347.5,2865 v -32.55" /><path
         id="path398"
         style="fill:none;stroke:#262626;stroke-width:5.0025;stroke-linecap:square;stroke-linejoin:round;stroke-miterlimit:10;stroke-dasharray:none;stroke-opacity:1"
         d="m 580,2865 v -32.55" /><path
         id="path400"
         style="fill:none;stroke:#262626;stroke-width:5.0025;stroke-linecap:square;stroke-linejoin:round;stroke-miterlimit:10;stroke-dasharray:none;stroke-opacity:1"
         d="m 812.5,2865 v -32.55" /><path
         id="path402"
         style="fill:none;stroke:#262626;stroke-width:5.0025;stroke-linecap:square;stroke-linejoin:round;stroke-miterlimit:10;stroke-dasharray:none;stroke-opacity:1"
         d="m 1045,2865 v -32.55" /><path
         id="path404"
         style="fill:none;stroke:#262626;stroke-width:5.0025;stroke-linecap:square;stroke-linejoin:round;stroke-miterlimit:10;stroke-dasharray:none;stroke-opacity:1"
         d="m 1277.5,2865 v -32.55" /><path
         id="path406"
         style="fill:none;stroke:#262626;stroke-width:5.0025;stroke-linecap:square;stroke-linejoin:round;stroke-miterlimit:10;stroke-dasharray:none;stroke-opacity:1"
         d="m 1510,2865 v -32.55" /><path
         id="path408"
         style="fill:none;stroke:#262626;stroke-width:5.0025;stroke-linecap:square;stroke-linejoin:round;stroke-miterlimit:10;stroke-dasharray:none;stroke-opacity:1"
         d="m 1742.5,2865 v -32.55" /><path
         id="path410"
         style="fill:none;stroke:#262626;stroke-width:5.0025;stroke-linecap:square;stroke-linejoin:round;stroke-miterlimit:10;stroke-dasharray:none;stroke-opacity:1"
         d="m 1975,2865 v -32.55" /><path
         id="path412"
         style="fill:none;stroke:#262626;stroke-width:5.0025;stroke-linecap:square;stroke-linejoin:round;stroke-miterlimit:10;stroke-dasharray:none;stroke-opacity:1"
         d="m 2207.5,2865 v -32.55" /><path
         id="path414"
         style="fill:none;stroke:#262626;stroke-width:5.0025;stroke-linecap:square;stroke-linejoin:round;stroke-miterlimit:10;stroke-dasharray:none;stroke-opacity:1"
         d="m 2440,2865 v -32.55" /><path
         id="path416"
         style="fill:none;stroke:#262626;stroke-width:5.0025;stroke-linecap:square;stroke-linejoin:round;stroke-miterlimit:10;stroke-dasharray:none;stroke-opacity:1"
         d="m 2672.5,2865 v -32.55" /><path
         id="path418"
         style="fill:none;stroke:#262626;stroke-width:5.0025;stroke-linecap:square;stroke-linejoin:round;stroke-miterlimit:10;stroke-dasharray:none;stroke-opacity:1"
         d="m 2905,2865 v -32.55" /><path
         id="path420"
         style="fill:none;stroke:#262626;stroke-width:5.0025;stroke-linecap:square;stroke-linejoin:round;stroke-miterlimit:10;stroke-dasharray:none;stroke-opacity:1"
         d="m 3137.5,2865 v -32.55" /><path
         id="path422"
         style="fill:none;stroke:#262626;stroke-width:5.0025;stroke-linecap:square;stroke-linejoin:round;stroke-miterlimit:10;stroke-dasharray:none;stroke-opacity:1"
         d="m 3370,2865 v -32.55" /><path
         id="path424"
         style="fill:none;stroke:#262626;stroke-width:5.0025;stroke-linecap:square;stroke-linejoin:round;stroke-miterlimit:10;stroke-dasharray:none;stroke-opacity:1"
         d="m 3602.5,2865 v -32.55" /><g
         transform="scale(10)"
         id="g426"><text
           id="text458"
           style="font-variant:normal;font-weight:normal;font-size:9.99975px;font-family:Helvetica;-inkscape-font-specification:Helvetica;writing-mode:lr-tb;fill:#262626;fill-opacity:1;fill-rule:nonzero;stroke:none"
           transform="matrix(0.707107,0.707107,0.707107,-0.707107,37.4016,23.1129)"><tspan
             id="tspan428"
             y="0"
             x="0">0</tspan><tspan
             id="tspan430"
             sodipodi:role="line"
             y="16.440205"
             x="11.190503 16.750366">10</tspan><tspan
             id="tspan432"
             sodipodi:role="line"
             y="32.880409"
             x="27.630709 33.190571">20</tspan><tspan
             id="tspan434"
             sodipodi:role="line"
             y="49.320614"
             x="44.070915 49.630775">30</tspan><tspan
             id="tspan436"
             sodipodi:role="line"
             y="65.760818"
             x="60.51112 66.070984">40</tspan><tspan
             id="tspan438"
             sodipodi:role="line"
             y="82.201027"
             x="76.951324 82.511185">50</tspan><tspan
             id="tspan440"
             sodipodi:role="line"
             y="98.641228"
             x="93.391525 98.951393">60</tspan><tspan
             id="tspan442"
             sodipodi:role="line"
             y="115.08144"
             x="109.83173 115.39159">70</tspan><tspan
             id="tspan444"
             sodipodi:role="line"
             y="131.52164"
             x="126.27194 131.8318">80</tspan><tspan
             id="tspan446"
             sodipodi:role="line"
             y="147.96185"
             x="142.71214 148.272">90</tspan><tspan
             id="tspan448"
             sodipodi:role="line"
             y="164.40205"
             x="153.15245 158.71231 164.27217">100</tspan><tspan
             id="tspan450"
             sodipodi:role="line"
             y="180.84225"
             x="169.59265 175.15251 180.71237">110</tspan><tspan
             id="tspan452"
             sodipodi:role="line"
             y="197.28246"
             x="186.03285 191.59273 197.15259">120</tspan><tspan
             id="tspan454"
             sodipodi:role="line"
             y="213.72267"
             x="202.47307 208.03293 213.59279">130</tspan><tspan
             id="tspan456"
             sodipodi:role="line"
             y="230.16287"
             x="218.91327 224.47313 230.03299">140</tspan></text><text
           id="text462"
           style="font-variant:normal;font-weight:normal;font-size:11.0002px;font-family:Helvetica;-inkscape-font-specification:Helvetica;writing-mode:lr-tb;fill:#262626;fill-opacity:1;fill-rule:nonzero;stroke:none"
           transform="matrix(1,0,0,-1,154.375,2.06719)"><tspan
             id="tspan460"
             sodipodi:role="line"
             y="0"
             x="0 7.9421444 14.058255 16.500299 22.616411 25.674467 31.790579 34.232624 36.674667 39.732723 42.790779 51.953945 61.117111 64.175163 70.291275 76.407387 82.523499">Rainfall [mm/12h]</tspan></text></g><path
         id="path464"
         style="fill:none;stroke:#262626;stroke-width:5.0025;stroke-linecap:square;stroke-linejoin:round;stroke-miterlimit:10;stroke-dasharray:none;stroke-opacity:1"
         d="M 347.5,382.5 V 2865" /><path
         id="path466"
         style="fill:none;stroke:#262626;stroke-width:5.0025;stroke-linecap:square;stroke-linejoin:round;stroke-miterlimit:10;stroke-dasharray:none;stroke-opacity:1"
         d="M 3602.5,382.5 V 2865" /><path
         id="path468"
         style="fill:none;stroke:#262626;stroke-width:5.0025;stroke-linecap:square;stroke-linejoin:round;stroke-miterlimit:10;stroke-dasharray:none;stroke-opacity:1"
         d="m 347.5,382.5 h 32.551" /><path
         id="path470"
         style="fill:none;stroke:#262626;stroke-width:5.0025;stroke-linecap:square;stroke-linejoin:round;stroke-miterlimit:10;stroke-dasharray:none;stroke-opacity:1"
         d="m 347.5,630.75 h 32.551" /><path
         id="path472"
         style="fill:none;stroke:#262626;stroke-width:5.0025;stroke-linecap:square;stroke-linejoin:round;stroke-miterlimit:10;stroke-dasharray:none;stroke-opacity:1"
         d="m 347.5,879 h 32.551" /><path
         id="path474"
         style="fill:none;stroke:#262626;stroke-width:5.0025;stroke-linecap:square;stroke-linejoin:round;stroke-miterlimit:10;stroke-dasharray:none;stroke-opacity:1"
         d="m 347.5,1127.25 h 32.551" /><path
         id="path476"
         style="fill:none;stroke:#262626;stroke-width:5.0025;stroke-linecap:square;stroke-linejoin:round;stroke-miterlimit:10;stroke-dasharray:none;stroke-opacity:1"
         d="m 347.5,1375.5 h 32.551" /><path
         id="path478"
         style="fill:none;stroke:#262626;stroke-width:5.0025;stroke-linecap:square;stroke-linejoin:round;stroke-miterlimit:10;stroke-dasharray:none;stroke-opacity:1"
         d="m 347.5,1623.75 h 32.551" /><path
         id="path480"
         style="fill:none;stroke:#262626;stroke-width:5.0025;stroke-linecap:square;stroke-linejoin:round;stroke-miterlimit:10;stroke-dasharray:none;stroke-opacity:1"
         d="m 347.5,1872 h 32.551" /><path
         id="path482"
         style="fill:none;stroke:#262626;stroke-width:5.0025;stroke-linecap:square;stroke-linejoin:round;stroke-miterlimit:10;stroke-dasharray:none;stroke-opacity:1"
         d="m 347.5,2120.25 h 32.551" /><path
         id="path484"
         style="fill:none;stroke:#262626;stroke-width:5.0025;stroke-linecap:square;stroke-linejoin:round;stroke-miterlimit:10;stroke-dasharray:none;stroke-opacity:1"
         d="m 347.5,2368.5 h 32.551" /><path
         id="path486"
         style="fill:none;stroke:#262626;stroke-width:5.0025;stroke-linecap:square;stroke-linejoin:round;stroke-miterlimit:10;stroke-dasharray:none;stroke-opacity:1"
         d="m 347.5,2616.75 h 32.551" /><path
         id="path488"
         style="fill:none;stroke:#262626;stroke-width:5.0025;stroke-linecap:square;stroke-linejoin:round;stroke-miterlimit:10;stroke-dasharray:none;stroke-opacity:1"
         d="m 347.5,2865 h 32.551" /><path
         id="path490"
         style="fill:none;stroke:#262626;stroke-width:5.0025;stroke-linecap:square;stroke-linejoin:round;stroke-miterlimit:10;stroke-dasharray:none;stroke-opacity:1"
         d="m 3602.5,382.5 h -32.55" /><path
         id="path492"
         style="fill:none;stroke:#262626;stroke-width:5.0025;stroke-linecap:square;stroke-linejoin:round;stroke-miterlimit:10;stroke-dasharray:none;stroke-opacity:1"
         d="m 3602.5,630.75 h -32.55" /><path
         id="path494"
         style="fill:none;stroke:#262626;stroke-width:5.0025;stroke-linecap:square;stroke-linejoin:round;stroke-miterlimit:10;stroke-dasharray:none;stroke-opacity:1"
         d="m 3602.5,879 h -32.55" /><path
         id="path496"
         style="fill:none;stroke:#262626;stroke-width:5.0025;stroke-linecap:square;stroke-linejoin:round;stroke-miterlimit:10;stroke-dasharray:none;stroke-opacity:1"
         d="m 3602.5,1127.25 h -32.55" /><path
         id="path498"
         style="fill:none;stroke:#262626;stroke-width:5.0025;stroke-linecap:square;stroke-linejoin:round;stroke-miterlimit:10;stroke-dasharray:none;stroke-opacity:1"
         d="m 3602.5,1375.5 h -32.55" /><path
         id="path500"
         style="fill:none;stroke:#262626;stroke-width:5.0025;stroke-linecap:square;stroke-linejoin:round;stroke-miterlimit:10;stroke-dasharray:none;stroke-opacity:1"
         d="m 3602.5,1623.75 h -32.55" /><path
         id="path502"
         style="fill:none;stroke:#262626;stroke-width:5.0025;stroke-linecap:square;stroke-linejoin:round;stroke-miterlimit:10;stroke-dasharray:none;stroke-opacity:1"
         d="m 3602.5,1872 h -32.55" /><path
         id="path504"
         style="fill:none;stroke:#262626;stroke-width:5.0025;stroke-linecap:square;stroke-linejoin:round;stroke-miterlimit:10;stroke-dasharray:none;stroke-opacity:1"
         d="m 3602.5,2120.25 h -32.55" /><path
         id="path506"
         style="fill:none;stroke:#262626;stroke-width:5.0025;stroke-linecap:square;stroke-linejoin:round;stroke-miterlimit:10;stroke-dasharray:none;stroke-opacity:1"
         d="m 3602.5,2368.5 h -32.55" /><path
         id="path508"
         style="fill:none;stroke:#262626;stroke-width:5.0025;stroke-linecap:square;stroke-linejoin:round;stroke-miterlimit:10;stroke-dasharray:none;stroke-opacity:1"
         d="m 3602.5,2616.75 h -32.55" /><path
         id="path510"
         style="fill:none;stroke:#262626;stroke-width:5.0025;stroke-linecap:square;stroke-linejoin:round;stroke-miterlimit:10;stroke-dasharray:none;stroke-opacity:1"
         d="m 3602.5,2865 h -32.55" /><g
         transform="scale(10)"
         id="g512"><text
           id="text536"
           style="font-variant:normal;font-weight:normal;font-size:9.99975px;font-family:Helvetica;-inkscape-font-specification:Helvetica;writing-mode:lr-tb;fill:#262626;fill-opacity:1;fill-rule:nonzero;stroke:none"
           transform="matrix(1,0,0,-1,24.75,34.5)"><tspan
             id="tspan514"
             y="0"
             x="0">0</tspan><tspan
             id="tspan516"
             sodipodi:role="line"
             y="-24.825001"
             x="-5.25 0.309861">10</tspan><tspan
             id="tspan518"
             sodipodi:role="line"
             y="-49.650002"
             x="-5.25 0.309861">20</tspan><tspan
             id="tspan520"
             sodipodi:role="line"
             y="-74.474998"
             x="-5.25 0.309861">30</tspan><tspan
             id="tspan522"
             sodipodi:role="line"
             y="-99.300003"
             x="-5.25 0.309861">40</tspan><tspan
             id="tspan524"
             sodipodi:role="line"
             y="-124.125"
             x="-5.25 0.309861">50</tspan><tspan
             id="tspan526"
             sodipodi:role="line"
             y="-148.95"
             x="-5.25 0.309861">60</tspan><tspan
             id="tspan528"
             sodipodi:role="line"
             y="-173.77499"
             x="-5.25 0.309861">70</tspan><tspan
             id="tspan530"
             sodipodi:role="line"
             y="-198.60001"
             x="-5.25 0.309861">80</tspan><tspan
             id="tspan532"
             sodipodi:role="line"
             y="-223.425"
             x="-5.25 0.309861">90</tspan><tspan
             id="tspan534"
             sodipodi:role="line"
             y="-248.25"
             x="-11.25 -5.6901388 -0.13027801">100</tspan></text><text
           id="text540"
           style="font-variant:normal;font-weight:normal;font-size:11.0002px;font-family:Helvetica;-inkscape-font-specification:Helvetica;writing-mode:lr-tb;fill:#262626;fill-opacity:1;fill-rule:nonzero;stroke:none"
           transform="matrix(0,1,1,0,8.25,125.625)"><tspan
             id="tspan538"
             sodipodi:role="line"
             y="0"
             x="0 7.3371334 13.453244 17.116312 22.616411 28.732523 34.848633 37.906689 40.348732 42.790779 48.906891 54.40699 57.465046 60.523102 70.302277">Percentiles [%]</tspan></text></g><g
         transform="scale(10)"
         id="g542"><text
           id="text548"
           style="font-variant:normal;font-weight:bold;font-size:11.0002px;font-family:Helvetica;-inkscape-font-specification:Helvetica-Bold;writing-mode:lr-tb;fill:#000000;fill-opacity:1;fill-rule:nonzero;stroke:none"
           transform="matrix(1,0,0,-1,50.5004,303.563)"><tspan
             id="tspan544"
             sodipodi:role="line"
             y="0"
             x="0 7.9421444 15.884289 22.605412 25.663467 32.38459 36.047657 39.105713 43.384789 49.5009 52.558956 59.280079 62.943146 69.059258 72.11731 75.175369 78.233421 84.349533 90.465645 93.523697 100.24482 106.36093 112.47704 115.5351 121.65121 127.76733 133.88344 140.60455 146.72067 149.77872 155.89484 159.55791 165.67401 172.39514 175.45319 184.01135 187.0694 190.73247 197.45358 200.51164 204.17471 207.23277 213.34888 219.465 226.18611 229.24417 232.90724 235.96529 242.68642 249.40753 256.12866 259.18671 265.30283 271.41895 277.53503 284.25616 287.91922">CDF of rainfall values associated with flash flood events</tspan><tspan
             id="tspan546"
             sodipodi:role="line"
             y="12.75"
             x="72 78.721123 81.779175 88.500298 95.22142 101.94254 105.0006 109.27968 115.39579 122.11691 128.83803 133.11711 136.78018 142.89629 145.95435 154.5125 157.57056 161.23363 167.95474 171.0128 178.34993 185.07106 191.79218 199.73433 202.79237 209.21649 215.64061">Flood reports with EFFCI&gt;=6</tspan></text></g><path
         id="path550"
         style="fill:none;stroke:#0000ff;stroke-width:20.0025;stroke-linecap:butt;stroke-linejoin:round;stroke-miterlimit:10;stroke-dasharray:none;stroke-opacity:1"
         d="m 347.5,407.324 v 744.746 l 0.699,24.83 1.395,24.83 1.859,24.82 1.86,24.83 1.859,24.82 1.859,24.82 2.328,24.83 2.09,24.83 1.86,24.82 2.328,24.82 2.324,24.83 2.555,24.83 2.558,24.82 3.024,24.83 2.789,24.82 2.789,24.82 3.023,24.83 3.254,24.83 3.258,24.82 3.719,24.82 3.254,24.83 4.418,24.83 4.187,24.82 4.184,24.83 4.648,24.82 4.883,24.82 4.883,24.83 5.582,24.83 5.812,24.82 5.348,24.82 6.277,24.83 6.508,24.83 6.512,24.82 7.437,24.83 7.907,24.82 8.371,24.82 8.136,24.83 9.067,24.83 9.301,24.82 9.765,24.82 10.461,24.83 12.09,24.83 12.09,24.82 12.789,24.83 14.648,24.82 14.184,24.82 15.344,24.83 16.972,24.83 19.528,24.82 19.066,24.82 21.856,24.83 23.714,24.83 25.344,24.82 28.133,24.83 33.246,24.82 34.875,24.82 38.594,24.83 47.664,24.83 48.594,24.82 58.358,24.82 70.21,24.83 76.49,24.83 101.38,24.82 122.99,24.83 153.22,24.82 229.01,24.82 328.75,24.83 615.66,24.83" /><path
         id="path552"
         style="fill:none;stroke:#ff0000;stroke-width:20.0025;stroke-linecap:butt;stroke-linejoin:round;stroke-miterlimit:10;stroke-dasharray:none;stroke-opacity:1"
         d="m 347.5,407.324 v 844.056 l 0.465,24.82 0.699,24.82 0.695,24.83 0.93,24.83 0.93,24.82 1.164,24.82 1.394,24.83 1.164,24.83 1.161,24.82 1.394,24.83 1.629,24.82 1.629,24.82 1.394,24.83 1.625,24.83 1.629,24.82 2.094,24.82 1.625,24.83 2.094,24.83 1.859,24.82 2.324,24.83 2.094,24.82 2.559,24.82 2.324,24.83 3.023,24.83 2.79,24.82 3.023,24.82 3.488,24.83 3.719,24.83 4.418,24.82 4.184,24.83 4.418,24.82 4.648,24.82 5.117,24.83 5.348,24.83 5.347,24.82 6.508,24.82 6.512,24.83 6.277,24.83 6.977,24.82 7.437,24.83 7.907,24.82 8.836,24.82 9.761,24.83 9.301,24.83 10,24.82 11.391,24.82 12.554,24.83 15.114,24.83 13.019,24.82 15.578,24.83 18.133,24.82 19.996,24.82 22.785,24.83 23.95,24.83 28.828,24.82 30.226,24.82 36.035,24.83 48.364,24.83 56.726,24.82 66.496,24.83 88.581,24.82 128.58,24.82 192.74,24.83 400.6,24.83" /><path
         id="path554"
         style="fill:#ffffff;fill-opacity:1;fill-rule:nonzero;stroke:none"
         d="M 2567.5,465 H 3520 v 360 h -952.5 z" /><g
         transform="scale(10)"
         id="g556"><text
           id="text560"
           style="font-variant:normal;font-weight:normal;font-size:14.0002px;font-family:Helvetica;-inkscape-font-specification:Helvetica;writing-mode:lr-tb;fill:#000000;fill-opacity:1;fill-rule:nonzero;stroke:none"
           transform="matrix(1,0,0,-1,292,67.6004)"><tspan
             id="tspan558"
             sodipodi:role="line"
             y="0"
             x="0 7.784111 15.568222 19.460278 29.568422 37.352535 44.352634 48.24469">La Costa</tspan></text></g><path
         id="path562"
         style="fill:none;stroke:#0000ff;stroke-width:20.0025;stroke-linecap:butt;stroke-linejoin:round;stroke-miterlimit:10;stroke-dasharray:none;stroke-opacity:1"
         d="m 2597.5,728.504 h 300" /><g
         transform="scale(10)"
         id="g564"><text
           id="text568"
           style="font-variant:normal;font-weight:normal;font-size:14.0002px;font-family:Helvetica;-inkscape-font-specification:Helvetica;writing-mode:lr-tb;fill:#000000;fill-opacity:1;fill-rule:nonzero;stroke:none"
           transform="matrix(1,0,0,-1,292,50.8996)"><tspan
             id="tspan566"
             sodipodi:role="line"
             y="0"
             x="0 7.784111 15.568222 19.460278 28.798412 31.906456 39.690567 44.352634 49.014702">La Sierra</tspan></text></g><path
         id="path570"
         style="fill:none;stroke:#ff0000;stroke-width:20.0025;stroke-linecap:butt;stroke-linejoin:round;stroke-miterlimit:10;stroke-dasharray:none;stroke-opacity:1"
         d="m 2597.5,561.496 h 300" /><path
         id="path572"
         style="fill:none;stroke:#262626;stroke-width:5.0025;stroke-linecap:butt;stroke-linejoin:miter;stroke-miterlimit:10;stroke-dasharray:none;stroke-opacity:1"
         d="M 2567.5,465 H 3520 v 360 h -952.5 z" /></g></g></svg>
