<?xml version="1.0" encoding="UTF-8" standalone="no"?>
<svg
   xmlns:dc="http://purl.org/dc/elements/1.1/"
   xmlns:cc="http://creativecommons.org/ns#"
   xmlns:rdf="http://www.w3.org/1999/02/22-rdf-syntax-ns#"
   xmlns:svg="http://www.w3.org/2000/svg"
   xmlns="http://www.w3.org/2000/svg"
   xmlns:sodipodi="http://sodipodi.sourceforge.net/DTD/sodipodi-0.dtd"
   xmlns:inkscape="http://www.inkscape.org/namespaces/inkscape"
   inkscape:version="1.0 (4035a4fb49, 2020-05-01)"
   sodipodi:docname="RainFR_RainExtr_EFFCI06_Costa_ZoomIn.svg"
   viewBox="0 0 524 398.66666"
   height="398.66666"
   width="524"
   xml:space="preserve"
   id="svg1426"
   version="1.1"><metadata
     id="metadata1432"><rdf:RDF><cc:Work
         rdf:about=""><dc:format>image/svg+xml</dc:format><dc:type
           rdf:resource="http://purl.org/dc/dcmitype/StillImage" /><dc:title></dc:title></cc:Work></rdf:RDF></metadata><defs
     id="defs1430" /><sodipodi:namedview
     inkscape:current-layer="g1434"
     inkscape:window-maximized="0"
     inkscape:window-y="0"
     inkscape:window-x="0"
     inkscape:cy="199.33333"
     inkscape:cx="262"
     inkscape:zoom="1.8436455"
     showgrid="false"
     id="namedview1428"
     inkscape:window-height="510"
     inkscape:window-width="743"
     inkscape:pageshadow="2"
     inkscape:pageopacity="0"
     guidetolerance="10"
     gridtolerance="10"
     objecttolerance="10"
     borderopacity="1"
     bordercolor="#666666"
     pagecolor="#ffffff" /><g
     transform="matrix(1.3333333,0,0,-1.3333333,0,398.66667)"
     inkscape:label="ink_ext_XXXXXX"
     inkscape:groupmode="layer"
     id="g1434"><g
       transform="scale(0.1)"
       id="g1436"><path
         id="path1438"
         style="fill:#ffffff;fill-opacity:1;fill-rule:nonzero;stroke:none"
         d="M -30,0 H 4200 V 3165 H -30 Z" /><path
         id="path1440"
         style="fill:#ffffff;fill-opacity:1;fill-rule:nonzero;stroke:none"
         d="M -30,0 H 4200 V 3165 H -30 Z" /><path
         id="path1442"
         style="fill:#ffffff;fill-opacity:1;fill-rule:nonzero;stroke:none"
         d="M 525,457.5 H 3795 V 2925 H 525 Z" /><path
         id="path1444"
         style="fill:none;stroke:#929292;stroke-width:5.0025;stroke-linecap:butt;stroke-linejoin:round;stroke-miterlimit:10;stroke-dasharray:none;stroke-opacity:1"
         d="M 525,457.5 V 2925" /><path
         id="path1446"
         style="fill:none;stroke:#929292;stroke-width:5.0025;stroke-linecap:butt;stroke-linejoin:round;stroke-miterlimit:10;stroke-dasharray:none;stroke-opacity:1"
         d="M 1179,457.5 V 2925" /><path
         id="path1448"
         style="fill:none;stroke:#929292;stroke-width:5.0025;stroke-linecap:butt;stroke-linejoin:round;stroke-miterlimit:10;stroke-dasharray:none;stroke-opacity:1"
         d="M 1833,457.5 V 2925" /><path
         id="path1450"
         style="fill:none;stroke:#929292;stroke-width:5.0025;stroke-linecap:butt;stroke-linejoin:round;stroke-miterlimit:10;stroke-dasharray:none;stroke-opacity:1"
         d="M 2487,457.5 V 2925" /><path
         id="path1452"
         style="fill:none;stroke:#929292;stroke-width:5.0025;stroke-linecap:butt;stroke-linejoin:round;stroke-miterlimit:10;stroke-dasharray:none;stroke-opacity:1"
         d="M 3141,457.5 V 2925" /><path
         id="path1454"
         style="fill:none;stroke:#929292;stroke-width:5.0025;stroke-linecap:butt;stroke-linejoin:round;stroke-miterlimit:10;stroke-dasharray:none;stroke-opacity:1"
         d="M 3795,457.5 V 2925" /><path
         id="path1456"
         style="fill:none;stroke:#929292;stroke-width:5.0025;stroke-linecap:butt;stroke-linejoin:round;stroke-miterlimit:10;stroke-dasharray:none;stroke-opacity:1"
         d="M 3795,457.5 H 525" /><path
         id="path1458"
         style="fill:none;stroke:#929292;stroke-width:5.0025;stroke-linecap:butt;stroke-linejoin:round;stroke-miterlimit:10;stroke-dasharray:none;stroke-opacity:1"
         d="M 3795,580.875 H 525" /><path
         id="path1460"
         style="fill:none;stroke:#929292;stroke-width:5.0025;stroke-linecap:butt;stroke-linejoin:round;stroke-miterlimit:10;stroke-dasharray:none;stroke-opacity:1"
         d="M 3795,704.25 H 525" /><path
         id="path1462"
         style="fill:none;stroke:#929292;stroke-width:5.0025;stroke-linecap:butt;stroke-linejoin:round;stroke-miterlimit:10;stroke-dasharray:none;stroke-opacity:1"
         d="M 3795,827.625 H 525" /><path
         id="path1464"
         style="fill:none;stroke:#929292;stroke-width:5.0025;stroke-linecap:butt;stroke-linejoin:round;stroke-miterlimit:10;stroke-dasharray:none;stroke-opacity:1"
         d="M 3795,951 H 525" /><path
         id="path1466"
         style="fill:none;stroke:#929292;stroke-width:5.0025;stroke-linecap:butt;stroke-linejoin:round;stroke-miterlimit:10;stroke-dasharray:none;stroke-opacity:1"
         d="M 3795,1074.38 H 525" /><path
         id="path1468"
         style="fill:none;stroke:#929292;stroke-width:5.0025;stroke-linecap:butt;stroke-linejoin:round;stroke-miterlimit:10;stroke-dasharray:none;stroke-opacity:1"
         d="M 3795,1197.75 H 525" /><path
         id="path1470"
         style="fill:none;stroke:#929292;stroke-width:5.0025;stroke-linecap:butt;stroke-linejoin:round;stroke-miterlimit:10;stroke-dasharray:none;stroke-opacity:1"
         d="M 3795,1321.13 H 525" /><path
         id="path1472"
         style="fill:none;stroke:#929292;stroke-width:5.0025;stroke-linecap:butt;stroke-linejoin:round;stroke-miterlimit:10;stroke-dasharray:none;stroke-opacity:1"
         d="M 3795,1444.5 H 525" /><path
         id="path1474"
         style="fill:none;stroke:#929292;stroke-width:5.0025;stroke-linecap:butt;stroke-linejoin:round;stroke-miterlimit:10;stroke-dasharray:none;stroke-opacity:1"
         d="M 3795,1567.88 H 525" /><path
         id="path1476"
         style="fill:none;stroke:#929292;stroke-width:5.0025;stroke-linecap:butt;stroke-linejoin:round;stroke-miterlimit:10;stroke-dasharray:none;stroke-opacity:1"
         d="M 3795,1691.25 H 525" /><path
         id="path1478"
         style="fill:none;stroke:#929292;stroke-width:5.0025;stroke-linecap:butt;stroke-linejoin:round;stroke-miterlimit:10;stroke-dasharray:none;stroke-opacity:1"
         d="M 3795,1814.63 H 525" /><path
         id="path1480"
         style="fill:none;stroke:#929292;stroke-width:5.0025;stroke-linecap:butt;stroke-linejoin:round;stroke-miterlimit:10;stroke-dasharray:none;stroke-opacity:1"
         d="M 3795,1938 H 525" /><path
         id="path1482"
         style="fill:none;stroke:#929292;stroke-width:5.0025;stroke-linecap:butt;stroke-linejoin:round;stroke-miterlimit:10;stroke-dasharray:none;stroke-opacity:1"
         d="M 3795,2061.38 H 525" /><path
         id="path1484"
         style="fill:none;stroke:#929292;stroke-width:5.0025;stroke-linecap:butt;stroke-linejoin:round;stroke-miterlimit:10;stroke-dasharray:none;stroke-opacity:1"
         d="M 3795,2184.75 H 525" /><path
         id="path1486"
         style="fill:none;stroke:#929292;stroke-width:5.0025;stroke-linecap:butt;stroke-linejoin:round;stroke-miterlimit:10;stroke-dasharray:none;stroke-opacity:1"
         d="M 3795,2308.13 H 525" /><path
         id="path1488"
         style="fill:none;stroke:#929292;stroke-width:5.0025;stroke-linecap:butt;stroke-linejoin:round;stroke-miterlimit:10;stroke-dasharray:none;stroke-opacity:1"
         d="M 3795,2431.5 H 525" /><path
         id="path1490"
         style="fill:none;stroke:#929292;stroke-width:5.0025;stroke-linecap:butt;stroke-linejoin:round;stroke-miterlimit:10;stroke-dasharray:none;stroke-opacity:1"
         d="M 3795,2554.88 H 525" /><path
         id="path1492"
         style="fill:none;stroke:#929292;stroke-width:5.0025;stroke-linecap:butt;stroke-linejoin:round;stroke-miterlimit:10;stroke-dasharray:none;stroke-opacity:1"
         d="M 3795,2678.25 H 525" /><path
         id="path1494"
         style="fill:none;stroke:#929292;stroke-width:5.0025;stroke-linecap:butt;stroke-linejoin:round;stroke-miterlimit:10;stroke-dasharray:none;stroke-opacity:1"
         d="M 3795,2801.63 H 525" /><path
         id="path1496"
         style="fill:none;stroke:#929292;stroke-width:5.0025;stroke-linecap:butt;stroke-linejoin:round;stroke-miterlimit:10;stroke-dasharray:none;stroke-opacity:1"
         d="M 3795,2925 H 525" /><path
         id="path1498"
         style="fill:none;stroke:#262626;stroke-width:5.0025;stroke-linecap:square;stroke-linejoin:round;stroke-miterlimit:10;stroke-dasharray:none;stroke-opacity:1"
         d="M 525,457.5 H 3795" /><path
         id="path1500"
         style="fill:none;stroke:#262626;stroke-width:5.0025;stroke-linecap:square;stroke-linejoin:round;stroke-miterlimit:10;stroke-dasharray:none;stroke-opacity:1"
         d="M 525,2925 H 3795" /><path
         id="path1502"
         style="fill:none;stroke:#262626;stroke-width:5.0025;stroke-linecap:square;stroke-linejoin:round;stroke-miterlimit:10;stroke-dasharray:none;stroke-opacity:1"
         d="m 525,457.5 v 32.699" /><path
         id="path1504"
         style="fill:none;stroke:#262626;stroke-width:5.0025;stroke-linecap:square;stroke-linejoin:round;stroke-miterlimit:10;stroke-dasharray:none;stroke-opacity:1"
         d="m 1179,457.5 v 32.699" /><path
         id="path1506"
         style="fill:none;stroke:#262626;stroke-width:5.0025;stroke-linecap:square;stroke-linejoin:round;stroke-miterlimit:10;stroke-dasharray:none;stroke-opacity:1"
         d="m 1833,457.5 v 32.699" /><path
         id="path1508"
         style="fill:none;stroke:#262626;stroke-width:5.0025;stroke-linecap:square;stroke-linejoin:round;stroke-miterlimit:10;stroke-dasharray:none;stroke-opacity:1"
         d="m 2487,457.5 v 32.699" /><path
         id="path1510"
         style="fill:none;stroke:#262626;stroke-width:5.0025;stroke-linecap:square;stroke-linejoin:round;stroke-miterlimit:10;stroke-dasharray:none;stroke-opacity:1"
         d="m 3141,457.5 v 32.699" /><path
         id="path1512"
         style="fill:none;stroke:#262626;stroke-width:5.0025;stroke-linecap:square;stroke-linejoin:round;stroke-miterlimit:10;stroke-dasharray:none;stroke-opacity:1"
         d="m 3795,457.5 v 32.699" /><path
         id="path1514"
         style="fill:none;stroke:#262626;stroke-width:5.0025;stroke-linecap:square;stroke-linejoin:round;stroke-miterlimit:10;stroke-dasharray:none;stroke-opacity:1"
         d="m 525,2925 v -32.7" /><path
         id="path1516"
         style="fill:none;stroke:#262626;stroke-width:5.0025;stroke-linecap:square;stroke-linejoin:round;stroke-miterlimit:10;stroke-dasharray:none;stroke-opacity:1"
         d="m 1179,2925 v -32.7" /><path
         id="path1518"
         style="fill:none;stroke:#262626;stroke-width:5.0025;stroke-linecap:square;stroke-linejoin:round;stroke-miterlimit:10;stroke-dasharray:none;stroke-opacity:1"
         d="m 1833,2925 v -32.7" /><path
         id="path1520"
         style="fill:none;stroke:#262626;stroke-width:5.0025;stroke-linecap:square;stroke-linejoin:round;stroke-miterlimit:10;stroke-dasharray:none;stroke-opacity:1"
         d="m 2487,2925 v -32.7" /><path
         id="path1522"
         style="fill:none;stroke:#262626;stroke-width:5.0025;stroke-linecap:square;stroke-linejoin:round;stroke-miterlimit:10;stroke-dasharray:none;stroke-opacity:1"
         d="m 3141,2925 v -32.7" /><path
         id="path1524"
         style="fill:none;stroke:#262626;stroke-width:5.0025;stroke-linecap:square;stroke-linejoin:round;stroke-miterlimit:10;stroke-dasharray:none;stroke-opacity:1"
         d="m 3795,2925 v -32.7" /><g
         transform="scale(10)"
         id="g1526"><text
           id="text1530"
           style="font-variant:normal;font-weight:normal;font-size:15.9998px;font-family:Helvetica;-inkscape-font-specification:Helvetica;writing-mode:lr-tb;fill:#262626;fill-opacity:1;fill-rule:nonzero;stroke:none"
           transform="matrix(1,0,0,-1,48,25.55)"><tspan
             id="tspan1528"
             sodipodi:role="line"
             y="0"
             x="0 60.9002 69.796089 126.30034 135.19623 191.70049 200.59637 257.10062 265.99652 318.00082 326.89673 335.7926">020406080100</tspan></text><text
           id="text1534"
           style="font-variant:normal;font-weight:normal;font-size:17.6002px;font-family:Helvetica;-inkscape-font-specification:Helvetica;writing-mode:lr-tb;fill:#262626;fill-opacity:1;fill-rule:nonzero;stroke:none"
           transform="matrix(1,0,0,-1,119.625,3.55)"><tspan
             id="tspan1532"
             sodipodi:role="line"
             y="0"
             x="0 12.707344 22.493055 26.400299 36.186012 41.078865 50.864578 54.771824 58.679066 63.571922 72.372025 82.15773 86.06498 95.850693 105.6364 114.4365 119.32935 124.22221 138.88318 153.54414 158.437 168.22272 178.00842 187.79413">Rainfall values [mm/12h]</tspan></text></g><path
         id="path1536"
         style="fill:none;stroke:#262626;stroke-width:5.0025;stroke-linecap:square;stroke-linejoin:round;stroke-miterlimit:10;stroke-dasharray:none;stroke-opacity:1"
         d="M 525,457.5 V 2925" /><path
         id="path1538"
         style="fill:none;stroke:#262626;stroke-width:5.0025;stroke-linecap:square;stroke-linejoin:round;stroke-miterlimit:10;stroke-dasharray:none;stroke-opacity:1"
         d="M 3795,457.5 V 2925" /><path
         id="path1540"
         style="fill:none;stroke:#262626;stroke-width:5.0025;stroke-linecap:square;stroke-linejoin:round;stroke-miterlimit:10;stroke-dasharray:none;stroke-opacity:1"
         d="m 525,457.5 h 32.699" /><path
         id="path1542"
         style="fill:none;stroke:#262626;stroke-width:5.0025;stroke-linecap:square;stroke-linejoin:round;stroke-miterlimit:10;stroke-dasharray:none;stroke-opacity:1"
         d="m 525,580.875 h 32.699" /><path
         id="path1544"
         style="fill:none;stroke:#262626;stroke-width:5.0025;stroke-linecap:square;stroke-linejoin:round;stroke-miterlimit:10;stroke-dasharray:none;stroke-opacity:1"
         d="m 525,704.25 h 32.699" /><path
         id="path1546"
         style="fill:none;stroke:#262626;stroke-width:5.0025;stroke-linecap:square;stroke-linejoin:round;stroke-miterlimit:10;stroke-dasharray:none;stroke-opacity:1"
         d="m 525,827.625 h 32.699" /><path
         id="path1548"
         style="fill:none;stroke:#262626;stroke-width:5.0025;stroke-linecap:square;stroke-linejoin:round;stroke-miterlimit:10;stroke-dasharray:none;stroke-opacity:1"
         d="m 525,951 h 32.699" /><path
         id="path1550"
         style="fill:none;stroke:#262626;stroke-width:5.0025;stroke-linecap:square;stroke-linejoin:round;stroke-miterlimit:10;stroke-dasharray:none;stroke-opacity:1"
         d="m 525,1074.38 h 32.699" /><path
         id="path1552"
         style="fill:none;stroke:#262626;stroke-width:5.0025;stroke-linecap:square;stroke-linejoin:round;stroke-miterlimit:10;stroke-dasharray:none;stroke-opacity:1"
         d="m 525,1197.75 h 32.699" /><path
         id="path1554"
         style="fill:none;stroke:#262626;stroke-width:5.0025;stroke-linecap:square;stroke-linejoin:round;stroke-miterlimit:10;stroke-dasharray:none;stroke-opacity:1"
         d="m 525,1321.13 h 32.699" /><path
         id="path1556"
         style="fill:none;stroke:#262626;stroke-width:5.0025;stroke-linecap:square;stroke-linejoin:round;stroke-miterlimit:10;stroke-dasharray:none;stroke-opacity:1"
         d="m 525,1444.5 h 32.699" /><path
         id="path1558"
         style="fill:none;stroke:#262626;stroke-width:5.0025;stroke-linecap:square;stroke-linejoin:round;stroke-miterlimit:10;stroke-dasharray:none;stroke-opacity:1"
         d="m 525,1567.88 h 32.699" /><path
         id="path1560"
         style="fill:none;stroke:#262626;stroke-width:5.0025;stroke-linecap:square;stroke-linejoin:round;stroke-miterlimit:10;stroke-dasharray:none;stroke-opacity:1"
         d="m 525,1691.25 h 32.699" /><path
         id="path1562"
         style="fill:none;stroke:#262626;stroke-width:5.0025;stroke-linecap:square;stroke-linejoin:round;stroke-miterlimit:10;stroke-dasharray:none;stroke-opacity:1"
         d="m 525,1814.63 h 32.699" /><path
         id="path1564"
         style="fill:none;stroke:#262626;stroke-width:5.0025;stroke-linecap:square;stroke-linejoin:round;stroke-miterlimit:10;stroke-dasharray:none;stroke-opacity:1"
         d="m 525,1938 h 32.699" /><path
         id="path1566"
         style="fill:none;stroke:#262626;stroke-width:5.0025;stroke-linecap:square;stroke-linejoin:round;stroke-miterlimit:10;stroke-dasharray:none;stroke-opacity:1"
         d="m 525,2061.38 h 32.699" /><path
         id="path1568"
         style="fill:none;stroke:#262626;stroke-width:5.0025;stroke-linecap:square;stroke-linejoin:round;stroke-miterlimit:10;stroke-dasharray:none;stroke-opacity:1"
         d="m 525,2184.75 h 32.699" /><path
         id="path1570"
         style="fill:none;stroke:#262626;stroke-width:5.0025;stroke-linecap:square;stroke-linejoin:round;stroke-miterlimit:10;stroke-dasharray:none;stroke-opacity:1"
         d="m 525,2308.13 h 32.699" /><path
         id="path1572"
         style="fill:none;stroke:#262626;stroke-width:5.0025;stroke-linecap:square;stroke-linejoin:round;stroke-miterlimit:10;stroke-dasharray:none;stroke-opacity:1"
         d="m 525,2431.5 h 32.699" /><path
         id="path1574"
         style="fill:none;stroke:#262626;stroke-width:5.0025;stroke-linecap:square;stroke-linejoin:round;stroke-miterlimit:10;stroke-dasharray:none;stroke-opacity:1"
         d="m 525,2554.88 h 32.699" /><path
         id="path1576"
         style="fill:none;stroke:#262626;stroke-width:5.0025;stroke-linecap:square;stroke-linejoin:round;stroke-miterlimit:10;stroke-dasharray:none;stroke-opacity:1"
         d="m 525,2678.25 h 32.699" /><path
         id="path1578"
         style="fill:none;stroke:#262626;stroke-width:5.0025;stroke-linecap:square;stroke-linejoin:round;stroke-miterlimit:10;stroke-dasharray:none;stroke-opacity:1"
         d="m 525,2801.63 h 32.699" /><path
         id="path1580"
         style="fill:none;stroke:#262626;stroke-width:5.0025;stroke-linecap:square;stroke-linejoin:round;stroke-miterlimit:10;stroke-dasharray:none;stroke-opacity:1"
         d="m 525,2925 h 32.699" /><path
         id="path1582"
         style="fill:none;stroke:#262626;stroke-width:5.0025;stroke-linecap:square;stroke-linejoin:round;stroke-miterlimit:10;stroke-dasharray:none;stroke-opacity:1"
         d="m 3795,457.5 h -32.7" /><path
         id="path1584"
         style="fill:none;stroke:#262626;stroke-width:5.0025;stroke-linecap:square;stroke-linejoin:round;stroke-miterlimit:10;stroke-dasharray:none;stroke-opacity:1"
         d="m 3795,580.875 h -32.7" /><path
         id="path1586"
         style="fill:none;stroke:#262626;stroke-width:5.0025;stroke-linecap:square;stroke-linejoin:round;stroke-miterlimit:10;stroke-dasharray:none;stroke-opacity:1"
         d="m 3795,704.25 h -32.7" /><path
         id="path1588"
         style="fill:none;stroke:#262626;stroke-width:5.0025;stroke-linecap:square;stroke-linejoin:round;stroke-miterlimit:10;stroke-dasharray:none;stroke-opacity:1"
         d="m 3795,827.625 h -32.7" /><path
         id="path1590"
         style="fill:none;stroke:#262626;stroke-width:5.0025;stroke-linecap:square;stroke-linejoin:round;stroke-miterlimit:10;stroke-dasharray:none;stroke-opacity:1"
         d="m 3795,951 h -32.7" /><path
         id="path1592"
         style="fill:none;stroke:#262626;stroke-width:5.0025;stroke-linecap:square;stroke-linejoin:round;stroke-miterlimit:10;stroke-dasharray:none;stroke-opacity:1"
         d="m 3795,1074.38 h -32.7" /><path
         id="path1594"
         style="fill:none;stroke:#262626;stroke-width:5.0025;stroke-linecap:square;stroke-linejoin:round;stroke-miterlimit:10;stroke-dasharray:none;stroke-opacity:1"
         d="m 3795,1197.75 h -32.7" /><path
         id="path1596"
         style="fill:none;stroke:#262626;stroke-width:5.0025;stroke-linecap:square;stroke-linejoin:round;stroke-miterlimit:10;stroke-dasharray:none;stroke-opacity:1"
         d="m 3795,1321.13 h -32.7" /><path
         id="path1598"
         style="fill:none;stroke:#262626;stroke-width:5.0025;stroke-linecap:square;stroke-linejoin:round;stroke-miterlimit:10;stroke-dasharray:none;stroke-opacity:1"
         d="m 3795,1444.5 h -32.7" /><path
         id="path1600"
         style="fill:none;stroke:#262626;stroke-width:5.0025;stroke-linecap:square;stroke-linejoin:round;stroke-miterlimit:10;stroke-dasharray:none;stroke-opacity:1"
         d="m 3795,1567.88 h -32.7" /><path
         id="path1602"
         style="fill:none;stroke:#262626;stroke-width:5.0025;stroke-linecap:square;stroke-linejoin:round;stroke-miterlimit:10;stroke-dasharray:none;stroke-opacity:1"
         d="m 3795,1691.25 h -32.7" /><path
         id="path1604"
         style="fill:none;stroke:#262626;stroke-width:5.0025;stroke-linecap:square;stroke-linejoin:round;stroke-miterlimit:10;stroke-dasharray:none;stroke-opacity:1"
         d="m 3795,1814.63 h -32.7" /><path
         id="path1606"
         style="fill:none;stroke:#262626;stroke-width:5.0025;stroke-linecap:square;stroke-linejoin:round;stroke-miterlimit:10;stroke-dasharray:none;stroke-opacity:1"
         d="m 3795,1938 h -32.7" /><path
         id="path1608"
         style="fill:none;stroke:#262626;stroke-width:5.0025;stroke-linecap:square;stroke-linejoin:round;stroke-miterlimit:10;stroke-dasharray:none;stroke-opacity:1"
         d="m 3795,2061.38 h -32.7" /><path
         id="path1610"
         style="fill:none;stroke:#262626;stroke-width:5.0025;stroke-linecap:square;stroke-linejoin:round;stroke-miterlimit:10;stroke-dasharray:none;stroke-opacity:1"
         d="m 3795,2184.75 h -32.7" /><path
         id="path1612"
         style="fill:none;stroke:#262626;stroke-width:5.0025;stroke-linecap:square;stroke-linejoin:round;stroke-miterlimit:10;stroke-dasharray:none;stroke-opacity:1"
         d="m 3795,2308.13 h -32.7" /><path
         id="path1614"
         style="fill:none;stroke:#262626;stroke-width:5.0025;stroke-linecap:square;stroke-linejoin:round;stroke-miterlimit:10;stroke-dasharray:none;stroke-opacity:1"
         d="m 3795,2431.5 h -32.7" /><path
         id="path1616"
         style="fill:none;stroke:#262626;stroke-width:5.0025;stroke-linecap:square;stroke-linejoin:round;stroke-miterlimit:10;stroke-dasharray:none;stroke-opacity:1"
         d="m 3795,2554.88 h -32.7" /><path
         id="path1618"
         style="fill:none;stroke:#262626;stroke-width:5.0025;stroke-linecap:square;stroke-linejoin:round;stroke-miterlimit:10;stroke-dasharray:none;stroke-opacity:1"
         d="m 3795,2678.25 h -32.7" /><path
         id="path1620"
         style="fill:none;stroke:#262626;stroke-width:5.0025;stroke-linecap:square;stroke-linejoin:round;stroke-miterlimit:10;stroke-dasharray:none;stroke-opacity:1"
         d="m 3795,2801.63 h -32.7" /><path
         id="path1622"
         style="fill:none;stroke:#262626;stroke-width:5.0025;stroke-linecap:square;stroke-linejoin:round;stroke-miterlimit:10;stroke-dasharray:none;stroke-opacity:1"
         d="m 3795,2925 h -32.7" /><g
         transform="scale(10)"
         id="g1624"><text
           id="text1668"
           style="font-variant:normal;font-weight:normal;font-size:15.9998px;font-family:Helvetica;-inkscape-font-specification:Helvetica;writing-mode:lr-tb;fill:#262626;fill-opacity:1;fill-rule:nonzero;stroke:none"
           transform="matrix(1,0,0,-1,38.3,40.125)"><tspan
             id="tspan1626"
             y="0"
             x="0">0</tspan><tspan
             id="tspan1628"
             y="-12.3375"
             x="4.5"> </tspan><tspan
             id="tspan1630"
             sodipodi:role="line"
             y="-24.674999"
             x="-9 -0.1041112">10</tspan><tspan
             id="tspan1632"
             y="-37.012501"
             x="4.5"> </tspan><tspan
             id="tspan1634"
             sodipodi:role="line"
             y="-49.349998"
             x="-9 -0.1041112">20</tspan><tspan
             id="tspan1636"
             y="-61.6875"
             x="4.5"> </tspan><tspan
             id="tspan1638"
             sodipodi:role="line"
             y="-74.025002"
             x="-9 -0.1041112">30</tspan><tspan
             id="tspan1640"
             y="-86.362503"
             x="4.5"> </tspan><tspan
             id="tspan1642"
             sodipodi:role="line"
             y="-98.699997"
             x="-9 -0.1041112">40</tspan><tspan
             id="tspan1644"
             y="-111.0375"
             x="4.5"> </tspan><tspan
             id="tspan1646"
             sodipodi:role="line"
             y="-123.375"
             x="-9 -0.1041112">50</tspan><tspan
             id="tspan1648"
             y="-135.71249"
             x="4.5"> </tspan><tspan
             id="tspan1650"
             sodipodi:role="line"
             y="-148.05"
             x="-9 -0.1041112">60</tspan><tspan
             id="tspan1652"
             y="-160.3875"
             x="4.5"> </tspan><tspan
             id="tspan1654"
             sodipodi:role="line"
             y="-172.72501"
             x="-9 -0.1041112">70</tspan><tspan
             id="tspan1656"
             y="-185.0625"
             x="4.5"> </tspan><tspan
             id="tspan1658"
             sodipodi:role="line"
             y="-197.39999"
             x="-9 -0.1041112">80</tspan><tspan
             id="tspan1660"
             y="-209.7375"
             x="4.5"> </tspan><tspan
             id="tspan1662"
             sodipodi:role="line"
             y="-222.075"
             x="-9 -0.1041112">90</tspan><tspan
             id="tspan1664"
             y="-234.41251"
             x="4.5"> </tspan><tspan
             id="tspan1666"
             sodipodi:role="line"
             y="-246.75"
             x="-18 -9.1041117 -0.2082224">100</tspan></text><text
           id="text1672"
           style="font-variant:normal;font-weight:normal;font-size:17.6002px;font-family:Helvetica;-inkscape-font-specification:Helvetica;writing-mode:lr-tb;fill:#262626;fill-opacity:1;fill-rule:nonzero;stroke:none"
           transform="matrix(0,1,1,0,13.55,109.5)"><tspan
             id="tspan1670"
             sodipodi:role="line"
             y="0"
             x="0 11.739333 21.525045 27.385912 36.186012 45.971722 55.757435 60.650288 64.557533 68.464775 78.250488 87.050591 91.943443 97.804314 113.45089">Percentiles (%)</tspan></text></g><path
         id="path1674"
         style="fill:none;stroke:#edb120;stroke-width:30;stroke-linecap:butt;stroke-linejoin:round;stroke-miterlimit:10;stroke-dasharray:none;stroke-opacity:1"
         d="m 530.488,482.176 4.293,24.676 8.465,24.671 11.902,24.676 15.243,24.676 6.668,24.676 3.765,24.676 0.778,24.671 3.562,24.676 2.785,24.676 7.16,24.676 4.547,24.676 11.114,24.671 13.441,24.676 1.801,24.676 0.816,24.676 3.074,24.676 7.164,24.671 0.582,24.676 3.926,24.676 1.047,24.676 0.129,24.674 4.711,24.67 2.848,24.68 1.14,24.68 1.77,24.67 2.844,24.68 3.238,24.67 0.918,24.67 v 24.68 24.68 24.67 l 8.953,24.67 1.801,24.68 6.636,24.68 3.993,24.67 0.945,24.68 10.109,24.67 13.305,24.67 2.781,24.68 0.164,24.68 1.043,24.67 3.27,24.67 2.094,24.68 2.289,24.68 4.222,24.67 7.582,24.68 4.875,24.67 6.703,24.67 5.985,24.68 3.367,24.68 1.832,24.67 3.008,24.67 10.336,24.68 8.242,24.68 0.484,24.67 22.075,24.68 2.093,24.67 9.84,24.67 6.082,24.68 4.387,24.68 4.281,24.67 2.68,24.67 4.058,24.68 7.68,24.68 4.902,24.67 2.657,24.68 14.812,24.67 15.758,24.67 10.891,24.68 9.32,24.68 4.41,24.67 7.883,24.67 41.625,24.68 57.988,24.68 48.91,24.67 25.54,24.68 1.27,24.67 7.85,24.67 22.37,24.68 29.5,24.68 24.22,24.67 8.12,24.67 15.27,24.68 11.97,24.68 19.12,24.67 9.62,24.68 3.6,24.67 34.36,24.67 50.66,24.68 20.37,24.68 61.57,24.67 12.03,24.67 22.74,24.68 43.58,24.68 210.49,24.67 78.77,24.68 77.8,24.67 320.3,24.67" /><path
         id="path1676"
         style="fill:none;stroke:#00ff00;stroke-width:30;stroke-linecap:butt;stroke-linejoin:round;stroke-miterlimit:10;stroke-dasharray:none;stroke-opacity:1"
         d="m 547.402,482.176 10.754,24.676 22.239,24.671 11.085,24.676 8.797,24.676 1.305,24.676 51.766,24.676 12.195,24.671 31.297,24.676 13.305,24.676 2.226,24.676 0.586,24.676 3.27,24.671 4.449,24.676 1.73,24.676 1.867,24.676 8.731,24.676 13.605,24.671 2.969,24.676 1.18,24.676 10.265,24.676 4.09,24.674 2.227,24.67 6.051,24.68 9.707,24.68 9.457,24.67 5.519,24.68 5.403,24.67 11.539,24.67 v 24.68 24.68 24.67 l 0.75,24.67 3.105,24.68 4.09,24.68 6.84,24.67 5.558,24.68 2.579,24.67 8.535,24.67 23.121,24.68 26.617,24.68 6.805,24.67 0.293,24.67 2.285,24.68 15.406,24.68 18.961,24.67 5.105,24.68 0.457,24.67 8.43,24.67 8.215,24.68 3.727,24.68 2.316,24.67 0.594,24.67 3.824,24.68 10.562,24.68 5.235,24.67 v 24.68 l 5.789,24.67 3.562,24.67 9.423,24.68 19.94,24.68 18.74,24.67 9.03,24.67 1.95,24.68 7.3,24.68 16.97,24.67 3.6,24.68 7.68,24.67 33.26,24.67 51.96,24.68 17.92,24.68 23.31,24.67 14.39,24.67 55.92,24.68 46.14,24.68 8.24,24.67 17.03,24.68 49.12,24.67 67,24.67 100.16,24.68 28.58,24.68 25.01,24.67 3.96,24.67 70.67,24.68 114.74,24.68 40.64,24.67 27.58,24.68 32.79,24.67 26.36,24.67 65.3,24.68 101.73,24.68 29.92,24.67 10.01,24.67 36.46,24.68 5.72,24.68 285.01,24.67 184.69,24.68 376.77,24.67 584.28,24.67" /><path
         id="path1678"
         style="fill:none;stroke:#7e2f8e;stroke-width:30;stroke-linecap:butt;stroke-linejoin:round;stroke-miterlimit:10;stroke-dasharray:none;stroke-opacity:1"
         d="m 569.438,482.176 15.96,24.676 21.321,24.671 11.672,24.676 4.515,24.676 38.063,24.676 30.996,24.676 23.484,24.671 40.379,24.676 13.274,24.676 3.894,24.676 1.633,24.676 6.609,24.671 13.274,24.676 14.91,24.676 15.211,24.676 5.004,24.676 2.812,24.671 24.75,24.676 1.274,24.676 13.605,24.676 13.469,24.674 6.48,24.67 17.168,24.68 11.707,24.68 0.782,24.67 0.652,24.68 v 24.67 24.67 l 0.203,24.68 1.984,24.68 3.864,24.67 3.172,24.67 6.406,24.68 21.058,24.68 10.961,24.67 2.45,24.68 6.929,24.67 19.203,24.67 27.104,24.68 18.41,24.68 2.49,24.67 1.11,24.67 9.75,24.68 5.03,24.68 0.88,24.67 26.88,24.68 11.35,24.67 4.05,24.67 9.06,24.68 6.86,24.68 1.38,24.67 2.68,24.67 0.75,24.68 4.81,24.68 12.98,24.67 12.62,24.68 0.82,24.67 18.25,24.67 15.92,24.68 21.03,24.68 17.72,24.67 7.72,24.67 3.3,24.68 7.98,24.68 16.18,24.67 18.48,24.68 10.11,24.67 5.65,24.67 64.85,24.68 99.64,24.68 31.98,24.67 5.4,24.67 23.9,24.68 72.81,24.68 55.99,24.67 25.15,24.68 87.53,24.67 121.06,24.67 58.04,24.68 78.36,24.68 148.98,24.67 46.59,24.67 12.72,24.68 30.08,24.68 86.37,24.67 45.52,24.68 24.29,24.67 51.93,24.67 61.7,24.68 66.94,24.68 48.88,24.67 36.92,24.67 12.79,24.68 212,24.68 229.58,24.67 72.63,24.68 475.49,24.67 107.35,3.26" /><path
         id="path1680"
         style="fill:none;stroke:#00ffff;stroke-width:30;stroke-linecap:butt;stroke-linejoin:round;stroke-miterlimit:10;stroke-dasharray:none;stroke-opacity:1"
         d="m 598.313,482.176 19.98,24.676 16.973,24.671 0.882,24.676 9.454,24.676 79.421,24.676 43.661,24.676 42.769,24.671 9.356,24.676 2.55,24.676 1.43,24.676 0.43,24.676 2.781,24.671 14.879,24.676 28.867,24.676 25.606,24.676 12.722,24.676 22.235,24.671 8.925,24.676 11.551,24.676 2.094,24.676 9.383,24.674 15.14,24.67 15.629,24.68 16.449,24.68 10.53,24.67 11.77,24.68 20.14,24.67 v 24.67 24.68 l 0.2,24.68 8.77,24.67 12.19,24.67 3.95,24.68 23.75,24.68 27.5,24.67 14.02,24.68 5.86,24.67 9.41,24.67 13.9,24.68 10.7,24.68 4.18,24.67 16.71,24.67 2,24.68 13.92,24.68 27.8,24.67 5.76,24.68 3.95,24.67 2.06,24.67 1.05,24.68 8.01,24.68 11.28,24.67 11.19,24.67 26.06,24.68 13.8,24.68 0.56,24.67 1.8,24.68 1.83,24.67 7.67,24.67 2.91,24.68 1.51,24.68 0.72,24.67 15.27,24.67 30.64,24.68 28.32,24.68 22.33,24.67 21.09,24.68 28.59,24.67 16.21,24.67 3.44,24.68 74.1,24.68 44.17,24.67 90.62,24.67 49.14,24.68 64.26,24.68 58.73,24.67 62.72,24.68 151.23,24.67 133,24.67 226.84,24.68 30.31,24.68 48.39,24.67 17.86,24.67 12,24.68 2.71,24.68 v 24.67 l 39.87,24.68 95.22,24.67 78.57,24.67 50.69,24.68 104.68,24.68 47.83,24.67 34.93,24.67 21.88,24.68 314.38,24.68 87.43,24.67 48.98,24.68 290.02,14.36" /><path
         id="path1682"
         style="fill:none;stroke:#0072bd;stroke-width:30;stroke-linecap:butt;stroke-linejoin:round;stroke-miterlimit:10;stroke-dasharray:none;stroke-opacity:1"
         d="m 683.109,482.176 2.024,24.676 3.629,24.671 8.926,24.676 35.218,24.676 68.836,24.676 93.586,24.676 6.309,24.671 15.207,24.676 7.785,24.676 3.168,24.676 5.758,24.676 3.992,24.671 13.828,24.676 40.844,24.676 49.961,24.676 31.59,24.676 36.13,24.671 32.64,24.676 10.76,24.676 18.51,24.676 3.82,24.674 v 24.67 24.68 l 1.97,24.68 2.12,24.67 3.89,24.68 20.7,24.67 39.21,24.67 3.23,24.68 13.74,24.68 69.19,24.67 11.97,24.67 31.19,24.68 10.01,24.68 5.95,24.67 17.53,24.68 12.92,24.67 2.88,24.67 3.46,24.68 2.39,24.68 8.82,24.67 18.45,24.67 12.91,24.68 1.32,24.68 14.52,24.67 14.74,24.68 6.18,24.67 25.28,24.67 18.54,24.68 12,24.68 15.21,24.67 16.58,24.67 47.18,24.68 2.62,24.68 23.77,24.67 7.75,24.68 31.19,24.67 5.01,24.67 43.91,24.68 19.07,24.68 21.52,24.67 21.87,24.67 18.28,24.68 25.9,24.68 8.7,24.67 6.21,24.68 10.37,24.67 28.18,24.67 6.22,24.68 64.12,24.68 39.47,24.67 28.97,24.67 20.74,24.68 185.73,24.68 178.18,24.67 9.81,24.68 105.27,24.67 253.81,24.67 43.01,24.68 48.29,24.68 74.46,24.67 4.84,24.67 138.32,24.68 89.66,24.68 58.4,24.67 64.03,24.68 56.6,24.67 49.48,24.67 102.77,24.68 157.39,24.68 57.68,24.67 44.08,9.43" /><path
         id="path1684"
         style="fill:none;stroke:#ff00ff;stroke-width:30;stroke-linecap:butt;stroke-linejoin:round;stroke-miterlimit:10;stroke-dasharray:none;stroke-opacity:1"
         d="m 757.922,482.176 16.902,24.676 28.582,24.671 44.77,24.676 46.14,24.676 53.262,24.676 81.462,24.676 16.9,24.671 12.86,24.676 4.5,24.676 21.95,24.676 68.96,24.676 47.65,24.671 9.22,24.676 30.74,24.676 49.15,24.676 44.46,24.676 V 901.648 926.324 951 l 11.16,24.676 25.44,24.674 13.05,24.67 16.67,24.68 10.6,24.68 17.56,24.67 62.78,24.68 75.7,24.67 4.22,24.67 22.62,24.68 32.22,24.68 31.59,24.67 20.24,24.67 6.24,24.68 12.3,24.68 14.88,24.67 12.23,24.68 21.18,24.67 21.69,24.67 5.55,24.68 27.24,24.68 88.75,24.67 1.8,24.67 27.79,24.68 0.6,24.68 0.36,24.67 58.75,24.68 29.93,24.67 41.65,24.67 43.08,24.68 28.93,24.68 21.23,24.67 8.24,24.67 7.39,24.68 30.96,24.68 69.81,24.67 18.44,24.68 7.63,24.67 11.21,24.67 17.04,24.68 9.84,24.68 59.19,24.67 48.46,24.67 23.19,24.68 42.57,24.68 15.76,24.67 23.94,24.68 52.55,24.67 77.63,24.67 19.88,24.68 40.45,24.68 10.82,24.67 82.21,24.67 80.28,24.68 90.78,24.68 142.27,24.67 109.48,24.68 3.43,24.67 33.19,24.67 106.84,24.68 4.19,24.68 117.62,24.67 7.68,24.67 219.87,24.68 59.09,16.66" /><path
         id="path1686"
         style="fill:none;stroke:#d95319;stroke-width:30;stroke-linecap:butt;stroke-linejoin:round;stroke-miterlimit:10;stroke-dasharray:none;stroke-opacity:1"
         d="m 837.414,482.176 73.25,24.676 18.902,24.671 22.918,24.676 35.582,24.676 91.234,24.676 35.15,24.676 5.82,24.671 50.13,24.676 128.38,24.676 72.46,24.676 38.3,24.676 20.37,24.671 v 24.676 24.676 l 9.05,24.676 32.8,24.676 7.95,24.671 55.52,24.676 85.06,24.676 31.75,24.676 41.92,24.674 74.17,24.67 51,24.68 62.85,24.68 50.07,24.67 14.91,24.68 32.47,24.67 20.14,24.67 1.09,24.68 11.25,24.68 77.3,24.67 20.79,24.67 2.55,24.68 11.87,24.68 16.49,24.67 12.98,24.68 6.76,24.67 11.58,24.67 20.57,24.68 12.09,24.68 4.52,24.67 18.11,24.67 1.44,24.68 109.35,24.68 48.79,24.67 36.66,24.68 10.04,24.67 0.16,24.67 1.8,24.68 9.84,24.68 34.43,24.67 57.75,24.67 37.08,24.68 9.71,24.68 44.41,24.67 v 24.68 l 1.83,24.67 151.34,24.67 44.5,24.68 36.27,24.68 26,24.67 4.64,24.67 27.01,24.68 46.37,24.68 15.86,24.67 22.73,24.68 7.29,24.67 11.77,24.67 40.19,24.68 73.34,24.68 22.4,24.67 3.11,24.67 24.42,24.68 91.56,24.68 211.31,24.67 229.59,24.68 74.88,23.73" /><path
         id="path1688"
         style="fill:none;stroke:#edb120;stroke-width:30;stroke-linecap:butt;stroke-linejoin:bevel;stroke-miterlimit:10;stroke-dasharray:30, 30;stroke-dashoffset:0;stroke-opacity:1"
         d="m 525,482.176 v 24.676 l 1.305,24.671 3.832,24.676 0.781,24.676 0.594,24.676 0.289,24.676 3.797,24.671 1.996,24.676 0.972,24.676 0.856,24.676 1.305,24.676 1.179,24.671 0.492,24.676 0.063,24.676 v 24.676 24.676 l 0.098,24.671 1.73,24.676 0.984,24.676 2.258,24.676 0.719,24.674 1.637,24.67 1.926,24.68 1.468,24.68 1.899,24.67 1.933,24.68 0.715,24.67 1.02,24.67 0.683,24.68 0.328,24.68 6.571,24.67 1.867,24.67 2.648,24.68 0.684,24.68 0.066,24.67 1.606,24.68 1.304,24.67 0.426,24.67 0.848,24.68 1.57,24.68 4.348,24.67 0.066,24.67 0.848,24.68 1.637,24.68 0.164,24.67 0.984,24.68 1.731,24.67 1.441,24.67 1.148,24.68 1.43,24.68 1.481,24.67 0.816,24.67 0.555,24.68 0.554,24.68 0.817,24.67 3.078,24.68 3.328,24.67 4.516,24.67 3.007,24.68 1.899,24.68 1.176,24.67 2.578,24.67 2.949,24.68 4.184,24.68 8.761,24.67 3.832,24.68 8.762,24.67 2.91,24.67 6.313,24.68 2.875,24.68 1.672,24.67 1.109,24.67 0.391,24.68 5.039,24.68 13.371,24.67 15.242,24.68 9.09,24.67 5.519,24.67 1.539,24.68 7.52,24.68 2.094,24.67 1.73,24.67 3.211,24.68 8.957,24.68 5.918,24.67 9.449,24.68 6.774,24.67 0.75,24.67 12.687,24.68 29.86,24.68 10.988,24.67 0.68,24.67 10.007,24.68 18.606,24.68 6.609,24.67 2.317,24.68 62.691,24.67 158.823,24.67" /><path
         id="path1690"
         style="fill:none;stroke:#00ff00;stroke-width:30;stroke-linecap:butt;stroke-linejoin:bevel;stroke-miterlimit:10;stroke-dasharray:30, 30;stroke-dashoffset:0;stroke-opacity:1"
         d="m 531.668,482.176 3.309,24.676 14.878,24.671 33.317,24.676 9.582,24.676 9.84,24.676 0.594,24.676 7.941,24.671 2.394,24.676 17.168,24.676 20.692,24.676 8.633,24.676 1.836,24.671 2.511,24.676 2.453,24.676 2.95,24.676 0.515,24.676 V 901.648 926.324 951 l 2.199,24.676 0.973,24.674 7,24.67 8.309,24.68 3.824,24.68 5.297,24.67 8.765,24.68 4.051,24.67 0.789,24.67 0.524,24.68 1.043,24.68 0.3,24.67 0.032,24.67 8.047,24.68 4.64,24.68 4.938,24.67 4.902,24.68 9.422,24.67 9.547,24.67 1.597,24.68 2.618,24.68 9.808,24.67 3.145,24.67 0.066,24.68 v 24.68 l 2.871,24.67 7.59,24.68 4.906,24.67 2.969,24.67 4.32,24.68 4.118,24.68 2.355,24.67 2.289,24.67 2.586,24.68 2.715,24.68 0.293,24.67 14.062,24.68 1.11,24.67 0.097,24.67 8.926,24.68 8.117,24.68 5.985,24.67 7.746,24.67 11.25,24.68 12.164,24.68 8.598,24.67 5.039,24.68 7.679,24.67 5.567,24.67 17.07,24.68 14.09,24.68 19.027,24.67 5.891,24.67 7.226,24.68 16.547,24.68 18.41,24.67 9.75,24.68 0.32,24.67 15.4,24.67 67.04,24.68 13.63,24.68 41.04,24.67 16.58,24.67 2.45,24.68 44.6,24.68 20.87,24.67 1.08,24.68 21.58,24.67 28.51,24.67 10.96,24.68 20.5,24.68 31.92,24.67 45.02,24.67 4.55,24.68 94.27,24.68 33.09,24.67 26.88,24.68 168.48,24.67 524.38,24.67" /><path
         id="path1692"
         style="fill:none;stroke:#7e2f8e;stroke-width:30;stroke-linecap:butt;stroke-linejoin:bevel;stroke-miterlimit:10;stroke-dasharray:30, 30;stroke-dashoffset:0;stroke-opacity:1"
         d="m 549.039,482.176 12.32,24.676 36.692,24.671 48.398,24.676 10.332,24.676 29.696,24.676 16.183,24.676 4.379,24.671 21.91,24.676 23.285,24.676 22.2,24.676 15.406,24.676 10.074,24.671 6.141,24.676 1.441,24.676 4.348,24.676 13.015,24.676 2.879,24.671 5.168,24.676 2.977,24.676 0.32,24.676 v 24.674 24.67 l 6.317,24.68 5.062,24.68 4.156,24.67 5,24.68 3.34,24.67 10.434,24.67 5.886,24.68 14.579,24.68 3.046,24.67 1.403,24.67 1.078,24.68 2.746,24.68 2.879,24.67 7.68,24.68 14.519,24.67 24.856,24.67 23.933,24.68 1.836,24.68 2.156,24.67 0.426,24.67 v 24.68 l 0.981,24.68 3.894,24.67 6.016,24.68 1.859,24.67 2.453,24.67 1.801,24.68 3.434,24.68 5.367,24.67 1.37,24.67 0.85,24.68 2.71,24.68 14.78,24.67 v 24.68 l 34.47,24.67 10.53,24.67 4.55,24.68 1.69,24.68 2.91,24.67 12.89,24.67 18.12,24.68 11.08,24.68 5.33,24.67 4.97,24.68 4.81,24.67 13.63,24.67 11.9,24.68 13.12,24.68 45.09,24.67 18.61,24.67 4.05,24.68 28.55,24.68 48.36,24.67 29.6,24.68 15.63,24.67 53.33,24.67 44.89,24.68 44.38,24.68 77.73,24.67 16.98,24.67 2.55,24.68 47.11,24.68 20.11,24.67 19.56,24.68 32.17,24.67 58.73,24.67 69.4,24.68 9.18,24.68 10.99,24.67 37.63,24.67 39.54,24.68 167.89,24.68 61.34,24.67 86.23,24.68 257.57,24.67 803.25,24.67" /><path
         id="path1694"
         style="fill:none;stroke:#00ffff;stroke-width:30;stroke-linecap:butt;stroke-linejoin:bevel;stroke-miterlimit:10;stroke-dasharray:30, 30;stroke-dashoffset:0;stroke-opacity:1"
         d="m 577.582,482.176 20.699,24.676 58.434,24.671 56.738,24.676 6.766,24.676 48.133,24.676 35.289,24.676 9.808,24.671 30.707,24.676 17.129,24.676 42.938,24.676 25.507,24.676 6.598,24.671 8.934,24.676 5.168,24.676 2.871,24.676 7.883,24.676 24.234,24.671 v 24.676 l 0.359,24.676 0.325,24.676 8.375,24.674 4.117,24.67 2.096,24.68 2.48,24.68 1.44,24.67 v 24.68 24.67 l 6.57,24.67 30.48,24.68 4.35,24.68 4.71,24.67 1.24,24.67 6.58,24.68 6.11,24.68 13.11,24.67 10.2,24.68 15.63,24.67 23.81,24.67 19.46,24.68 13.17,24.68 4.49,24.67 7.25,24.67 5.27,24.68 0.13,24.68 6.38,24.67 3.56,24.68 0.98,24.67 0.1,24.67 0.13,24.68 1.38,24.68 1.85,24.67 0.43,24.67 1.15,24.68 4.87,24.68 26.91,24.67 v 24.68 l 16.61,24.67 17.11,24.67 15.69,24.68 17.52,24.68 9.82,24.67 7.55,24.67 10.93,24.68 11.27,24.68 10.7,24.67 1.76,24.68 4.65,24.67 30.18,24.67 23.84,24.68 4.05,24.68 16.91,24.67 51.92,24.67 30.71,24.68 81.98,24.68 76.94,24.67 8.61,24.68 43.81,24.67 78.87,24.67 18.25,24.68 93.95,24.68 45.58,24.67 23.31,24.67 37.64,24.68 17.37,24.68 3.27,24.67 54.83,24.68 67.37,24.67 63.3,24.67 86.52,24.68 63.74,24.68 43.3,24.67 35.41,24.67 31.68,24.68 242.8,24.68 53.57,24.67 115.43,24.68 324.81,24.67 576.92,12.74" /><path
         id="path1696"
         style="fill:none;stroke:#0072bd;stroke-width:30;stroke-linecap:butt;stroke-linejoin:bevel;stroke-miterlimit:10;stroke-dasharray:30, 30;stroke-dashoffset:0;stroke-opacity:1"
         d="m 658.484,482.176 39.465,24.676 92.348,24.671 53.957,24.676 23.445,24.676 87.996,24.676 36.067,24.676 34.298,24.671 13.08,24.676 48.95,24.676 41.17,24.676 23.09,24.676 34.63,24.671 35.41,24.676 8.08,24.676 2.03,24.676 8.66,24.676 9.71,24.671 3.77,24.676 12.91,24.676 44.67,24.676 10.17,24.674 0.32,24.67 0.7,24.68 9.18,24.68 8.7,24.67 v 24.68 24.67 l 3.33,24.67 17.17,24.68 17.96,24.68 13.05,24.67 18.83,24.67 10.75,24.68 9.46,24.68 4.91,24.67 13.66,24.68 23.12,24.67 15.01,24.67 12.1,24.68 30.67,24.68 16.77,24.67 8.67,24.67 1.57,24.68 7.62,24.68 2.19,24.67 0.29,24.68 5.17,24.67 7.19,24.67 11.22,24.68 11.41,24.68 6.15,24.67 6.32,24.67 11.04,24.68 2.26,24.68 0.14,24.67 6.73,24.68 5.72,24.67 0.85,24.67 13.27,24.68 37.19,24.68 19.65,24.67 7.62,24.67 20.11,24.68 22.27,24.68 12.16,24.67 17.82,24.68 25.77,24.67 9.29,24.67 44.37,24.68 47.16,24.68 20.24,24.67 15.56,24.67 58.33,24.68 165.37,24.68 127.47,24.67 23.54,24.68 83.98,24.67 119.09,24.67 47.28,24.68 4.94,24.68 126.48,24.67 48.8,24.67 58.4,24.68 14.61,24.68 40.26,24.67 100.39,24.68 94.37,24.67 76.15,24.67 75.28,24.68 44.57,24.68 97.7,24.67 52.13,24.67 15.76,24.68 276.32,24.68 89.07,18.41" /><path
         id="path1698"
         style="fill:none;stroke:#ff00ff;stroke-width:30;stroke-linecap:butt;stroke-linejoin:bevel;stroke-miterlimit:10;stroke-dasharray:30, 30;stroke-dashoffset:0;stroke-opacity:1"
         d="m 814.035,482.176 61.117,24.676 118.344,24.671 25.964,24.676 70.89,24.676 69.65,24.676 84.86,24.676 48.92,24.671 105.85,24.676 103.89,24.676 33.09,24.676 5.59,24.676 38.32,24.671 51.05,24.676 23.74,24.676 15.01,24.676 14.88,24.676 30.51,24.671 v 24.676 l 3.69,24.676 22.04,24.676 17.92,24.674 46.04,24.67 25.21,24.68 17.37,24.68 19.09,24.67 6.25,24.68 v 24.67 24.67 l 7.26,24.68 65.47,24.68 5.29,24.67 8.44,24.67 1.33,24.68 3.77,24.68 16.81,24.67 22.63,24.68 13.47,24.67 2.48,24.67 7.06,24.68 17.47,24.68 4.45,24.67 8.43,24.67 41.86,24.68 20.67,24.68 7.74,24.67 1.22,24.68 1.53,24.67 14.25,24.67 10.96,24.68 2.69,24.68 2.67,24.67 12.53,24.67 32.27,24.68 5.53,24.68 49.67,24.67 v 24.68 l 2.32,24.67 6.48,24.67 14.98,24.68 11.44,24.68 8.21,24.67 22.5,24.67 29.79,24.68 30.8,24.68 64.78,24.67 85.38,24.68 8.96,24.67 17.59,24.67 33.58,24.68 126.45,24.68 28.88,24.67 60.16,24.67 61.16,24.68 197.93,24.68 175.86,24.67 81.91,24.68 163.01,24.67 18.15,24.67 45.78,24.68 139.3,24.68 98.72,19.59" /><path
         id="path1700"
         style="fill:none;stroke:#d95319;stroke-width:30;stroke-linecap:butt;stroke-linejoin:bevel;stroke-miterlimit:10;stroke-dasharray:30, 30;stroke-dashoffset:0;stroke-opacity:1"
         d="m 949.184,482.176 75.016,24.676 124.88,24.671 45.42,24.676 65.79,24.676 67.43,24.676 199.08,24.676 37.18,24.671 82.11,24.676 103.43,24.676 112.75,24.676 67.91,24.676 35.32,24.671 30.31,24.676 22.57,24.676 21.68,24.676 11.9,24.676 0.78,24.671 10.44,24.676 6.01,24.676 27.67,24.676 23.28,24.674 6.08,24.67 7.49,24.68 41.07,24.68 35.67,24.67 v 24.68 24.67 l 22.31,24.67 101.95,24.68 3.6,24.68 0.72,24.67 18.22,24.67 13.86,24.68 14.98,24.68 13.57,24.67 32.4,24.68 25.32,24.67 7.38,24.67 16.42,24.68 27.14,24.68 30.21,24.67 20.61,24.67 21.48,24.68 6.15,24.68 37.18,24.67 8.01,24.68 27.4,24.67 42.41,24.67 24.79,24.68 6.54,24.68 3.11,24.67 0.42,24.67 1.28,24.68 0.42,24.68 0.36,24.67 16.81,24.68 1.11,24.67 36.2,24.67 33.16,24.68 30.77,24.68 34.37,24.67 24.59,24.67 11.74,24.68 17.59,24.68 32.54,24.67 43.98,24.68 94.34,24.67 53.79,24.67 25.47,24.68 10.82,24.68 5.76,24.67 134.99,24.67 124.32,24.68 245.71,24.68 78.64,9.44" /></g></g></svg>
