<?xml version="1.0" encoding="UTF-8" standalone="no"?>
<svg
   xmlns:dc="http://purl.org/dc/elements/1.1/"
   xmlns:cc="http://creativecommons.org/ns#"
   xmlns:rdf="http://www.w3.org/1999/02/22-rdf-syntax-ns#"
   xmlns:svg="http://www.w3.org/2000/svg"
   xmlns="http://www.w3.org/2000/svg"
   xmlns:sodipodi="http://sodipodi.sourceforge.net/DTD/sodipodi-0.dtd"
   xmlns:inkscape="http://www.inkscape.org/namespaces/inkscape"
   inkscape:version="1.0 (4035a4fb49, 2020-05-01)"
   sodipodi:docname="RainFR_RainExtr_EFFCI01_Sierra.svg"
   viewBox="0 0 524 398.66666"
   height="398.66666"
   width="524"
   xml:space="preserve"
   id="svg574"
   version="1.1"><metadata
     id="metadata580"><rdf:RDF><cc:Work
         rdf:about=""><dc:format>image/svg+xml</dc:format><dc:type
           rdf:resource="http://purl.org/dc/dcmitype/StillImage" /><dc:title></dc:title></cc:Work></rdf:RDF></metadata><defs
     id="defs578" /><sodipodi:namedview
     inkscape:current-layer="g582"
     inkscape:window-maximized="0"
     inkscape:window-y="0"
     inkscape:window-x="0"
     inkscape:cy="199.33333"
     inkscape:cx="262"
     inkscape:zoom="1.8436455"
     showgrid="false"
     id="namedview576"
     inkscape:window-height="510"
     inkscape:window-width="743"
     inkscape:pageshadow="2"
     inkscape:pageopacity="0"
     guidetolerance="10"
     gridtolerance="10"
     objecttolerance="10"
     borderopacity="1"
     bordercolor="#666666"
     pagecolor="#ffffff" /><g
     transform="matrix(1.3333333,0,0,-1.3333333,0,398.66667)"
     inkscape:label="ink_ext_XXXXXX"
     inkscape:groupmode="layer"
     id="g582"><g
       transform="scale(0.1)"
       id="g584"><path
         id="path586"
         style="fill:#ffffff;fill-opacity:1;fill-rule:nonzero;stroke:none"
         d="M -30,0 H 4200 V 3165 H -30 Z" /><path
         id="path588"
         style="fill:#ffffff;fill-opacity:1;fill-rule:nonzero;stroke:none"
         d="M -30,0 H 4200 V 3165 H -30 Z" /><path
         id="path590"
         style="fill:#ffffff;fill-opacity:1;fill-rule:nonzero;stroke:none"
         d="M 525,457.5 H 3795 V 2925 H 525 Z" /><path
         id="path592"
         style="fill:none;stroke:#929292;stroke-width:5.0025;stroke-linecap:butt;stroke-linejoin:round;stroke-miterlimit:10;stroke-dasharray:none;stroke-opacity:1"
         d="M 525,457.5 V 2925" /><path
         id="path594"
         style="fill:none;stroke:#929292;stroke-width:5.0025;stroke-linecap:butt;stroke-linejoin:round;stroke-miterlimit:10;stroke-dasharray:none;stroke-opacity:1"
         d="M 992.145,457.5 V 2925" /><path
         id="path596"
         style="fill:none;stroke:#929292;stroke-width:5.0025;stroke-linecap:butt;stroke-linejoin:round;stroke-miterlimit:10;stroke-dasharray:none;stroke-opacity:1"
         d="M 1459.28,457.5 V 2925" /><path
         id="path598"
         style="fill:none;stroke:#929292;stroke-width:5.0025;stroke-linecap:butt;stroke-linejoin:round;stroke-miterlimit:10;stroke-dasharray:none;stroke-opacity:1"
         d="M 1926.43,457.5 V 2925" /><path
         id="path600"
         style="fill:none;stroke:#929292;stroke-width:5.0025;stroke-linecap:butt;stroke-linejoin:round;stroke-miterlimit:10;stroke-dasharray:none;stroke-opacity:1"
         d="M 2393.57,457.5 V 2925" /><path
         id="path602"
         style="fill:none;stroke:#929292;stroke-width:5.0025;stroke-linecap:butt;stroke-linejoin:round;stroke-miterlimit:10;stroke-dasharray:none;stroke-opacity:1"
         d="M 2860.72,457.5 V 2925" /><path
         id="path604"
         style="fill:none;stroke:#929292;stroke-width:5.0025;stroke-linecap:butt;stroke-linejoin:round;stroke-miterlimit:10;stroke-dasharray:none;stroke-opacity:1"
         d="M 3327.86,457.5 V 2925" /><path
         id="path606"
         style="fill:none;stroke:#929292;stroke-width:5.0025;stroke-linecap:butt;stroke-linejoin:round;stroke-miterlimit:10;stroke-dasharray:none;stroke-opacity:1"
         d="M 3795,457.5 V 2925" /><path
         id="path608"
         style="fill:none;stroke:#929292;stroke-width:5.0025;stroke-linecap:butt;stroke-linejoin:round;stroke-miterlimit:10;stroke-dasharray:none;stroke-opacity:1"
         d="M 3795,457.5 H 525" /><path
         id="path610"
         style="fill:none;stroke:#929292;stroke-width:5.0025;stroke-linecap:butt;stroke-linejoin:round;stroke-miterlimit:10;stroke-dasharray:none;stroke-opacity:1"
         d="M 3795,580.875 H 525" /><path
         id="path612"
         style="fill:none;stroke:#929292;stroke-width:5.0025;stroke-linecap:butt;stroke-linejoin:round;stroke-miterlimit:10;stroke-dasharray:none;stroke-opacity:1"
         d="M 3795,704.25 H 525" /><path
         id="path614"
         style="fill:none;stroke:#929292;stroke-width:5.0025;stroke-linecap:butt;stroke-linejoin:round;stroke-miterlimit:10;stroke-dasharray:none;stroke-opacity:1"
         d="M 3795,827.625 H 525" /><path
         id="path616"
         style="fill:none;stroke:#929292;stroke-width:5.0025;stroke-linecap:butt;stroke-linejoin:round;stroke-miterlimit:10;stroke-dasharray:none;stroke-opacity:1"
         d="M 3795,951 H 525" /><path
         id="path618"
         style="fill:none;stroke:#929292;stroke-width:5.0025;stroke-linecap:butt;stroke-linejoin:round;stroke-miterlimit:10;stroke-dasharray:none;stroke-opacity:1"
         d="M 3795,1074.38 H 525" /><path
         id="path620"
         style="fill:none;stroke:#929292;stroke-width:5.0025;stroke-linecap:butt;stroke-linejoin:round;stroke-miterlimit:10;stroke-dasharray:none;stroke-opacity:1"
         d="M 3795,1197.75 H 525" /><path
         id="path622"
         style="fill:none;stroke:#929292;stroke-width:5.0025;stroke-linecap:butt;stroke-linejoin:round;stroke-miterlimit:10;stroke-dasharray:none;stroke-opacity:1"
         d="M 3795,1321.13 H 525" /><path
         id="path624"
         style="fill:none;stroke:#929292;stroke-width:5.0025;stroke-linecap:butt;stroke-linejoin:round;stroke-miterlimit:10;stroke-dasharray:none;stroke-opacity:1"
         d="M 3795,1444.5 H 525" /><path
         id="path626"
         style="fill:none;stroke:#929292;stroke-width:5.0025;stroke-linecap:butt;stroke-linejoin:round;stroke-miterlimit:10;stroke-dasharray:none;stroke-opacity:1"
         d="M 3795,1567.88 H 525" /><path
         id="path628"
         style="fill:none;stroke:#929292;stroke-width:5.0025;stroke-linecap:butt;stroke-linejoin:round;stroke-miterlimit:10;stroke-dasharray:none;stroke-opacity:1"
         d="M 3795,1691.25 H 525" /><path
         id="path630"
         style="fill:none;stroke:#929292;stroke-width:5.0025;stroke-linecap:butt;stroke-linejoin:round;stroke-miterlimit:10;stroke-dasharray:none;stroke-opacity:1"
         d="M 3795,1814.63 H 525" /><path
         id="path632"
         style="fill:none;stroke:#929292;stroke-width:5.0025;stroke-linecap:butt;stroke-linejoin:round;stroke-miterlimit:10;stroke-dasharray:none;stroke-opacity:1"
         d="M 3795,1938 H 525" /><path
         id="path634"
         style="fill:none;stroke:#929292;stroke-width:5.0025;stroke-linecap:butt;stroke-linejoin:round;stroke-miterlimit:10;stroke-dasharray:none;stroke-opacity:1"
         d="M 3795,2061.38 H 525" /><path
         id="path636"
         style="fill:none;stroke:#929292;stroke-width:5.0025;stroke-linecap:butt;stroke-linejoin:round;stroke-miterlimit:10;stroke-dasharray:none;stroke-opacity:1"
         d="M 3795,2184.75 H 525" /><path
         id="path638"
         style="fill:none;stroke:#929292;stroke-width:5.0025;stroke-linecap:butt;stroke-linejoin:round;stroke-miterlimit:10;stroke-dasharray:none;stroke-opacity:1"
         d="M 3795,2308.13 H 525" /><path
         id="path640"
         style="fill:none;stroke:#929292;stroke-width:5.0025;stroke-linecap:butt;stroke-linejoin:round;stroke-miterlimit:10;stroke-dasharray:none;stroke-opacity:1"
         d="M 3795,2431.5 H 525" /><path
         id="path642"
         style="fill:none;stroke:#929292;stroke-width:5.0025;stroke-linecap:butt;stroke-linejoin:round;stroke-miterlimit:10;stroke-dasharray:none;stroke-opacity:1"
         d="M 3795,2554.88 H 525" /><path
         id="path644"
         style="fill:none;stroke:#929292;stroke-width:5.0025;stroke-linecap:butt;stroke-linejoin:round;stroke-miterlimit:10;stroke-dasharray:none;stroke-opacity:1"
         d="M 3795,2678.25 H 525" /><path
         id="path646"
         style="fill:none;stroke:#929292;stroke-width:5.0025;stroke-linecap:butt;stroke-linejoin:round;stroke-miterlimit:10;stroke-dasharray:none;stroke-opacity:1"
         d="M 3795,2801.63 H 525" /><path
         id="path648"
         style="fill:none;stroke:#929292;stroke-width:5.0025;stroke-linecap:butt;stroke-linejoin:round;stroke-miterlimit:10;stroke-dasharray:none;stroke-opacity:1"
         d="M 3795,2925 H 525" /><path
         id="path650"
         style="fill:none;stroke:#262626;stroke-width:5.0025;stroke-linecap:square;stroke-linejoin:round;stroke-miterlimit:10;stroke-dasharray:none;stroke-opacity:1"
         d="M 525,457.5 H 3795" /><path
         id="path652"
         style="fill:none;stroke:#262626;stroke-width:5.0025;stroke-linecap:square;stroke-linejoin:round;stroke-miterlimit:10;stroke-dasharray:none;stroke-opacity:1"
         d="M 525,2925 H 3795" /><path
         id="path654"
         style="fill:none;stroke:#262626;stroke-width:5.0025;stroke-linecap:square;stroke-linejoin:round;stroke-miterlimit:10;stroke-dasharray:none;stroke-opacity:1"
         d="m 525,457.5 v 32.699" /><path
         id="path656"
         style="fill:none;stroke:#262626;stroke-width:5.0025;stroke-linecap:square;stroke-linejoin:round;stroke-miterlimit:10;stroke-dasharray:none;stroke-opacity:1"
         d="m 992.145,457.5 v 32.699" /><path
         id="path658"
         style="fill:none;stroke:#262626;stroke-width:5.0025;stroke-linecap:square;stroke-linejoin:round;stroke-miterlimit:10;stroke-dasharray:none;stroke-opacity:1"
         d="m 1459.28,457.5 v 32.699" /><path
         id="path660"
         style="fill:none;stroke:#262626;stroke-width:5.0025;stroke-linecap:square;stroke-linejoin:round;stroke-miterlimit:10;stroke-dasharray:none;stroke-opacity:1"
         d="m 1926.43,457.5 v 32.699" /><path
         id="path662"
         style="fill:none;stroke:#262626;stroke-width:5.0025;stroke-linecap:square;stroke-linejoin:round;stroke-miterlimit:10;stroke-dasharray:none;stroke-opacity:1"
         d="m 2393.57,457.5 v 32.699" /><path
         id="path664"
         style="fill:none;stroke:#262626;stroke-width:5.0025;stroke-linecap:square;stroke-linejoin:round;stroke-miterlimit:10;stroke-dasharray:none;stroke-opacity:1"
         d="m 2860.72,457.5 v 32.699" /><path
         id="path666"
         style="fill:none;stroke:#262626;stroke-width:5.0025;stroke-linecap:square;stroke-linejoin:round;stroke-miterlimit:10;stroke-dasharray:none;stroke-opacity:1"
         d="m 3327.86,457.5 v 32.699" /><path
         id="path668"
         style="fill:none;stroke:#262626;stroke-width:5.0025;stroke-linecap:square;stroke-linejoin:round;stroke-miterlimit:10;stroke-dasharray:none;stroke-opacity:1"
         d="m 3795,457.5 v 32.699" /><path
         id="path670"
         style="fill:none;stroke:#262626;stroke-width:5.0025;stroke-linecap:square;stroke-linejoin:round;stroke-miterlimit:10;stroke-dasharray:none;stroke-opacity:1"
         d="m 525,2925 v -32.7" /><path
         id="path672"
         style="fill:none;stroke:#262626;stroke-width:5.0025;stroke-linecap:square;stroke-linejoin:round;stroke-miterlimit:10;stroke-dasharray:none;stroke-opacity:1"
         d="m 992.145,2925 v -32.7" /><path
         id="path674"
         style="fill:none;stroke:#262626;stroke-width:5.0025;stroke-linecap:square;stroke-linejoin:round;stroke-miterlimit:10;stroke-dasharray:none;stroke-opacity:1"
         d="m 1459.28,2925 v -32.7" /><path
         id="path676"
         style="fill:none;stroke:#262626;stroke-width:5.0025;stroke-linecap:square;stroke-linejoin:round;stroke-miterlimit:10;stroke-dasharray:none;stroke-opacity:1"
         d="m 1926.43,2925 v -32.7" /><path
         id="path678"
         style="fill:none;stroke:#262626;stroke-width:5.0025;stroke-linecap:square;stroke-linejoin:round;stroke-miterlimit:10;stroke-dasharray:none;stroke-opacity:1"
         d="m 2393.57,2925 v -32.7" /><path
         id="path680"
         style="fill:none;stroke:#262626;stroke-width:5.0025;stroke-linecap:square;stroke-linejoin:round;stroke-miterlimit:10;stroke-dasharray:none;stroke-opacity:1"
         d="m 2860.72,2925 v -32.7" /><path
         id="path682"
         style="fill:none;stroke:#262626;stroke-width:5.0025;stroke-linecap:square;stroke-linejoin:round;stroke-miterlimit:10;stroke-dasharray:none;stroke-opacity:1"
         d="m 3327.86,2925 v -32.7" /><path
         id="path684"
         style="fill:none;stroke:#262626;stroke-width:5.0025;stroke-linecap:square;stroke-linejoin:round;stroke-miterlimit:10;stroke-dasharray:none;stroke-opacity:1"
         d="m 3795,2925 v -32.7" /><g
         transform="scale(10)"
         id="g686"><text
           id="text690"
           style="font-variant:normal;font-weight:normal;font-size:15.9998px;font-family:Helvetica;-inkscape-font-specification:Helvetica;writing-mode:lr-tb;fill:#262626;fill-opacity:1;fill-rule:nonzero;stroke:none"
           transform="matrix(1,0,0,-1,48,25.55)"><tspan
             id="tspan688"
             sodipodi:role="line"
             y="0"
             x="0 42.214512 51.110401 84.428703 93.324593 102.22048 131.14333 140.03922 148.9351 177.85762 186.75351 195.6494 224.57224 233.46812 242.36401 271.28653 280.1824 289.07831 318.00116 326.89703 335.79291">050100150200250300350</tspan></text><text
           id="text694"
           style="font-variant:normal;font-weight:normal;font-size:17.6002px;font-family:Helvetica;-inkscape-font-specification:Helvetica;writing-mode:lr-tb;fill:#262626;fill-opacity:1;fill-rule:nonzero;stroke:none"
           transform="matrix(1,0,0,-1,119.625,3.55)"><tspan
             id="tspan692"
             sodipodi:role="line"
             y="0"
             x="0 12.707344 22.493055 26.400299 36.186012 41.078865 50.864578 54.771824 58.679066 63.571922 72.372025 82.15773 86.06498 95.850693 105.6364 114.4365 119.32935 124.22221 138.88318 153.54414 158.437 168.22272 178.00842 187.79413">Rainfall values [mm/12h]</tspan></text></g><path
         id="path696"
         style="fill:none;stroke:#262626;stroke-width:5.0025;stroke-linecap:square;stroke-linejoin:round;stroke-miterlimit:10;stroke-dasharray:none;stroke-opacity:1"
         d="M 525,457.5 V 2925" /><path
         id="path698"
         style="fill:none;stroke:#262626;stroke-width:5.0025;stroke-linecap:square;stroke-linejoin:round;stroke-miterlimit:10;stroke-dasharray:none;stroke-opacity:1"
         d="M 3795,457.5 V 2925" /><path
         id="path700"
         style="fill:none;stroke:#262626;stroke-width:5.0025;stroke-linecap:square;stroke-linejoin:round;stroke-miterlimit:10;stroke-dasharray:none;stroke-opacity:1"
         d="m 525,457.5 h 32.699" /><path
         id="path702"
         style="fill:none;stroke:#262626;stroke-width:5.0025;stroke-linecap:square;stroke-linejoin:round;stroke-miterlimit:10;stroke-dasharray:none;stroke-opacity:1"
         d="m 525,580.875 h 32.699" /><path
         id="path704"
         style="fill:none;stroke:#262626;stroke-width:5.0025;stroke-linecap:square;stroke-linejoin:round;stroke-miterlimit:10;stroke-dasharray:none;stroke-opacity:1"
         d="m 525,704.25 h 32.699" /><path
         id="path706"
         style="fill:none;stroke:#262626;stroke-width:5.0025;stroke-linecap:square;stroke-linejoin:round;stroke-miterlimit:10;stroke-dasharray:none;stroke-opacity:1"
         d="m 525,827.625 h 32.699" /><path
         id="path708"
         style="fill:none;stroke:#262626;stroke-width:5.0025;stroke-linecap:square;stroke-linejoin:round;stroke-miterlimit:10;stroke-dasharray:none;stroke-opacity:1"
         d="m 525,951 h 32.699" /><path
         id="path710"
         style="fill:none;stroke:#262626;stroke-width:5.0025;stroke-linecap:square;stroke-linejoin:round;stroke-miterlimit:10;stroke-dasharray:none;stroke-opacity:1"
         d="m 525,1074.38 h 32.699" /><path
         id="path712"
         style="fill:none;stroke:#262626;stroke-width:5.0025;stroke-linecap:square;stroke-linejoin:round;stroke-miterlimit:10;stroke-dasharray:none;stroke-opacity:1"
         d="m 525,1197.75 h 32.699" /><path
         id="path714"
         style="fill:none;stroke:#262626;stroke-width:5.0025;stroke-linecap:square;stroke-linejoin:round;stroke-miterlimit:10;stroke-dasharray:none;stroke-opacity:1"
         d="m 525,1321.13 h 32.699" /><path
         id="path716"
         style="fill:none;stroke:#262626;stroke-width:5.0025;stroke-linecap:square;stroke-linejoin:round;stroke-miterlimit:10;stroke-dasharray:none;stroke-opacity:1"
         d="m 525,1444.5 h 32.699" /><path
         id="path718"
         style="fill:none;stroke:#262626;stroke-width:5.0025;stroke-linecap:square;stroke-linejoin:round;stroke-miterlimit:10;stroke-dasharray:none;stroke-opacity:1"
         d="m 525,1567.88 h 32.699" /><path
         id="path720"
         style="fill:none;stroke:#262626;stroke-width:5.0025;stroke-linecap:square;stroke-linejoin:round;stroke-miterlimit:10;stroke-dasharray:none;stroke-opacity:1"
         d="m 525,1691.25 h 32.699" /><path
         id="path722"
         style="fill:none;stroke:#262626;stroke-width:5.0025;stroke-linecap:square;stroke-linejoin:round;stroke-miterlimit:10;stroke-dasharray:none;stroke-opacity:1"
         d="m 525,1814.63 h 32.699" /><path
         id="path724"
         style="fill:none;stroke:#262626;stroke-width:5.0025;stroke-linecap:square;stroke-linejoin:round;stroke-miterlimit:10;stroke-dasharray:none;stroke-opacity:1"
         d="m 525,1938 h 32.699" /><path
         id="path726"
         style="fill:none;stroke:#262626;stroke-width:5.0025;stroke-linecap:square;stroke-linejoin:round;stroke-miterlimit:10;stroke-dasharray:none;stroke-opacity:1"
         d="m 525,2061.38 h 32.699" /><path
         id="path728"
         style="fill:none;stroke:#262626;stroke-width:5.0025;stroke-linecap:square;stroke-linejoin:round;stroke-miterlimit:10;stroke-dasharray:none;stroke-opacity:1"
         d="m 525,2184.75 h 32.699" /><path
         id="path730"
         style="fill:none;stroke:#262626;stroke-width:5.0025;stroke-linecap:square;stroke-linejoin:round;stroke-miterlimit:10;stroke-dasharray:none;stroke-opacity:1"
         d="m 525,2308.13 h 32.699" /><path
         id="path732"
         style="fill:none;stroke:#262626;stroke-width:5.0025;stroke-linecap:square;stroke-linejoin:round;stroke-miterlimit:10;stroke-dasharray:none;stroke-opacity:1"
         d="m 525,2431.5 h 32.699" /><path
         id="path734"
         style="fill:none;stroke:#262626;stroke-width:5.0025;stroke-linecap:square;stroke-linejoin:round;stroke-miterlimit:10;stroke-dasharray:none;stroke-opacity:1"
         d="m 525,2554.88 h 32.699" /><path
         id="path736"
         style="fill:none;stroke:#262626;stroke-width:5.0025;stroke-linecap:square;stroke-linejoin:round;stroke-miterlimit:10;stroke-dasharray:none;stroke-opacity:1"
         d="m 525,2678.25 h 32.699" /><path
         id="path738"
         style="fill:none;stroke:#262626;stroke-width:5.0025;stroke-linecap:square;stroke-linejoin:round;stroke-miterlimit:10;stroke-dasharray:none;stroke-opacity:1"
         d="m 525,2801.63 h 32.699" /><path
         id="path740"
         style="fill:none;stroke:#262626;stroke-width:5.0025;stroke-linecap:square;stroke-linejoin:round;stroke-miterlimit:10;stroke-dasharray:none;stroke-opacity:1"
         d="m 525,2925 h 32.699" /><path
         id="path742"
         style="fill:none;stroke:#262626;stroke-width:5.0025;stroke-linecap:square;stroke-linejoin:round;stroke-miterlimit:10;stroke-dasharray:none;stroke-opacity:1"
         d="m 3795,457.5 h -32.7" /><path
         id="path744"
         style="fill:none;stroke:#262626;stroke-width:5.0025;stroke-linecap:square;stroke-linejoin:round;stroke-miterlimit:10;stroke-dasharray:none;stroke-opacity:1"
         d="m 3795,580.875 h -32.7" /><path
         id="path746"
         style="fill:none;stroke:#262626;stroke-width:5.0025;stroke-linecap:square;stroke-linejoin:round;stroke-miterlimit:10;stroke-dasharray:none;stroke-opacity:1"
         d="m 3795,704.25 h -32.7" /><path
         id="path748"
         style="fill:none;stroke:#262626;stroke-width:5.0025;stroke-linecap:square;stroke-linejoin:round;stroke-miterlimit:10;stroke-dasharray:none;stroke-opacity:1"
         d="m 3795,827.625 h -32.7" /><path
         id="path750"
         style="fill:none;stroke:#262626;stroke-width:5.0025;stroke-linecap:square;stroke-linejoin:round;stroke-miterlimit:10;stroke-dasharray:none;stroke-opacity:1"
         d="m 3795,951 h -32.7" /><path
         id="path752"
         style="fill:none;stroke:#262626;stroke-width:5.0025;stroke-linecap:square;stroke-linejoin:round;stroke-miterlimit:10;stroke-dasharray:none;stroke-opacity:1"
         d="m 3795,1074.38 h -32.7" /><path
         id="path754"
         style="fill:none;stroke:#262626;stroke-width:5.0025;stroke-linecap:square;stroke-linejoin:round;stroke-miterlimit:10;stroke-dasharray:none;stroke-opacity:1"
         d="m 3795,1197.75 h -32.7" /><path
         id="path756"
         style="fill:none;stroke:#262626;stroke-width:5.0025;stroke-linecap:square;stroke-linejoin:round;stroke-miterlimit:10;stroke-dasharray:none;stroke-opacity:1"
         d="m 3795,1321.13 h -32.7" /><path
         id="path758"
         style="fill:none;stroke:#262626;stroke-width:5.0025;stroke-linecap:square;stroke-linejoin:round;stroke-miterlimit:10;stroke-dasharray:none;stroke-opacity:1"
         d="m 3795,1444.5 h -32.7" /><path
         id="path760"
         style="fill:none;stroke:#262626;stroke-width:5.0025;stroke-linecap:square;stroke-linejoin:round;stroke-miterlimit:10;stroke-dasharray:none;stroke-opacity:1"
         d="m 3795,1567.88 h -32.7" /><path
         id="path762"
         style="fill:none;stroke:#262626;stroke-width:5.0025;stroke-linecap:square;stroke-linejoin:round;stroke-miterlimit:10;stroke-dasharray:none;stroke-opacity:1"
         d="m 3795,1691.25 h -32.7" /><path
         id="path764"
         style="fill:none;stroke:#262626;stroke-width:5.0025;stroke-linecap:square;stroke-linejoin:round;stroke-miterlimit:10;stroke-dasharray:none;stroke-opacity:1"
         d="m 3795,1814.63 h -32.7" /><path
         id="path766"
         style="fill:none;stroke:#262626;stroke-width:5.0025;stroke-linecap:square;stroke-linejoin:round;stroke-miterlimit:10;stroke-dasharray:none;stroke-opacity:1"
         d="m 3795,1938 h -32.7" /><path
         id="path768"
         style="fill:none;stroke:#262626;stroke-width:5.0025;stroke-linecap:square;stroke-linejoin:round;stroke-miterlimit:10;stroke-dasharray:none;stroke-opacity:1"
         d="m 3795,2061.38 h -32.7" /><path
         id="path770"
         style="fill:none;stroke:#262626;stroke-width:5.0025;stroke-linecap:square;stroke-linejoin:round;stroke-miterlimit:10;stroke-dasharray:none;stroke-opacity:1"
         d="m 3795,2184.75 h -32.7" /><path
         id="path772"
         style="fill:none;stroke:#262626;stroke-width:5.0025;stroke-linecap:square;stroke-linejoin:round;stroke-miterlimit:10;stroke-dasharray:none;stroke-opacity:1"
         d="m 3795,2308.13 h -32.7" /><path
         id="path774"
         style="fill:none;stroke:#262626;stroke-width:5.0025;stroke-linecap:square;stroke-linejoin:round;stroke-miterlimit:10;stroke-dasharray:none;stroke-opacity:1"
         d="m 3795,2431.5 h -32.7" /><path
         id="path776"
         style="fill:none;stroke:#262626;stroke-width:5.0025;stroke-linecap:square;stroke-linejoin:round;stroke-miterlimit:10;stroke-dasharray:none;stroke-opacity:1"
         d="m 3795,2554.88 h -32.7" /><path
         id="path778"
         style="fill:none;stroke:#262626;stroke-width:5.0025;stroke-linecap:square;stroke-linejoin:round;stroke-miterlimit:10;stroke-dasharray:none;stroke-opacity:1"
         d="m 3795,2678.25 h -32.7" /><path
         id="path780"
         style="fill:none;stroke:#262626;stroke-width:5.0025;stroke-linecap:square;stroke-linejoin:round;stroke-miterlimit:10;stroke-dasharray:none;stroke-opacity:1"
         d="m 3795,2801.63 h -32.7" /><path
         id="path782"
         style="fill:none;stroke:#262626;stroke-width:5.0025;stroke-linecap:square;stroke-linejoin:round;stroke-miterlimit:10;stroke-dasharray:none;stroke-opacity:1"
         d="m 3795,2925 h -32.7" /><g
         transform="scale(10)"
         id="g784"><text
           id="text828"
           style="font-variant:normal;font-weight:normal;font-size:15.9998px;font-family:Helvetica;-inkscape-font-specification:Helvetica;writing-mode:lr-tb;fill:#262626;fill-opacity:1;fill-rule:nonzero;stroke:none"
           transform="matrix(1,0,0,-1,38.3,40.125)"><tspan
             id="tspan786"
             y="0"
             x="0">0</tspan><tspan
             id="tspan788"
             y="-12.3375"
             x="4.5"> </tspan><tspan
             id="tspan790"
             sodipodi:role="line"
             y="-24.674999"
             x="-9 -0.1041112">10</tspan><tspan
             id="tspan792"
             y="-37.012501"
             x="4.5"> </tspan><tspan
             id="tspan794"
             sodipodi:role="line"
             y="-49.349998"
             x="-9 -0.1041112">20</tspan><tspan
             id="tspan796"
             y="-61.6875"
             x="4.5"> </tspan><tspan
             id="tspan798"
             sodipodi:role="line"
             y="-74.025002"
             x="-9 -0.1041112">30</tspan><tspan
             id="tspan800"
             y="-86.362503"
             x="4.5"> </tspan><tspan
             id="tspan802"
             sodipodi:role="line"
             y="-98.699997"
             x="-9 -0.1041112">40</tspan><tspan
             id="tspan804"
             y="-111.0375"
             x="4.5"> </tspan><tspan
             id="tspan806"
             sodipodi:role="line"
             y="-123.375"
             x="-9 -0.1041112">50</tspan><tspan
             id="tspan808"
             y="-135.71249"
             x="4.5"> </tspan><tspan
             id="tspan810"
             sodipodi:role="line"
             y="-148.05"
             x="-9 -0.1041112">60</tspan><tspan
             id="tspan812"
             y="-160.3875"
             x="4.5"> </tspan><tspan
             id="tspan814"
             sodipodi:role="line"
             y="-172.72501"
             x="-9 -0.1041112">70</tspan><tspan
             id="tspan816"
             y="-185.0625"
             x="4.5"> </tspan><tspan
             id="tspan818"
             sodipodi:role="line"
             y="-197.39999"
             x="-9 -0.1041112">80</tspan><tspan
             id="tspan820"
             y="-209.7375"
             x="4.5"> </tspan><tspan
             id="tspan822"
             sodipodi:role="line"
             y="-222.075"
             x="-9 -0.1041112">90</tspan><tspan
             id="tspan824"
             y="-234.41251"
             x="4.5"> </tspan><tspan
             id="tspan826"
             sodipodi:role="line"
             y="-246.75"
             x="-18 -9.1041117 -0.2082224">100</tspan></text><text
           id="text832"
           style="font-variant:normal;font-weight:normal;font-size:17.6002px;font-family:Helvetica;-inkscape-font-specification:Helvetica;writing-mode:lr-tb;fill:#262626;fill-opacity:1;fill-rule:nonzero;stroke:none"
           transform="matrix(0,1,1,0,13.55,109.5)"><tspan
             id="tspan830"
             sodipodi:role="line"
             y="0"
             x="0 11.739333 21.525045 27.385912 36.186012 45.971722 55.757435 60.650288 64.557533 68.464775 78.250488 87.050591 91.943443 97.804314 113.45089">Percentiles (%)</tspan></text></g><path
         id="path834"
         style="fill:none;stroke:#edb120;stroke-width:30;stroke-linecap:butt;stroke-linejoin:round;stroke-miterlimit:10;stroke-dasharray:none;stroke-opacity:1"
         d="m 525.988,482.176 0.086,24.676 0.246,24.671 0.793,24.676 2.258,24.676 0.813,24.676 0.472,24.676 1.582,24.671 1.348,24.676 0.277,24.676 0.571,24.676 0.609,24.676 0.488,24.671 1.145,24.676 1.051,24.676 1.23,24.676 1.68,24.676 0.804,24.671 1.235,24.676 3.746,24.676 0.859,24.676 1.254,24.674 1.328,24.67 3.075,24.68 1.613,24.68 0.023,24.67 0.117,24.68 0.34,24.67 0.727,24.67 0.855,24.68 0.434,24.68 0.832,24.67 0.797,24.67 0.465,24.68 1.183,24.68 0.766,24.67 0.668,24.68 0.726,24.67 0.286,24.67 0.367,24.68 2.582,24.68 0.375,24.67 0.742,24.67 0.59,24.68 0.308,24.68 0.153,24.67 0.125,24.68 0.269,24.67 0.969,24.67 0.988,24.68 1.188,24.68 1.508,24.67 1.183,24.67 0.457,24.68 0.262,24.68 2.027,24.67 2.055,24.68 0.195,24.67 0.215,24.67 0.57,24.68 3.317,24.68 2.437,24.67 0.254,24.67 1.492,24.68 2.133,24.68 2.047,24.67 0.996,24.68 1.36,24.67 3.171,24.67 8.954,24.68 2.125,24.68 2.398,24.67 1.754,24.67 0.465,24.68 0.07,24.68 6.539,24.67 3.793,24.68 3.113,24.67 2.043,24.67 4.68,24.68 5.164,24.68 2.723,24.67 3.113,24.67 4.801,24.68 15.082,24.68 6.961,24.67 2.601,24.68 4.95,24.67 25.418,24.67 20.363,24.68 0.801,24.68 0.625,24.67 12.507,24.67 11.125,24.68 15.532,24.68 15.804,24.67 4.176,24.68 16.906,24.67 196.055,24.67" /><path
         id="path836"
         style="fill:none;stroke:#00ff00;stroke-width:30;stroke-linecap:butt;stroke-linejoin:round;stroke-miterlimit:10;stroke-dasharray:none;stroke-opacity:1"
         d="m 528.18,482.176 0.816,24.676 0.324,24.671 1.352,24.676 1.332,24.676 3.449,24.676 1.555,24.676 1.254,24.671 3.898,24.676 2.356,24.676 2.894,24.676 2.504,24.676 0.527,24.671 1.012,24.676 6.637,24.676 4.476,24.676 2.786,24.676 0.382,24.671 0.547,24.676 3.016,24.676 1.609,24.676 0.625,24.674 1.828,24.67 1.973,24.68 1.418,24.68 1.266,24.67 1.425,24.68 0.7,24.67 1.148,24.67 1.723,24.68 1.011,24.68 0.668,24.67 0.653,24.67 2.312,24.68 0.524,24.68 0.48,24.67 1.32,24.68 0.735,24.67 0.058,24.67 1.118,24.68 4.464,24.68 0.465,24.67 1.633,24.67 0.945,24.68 1.09,24.68 2.332,24.67 0.629,24.68 0.039,24.67 0.832,24.67 1.282,24.68 0.097,24.68 1.004,24.67 0.633,24.67 0.922,24.68 1.07,24.68 0.055,24.67 0.246,24.68 0.519,24.67 2.375,24.67 3.571,24.68 3.203,24.68 2.219,24.67 7.441,24.67 2.551,24.68 2.504,24.68 2.062,24.67 5.356,24.68 3.422,24.67 0.539,24.67 2.339,24.68 4.071,24.68 6.09,24.67 3.168,24.67 0.433,24.68 3.735,24.68 3.082,24.67 1.261,24.68 3.231,24.67 0.453,24.67 1.91,24.68 6.887,24.68 3.457,24.67 11.73,24.67 9.36,24.68 10.05,24.68 20.446,24.67 5.617,24.68 13.437,24.67 6.145,24.67 0.539,24.68 13.277,24.68 41.204,24.67 24.148,24.67 6.926,24.68 11.902,24.68 6.172,24.67 18.187,24.68 41.977,24.67 282.255,24.67" /><path
         id="path838"
         style="fill:none;stroke:#7e2f8e;stroke-width:30;stroke-linecap:butt;stroke-linejoin:round;stroke-miterlimit:10;stroke-dasharray:none;stroke-opacity:1"
         d="m 529.551,482.176 1.695,24.676 0.563,24.671 0.73,24.676 2.66,24.676 3.145,24.676 4.109,24.676 2.805,24.671 5.48,24.676 2.176,24.676 2.348,24.676 1.058,24.676 7.149,24.671 9.554,24.676 3.336,24.676 1.614,24.676 1.027,24.676 2.609,24.671 2.446,24.676 2.289,24.676 1.98,24.676 1.227,24.674 0.504,24.67 0.711,24.68 2.078,24.68 1.351,24.67 0.922,24.68 2.289,24.67 1.516,24.67 0.703,24.68 0.203,24.68 v 24.67 l 2.055,24.67 0.605,24.68 0.938,24.68 0.961,24.67 2.035,24.68 0.844,24.67 1.988,24.67 0.918,24.68 2.734,24.68 3.36,24.67 1.082,24.67 1.273,24.68 1.621,24.68 0.317,24.67 0.668,24.68 3.523,24.67 0.293,24.67 0.988,24.68 0.653,24.68 0.64,24.67 1.356,24.67 1.605,24.68 0.676,24.68 2.078,24.67 1.363,24.68 0.864,24.67 0.597,24.67 1.375,24.68 11.188,24.68 4.344,24.67 4.921,24.67 2.137,24.68 0.188,24.68 0.726,24.67 5.559,24.68 1.109,24.67 5.789,24.67 7.547,24.68 4.492,24.68 3.801,24.67 4.254,24.67 2.648,24.68 0.957,24.68 0.536,24.67 2.121,24.68 1.914,24.67 8.097,24.67 8.235,24.68 7.961,24.68 1.535,24.67 2.558,24.67 5.602,24.68 15.121,24.68 11.496,24.67 15.235,24.68 10.5,24.67 5.105,24.67 5.934,24.68 30.351,24.68 45.946,24.67 35.445,24.67 1.305,24.68 22.019,24.68 5.469,24.67 7.07,24.68 38.633,24.67 331.474,24.67" /><path
         id="path840"
         style="fill:none;stroke:#00ffff;stroke-width:30;stroke-linecap:butt;stroke-linejoin:round;stroke-miterlimit:10;stroke-dasharray:none;stroke-opacity:1"
         d="m 531.203,482.176 0.973,24.676 3.445,24.671 0.531,24.676 3.18,24.676 2.617,24.676 5.266,24.676 4.816,24.671 2.848,24.676 1.305,24.676 2.992,24.676 2.933,24.676 11.813,24.671 11.777,24.676 0.606,24.676 1.066,24.676 3.703,24.676 2.012,24.671 2.445,24.676 2.25,24.676 4.793,24.676 0.531,24.674 1.036,24.67 1.535,24.68 0.273,24.68 1.973,24.67 0.476,24.68 0.946,24.67 1.207,24.67 0.371,24.68 0.043,24.68 0.996,24.67 1.18,24.67 0.961,24.68 2.886,24.68 1.274,24.67 1.156,24.68 1.32,24.67 1.836,24.67 0.348,24.68 1.387,24.68 2.105,24.67 1.996,24.67 3.856,24.68 4.246,24.68 1.086,24.67 0.246,24.68 0.25,24.67 1.5,24.67 2.519,24.68 3.774,24.68 2.269,24.67 0.367,24.67 0.235,24.68 0.262,24.68 1.644,24.67 3.516,24.68 3.519,24.67 4.602,24.67 1.125,24.68 0.578,24.68 7.082,24.67 2.176,24.67 1.027,24.68 2.527,24.68 5.903,24.67 2.105,24.68 2.086,24.67 3.27,24.67 7.433,24.68 3.098,24.68 4.125,24.67 3.449,24.67 5.738,24.68 2.071,24.68 5.918,24.67 4.445,24.68 10.703,24.67 4.086,24.67 6.039,24.68 4.297,24.68 16.336,24.67 3.504,24.67 3.859,24.68 15.422,24.68 8.57,24.67 2.184,24.68 7.191,24.67 8.454,24.67 20.671,24.68 43.575,24.68 37.183,24.67 42.535,24.67 3.293,24.68 8.098,24.68 5.918,24.67 14.566,24.68 34.989,24.67 351.15,24.67" /><path
         id="path842"
         style="fill:none;stroke:#0072bd;stroke-width:30;stroke-linecap:butt;stroke-linejoin:round;stroke-miterlimit:10;stroke-dasharray:none;stroke-opacity:1"
         d="m 535.051,482.176 4.078,24.676 1.742,24.671 2.106,24.676 4.195,24.676 0.867,24.676 6.391,24.676 8.453,24.671 3.336,24.676 1.066,24.676 2.121,24.676 5.52,24.676 6.57,24.671 12.063,24.676 6.718,24.676 7.157,24.676 3.523,24.676 5.234,24.671 2.641,24.676 1.898,24.676 1.793,24.676 1.161,24.674 0.707,24.67 0.203,24.68 0.269,24.68 1.621,24.67 0.637,24.68 2.406,24.67 1.524,24.67 0.39,24.68 0.352,24.68 0.727,24.67 1.441,24.67 3.613,24.68 0.285,24.68 1.426,24.67 1.793,24.68 1.11,24.67 3.773,24.67 5.086,24.68 0.262,24.68 1.55,24.67 2.039,24.67 1.434,24.68 1.172,24.68 2.023,24.67 0.645,24.68 1.867,24.67 1.418,24.67 4.477,24.68 2.312,24.68 0.32,24.67 0.211,24.67 1.387,24.68 2.027,24.68 5.438,24.67 9.441,24.68 1.485,24.67 0.277,24.67 0.219,24.68 4.027,24.68 2.43,24.67 6.879,24.67 3.664,24.68 4.398,24.68 8.332,24.67 4.028,24.68 1.703,24.67 5.816,24.67 5.305,24.68 4.066,24.68 3.375,24.67 0.68,24.67 1.41,24.68 3.082,24.68 7,24.67 9.391,24.68 5.734,24.67 3.445,24.67 10.438,24.68 7.344,24.68 6.261,24.67 25.282,24.67 6.015,24.68 6.668,24.68 10.457,24.67 3.403,24.68 31.336,24.67 11.683,24.67 37.36,24.68 18.066,24.68 31.766,24.67 40.405,24.67 7.15,24.68 2.66,24.68 20.27,24.67 12.63,24.68 52.84,24.67 378.87,24.67" /><path
         id="path844"
         style="fill:none;stroke:#ff00ff;stroke-width:30;stroke-linecap:butt;stroke-linejoin:round;stroke-miterlimit:10;stroke-dasharray:none;stroke-opacity:1"
         d="m 539.91,482.176 3.613,24.676 2.786,24.671 7.437,24.676 0.984,24.676 4.336,24.676 7.043,24.676 7.575,24.671 3.816,24.676 3.129,24.676 6.547,24.676 2.054,24.676 7.942,24.671 6.016,24.676 13.117,24.676 8.324,24.676 4.793,24.676 7.808,24.671 0.973,24.676 2.258,24.676 1.687,24.676 0.196,24.674 0.258,24.67 1.035,24.68 2.203,24.68 2.152,24.67 1.817,24.68 2.863,24.67 1.125,24.67 0.531,24.68 4.246,24.68 0.91,24.67 0.051,24.67 0.945,24.68 4.532,24.68 5.699,24.67 6.23,24.68 3.27,24.67 1.09,24.67 1.012,24.68 0.187,24.68 0.691,24.67 1.86,24.67 1.59,24.68 4.257,24.68 2.34,24.67 1.164,24.68 1.629,24.67 0.77,24.67 0.66,24.68 3.047,24.68 2.301,24.67 0.714,24.67 2.176,24.68 4.965,24.68 7.199,24.67 2.813,24.68 3.41,24.67 2.16,24.67 7.262,24.68 7.687,24.68 6.407,24.67 8.3,24.67 7.516,24.68 3.309,24.68 5.82,24.67 1.379,24.68 3.09,24.67 3.433,24.67 6.571,24.68 3.343,24.68 10.082,24.67 7.493,24.67 0.816,24.68 3.699,24.68 8.848,24.67 6.586,24.68 4.074,24.67 6.383,24.67 11.504,24.68 6,24.68 1.816,24.67 5.832,24.67 5.625,24.68 23.703,24.68 27.68,24.67 13.41,24.68 45.723,24.67 22.223,24.67 5.4,24.68 37.6,24.68 5.42,24.67 12.88,24.67 50.13,24.68 38.03,24.68 4.27,24.67 4.02,24.68 45.89,24.67 458.3,24.67" /><path
         id="path846"
         style="fill:none;stroke:#d95319;stroke-width:30;stroke-linecap:butt;stroke-linejoin:round;stroke-miterlimit:10;stroke-dasharray:none;stroke-opacity:1"
         d="m 541.582,482.176 6.113,24.676 1.868,24.671 8.363,24.676 15.922,24.676 8.691,24.676 2.313,24.676 0.839,24.671 0.856,24.676 3.469,24.676 2.101,24.676 9.196,24.676 4.23,24.671 6.383,24.676 11.543,24.676 18.523,24.676 5.485,24.676 0.785,24.671 3.922,24.676 0.179,24.676 0.571,24.676 1.39,24.674 1.77,24.67 1.394,24.68 0.442,24.68 2.363,24.67 5.383,24.68 7.726,24.67 5.047,24.67 1.508,24.68 0.871,24.68 0.375,24.67 0.043,24.67 1.207,24.68 5.328,24.68 4.793,24.67 1.977,24.68 1.105,24.67 0.711,24.67 0.887,24.68 5.848,24.68 4.14,24.67 4.274,24.67 0.39,24.68 1.207,24.68 3.52,24.67 1.574,24.68 1.824,24.67 3.672,24.67 0.235,24.68 4.523,24.68 8.375,24.67 2.918,24.67 1.652,24.68 1.875,24.68 5.399,24.67 1.238,24.68 0.301,24.67 2.195,24.67 1.75,24.68 11.016,24.68 14.851,24.67 8.285,24.67 3.047,24.68 1.231,24.68 6.59,24.67 10.695,24.68 3.945,24.67 6.629,24.67 1.891,24.68 2.054,24.68 9.176,24.67 14.383,24.67 3.996,24.68 0.348,24.68 9.711,24.67 3.629,24.68 3.121,24.67 16.285,24.67 15.156,24.68 7.492,24.68 23.512,24.67 3.637,24.67 13.672,24.68 5.222,24.68 4.625,24.67 24.325,24.68 43.452,24.67 12.75,24.67 11.41,24.68 33.61,24.68 24.45,24.67 34.69,24.67 21.75,24.68 2.06,24.68 7.85,24.67 52.5,24.68 69.97,24.67 545.63,24.67" /><path
         id="path848"
         style="fill:none;stroke:#edb120;stroke-width:30;stroke-linecap:butt;stroke-linejoin:bevel;stroke-miterlimit:10;stroke-dasharray:30, 30;stroke-dashoffset:0;stroke-opacity:1"
         d="m 525,482.176 v 74.023 l 0.031,24.676 0.149,24.676 0.129,24.676 0.23,24.671 0.16,24.676 0.141,24.676 0.058,24.676 0.079,24.676 0.207,24.671 0.097,24.676 0.024,24.676 0.023,24.676 0.149,24.676 1.082,24.671 0.05,24.676 0.243,24.676 0.156,24.676 0.246,24.674 0.168,24.67 0.035,24.68 0.234,24.68 0.141,24.67 0.129,24.68 0.293,24.67 0.027,24.67 0.016,24.68 0.961,24.68 0.23,24.67 0.032,24.67 v 24.68 l 0.046,24.68 0.09,24.67 0.043,24.68 0.055,24.67 0.105,24.67 0.825,24.68 0.156,24.68 0.336,24.67 0.211,24.67 0.129,24.68 0.605,24.68 0.555,24.67 0.16,24.68 0.367,24.67 0.496,24.67 0.336,24.68 0.238,24.68 0.633,24.67 0.285,24.67 0.321,24.68 0.347,24.68 0.297,24.67 0.317,24.68 0.277,24.67 0.555,24.67 0.375,24.68 0.082,24.68 0.945,24.67 1.344,24.67 0.98,24.68 0.571,24.68 0.953,24.67 0.562,24.68 0.699,24.67 1.125,24.67 1.411,24.68 1.402,24.68 1.176,24.67 0.539,24.67 0.699,24.68 0.793,24.68 0.945,24.67 3.383,24.68 0.945,24.67 0.047,24.67 1.102,24.68 1.859,24.68 3.137,24.67 0.223,24.67 1.261,24.68 2.375,24.68 2.809,24.67 1.762,24.68 0.613,24.67 12.945,24.67 3.203,24.68 1.641,24.68 8.746,24.67 12.879,24.67 5.828,24.68 5.332,24.68 10.109,24.67 37.208,24.68 4.648,24.67 51.445,24.67" /><path
         id="path850"
         style="fill:none;stroke:#00ff00;stroke-width:30;stroke-linecap:butt;stroke-linejoin:bevel;stroke-miterlimit:10;stroke-dasharray:30, 30;stroke-dashoffset:0;stroke-opacity:1"
         d="m 525.406,482.176 0.207,24.676 0.766,24.671 1.027,24.676 2.207,24.676 1.746,24.676 0.114,24.676 1.261,24.671 0.754,24.676 0.707,24.676 1.078,24.676 2.508,24.676 3.035,24.671 1.133,24.676 0.496,24.676 2.871,24.676 1.067,24.676 0.683,24.671 0.606,24.676 0.894,24.676 0.5,24.676 0.309,24.674 1.973,24.67 0.847,24.68 0.789,24.68 0.793,24.67 0.344,24.68 0.676,24.67 0.902,24.67 0.621,24.68 0.782,24.68 0.382,24.67 0.582,24.67 0.895,24.68 0.777,24.68 0.938,24.67 0.75,24.68 1.285,24.67 1.035,24.67 1.141,24.68 0.941,24.68 0.34,24.67 0.727,24.67 0.398,24.68 0.141,24.68 0.773,24.67 0.621,24.68 2.438,24.67 0.879,24.67 0.382,24.68 0.375,24.68 2.543,24.67 0.743,24.67 1.171,24.68 0.957,24.68 1.965,24.67 1.067,24.68 0.652,24.67 1.246,24.67 0.563,24.68 0.367,24.68 0.113,24.67 0.824,24.67 1.91,24.68 2.739,24.68 2.289,24.67 0.758,24.68 4.312,24.67 2.555,24.67 1.293,24.68 1.078,24.68 1.914,24.67 2.445,24.67 3.766,24.68 4.453,24.68 0.391,24.67 0.66,24.68 2.406,24.67 1.27,24.67 2.007,24.68 5.215,24.68 10.223,24.67 2.152,24.67 5.36,24.68 1.757,24.68 3.653,24.67 6.492,24.68 21.715,24.67 10.133,24.67 1.918,24.68 18.234,24.68 10.199,24.67 5.953,24.67 5.364,24.68 5.289,24.68 8.535,24.67 63.816,24.68 16.996,24.67 166.801,24.67" /><path
         id="path852"
         style="fill:none;stroke:#7e2f8e;stroke-width:30;stroke-linecap:butt;stroke-linejoin:bevel;stroke-miterlimit:10;stroke-dasharray:30, 30;stroke-dashoffset:0;stroke-opacity:1"
         d="m 526.785,482.176 1.074,24.676 0.637,24.671 2.602,24.676 2.851,24.676 5.61,24.676 2.902,24.676 1.867,24.671 0.953,24.676 0.395,24.676 2.965,24.676 7.117,24.676 1.859,24.671 4.387,24.676 1.629,24.676 1.726,24.676 3.86,24.676 3.285,24.671 2.379,24.676 1.351,24.676 2.34,24.676 0.949,24.674 0.454,24.67 0.117,24.68 2.011,24.68 0.653,24.67 1.215,24.68 1.41,24.67 0.441,24.67 1.465,24.68 1.527,24.68 0.375,24.67 1.028,24.67 1.336,24.68 1.379,24.68 0.894,24.67 0.133,24.68 0.168,24.67 0.859,24.67 0.121,24.68 1.645,24.68 3.949,24.67 2.469,24.67 1.898,24.68 0.84,24.68 0.645,24.67 1.215,24.68 0.152,24.67 0.98,24.67 0.969,24.68 1.641,24.68 1.125,24.67 0.195,24.67 0.922,24.68 1.516,24.68 1.132,24.67 1.207,24.68 1.411,24.67 5.746,24.67 3.043,24.68 0.601,24.68 0.309,24.67 1.215,24.67 1.222,24.68 2.407,24.68 5.062,24.67 7.223,24.68 1.328,24.67 0.613,24.67 3.039,24.68 8.504,24.68 2.316,24.67 0.571,24.67 0.855,24.68 4.86,24.68 4.703,24.67 3.136,24.68 2.872,24.67 3.121,24.67 1.535,24.68 2.566,24.68 2.207,24.67 3.285,24.67 15.645,24.68 4.133,24.68 8.84,24.67 15.261,24.68 36.887,24.67 8.836,24.67 12.547,24.68 0.961,24.68 1.41,24.67 6.269,24.67 11.399,24.68 30.277,24.68 41.317,24.67 25.406,24.68 29.937,24.67 244.536,24.67" /><path
         id="path854"
         style="fill:none;stroke:#00ffff;stroke-width:30;stroke-linecap:butt;stroke-linejoin:bevel;stroke-miterlimit:10;stroke-dasharray:30, 30;stroke-dashoffset:0;stroke-opacity:1"
         d="m 528.816,482.176 1.606,24.676 1.051,24.671 3.382,24.676 3.223,24.676 9.168,24.676 6.149,24.676 3.113,24.671 1.949,24.676 2.063,24.676 1.214,24.676 7.973,24.676 9.66,24.671 1.117,24.676 3.332,24.676 5.34,24.676 2.528,24.676 2.097,24.671 1.711,24.676 7.164,24.676 1.215,24.676 1.762,24.674 0.48,24.67 0.231,24.68 1.621,24.68 1.058,24.67 1.934,24.68 1.762,24.67 2.25,24.67 0.301,24.68 1.476,24.68 1.067,24.67 2.64,24.67 0.391,24.68 1.597,24.68 2.825,24.67 2.058,24.68 0.262,24.67 0.156,24.67 0.879,24.68 2.723,24.68 0.777,24.67 0.676,24.67 2.504,24.68 1.195,24.68 0.906,24.67 0.719,24.68 1.141,24.67 0.797,24.67 2.543,24.68 2.07,24.68 0.402,24.67 2.387,24.67 2.398,24.68 3.743,24.68 5.738,24.67 0.887,24.68 1.421,24.67 0.872,24.67 7.32,24.68 1.387,24.68 3.203,24.67 0.976,24.67 2.332,24.68 3.809,24.68 1.547,24.67 2.578,24.68 4.508,24.67 9.66,24.67 2.797,24.68 0.449,24.68 2.055,24.67 8.222,24.67 3.313,24.68 0.48,24.68 1.922,24.67 0.742,24.68 1.379,24.67 2.879,24.67 3.504,24.68 3.285,24.68 5.176,24.67 16.523,24.67 10.575,24.68 12.246,24.68 4.851,24.67 28.27,24.68 25.344,24.67 4.843,24.67 16.164,24.68 19.7,24.68 15.984,24.67 7.492,24.67 5.145,24.68 46.761,24.68 29.313,24.67 41.686,24.68 6.27,24.67 320.02,24.67" /><path
         id="path856"
         style="fill:none;stroke:#0072bd;stroke-width:30;stroke-linecap:butt;stroke-linejoin:bevel;stroke-miterlimit:10;stroke-dasharray:30, 30;stroke-dashoffset:0;stroke-opacity:1"
         d="m 535.363,482.176 0.7,24.676 3.89,24.671 3.668,24.676 5.664,24.676 14.031,24.676 12.258,24.676 9.172,24.671 2.317,24.676 2.039,24.676 1.382,24.676 9.68,24.676 11.324,24.671 11.266,24.676 6.781,24.676 3.195,24.676 2.586,24.676 2.868,24.671 3.269,24.676 6.141,24.676 0.039,24.676 5.078,24.674 7.133,24.67 1.355,24.68 0.352,24.68 1.863,24.67 1.137,24.68 0.187,24.67 2.543,24.67 3.504,24.68 1.719,24.68 0.23,24.67 1.215,24.67 6.293,24.68 0.137,24.68 2.543,24.67 2.863,24.68 1.543,24.67 1.141,24.67 1.351,24.68 0.914,24.68 2.176,24.67 0.735,24.67 1.05,24.68 0.434,24.68 1.949,24.67 3.031,24.68 4.563,24.67 2.113,24.67 0.856,24.68 1.23,24.68 3.875,24.67 10.016,24.67 5.136,24.68 11.676,24.68 1.922,24.67 3.051,24.68 6,24.67 3.441,24.67 0.625,24.68 4.453,24.68 1.344,24.67 1.582,24.67 2.168,24.68 0.188,24.68 0.808,24.67 0.356,24.68 2.765,24.67 5.039,24.67 1.387,24.68 12.414,24.68 14.227,24.67 3.047,24.67 4.343,24.68 3.825,24.68 2.168,24.67 3.839,24.68 5.676,24.67 9.172,24.67 4.703,24.68 0.75,24.68 11.199,24.67 16.918,24.67 10.125,24.68 13.567,24.68 17.035,24.67 22.898,24.68 18.043,24.67 7.508,24.67 22.086,24.68 16.981,24.68 53.763,24.67 22.15,24.67 4.63,24.68 32.98,24.68 49.11,24.67 32.02,24.68 51.26,24.67 399.73,24.67" /><path
         id="path858"
         style="fill:none;stroke:#ff00ff;stroke-width:30;stroke-linecap:butt;stroke-linejoin:bevel;stroke-miterlimit:10;stroke-dasharray:30, 30;stroke-dashoffset:0;stroke-opacity:1"
         d="m 548.191,482.176 3,24.676 3.719,24.671 6.129,24.676 9.09,24.676 16.453,24.676 20.316,24.676 15.543,24.671 1.852,24.676 12.27,24.676 6.089,24.676 9.336,24.676 13.508,24.671 11.438,24.676 2.89,24.676 11.676,24.676 9.629,24.676 5.535,24.671 0.113,24.676 1.727,24.676 5.894,24.676 3.622,24.674 1.746,24.67 2.91,24.68 12.512,24.68 6.726,24.67 4.801,24.68 1.816,24.67 2.52,24.67 1.41,24.68 3.238,24.68 0.594,24.67 2.602,24.67 6.562,24.68 2.738,24.68 2.391,24.67 2.371,24.68 2.242,24.67 1.59,24.67 1.672,24.68 4.801,24.68 4.215,24.67 3.796,24.67 2.668,24.68 5.7,24.68 4.711,24.67 4.23,24.68 4.336,24.67 3.691,24.67 5.25,24.68 1.918,24.68 2.512,24.67 4.793,24.67 5.395,24.68 0.8,24.68 5.961,24.67 8.274,24.68 3.218,24.67 4.336,24.67 15.223,24.68 2.438,24.68 12.644,24.67 0.473,24.67 1.711,24.68 2.722,24.68 5.024,24.67 1.75,24.68 0.262,24.67 7.906,24.67 4.558,24.68 6.391,24.68 10.949,24.67 8.309,24.67 16.301,24.68 3.644,24.68 5.25,24.67 10.484,24.68 5.024,24.67 6.137,24.67 3.906,24.68 3.113,24.68 5.301,24.67 42.004,24.67 12.56,24.68 13.46,24.68 10.25,24.67 9.84,24.68 37.5,24.67 10.85,24.67 14.36,24.68 50.61,24.68 75.17,24.67 56.17,24.67 11.74,24.68 2.74,24.68 50.58,24.67 61.54,24.68 92.04,24.67 604.64,24.67" /><path
         id="path860"
         style="fill:none;stroke:#d95319;stroke-width:30;stroke-linecap:butt;stroke-linejoin:bevel;stroke-miterlimit:10;stroke-dasharray:30, 30;stroke-dashoffset:0;stroke-opacity:1"
         d="m 560.309,482.176 4.492,24.676 11.14,24.671 3.532,24.676 3.886,24.676 17.797,24.676 30.028,24.676 23.519,24.671 0.969,24.676 15.082,24.676 10.449,24.676 14.25,24.676 14.848,24.671 6.113,24.676 9.832,24.676 10.27,24.676 3.156,24.676 0.473,24.671 14.281,24.676 3.308,24.676 3.434,24.676 1.629,24.674 0.898,24.67 1.539,24.68 16.7,24.68 7.757,24.67 3.395,24.68 11.98,24.67 10.215,24.67 5.278,24.68 4.125,24.68 2.004,24.67 8.113,24.67 4,24.68 1.859,24.68 1.449,24.67 2.668,24.68 1.231,24.67 12.082,24.67 1.109,24.68 2.297,24.68 0.996,24.67 5.086,24.67 5.188,24.68 1.406,24.68 0.98,24.67 6.465,24.68 2.551,24.67 3.586,24.67 2.832,24.68 2.82,24.68 3.391,24.67 6.644,24.67 3.356,24.68 13.348,24.68 9.539,24.67 10.711,24.68 4.71,24.67 2.473,24.67 4.524,24.68 21.16,24.68 10.957,24.67 5.797,24.67 3.937,24.68 9.047,24.68 7.34,24.67 1.7,24.68 5.43,24.67 5.78,24.67 6.32,24.68 5.36,24.68 2.78,24.67 24.97,24.67 12.8,24.68 1.46,24.68 6.8,24.67 1.96,24.68 10.02,24.67 11.45,24.67 2.96,24.68 0.43,24.68 30.88,24.67 6.94,24.67 24.01,24.68 20.84,24.68 9.24,24.67 1.75,24.68 7.11,24.67 51.24,24.67 14.38,24.68 87.68,24.68 72.04,24.67 72.56,24.67 39.14,24.68 16.51,24.68 22.43,24.67 49.49,24.68 90.52,24.67 818.81,24.67" /></g></g></svg>
