<?xml version="1.0" encoding="UTF-8" standalone="no"?>
<svg
   xmlns:dc="http://purl.org/dc/elements/1.1/"
   xmlns:cc="http://creativecommons.org/ns#"
   xmlns:rdf="http://www.w3.org/1999/02/22-rdf-syntax-ns#"
   xmlns:svg="http://www.w3.org/2000/svg"
   xmlns="http://www.w3.org/2000/svg"
   xmlns:sodipodi="http://sodipodi.sourceforge.net/DTD/sodipodi-0.dtd"
   xmlns:inkscape="http://www.inkscape.org/namespaces/inkscape"
   inkscape:version="1.0 (4035a4fb49, 2020-05-01)"
   sodipodi:docname="RainFR_RainExtr_EFFCI06_Sierra.svg"
   viewBox="0 0 524 398.66666"
   height="398.66666"
   width="524"
   xml:space="preserve"
   id="svg1702"
   version="1.1"><metadata
     id="metadata1708"><rdf:RDF><cc:Work
         rdf:about=""><dc:format>image/svg+xml</dc:format><dc:type
           rdf:resource="http://purl.org/dc/dcmitype/StillImage" /><dc:title></dc:title></cc:Work></rdf:RDF></metadata><defs
     id="defs1706" /><sodipodi:namedview
     inkscape:current-layer="g1710"
     inkscape:window-maximized="0"
     inkscape:window-y="0"
     inkscape:window-x="0"
     inkscape:cy="199.33333"
     inkscape:cx="262"
     inkscape:zoom="1.8436455"
     showgrid="false"
     id="namedview1704"
     inkscape:window-height="510"
     inkscape:window-width="766"
     inkscape:pageshadow="2"
     inkscape:pageopacity="0"
     guidetolerance="10"
     gridtolerance="10"
     objecttolerance="10"
     borderopacity="1"
     bordercolor="#666666"
     pagecolor="#ffffff" /><g
     transform="matrix(1.3333333,0,0,-1.3333333,0,398.66667)"
     inkscape:label="ink_ext_XXXXXX"
     inkscape:groupmode="layer"
     id="g1710"><g
       transform="scale(0.1)"
       id="g1712"><path
         id="path1714"
         style="fill:#ffffff;fill-opacity:1;fill-rule:nonzero;stroke:none"
         d="M -30,0 H 4200 V 3165 H -30 Z" /><path
         id="path1716"
         style="fill:#ffffff;fill-opacity:1;fill-rule:nonzero;stroke:none"
         d="M -30,0 H 4200 V 3165 H -30 Z" /><path
         id="path1718"
         style="fill:#ffffff;fill-opacity:1;fill-rule:nonzero;stroke:none"
         d="M 525,457.5 H 3795 V 2925 H 525 Z" /><path
         id="path1720"
         style="fill:none;stroke:#929292;stroke-width:5.0025;stroke-linecap:butt;stroke-linejoin:round;stroke-miterlimit:10;stroke-dasharray:none;stroke-opacity:1"
         d="M 525,457.5 V 2925" /><path
         id="path1722"
         style="fill:none;stroke:#929292;stroke-width:5.0025;stroke-linecap:butt;stroke-linejoin:round;stroke-miterlimit:10;stroke-dasharray:none;stroke-opacity:1"
         d="M 992.145,457.5 V 2925" /><path
         id="path1724"
         style="fill:none;stroke:#929292;stroke-width:5.0025;stroke-linecap:butt;stroke-linejoin:round;stroke-miterlimit:10;stroke-dasharray:none;stroke-opacity:1"
         d="M 1459.28,457.5 V 2925" /><path
         id="path1726"
         style="fill:none;stroke:#929292;stroke-width:5.0025;stroke-linecap:butt;stroke-linejoin:round;stroke-miterlimit:10;stroke-dasharray:none;stroke-opacity:1"
         d="M 1926.43,457.5 V 2925" /><path
         id="path1728"
         style="fill:none;stroke:#929292;stroke-width:5.0025;stroke-linecap:butt;stroke-linejoin:round;stroke-miterlimit:10;stroke-dasharray:none;stroke-opacity:1"
         d="M 2393.57,457.5 V 2925" /><path
         id="path1730"
         style="fill:none;stroke:#929292;stroke-width:5.0025;stroke-linecap:butt;stroke-linejoin:round;stroke-miterlimit:10;stroke-dasharray:none;stroke-opacity:1"
         d="M 2860.72,457.5 V 2925" /><path
         id="path1732"
         style="fill:none;stroke:#929292;stroke-width:5.0025;stroke-linecap:butt;stroke-linejoin:round;stroke-miterlimit:10;stroke-dasharray:none;stroke-opacity:1"
         d="M 3327.86,457.5 V 2925" /><path
         id="path1734"
         style="fill:none;stroke:#929292;stroke-width:5.0025;stroke-linecap:butt;stroke-linejoin:round;stroke-miterlimit:10;stroke-dasharray:none;stroke-opacity:1"
         d="M 3795,457.5 V 2925" /><path
         id="path1736"
         style="fill:none;stroke:#929292;stroke-width:5.0025;stroke-linecap:butt;stroke-linejoin:round;stroke-miterlimit:10;stroke-dasharray:none;stroke-opacity:1"
         d="M 3795,457.5 H 525" /><path
         id="path1738"
         style="fill:none;stroke:#929292;stroke-width:5.0025;stroke-linecap:butt;stroke-linejoin:round;stroke-miterlimit:10;stroke-dasharray:none;stroke-opacity:1"
         d="M 3795,580.875 H 525" /><path
         id="path1740"
         style="fill:none;stroke:#929292;stroke-width:5.0025;stroke-linecap:butt;stroke-linejoin:round;stroke-miterlimit:10;stroke-dasharray:none;stroke-opacity:1"
         d="M 3795,704.25 H 525" /><path
         id="path1742"
         style="fill:none;stroke:#929292;stroke-width:5.0025;stroke-linecap:butt;stroke-linejoin:round;stroke-miterlimit:10;stroke-dasharray:none;stroke-opacity:1"
         d="M 3795,827.625 H 525" /><path
         id="path1744"
         style="fill:none;stroke:#929292;stroke-width:5.0025;stroke-linecap:butt;stroke-linejoin:round;stroke-miterlimit:10;stroke-dasharray:none;stroke-opacity:1"
         d="M 3795,951 H 525" /><path
         id="path1746"
         style="fill:none;stroke:#929292;stroke-width:5.0025;stroke-linecap:butt;stroke-linejoin:round;stroke-miterlimit:10;stroke-dasharray:none;stroke-opacity:1"
         d="M 3795,1074.38 H 525" /><path
         id="path1748"
         style="fill:none;stroke:#929292;stroke-width:5.0025;stroke-linecap:butt;stroke-linejoin:round;stroke-miterlimit:10;stroke-dasharray:none;stroke-opacity:1"
         d="M 3795,1197.75 H 525" /><path
         id="path1750"
         style="fill:none;stroke:#929292;stroke-width:5.0025;stroke-linecap:butt;stroke-linejoin:round;stroke-miterlimit:10;stroke-dasharray:none;stroke-opacity:1"
         d="M 3795,1321.13 H 525" /><path
         id="path1752"
         style="fill:none;stroke:#929292;stroke-width:5.0025;stroke-linecap:butt;stroke-linejoin:round;stroke-miterlimit:10;stroke-dasharray:none;stroke-opacity:1"
         d="M 3795,1444.5 H 525" /><path
         id="path1754"
         style="fill:none;stroke:#929292;stroke-width:5.0025;stroke-linecap:butt;stroke-linejoin:round;stroke-miterlimit:10;stroke-dasharray:none;stroke-opacity:1"
         d="M 3795,1567.88 H 525" /><path
         id="path1756"
         style="fill:none;stroke:#929292;stroke-width:5.0025;stroke-linecap:butt;stroke-linejoin:round;stroke-miterlimit:10;stroke-dasharray:none;stroke-opacity:1"
         d="M 3795,1691.25 H 525" /><path
         id="path1758"
         style="fill:none;stroke:#929292;stroke-width:5.0025;stroke-linecap:butt;stroke-linejoin:round;stroke-miterlimit:10;stroke-dasharray:none;stroke-opacity:1"
         d="M 3795,1814.63 H 525" /><path
         id="path1760"
         style="fill:none;stroke:#929292;stroke-width:5.0025;stroke-linecap:butt;stroke-linejoin:round;stroke-miterlimit:10;stroke-dasharray:none;stroke-opacity:1"
         d="M 3795,1938 H 525" /><path
         id="path1762"
         style="fill:none;stroke:#929292;stroke-width:5.0025;stroke-linecap:butt;stroke-linejoin:round;stroke-miterlimit:10;stroke-dasharray:none;stroke-opacity:1"
         d="M 3795,2061.38 H 525" /><path
         id="path1764"
         style="fill:none;stroke:#929292;stroke-width:5.0025;stroke-linecap:butt;stroke-linejoin:round;stroke-miterlimit:10;stroke-dasharray:none;stroke-opacity:1"
         d="M 3795,2184.75 H 525" /><path
         id="path1766"
         style="fill:none;stroke:#929292;stroke-width:5.0025;stroke-linecap:butt;stroke-linejoin:round;stroke-miterlimit:10;stroke-dasharray:none;stroke-opacity:1"
         d="M 3795,2308.13 H 525" /><path
         id="path1768"
         style="fill:none;stroke:#929292;stroke-width:5.0025;stroke-linecap:butt;stroke-linejoin:round;stroke-miterlimit:10;stroke-dasharray:none;stroke-opacity:1"
         d="M 3795,2431.5 H 525" /><path
         id="path1770"
         style="fill:none;stroke:#929292;stroke-width:5.0025;stroke-linecap:butt;stroke-linejoin:round;stroke-miterlimit:10;stroke-dasharray:none;stroke-opacity:1"
         d="M 3795,2554.88 H 525" /><path
         id="path1772"
         style="fill:none;stroke:#929292;stroke-width:5.0025;stroke-linecap:butt;stroke-linejoin:round;stroke-miterlimit:10;stroke-dasharray:none;stroke-opacity:1"
         d="M 3795,2678.25 H 525" /><path
         id="path1774"
         style="fill:none;stroke:#929292;stroke-width:5.0025;stroke-linecap:butt;stroke-linejoin:round;stroke-miterlimit:10;stroke-dasharray:none;stroke-opacity:1"
         d="M 3795,2801.63 H 525" /><path
         id="path1776"
         style="fill:none;stroke:#929292;stroke-width:5.0025;stroke-linecap:butt;stroke-linejoin:round;stroke-miterlimit:10;stroke-dasharray:none;stroke-opacity:1"
         d="M 3795,2925 H 525" /><path
         id="path1778"
         style="fill:none;stroke:#262626;stroke-width:5.0025;stroke-linecap:square;stroke-linejoin:round;stroke-miterlimit:10;stroke-dasharray:none;stroke-opacity:1"
         d="M 525,457.5 H 3795" /><path
         id="path1780"
         style="fill:none;stroke:#262626;stroke-width:5.0025;stroke-linecap:square;stroke-linejoin:round;stroke-miterlimit:10;stroke-dasharray:none;stroke-opacity:1"
         d="M 525,2925 H 3795" /><path
         id="path1782"
         style="fill:none;stroke:#262626;stroke-width:5.0025;stroke-linecap:square;stroke-linejoin:round;stroke-miterlimit:10;stroke-dasharray:none;stroke-opacity:1"
         d="m 525,457.5 v 32.699" /><path
         id="path1784"
         style="fill:none;stroke:#262626;stroke-width:5.0025;stroke-linecap:square;stroke-linejoin:round;stroke-miterlimit:10;stroke-dasharray:none;stroke-opacity:1"
         d="m 992.145,457.5 v 32.699" /><path
         id="path1786"
         style="fill:none;stroke:#262626;stroke-width:5.0025;stroke-linecap:square;stroke-linejoin:round;stroke-miterlimit:10;stroke-dasharray:none;stroke-opacity:1"
         d="m 1459.28,457.5 v 32.699" /><path
         id="path1788"
         style="fill:none;stroke:#262626;stroke-width:5.0025;stroke-linecap:square;stroke-linejoin:round;stroke-miterlimit:10;stroke-dasharray:none;stroke-opacity:1"
         d="m 1926.43,457.5 v 32.699" /><path
         id="path1790"
         style="fill:none;stroke:#262626;stroke-width:5.0025;stroke-linecap:square;stroke-linejoin:round;stroke-miterlimit:10;stroke-dasharray:none;stroke-opacity:1"
         d="m 2393.57,457.5 v 32.699" /><path
         id="path1792"
         style="fill:none;stroke:#262626;stroke-width:5.0025;stroke-linecap:square;stroke-linejoin:round;stroke-miterlimit:10;stroke-dasharray:none;stroke-opacity:1"
         d="m 2860.72,457.5 v 32.699" /><path
         id="path1794"
         style="fill:none;stroke:#262626;stroke-width:5.0025;stroke-linecap:square;stroke-linejoin:round;stroke-miterlimit:10;stroke-dasharray:none;stroke-opacity:1"
         d="m 3327.86,457.5 v 32.699" /><path
         id="path1796"
         style="fill:none;stroke:#262626;stroke-width:5.0025;stroke-linecap:square;stroke-linejoin:round;stroke-miterlimit:10;stroke-dasharray:none;stroke-opacity:1"
         d="m 3795,457.5 v 32.699" /><path
         id="path1798"
         style="fill:none;stroke:#262626;stroke-width:5.0025;stroke-linecap:square;stroke-linejoin:round;stroke-miterlimit:10;stroke-dasharray:none;stroke-opacity:1"
         d="m 525,2925 v -32.7" /><path
         id="path1800"
         style="fill:none;stroke:#262626;stroke-width:5.0025;stroke-linecap:square;stroke-linejoin:round;stroke-miterlimit:10;stroke-dasharray:none;stroke-opacity:1"
         d="m 992.145,2925 v -32.7" /><path
         id="path1802"
         style="fill:none;stroke:#262626;stroke-width:5.0025;stroke-linecap:square;stroke-linejoin:round;stroke-miterlimit:10;stroke-dasharray:none;stroke-opacity:1"
         d="m 1459.28,2925 v -32.7" /><path
         id="path1804"
         style="fill:none;stroke:#262626;stroke-width:5.0025;stroke-linecap:square;stroke-linejoin:round;stroke-miterlimit:10;stroke-dasharray:none;stroke-opacity:1"
         d="m 1926.43,2925 v -32.7" /><path
         id="path1806"
         style="fill:none;stroke:#262626;stroke-width:5.0025;stroke-linecap:square;stroke-linejoin:round;stroke-miterlimit:10;stroke-dasharray:none;stroke-opacity:1"
         d="m 2393.57,2925 v -32.7" /><path
         id="path1808"
         style="fill:none;stroke:#262626;stroke-width:5.0025;stroke-linecap:square;stroke-linejoin:round;stroke-miterlimit:10;stroke-dasharray:none;stroke-opacity:1"
         d="m 2860.72,2925 v -32.7" /><path
         id="path1810"
         style="fill:none;stroke:#262626;stroke-width:5.0025;stroke-linecap:square;stroke-linejoin:round;stroke-miterlimit:10;stroke-dasharray:none;stroke-opacity:1"
         d="m 3327.86,2925 v -32.7" /><path
         id="path1812"
         style="fill:none;stroke:#262626;stroke-width:5.0025;stroke-linecap:square;stroke-linejoin:round;stroke-miterlimit:10;stroke-dasharray:none;stroke-opacity:1"
         d="m 3795,2925 v -32.7" /><g
         transform="scale(10)"
         id="g1814"><text
           id="text1818"
           style="font-variant:normal;font-weight:normal;font-size:15.9998px;font-family:Helvetica;-inkscape-font-specification:Helvetica;writing-mode:lr-tb;fill:#262626;fill-opacity:1;fill-rule:nonzero;stroke:none"
           transform="matrix(1,0,0,-1,48,25.55)"><tspan
             id="tspan1816"
             sodipodi:role="line"
             y="0"
             x="0 42.214512 51.110401 84.428703 93.324593 102.22048 131.14333 140.03922 148.9351 177.85762 186.75351 195.6494 224.57224 233.46812 242.36401 271.28653 280.1824 289.07831 318.00116 326.89703 335.79291">050100150200250300350</tspan></text><text
           id="text1822"
           style="font-variant:normal;font-weight:normal;font-size:17.6002px;font-family:Helvetica;-inkscape-font-specification:Helvetica;writing-mode:lr-tb;fill:#262626;fill-opacity:1;fill-rule:nonzero;stroke:none"
           transform="matrix(1,0,0,-1,119.625,3.55)"><tspan
             id="tspan1820"
             sodipodi:role="line"
             y="0"
             x="0 12.707344 22.493055 26.400299 36.186012 41.078865 50.864578 54.771824 58.679066 63.571922 72.372025 82.15773 86.06498 95.850693 105.6364 114.4365 119.32935 124.22221 138.88318 153.54414 158.437 168.22272 178.00842 187.79413">Rainfall values [mm/12h]</tspan></text></g><path
         id="path1824"
         style="fill:none;stroke:#262626;stroke-width:5.0025;stroke-linecap:square;stroke-linejoin:round;stroke-miterlimit:10;stroke-dasharray:none;stroke-opacity:1"
         d="M 525,457.5 V 2925" /><path
         id="path1826"
         style="fill:none;stroke:#262626;stroke-width:5.0025;stroke-linecap:square;stroke-linejoin:round;stroke-miterlimit:10;stroke-dasharray:none;stroke-opacity:1"
         d="M 3795,457.5 V 2925" /><path
         id="path1828"
         style="fill:none;stroke:#262626;stroke-width:5.0025;stroke-linecap:square;stroke-linejoin:round;stroke-miterlimit:10;stroke-dasharray:none;stroke-opacity:1"
         d="m 525,457.5 h 32.699" /><path
         id="path1830"
         style="fill:none;stroke:#262626;stroke-width:5.0025;stroke-linecap:square;stroke-linejoin:round;stroke-miterlimit:10;stroke-dasharray:none;stroke-opacity:1"
         d="m 525,580.875 h 32.699" /><path
         id="path1832"
         style="fill:none;stroke:#262626;stroke-width:5.0025;stroke-linecap:square;stroke-linejoin:round;stroke-miterlimit:10;stroke-dasharray:none;stroke-opacity:1"
         d="m 525,704.25 h 32.699" /><path
         id="path1834"
         style="fill:none;stroke:#262626;stroke-width:5.0025;stroke-linecap:square;stroke-linejoin:round;stroke-miterlimit:10;stroke-dasharray:none;stroke-opacity:1"
         d="m 525,827.625 h 32.699" /><path
         id="path1836"
         style="fill:none;stroke:#262626;stroke-width:5.0025;stroke-linecap:square;stroke-linejoin:round;stroke-miterlimit:10;stroke-dasharray:none;stroke-opacity:1"
         d="m 525,951 h 32.699" /><path
         id="path1838"
         style="fill:none;stroke:#262626;stroke-width:5.0025;stroke-linecap:square;stroke-linejoin:round;stroke-miterlimit:10;stroke-dasharray:none;stroke-opacity:1"
         d="m 525,1074.38 h 32.699" /><path
         id="path1840"
         style="fill:none;stroke:#262626;stroke-width:5.0025;stroke-linecap:square;stroke-linejoin:round;stroke-miterlimit:10;stroke-dasharray:none;stroke-opacity:1"
         d="m 525,1197.75 h 32.699" /><path
         id="path1842"
         style="fill:none;stroke:#262626;stroke-width:5.0025;stroke-linecap:square;stroke-linejoin:round;stroke-miterlimit:10;stroke-dasharray:none;stroke-opacity:1"
         d="m 525,1321.13 h 32.699" /><path
         id="path1844"
         style="fill:none;stroke:#262626;stroke-width:5.0025;stroke-linecap:square;stroke-linejoin:round;stroke-miterlimit:10;stroke-dasharray:none;stroke-opacity:1"
         d="m 525,1444.5 h 32.699" /><path
         id="path1846"
         style="fill:none;stroke:#262626;stroke-width:5.0025;stroke-linecap:square;stroke-linejoin:round;stroke-miterlimit:10;stroke-dasharray:none;stroke-opacity:1"
         d="m 525,1567.88 h 32.699" /><path
         id="path1848"
         style="fill:none;stroke:#262626;stroke-width:5.0025;stroke-linecap:square;stroke-linejoin:round;stroke-miterlimit:10;stroke-dasharray:none;stroke-opacity:1"
         d="m 525,1691.25 h 32.699" /><path
         id="path1850"
         style="fill:none;stroke:#262626;stroke-width:5.0025;stroke-linecap:square;stroke-linejoin:round;stroke-miterlimit:10;stroke-dasharray:none;stroke-opacity:1"
         d="m 525,1814.63 h 32.699" /><path
         id="path1852"
         style="fill:none;stroke:#262626;stroke-width:5.0025;stroke-linecap:square;stroke-linejoin:round;stroke-miterlimit:10;stroke-dasharray:none;stroke-opacity:1"
         d="m 525,1938 h 32.699" /><path
         id="path1854"
         style="fill:none;stroke:#262626;stroke-width:5.0025;stroke-linecap:square;stroke-linejoin:round;stroke-miterlimit:10;stroke-dasharray:none;stroke-opacity:1"
         d="m 525,2061.38 h 32.699" /><path
         id="path1856"
         style="fill:none;stroke:#262626;stroke-width:5.0025;stroke-linecap:square;stroke-linejoin:round;stroke-miterlimit:10;stroke-dasharray:none;stroke-opacity:1"
         d="m 525,2184.75 h 32.699" /><path
         id="path1858"
         style="fill:none;stroke:#262626;stroke-width:5.0025;stroke-linecap:square;stroke-linejoin:round;stroke-miterlimit:10;stroke-dasharray:none;stroke-opacity:1"
         d="m 525,2308.13 h 32.699" /><path
         id="path1860"
         style="fill:none;stroke:#262626;stroke-width:5.0025;stroke-linecap:square;stroke-linejoin:round;stroke-miterlimit:10;stroke-dasharray:none;stroke-opacity:1"
         d="m 525,2431.5 h 32.699" /><path
         id="path1862"
         style="fill:none;stroke:#262626;stroke-width:5.0025;stroke-linecap:square;stroke-linejoin:round;stroke-miterlimit:10;stroke-dasharray:none;stroke-opacity:1"
         d="m 525,2554.88 h 32.699" /><path
         id="path1864"
         style="fill:none;stroke:#262626;stroke-width:5.0025;stroke-linecap:square;stroke-linejoin:round;stroke-miterlimit:10;stroke-dasharray:none;stroke-opacity:1"
         d="m 525,2678.25 h 32.699" /><path
         id="path1866"
         style="fill:none;stroke:#262626;stroke-width:5.0025;stroke-linecap:square;stroke-linejoin:round;stroke-miterlimit:10;stroke-dasharray:none;stroke-opacity:1"
         d="m 525,2801.63 h 32.699" /><path
         id="path1868"
         style="fill:none;stroke:#262626;stroke-width:5.0025;stroke-linecap:square;stroke-linejoin:round;stroke-miterlimit:10;stroke-dasharray:none;stroke-opacity:1"
         d="m 525,2925 h 32.699" /><path
         id="path1870"
         style="fill:none;stroke:#262626;stroke-width:5.0025;stroke-linecap:square;stroke-linejoin:round;stroke-miterlimit:10;stroke-dasharray:none;stroke-opacity:1"
         d="m 3795,457.5 h -32.7" /><path
         id="path1872"
         style="fill:none;stroke:#262626;stroke-width:5.0025;stroke-linecap:square;stroke-linejoin:round;stroke-miterlimit:10;stroke-dasharray:none;stroke-opacity:1"
         d="m 3795,580.875 h -32.7" /><path
         id="path1874"
         style="fill:none;stroke:#262626;stroke-width:5.0025;stroke-linecap:square;stroke-linejoin:round;stroke-miterlimit:10;stroke-dasharray:none;stroke-opacity:1"
         d="m 3795,704.25 h -32.7" /><path
         id="path1876"
         style="fill:none;stroke:#262626;stroke-width:5.0025;stroke-linecap:square;stroke-linejoin:round;stroke-miterlimit:10;stroke-dasharray:none;stroke-opacity:1"
         d="m 3795,827.625 h -32.7" /><path
         id="path1878"
         style="fill:none;stroke:#262626;stroke-width:5.0025;stroke-linecap:square;stroke-linejoin:round;stroke-miterlimit:10;stroke-dasharray:none;stroke-opacity:1"
         d="m 3795,951 h -32.7" /><path
         id="path1880"
         style="fill:none;stroke:#262626;stroke-width:5.0025;stroke-linecap:square;stroke-linejoin:round;stroke-miterlimit:10;stroke-dasharray:none;stroke-opacity:1"
         d="m 3795,1074.38 h -32.7" /><path
         id="path1882"
         style="fill:none;stroke:#262626;stroke-width:5.0025;stroke-linecap:square;stroke-linejoin:round;stroke-miterlimit:10;stroke-dasharray:none;stroke-opacity:1"
         d="m 3795,1197.75 h -32.7" /><path
         id="path1884"
         style="fill:none;stroke:#262626;stroke-width:5.0025;stroke-linecap:square;stroke-linejoin:round;stroke-miterlimit:10;stroke-dasharray:none;stroke-opacity:1"
         d="m 3795,1321.13 h -32.7" /><path
         id="path1886"
         style="fill:none;stroke:#262626;stroke-width:5.0025;stroke-linecap:square;stroke-linejoin:round;stroke-miterlimit:10;stroke-dasharray:none;stroke-opacity:1"
         d="m 3795,1444.5 h -32.7" /><path
         id="path1888"
         style="fill:none;stroke:#262626;stroke-width:5.0025;stroke-linecap:square;stroke-linejoin:round;stroke-miterlimit:10;stroke-dasharray:none;stroke-opacity:1"
         d="m 3795,1567.88 h -32.7" /><path
         id="path1890"
         style="fill:none;stroke:#262626;stroke-width:5.0025;stroke-linecap:square;stroke-linejoin:round;stroke-miterlimit:10;stroke-dasharray:none;stroke-opacity:1"
         d="m 3795,1691.25 h -32.7" /><path
         id="path1892"
         style="fill:none;stroke:#262626;stroke-width:5.0025;stroke-linecap:square;stroke-linejoin:round;stroke-miterlimit:10;stroke-dasharray:none;stroke-opacity:1"
         d="m 3795,1814.63 h -32.7" /><path
         id="path1894"
         style="fill:none;stroke:#262626;stroke-width:5.0025;stroke-linecap:square;stroke-linejoin:round;stroke-miterlimit:10;stroke-dasharray:none;stroke-opacity:1"
         d="m 3795,1938 h -32.7" /><path
         id="path1896"
         style="fill:none;stroke:#262626;stroke-width:5.0025;stroke-linecap:square;stroke-linejoin:round;stroke-miterlimit:10;stroke-dasharray:none;stroke-opacity:1"
         d="m 3795,2061.38 h -32.7" /><path
         id="path1898"
         style="fill:none;stroke:#262626;stroke-width:5.0025;stroke-linecap:square;stroke-linejoin:round;stroke-miterlimit:10;stroke-dasharray:none;stroke-opacity:1"
         d="m 3795,2184.75 h -32.7" /><path
         id="path1900"
         style="fill:none;stroke:#262626;stroke-width:5.0025;stroke-linecap:square;stroke-linejoin:round;stroke-miterlimit:10;stroke-dasharray:none;stroke-opacity:1"
         d="m 3795,2308.13 h -32.7" /><path
         id="path1902"
         style="fill:none;stroke:#262626;stroke-width:5.0025;stroke-linecap:square;stroke-linejoin:round;stroke-miterlimit:10;stroke-dasharray:none;stroke-opacity:1"
         d="m 3795,2431.5 h -32.7" /><path
         id="path1904"
         style="fill:none;stroke:#262626;stroke-width:5.0025;stroke-linecap:square;stroke-linejoin:round;stroke-miterlimit:10;stroke-dasharray:none;stroke-opacity:1"
         d="m 3795,2554.88 h -32.7" /><path
         id="path1906"
         style="fill:none;stroke:#262626;stroke-width:5.0025;stroke-linecap:square;stroke-linejoin:round;stroke-miterlimit:10;stroke-dasharray:none;stroke-opacity:1"
         d="m 3795,2678.25 h -32.7" /><path
         id="path1908"
         style="fill:none;stroke:#262626;stroke-width:5.0025;stroke-linecap:square;stroke-linejoin:round;stroke-miterlimit:10;stroke-dasharray:none;stroke-opacity:1"
         d="m 3795,2801.63 h -32.7" /><path
         id="path1910"
         style="fill:none;stroke:#262626;stroke-width:5.0025;stroke-linecap:square;stroke-linejoin:round;stroke-miterlimit:10;stroke-dasharray:none;stroke-opacity:1"
         d="m 3795,2925 h -32.7" /><g
         transform="scale(10)"
         id="g1912"><text
           id="text1956"
           style="font-variant:normal;font-weight:normal;font-size:15.9998px;font-family:Helvetica;-inkscape-font-specification:Helvetica;writing-mode:lr-tb;fill:#262626;fill-opacity:1;fill-rule:nonzero;stroke:none"
           transform="matrix(1,0,0,-1,38.3,40.125)"><tspan
             id="tspan1914"
             y="0"
             x="0">0</tspan><tspan
             id="tspan1916"
             y="-12.3375"
             x="4.5"> </tspan><tspan
             id="tspan1918"
             sodipodi:role="line"
             y="-24.674999"
             x="-9 -0.1041112">10</tspan><tspan
             id="tspan1920"
             y="-37.012501"
             x="4.5"> </tspan><tspan
             id="tspan1922"
             sodipodi:role="line"
             y="-49.349998"
             x="-9 -0.1041112">20</tspan><tspan
             id="tspan1924"
             y="-61.6875"
             x="4.5"> </tspan><tspan
             id="tspan1926"
             sodipodi:role="line"
             y="-74.025002"
             x="-9 -0.1041112">30</tspan><tspan
             id="tspan1928"
             y="-86.362503"
             x="4.5"> </tspan><tspan
             id="tspan1930"
             sodipodi:role="line"
             y="-98.699997"
             x="-9 -0.1041112">40</tspan><tspan
             id="tspan1932"
             y="-111.0375"
             x="4.5"> </tspan><tspan
             id="tspan1934"
             sodipodi:role="line"
             y="-123.375"
             x="-9 -0.1041112">50</tspan><tspan
             id="tspan1936"
             y="-135.71249"
             x="4.5"> </tspan><tspan
             id="tspan1938"
             sodipodi:role="line"
             y="-148.05"
             x="-9 -0.1041112">60</tspan><tspan
             id="tspan1940"
             y="-160.3875"
             x="4.5"> </tspan><tspan
             id="tspan1942"
             sodipodi:role="line"
             y="-172.72501"
             x="-9 -0.1041112">70</tspan><tspan
             id="tspan1944"
             y="-185.0625"
             x="4.5"> </tspan><tspan
             id="tspan1946"
             sodipodi:role="line"
             y="-197.39999"
             x="-9 -0.1041112">80</tspan><tspan
             id="tspan1948"
             y="-209.7375"
             x="4.5"> </tspan><tspan
             id="tspan1950"
             sodipodi:role="line"
             y="-222.075"
             x="-9 -0.1041112">90</tspan><tspan
             id="tspan1952"
             y="-234.41251"
             x="4.5"> </tspan><tspan
             id="tspan1954"
             sodipodi:role="line"
             y="-246.75"
             x="-18 -9.1041117 -0.2082224">100</tspan></text><text
           id="text1960"
           style="font-variant:normal;font-weight:normal;font-size:17.6002px;font-family:Helvetica;-inkscape-font-specification:Helvetica;writing-mode:lr-tb;fill:#262626;fill-opacity:1;fill-rule:nonzero;stroke:none"
           transform="matrix(0,1,1,0,13.55,109.5)"><tspan
             id="tspan1958"
             sodipodi:role="line"
             y="0"
             x="0 11.739333 21.525045 27.385912 36.186012 45.971722 55.757435 60.650288 64.557533 68.464775 78.250488 87.050591 91.943443 97.804314 113.45089">Percentiles (%)</tspan></text></g><path
         id="path1962"
         style="fill:none;stroke:#edb120;stroke-width:30;stroke-linecap:butt;stroke-linejoin:round;stroke-miterlimit:10;stroke-dasharray:none;stroke-opacity:1"
         d="m 525.977,482.176 0.089,24.676 0.149,24.671 0.465,24.676 1.508,24.676 1.55,24.676 0.461,24.676 1.574,24.671 1.665,24.676 0.414,24.676 0.351,24.676 0.578,24.676 0.321,24.671 0.804,24.676 0.914,24.676 0.969,24.676 1.094,24.676 1.441,24.671 0.922,24.676 0.598,24.676 3.773,24.676 1.785,24.674 1.403,24.67 3.523,24.68 1.938,24.68 0.293,24.67 0.058,24.68 0.164,24.67 0.414,24.67 0.758,24.68 0.945,24.68 0.848,24.67 0.766,24.67 0.304,24.68 1.77,24.68 0.617,24.67 1.207,24.68 0.344,24.67 0.105,24.67 2.485,24.68 0.644,24.68 0.196,24.67 1.16,24.67 0.082,24.68 0.363,24.68 0.098,24.67 0.14,24.68 1.149,24.67 1.957,24.67 0.449,24.68 1.742,24.68 0.875,24.67 0.375,24.67 0.055,24.68 1.387,24.68 2.812,24.67 0.231,24.68 0.121,24.67 0.254,24.67 0.839,24.68 3.106,24.68 2.258,24.67 0.234,24.67 0.598,24.68 2.648,24.68 1.156,24.67 2.18,24.68 1.742,24.67 3.203,24.67 8.43,24.68 2.07,24.68 1.618,24.67 2.468,24.67 0.625,24.68 0.254,24.68 1.575,24.67 6.074,24.68 5.324,24.67 2.484,24.67 2.086,24.68 5.789,24.68 3.309,24.67 2.457,24.67 2.207,24.68 6.156,24.68 13.305,24.67 6.422,24.68 3.285,24.67 2.586,24.67 13.719,24.68 23.129,24.68 11.691,24.67 0.648,24.67 10.778,24.68 13.386,24.68 8.93,24.67 17.746,24.68 32.699,24.67 247.802,24.67" /><path
         id="path1964"
         style="fill:none;stroke:#00ff00;stroke-width:30;stroke-linecap:butt;stroke-linejoin:round;stroke-miterlimit:10;stroke-dasharray:none;stroke-opacity:1"
         d="m 528.031,482.176 0.824,24.676 0.375,24.671 0.801,24.676 0.946,24.676 2.363,24.676 2.43,24.676 1.367,24.671 3.847,24.676 3.118,24.676 2.168,24.676 2.609,24.676 1.23,24.671 0.504,24.676 1.11,24.676 6.961,24.676 3.839,24.676 2.243,24.671 0.961,24.676 0.066,24.676 2.086,24.676 2.242,24.674 2.969,24.67 2.055,24.68 1.304,24.68 1.09,24.67 1.508,24.68 0.433,24.67 1.598,24.67 2.16,24.68 0.774,24.68 0.574,24.67 0.414,24.67 2.102,24.68 0.906,24.68 0.262,24.67 0.617,24.68 1.394,24.67 0.457,24.67 0.035,24.68 0.571,24.68 4.613,24.67 0.414,24.67 1.102,24.68 1.738,24.68 0.234,24.67 3.399,24.68 0.597,24.67 0.008,24.67 2.153,24.68 v 24.68 l 0.187,24.67 1.606,24.67 0.839,24.68 1.102,24.68 0.187,24.67 0.278,24.68 0.82,24.67 2.863,24.67 3.227,24.68 2.652,24.68 1.684,24.67 7.406,24.67 2.559,24.68 1.754,24.68 2.566,24.67 2.055,24.68 5.222,24.67 2.286,24.67 0.554,24.68 1.957,24.68 3.602,24.67 4.441,24.67 5.449,24.68 0.356,24.68 1.242,24.67 3.563,24.68 3.421,24.67 3.231,24.67 0.512,24.68 0.906,24.68 4.156,24.67 9.149,24.67 12.07,24.68 7.199,24.68 9.024,24.67 19.289,24.68 7.679,24.67 6.407,24.67 11.332,24.68 1.992,24.68 1.652,24.67 31.336,24.67 44.902,24.68 8.071,24.68 8.406,24.67 30.023,24.68 60.012,24.67 342.092,24.67" /><path
         id="path1966"
         style="fill:none;stroke:#7e2f8e;stroke-width:30;stroke-linecap:butt;stroke-linejoin:round;stroke-miterlimit:10;stroke-dasharray:none;stroke-opacity:1"
         d="m 529.426,482.176 1.379,24.676 0.929,24.671 0.407,24.676 1.484,24.676 2.633,24.676 2.625,24.676 4.101,24.671 6.512,24.676 3.27,24.676 1.589,24.676 1.141,24.676 2.504,24.671 9.547,24.676 5.844,24.676 3.195,24.676 3.766,24.676 2.675,24.671 2.121,24.676 1.938,24.676 1.664,24.676 0.887,24.674 0.426,24.67 0.613,24.68 1.676,24.68 1.796,24.67 1.954,24.68 2.023,24.67 0.938,24.67 0.621,24.68 0.144,24.68 v 24.67 l 1.664,24.67 0.699,24.68 0.793,24.68 0.797,24.67 0.907,24.68 2.21,24.67 0.375,24.67 1.864,24.68 0.761,24.68 1.989,24.67 3.48,24.67 1.852,24.68 0.136,24.68 1.852,24.67 1.238,24.68 0.114,24.67 0.359,24.67 3.832,24.68 0.016,24.68 0.832,24.67 1.215,24.67 0.773,24.68 2.691,24.68 0.426,24.67 3.086,24.68 1.41,24.67 0.18,24.67 0.793,24.68 2.394,24.68 10.153,24.67 3.812,24.67 4.641,24.68 2.777,24.68 0.27,24.67 1.785,24.68 5.082,24.67 1.105,24.67 5.332,24.68 7.004,24.68 3.293,24.67 5.106,24.67 1.629,24.68 4.644,24.68 1.11,24.67 0.668,24.68 0.718,24.67 1.875,24.67 1.731,24.68 5.004,24.68 10.14,24.67 5.203,24.67 6.504,24.68 8.61,24.68 13.726,24.67 8.356,24.68 15.597,24.67 9.45,24.67 7,24.68 3.507,24.68 12.52,24.67 52.918,24.67 50.754,24.68 0.887,24.68 16.16,24.67 24.324,24.68 63.429,24.67 388.02,24.67" /><path
         id="path1968"
         style="fill:none;stroke:#00ffff;stroke-width:30;stroke-linecap:butt;stroke-linejoin:round;stroke-miterlimit:10;stroke-dasharray:none;stroke-opacity:1"
         d="m 531.164,482.176 0.723,24.676 2.383,24.671 1.679,24.676 1.598,24.676 2.699,24.676 2.086,24.676 6.039,24.671 5.91,24.676 1.746,24.676 1.965,24.676 2.117,24.676 5.457,24.671 13.868,24.676 7.492,24.676 3.285,24.676 2.328,24.676 2.16,24.671 0.973,24.676 4.816,24.676 2.114,24.676 0.617,24.674 0.937,24.67 1.34,24.68 0.43,24.68 1.476,24.67 0.789,24.68 0.411,24.67 1.328,24.67 0.75,24.68 0.254,24.68 0.031,24.67 1.785,24.67 0.586,24.68 2.414,24.68 2.176,24.67 0.375,24.68 1.445,24.67 1.067,24.67 1.664,24.68 0.347,24.68 0.817,24.67 2.375,24.67 0.746,24.68 2.968,24.68 3.629,24.67 3.797,24.68 0.457,24.67 0.231,24.67 v 24.68 l 1.148,24.68 1.817,24.67 6.433,24.67 1.184,24.68 0.113,24.68 0.219,24.67 0.172,24.68 0.879,24.67 3.57,24.67 6.019,24.68 3.969,24.68 0.106,24.67 1.148,24.67 6.359,24.68 2.43,24.68 2.153,24.67 3.48,24.68 5.437,24.67 0.782,24.67 2.023,24.68 3.996,24.68 9.078,24.67 2.52,24.67 4.672,24.68 2.707,24.68 4.941,24.67 2.438,24.68 4.562,24.67 4.387,24.67 9.914,24.68 6.691,24.68 7.137,24.67 7.008,24.67 11.969,24.68 2.199,24.68 5.16,24.67 13.633,24.68 8.781,24.67 1.688,24.67 7.531,24.68 15.629,24.68 28.09,24.67 61.613,24.67 47.437,24.68 2.243,24.68 6.425,24.67 13.012,24.68 78.464,24.67 405.78,24.67" /><path
         id="path1970"
         style="fill:none;stroke:#0072bd;stroke-width:30;stroke-linecap:butt;stroke-linejoin:round;stroke-miterlimit:10;stroke-dasharray:none;stroke-opacity:1"
         d="m 534.816,482.176 3.161,24.676 2.57,24.671 1.351,24.676 3.172,24.676 2.438,24.676 0.613,24.676 7.59,24.671 7.082,24.676 2.953,24.676 1.418,24.676 4.688,24.676 3.804,24.671 12.383,24.676 15.703,24.676 6.629,24.676 4.172,24.676 3.238,24.671 1.965,24.676 1.578,24.676 1.656,24.676 0.766,24.674 0.645,24.67 0.203,24.68 0.207,24.68 1.293,24.67 0.394,24.68 1.742,24.67 2.008,24.67 0.985,24.68 0.23,24.68 0.324,24.67 0.637,24.67 4.328,24.68 0.887,24.68 0.484,24.67 1.832,24.68 1.395,24.67 0.914,24.67 3.48,24.68 4.86,24.68 0.453,24.67 1.004,24.67 1.883,24.68 1.671,24.68 1.02,24.67 1.066,24.68 1.911,24.67 2.371,24.67 0.179,24.68 3.692,24.68 4.23,24.67 0.278,24.67 0.289,24.68 0.211,24.68 1.402,24.67 3.976,24.68 11.864,24.67 2.265,24.67 0.344,24.68 0.195,24.68 0.649,24.67 3.621,24.67 2.008,24.68 7.066,24.68 1.778,24.67 5.894,24.68 2.934,24.67 8.961,24.67 1.457,24.68 3.336,24.68 9.976,24.67 6.211,24.67 0.734,24.68 0.743,24.68 1.851,24.67 3.684,24.68 6.676,24.67 8.226,24.67 5.34,24.68 2.945,24.68 7.735,24.67 13.425,24.67 12.098,24.68 18.442,24.68 4.507,24.67 6.141,24.68 10.695,24.67 2.5,24.67 17.09,24.68 24.168,24.68 29.82,24.67 65.153,24.67 40.968,24.68 4.38,24.68 9.92,24.67 15.98,24.68 80.06,24.67 458.76,24.67" /><path
         id="path1972"
         style="fill:none;stroke:#ff00ff;stroke-width:30;stroke-linecap:butt;stroke-linejoin:round;stroke-miterlimit:10;stroke-dasharray:none;stroke-opacity:1"
         d="m 538.949,482.176 4.262,24.676 2.031,24.671 5.192,24.676 3.351,24.676 2.578,24.676 3.168,24.676 7.762,24.671 6.316,24.676 3.27,24.676 6.875,24.676 3.758,24.676 5.461,24.671 10.355,24.676 13.719,24.676 10.281,24.676 7.496,24.676 2.864,24.671 1.531,24.676 2.359,24.676 0.766,24.676 0.258,24.674 0.89,24.67 1.817,24.68 2.023,24.68 1.367,24.67 2.602,24.68 1.957,24.67 0.613,24.67 0.52,24.68 4.035,24.68 1.027,24.67 0.031,24.67 0.395,24.68 1.801,24.68 6.824,24.67 2.91,24.68 7.93,24.67 1.89,24.67 0.965,24.68 0.285,24.68 0.016,24.67 1.68,24.67 1.461,24.68 1.41,24.68 4.605,24.67 1.629,24.68 0.981,24.67 1.539,24.67 0.937,24.68 0.196,24.68 1.132,24.67 3.883,24.67 1.211,24.68 2.496,24.68 3.75,24.67 8.399,24.68 0.64,24.67 5.211,24.67 0.977,24.68 3.011,24.68 7.399,24.67 6.644,24.67 5.676,24.68 6.711,24.68 9.203,24.67 1.262,24.68 5.137,24.67 4.207,24.67 0.652,24.68 2.934,24.68 3.382,24.67 5.961,24.67 2.965,24.68 6.336,24.68 12.449,24.67 1.223,24.68 4.883,24.67 8.633,24.67 10.531,24.68 11.496,24.68 8.957,24.67 2.488,24.67 2.864,24.68 3.968,24.68 7.493,24.67 21.046,24.68 24.141,24.67 17.078,24.67 23.16,24.68 38.266,24.68 27.027,24.67 28.67,24.67 38.18,24.68 55.17,24.68 11.75,24.67 3.99,24.68 94.85,24.67 521.86,24.67" /><path
         id="path1974"
         style="fill:none;stroke:#d95319;stroke-width:30;stroke-linecap:butt;stroke-linejoin:round;stroke-miterlimit:10;stroke-dasharray:none;stroke-opacity:1"
         d="m 540.512,482.176 6.125,24.676 2.504,24.671 4.496,24.676 11.554,24.676 12.204,24.676 5.691,24.676 1.961,24.671 1.312,24.676 2.586,24.676 2.289,24.676 5.907,24.676 6.843,24.671 10.243,24.676 23.175,24.676 10.516,24.676 2.941,24.676 1.325,24.671 0.398,24.676 0.449,24.676 1.555,24.676 1.508,24.674 1.234,24.67 0.527,24.68 1.379,24.68 3.766,24.67 5.504,24.68 7.945,24.67 2.055,24.67 1.664,24.68 0.652,24.68 0.336,24.67 0.055,24.67 0.262,24.68 3.113,24.68 6.246,24.67 2.227,24.68 1.875,24.67 0.765,24.67 0.629,24.68 0.301,24.68 5.512,24.67 2.355,24.67 6.586,24.68 0.457,24.68 1.762,24.67 4.695,24.68 1.008,24.67 4.566,24.67 0.278,24.68 0.246,24.68 7.008,24.67 7.437,24.67 1.383,24.68 1.476,24.68 1.028,24.67 5.84,24.68 1.464,24.67 0.442,24.67 0.351,24.68 2.704,24.68 2.3,24.67 10.891,24.67 13.273,24.68 7.883,24.68 3.766,24.67 0.406,24.68 3.035,24.67 8.321,24.67 8.48,24.68 3.473,24.68 5.511,24.67 1.696,24.67 1.562,24.68 5.442,24.68 13.164,24.67 9.683,24.68 2.789,24.67 7.547,24.67 11.992,24.68 24.387,24.68 4.875,24.67 12.723,24.67 15.742,24.68 5.945,24.68 10.871,24.67 4.618,24.68 4.214,24.67 15.172,24.67 36.372,24.68 26.34,24.68 20.26,24.67 58.31,24.67 49.18,24.68 3.41,24.68 26.16,24.67 51.26,24.68 88.01,24.67 669.52,24.67" /><path
         id="path1976"
         style="fill:none;stroke:#edb120;stroke-width:30;stroke-linecap:butt;stroke-linejoin:bevel;stroke-miterlimit:10;stroke-dasharray:30, 30;stroke-dashoffset:0;stroke-opacity:1"
         d="m 525,482.176 v 74.023 l 0.074,24.676 0.145,24.676 0.097,24.676 0.215,24.671 0.16,24.676 0.106,24.676 0.082,24.676 0.035,24.676 0.152,24.671 0.157,24.676 0.058,24.676 0.024,24.676 0.023,24.676 0.84,24.671 0.391,24.676 0.187,24.676 0.133,24.676 0.195,24.674 0.203,24.67 0.145,24.68 0.215,24.68 0.16,24.67 0.051,24.68 0.308,24.67 0.106,24.67 0.027,24.68 0.008,24.68 0.945,24.67 0.242,24.67 0.036,24.68 v 24.68 l 0.007,24.67 0.075,24.68 0.074,24.67 0.031,24.67 0.047,24.68 0.098,24.68 0.839,24.67 0.375,24.67 0.239,24.68 0.144,24.68 0.793,24.67 0.555,24.68 0.301,24.67 0.863,24.67 0.125,24.68 0.309,24.68 0.644,24.67 0.172,24.67 0.309,24.68 0.585,24.68 0.204,24.67 0.39,24.68 0.149,24.67 0.644,24.67 0.203,24.68 0.121,24.68 0.817,24.67 1.215,24.67 0.988,24.68 0.586,24.68 0.519,24.67 0.95,24.68 0.375,24.67 0.699,24.67 1.164,24.68 2.137,24.68 1.664,24.67 0.172,24.67 0.894,24.68 1.078,24.68 1.254,24.67 2.938,24.68 0.953,24.67 0.054,24.67 0.493,24.68 1.586,24.68 2.097,24.67 2.02,24.67 0.285,24.68 1.348,24.68 2.093,24.67 2.203,24.68 2.411,24.67 0.293,24.67 5.789,24.68 9.05,24.68 1.981,24.67 1.816,24.67 9.278,24.68 11.55,24.68 4.887,24.67 9.836,24.68 25.371,24.67 79.5,24.67" /><path
         id="path1978"
         style="fill:none;stroke:#00ff00;stroke-width:30;stroke-linecap:butt;stroke-linejoin:bevel;stroke-miterlimit:10;stroke-dasharray:30, 30;stroke-dashoffset:0;stroke-opacity:1"
         d="m 525.391,482.176 0.156,24.676 0.539,24.671 0.82,24.676 1.43,24.676 2.051,24.676 1.047,24.676 1.222,24.671 0.832,24.676 0.473,24.676 0.863,24.676 1.629,24.676 2.699,24.671 2.192,24.676 0.613,24.676 0.531,24.676 2.59,24.676 1.266,24.671 0.519,24.676 0.532,24.676 0.718,24.676 0.75,24.674 0.211,24.67 0.375,24.68 1.965,24.68 0.766,24.67 0.621,24.68 0.91,24.67 0.785,24.67 1.442,24.68 0.39,24.68 0.758,24.67 0.359,24.67 0.434,24.68 0.894,24.68 0.301,24.67 1.403,24.68 0.199,24.67 1.996,24.67 1.027,24.68 0.992,24.68 1.02,24.67 0.773,24.67 0.801,24.68 0.172,24.68 0.773,24.67 0.391,24.68 3.344,24.67 0.367,24.67 0.383,24.68 0.324,24.68 3.09,24.67 0.105,24.67 1.118,24.68 0.679,24.68 1.899,24.67 1.246,24.68 1.16,24.67 1.254,24.67 0.277,24.68 0.309,24.68 0.113,24.67 0.336,24.67 2.289,24.68 0.938,24.68 3.742,24.67 0.769,24.68 1.278,24.67 3.882,24.67 2.2,24.68 1.14,24.68 1.02,24.67 1.629,24.67 4.332,24.68 3.828,24.68 3.058,24.67 0.915,24.68 2.183,24.67 1.434,24.67 1.054,24.68 3.473,24.68 6.691,24.67 6.93,24.67 2.805,24.68 4.191,24.68 1.571,24.67 3.043,24.68 5.152,24.67 13.5,24.67 16.98,24.68 3.653,24.68 7.035,24.67 15.367,24.67 7.742,24.68 5.285,24.68 9.075,24.67 7.125,24.68 33.855,24.67 262.101,24.67" /><path
         id="path1980"
         style="fill:none;stroke:#7e2f8e;stroke-width:30;stroke-linecap:butt;stroke-linejoin:bevel;stroke-miterlimit:10;stroke-dasharray:30, 30;stroke-dashoffset:0;stroke-opacity:1"
         d="m 526.746,482.176 0.789,24.676 0.809,24.671 1.515,24.676 2.168,24.676 3.856,24.676 4.558,24.676 2.094,24.671 1.754,24.676 1.254,24.676 1.777,24.676 5.578,24.676 3.04,24.671 3.21,24.676 3.336,24.676 1.18,24.676 1.551,24.676 3.246,24.671 3.129,24.676 2.496,24.676 1.117,24.676 2.238,24.674 1.348,24.67 0.887,24.68 0.308,24.68 0.102,24.67 1.562,24.68 0.868,24.67 0.804,24.67 1.532,24.68 0.718,24.68 2.844,24.67 0.758,24.67 0.769,24.68 1.149,24.68 1.14,24.67 1.485,24.68 0.414,24.67 0.801,24.67 0.097,24.68 0.727,24.68 3.609,24.67 2.848,24.67 3.273,24.68 0.465,24.68 0.614,24.67 1.171,24.68 0.036,24.67 0.691,24.67 1.191,24.68 0.442,24.68 2.234,24.67 0.399,24.67 0.152,24.68 0.859,24.68 1.344,24.67 1.238,24.68 0.442,24.67 2.64,24.67 7.262,24.68 1.332,24.68 0.586,24.67 1.32,24.67 0.465,24.68 2.379,24.68 2.488,24.67 6.008,24.68 5.477,24.67 0.57,24.67 0.5,24.68 2.145,24.68 8.804,24.67 3.285,24.67 0.512,24.68 1.852,24.68 4.66,24.67 4.437,24.68 4.606,24.67 3.293,24.67 1.41,24.68 1.711,24.68 2.359,24.67 1.653,24.67 6.531,24.68 12.25,24.68 3.672,24.67 7.027,24.68 12.871,24.67 24.36,24.67 24.707,24.68 6.187,24.68 7.574,24.67 1.125,24.67 1.059,24.68 5.422,24.68 26.285,24.67 40.312,24.68 29.356,24.67 356.846,24.67" /><path
         id="path1982"
         style="fill:none;stroke:#00ffff;stroke-width:30;stroke-linecap:butt;stroke-linejoin:bevel;stroke-miterlimit:10;stroke-dasharray:30, 30;stroke-dashoffset:0;stroke-opacity:1"
         d="m 528.758,482.176 1.176,24.676 1.261,24.671 2.086,24.676 2.356,24.676 5.562,24.676 7.555,24.676 5.023,24.671 2.672,24.676 1.739,24.676 2.281,24.676 4.844,24.676 9.531,24.671 4.808,24.676 1.043,24.676 3.391,24.676 4.746,24.676 2.559,24.671 1.785,24.676 0.871,24.676 6.051,24.676 2.761,24.674 1.602,24.67 1.336,24.68 0.332,24.68 0.199,24.67 1.27,24.68 2.625,24.67 0.898,24.67 2.973,24.68 0.953,24.68 0.254,24.67 2.105,24.67 2.617,24.68 0.497,24.68 2.582,24.67 3.23,24.68 1.148,24.67 0.106,24.67 0.148,24.68 0.547,24.68 2.59,24.67 1.176,24.67 0.074,24.68 1.231,24.68 3.082,24.67 1,24.68 0.582,24.67 1.613,24.67 1.148,24.68 3.629,24.68 0.43,24.67 0.383,24.67 2.527,24.68 2.082,24.68 2.793,24.67 6.606,24.68 0.488,24.67 1.344,24.67 2.39,24.68 7.246,24.68 0.883,24.67 3.676,24.67 1.23,24.68 3.797,24.68 2.489,24.67 0.937,24.68 3.016,24.67 5.047,24.67 8.207,24.68 2.632,24.68 0.375,24.67 1.079,24.67 4.851,24.68 7.957,24.68 0.758,24.67 1.523,24.68 0.668,24.67 1.141,24.67 3.172,24.68 5.226,24.68 3.512,24.67 8.375,24.67 13.035,24.68 10.149,24.68 10.793,24.67 4.289,24.68 17.394,24.67 30.141,24.67 10.476,24.68 7.165,24.68 15.515,24.67 18.063,24.67 17.183,24.68 7.731,24.68 26.886,24.67 40.375,24.68 29.399,24.67 440.41,24.67" /><path
         id="path1984"
         style="fill:none;stroke:#0072bd;stroke-width:30;stroke-linecap:butt;stroke-linejoin:bevel;stroke-miterlimit:10;stroke-dasharray:30, 30;stroke-dashoffset:0;stroke-opacity:1"
         d="m 535.215,482.176 0.742,24.676 2.387,24.671 3.644,24.676 3.133,24.676 9.16,24.676 11.024,24.676 11.64,24.671 7.703,24.676 2.188,24.676 1.711,24.676 1.277,24.676 11.172,24.671 14.606,24.676 8.195,24.676 6.121,24.676 2.754,24.676 2.105,24.671 2.582,24.676 2.278,24.676 5.836,24.676 2.183,24.674 6.36,24.67 5.925,24.68 1.258,24.68 0.27,24.67 1.39,24.68 1.387,24.67 0.352,24.67 0.246,24.68 3.504,24.68 2.707,24.67 1.441,24.67 0.539,24.68 6.106,24.68 1.183,24.67 0.106,24.68 5.019,24.67 1.985,24.67 0.984,24.68 1.254,24.68 0.449,24.67 2.293,24.67 0.984,24.68 0.418,24.68 1.262,24.67 0.051,24.68 2.035,24.67 2.563,24.67 4.41,24.68 2.453,24.68 0.594,24.67 2.226,24.67 4.844,24.68 13.523,24.68 11.649,24.67 1.191,24.68 3.196,24.67 2.476,24.67 7.875,24.68 0.981,24.68 4.027,24.67 1.199,24.67 1.059,24.68 2.691,24.68 0.285,24.67 1.028,24.68 0.562,24.67 3.137,24.67 4.222,24.68 1.149,24.68 7.23,24.67 19.289,24.67 1.59,24.68 3.774,24.68 4.176,24.67 4.628,24.68 3.375,24.67 4.528,24.67 9.097,24.68 6.618,24.68 3.726,24.67 12.848,24.67 13.89,24.68 8.168,24.68 12.157,24.67 17.879,24.68 13.304,24.67 23.91,24.67 8.055,24.68 12.457,24.68 14.223,24.67 38.514,24.67 52.44,24.68 5.39,24.68 18.97,24.67 42.69,24.68 69.48,24.67 572.5,24.67" /><path
         id="path1986"
         style="fill:none;stroke:#ff00ff;stroke-width:30;stroke-linecap:butt;stroke-linejoin:bevel;stroke-miterlimit:10;stroke-dasharray:30, 30;stroke-dashoffset:0;stroke-opacity:1"
         d="m 547.883,482.176 2.578,24.676 3.129,24.671 4.551,24.676 5.957,24.676 11.82,24.676 13.07,24.676 20.696,24.671 12.703,24.676 1.66,24.676 8.683,24.676 7.911,24.676 6.593,24.671 19.411,24.676 10.687,24.676 2.664,24.676 10.508,24.676 9.285,24.671 5.406,24.676 1.543,24.676 0.039,24.676 4.133,24.674 4.727,24.67 2.722,24.68 3.688,24.68 10.23,24.67 7.508,24.68 6.059,24.67 3.879,24.67 1.605,24.68 1.274,24.68 3.023,24.67 0.66,24.67 1.5,24.68 6.195,24.68 2.473,24.67 3.52,24.68 0.691,24.67 3.008,24.67 2.894,24.68 1.379,24.68 3.832,24.67 4.817,24.67 1.695,24.68 5.375,24.68 0.277,24.67 6.911,24.68 3.644,24.67 3.703,24.67 4.305,24.68 1.957,24.68 6.144,24.67 2.579,24.67 1.222,24.68 7.293,24.68 4.778,24.67 0.441,24.68 3.418,24.67 10.41,24.67 2.543,24.68 8.477,24.68 15.734,24.67 11.863,24.67 0.25,24.68 1.371,24.68 2.02,24.67 3.32,24.68 4.434,24.67 1.816,24.67 6.801,24.68 4.004,24.68 5.109,24.67 8.61,24.67 10.004,24.68 8.027,24.68 13.34,24.67 1.922,24.68 7.093,24.67 12.196,24.67 4.957,24.68 6.863,24.68 3.879,24.67 16.771,24.67 30.47,24.68 12.07,24.68 11.84,24.67 7.49,24.68 11.72,24.67 19.34,24.67 28.32,24.68 5.95,24.68 23,24.67 83.05,24.67 84.89,24.68 11.11,24.68 4.44,24.67 49.98,24.68 146.9,24.67 797.47,24.67" /><path
         id="path1988"
         style="fill:none;stroke:#d95319;stroke-width:30;stroke-linecap:butt;stroke-linejoin:bevel;stroke-miterlimit:10;stroke-dasharray:30, 30;stroke-dashoffset:0;stroke-opacity:1"
         d="m 559.922,482.176 3.734,24.676 7.973,24.671 6.598,24.676 1.589,24.676 9.332,24.676 15.329,24.676 30.968,24.671 19.2,24.676 0.996,24.676 10.269,24.676 11.668,24.676 10.668,24.671 14.348,24.676 12.148,24.676 12.301,24.676 9,24.676 3.309,24.671 0.515,24.676 9.879,24.676 6.231,24.676 3.062,24.674 2.961,24.67 0.801,24.68 0.918,24.68 13.918,24.67 10.269,24.68 1.785,24.67 9.563,24.67 8.766,24.68 9.808,24.68 6.559,24.67 2.105,24.67 6.61,24.68 4.64,24.68 2.078,24.67 1.532,24.68 3.949,24.67 0.722,24.67 11.325,24.68 1.597,24.68 2.055,24.67 1.395,24.67 0.097,24.68 9.293,24.68 1.215,24.67 1.41,24.68 0.774,24.67 6.207,24.67 2.05,24.68 3.352,24.68 2.766,24.67 2.175,24.67 2.782,24.68 3.293,24.68 6.277,24.67 3.242,24.68 18.793,24.67 16.035,24.67 5.102,24.68 0.976,24.68 6.778,24.67 19.187,24.67 9.793,24.68 5.34,24.68 6.352,24.67 15.626,24.68 1.79,24.67 5.22,24.67 5.15,24.68 5.6,24.68 5.14,24.67 2.9,24.67 9.39,24.68 26.58,24.68 4.93,24.67 5.79,24.68 1.9,24.67 8.12,24.67 11.96,24.68 4.01,24.68 0.66,24.67 11.78,24.67 30.84,24.68 21.14,24.68 18.44,24.67 9.68,24.68 1.3,24.67 4.31,24.67 25.58,24.68 32.64,24.68 38.34,24.67 113.19,24.67 90.36,24.68 30.13,24.68 26.7,24.67 32.71,24.68 189.82,24.67 972.86,24.67" /></g></g></svg>
