<?xml version="1.0" encoding="UTF-8" standalone="no"?>
<svg
   xmlns:dc="http://purl.org/dc/elements/1.1/"
   xmlns:cc="http://creativecommons.org/ns#"
   xmlns:rdf="http://www.w3.org/1999/02/22-rdf-syntax-ns#"
   xmlns:svg="http://www.w3.org/2000/svg"
   xmlns="http://www.w3.org/2000/svg"
   xmlns:sodipodi="http://sodipodi.sourceforge.net/DTD/sodipodi-0.dtd"
   xmlns:inkscape="http://www.inkscape.org/namespaces/inkscape"
   inkscape:version="1.0 (4035a4fb49, 2020-05-01)"
   sodipodi:docname="RainFR_RainExtr_EFFCI01_Costa_ZoomIn.svg"
   viewBox="0 0 524 398.66666"
   height="398.66666"
   width="524"
   xml:space="preserve"
   id="svg298"
   version="1.1"><metadata
     id="metadata304"><rdf:RDF><cc:Work
         rdf:about=""><dc:format>image/svg+xml</dc:format><dc:type
           rdf:resource="http://purl.org/dc/dcmitype/StillImage" /><dc:title></dc:title></cc:Work></rdf:RDF></metadata><defs
     id="defs302" /><sodipodi:namedview
     inkscape:current-layer="g306"
     inkscape:window-maximized="0"
     inkscape:window-y="0"
     inkscape:window-x="0"
     inkscape:cy="199.33333"
     inkscape:cx="262"
     inkscape:zoom="1.8436455"
     showgrid="false"
     id="namedview300"
     inkscape:window-height="510"
     inkscape:window-width="743"
     inkscape:pageshadow="2"
     inkscape:pageopacity="0"
     guidetolerance="10"
     gridtolerance="10"
     objecttolerance="10"
     borderopacity="1"
     bordercolor="#666666"
     pagecolor="#ffffff" /><g
     transform="matrix(1.3333333,0,0,-1.3333333,0,398.66667)"
     inkscape:label="ink_ext_XXXXXX"
     inkscape:groupmode="layer"
     id="g306"><g
       transform="scale(0.1)"
       id="g308"><path
         id="path310"
         style="fill:#ffffff;fill-opacity:1;fill-rule:nonzero;stroke:none"
         d="M -30,0 H 4200 V 3165 H -30 Z" /><path
         id="path312"
         style="fill:#ffffff;fill-opacity:1;fill-rule:nonzero;stroke:none"
         d="M -30,0 H 4200 V 3165 H -30 Z" /><path
         id="path314"
         style="fill:#ffffff;fill-opacity:1;fill-rule:nonzero;stroke:none"
         d="M 525,457.5 H 3795 V 2925 H 525 Z" /><path
         id="path316"
         style="fill:none;stroke:#929292;stroke-width:5.0025;stroke-linecap:butt;stroke-linejoin:round;stroke-miterlimit:10;stroke-dasharray:none;stroke-opacity:1"
         d="M 525,457.5 V 2925" /><path
         id="path318"
         style="fill:none;stroke:#929292;stroke-width:5.0025;stroke-linecap:butt;stroke-linejoin:round;stroke-miterlimit:10;stroke-dasharray:none;stroke-opacity:1"
         d="M 1179,457.5 V 2925" /><path
         id="path320"
         style="fill:none;stroke:#929292;stroke-width:5.0025;stroke-linecap:butt;stroke-linejoin:round;stroke-miterlimit:10;stroke-dasharray:none;stroke-opacity:1"
         d="M 1833,457.5 V 2925" /><path
         id="path322"
         style="fill:none;stroke:#929292;stroke-width:5.0025;stroke-linecap:butt;stroke-linejoin:round;stroke-miterlimit:10;stroke-dasharray:none;stroke-opacity:1"
         d="M 2487,457.5 V 2925" /><path
         id="path324"
         style="fill:none;stroke:#929292;stroke-width:5.0025;stroke-linecap:butt;stroke-linejoin:round;stroke-miterlimit:10;stroke-dasharray:none;stroke-opacity:1"
         d="M 3141,457.5 V 2925" /><path
         id="path326"
         style="fill:none;stroke:#929292;stroke-width:5.0025;stroke-linecap:butt;stroke-linejoin:round;stroke-miterlimit:10;stroke-dasharray:none;stroke-opacity:1"
         d="M 3795,457.5 V 2925" /><path
         id="path328"
         style="fill:none;stroke:#929292;stroke-width:5.0025;stroke-linecap:butt;stroke-linejoin:round;stroke-miterlimit:10;stroke-dasharray:none;stroke-opacity:1"
         d="M 3795,457.5 H 525" /><path
         id="path330"
         style="fill:none;stroke:#929292;stroke-width:5.0025;stroke-linecap:butt;stroke-linejoin:round;stroke-miterlimit:10;stroke-dasharray:none;stroke-opacity:1"
         d="M 3795,580.875 H 525" /><path
         id="path332"
         style="fill:none;stroke:#929292;stroke-width:5.0025;stroke-linecap:butt;stroke-linejoin:round;stroke-miterlimit:10;stroke-dasharray:none;stroke-opacity:1"
         d="M 3795,704.25 H 525" /><path
         id="path334"
         style="fill:none;stroke:#929292;stroke-width:5.0025;stroke-linecap:butt;stroke-linejoin:round;stroke-miterlimit:10;stroke-dasharray:none;stroke-opacity:1"
         d="M 3795,827.625 H 525" /><path
         id="path336"
         style="fill:none;stroke:#929292;stroke-width:5.0025;stroke-linecap:butt;stroke-linejoin:round;stroke-miterlimit:10;stroke-dasharray:none;stroke-opacity:1"
         d="M 3795,951 H 525" /><path
         id="path338"
         style="fill:none;stroke:#929292;stroke-width:5.0025;stroke-linecap:butt;stroke-linejoin:round;stroke-miterlimit:10;stroke-dasharray:none;stroke-opacity:1"
         d="M 3795,1074.38 H 525" /><path
         id="path340"
         style="fill:none;stroke:#929292;stroke-width:5.0025;stroke-linecap:butt;stroke-linejoin:round;stroke-miterlimit:10;stroke-dasharray:none;stroke-opacity:1"
         d="M 3795,1197.75 H 525" /><path
         id="path342"
         style="fill:none;stroke:#929292;stroke-width:5.0025;stroke-linecap:butt;stroke-linejoin:round;stroke-miterlimit:10;stroke-dasharray:none;stroke-opacity:1"
         d="M 3795,1321.13 H 525" /><path
         id="path344"
         style="fill:none;stroke:#929292;stroke-width:5.0025;stroke-linecap:butt;stroke-linejoin:round;stroke-miterlimit:10;stroke-dasharray:none;stroke-opacity:1"
         d="M 3795,1444.5 H 525" /><path
         id="path346"
         style="fill:none;stroke:#929292;stroke-width:5.0025;stroke-linecap:butt;stroke-linejoin:round;stroke-miterlimit:10;stroke-dasharray:none;stroke-opacity:1"
         d="M 3795,1567.88 H 525" /><path
         id="path348"
         style="fill:none;stroke:#929292;stroke-width:5.0025;stroke-linecap:butt;stroke-linejoin:round;stroke-miterlimit:10;stroke-dasharray:none;stroke-opacity:1"
         d="M 3795,1691.25 H 525" /><path
         id="path350"
         style="fill:none;stroke:#929292;stroke-width:5.0025;stroke-linecap:butt;stroke-linejoin:round;stroke-miterlimit:10;stroke-dasharray:none;stroke-opacity:1"
         d="M 3795,1814.63 H 525" /><path
         id="path352"
         style="fill:none;stroke:#929292;stroke-width:5.0025;stroke-linecap:butt;stroke-linejoin:round;stroke-miterlimit:10;stroke-dasharray:none;stroke-opacity:1"
         d="M 3795,1938 H 525" /><path
         id="path354"
         style="fill:none;stroke:#929292;stroke-width:5.0025;stroke-linecap:butt;stroke-linejoin:round;stroke-miterlimit:10;stroke-dasharray:none;stroke-opacity:1"
         d="M 3795,2061.38 H 525" /><path
         id="path356"
         style="fill:none;stroke:#929292;stroke-width:5.0025;stroke-linecap:butt;stroke-linejoin:round;stroke-miterlimit:10;stroke-dasharray:none;stroke-opacity:1"
         d="M 3795,2184.75 H 525" /><path
         id="path358"
         style="fill:none;stroke:#929292;stroke-width:5.0025;stroke-linecap:butt;stroke-linejoin:round;stroke-miterlimit:10;stroke-dasharray:none;stroke-opacity:1"
         d="M 3795,2308.13 H 525" /><path
         id="path360"
         style="fill:none;stroke:#929292;stroke-width:5.0025;stroke-linecap:butt;stroke-linejoin:round;stroke-miterlimit:10;stroke-dasharray:none;stroke-opacity:1"
         d="M 3795,2431.5 H 525" /><path
         id="path362"
         style="fill:none;stroke:#929292;stroke-width:5.0025;stroke-linecap:butt;stroke-linejoin:round;stroke-miterlimit:10;stroke-dasharray:none;stroke-opacity:1"
         d="M 3795,2554.88 H 525" /><path
         id="path364"
         style="fill:none;stroke:#929292;stroke-width:5.0025;stroke-linecap:butt;stroke-linejoin:round;stroke-miterlimit:10;stroke-dasharray:none;stroke-opacity:1"
         d="M 3795,2678.25 H 525" /><path
         id="path366"
         style="fill:none;stroke:#929292;stroke-width:5.0025;stroke-linecap:butt;stroke-linejoin:round;stroke-miterlimit:10;stroke-dasharray:none;stroke-opacity:1"
         d="M 3795,2801.63 H 525" /><path
         id="path368"
         style="fill:none;stroke:#929292;stroke-width:5.0025;stroke-linecap:butt;stroke-linejoin:round;stroke-miterlimit:10;stroke-dasharray:none;stroke-opacity:1"
         d="M 3795,2925 H 525" /><path
         id="path370"
         style="fill:none;stroke:#262626;stroke-width:5.0025;stroke-linecap:square;stroke-linejoin:round;stroke-miterlimit:10;stroke-dasharray:none;stroke-opacity:1"
         d="M 525,457.5 H 3795" /><path
         id="path372"
         style="fill:none;stroke:#262626;stroke-width:5.0025;stroke-linecap:square;stroke-linejoin:round;stroke-miterlimit:10;stroke-dasharray:none;stroke-opacity:1"
         d="M 525,2925 H 3795" /><path
         id="path374"
         style="fill:none;stroke:#262626;stroke-width:5.0025;stroke-linecap:square;stroke-linejoin:round;stroke-miterlimit:10;stroke-dasharray:none;stroke-opacity:1"
         d="m 525,457.5 v 32.699" /><path
         id="path376"
         style="fill:none;stroke:#262626;stroke-width:5.0025;stroke-linecap:square;stroke-linejoin:round;stroke-miterlimit:10;stroke-dasharray:none;stroke-opacity:1"
         d="m 1179,457.5 v 32.699" /><path
         id="path378"
         style="fill:none;stroke:#262626;stroke-width:5.0025;stroke-linecap:square;stroke-linejoin:round;stroke-miterlimit:10;stroke-dasharray:none;stroke-opacity:1"
         d="m 1833,457.5 v 32.699" /><path
         id="path380"
         style="fill:none;stroke:#262626;stroke-width:5.0025;stroke-linecap:square;stroke-linejoin:round;stroke-miterlimit:10;stroke-dasharray:none;stroke-opacity:1"
         d="m 2487,457.5 v 32.699" /><path
         id="path382"
         style="fill:none;stroke:#262626;stroke-width:5.0025;stroke-linecap:square;stroke-linejoin:round;stroke-miterlimit:10;stroke-dasharray:none;stroke-opacity:1"
         d="m 3141,457.5 v 32.699" /><path
         id="path384"
         style="fill:none;stroke:#262626;stroke-width:5.0025;stroke-linecap:square;stroke-linejoin:round;stroke-miterlimit:10;stroke-dasharray:none;stroke-opacity:1"
         d="m 3795,457.5 v 32.699" /><path
         id="path386"
         style="fill:none;stroke:#262626;stroke-width:5.0025;stroke-linecap:square;stroke-linejoin:round;stroke-miterlimit:10;stroke-dasharray:none;stroke-opacity:1"
         d="m 525,2925 v -32.7" /><path
         id="path388"
         style="fill:none;stroke:#262626;stroke-width:5.0025;stroke-linecap:square;stroke-linejoin:round;stroke-miterlimit:10;stroke-dasharray:none;stroke-opacity:1"
         d="m 1179,2925 v -32.7" /><path
         id="path390"
         style="fill:none;stroke:#262626;stroke-width:5.0025;stroke-linecap:square;stroke-linejoin:round;stroke-miterlimit:10;stroke-dasharray:none;stroke-opacity:1"
         d="m 1833,2925 v -32.7" /><path
         id="path392"
         style="fill:none;stroke:#262626;stroke-width:5.0025;stroke-linecap:square;stroke-linejoin:round;stroke-miterlimit:10;stroke-dasharray:none;stroke-opacity:1"
         d="m 2487,2925 v -32.7" /><path
         id="path394"
         style="fill:none;stroke:#262626;stroke-width:5.0025;stroke-linecap:square;stroke-linejoin:round;stroke-miterlimit:10;stroke-dasharray:none;stroke-opacity:1"
         d="m 3141,2925 v -32.7" /><path
         id="path396"
         style="fill:none;stroke:#262626;stroke-width:5.0025;stroke-linecap:square;stroke-linejoin:round;stroke-miterlimit:10;stroke-dasharray:none;stroke-opacity:1"
         d="m 3795,2925 v -32.7" /><g
         transform="scale(10)"
         id="g398"><text
           id="text402"
           style="font-variant:normal;font-weight:normal;font-size:15.9998px;font-family:Helvetica;-inkscape-font-specification:Helvetica;writing-mode:lr-tb;fill:#262626;fill-opacity:1;fill-rule:nonzero;stroke:none"
           transform="matrix(1,0,0,-1,48,25.55)"><tspan
             id="tspan400"
             sodipodi:role="line"
             y="0"
             x="0 60.9002 69.796089 126.30034 135.19623 191.70049 200.59637 257.10062 265.99652 318.00082 326.89673 335.7926">020406080100</tspan></text><text
           id="text406"
           style="font-variant:normal;font-weight:normal;font-size:17.6002px;font-family:Helvetica;-inkscape-font-specification:Helvetica;writing-mode:lr-tb;fill:#262626;fill-opacity:1;fill-rule:nonzero;stroke:none"
           transform="matrix(1,0,0,-1,119.625,3.55)"><tspan
             id="tspan404"
             sodipodi:role="line"
             y="0"
             x="0 12.707344 22.493055 26.400299 36.186012 41.078865 50.864578 54.771824 58.679066 63.571922 72.372025 82.15773 86.06498 95.850693 105.6364 114.4365 119.32935 124.22221 138.88318 153.54414 158.437 168.22272 178.00842 187.79413">Rainfall values [mm/12h]</tspan></text></g><path
         id="path408"
         style="fill:none;stroke:#262626;stroke-width:5.0025;stroke-linecap:square;stroke-linejoin:round;stroke-miterlimit:10;stroke-dasharray:none;stroke-opacity:1"
         d="M 525,457.5 V 2925" /><path
         id="path410"
         style="fill:none;stroke:#262626;stroke-width:5.0025;stroke-linecap:square;stroke-linejoin:round;stroke-miterlimit:10;stroke-dasharray:none;stroke-opacity:1"
         d="M 3795,457.5 V 2925" /><path
         id="path412"
         style="fill:none;stroke:#262626;stroke-width:5.0025;stroke-linecap:square;stroke-linejoin:round;stroke-miterlimit:10;stroke-dasharray:none;stroke-opacity:1"
         d="m 525,457.5 h 32.699" /><path
         id="path414"
         style="fill:none;stroke:#262626;stroke-width:5.0025;stroke-linecap:square;stroke-linejoin:round;stroke-miterlimit:10;stroke-dasharray:none;stroke-opacity:1"
         d="m 525,580.875 h 32.699" /><path
         id="path416"
         style="fill:none;stroke:#262626;stroke-width:5.0025;stroke-linecap:square;stroke-linejoin:round;stroke-miterlimit:10;stroke-dasharray:none;stroke-opacity:1"
         d="m 525,704.25 h 32.699" /><path
         id="path418"
         style="fill:none;stroke:#262626;stroke-width:5.0025;stroke-linecap:square;stroke-linejoin:round;stroke-miterlimit:10;stroke-dasharray:none;stroke-opacity:1"
         d="m 525,827.625 h 32.699" /><path
         id="path420"
         style="fill:none;stroke:#262626;stroke-width:5.0025;stroke-linecap:square;stroke-linejoin:round;stroke-miterlimit:10;stroke-dasharray:none;stroke-opacity:1"
         d="m 525,951 h 32.699" /><path
         id="path422"
         style="fill:none;stroke:#262626;stroke-width:5.0025;stroke-linecap:square;stroke-linejoin:round;stroke-miterlimit:10;stroke-dasharray:none;stroke-opacity:1"
         d="m 525,1074.38 h 32.699" /><path
         id="path424"
         style="fill:none;stroke:#262626;stroke-width:5.0025;stroke-linecap:square;stroke-linejoin:round;stroke-miterlimit:10;stroke-dasharray:none;stroke-opacity:1"
         d="m 525,1197.75 h 32.699" /><path
         id="path426"
         style="fill:none;stroke:#262626;stroke-width:5.0025;stroke-linecap:square;stroke-linejoin:round;stroke-miterlimit:10;stroke-dasharray:none;stroke-opacity:1"
         d="m 525,1321.13 h 32.699" /><path
         id="path428"
         style="fill:none;stroke:#262626;stroke-width:5.0025;stroke-linecap:square;stroke-linejoin:round;stroke-miterlimit:10;stroke-dasharray:none;stroke-opacity:1"
         d="m 525,1444.5 h 32.699" /><path
         id="path430"
         style="fill:none;stroke:#262626;stroke-width:5.0025;stroke-linecap:square;stroke-linejoin:round;stroke-miterlimit:10;stroke-dasharray:none;stroke-opacity:1"
         d="m 525,1567.88 h 32.699" /><path
         id="path432"
         style="fill:none;stroke:#262626;stroke-width:5.0025;stroke-linecap:square;stroke-linejoin:round;stroke-miterlimit:10;stroke-dasharray:none;stroke-opacity:1"
         d="m 525,1691.25 h 32.699" /><path
         id="path434"
         style="fill:none;stroke:#262626;stroke-width:5.0025;stroke-linecap:square;stroke-linejoin:round;stroke-miterlimit:10;stroke-dasharray:none;stroke-opacity:1"
         d="m 525,1814.63 h 32.699" /><path
         id="path436"
         style="fill:none;stroke:#262626;stroke-width:5.0025;stroke-linecap:square;stroke-linejoin:round;stroke-miterlimit:10;stroke-dasharray:none;stroke-opacity:1"
         d="m 525,1938 h 32.699" /><path
         id="path438"
         style="fill:none;stroke:#262626;stroke-width:5.0025;stroke-linecap:square;stroke-linejoin:round;stroke-miterlimit:10;stroke-dasharray:none;stroke-opacity:1"
         d="m 525,2061.38 h 32.699" /><path
         id="path440"
         style="fill:none;stroke:#262626;stroke-width:5.0025;stroke-linecap:square;stroke-linejoin:round;stroke-miterlimit:10;stroke-dasharray:none;stroke-opacity:1"
         d="m 525,2184.75 h 32.699" /><path
         id="path442"
         style="fill:none;stroke:#262626;stroke-width:5.0025;stroke-linecap:square;stroke-linejoin:round;stroke-miterlimit:10;stroke-dasharray:none;stroke-opacity:1"
         d="m 525,2308.13 h 32.699" /><path
         id="path444"
         style="fill:none;stroke:#262626;stroke-width:5.0025;stroke-linecap:square;stroke-linejoin:round;stroke-miterlimit:10;stroke-dasharray:none;stroke-opacity:1"
         d="m 525,2431.5 h 32.699" /><path
         id="path446"
         style="fill:none;stroke:#262626;stroke-width:5.0025;stroke-linecap:square;stroke-linejoin:round;stroke-miterlimit:10;stroke-dasharray:none;stroke-opacity:1"
         d="m 525,2554.88 h 32.699" /><path
         id="path448"
         style="fill:none;stroke:#262626;stroke-width:5.0025;stroke-linecap:square;stroke-linejoin:round;stroke-miterlimit:10;stroke-dasharray:none;stroke-opacity:1"
         d="m 525,2678.25 h 32.699" /><path
         id="path450"
         style="fill:none;stroke:#262626;stroke-width:5.0025;stroke-linecap:square;stroke-linejoin:round;stroke-miterlimit:10;stroke-dasharray:none;stroke-opacity:1"
         d="m 525,2801.63 h 32.699" /><path
         id="path452"
         style="fill:none;stroke:#262626;stroke-width:5.0025;stroke-linecap:square;stroke-linejoin:round;stroke-miterlimit:10;stroke-dasharray:none;stroke-opacity:1"
         d="m 525,2925 h 32.699" /><path
         id="path454"
         style="fill:none;stroke:#262626;stroke-width:5.0025;stroke-linecap:square;stroke-linejoin:round;stroke-miterlimit:10;stroke-dasharray:none;stroke-opacity:1"
         d="m 3795,457.5 h -32.7" /><path
         id="path456"
         style="fill:none;stroke:#262626;stroke-width:5.0025;stroke-linecap:square;stroke-linejoin:round;stroke-miterlimit:10;stroke-dasharray:none;stroke-opacity:1"
         d="m 3795,580.875 h -32.7" /><path
         id="path458"
         style="fill:none;stroke:#262626;stroke-width:5.0025;stroke-linecap:square;stroke-linejoin:round;stroke-miterlimit:10;stroke-dasharray:none;stroke-opacity:1"
         d="m 3795,704.25 h -32.7" /><path
         id="path460"
         style="fill:none;stroke:#262626;stroke-width:5.0025;stroke-linecap:square;stroke-linejoin:round;stroke-miterlimit:10;stroke-dasharray:none;stroke-opacity:1"
         d="m 3795,827.625 h -32.7" /><path
         id="path462"
         style="fill:none;stroke:#262626;stroke-width:5.0025;stroke-linecap:square;stroke-linejoin:round;stroke-miterlimit:10;stroke-dasharray:none;stroke-opacity:1"
         d="m 3795,951 h -32.7" /><path
         id="path464"
         style="fill:none;stroke:#262626;stroke-width:5.0025;stroke-linecap:square;stroke-linejoin:round;stroke-miterlimit:10;stroke-dasharray:none;stroke-opacity:1"
         d="m 3795,1074.38 h -32.7" /><path
         id="path466"
         style="fill:none;stroke:#262626;stroke-width:5.0025;stroke-linecap:square;stroke-linejoin:round;stroke-miterlimit:10;stroke-dasharray:none;stroke-opacity:1"
         d="m 3795,1197.75 h -32.7" /><path
         id="path468"
         style="fill:none;stroke:#262626;stroke-width:5.0025;stroke-linecap:square;stroke-linejoin:round;stroke-miterlimit:10;stroke-dasharray:none;stroke-opacity:1"
         d="m 3795,1321.13 h -32.7" /><path
         id="path470"
         style="fill:none;stroke:#262626;stroke-width:5.0025;stroke-linecap:square;stroke-linejoin:round;stroke-miterlimit:10;stroke-dasharray:none;stroke-opacity:1"
         d="m 3795,1444.5 h -32.7" /><path
         id="path472"
         style="fill:none;stroke:#262626;stroke-width:5.0025;stroke-linecap:square;stroke-linejoin:round;stroke-miterlimit:10;stroke-dasharray:none;stroke-opacity:1"
         d="m 3795,1567.88 h -32.7" /><path
         id="path474"
         style="fill:none;stroke:#262626;stroke-width:5.0025;stroke-linecap:square;stroke-linejoin:round;stroke-miterlimit:10;stroke-dasharray:none;stroke-opacity:1"
         d="m 3795,1691.25 h -32.7" /><path
         id="path476"
         style="fill:none;stroke:#262626;stroke-width:5.0025;stroke-linecap:square;stroke-linejoin:round;stroke-miterlimit:10;stroke-dasharray:none;stroke-opacity:1"
         d="m 3795,1814.63 h -32.7" /><path
         id="path478"
         style="fill:none;stroke:#262626;stroke-width:5.0025;stroke-linecap:square;stroke-linejoin:round;stroke-miterlimit:10;stroke-dasharray:none;stroke-opacity:1"
         d="m 3795,1938 h -32.7" /><path
         id="path480"
         style="fill:none;stroke:#262626;stroke-width:5.0025;stroke-linecap:square;stroke-linejoin:round;stroke-miterlimit:10;stroke-dasharray:none;stroke-opacity:1"
         d="m 3795,2061.38 h -32.7" /><path
         id="path482"
         style="fill:none;stroke:#262626;stroke-width:5.0025;stroke-linecap:square;stroke-linejoin:round;stroke-miterlimit:10;stroke-dasharray:none;stroke-opacity:1"
         d="m 3795,2184.75 h -32.7" /><path
         id="path484"
         style="fill:none;stroke:#262626;stroke-width:5.0025;stroke-linecap:square;stroke-linejoin:round;stroke-miterlimit:10;stroke-dasharray:none;stroke-opacity:1"
         d="m 3795,2308.13 h -32.7" /><path
         id="path486"
         style="fill:none;stroke:#262626;stroke-width:5.0025;stroke-linecap:square;stroke-linejoin:round;stroke-miterlimit:10;stroke-dasharray:none;stroke-opacity:1"
         d="m 3795,2431.5 h -32.7" /><path
         id="path488"
         style="fill:none;stroke:#262626;stroke-width:5.0025;stroke-linecap:square;stroke-linejoin:round;stroke-miterlimit:10;stroke-dasharray:none;stroke-opacity:1"
         d="m 3795,2554.88 h -32.7" /><path
         id="path490"
         style="fill:none;stroke:#262626;stroke-width:5.0025;stroke-linecap:square;stroke-linejoin:round;stroke-miterlimit:10;stroke-dasharray:none;stroke-opacity:1"
         d="m 3795,2678.25 h -32.7" /><path
         id="path492"
         style="fill:none;stroke:#262626;stroke-width:5.0025;stroke-linecap:square;stroke-linejoin:round;stroke-miterlimit:10;stroke-dasharray:none;stroke-opacity:1"
         d="m 3795,2801.63 h -32.7" /><path
         id="path494"
         style="fill:none;stroke:#262626;stroke-width:5.0025;stroke-linecap:square;stroke-linejoin:round;stroke-miterlimit:10;stroke-dasharray:none;stroke-opacity:1"
         d="m 3795,2925 h -32.7" /><g
         transform="scale(10)"
         id="g496"><text
           id="text540"
           style="font-variant:normal;font-weight:normal;font-size:15.9998px;font-family:Helvetica;-inkscape-font-specification:Helvetica;writing-mode:lr-tb;fill:#262626;fill-opacity:1;fill-rule:nonzero;stroke:none"
           transform="matrix(1,0,0,-1,38.3,40.125)"><tspan
             id="tspan498"
             y="0"
             x="0">0</tspan><tspan
             id="tspan500"
             y="-12.3375"
             x="4.5"> </tspan><tspan
             id="tspan502"
             sodipodi:role="line"
             y="-24.674999"
             x="-9 -0.1041112">10</tspan><tspan
             id="tspan504"
             y="-37.012501"
             x="4.5"> </tspan><tspan
             id="tspan506"
             sodipodi:role="line"
             y="-49.349998"
             x="-9 -0.1041112">20</tspan><tspan
             id="tspan508"
             y="-61.6875"
             x="4.5"> </tspan><tspan
             id="tspan510"
             sodipodi:role="line"
             y="-74.025002"
             x="-9 -0.1041112">30</tspan><tspan
             id="tspan512"
             y="-86.362503"
             x="4.5"> </tspan><tspan
             id="tspan514"
             sodipodi:role="line"
             y="-98.699997"
             x="-9 -0.1041112">40</tspan><tspan
             id="tspan516"
             y="-111.0375"
             x="4.5"> </tspan><tspan
             id="tspan518"
             sodipodi:role="line"
             y="-123.375"
             x="-9 -0.1041112">50</tspan><tspan
             id="tspan520"
             y="-135.71249"
             x="4.5"> </tspan><tspan
             id="tspan522"
             sodipodi:role="line"
             y="-148.05"
             x="-9 -0.1041112">60</tspan><tspan
             id="tspan524"
             y="-160.3875"
             x="4.5"> </tspan><tspan
             id="tspan526"
             sodipodi:role="line"
             y="-172.72501"
             x="-9 -0.1041112">70</tspan><tspan
             id="tspan528"
             y="-185.0625"
             x="4.5"> </tspan><tspan
             id="tspan530"
             sodipodi:role="line"
             y="-197.39999"
             x="-9 -0.1041112">80</tspan><tspan
             id="tspan532"
             y="-209.7375"
             x="4.5"> </tspan><tspan
             id="tspan534"
             sodipodi:role="line"
             y="-222.075"
             x="-9 -0.1041112">90</tspan><tspan
             id="tspan536"
             y="-234.41251"
             x="4.5"> </tspan><tspan
             id="tspan538"
             sodipodi:role="line"
             y="-246.75"
             x="-18 -9.1041117 -0.2082224">100</tspan></text><text
           id="text544"
           style="font-variant:normal;font-weight:normal;font-size:17.6002px;font-family:Helvetica;-inkscape-font-specification:Helvetica;writing-mode:lr-tb;fill:#262626;fill-opacity:1;fill-rule:nonzero;stroke:none"
           transform="matrix(0,1,1,0,13.55,109.5)"><tspan
             id="tspan542"
             sodipodi:role="line"
             y="0"
             x="0 11.739333 21.525045 27.385912 36.186012 45.971722 55.757435 60.650288 64.557533 68.464775 78.250488 87.050591 91.943443 97.804314 113.45089">Percentiles (%)</tspan></text></g><path
         id="path546"
         style="fill:none;stroke:#edb120;stroke-width:30;stroke-linecap:butt;stroke-linejoin:round;stroke-miterlimit:10;stroke-dasharray:none;stroke-opacity:1"
         d="m 528.727,482.176 v 24.676 l 2.617,24.671 3.699,24.676 5.227,24.676 11.511,24.676 0.266,24.676 5.781,24.671 0.106,24.676 3.98,24.676 3.602,24.676 4.086,24.676 5.07,24.671 2.289,24.676 4.574,24.676 5.887,24.676 1.898,24.676 9.254,24.671 1.344,24.676 2.355,24.676 17.43,24.676 3.594,24.674 2.906,24.67 0.887,24.68 2.484,24.68 7.453,24.67 1.965,24.68 2.649,24.67 1.109,24.67 7.133,24.68 0.555,24.68 2.976,24.67 5.887,24.67 0.918,24.68 v 24.68 l 10.656,24.67 5.266,24.68 2.422,24.67 3.007,24.67 0.684,24.68 3.629,24.68 16.875,24.67 4.875,24.67 1.469,24.68 1.957,24.68 4.254,24.67 1.925,24.68 5.168,24.67 9.813,24.67 3.336,24.68 6.57,24.68 2.422,24.67 4.937,24.67 2.684,24.68 2.91,24.68 4.809,24.67 3.949,24.68 4.777,24.67 4.645,24.67 7.648,24.68 7.164,24.68 9.684,24.67 5.555,24.67 8.828,24.68 4.808,24.68 8.176,24.67 7.981,24.68 9.382,24.67 1.243,24.67 5.984,24.68 19.098,24.68 7.093,24.67 7.164,24.67 4.575,24.68 12.562,24.68 6.996,24.67 33.645,24.68 18.121,24.67 13.859,24.67 20.047,24.68 12.069,24.68 33.12,24.67 43.76,24.67 2.74,24.68 18.28,24.68 18.55,24.67 38.12,24.68 13.18,24.67 24.85,24.67 14.35,24.68 19.53,24.68 v 24.67 l 1.96,24.67 85.15,24.68 62.56,24.68 43.81,24.67 122.96,24.68 233.54,24.67 151.4,24.67" /><path
         id="path548"
         style="fill:none;stroke:#00ff00;stroke-width:30;stroke-linecap:butt;stroke-linejoin:round;stroke-miterlimit:10;stroke-dasharray:none;stroke-opacity:1"
         d="m 540.105,482.176 v 24.676 l 7.852,24.671 6.93,24.676 22.367,24.676 4.641,24.676 5.886,24.676 12.196,24.671 0.82,24.676 0.922,24.676 7.515,24.676 6.801,24.676 7.949,24.671 1.762,24.676 31.785,24.676 18.219,24.676 31.262,24.676 5.457,24.671 3.437,24.676 5.098,24.676 3.496,24.676 21.555,24.674 0.293,24.67 3.922,24.68 0.789,24.68 1.992,24.67 9.609,24.68 4.289,24.67 13.207,24.67 8.867,24.68 6.571,24.68 2.812,24.67 16.61,24.67 v 24.68 l 0.656,24.68 2.617,24.67 7.027,24.68 2.879,24.67 8.008,24.67 4.285,24.68 14.52,24.68 3.988,24.67 8.606,24.67 7.976,24.68 19.418,24.68 7.981,24.67 2.062,24.68 18.832,24.67 8.34,24.67 12.43,24.68 0.718,24.68 2.454,24.67 10.89,24.67 5.527,24.68 3.981,24.68 2.559,24.67 13.277,24.68 4.379,24.67 5.39,24.67 10.794,24.68 7.23,24.68 2.77,24.67 16.85,24.67 21.52,24.68 3.82,24.68 15.01,24.67 7.55,24.68 4.48,24.67 6.84,24.67 35.71,24.68 44.99,24.68 26.85,24.67 7.29,24.67 20.6,24.68 8.76,24.68 30.71,24.67 14.23,24.68 33.06,24.67 12.39,24.67 17.69,24.68 6.37,24.68 44.31,24.67 29.86,24.67 15.43,24.68 37.28,24.68 97.54,24.67 24.2,24.68 35.48,24.67 85.87,24.67 141.16,24.68 v 24.68 24.67 l 56.12,24.67 55.78,24.68 161.35,24.68 37.86,24.67 112.04,24.68 425.36,24.67 542.13,24.67" /><path
         id="path550"
         style="fill:none;stroke:#7e2f8e;stroke-width:30;stroke-linecap:butt;stroke-linejoin:round;stroke-miterlimit:10;stroke-dasharray:none;stroke-opacity:1"
         d="m 551.289,482.176 v 24.676 l 18.645,24.671 8.828,24.676 24.164,24.676 8.758,24.676 6.968,24.676 7.164,24.671 3.825,24.676 3.035,24.676 22.996,24.676 4.605,24.676 2.258,24.671 31.453,24.676 22.114,24.676 15.14,24.676 36.031,24.676 7.356,24.671 10.762,24.676 12.683,24.676 10.367,24.676 21,24.674 6.278,24.67 12.883,24.68 11.445,24.68 15.008,24.67 17.363,24.68 1.305,24.67 20.64,24.67 6.832,24.68 1.043,24.68 0.098,24.67 v 24.67 l 0.785,24.68 4.481,24.68 4.25,24.67 10.043,24.68 16.05,24.67 12.594,24.67 3.891,24.68 12.621,24.68 30.999,24.67 1.93,24.67 6.73,24.68 11.75,24.68 8.01,24.67 8.5,24.68 7.46,24.67 3.85,24.67 33.36,24.68 6.86,24.68 14.55,24.67 1.51,24.67 3.04,24.68 4.9,24.68 11.71,24.67 15.37,24.68 1.67,24.67 17.43,24.67 32.93,24.68 20.66,24.68 v 24.67 l 8.74,24.67 13.73,24.68 12.79,24.68 17.03,24.67 15.96,24.68 24.23,24.67 32.57,24.67 26.03,24.68 26.26,24.68 50.42,24.67 26.65,24.67 15.83,24.68 13.37,24.68 12.1,24.67 9.68,24.68 20.76,24.67 11.61,24.67 86.46,24.68 16.81,24.68 32.27,24.67 27.83,24.67 94.53,24.68 88.72,24.68 89.96,24.67 48.33,24.68 151.83,24.67 40.12,24.67 46.37,24.68 103.63,24.68 v 24.67 l 13.2,24.67 101.25,24.68 119.64,24.68 62.69,24.67 305.02,24.68 225.47,24.67 573.23,19.51" /><path
         id="path552"
         style="fill:none;stroke:#00ffff;stroke-width:30;stroke-linecap:butt;stroke-linejoin:round;stroke-miterlimit:10;stroke-dasharray:none;stroke-opacity:1"
         d="m 572.543,482.176 v 24.676 l 16.91,24.671 21.453,24.676 20.438,24.676 4.64,24.676 8.993,24.676 4.41,24.671 0.789,24.676 6.051,24.676 43.164,24.676 10.492,24.676 17.469,24.671 24.484,24.676 26.715,24.676 24.008,24.676 19.679,24.676 2.981,24.671 4.515,24.676 34.5,24.676 18.5,24.676 12.039,24.674 19.911,24.67 21.91,24.68 17.465,24.68 1.015,24.67 14.317,24.68 23.871,24.67 13.438,24.67 14.52,24.68 0.75,24.68 2.36,24.67 29.59,24.67 v 24.68 l 3.21,24.68 3.82,24.67 10.47,24.68 8.21,24.67 9.28,24.67 18.38,24.68 7.26,24.68 26.49,24.67 11.05,24.67 24.33,24.68 11.77,24.68 16.74,24.67 13.74,24.68 15.43,24.67 12.13,24.67 8.31,24.68 4.51,24.68 2.55,24.67 18.87,24.67 34.66,24.68 13.47,24.68 4.84,24.67 2.09,24.68 10.37,24.67 2.56,24.67 13.13,24.68 21.2,24.68 32.83,24.67 19.91,24.67 2.65,24.68 13.87,24.68 23.18,24.67 18.18,24.68 20.05,24.67 34.49,24.67 49.44,24.68 22.37,24.68 37.09,24.67 43.03,24.67 6.8,24.68 23.12,24.68 8.44,24.67 22.62,24.68 4.45,24.67 44.9,24.67 62.95,24.68 27.57,24.68 107.18,24.67 71.39,24.67 125.18,24.68 114.93,24.68 103.14,24.67 68.21,24.68 69.29,24.67 20.86,24.67 v 24.68 24.68 l 36.92,24.67 174.49,24.67 33.48,24.68 152.95,24.68 64.41,24.67 376.7,24.68 98.66,24.67 276.87,7.88" /><path
         id="path554"
         style="fill:none;stroke:#0072bd;stroke-width:30;stroke-linecap:butt;stroke-linejoin:round;stroke-miterlimit:10;stroke-dasharray:none;stroke-opacity:1"
         d="m 610.836,482.176 v 24.676 l 33.422,24.671 28.086,24.676 12.457,24.676 4.187,24.676 24.727,24.676 11.601,24.671 15.797,24.676 v 24.676 l 46.535,24.676 18.571,24.676 10.859,24.671 43.262,24.676 35.969,24.676 10.23,24.676 15.832,24.676 6.473,24.671 8.703,24.676 28.348,24.676 52.385,24.676 16.55,24.674 16.28,24.67 17.14,24.68 21.41,24.68 53.6,24.67 24.39,24.68 7.98,24.67 v 24.67 l 1.47,24.68 2.79,24.68 15.59,24.67 47.77,24.67 2.13,24.68 2.91,24.68 7.72,24.67 3.23,24.68 54.98,24.67 26.48,24.67 31.56,24.68 13.37,24.68 32.83,24.67 5.53,24.67 6.11,24.68 10.17,24.68 14.13,24.67 13.57,24.68 2.42,24.67 17.27,24.67 15.14,24.68 18.93,24.68 27.01,24.67 27.21,24.67 63.76,24.68 19.69,24.68 17.89,24.67 13.7,24.68 19.06,24.67 38.36,24.67 24.58,24.68 29.93,24.68 v 24.67 l 15.82,24.67 21.23,24.68 20.1,24.68 14.04,24.67 9.25,24.68 16.87,24.67 30.87,24.67 49.54,24.68 13.47,24.68 11.41,24.67 34.89,24.67 30.41,24.68 9.75,24.68 3.04,24.67 12.75,24.68 56.64,24.67 71.71,24.67 153.73,24.68 59.35,24.68 28.51,24.67 99.8,24.67 222.49,24.68 68.57,24.68 97.25,24.67 22.57,24.68 v 24.67 l 20.66,24.67 156.67,24.68 55.85,24.68 114.16,24.67 100.74,24.67 257.42,24.68 112.91,21.5" /><path
         id="path556"
         style="fill:none;stroke:#ff00ff;stroke-width:30;stroke-linecap:butt;stroke-linejoin:round;stroke-miterlimit:10;stroke-dasharray:none;stroke-opacity:1"
         d="m 658.641,482.176 v 24.676 l 44.906,24.671 54.539,24.676 14.586,24.676 27.269,24.676 36.43,24.676 5.527,24.671 37.508,24.676 42.442,24.676 23.183,24.676 32.832,24.676 48.497,24.671 v 24.676 l 6.14,24.676 22.37,24.676 17.66,24.676 110.03,24.671 18.9,24.676 12.53,24.676 42.77,24.676 21.65,24.674 43.42,24.67 13.6,24.68 3.41,24.68 41.27,24.67 7.52,24.68 8.66,24.67 15.86,24.67 13.21,24.68 28.06,24.68 82.6,24.67 28.58,24.67 3.82,24.68 22.6,24.68 19.91,24.67 17.96,24.68 6.37,24.67 24.4,24.67 24.68,24.68 22.41,24.68 23.34,24.67 26.46,24.67 17.43,24.68 11.44,24.68 87.74,24.67 16.18,24.68 24.98,24.67 5.31,24.67 7.58,24.68 82.63,24.68 61.34,24.67 45.98,24.67 33.75,24.68 24.33,24.68 59.39,24.67 3.75,24.68 21.09,24.67 25.64,24.67 16.25,24.68 8.31,24.68 10.59,24.67 13.12,24.67 7.78,24.68 19.25,24.68 9.39,24.67 58.08,24.68 14.62,24.67 44.43,24.67 21.68,24.68 28.26,24.68 43.75,24.67 19.39,24.67 69,24.68 55.36,24.68 13.31,24.67 19.43,24.68 105.48,24.67 36.2,24.67 47.26,24.68 155.88,24.68 141.55,24.67 83.32,24.67 60.85,24.68 128.78,24.68 v 24.67 24.68 l 104.77,24.67 42.25,24.67 131.94,24.14" /><path
         id="path558"
         style="fill:none;stroke:#d95319;stroke-width:30;stroke-linecap:butt;stroke-linejoin:round;stroke-miterlimit:10;stroke-dasharray:none;stroke-opacity:1"
         d="m 711.848,482.176 v 24.676 l 53.73,24.671 57.188,24.676 46.761,24.676 34.532,24.676 23.082,24.676 35.32,24.671 27.211,24.676 68.668,24.676 37.04,24.676 23.42,24.676 35.61,24.671 57.22,24.676 15.08,24.676 113.73,24.676 25.6,24.676 28.62,24.671 35.25,24.676 V 951 l 21.32,24.676 24.85,24.674 49.35,24.67 28.41,24.68 0.2,24.68 75.57,24.67 27.37,24.68 20.34,24.67 15.76,24.67 20.14,24.68 74.46,24.68 51.5,24.67 49.15,24.67 14.52,24.68 25.27,24.68 24.99,24.67 46.46,24.68 10.66,24.67 45.52,24.67 47.65,24.68 9.74,24.68 3.3,24.67 26.88,24.67 11.19,24.68 7.61,24.68 25.7,24.67 18.16,24.68 22.23,24.67 132.9,24.67 31.98,24.68 1.53,24.68 29.72,24.67 9.46,24.67 0.26,24.68 17.92,24.68 91.43,24.67 22.53,24.68 12.75,24.67 11.19,24.67 39.1,24.68 5.6,24.68 22.59,24.67 36.99,24.67 63.4,24.68 58.01,24.68 9.18,24.67 39.77,24.68 24.11,24.67 10.94,24.67 63.18,24.68 34.8,24.68 20.89,24.67 71.78,24.67 70.92,24.68 2.03,24.68 15.76,24.67 23.55,24.68 83.51,24.67 54.87,24.67 67.37,24.68 290.47,24.68 96.69,23.93" /><path
         id="path560"
         style="fill:none;stroke:#edb120;stroke-width:30;stroke-linecap:butt;stroke-linejoin:bevel;stroke-miterlimit:10;stroke-dasharray:30, 30;stroke-dashoffset:0;stroke-opacity:1"
         d="m 525,482.176 v 123.375 l 1.148,24.676 1.469,24.671 0.36,24.676 0.82,24.676 1.273,24.676 0.981,24.676 0.519,24.671 0.758,24.676 3.496,24.676 0.36,24.676 1.078,24.676 0.722,24.671 1.567,24.676 2.355,24.676 0.457,24.676 0.098,24.674 v 24.67 l 2.391,24.68 2.511,24.68 0.985,24.67 0.847,24.68 0.621,24.67 0.954,24.67 0.816,24.68 1.996,24.68 3.66,24.67 1.469,24.67 0.75,24.68 0.203,24.68 4.246,24.67 4.68,24.68 0.164,24.67 1.762,24.67 1.113,24.68 0.297,24.68 2.679,24.67 0.098,24.67 1.274,24.68 2.289,24.68 3.531,24.67 0.719,24.68 1.996,24.67 1.441,24.67 1.996,24.68 2.09,24.68 1.375,24.67 1.828,24.67 0.758,24.68 0.422,24.68 0.719,24.67 0.425,24.68 v 24.67 l 2.485,24.67 3.695,24.68 2.91,24.68 4.742,24.67 0.786,24.67 2.257,24.68 2.153,24.68 2.98,24.67 0.852,24.68 1.472,24.67 6.571,24.67 3.793,24.68 8.5,24.68 4.347,24.67 3.727,24.67 1.676,24.68 4.64,24.68 3.758,24.67 1.899,24.68 6.929,24.67 6.344,24.67 5.691,24.68 2.618,24.68 4.808,24.67 1.996,24.67 5.977,24.68 8.312,24.68 6.278,24.67 10.039,24.68 4.312,24.67 14.492,24.67 4.739,24.68 12.918,24.68 v 24.67 l 0.484,24.67 39.699,24.68 11.383,24.68 8.207,24.67 27.238,24.68 5.95,24.67 77.273,24.67" /><path
         id="path562"
         style="fill:none;stroke:#00ff00;stroke-width:30;stroke-linecap:butt;stroke-linejoin:bevel;stroke-miterlimit:10;stroke-dasharray:30, 30;stroke-dashoffset:0;stroke-opacity:1"
         d="m 528.797,482.176 v 24.676 l 2.09,24.671 4.254,24.676 4.312,24.676 12.524,24.676 17.265,24.676 0.488,24.671 2.586,24.676 8.633,24.676 3.895,24.676 10.133,24.676 7.785,24.671 0.949,24.676 9.25,24.676 5.43,24.676 10.07,24.676 9.422,24.671 0.914,24.676 21.219,24.676 3.961,24.676 1.664,24.674 4.484,24.67 0.156,24.68 0.692,24.68 2.648,24.67 2.063,24.68 10.296,24.67 3.075,24.67 3.172,24.68 0.554,24.68 7.36,24.67 10.531,24.67 1.207,24.68 1.437,24.68 2.036,24.67 9.187,24.68 8.856,24.67 7.949,24.67 1.375,24.68 7.883,24.68 5.878,24.67 0.458,24.67 4.484,24.68 4.281,24.68 6.348,24.67 0.066,24.68 2.61,24.67 11.183,24.67 2.813,24.68 5.3,24.68 4.215,24.67 2.551,24.67 1.606,24.68 0.816,24.68 3.992,24.67 2.578,24.68 3.008,24.67 8.77,24.67 2.812,24.68 4.641,24.68 5.558,24.67 v 24.67 l 6.051,24.68 12.324,24.68 14.657,24.67 7.257,24.68 13.735,24.67 3.66,24.67 5.398,24.68 4.508,24.68 9.547,24.67 13.742,24.67 6.899,24.68 3.465,24.68 4.351,24.67 21.313,24.68 12.496,24.67 16.515,24.67 7.223,24.68 11.999,24.68 3.77,24.67 14.31,24.67 17.11,24.68 11.74,24.68 12.62,24.67 36.19,24.68 46.9,24.67 17.46,24.67 63.83,24.68 2.85,24.68 v 24.67 l 11.74,24.67 43.52,24.68 43.03,24.68 62.4,24.67 113.99,24.68 50.29,24.67 226.31,24.67" /><path
         id="path564"
         style="fill:none;stroke:#7e2f8e;stroke-width:30;stroke-linecap:butt;stroke-linejoin:bevel;stroke-miterlimit:10;stroke-dasharray:30, 30;stroke-dashoffset:0;stroke-opacity:1"
         d="m 540.238,482.176 v 24.676 l 9.91,24.671 9.024,24.676 21.058,24.676 32.309,24.676 22.434,24.676 0.195,24.671 5.754,24.676 12.164,24.676 9.156,24.676 14.715,24.676 9.809,24.671 16.937,24.676 16.942,24.676 12.652,24.676 1.769,24.676 23.184,24.671 15.008,24.676 16.125,24.676 16.445,24.676 2.453,24.674 15.301,24.67 3.309,24.68 6.113,24.68 3.199,24.67 v 24.68 l 0.496,24.67 5.785,24.67 5.625,24.68 8.438,24.68 4.476,24.67 5.661,24.67 7.222,24.68 12.985,24.68 8.047,24.67 2.714,24.68 5.586,24.67 19.524,24.67 3.105,24.68 4.028,24.68 9.511,24.67 4.348,24.67 13.18,24.68 16.086,24.68 1.343,24.67 3.043,24.68 0.684,24.67 5.887,24.67 3.894,24.68 2.414,24.68 4.254,24.67 5.761,24.67 4.18,24.68 1.83,24.68 12.1,24.67 4.64,24.68 1.51,24.67 19.88,24.67 21.55,24.68 4.58,24.68 3.92,24.67 4.94,24.67 7.19,24.68 0.82,24.68 15.08,24.67 16.25,24.68 4.57,24.67 4.19,24.67 5.98,24.68 12.79,24.68 22.14,24.67 8.24,24.67 16.64,24.68 27.08,24.68 14.52,24.67 4.67,24.68 29.57,24.67 10.92,24.67 25.27,24.68 21.72,24.68 20.24,24.67 34.24,24.67 17.33,24.68 10.07,24.68 47.48,24.67 40.71,24.68 48.95,24.67 56.28,24.67 67.65,24.68 v 24.68 24.67 l 44.68,24.67 131.91,24.68 16.02,24.68 63.96,24.67 220.14,24.68 142.96,24.67 369.44,24.67" /><path
         id="path566"
         style="fill:none;stroke:#00ffff;stroke-width:30;stroke-linecap:butt;stroke-linejoin:bevel;stroke-miterlimit:10;stroke-dasharray:30, 30;stroke-dashoffset:0;stroke-opacity:1"
         d="m 557.672,482.176 v 24.676 l 20.367,24.671 19.75,24.676 29.633,24.676 58.07,24.676 15.336,24.676 2.418,24.671 10.207,24.676 1.5,24.676 31.231,24.676 18.8,24.676 7.329,24.671 33.613,24.676 9.09,24.676 17.035,24.676 19.004,24.676 14.023,24.671 51.047,24.676 14.063,24.676 14.16,24.676 5.722,24.674 2.578,24.67 4.579,24.68 28.191,24.68 0.391,24.67 7.98,24.68 3.199,24.67 0.856,24.67 3.886,24.68 2.88,24.68 v 24.67 l 15.37,24.67 21.19,24.68 8.57,24.68 3.37,24.67 2.68,24.68 10.69,24.67 14.13,24.67 7.12,24.68 10.6,24.68 2.29,24.67 4.97,24.67 17.43,24.68 8.04,24.68 6.97,24.67 16.71,24.68 11.61,24.67 6.5,24.67 4.32,24.68 9.97,24.68 1.05,24.67 1.01,24.67 2.52,24.68 2.71,24.68 27.11,24.67 3.99,24.68 14.06,24.67 9.81,24.67 7.59,24.68 9.58,24.68 12.75,24.67 23.15,24.67 2.49,24.68 2.75,24.68 19.29,24.67 16.02,24.68 8.6,24.67 21.03,24.67 6.71,24.68 17.55,24.68 9.12,24.67 23.29,24.67 20.34,24.68 26.06,24.68 22.59,24.67 14.76,24.68 11.7,24.67 69.81,24.67 44.31,24.68 23.74,24.68 2.42,24.67 23.02,24.67 24.33,24.68 68.28,24.68 23.58,24.67 96.92,24.68 47.57,24.67 43.01,24.67 43.95,24.68 v 24.68 24.67 l 112.75,24.67 136.52,24.68 112.22,24.68 68.16,24.67 294.32,24.68 172.47,24.67 507.89,24.67" /><path
         id="path568"
         style="fill:none;stroke:#0072bd;stroke-width:30;stroke-linecap:butt;stroke-linejoin:bevel;stroke-miterlimit:10;stroke-dasharray:30, 30;stroke-dashoffset:0;stroke-opacity:1"
         d="m 611.527,482.176 v 24.676 l 47.575,24.671 31.035,24.676 59.707,24.676 69.914,24.676 20.699,24.676 25.469,24.671 8.246,24.676 0.621,24.676 27.961,24.676 36.883,24.676 38.324,24.671 7.223,24.676 36.786,24.676 20.67,24.676 20.44,24.676 45.03,24.671 33.09,24.676 48.04,24.676 31.45,24.676 9.78,24.674 9.03,24.67 8.56,24.68 8.89,24.68 9.39,24.67 18.09,24.68 27.43,24.67 10.07,24.67 0.85,24.68 6.25,24.68 12.26,24.67 v 24.67 l 2.72,24.68 22.43,24.68 18.8,24.67 11.28,24.68 17.79,24.67 1.14,24.67 5.89,24.68 8.5,24.68 8.02,24.67 17.94,24.67 5.11,24.68 14.94,24.68 13.51,24.67 34.33,24.68 27.99,24.67 8.8,24.67 7.94,24.68 4.88,24.68 2.35,24.67 12.36,24.67 20.21,24.68 14.65,24.68 6.31,24.67 8.83,24.68 4.61,24.67 25.8,24.67 20.96,24.68 15.11,24.68 8.5,24.67 24.69,24.67 24.3,24.68 2.78,24.68 6.24,24.67 17.92,24.68 16.28,24.67 15.21,24.67 10.72,24.68 43.04,24.68 37.51,24.67 36.16,24.67 13.27,24.68 13.8,24.68 44.02,24.67 34.63,24.68 10.5,24.67 94.86,24.67 27.83,24.68 25.05,24.68 94.47,24.67 6.14,24.67 117.17,24.68 96.17,24.68 54.18,24.67 82.8,24.68 80.67,24.67 89.99,24.67 v 24.68 24.68 l 128.09,24.67 93.29,24.67 156.76,24.68 113.64,24.68 96.62,24.67 342.24,24.68 31.36,2.06" /><path
         id="path570"
         style="fill:none;stroke:#ff00ff;stroke-width:30;stroke-linecap:butt;stroke-linejoin:bevel;stroke-miterlimit:10;stroke-dasharray:30, 30;stroke-dashoffset:0;stroke-opacity:1"
         d="m 721.988,482.176 v 24.676 l 93.352,24.671 38.101,24.676 93.098,24.676 56.991,24.676 40.25,24.676 35.81,24.671 26.55,24.676 35.81,24.676 7.16,24.676 29.37,24.676 74.29,24.671 40.55,24.676 12.49,24.676 68.51,24.676 60.13,24.676 84.5,24.671 15.21,24.676 7.68,24.676 78.38,24.676 3.76,24.674 39.18,24.67 20.36,24.68 19.04,24.68 13.15,24.67 13.66,24.68 23.64,24.67 23.45,24.67 37.35,24.68 4.12,24.68 5.36,24.67 10.66,24.67 28.58,24.68 10.79,24.68 v 24.67 l 6.11,24.68 13.02,24.67 40.12,24.67 22.82,24.68 5.7,24.68 5.39,24.67 25.47,24.67 19.92,24.68 8.4,24.68 23.52,24.67 9.51,24.68 32.04,24.67 20.61,24.67 23.22,24.68 1.73,24.68 25.01,24.67 5.2,24.67 30.44,24.68 14.52,24.68 35.09,24.67 20.8,24.68 9.84,24.67 25.9,24.67 27.6,24.68 20.54,24.68 v 24.67 l 16.93,24.67 7.59,24.68 32.5,24.68 2.98,24.67 69.84,24.68 42.22,24.67 26.3,24.67 20.69,24.68 50.91,24.68 45.09,24.67 55.8,24.67 25.08,24.68 9.71,24.68 21.32,24.67 84.56,24.68 101.44,24.67 72.59,24.67 12.43,24.68 129.29,24.68 75.41,24.67 27.82,24.67 206.47,24.68 31.4,24.68 177.69,24.67 103.43,24.68 0.06,0.01" /><path
         id="path572"
         style="fill:none;stroke:#d95319;stroke-width:30;stroke-linecap:butt;stroke-linejoin:bevel;stroke-miterlimit:10;stroke-dasharray:30, 30;stroke-dashoffset:0;stroke-opacity:1"
         d="m 817.336,482.176 v 24.676 l 141.301,24.671 52.653,24.676 127.98,24.676 30.67,24.676 62.99,24.676 40.51,24.671 51.86,24.676 5.66,24.676 20.2,24.676 79.34,24.676 62.39,24.671 46.89,24.676 29.99,24.676 48.16,24.676 58.24,24.676 87.67,24.671 19.78,24.676 91.53,24.676 82.08,24.676 29.56,24.674 28.97,24.67 28.58,24.68 10.56,24.68 10.53,24.67 10.73,24.68 22.79,24.67 2.22,24.67 25.05,24.68 9.68,24.68 12.92,24.67 57.19,24.67 4.44,24.68 v 24.68 l 62.37,24.67 46.47,24.68 12.62,24.67 5.42,24.67 12.3,24.68 23.61,24.68 17.95,24.67 8.21,24.67 30.67,24.68 33.03,24.68 37.56,24.67 51.48,24.68 32.11,24.67 33.26,24.67 14.45,24.68 19.69,24.68 46.24,24.67 34.29,24.67 4.06,24.68 1.97,24.68 9.28,24.67 18.05,24.68 37.47,24.67 27.17,24.67 28.42,24.68 44.18,24.68 v 24.67 l 3.27,24.67 10.2,24.68 11.84,24.68 41.23,24.67 8.11,24.68 52.1,24.67 64.12,24.67 77.21,24.68 34.39,24.68 7.89,24.67 40.38,24.67 99.31,24.68 29.21,24.68 19.22,24.67 43.46,24.68 76.75,24.67 51.27,24.67 222.65,24.2" /></g></g></svg>
