<?xml version="1.0" encoding="UTF-8" standalone="no"?>
<svg
   xmlns:dc="http://purl.org/dc/elements/1.1/"
   xmlns:cc="http://creativecommons.org/ns#"
   xmlns:rdf="http://www.w3.org/1999/02/22-rdf-syntax-ns#"
   xmlns:svg="http://www.w3.org/2000/svg"
   xmlns="http://www.w3.org/2000/svg"
   xmlns:sodipodi="http://sodipodi.sourceforge.net/DTD/sodipodi-0.dtd"
   xmlns:inkscape="http://www.inkscape.org/namespaces/inkscape"
   inkscape:version="1.0 (4035a4fb49, 2020-05-01)"
   sodipodi:docname="RainFR_RainExtr_EFFCI01_Sierra_ZoomIn.svg"
   viewBox="0 0 524 398.66666"
   height="398.66666"
   width="524"
   xml:space="preserve"
   id="svg862"
   version="1.1"><metadata
     id="metadata868"><rdf:RDF><cc:Work
         rdf:about=""><dc:format>image/svg+xml</dc:format><dc:type
           rdf:resource="http://purl.org/dc/dcmitype/StillImage" /><dc:title></dc:title></cc:Work></rdf:RDF></metadata><defs
     id="defs866" /><sodipodi:namedview
     inkscape:current-layer="g870"
     inkscape:window-maximized="0"
     inkscape:window-y="0"
     inkscape:window-x="0"
     inkscape:cy="199.33333"
     inkscape:cx="262"
     inkscape:zoom="1.8436455"
     showgrid="false"
     id="namedview864"
     inkscape:window-height="510"
     inkscape:window-width="743"
     inkscape:pageshadow="2"
     inkscape:pageopacity="0"
     guidetolerance="10"
     gridtolerance="10"
     objecttolerance="10"
     borderopacity="1"
     bordercolor="#666666"
     pagecolor="#ffffff" /><g
     transform="matrix(1.3333333,0,0,-1.3333333,0,398.66667)"
     inkscape:label="ink_ext_XXXXXX"
     inkscape:groupmode="layer"
     id="g870"><g
       transform="scale(0.1)"
       id="g872"><path
         id="path874"
         style="fill:#ffffff;fill-opacity:1;fill-rule:nonzero;stroke:none"
         d="M -30,0 H 4200 V 3165 H -30 Z" /><path
         id="path876"
         style="fill:#ffffff;fill-opacity:1;fill-rule:nonzero;stroke:none"
         d="M -30,0 H 4200 V 3165 H -30 Z" /><path
         id="path878"
         style="fill:#ffffff;fill-opacity:1;fill-rule:nonzero;stroke:none"
         d="M 525,457.5 H 3795 V 2925 H 525 Z" /><path
         id="path880"
         style="fill:none;stroke:#929292;stroke-width:5.0025;stroke-linecap:butt;stroke-linejoin:round;stroke-miterlimit:10;stroke-dasharray:none;stroke-opacity:1"
         d="M 525,457.5 V 2925" /><path
         id="path882"
         style="fill:none;stroke:#929292;stroke-width:5.0025;stroke-linecap:butt;stroke-linejoin:round;stroke-miterlimit:10;stroke-dasharray:none;stroke-opacity:1"
         d="M 1179,457.5 V 2925" /><path
         id="path884"
         style="fill:none;stroke:#929292;stroke-width:5.0025;stroke-linecap:butt;stroke-linejoin:round;stroke-miterlimit:10;stroke-dasharray:none;stroke-opacity:1"
         d="M 1833,457.5 V 2925" /><path
         id="path886"
         style="fill:none;stroke:#929292;stroke-width:5.0025;stroke-linecap:butt;stroke-linejoin:round;stroke-miterlimit:10;stroke-dasharray:none;stroke-opacity:1"
         d="M 2487,457.5 V 2925" /><path
         id="path888"
         style="fill:none;stroke:#929292;stroke-width:5.0025;stroke-linecap:butt;stroke-linejoin:round;stroke-miterlimit:10;stroke-dasharray:none;stroke-opacity:1"
         d="M 3141,457.5 V 2925" /><path
         id="path890"
         style="fill:none;stroke:#929292;stroke-width:5.0025;stroke-linecap:butt;stroke-linejoin:round;stroke-miterlimit:10;stroke-dasharray:none;stroke-opacity:1"
         d="M 3795,457.5 V 2925" /><path
         id="path892"
         style="fill:none;stroke:#929292;stroke-width:5.0025;stroke-linecap:butt;stroke-linejoin:round;stroke-miterlimit:10;stroke-dasharray:none;stroke-opacity:1"
         d="M 3795,457.5 H 525" /><path
         id="path894"
         style="fill:none;stroke:#929292;stroke-width:5.0025;stroke-linecap:butt;stroke-linejoin:round;stroke-miterlimit:10;stroke-dasharray:none;stroke-opacity:1"
         d="M 3795,580.875 H 525" /><path
         id="path896"
         style="fill:none;stroke:#929292;stroke-width:5.0025;stroke-linecap:butt;stroke-linejoin:round;stroke-miterlimit:10;stroke-dasharray:none;stroke-opacity:1"
         d="M 3795,704.25 H 525" /><path
         id="path898"
         style="fill:none;stroke:#929292;stroke-width:5.0025;stroke-linecap:butt;stroke-linejoin:round;stroke-miterlimit:10;stroke-dasharray:none;stroke-opacity:1"
         d="M 3795,827.625 H 525" /><path
         id="path900"
         style="fill:none;stroke:#929292;stroke-width:5.0025;stroke-linecap:butt;stroke-linejoin:round;stroke-miterlimit:10;stroke-dasharray:none;stroke-opacity:1"
         d="M 3795,951 H 525" /><path
         id="path902"
         style="fill:none;stroke:#929292;stroke-width:5.0025;stroke-linecap:butt;stroke-linejoin:round;stroke-miterlimit:10;stroke-dasharray:none;stroke-opacity:1"
         d="M 3795,1074.38 H 525" /><path
         id="path904"
         style="fill:none;stroke:#929292;stroke-width:5.0025;stroke-linecap:butt;stroke-linejoin:round;stroke-miterlimit:10;stroke-dasharray:none;stroke-opacity:1"
         d="M 3795,1197.75 H 525" /><path
         id="path906"
         style="fill:none;stroke:#929292;stroke-width:5.0025;stroke-linecap:butt;stroke-linejoin:round;stroke-miterlimit:10;stroke-dasharray:none;stroke-opacity:1"
         d="M 3795,1321.13 H 525" /><path
         id="path908"
         style="fill:none;stroke:#929292;stroke-width:5.0025;stroke-linecap:butt;stroke-linejoin:round;stroke-miterlimit:10;stroke-dasharray:none;stroke-opacity:1"
         d="M 3795,1444.5 H 525" /><path
         id="path910"
         style="fill:none;stroke:#929292;stroke-width:5.0025;stroke-linecap:butt;stroke-linejoin:round;stroke-miterlimit:10;stroke-dasharray:none;stroke-opacity:1"
         d="M 3795,1567.88 H 525" /><path
         id="path912"
         style="fill:none;stroke:#929292;stroke-width:5.0025;stroke-linecap:butt;stroke-linejoin:round;stroke-miterlimit:10;stroke-dasharray:none;stroke-opacity:1"
         d="M 3795,1691.25 H 525" /><path
         id="path914"
         style="fill:none;stroke:#929292;stroke-width:5.0025;stroke-linecap:butt;stroke-linejoin:round;stroke-miterlimit:10;stroke-dasharray:none;stroke-opacity:1"
         d="M 3795,1814.63 H 525" /><path
         id="path916"
         style="fill:none;stroke:#929292;stroke-width:5.0025;stroke-linecap:butt;stroke-linejoin:round;stroke-miterlimit:10;stroke-dasharray:none;stroke-opacity:1"
         d="M 3795,1938 H 525" /><path
         id="path918"
         style="fill:none;stroke:#929292;stroke-width:5.0025;stroke-linecap:butt;stroke-linejoin:round;stroke-miterlimit:10;stroke-dasharray:none;stroke-opacity:1"
         d="M 3795,2061.38 H 525" /><path
         id="path920"
         style="fill:none;stroke:#929292;stroke-width:5.0025;stroke-linecap:butt;stroke-linejoin:round;stroke-miterlimit:10;stroke-dasharray:none;stroke-opacity:1"
         d="M 3795,2184.75 H 525" /><path
         id="path922"
         style="fill:none;stroke:#929292;stroke-width:5.0025;stroke-linecap:butt;stroke-linejoin:round;stroke-miterlimit:10;stroke-dasharray:none;stroke-opacity:1"
         d="M 3795,2308.13 H 525" /><path
         id="path924"
         style="fill:none;stroke:#929292;stroke-width:5.0025;stroke-linecap:butt;stroke-linejoin:round;stroke-miterlimit:10;stroke-dasharray:none;stroke-opacity:1"
         d="M 3795,2431.5 H 525" /><path
         id="path926"
         style="fill:none;stroke:#929292;stroke-width:5.0025;stroke-linecap:butt;stroke-linejoin:round;stroke-miterlimit:10;stroke-dasharray:none;stroke-opacity:1"
         d="M 3795,2554.88 H 525" /><path
         id="path928"
         style="fill:none;stroke:#929292;stroke-width:5.0025;stroke-linecap:butt;stroke-linejoin:round;stroke-miterlimit:10;stroke-dasharray:none;stroke-opacity:1"
         d="M 3795,2678.25 H 525" /><path
         id="path930"
         style="fill:none;stroke:#929292;stroke-width:5.0025;stroke-linecap:butt;stroke-linejoin:round;stroke-miterlimit:10;stroke-dasharray:none;stroke-opacity:1"
         d="M 3795,2801.63 H 525" /><path
         id="path932"
         style="fill:none;stroke:#929292;stroke-width:5.0025;stroke-linecap:butt;stroke-linejoin:round;stroke-miterlimit:10;stroke-dasharray:none;stroke-opacity:1"
         d="M 3795,2925 H 525" /><path
         id="path934"
         style="fill:none;stroke:#262626;stroke-width:5.0025;stroke-linecap:square;stroke-linejoin:round;stroke-miterlimit:10;stroke-dasharray:none;stroke-opacity:1"
         d="M 525,457.5 H 3795" /><path
         id="path936"
         style="fill:none;stroke:#262626;stroke-width:5.0025;stroke-linecap:square;stroke-linejoin:round;stroke-miterlimit:10;stroke-dasharray:none;stroke-opacity:1"
         d="M 525,2925 H 3795" /><path
         id="path938"
         style="fill:none;stroke:#262626;stroke-width:5.0025;stroke-linecap:square;stroke-linejoin:round;stroke-miterlimit:10;stroke-dasharray:none;stroke-opacity:1"
         d="m 525,457.5 v 32.699" /><path
         id="path940"
         style="fill:none;stroke:#262626;stroke-width:5.0025;stroke-linecap:square;stroke-linejoin:round;stroke-miterlimit:10;stroke-dasharray:none;stroke-opacity:1"
         d="m 1179,457.5 v 32.699" /><path
         id="path942"
         style="fill:none;stroke:#262626;stroke-width:5.0025;stroke-linecap:square;stroke-linejoin:round;stroke-miterlimit:10;stroke-dasharray:none;stroke-opacity:1"
         d="m 1833,457.5 v 32.699" /><path
         id="path944"
         style="fill:none;stroke:#262626;stroke-width:5.0025;stroke-linecap:square;stroke-linejoin:round;stroke-miterlimit:10;stroke-dasharray:none;stroke-opacity:1"
         d="m 2487,457.5 v 32.699" /><path
         id="path946"
         style="fill:none;stroke:#262626;stroke-width:5.0025;stroke-linecap:square;stroke-linejoin:round;stroke-miterlimit:10;stroke-dasharray:none;stroke-opacity:1"
         d="m 3141,457.5 v 32.699" /><path
         id="path948"
         style="fill:none;stroke:#262626;stroke-width:5.0025;stroke-linecap:square;stroke-linejoin:round;stroke-miterlimit:10;stroke-dasharray:none;stroke-opacity:1"
         d="m 3795,457.5 v 32.699" /><path
         id="path950"
         style="fill:none;stroke:#262626;stroke-width:5.0025;stroke-linecap:square;stroke-linejoin:round;stroke-miterlimit:10;stroke-dasharray:none;stroke-opacity:1"
         d="m 525,2925 v -32.7" /><path
         id="path952"
         style="fill:none;stroke:#262626;stroke-width:5.0025;stroke-linecap:square;stroke-linejoin:round;stroke-miterlimit:10;stroke-dasharray:none;stroke-opacity:1"
         d="m 1179,2925 v -32.7" /><path
         id="path954"
         style="fill:none;stroke:#262626;stroke-width:5.0025;stroke-linecap:square;stroke-linejoin:round;stroke-miterlimit:10;stroke-dasharray:none;stroke-opacity:1"
         d="m 1833,2925 v -32.7" /><path
         id="path956"
         style="fill:none;stroke:#262626;stroke-width:5.0025;stroke-linecap:square;stroke-linejoin:round;stroke-miterlimit:10;stroke-dasharray:none;stroke-opacity:1"
         d="m 2487,2925 v -32.7" /><path
         id="path958"
         style="fill:none;stroke:#262626;stroke-width:5.0025;stroke-linecap:square;stroke-linejoin:round;stroke-miterlimit:10;stroke-dasharray:none;stroke-opacity:1"
         d="m 3141,2925 v -32.7" /><path
         id="path960"
         style="fill:none;stroke:#262626;stroke-width:5.0025;stroke-linecap:square;stroke-linejoin:round;stroke-miterlimit:10;stroke-dasharray:none;stroke-opacity:1"
         d="m 3795,2925 v -32.7" /><g
         transform="scale(10)"
         id="g962"><text
           id="text966"
           style="font-variant:normal;font-weight:normal;font-size:15.9998px;font-family:Helvetica;-inkscape-font-specification:Helvetica;writing-mode:lr-tb;fill:#262626;fill-opacity:1;fill-rule:nonzero;stroke:none"
           transform="matrix(1,0,0,-1,48,25.55)"><tspan
             id="tspan964"
             sodipodi:role="line"
             y="0"
             x="0 60.9002 69.796089 126.30034 135.19623 191.70049 200.59637 257.10062 265.99652 318.00082 326.89673 335.7926">020406080100</tspan></text><text
           id="text970"
           style="font-variant:normal;font-weight:normal;font-size:17.6002px;font-family:Helvetica;-inkscape-font-specification:Helvetica;writing-mode:lr-tb;fill:#262626;fill-opacity:1;fill-rule:nonzero;stroke:none"
           transform="matrix(1,0,0,-1,119.625,3.55)"><tspan
             id="tspan968"
             sodipodi:role="line"
             y="0"
             x="0 12.707344 22.493055 26.400299 36.186012 41.078865 50.864578 54.771824 58.679066 63.571922 72.372025 82.15773 86.06498 95.850693 105.6364 114.4365 119.32935 124.22221 138.88318 153.54414 158.437 168.22272 178.00842 187.79413">Rainfall values [mm/12h]</tspan></text></g><path
         id="path972"
         style="fill:none;stroke:#262626;stroke-width:5.0025;stroke-linecap:square;stroke-linejoin:round;stroke-miterlimit:10;stroke-dasharray:none;stroke-opacity:1"
         d="M 525,457.5 V 2925" /><path
         id="path974"
         style="fill:none;stroke:#262626;stroke-width:5.0025;stroke-linecap:square;stroke-linejoin:round;stroke-miterlimit:10;stroke-dasharray:none;stroke-opacity:1"
         d="M 3795,457.5 V 2925" /><path
         id="path976"
         style="fill:none;stroke:#262626;stroke-width:5.0025;stroke-linecap:square;stroke-linejoin:round;stroke-miterlimit:10;stroke-dasharray:none;stroke-opacity:1"
         d="m 525,457.5 h 32.699" /><path
         id="path978"
         style="fill:none;stroke:#262626;stroke-width:5.0025;stroke-linecap:square;stroke-linejoin:round;stroke-miterlimit:10;stroke-dasharray:none;stroke-opacity:1"
         d="m 525,580.875 h 32.699" /><path
         id="path980"
         style="fill:none;stroke:#262626;stroke-width:5.0025;stroke-linecap:square;stroke-linejoin:round;stroke-miterlimit:10;stroke-dasharray:none;stroke-opacity:1"
         d="m 525,704.25 h 32.699" /><path
         id="path982"
         style="fill:none;stroke:#262626;stroke-width:5.0025;stroke-linecap:square;stroke-linejoin:round;stroke-miterlimit:10;stroke-dasharray:none;stroke-opacity:1"
         d="m 525,827.625 h 32.699" /><path
         id="path984"
         style="fill:none;stroke:#262626;stroke-width:5.0025;stroke-linecap:square;stroke-linejoin:round;stroke-miterlimit:10;stroke-dasharray:none;stroke-opacity:1"
         d="m 525,951 h 32.699" /><path
         id="path986"
         style="fill:none;stroke:#262626;stroke-width:5.0025;stroke-linecap:square;stroke-linejoin:round;stroke-miterlimit:10;stroke-dasharray:none;stroke-opacity:1"
         d="m 525,1074.38 h 32.699" /><path
         id="path988"
         style="fill:none;stroke:#262626;stroke-width:5.0025;stroke-linecap:square;stroke-linejoin:round;stroke-miterlimit:10;stroke-dasharray:none;stroke-opacity:1"
         d="m 525,1197.75 h 32.699" /><path
         id="path990"
         style="fill:none;stroke:#262626;stroke-width:5.0025;stroke-linecap:square;stroke-linejoin:round;stroke-miterlimit:10;stroke-dasharray:none;stroke-opacity:1"
         d="m 525,1321.13 h 32.699" /><path
         id="path992"
         style="fill:none;stroke:#262626;stroke-width:5.0025;stroke-linecap:square;stroke-linejoin:round;stroke-miterlimit:10;stroke-dasharray:none;stroke-opacity:1"
         d="m 525,1444.5 h 32.699" /><path
         id="path994"
         style="fill:none;stroke:#262626;stroke-width:5.0025;stroke-linecap:square;stroke-linejoin:round;stroke-miterlimit:10;stroke-dasharray:none;stroke-opacity:1"
         d="m 525,1567.88 h 32.699" /><path
         id="path996"
         style="fill:none;stroke:#262626;stroke-width:5.0025;stroke-linecap:square;stroke-linejoin:round;stroke-miterlimit:10;stroke-dasharray:none;stroke-opacity:1"
         d="m 525,1691.25 h 32.699" /><path
         id="path998"
         style="fill:none;stroke:#262626;stroke-width:5.0025;stroke-linecap:square;stroke-linejoin:round;stroke-miterlimit:10;stroke-dasharray:none;stroke-opacity:1"
         d="m 525,1814.63 h 32.699" /><path
         id="path1000"
         style="fill:none;stroke:#262626;stroke-width:5.0025;stroke-linecap:square;stroke-linejoin:round;stroke-miterlimit:10;stroke-dasharray:none;stroke-opacity:1"
         d="m 525,1938 h 32.699" /><path
         id="path1002"
         style="fill:none;stroke:#262626;stroke-width:5.0025;stroke-linecap:square;stroke-linejoin:round;stroke-miterlimit:10;stroke-dasharray:none;stroke-opacity:1"
         d="m 525,2061.38 h 32.699" /><path
         id="path1004"
         style="fill:none;stroke:#262626;stroke-width:5.0025;stroke-linecap:square;stroke-linejoin:round;stroke-miterlimit:10;stroke-dasharray:none;stroke-opacity:1"
         d="m 525,2184.75 h 32.699" /><path
         id="path1006"
         style="fill:none;stroke:#262626;stroke-width:5.0025;stroke-linecap:square;stroke-linejoin:round;stroke-miterlimit:10;stroke-dasharray:none;stroke-opacity:1"
         d="m 525,2308.13 h 32.699" /><path
         id="path1008"
         style="fill:none;stroke:#262626;stroke-width:5.0025;stroke-linecap:square;stroke-linejoin:round;stroke-miterlimit:10;stroke-dasharray:none;stroke-opacity:1"
         d="m 525,2431.5 h 32.699" /><path
         id="path1010"
         style="fill:none;stroke:#262626;stroke-width:5.0025;stroke-linecap:square;stroke-linejoin:round;stroke-miterlimit:10;stroke-dasharray:none;stroke-opacity:1"
         d="m 525,2554.88 h 32.699" /><path
         id="path1012"
         style="fill:none;stroke:#262626;stroke-width:5.0025;stroke-linecap:square;stroke-linejoin:round;stroke-miterlimit:10;stroke-dasharray:none;stroke-opacity:1"
         d="m 525,2678.25 h 32.699" /><path
         id="path1014"
         style="fill:none;stroke:#262626;stroke-width:5.0025;stroke-linecap:square;stroke-linejoin:round;stroke-miterlimit:10;stroke-dasharray:none;stroke-opacity:1"
         d="m 525,2801.63 h 32.699" /><path
         id="path1016"
         style="fill:none;stroke:#262626;stroke-width:5.0025;stroke-linecap:square;stroke-linejoin:round;stroke-miterlimit:10;stroke-dasharray:none;stroke-opacity:1"
         d="m 525,2925 h 32.699" /><path
         id="path1018"
         style="fill:none;stroke:#262626;stroke-width:5.0025;stroke-linecap:square;stroke-linejoin:round;stroke-miterlimit:10;stroke-dasharray:none;stroke-opacity:1"
         d="m 3795,457.5 h -32.7" /><path
         id="path1020"
         style="fill:none;stroke:#262626;stroke-width:5.0025;stroke-linecap:square;stroke-linejoin:round;stroke-miterlimit:10;stroke-dasharray:none;stroke-opacity:1"
         d="m 3795,580.875 h -32.7" /><path
         id="path1022"
         style="fill:none;stroke:#262626;stroke-width:5.0025;stroke-linecap:square;stroke-linejoin:round;stroke-miterlimit:10;stroke-dasharray:none;stroke-opacity:1"
         d="m 3795,704.25 h -32.7" /><path
         id="path1024"
         style="fill:none;stroke:#262626;stroke-width:5.0025;stroke-linecap:square;stroke-linejoin:round;stroke-miterlimit:10;stroke-dasharray:none;stroke-opacity:1"
         d="m 3795,827.625 h -32.7" /><path
         id="path1026"
         style="fill:none;stroke:#262626;stroke-width:5.0025;stroke-linecap:square;stroke-linejoin:round;stroke-miterlimit:10;stroke-dasharray:none;stroke-opacity:1"
         d="m 3795,951 h -32.7" /><path
         id="path1028"
         style="fill:none;stroke:#262626;stroke-width:5.0025;stroke-linecap:square;stroke-linejoin:round;stroke-miterlimit:10;stroke-dasharray:none;stroke-opacity:1"
         d="m 3795,1074.38 h -32.7" /><path
         id="path1030"
         style="fill:none;stroke:#262626;stroke-width:5.0025;stroke-linecap:square;stroke-linejoin:round;stroke-miterlimit:10;stroke-dasharray:none;stroke-opacity:1"
         d="m 3795,1197.75 h -32.7" /><path
         id="path1032"
         style="fill:none;stroke:#262626;stroke-width:5.0025;stroke-linecap:square;stroke-linejoin:round;stroke-miterlimit:10;stroke-dasharray:none;stroke-opacity:1"
         d="m 3795,1321.13 h -32.7" /><path
         id="path1034"
         style="fill:none;stroke:#262626;stroke-width:5.0025;stroke-linecap:square;stroke-linejoin:round;stroke-miterlimit:10;stroke-dasharray:none;stroke-opacity:1"
         d="m 3795,1444.5 h -32.7" /><path
         id="path1036"
         style="fill:none;stroke:#262626;stroke-width:5.0025;stroke-linecap:square;stroke-linejoin:round;stroke-miterlimit:10;stroke-dasharray:none;stroke-opacity:1"
         d="m 3795,1567.88 h -32.7" /><path
         id="path1038"
         style="fill:none;stroke:#262626;stroke-width:5.0025;stroke-linecap:square;stroke-linejoin:round;stroke-miterlimit:10;stroke-dasharray:none;stroke-opacity:1"
         d="m 3795,1691.25 h -32.7" /><path
         id="path1040"
         style="fill:none;stroke:#262626;stroke-width:5.0025;stroke-linecap:square;stroke-linejoin:round;stroke-miterlimit:10;stroke-dasharray:none;stroke-opacity:1"
         d="m 3795,1814.63 h -32.7" /><path
         id="path1042"
         style="fill:none;stroke:#262626;stroke-width:5.0025;stroke-linecap:square;stroke-linejoin:round;stroke-miterlimit:10;stroke-dasharray:none;stroke-opacity:1"
         d="m 3795,1938 h -32.7" /><path
         id="path1044"
         style="fill:none;stroke:#262626;stroke-width:5.0025;stroke-linecap:square;stroke-linejoin:round;stroke-miterlimit:10;stroke-dasharray:none;stroke-opacity:1"
         d="m 3795,2061.38 h -32.7" /><path
         id="path1046"
         style="fill:none;stroke:#262626;stroke-width:5.0025;stroke-linecap:square;stroke-linejoin:round;stroke-miterlimit:10;stroke-dasharray:none;stroke-opacity:1"
         d="m 3795,2184.75 h -32.7" /><path
         id="path1048"
         style="fill:none;stroke:#262626;stroke-width:5.0025;stroke-linecap:square;stroke-linejoin:round;stroke-miterlimit:10;stroke-dasharray:none;stroke-opacity:1"
         d="m 3795,2308.13 h -32.7" /><path
         id="path1050"
         style="fill:none;stroke:#262626;stroke-width:5.0025;stroke-linecap:square;stroke-linejoin:round;stroke-miterlimit:10;stroke-dasharray:none;stroke-opacity:1"
         d="m 3795,2431.5 h -32.7" /><path
         id="path1052"
         style="fill:none;stroke:#262626;stroke-width:5.0025;stroke-linecap:square;stroke-linejoin:round;stroke-miterlimit:10;stroke-dasharray:none;stroke-opacity:1"
         d="m 3795,2554.88 h -32.7" /><path
         id="path1054"
         style="fill:none;stroke:#262626;stroke-width:5.0025;stroke-linecap:square;stroke-linejoin:round;stroke-miterlimit:10;stroke-dasharray:none;stroke-opacity:1"
         d="m 3795,2678.25 h -32.7" /><path
         id="path1056"
         style="fill:none;stroke:#262626;stroke-width:5.0025;stroke-linecap:square;stroke-linejoin:round;stroke-miterlimit:10;stroke-dasharray:none;stroke-opacity:1"
         d="m 3795,2801.63 h -32.7" /><path
         id="path1058"
         style="fill:none;stroke:#262626;stroke-width:5.0025;stroke-linecap:square;stroke-linejoin:round;stroke-miterlimit:10;stroke-dasharray:none;stroke-opacity:1"
         d="m 3795,2925 h -32.7" /><g
         transform="scale(10)"
         id="g1060"><text
           id="text1104"
           style="font-variant:normal;font-weight:normal;font-size:15.9998px;font-family:Helvetica;-inkscape-font-specification:Helvetica;writing-mode:lr-tb;fill:#262626;fill-opacity:1;fill-rule:nonzero;stroke:none"
           transform="matrix(1,0,0,-1,38.3,40.125)"><tspan
             id="tspan1062"
             y="0"
             x="0">0</tspan><tspan
             id="tspan1064"
             y="-12.3375"
             x="4.5"> </tspan><tspan
             id="tspan1066"
             sodipodi:role="line"
             y="-24.674999"
             x="-9 -0.1041112">10</tspan><tspan
             id="tspan1068"
             y="-37.012501"
             x="4.5"> </tspan><tspan
             id="tspan1070"
             sodipodi:role="line"
             y="-49.349998"
             x="-9 -0.1041112">20</tspan><tspan
             id="tspan1072"
             y="-61.6875"
             x="4.5"> </tspan><tspan
             id="tspan1074"
             sodipodi:role="line"
             y="-74.025002"
             x="-9 -0.1041112">30</tspan><tspan
             id="tspan1076"
             y="-86.362503"
             x="4.5"> </tspan><tspan
             id="tspan1078"
             sodipodi:role="line"
             y="-98.699997"
             x="-9 -0.1041112">40</tspan><tspan
             id="tspan1080"
             y="-111.0375"
             x="4.5"> </tspan><tspan
             id="tspan1082"
             sodipodi:role="line"
             y="-123.375"
             x="-9 -0.1041112">50</tspan><tspan
             id="tspan1084"
             y="-135.71249"
             x="4.5"> </tspan><tspan
             id="tspan1086"
             sodipodi:role="line"
             y="-148.05"
             x="-9 -0.1041112">60</tspan><tspan
             id="tspan1088"
             y="-160.3875"
             x="4.5"> </tspan><tspan
             id="tspan1090"
             sodipodi:role="line"
             y="-172.72501"
             x="-9 -0.1041112">70</tspan><tspan
             id="tspan1092"
             y="-185.0625"
             x="4.5"> </tspan><tspan
             id="tspan1094"
             sodipodi:role="line"
             y="-197.39999"
             x="-9 -0.1041112">80</tspan><tspan
             id="tspan1096"
             y="-209.7375"
             x="4.5"> </tspan><tspan
             id="tspan1098"
             sodipodi:role="line"
             y="-222.075"
             x="-9 -0.1041112">90</tspan><tspan
             id="tspan1100"
             y="-234.41251"
             x="4.5"> </tspan><tspan
             id="tspan1102"
             sodipodi:role="line"
             y="-246.75"
             x="-18 -9.1041117 -0.2082224">100</tspan></text><text
           id="text1108"
           style="font-variant:normal;font-weight:normal;font-size:17.6002px;font-family:Helvetica;-inkscape-font-specification:Helvetica;writing-mode:lr-tb;fill:#262626;fill-opacity:1;fill-rule:nonzero;stroke:none"
           transform="matrix(0,1,1,0,13.55,109.5)"><tspan
             id="tspan1106"
             sodipodi:role="line"
             y="0"
             x="0 11.739333 21.525045 27.385912 36.186012 45.971722 55.757435 60.650288 64.557533 68.464775 78.250488 87.050591 91.943443 97.804314 113.45089">Percentiles (%)</tspan></text></g><path
         id="path1110"
         style="fill:none;stroke:#edb120;stroke-width:30;stroke-linecap:butt;stroke-linejoin:round;stroke-miterlimit:10;stroke-dasharray:none;stroke-opacity:1"
         d="m 528.465,482.176 0.293,24.676 0.855,24.671 2.774,24.676 7.914,24.676 2.847,24.676 1.637,24.676 5.559,24.671 4.707,24.676 0.984,24.676 1.996,24.676 2.121,24.676 1.703,24.671 4.02,24.676 3.66,24.676 4.32,24.676 5.887,24.676 2.813,24.671 4.312,24.676 13.11,24.676 3.015,24.676 4.379,24.674 4.645,24.67 10.754,24.68 5.664,24.68 0.058,24.67 0.43,24.68 1.176,24.67 2.55,24.67 3.008,24.68 1.508,24.68 2.91,24.67 2.774,24.67 1.636,24.68 4.153,24.68 2.687,24.67 2.317,24.68 2.55,24.67 1.012,24.67 1.281,24.68 9.024,24.68 1.305,24.67 2.617,24.67 2.062,24.68 1.082,24.68 0.516,24.67 0.457,24.68 0.953,24.67 3.367,24.67 3.465,24.68 4.156,24.68 5.266,24.67 4.152,24.67 1.598,24.68 0.918,24.68 7.094,24.67 7.199,24.68 0.683,24.67 0.75,24.67 1.993,24.68 11.613,24.68 8.535,24.67 0.883,24.67 5.226,24.68 7.465,24.68 7.153,24.67 3.504,24.68 4.742,24.67 11.113,24.67 31.328,24.68 7.426,24.68 8.406,24.67 6.141,24.67 1.637,24.68 0.234,24.68 22.887,24.67 13.277,24.68 10.891,24.67 7.16,24.67 16.379,24.68 18.086,24.68 9.515,24.67 10.891,24.67 16.808,24.68 52.779,24.68 24.36,24.67 9.12,24.68 17.33,24.67 88.94,24.67 71.29,24.68 2.81,24.68 2.16,24.67 43.79,24.67 38.94,24.68 54.35,24.68 55.33,24.67 14.61,24.68 59.16,24.67 686.21,24.67" /><path
         id="path1112"
         style="fill:none;stroke:#00ff00;stroke-width:30;stroke-linecap:butt;stroke-linejoin:round;stroke-miterlimit:10;stroke-dasharray:none;stroke-opacity:1"
         d="m 536.113,482.176 2.883,24.676 1.109,24.671 4.747,24.676 4.671,24.676 12.071,24.676 5.429,24.676 4.379,24.671 13.664,24.676 8.243,24.676 10.14,24.676 8.762,24.676 1.828,24.671 3.535,24.676 23.25,24.676 15.664,24.676 9.746,24.676 1.34,24.671 1.891,24.676 10.566,24.676 5.657,24.676 2.16,24.674 6.406,24.67 6.898,24.68 4.973,24.68 4.449,24.67 4.973,24.68 2.449,24.67 4.02,24.67 6.015,24.68 3.563,24.68 2.328,24.67 2.285,24.67 8.078,24.68 1.828,24.68 1.703,24.67 4.614,24.68 2.582,24.67 0.191,24.67 3.934,24.68 15.59,24.68 1.636,24.67 5.723,24.67 3.305,24.68 3.828,24.68 8.136,24.67 2.227,24.68 0.129,24.67 2.91,24.67 4.484,24.68 0.36,24.68 3.496,24.67 2.227,24.67 3.203,24.68 3.757,24.68 0.204,24.67 0.847,24.68 1.828,24.67 8.301,24.67 12.496,24.68 11.215,24.68 7.785,24.67 26.031,24.67 8.926,24.68 8.758,24.68 7.231,24.67 18.734,24.68 11.973,24.67 1.894,24.67 8.176,24.68 14.258,24.68 21.324,24.67 11.081,24.67 1.5,24.68 13.08,24.68 10.8,24.67 4.41,24.68 11.31,24.67 1.57,24.67 6.71,24.68 24.1,24.68 12.1,24.67 41.04,24.67 32.76,24.68 35.19,24.68 71.54,24.67 19.66,24.68 47.05,24.67 21.48,24.67 1.9,24.68 46.47,24.68 144.2,24.67 84.53,24.67 24.24,24.68 41.65,24.68 21.62,24.67 63.63,24.68 146.92,24.67 987.9,24.67" /><path
         id="path1114"
         style="fill:none;stroke:#7e2f8e;stroke-width:30;stroke-linecap:butt;stroke-linejoin:round;stroke-miterlimit:10;stroke-dasharray:none;stroke-opacity:1"
         d="m 540.922,482.176 5.957,24.676 1.957,24.671 2.555,24.676 9.316,24.676 10.988,24.676 14.383,24.676 9.813,24.671 19.199,24.676 7.621,24.676 8.203,24.676 3.699,24.676 25.012,24.671 33.449,24.676 11.68,24.676 5.652,24.676 3.602,24.676 9.121,24.671 8.57,24.676 8.012,24.676 6.93,24.676 4.281,24.674 1.769,24.67 2.485,24.68 7.289,24.68 4.711,24.67 3.238,24.68 8.012,24.67 5.293,24.67 2.453,24.68 0.719,24.68 v 24.67 l 7.195,24.67 2.129,24.68 3.269,24.68 3.368,24.67 7.125,24.68 2.949,24.67 6.961,24.67 3.207,24.68 9.578,24.68 11.777,24.67 3.754,24.67 4.488,24.68 5.653,24.68 1.109,24.67 2.328,24.68 12.36,24.67 1.011,24.67 3.465,24.68 2.289,24.68 2.227,24.67 4.738,24.67 5.625,24.68 2.356,24.68 7.289,24.67 4.781,24.68 3.004,24.67 2.094,24.67 4.808,24.68 39.172,24.68 15.203,24.67 17.203,24.67 7.489,24.68 0.652,24.68 2.543,24.67 19.47,24.68 3.88,24.67 20.24,24.67 26.43,24.68 15.73,24.68 13.31,24.67 14.88,24.67 9.25,24.68 3.37,24.68 1.86,24.67 7.42,24.68 6.71,24.67 28.35,24.67 28.81,24.68 27.86,24.68 5.39,24.67 8.93,24.67 19.62,24.68 52.91,24.68 40.25,24.67 53.31,24.68 36.75,24.67 17.88,24.67 20.77,24.68 106.24,24.68 160.79,24.67 124.07,24.67 4.57,24.68 77.07,24.68 19.13,24.67 24.76,24.68 135.21,24.67 1160.13,24.67" /><path
         id="path1116"
         style="fill:none;stroke:#00ffff;stroke-width:30;stroke-linecap:butt;stroke-linejoin:round;stroke-miterlimit:10;stroke-dasharray:none;stroke-opacity:1"
         d="m 546.711,482.176 3.398,24.676 12.067,24.671 1.871,24.676 11.113,24.676 9.156,24.676 18.446,24.676 16.836,24.671 9.976,24.676 4.582,24.676 10.461,24.676 10.27,24.676 41.332,24.671 41.234,24.676 2.121,24.676 3.727,24.676 12.953,24.676 7.027,24.671 8.574,24.676 7.875,24.676 16.778,24.676 1.867,24.674 3.629,24.67 5.363,24.68 0.946,24.68 6.898,24.67 1.703,24.68 3.301,24.67 4.223,24.67 1.273,24.68 0.16,24.68 3.5,24.67 4.117,24.67 3.371,24.68 10.11,24.68 4.445,24.67 4.051,24.68 4.613,24.67 6.442,24.67 1.207,24.68 4.839,24.68 7.395,24.67 6.961,24.67 13.504,24.68 14.851,24.68 3.825,24.67 0.847,24.68 0.887,24.67 5.227,24.67 8.835,24.68 13.207,24.68 7.95,24.67 1.273,24.67 0.82,24.68 0.915,24.68 5.753,24.67 12.329,24.68 12.293,24.67 16.122,24.67 3.92,24.68 2.03,24.68 24.79,24.67 7.62,24.67 3.59,24.68 8.83,24.68 20.67,24.67 7.39,24.68 7.29,24.67 11.45,24.67 25.99,24.68 10.86,24.68 14.42,24.67 12.09,24.67 20.09,24.68 7.22,24.68 20.73,24.67 15.57,24.68 37.44,24.67 14.33,24.67 21.12,24.68 15.04,24.68 57.16,24.67 12.26,24.67 13.54,24.68 53.96,24.68 30.02,24.67 7.61,24.68 25.18,24.67 29.59,24.67 72.34,24.68 152.51,24.68 130.15,24.67 148.88,24.67 11.51,24.68 28.35,24.68 20.7,24.67 50.98,24.68 122.49,24.67 1229,24.67" /><path
         id="path1118"
         style="fill:none;stroke:#0072bd;stroke-width:30;stroke-linecap:butt;stroke-linejoin:round;stroke-miterlimit:10;stroke-dasharray:none;stroke-opacity:1"
         d="m 560.184,482.176 14.257,24.676 6.118,24.671 7.359,24.676 14.676,24.676 3.047,24.676 22.363,24.676 29.598,24.671 11.668,24.676 3.726,24.676 7.426,24.676 19.328,24.676 22.988,24.671 42.215,24.676 23.516,24.676 25.043,24.676 12.328,24.676 18.344,24.671 9.218,24.676 6.645,24.676 6.277,24.676 4.09,24.674 2.449,24.67 0.723,24.68 0.945,24.68 5.653,24.67 2.23,24.68 8.438,24.67 5.324,24.67 1.371,24.68 1.215,24.68 2.551,24.67 5.031,24.67 12.66,24.68 1.012,24.68 4.972,24.67 6.282,24.68 3.882,24.67 13.215,24.67 17.789,24.68 0.918,24.68 5.43,24.67 7.152,24.67 5.012,24.68 4.086,24.68 7.098,24.67 2.25,24.68 6.538,24.67 4.97,24.67 15.67,24.68 8.08,24.68 1.14,24.67 0.72,24.67 4.87,24.68 7.06,24.68 19.03,24.67 33.07,24.68 5.19,24.67 0.99,24.67 0.75,24.68 14.09,24.68 8.5,24.67 24.07,24.67 12.85,24.68 15.37,24.68 29.17,24.67 14.09,24.68 5.95,24.67 20.38,24.67 18.57,24.68 14.23,24.68 11.8,24.67 2.39,24.67 4.93,24.68 10.79,24.68 24.5,24.67 32.86,24.68 20.08,24.67 12.07,24.67 36.52,24.68 25.7,24.68 21.91,24.67 88.49,24.67 21.06,24.68 23.34,24.68 36.6,24.67 11.9,24.68 109.67,24.67 40.92,24.67 130.73,24.68 63.24,24.68 111.18,24.67 141.42,24.67 25.02,24.68 9.32,24.68 70.93,24.67 44.21,24.68 184.95,24.67 1195.41,22.24" /><path
         id="path1120"
         style="fill:none;stroke:#ff00ff;stroke-width:30;stroke-linecap:butt;stroke-linejoin:round;stroke-miterlimit:10;stroke-dasharray:none;stroke-opacity:1"
         d="m 577.191,482.176 12.653,24.676 9.742,24.671 26.035,24.676 3.434,24.676 15.172,24.676 24.652,24.676 26.519,24.671 13.344,24.676 10.949,24.676 22.93,24.676 7.192,24.676 27.796,24.671 21.059,24.676 45.906,24.676 29.137,24.676 16.777,24.676 27.301,24.671 3.438,24.676 7.882,24.676 5.914,24.676 0.692,24.674 0.879,24.67 3.629,24.68 7.718,24.68 7.52,24.67 6.375,24.68 10.008,24.67 3.957,24.67 1.863,24.68 14.848,24.68 3.172,24.67 0.195,24.67 3.301,24.68 15.86,24.68 19.95,24.67 21.81,24.68 11.45,24.67 3.79,24.67 3.57,24.68 0.65,24.68 2.42,24.67 6.5,24.67 5.56,24.68 14.92,24.68 8.17,24.67 4.09,24.68 5.69,24.67 2.71,24.67 2.29,24.68 10.66,24.68 8.08,24.67 2.48,24.67 7.62,24.68 17.37,24.68 25.2,24.67 9.85,24.68 11.93,24.67 7.56,24.67 25.41,24.68 26.91,24.68 22.43,24.67 29.04,24.67 26.32,24.68 11.58,24.68 20.37,24.67 4.8,24.68 10.83,24.67 12.03,24.67 22.99,24.68 11.71,24.68 35.29,24.67 26.22,24.67 2.85,24.68 12.94,24.68 30.97,24.67 23.05,24.68 14.26,24.67 22.34,24.67 40.28,24.68 20.99,24.68 6.35,24.67 20.43,24.67 19.69,24.68 82.93,24.68 96.89,24.67 46.95,24.68 160,24.67 77.79,24.67 18.91,24.68 131.58,24.68 18.97,24.67 45.09,24.67 175.47,24.68 133.09,24.68 14.94,24.67 14.1,24.68 160.59,24.67 888.65,13.67" /><path
         id="path1122"
         style="fill:none;stroke:#d95319;stroke-width:30;stroke-linecap:butt;stroke-linejoin:round;stroke-miterlimit:10;stroke-dasharray:none;stroke-opacity:1"
         d="m 583.043,482.176 21.383,24.676 6.539,24.671 29.273,24.676 55.715,24.676 30.445,24.676 8.079,24.676 2.945,24.671 2.969,24.676 12.168,24.676 7.355,24.676 32.176,24.676 14.82,24.671 22.328,24.676 40.387,24.676 64.844,24.676 19.195,24.676 2.742,24.671 13.742,24.676 0.622,24.676 1.988,24.676 4.875,24.674 6.18,24.67 4.906,24.68 1.535,24.68 8.273,24.67 18.843,24.68 27.04,24.67 17.66,24.67 5.29,24.68 3.04,24.68 1.31,24.67 0.17,24.67 4.21,24.68 18.64,24.68 16.78,24.67 6.93,24.68 3.86,24.67 2.48,24.67 3.11,24.68 20.47,24.68 14.48,24.67 14.98,24.67 1.34,24.68 4.26,24.68 12.29,24.67 5.53,24.68 6.37,24.67 12.85,24.67 0.82,24.68 15.83,24.68 29.33,24.67 10.2,24.67 5.79,24.68 6.54,24.68 18.9,24.67 4.35,24.68 1.05,24.67 7.68,24.67 6.12,24.68 38.55,24.68 51.99,24.67 29,24.67 10.67,24.68 4.28,24.68 23.09,24.67 37.44,24.68 13.8,24.67 23.22,24.67 6.6,24.68 7.2,24.68 32.11,24.67 50.32,24.67 14,24.68 1.21,24.68 34,24.67 12.7,24.68 10.91,24.67 57,24.67 53.04,24.68 26.23,24.68 82.3,24.67 12.72,24.67 47.87,24.68 18.25,24.68 16.22,24.67 85.12,24.68 152.05,24.67 44.67,24.67 39.93,24.68 117.62,24.68 85.57,24.67 121.42,24.67 76.13,24.68 7.22,24.68 27.47,24.67 183.74,24.68 244.93,24.67 567.73,7.33" /><path
         id="path1124"
         style="fill:none;stroke:#edb120;stroke-width:30;stroke-linecap:butt;stroke-linejoin:bevel;stroke-miterlimit:10;stroke-dasharray:30, 30;stroke-dashoffset:0;stroke-opacity:1"
         d="m 525,482.176 v 74.023 l 0.098,24.676 0.523,24.676 0.457,24.676 0.82,24.671 0.555,24.676 0.488,24.676 0.2,24.676 0.257,24.676 0.758,24.671 0.321,24.676 0.097,24.676 0.067,24.676 0.527,24.676 3.793,24.671 0.16,24.676 0.856,24.676 0.554,24.676 0.848,24.674 0.59,24.67 0.129,24.68 0.816,24.68 0.496,24.67 0.457,24.68 1.012,24.67 0.098,24.67 0.07,24.68 3.367,24.68 0.816,24.67 0.098,24.67 v 24.68 l 0.164,24.68 0.293,24.67 0.164,24.68 0.196,24.67 0.359,24.67 2.875,24.68 0.562,24.68 1.168,24.67 0.758,24.67 0.422,24.68 2.129,24.68 1.957,24.67 0.563,24.68 1.273,24.67 1.734,24.67 1.176,24.68 0.848,24.68 2.191,24.67 1.012,24.67 1.117,24.68 1.207,24.68 1.043,24.67 1.117,24.68 0.977,24.67 1.933,24.67 1.305,24.68 0.293,24.68 3.309,24.67 4.703,24.67 3.433,24.68 1.996,24.68 3.336,24.67 1.965,24.68 2.453,24.67 3.922,24.67 4.938,24.68 4.902,24.68 4.117,24.67 1.899,24.67 2.453,24.68 2.781,24.68 3.301,24.67 11.844,24.68 3.3,24.67 0.164,24.67 3.856,24.68 6.508,24.68 10.988,24.67 0.789,24.67 4.41,24.68 8.309,24.68 9.808,24.67 6.18,24.68 2.156,24.67 45.289,24.67 11.215,24.68 5.758,24.68 30.609,24.67 45.059,24.67 20.402,24.68 18.672,24.68 35.387,24.67 130.205,24.68 16.28,24.67 180.06,24.67" /><path
         id="path1126"
         style="fill:none;stroke:#00ff00;stroke-width:30;stroke-linecap:butt;stroke-linejoin:bevel;stroke-miterlimit:10;stroke-dasharray:30, 30;stroke-dashoffset:0;stroke-opacity:1"
         d="m 526.402,482.176 0.758,24.676 2.676,24.671 3.602,24.676 7.718,24.676 6.11,24.676 0.39,24.676 4.418,24.671 2.649,24.676 2.453,24.676 3.793,24.676 8.761,24.676 10.629,24.671 3.957,24.676 1.735,24.676 10.07,24.676 3.731,24.676 2.382,24.671 2.129,24.676 3.106,24.676 1.765,24.676 1.079,24.674 6.898,24.67 2.98,24.68 2.743,24.68 2.785,24.67 1.207,24.68 2.355,24.67 3.172,24.67 2.16,24.68 2.746,24.68 1.34,24.67 2.028,24.67 3.14,24.68 2.707,24.68 3.309,24.67 2.617,24.68 4.477,24.67 3.632,24.67 3.989,24.68 3.3,24.68 1.176,24.67 2.551,24.67 1.41,24.68 0.488,24.68 2.715,24.67 2.16,24.68 8.536,24.67 3.074,24.67 1.336,24.68 1.312,24.68 8.895,24.67 2.609,24.67 4.086,24.68 3.375,24.68 6.863,24.67 3.727,24.68 2.289,24.67 4.352,24.67 1.964,24.68 1.305,24.68 0.395,24.67 2.875,24.67 6.703,24.68 9.586,24.68 8.011,24.67 2.645,24.68 15.078,24.67 8.953,24.67 4.516,24.68 3.793,24.68 6.668,24.67 8.574,24.67 13.176,24.68 15.594,24.68 1.378,24.67 2.289,24.68 8.438,24.67 4.445,24.67 7.028,24.68 18.25,24.68 35.773,24.67 7.524,24.67 18.765,24.68 6.149,24.68 12.789,24.67 22.722,24.68 75.992,24.67 35.48,24.67 6.71,24.68 63.83,24.68 35.67,24.67 20.87,24.67 18.77,24.68 18.5,24.68 29.86,24.67 223.37,24.68 59.48,24.67 583.8,24.67" /><path
         id="path1128"
         style="fill:none;stroke:#7e2f8e;stroke-width:30;stroke-linecap:butt;stroke-linejoin:bevel;stroke-miterlimit:10;stroke-dasharray:30, 30;stroke-dashoffset:0;stroke-opacity:1"
         d="m 531.246,482.176 3.758,24.676 2.23,24.671 9.118,24.676 9.976,24.676 19.621,24.676 10.168,24.676 6.539,24.671 3.34,24.676 1.371,24.676 10.367,24.676 24.914,24.676 6.508,24.671 15.367,24.676 5.696,24.676 6.043,24.676 13.508,24.676 11.511,24.671 8.305,24.676 4.738,24.676 8.176,24.676 3.336,24.674 1.57,24.67 0.426,24.68 7.027,24.68 2.297,24.67 4.242,24.68 4.946,24.67 1.535,24.67 5.133,24.68 5.359,24.68 1.313,24.67 3.593,24.67 4.68,24.68 4.809,24.68 3.132,24.67 0.461,24.68 0.59,24.67 3.008,24.67 0.422,24.68 5.758,24.68 13.832,24.67 8.633,24.67 6.636,24.68 2.946,24.68 2.25,24.67 4.254,24.68 0.523,24.67 3.437,24.67 3.399,24.68 5.758,24.68 3.922,24.67 0.683,24.67 3.238,24.68 5.297,24.68 3.961,24.67 4.215,24.68 4.942,24.67 20.109,24.67 10.656,24.68 2.094,24.68 1.078,24.67 4.254,24.67 4.281,24.68 8.438,24.68 17.722,24.67 25.282,24.68 4.644,24.67 2.152,24.67 10.625,24.68 29.762,24.68 8.11,24.67 1.99,24.67 3.01,24.68 17.01,24.68 16.45,24.67 10.98,24.68 10.04,24.67 10.92,24.67 5.4,24.68 8.95,24.68 7.72,24.67 11.51,24.67 54.75,24.68 14.48,24.68 30.94,24.67 53.43,24.68 129.1,24.67 30.9,24.67 43.92,24.68 3.36,24.68 4.94,24.67 21.94,24.67 39.9,24.68 105.98,24.68 144.6,24.67 88.91,24.68 104.81,24.67 855.85,24.67" /><path
         id="path1130"
         style="fill:none;stroke:#00ffff;stroke-width:30;stroke-linecap:butt;stroke-linejoin:bevel;stroke-miterlimit:10;stroke-dasharray:30, 30;stroke-dashoffset:0;stroke-opacity:1"
         d="m 538.371,482.176 5.598,24.676 3.687,24.671 11.844,24.676 11.281,24.676 32.078,24.676 21.516,24.676 10.891,24.671 6.832,24.676 7.23,24.676 4.25,24.676 27.895,24.676 33.808,24.671 3.922,24.676 11.641,24.676 18.707,24.676 8.828,24.676 7.355,24.671 5.985,24.676 25.082,24.676 4.25,24.676 6.152,24.674 1.703,24.67 0.817,24.68 5.656,24.68 3.687,24.67 6.774,24.68 6.18,24.67 7.882,24.67 1.043,24.68 5.168,24.68 3.727,24.67 9.254,24.67 1.344,24.68 5.585,24.68 9.918,24.67 7.192,24.68 0.914,24.67 0.555,24.67 3.074,24.68 9.519,24.68 2.746,24.67 2.356,24.67 8.758,24.68 4.183,24.68 3.176,24.67 2.52,24.68 3.988,24.67 2.777,24.67 8.895,24.68 7.258,24.68 1.41,24.67 8.34,24.67 8.402,24.68 13.109,24.68 20.078,24.67 3.11,24.68 4.969,24.67 3.04,24.67 25.64,24.68 4.84,24.68 11.21,24.67 3.4,24.67 8.18,24.68 13.34,24.68 5.4,24.67 9.02,24.68 15.8,24.67 33.81,24.67 9.78,24.68 1.57,24.68 7.19,24.67 28.78,24.67 11.61,24.68 1.66,24.68 6.73,24.67 2.59,24.68 4.84,24.67 10.07,24.67 12.27,24.68 11.51,24.68 18.11,24.67 57.82,24.67 37.01,24.68 42.87,24.68 16.97,24.67 98.95,24.68 88.69,24.67 16.96,24.67 56.57,24.68 68.97,24.68 55.92,24.67 26.22,24.67 18.02,24.68 163.67,24.68 102.57,24.67 145.92,24.68 21.96,24.67 1120.05,24.67" /><path
         id="path1132"
         style="fill:none;stroke:#0072bd;stroke-width:30;stroke-linecap:butt;stroke-linejoin:bevel;stroke-miterlimit:10;stroke-dasharray:30, 30;stroke-dashoffset:0;stroke-opacity:1"
         d="m 561.262,482.176 2.453,24.676 13.637,24.671 12.816,24.676 19.82,24.676 49.114,24.676 42.906,24.676 32.105,24.671 8.11,24.676 7.132,24.676 4.836,24.676 33.879,24.676 39.637,24.671 39.434,24.676 23.738,24.676 11.184,24.676 9.058,24.676 10.008,24.671 11.445,24.676 21.516,24.676 0.129,24.676 17.758,24.674 24.984,24.67 4.739,24.68 1.25,24.68 6.5,24.67 3.99,24.68 0.66,24.67 8.88,24.67 12.27,24.68 6.02,24.68 0.82,24.67 4.24,24.67 22.01,24.68 0.49,24.68 8.9,24.67 10,24.68 5.43,24.67 3.99,24.67 4.71,24.68 3.21,24.68 7.61,24.67 2.59,24.67 3.66,24.68 1.54,24.68 6.8,24.67 10.62,24.68 15.96,24.67 7.4,24.67 3,24.68 4.29,24.68 13.57,24.67 35.05,24.67 17.98,24.68 40.88,24.68 6.71,24.67 10.69,24.68 20.99,24.67 12.07,24.67 2.15,24.68 15.6,24.68 4.71,24.67 5.53,24.67 7.58,24.68 0.65,24.68 2.85,24.67 1.24,24.68 9.69,24.67 17.62,24.67 4.88,24.68 43.42,24.68 49.8,24.67 10.66,24.67 15.21,24.68 13.37,24.68 7.59,24.67 13.44,24.68 19.87,24.67 32.12,24.67 16.45,24.68 2.61,24.68 39.21,24.67 59.22,24.67 35.45,24.68 47.48,24.68 59.61,24.67 80.15,24.68 63.14,24.67 26.29,24.67 77.31,24.68 59.41,24.68 188.16,24.67 77.56,24.67 16.19,24.68 115.43,24.68 171.91,24.67 112.02,24.68 179.46,24.67 763.87,13.47" /><path
         id="path1134"
         style="fill:none;stroke:#ff00ff;stroke-width:30;stroke-linecap:butt;stroke-linejoin:bevel;stroke-miterlimit:10;stroke-dasharray:30, 30;stroke-dashoffset:0;stroke-opacity:1"
         d="m 606.164,482.176 10.492,24.676 13.016,24.671 21.457,24.676 31.812,24.676 57.586,24.676 71.121,24.676 54.375,24.671 6.512,24.676 42.938,24.676 21.316,24.676 32.668,24.676 47.293,24.671 40.02,24.676 10.11,24.676 40.87,24.676 33.71,24.676 19.36,24.671 0.39,24.676 6.05,24.676 20.63,24.676 12.7,24.674 6.11,24.67 10.17,24.68 43.78,24.68 23.55,24.67 16.8,24.68 6.35,24.67 8.83,24.67 4.94,24.68 11.34,24.68 2.06,24.67 9.13,24.67 22.95,24.68 9.58,24.68 8.37,24.67 8.31,24.68 7.85,24.67 5.56,24.67 5.84,24.68 16.81,24.68 14.76,24.67 13.27,24.67 9.35,24.68 19.95,24.68 16.48,24.67 14.81,24.68 15.17,24.67 12.92,24.67 18.38,24.68 6.7,24.68 8.8,24.67 16.78,24.67 18.87,24.68 2.81,24.68 20.85,24.67 28.98,24.68 11.25,24.67 15.17,24.67 53.3,24.68 8.54,24.68 44.24,24.67 1.66,24.67 5.99,24.68 9.52,24.68 17.59,24.67 6.12,24.68 0.91,24.67 27.67,24.67 15.95,24.68 22.37,24.68 38.32,24.67 29.11,24.67 57.03,24.68 12.75,24.68 18.37,24.67 36.69,24.68 17.6,24.67 21.48,24.67 13.67,24.68 10.89,24.68 18.57,24.67 147.02,24.67 43.95,24.68 47.13,24.68 35.83,24.67 34.47,24.68 131.26,24.67 37.96,24.67 50.26,24.68 177.11,24.68 263.09,24.67 196.6,24.67 41.1,24.68 9.59,24.68 177.03,24.67 215.4,24.68 5.03,0.38" /><path
         id="path1136"
         style="fill:none;stroke:#d95319;stroke-width:30;stroke-linecap:butt;stroke-linejoin:bevel;stroke-miterlimit:10;stroke-dasharray:30, 30;stroke-dashoffset:0;stroke-opacity:1"
         d="m 648.57,482.176 15.735,24.676 38.976,24.671 12.36,24.676 13.605,24.676 62.289,24.676 105.098,24.676 82.344,24.671 3.367,24.676 52.806,24.676 36.56,24.676 49.87,24.676 51.99,24.671 21.39,24.676 34.4,24.676 35.94,24.676 11.05,24.676 1.67,24.671 49.96,24.676 11.58,24.676 12.03,24.676 5.69,24.674 3.14,24.67 5.4,24.68 58.46,24.68 27.14,24.67 11.88,24.68 41.91,24.67 35.78,24.67 18.48,24.68 14.41,24.68 7.04,24.67 28.38,24.67 13.99,24.68 6.51,24.68 5.07,24.67 9.36,24.68 4.31,24.67 42.28,24.67 3.89,24.68 8.02,24.68 3.49,24.67 17.79,24.67 18.18,24.68 4.9,24.68 3.44,24.67 22.63,24.68 8.92,24.67 12.56,24.67 9.91,24.68 9.88,24.68 11.87,24.67 23.25,24.67 11.73,24.68 46.74,24.68 33.38,24.67 37.48,24.68 16.47,24.67 8.67,24.67 15.83,24.68 74.06,24.68 38.36,24.67 20.28,24.67 13.79,24.68 31.69,24.68 25.67,24.67 5.95,24.68 19,24.67 20.21,24.67 22.14,24.68 18.73,24.68 9.75,24.67 87.38,24.67 44.82,24.68 5.1,24.68 23.81,24.67 6.87,24.68 35.05,24.67 40.09,24.67 10.33,24.68 1.54,24.68 108.08,24.67 24.26,24.67 84.04,24.68 72.95,24.68 32.34,24.67 6.15,24.68 24.89,24.67 179.32,24.67 50.32,24.68 306.9,24.68 252.11,24.67 79.56,7.73" /></g></g></svg>
