<?xml version="1.0" encoding="UTF-8" standalone="no"?>
<svg
   xmlns:dc="http://purl.org/dc/elements/1.1/"
   xmlns:cc="http://creativecommons.org/ns#"
   xmlns:rdf="http://www.w3.org/1999/02/22-rdf-syntax-ns#"
   xmlns:svg="http://www.w3.org/2000/svg"
   xmlns="http://www.w3.org/2000/svg"
   xmlns:sodipodi="http://sodipodi.sourceforge.net/DTD/sodipodi-0.dtd"
   xmlns:inkscape="http://www.inkscape.org/namespaces/inkscape"
   inkscape:version="1.0 (4035a4fb49, 2020-05-01)"
   sodipodi:docname="RainFR_RainExtr_EFFCI10_Costa.svg"
   viewBox="0 0 524 398.66666"
   height="398.66666"
   width="524"
   xml:space="preserve"
   id="svg2266"
   version="1.1"><metadata
     id="metadata2272"><rdf:RDF><cc:Work
         rdf:about=""><dc:format>image/svg+xml</dc:format><dc:type
           rdf:resource="http://purl.org/dc/dcmitype/StillImage" /><dc:title></dc:title></cc:Work></rdf:RDF></metadata><defs
     id="defs2270" /><sodipodi:namedview
     inkscape:current-layer="g2274"
     inkscape:window-maximized="0"
     inkscape:window-y="0"
     inkscape:window-x="0"
     inkscape:cy="199.33333"
     inkscape:cx="262"
     inkscape:zoom="1.8436455"
     showgrid="false"
     id="namedview2268"
     inkscape:window-height="510"
     inkscape:window-width="743"
     inkscape:pageshadow="2"
     inkscape:pageopacity="0"
     guidetolerance="10"
     gridtolerance="10"
     objecttolerance="10"
     borderopacity="1"
     bordercolor="#666666"
     pagecolor="#ffffff" /><g
     transform="matrix(1.3333333,0,0,-1.3333333,0,398.66667)"
     inkscape:label="ink_ext_XXXXXX"
     inkscape:groupmode="layer"
     id="g2274"><g
       transform="scale(0.1)"
       id="g2276"><path
         id="path2278"
         style="fill:#ffffff;fill-opacity:1;fill-rule:nonzero;stroke:none"
         d="M -30,0 H 4200 V 3165 H -30 Z" /><path
         id="path2280"
         style="fill:#ffffff;fill-opacity:1;fill-rule:nonzero;stroke:none"
         d="M -30,0 H 4200 V 3165 H -30 Z" /><path
         id="path2282"
         style="fill:#ffffff;fill-opacity:1;fill-rule:nonzero;stroke:none"
         d="M 525,457.5 H 3795 V 2925 H 525 Z" /><path
         id="path2284"
         style="fill:none;stroke:#929292;stroke-width:5.0025;stroke-linecap:butt;stroke-linejoin:round;stroke-miterlimit:10;stroke-dasharray:none;stroke-opacity:1"
         d="M 525,457.5 V 2925" /><path
         id="path2286"
         style="fill:none;stroke:#929292;stroke-width:5.0025;stroke-linecap:butt;stroke-linejoin:round;stroke-miterlimit:10;stroke-dasharray:none;stroke-opacity:1"
         d="M 992.145,457.5 V 2925" /><path
         id="path2288"
         style="fill:none;stroke:#929292;stroke-width:5.0025;stroke-linecap:butt;stroke-linejoin:round;stroke-miterlimit:10;stroke-dasharray:none;stroke-opacity:1"
         d="M 1459.28,457.5 V 2925" /><path
         id="path2290"
         style="fill:none;stroke:#929292;stroke-width:5.0025;stroke-linecap:butt;stroke-linejoin:round;stroke-miterlimit:10;stroke-dasharray:none;stroke-opacity:1"
         d="M 1926.43,457.5 V 2925" /><path
         id="path2292"
         style="fill:none;stroke:#929292;stroke-width:5.0025;stroke-linecap:butt;stroke-linejoin:round;stroke-miterlimit:10;stroke-dasharray:none;stroke-opacity:1"
         d="M 2393.57,457.5 V 2925" /><path
         id="path2294"
         style="fill:none;stroke:#929292;stroke-width:5.0025;stroke-linecap:butt;stroke-linejoin:round;stroke-miterlimit:10;stroke-dasharray:none;stroke-opacity:1"
         d="M 2860.72,457.5 V 2925" /><path
         id="path2296"
         style="fill:none;stroke:#929292;stroke-width:5.0025;stroke-linecap:butt;stroke-linejoin:round;stroke-miterlimit:10;stroke-dasharray:none;stroke-opacity:1"
         d="M 3327.86,457.5 V 2925" /><path
         id="path2298"
         style="fill:none;stroke:#929292;stroke-width:5.0025;stroke-linecap:butt;stroke-linejoin:round;stroke-miterlimit:10;stroke-dasharray:none;stroke-opacity:1"
         d="M 3795,457.5 V 2925" /><path
         id="path2300"
         style="fill:none;stroke:#929292;stroke-width:5.0025;stroke-linecap:butt;stroke-linejoin:round;stroke-miterlimit:10;stroke-dasharray:none;stroke-opacity:1"
         d="M 3795,457.5 H 525" /><path
         id="path2302"
         style="fill:none;stroke:#929292;stroke-width:5.0025;stroke-linecap:butt;stroke-linejoin:round;stroke-miterlimit:10;stroke-dasharray:none;stroke-opacity:1"
         d="M 3795,580.875 H 525" /><path
         id="path2304"
         style="fill:none;stroke:#929292;stroke-width:5.0025;stroke-linecap:butt;stroke-linejoin:round;stroke-miterlimit:10;stroke-dasharray:none;stroke-opacity:1"
         d="M 3795,704.25 H 525" /><path
         id="path2306"
         style="fill:none;stroke:#929292;stroke-width:5.0025;stroke-linecap:butt;stroke-linejoin:round;stroke-miterlimit:10;stroke-dasharray:none;stroke-opacity:1"
         d="M 3795,827.625 H 525" /><path
         id="path2308"
         style="fill:none;stroke:#929292;stroke-width:5.0025;stroke-linecap:butt;stroke-linejoin:round;stroke-miterlimit:10;stroke-dasharray:none;stroke-opacity:1"
         d="M 3795,951 H 525" /><path
         id="path2310"
         style="fill:none;stroke:#929292;stroke-width:5.0025;stroke-linecap:butt;stroke-linejoin:round;stroke-miterlimit:10;stroke-dasharray:none;stroke-opacity:1"
         d="M 3795,1074.38 H 525" /><path
         id="path2312"
         style="fill:none;stroke:#929292;stroke-width:5.0025;stroke-linecap:butt;stroke-linejoin:round;stroke-miterlimit:10;stroke-dasharray:none;stroke-opacity:1"
         d="M 3795,1197.75 H 525" /><path
         id="path2314"
         style="fill:none;stroke:#929292;stroke-width:5.0025;stroke-linecap:butt;stroke-linejoin:round;stroke-miterlimit:10;stroke-dasharray:none;stroke-opacity:1"
         d="M 3795,1321.13 H 525" /><path
         id="path2316"
         style="fill:none;stroke:#929292;stroke-width:5.0025;stroke-linecap:butt;stroke-linejoin:round;stroke-miterlimit:10;stroke-dasharray:none;stroke-opacity:1"
         d="M 3795,1444.5 H 525" /><path
         id="path2318"
         style="fill:none;stroke:#929292;stroke-width:5.0025;stroke-linecap:butt;stroke-linejoin:round;stroke-miterlimit:10;stroke-dasharray:none;stroke-opacity:1"
         d="M 3795,1567.88 H 525" /><path
         id="path2320"
         style="fill:none;stroke:#929292;stroke-width:5.0025;stroke-linecap:butt;stroke-linejoin:round;stroke-miterlimit:10;stroke-dasharray:none;stroke-opacity:1"
         d="M 3795,1691.25 H 525" /><path
         id="path2322"
         style="fill:none;stroke:#929292;stroke-width:5.0025;stroke-linecap:butt;stroke-linejoin:round;stroke-miterlimit:10;stroke-dasharray:none;stroke-opacity:1"
         d="M 3795,1814.63 H 525" /><path
         id="path2324"
         style="fill:none;stroke:#929292;stroke-width:5.0025;stroke-linecap:butt;stroke-linejoin:round;stroke-miterlimit:10;stroke-dasharray:none;stroke-opacity:1"
         d="M 3795,1938 H 525" /><path
         id="path2326"
         style="fill:none;stroke:#929292;stroke-width:5.0025;stroke-linecap:butt;stroke-linejoin:round;stroke-miterlimit:10;stroke-dasharray:none;stroke-opacity:1"
         d="M 3795,2061.38 H 525" /><path
         id="path2328"
         style="fill:none;stroke:#929292;stroke-width:5.0025;stroke-linecap:butt;stroke-linejoin:round;stroke-miterlimit:10;stroke-dasharray:none;stroke-opacity:1"
         d="M 3795,2184.75 H 525" /><path
         id="path2330"
         style="fill:none;stroke:#929292;stroke-width:5.0025;stroke-linecap:butt;stroke-linejoin:round;stroke-miterlimit:10;stroke-dasharray:none;stroke-opacity:1"
         d="M 3795,2308.13 H 525" /><path
         id="path2332"
         style="fill:none;stroke:#929292;stroke-width:5.0025;stroke-linecap:butt;stroke-linejoin:round;stroke-miterlimit:10;stroke-dasharray:none;stroke-opacity:1"
         d="M 3795,2431.5 H 525" /><path
         id="path2334"
         style="fill:none;stroke:#929292;stroke-width:5.0025;stroke-linecap:butt;stroke-linejoin:round;stroke-miterlimit:10;stroke-dasharray:none;stroke-opacity:1"
         d="M 3795,2554.88 H 525" /><path
         id="path2336"
         style="fill:none;stroke:#929292;stroke-width:5.0025;stroke-linecap:butt;stroke-linejoin:round;stroke-miterlimit:10;stroke-dasharray:none;stroke-opacity:1"
         d="M 3795,2678.25 H 525" /><path
         id="path2338"
         style="fill:none;stroke:#929292;stroke-width:5.0025;stroke-linecap:butt;stroke-linejoin:round;stroke-miterlimit:10;stroke-dasharray:none;stroke-opacity:1"
         d="M 3795,2801.63 H 525" /><path
         id="path2340"
         style="fill:none;stroke:#929292;stroke-width:5.0025;stroke-linecap:butt;stroke-linejoin:round;stroke-miterlimit:10;stroke-dasharray:none;stroke-opacity:1"
         d="M 3795,2925 H 525" /><path
         id="path2342"
         style="fill:none;stroke:#262626;stroke-width:5.0025;stroke-linecap:square;stroke-linejoin:round;stroke-miterlimit:10;stroke-dasharray:none;stroke-opacity:1"
         d="M 525,457.5 H 3795" /><path
         id="path2344"
         style="fill:none;stroke:#262626;stroke-width:5.0025;stroke-linecap:square;stroke-linejoin:round;stroke-miterlimit:10;stroke-dasharray:none;stroke-opacity:1"
         d="M 525,2925 H 3795" /><path
         id="path2346"
         style="fill:none;stroke:#262626;stroke-width:5.0025;stroke-linecap:square;stroke-linejoin:round;stroke-miterlimit:10;stroke-dasharray:none;stroke-opacity:1"
         d="m 525,457.5 v 32.699" /><path
         id="path2348"
         style="fill:none;stroke:#262626;stroke-width:5.0025;stroke-linecap:square;stroke-linejoin:round;stroke-miterlimit:10;stroke-dasharray:none;stroke-opacity:1"
         d="m 992.145,457.5 v 32.699" /><path
         id="path2350"
         style="fill:none;stroke:#262626;stroke-width:5.0025;stroke-linecap:square;stroke-linejoin:round;stroke-miterlimit:10;stroke-dasharray:none;stroke-opacity:1"
         d="m 1459.28,457.5 v 32.699" /><path
         id="path2352"
         style="fill:none;stroke:#262626;stroke-width:5.0025;stroke-linecap:square;stroke-linejoin:round;stroke-miterlimit:10;stroke-dasharray:none;stroke-opacity:1"
         d="m 1926.43,457.5 v 32.699" /><path
         id="path2354"
         style="fill:none;stroke:#262626;stroke-width:5.0025;stroke-linecap:square;stroke-linejoin:round;stroke-miterlimit:10;stroke-dasharray:none;stroke-opacity:1"
         d="m 2393.57,457.5 v 32.699" /><path
         id="path2356"
         style="fill:none;stroke:#262626;stroke-width:5.0025;stroke-linecap:square;stroke-linejoin:round;stroke-miterlimit:10;stroke-dasharray:none;stroke-opacity:1"
         d="m 2860.72,457.5 v 32.699" /><path
         id="path2358"
         style="fill:none;stroke:#262626;stroke-width:5.0025;stroke-linecap:square;stroke-linejoin:round;stroke-miterlimit:10;stroke-dasharray:none;stroke-opacity:1"
         d="m 3327.86,457.5 v 32.699" /><path
         id="path2360"
         style="fill:none;stroke:#262626;stroke-width:5.0025;stroke-linecap:square;stroke-linejoin:round;stroke-miterlimit:10;stroke-dasharray:none;stroke-opacity:1"
         d="m 3795,457.5 v 32.699" /><path
         id="path2362"
         style="fill:none;stroke:#262626;stroke-width:5.0025;stroke-linecap:square;stroke-linejoin:round;stroke-miterlimit:10;stroke-dasharray:none;stroke-opacity:1"
         d="m 525,2925 v -32.7" /><path
         id="path2364"
         style="fill:none;stroke:#262626;stroke-width:5.0025;stroke-linecap:square;stroke-linejoin:round;stroke-miterlimit:10;stroke-dasharray:none;stroke-opacity:1"
         d="m 992.145,2925 v -32.7" /><path
         id="path2366"
         style="fill:none;stroke:#262626;stroke-width:5.0025;stroke-linecap:square;stroke-linejoin:round;stroke-miterlimit:10;stroke-dasharray:none;stroke-opacity:1"
         d="m 1459.28,2925 v -32.7" /><path
         id="path2368"
         style="fill:none;stroke:#262626;stroke-width:5.0025;stroke-linecap:square;stroke-linejoin:round;stroke-miterlimit:10;stroke-dasharray:none;stroke-opacity:1"
         d="m 1926.43,2925 v -32.7" /><path
         id="path2370"
         style="fill:none;stroke:#262626;stroke-width:5.0025;stroke-linecap:square;stroke-linejoin:round;stroke-miterlimit:10;stroke-dasharray:none;stroke-opacity:1"
         d="m 2393.57,2925 v -32.7" /><path
         id="path2372"
         style="fill:none;stroke:#262626;stroke-width:5.0025;stroke-linecap:square;stroke-linejoin:round;stroke-miterlimit:10;stroke-dasharray:none;stroke-opacity:1"
         d="m 2860.72,2925 v -32.7" /><path
         id="path2374"
         style="fill:none;stroke:#262626;stroke-width:5.0025;stroke-linecap:square;stroke-linejoin:round;stroke-miterlimit:10;stroke-dasharray:none;stroke-opacity:1"
         d="m 3327.86,2925 v -32.7" /><path
         id="path2376"
         style="fill:none;stroke:#262626;stroke-width:5.0025;stroke-linecap:square;stroke-linejoin:round;stroke-miterlimit:10;stroke-dasharray:none;stroke-opacity:1"
         d="m 3795,2925 v -32.7" /><g
         transform="scale(10)"
         id="g2378"><text
           id="text2382"
           style="font-variant:normal;font-weight:normal;font-size:15.9998px;font-family:Helvetica;-inkscape-font-specification:Helvetica;writing-mode:lr-tb;fill:#262626;fill-opacity:1;fill-rule:nonzero;stroke:none"
           transform="matrix(1,0,0,-1,48,25.55)"><tspan
             id="tspan2380"
             sodipodi:role="line"
             y="0"
             x="0 42.214512 51.110401 84.428703 93.324593 102.22048 131.14333 140.03922 148.9351 177.85762 186.75351 195.6494 224.57224 233.46812 242.36401 271.28653 280.1824 289.07831 318.00116 326.89703 335.79291">050100150200250300350</tspan></text><text
           id="text2386"
           style="font-variant:normal;font-weight:normal;font-size:17.6002px;font-family:Helvetica;-inkscape-font-specification:Helvetica;writing-mode:lr-tb;fill:#262626;fill-opacity:1;fill-rule:nonzero;stroke:none"
           transform="matrix(1,0,0,-1,119.625,3.55)"><tspan
             id="tspan2384"
             sodipodi:role="line"
             y="0"
             x="0 12.707344 22.493055 26.400299 36.186012 41.078865 50.864578 54.771824 58.679066 63.571922 72.372025 82.15773 86.06498 95.850693 105.6364 114.4365 119.32935 124.22221 138.88318 153.54414 158.437 168.22272 178.00842 187.79413">Rainfall values [mm/12h]</tspan></text></g><path
         id="path2388"
         style="fill:none;stroke:#262626;stroke-width:5.0025;stroke-linecap:square;stroke-linejoin:round;stroke-miterlimit:10;stroke-dasharray:none;stroke-opacity:1"
         d="M 525,457.5 V 2925" /><path
         id="path2390"
         style="fill:none;stroke:#262626;stroke-width:5.0025;stroke-linecap:square;stroke-linejoin:round;stroke-miterlimit:10;stroke-dasharray:none;stroke-opacity:1"
         d="M 3795,457.5 V 2925" /><path
         id="path2392"
         style="fill:none;stroke:#262626;stroke-width:5.0025;stroke-linecap:square;stroke-linejoin:round;stroke-miterlimit:10;stroke-dasharray:none;stroke-opacity:1"
         d="m 525,457.5 h 32.699" /><path
         id="path2394"
         style="fill:none;stroke:#262626;stroke-width:5.0025;stroke-linecap:square;stroke-linejoin:round;stroke-miterlimit:10;stroke-dasharray:none;stroke-opacity:1"
         d="m 525,580.875 h 32.699" /><path
         id="path2396"
         style="fill:none;stroke:#262626;stroke-width:5.0025;stroke-linecap:square;stroke-linejoin:round;stroke-miterlimit:10;stroke-dasharray:none;stroke-opacity:1"
         d="m 525,704.25 h 32.699" /><path
         id="path2398"
         style="fill:none;stroke:#262626;stroke-width:5.0025;stroke-linecap:square;stroke-linejoin:round;stroke-miterlimit:10;stroke-dasharray:none;stroke-opacity:1"
         d="m 525,827.625 h 32.699" /><path
         id="path2400"
         style="fill:none;stroke:#262626;stroke-width:5.0025;stroke-linecap:square;stroke-linejoin:round;stroke-miterlimit:10;stroke-dasharray:none;stroke-opacity:1"
         d="m 525,951 h 32.699" /><path
         id="path2402"
         style="fill:none;stroke:#262626;stroke-width:5.0025;stroke-linecap:square;stroke-linejoin:round;stroke-miterlimit:10;stroke-dasharray:none;stroke-opacity:1"
         d="m 525,1074.38 h 32.699" /><path
         id="path2404"
         style="fill:none;stroke:#262626;stroke-width:5.0025;stroke-linecap:square;stroke-linejoin:round;stroke-miterlimit:10;stroke-dasharray:none;stroke-opacity:1"
         d="m 525,1197.75 h 32.699" /><path
         id="path2406"
         style="fill:none;stroke:#262626;stroke-width:5.0025;stroke-linecap:square;stroke-linejoin:round;stroke-miterlimit:10;stroke-dasharray:none;stroke-opacity:1"
         d="m 525,1321.13 h 32.699" /><path
         id="path2408"
         style="fill:none;stroke:#262626;stroke-width:5.0025;stroke-linecap:square;stroke-linejoin:round;stroke-miterlimit:10;stroke-dasharray:none;stroke-opacity:1"
         d="m 525,1444.5 h 32.699" /><path
         id="path2410"
         style="fill:none;stroke:#262626;stroke-width:5.0025;stroke-linecap:square;stroke-linejoin:round;stroke-miterlimit:10;stroke-dasharray:none;stroke-opacity:1"
         d="m 525,1567.88 h 32.699" /><path
         id="path2412"
         style="fill:none;stroke:#262626;stroke-width:5.0025;stroke-linecap:square;stroke-linejoin:round;stroke-miterlimit:10;stroke-dasharray:none;stroke-opacity:1"
         d="m 525,1691.25 h 32.699" /><path
         id="path2414"
         style="fill:none;stroke:#262626;stroke-width:5.0025;stroke-linecap:square;stroke-linejoin:round;stroke-miterlimit:10;stroke-dasharray:none;stroke-opacity:1"
         d="m 525,1814.63 h 32.699" /><path
         id="path2416"
         style="fill:none;stroke:#262626;stroke-width:5.0025;stroke-linecap:square;stroke-linejoin:round;stroke-miterlimit:10;stroke-dasharray:none;stroke-opacity:1"
         d="m 525,1938 h 32.699" /><path
         id="path2418"
         style="fill:none;stroke:#262626;stroke-width:5.0025;stroke-linecap:square;stroke-linejoin:round;stroke-miterlimit:10;stroke-dasharray:none;stroke-opacity:1"
         d="m 525,2061.38 h 32.699" /><path
         id="path2420"
         style="fill:none;stroke:#262626;stroke-width:5.0025;stroke-linecap:square;stroke-linejoin:round;stroke-miterlimit:10;stroke-dasharray:none;stroke-opacity:1"
         d="m 525,2184.75 h 32.699" /><path
         id="path2422"
         style="fill:none;stroke:#262626;stroke-width:5.0025;stroke-linecap:square;stroke-linejoin:round;stroke-miterlimit:10;stroke-dasharray:none;stroke-opacity:1"
         d="m 525,2308.13 h 32.699" /><path
         id="path2424"
         style="fill:none;stroke:#262626;stroke-width:5.0025;stroke-linecap:square;stroke-linejoin:round;stroke-miterlimit:10;stroke-dasharray:none;stroke-opacity:1"
         d="m 525,2431.5 h 32.699" /><path
         id="path2426"
         style="fill:none;stroke:#262626;stroke-width:5.0025;stroke-linecap:square;stroke-linejoin:round;stroke-miterlimit:10;stroke-dasharray:none;stroke-opacity:1"
         d="m 525,2554.88 h 32.699" /><path
         id="path2428"
         style="fill:none;stroke:#262626;stroke-width:5.0025;stroke-linecap:square;stroke-linejoin:round;stroke-miterlimit:10;stroke-dasharray:none;stroke-opacity:1"
         d="m 525,2678.25 h 32.699" /><path
         id="path2430"
         style="fill:none;stroke:#262626;stroke-width:5.0025;stroke-linecap:square;stroke-linejoin:round;stroke-miterlimit:10;stroke-dasharray:none;stroke-opacity:1"
         d="m 525,2801.63 h 32.699" /><path
         id="path2432"
         style="fill:none;stroke:#262626;stroke-width:5.0025;stroke-linecap:square;stroke-linejoin:round;stroke-miterlimit:10;stroke-dasharray:none;stroke-opacity:1"
         d="m 525,2925 h 32.699" /><path
         id="path2434"
         style="fill:none;stroke:#262626;stroke-width:5.0025;stroke-linecap:square;stroke-linejoin:round;stroke-miterlimit:10;stroke-dasharray:none;stroke-opacity:1"
         d="m 3795,457.5 h -32.7" /><path
         id="path2436"
         style="fill:none;stroke:#262626;stroke-width:5.0025;stroke-linecap:square;stroke-linejoin:round;stroke-miterlimit:10;stroke-dasharray:none;stroke-opacity:1"
         d="m 3795,580.875 h -32.7" /><path
         id="path2438"
         style="fill:none;stroke:#262626;stroke-width:5.0025;stroke-linecap:square;stroke-linejoin:round;stroke-miterlimit:10;stroke-dasharray:none;stroke-opacity:1"
         d="m 3795,704.25 h -32.7" /><path
         id="path2440"
         style="fill:none;stroke:#262626;stroke-width:5.0025;stroke-linecap:square;stroke-linejoin:round;stroke-miterlimit:10;stroke-dasharray:none;stroke-opacity:1"
         d="m 3795,827.625 h -32.7" /><path
         id="path2442"
         style="fill:none;stroke:#262626;stroke-width:5.0025;stroke-linecap:square;stroke-linejoin:round;stroke-miterlimit:10;stroke-dasharray:none;stroke-opacity:1"
         d="m 3795,951 h -32.7" /><path
         id="path2444"
         style="fill:none;stroke:#262626;stroke-width:5.0025;stroke-linecap:square;stroke-linejoin:round;stroke-miterlimit:10;stroke-dasharray:none;stroke-opacity:1"
         d="m 3795,1074.38 h -32.7" /><path
         id="path2446"
         style="fill:none;stroke:#262626;stroke-width:5.0025;stroke-linecap:square;stroke-linejoin:round;stroke-miterlimit:10;stroke-dasharray:none;stroke-opacity:1"
         d="m 3795,1197.75 h -32.7" /><path
         id="path2448"
         style="fill:none;stroke:#262626;stroke-width:5.0025;stroke-linecap:square;stroke-linejoin:round;stroke-miterlimit:10;stroke-dasharray:none;stroke-opacity:1"
         d="m 3795,1321.13 h -32.7" /><path
         id="path2450"
         style="fill:none;stroke:#262626;stroke-width:5.0025;stroke-linecap:square;stroke-linejoin:round;stroke-miterlimit:10;stroke-dasharray:none;stroke-opacity:1"
         d="m 3795,1444.5 h -32.7" /><path
         id="path2452"
         style="fill:none;stroke:#262626;stroke-width:5.0025;stroke-linecap:square;stroke-linejoin:round;stroke-miterlimit:10;stroke-dasharray:none;stroke-opacity:1"
         d="m 3795,1567.88 h -32.7" /><path
         id="path2454"
         style="fill:none;stroke:#262626;stroke-width:5.0025;stroke-linecap:square;stroke-linejoin:round;stroke-miterlimit:10;stroke-dasharray:none;stroke-opacity:1"
         d="m 3795,1691.25 h -32.7" /><path
         id="path2456"
         style="fill:none;stroke:#262626;stroke-width:5.0025;stroke-linecap:square;stroke-linejoin:round;stroke-miterlimit:10;stroke-dasharray:none;stroke-opacity:1"
         d="m 3795,1814.63 h -32.7" /><path
         id="path2458"
         style="fill:none;stroke:#262626;stroke-width:5.0025;stroke-linecap:square;stroke-linejoin:round;stroke-miterlimit:10;stroke-dasharray:none;stroke-opacity:1"
         d="m 3795,1938 h -32.7" /><path
         id="path2460"
         style="fill:none;stroke:#262626;stroke-width:5.0025;stroke-linecap:square;stroke-linejoin:round;stroke-miterlimit:10;stroke-dasharray:none;stroke-opacity:1"
         d="m 3795,2061.38 h -32.7" /><path
         id="path2462"
         style="fill:none;stroke:#262626;stroke-width:5.0025;stroke-linecap:square;stroke-linejoin:round;stroke-miterlimit:10;stroke-dasharray:none;stroke-opacity:1"
         d="m 3795,2184.75 h -32.7" /><path
         id="path2464"
         style="fill:none;stroke:#262626;stroke-width:5.0025;stroke-linecap:square;stroke-linejoin:round;stroke-miterlimit:10;stroke-dasharray:none;stroke-opacity:1"
         d="m 3795,2308.13 h -32.7" /><path
         id="path2466"
         style="fill:none;stroke:#262626;stroke-width:5.0025;stroke-linecap:square;stroke-linejoin:round;stroke-miterlimit:10;stroke-dasharray:none;stroke-opacity:1"
         d="m 3795,2431.5 h -32.7" /><path
         id="path2468"
         style="fill:none;stroke:#262626;stroke-width:5.0025;stroke-linecap:square;stroke-linejoin:round;stroke-miterlimit:10;stroke-dasharray:none;stroke-opacity:1"
         d="m 3795,2554.88 h -32.7" /><path
         id="path2470"
         style="fill:none;stroke:#262626;stroke-width:5.0025;stroke-linecap:square;stroke-linejoin:round;stroke-miterlimit:10;stroke-dasharray:none;stroke-opacity:1"
         d="m 3795,2678.25 h -32.7" /><path
         id="path2472"
         style="fill:none;stroke:#262626;stroke-width:5.0025;stroke-linecap:square;stroke-linejoin:round;stroke-miterlimit:10;stroke-dasharray:none;stroke-opacity:1"
         d="m 3795,2801.63 h -32.7" /><path
         id="path2474"
         style="fill:none;stroke:#262626;stroke-width:5.0025;stroke-linecap:square;stroke-linejoin:round;stroke-miterlimit:10;stroke-dasharray:none;stroke-opacity:1"
         d="m 3795,2925 h -32.7" /><g
         transform="scale(10)"
         id="g2476"><text
           id="text2520"
           style="font-variant:normal;font-weight:normal;font-size:15.9998px;font-family:Helvetica;-inkscape-font-specification:Helvetica;writing-mode:lr-tb;fill:#262626;fill-opacity:1;fill-rule:nonzero;stroke:none"
           transform="matrix(1,0,0,-1,38.3,40.125)"><tspan
             id="tspan2478"
             y="0"
             x="0">0</tspan><tspan
             id="tspan2480"
             y="-12.3375"
             x="4.5"> </tspan><tspan
             id="tspan2482"
             sodipodi:role="line"
             y="-24.674999"
             x="-9 -0.1041112">10</tspan><tspan
             id="tspan2484"
             y="-37.012501"
             x="4.5"> </tspan><tspan
             id="tspan2486"
             sodipodi:role="line"
             y="-49.349998"
             x="-9 -0.1041112">20</tspan><tspan
             id="tspan2488"
             y="-61.6875"
             x="4.5"> </tspan><tspan
             id="tspan2490"
             sodipodi:role="line"
             y="-74.025002"
             x="-9 -0.1041112">30</tspan><tspan
             id="tspan2492"
             y="-86.362503"
             x="4.5"> </tspan><tspan
             id="tspan2494"
             sodipodi:role="line"
             y="-98.699997"
             x="-9 -0.1041112">40</tspan><tspan
             id="tspan2496"
             y="-111.0375"
             x="4.5"> </tspan><tspan
             id="tspan2498"
             sodipodi:role="line"
             y="-123.375"
             x="-9 -0.1041112">50</tspan><tspan
             id="tspan2500"
             y="-135.71249"
             x="4.5"> </tspan><tspan
             id="tspan2502"
             sodipodi:role="line"
             y="-148.05"
             x="-9 -0.1041112">60</tspan><tspan
             id="tspan2504"
             y="-160.3875"
             x="4.5"> </tspan><tspan
             id="tspan2506"
             sodipodi:role="line"
             y="-172.72501"
             x="-9 -0.1041112">70</tspan><tspan
             id="tspan2508"
             y="-185.0625"
             x="4.5"> </tspan><tspan
             id="tspan2510"
             sodipodi:role="line"
             y="-197.39999"
             x="-9 -0.1041112">80</tspan><tspan
             id="tspan2512"
             y="-209.7375"
             x="4.5"> </tspan><tspan
             id="tspan2514"
             sodipodi:role="line"
             y="-222.075"
             x="-9 -0.1041112">90</tspan><tspan
             id="tspan2516"
             y="-234.41251"
             x="4.5"> </tspan><tspan
             id="tspan2518"
             sodipodi:role="line"
             y="-246.75"
             x="-18 -9.1041117 -0.2082224">100</tspan></text><text
           id="text2524"
           style="font-variant:normal;font-weight:normal;font-size:17.6002px;font-family:Helvetica;-inkscape-font-specification:Helvetica;writing-mode:lr-tb;fill:#262626;fill-opacity:1;fill-rule:nonzero;stroke:none"
           transform="matrix(0,1,1,0,13.55,109.5)"><tspan
             id="tspan2522"
             sodipodi:role="line"
             y="0"
             x="0 11.739333 21.525045 27.385912 36.186012 45.971722 55.757435 60.650288 64.557533 68.464775 78.250488 87.050591 91.943443 97.804314 113.45089">Percentiles (%)</tspan></text></g><path
         id="path2526"
         style="fill:none;stroke:#edb120;stroke-width:30;stroke-linecap:butt;stroke-linejoin:round;stroke-miterlimit:10;stroke-dasharray:none;stroke-opacity:1"
         d="m 539.844,482.176 v 24.676 l 0.015,24.671 0.2,24.676 0.195,24.676 0.211,24.676 0.195,24.676 0.195,24.671 0.219,24.676 0.239,24.676 0.238,24.676 0.258,24.676 0.238,24.671 0.25,24.676 0.703,24.676 1.801,24.676 1.793,24.676 1.797,24.671 1.793,24.676 1.808,24.676 1.59,24.676 1.297,24.674 1.297,24.67 1.301,24.68 1.296,24.68 1.297,24.67 0.668,24.68 0.121,24.67 0.11,24.67 0.113,24.68 0.113,24.68 0.121,24.67 0.981,24.67 1.465,24.68 1.461,24.68 1.453,24.67 1.472,24.68 1.454,24.67 1.359,24.67 1.312,24.68 1.321,24.68 1.32,24.67 1.305,24.67 1.32,24.68 0.402,24.68 0.293,24.67 0.293,24.68 0.278,24.67 0.293,24.67 0.285,24.68 1.441,24.68 1.43,24.67 1.441,24.67 1.434,24.68 1.43,24.68 1.304,24.67 0.364,24.68 0.351,24.67 0.352,24.67 0.351,24.68 0.356,24.68 1.304,24.67 4.395,24.67 4.394,24.68 4.403,24.68 4.402,24.67 4.387,24.68 6.953,24.67 11.633,24.67 11.625,24.68 11.633,24.68 11.632,24.67 11.618,24.67 6.156,24.68 v 24.68 24.67 24.68 24.67 24.67 l 18.691,24.68 31.754,24.68 31.754,24.67 31.766,24.67 31.761,24.68 31.754,24.68 10.907,24.67 2.203,24.68 2.207,24.67 2.203,24.67 2.207,24.68 2.203,24.68 24.137,24.67 28.836,24.67 28.832,24.68 28.828,24.68 28.835,24.67 28.83,24.68 1.71,24.67 v 24.67" /><path
         id="path2528"
         style="fill:none;stroke:#00ff00;stroke-width:30;stroke-linecap:butt;stroke-linejoin:round;stroke-miterlimit:10;stroke-dasharray:none;stroke-opacity:1"
         d="m 546.496,482.176 v 24.676 l 0.164,24.671 2.746,24.676 2.735,24.676 2.746,24.676 2.746,24.676 2.738,24.671 2.348,24.676 0.5,24.676 0.496,24.676 0.512,24.676 0.492,24.671 0.496,24.676 1.484,24.676 3.856,24.676 3.863,24.676 3.855,24.671 3.864,24.676 3.851,24.676 2.891,24.676 1.492,24.674 1.5,24.67 1.492,24.68 1.492,24.68 1.5,24.67 1.004,24.68 0.571,24.67 0.578,24.67 0.57,24.68 0.586,24.68 0.563,24.67 1.168,24.67 1.5,24.68 1.492,24.68 1.484,24.67 1.492,24.68 1.489,24.67 1.062,24.67 0.93,24.68 0.922,24.68 0.925,24.67 0.93,24.67 0.922,24.68 3.703,24.68 4.082,24.67 4.07,24.68 4.082,24.67 4.071,24.67 4.074,24.68 2.91,24.68 2.91,24.67 2.91,24.67 2.918,24.68 2.903,24.68 2.609,24.67 0.278,24.68 0.277,24.67 0.285,24.67 0.285,24.68 0.285,24.68 0.774,24.67 2.355,24.67 2.36,24.68 2.363,24.68 2.363,24.67 2.371,24.68 6.778,24.67 14.894,24.67 14.883,24.68 14.879,24.68 14.887,24.67 14.894,24.67 7.875,24.68 v 24.68 24.67 24.68 24.67 24.67 l 34.301,24.68 58.289,24.68 58.297,24.67 58.297,24.67 58.305,24.68 58.3,24.68 22.8,24.67 8.03,24.68 8.01,24.67 8.03,24.67 8.03,24.68 8.01,24.68 50.09,24.67 59.09,24.67 59.09,24.68 59.11,24.68 59.1,24.67 59.09,24.68 3.47,24.67 v 24.67" /><path
         id="path2530"
         style="fill:none;stroke:#7e2f8e;stroke-width:30;stroke-linecap:butt;stroke-linejoin:round;stroke-miterlimit:10;stroke-dasharray:none;stroke-opacity:1"
         d="m 551.781,482.176 v 24.676 l 0.219,24.671 3.652,24.676 3.653,24.676 3.668,24.676 3.652,24.676 3.652,24.671 3.219,24.676 1.215,24.676 1.207,24.676 1.215,24.676 1.215,24.671 1.207,24.676 2.836,24.676 6.75,24.676 6.734,24.676 6.742,24.671 6.742,24.676 6.743,24.676 4.679,24.676 1.735,24.674 1.73,24.67 1.742,24.68 1.739,24.68 1.734,24.67 1.723,24.68 1.711,24.67 1.703,24.67 1.711,24.68 1.707,24.68 1.703,24.67 0.953,24.67 0.531,24.68 0.535,24.68 0.532,24.67 0.531,24.68 0.543,24.67 1.312,24.67 1.551,24.68 1.559,24.68 1.547,24.67 1.55,24.67 1.555,24.68 3.391,24.68 3.636,24.67 3.645,24.68 3.629,24.67 3.64,24.67 3.629,24.68 2.731,24.68 2.722,24.67 2.723,24.67 2.727,24.68 2.73,24.68 2.527,24.67 1.125,24.68 1.114,24.67 1.125,24.67 1.117,24.68 1.109,24.68 2.129,24.67 5.414,24.67 5.418,24.68 5.414,24.68 5.407,24.67 5.406,24.68 10.66,24.67 20.277,24.67 20.282,24.68 20.273,24.68 20.285,24.67 20.274,24.67 10.734,24.68 v 24.68 24.67 24.68 24.67 24.67 l 43.73,24.68 74.348,24.68 74.351,24.67 74.34,24.67 74.34,24.68 74.36,24.68 23.13,24.67 1.79,24.68 1.81,24.67 1.79,24.67 1.8,24.68 1.8,24.68 68.08,24.67 82.28,24.67 82.28,24.68 82.28,24.68 82.28,24.67 82.29,24.68 4.83,24.67 v 24.67" /><path
         id="path2532"
         style="fill:none;stroke:#00ffff;stroke-width:30;stroke-linecap:butt;stroke-linejoin:round;stroke-miterlimit:10;stroke-dasharray:none;stroke-opacity:1"
         d="m 556.711,482.176 v 24.676 l 0.383,24.671 6.582,24.676 6.586,24.676 6.578,24.676 6.594,24.676 6.582,24.671 5.82,24.676 2.25,24.676 2.25,24.676 2.266,24.676 2.25,24.671 2.265,24.676 3.524,24.676 6.617,24.676 6.605,24.676 6.617,24.671 6.606,24.676 6.617,24.676 4.508,24.676 1.535,24.674 1.524,24.67 1.531,24.68 1.527,24.68 1.524,24.67 1.636,24.68 1.723,24.67 1.727,24.67 1.718,24.68 1.723,24.68 1.726,24.67 4.567,24.67 6.129,24.68 6.133,24.68 6.113,24.67 6.137,24.68 6.125,24.67 2.867,24.67 1.883,24.68 1.867,24.68 1.875,24.67 1.867,24.67 1.875,24.68 1.133,24.68 1.051,24.67 1.035,24.68 1.039,24.67 1.043,24.67 1.035,24.68 0.75,24.68 0.75,24.67 0.758,24.67 0.742,24.68 0.75,24.68 0.848,24.67 1.554,24.68 1.551,24.67 1.559,24.67 1.554,24.68 1.559,24.68 2.23,24.67 4.438,24.67 4.441,24.68 4.438,24.68 4.433,24.67 4.442,24.68 12.293,24.67 26.715,24.67 26.707,24.68 26.714,24.68 26.708,24.67 26.714,24.67 14.145,24.68 v 24.68 24.67 24.68 24.67 24.67 l 44.918,24.68 76.36,24.68 76.35,24.67 76.36,24.67 76.36,24.68 76.36,24.68 24.19,24.67 2.46,24.68 2.46,24.67 2.46,24.67 2.46,24.68 2.45,24.68 79.89,24.67 96.48,24.67 96.5,24.68 96.48,24.68 96.49,24.67 96.49,24.68 5.67,24.67 v 24.67" /><path
         id="path2534"
         style="fill:none;stroke:#0072bd;stroke-width:30;stroke-linecap:butt;stroke-linejoin:round;stroke-miterlimit:10;stroke-dasharray:none;stroke-opacity:1"
         d="m 572.594,482.176 v 24.676 l 0.594,24.671 10.191,24.676 10.199,24.676 10.195,24.676 10.192,24.676 10.191,24.671 8.61,24.676 1.203,24.676 1.191,24.676 1.207,24.676 1.192,24.671 1.203,24.676 2.871,24.676 6.906,24.676 6.91,24.676 6.899,24.671 6.906,24.676 6.894,24.676 5.571,24.676 3.64,24.674 3.645,24.67 3.644,24.68 3.645,24.68 3.637,24.67 4.695,24.68 5.617,24.67 5.625,24.67 5.61,24.68 5.625,24.68 5.625,24.67 6.164,24.67 6.468,24.68 6.457,24.68 6.465,24.67 6.465,24.68 6.465,24.67 2.57,24.67 1.367,24.68 1.364,24.68 1.359,24.67 1.379,24.67 1.359,24.68 2.227,24.68 2.348,24.67 2.339,24.68 2.348,24.67 2.348,24.67 2.34,24.68 9.996,24.68 10.004,24.67 10,24.67 9.996,24.68 10.004,24.68 9.031,24.67 1.726,24.68 1.739,24.67 1.742,24.67 1.723,24.68 1.742,24.68 3.199,24.67 7.973,24.67 7.957,24.68 7.972,24.68 7.965,24.67 7.973,24.68 14.82,24.67 27.363,24.67 27.368,24.68 27.368,24.68 27.35,24.67 27.37,24.67 14.49,24.68 v 24.68 24.67 24.68 24.67 24.67 l 40.73,24.68 69.24,24.68 69.24,24.67 69.24,24.67 69.24,24.68 69.24,24.68 22.46,24.67 2.94,24.68 2.97,24.67 2.95,24.67 2.95,24.68 2.95,24.68 92.16,24.67 111.27,24.67 111.28,24.68 111.27,24.68 111.28,24.67 111.26,24.68 6.55,24.67 v 24.67" /><path
         id="path2536"
         style="fill:none;stroke:#ff00ff;stroke-width:30;stroke-linecap:butt;stroke-linejoin:round;stroke-miterlimit:10;stroke-dasharray:none;stroke-opacity:1"
         d="m 594.039,482.176 v 24.676 l 0.801,24.671 13.656,24.676 13.66,24.676 13.657,24.676 13.664,24.676 13.66,24.671 11.367,24.676 0.684,24.676 0.683,24.676 0.68,24.676 0.683,24.671 0.684,24.676 4.574,24.676 13.949,24.676 13.95,24.676 13.953,24.671 13.941,24.676 13.949,24.676 8.977,24.676 1.875,24.674 1.875,24.67 1.867,24.68 1.875,24.68 1.883,24.67 5.527,24.68 8.785,24.67 8.774,24.67 8.781,24.68 8.785,24.68 8.782,24.67 3.832,24.67 1.14,24.68 1.125,24.68 1.133,24.67 1.133,24.68 1.133,24.67 3.629,24.67 4.394,24.68 4.387,24.68 4.402,24.67 4.391,24.67 4.402,24.68 10.688,24.68 11.519,24.67 11.527,24.68 11.536,24.67 11.519,24.67 11.528,24.68 0.015,24.68 0.024,24.67 0.019,24.67 0.024,24.68 0.015,24.68 0.481,24.67 3.847,24.68 3.848,24.67 3.863,24.67 3.848,24.68 3.859,24.68 10.59,24.67 32.535,24.67 32.524,24.68 32.54,24.68 32.52,24.67 32.53,24.68 30.9,24.67 27.9,24.67 27.91,24.68 27.9,24.68 27.9,24.67 27.91,24.67 14.77,24.68 v 24.68 24.67 24.68 24.67 24.67 l 34.3,24.68 58.32,24.68 58.32,24.67 58.33,24.67 58.32,24.68 58.31,24.68 27.13,24.67 14.12,24.68 14.11,24.67 14.13,24.67 14.11,24.68 14.12,24.68 138.36,24.67 164.97,24.67 164.98,24.68 164.97,24.68 164.98,24.67 164.96,24.68 9.71,24.67 v 24.67" /><path
         id="path2538"
         style="fill:none;stroke:#d95319;stroke-width:30;stroke-linecap:butt;stroke-linejoin:round;stroke-miterlimit:10;stroke-dasharray:none;stroke-opacity:1"
         d="m 633.301,482.176 v 24.676 l 0.621,24.671 10.523,24.676 10.532,24.676 10.527,24.676 10.531,24.676 10.531,24.671 11.715,24.676 17.258,24.676 17.258,24.676 17.254,24.676 17.246,24.671 17.254,24.676 13.043,24.676 2.933,24.676 2.942,24.676 2.929,24.671 2.934,24.676 2.926,24.676 4.14,24.676 5.856,24.674 5.844,24.67 5.863,24.68 5.859,24.68 5.844,24.67 7.289,24.68 8.563,24.67 8.558,24.67 8.574,24.68 8.555,24.68 8.567,24.67 11.804,24.67 13.555,24.68 13.566,24.68 13.567,24.67 13.562,24.68 13.567,24.67 3.824,24.67 0.832,24.68 0.816,24.68 0.828,24.67 0.817,24.67 0.832,24.68 1.359,24.68 1.422,24.67 1.434,24.68 1.433,24.67 1.426,24.67 1.43,24.68 1.402,24.68 1.402,24.67 1.399,24.67 1.402,24.68 1.41,24.68 5.211,24.67 33.86,24.68 33.84,24.67 33.84,24.67 33.84,24.68 33.85,24.68 26.94,24.67 4.46,24.67 4.48,24.68 4.46,24.68 4.48,24.67 4.46,24.68 16.99,24.67 39.9,24.67 39.92,24.68 39.91,24.68 39.91,24.67 39.9,24.67 21.14,24.68 v 24.68 24.67 24.68 24.67 24.67 l 20.66,24.68 35.13,24.68 35.12,24.67 35.14,24.67 35.13,24.68 35.12,24.68 22.38,24.67 17.07,24.68 17.07,24.67 17.07,24.67 17.07,24.68 17.08,24.68 185.64,24.67 221.79,24.67 221.79,24.68 221.79,24.68 221.79,24.67 221.79,24.68 13.04,24.67 v 24.67" /><path
         id="path2540"
         style="fill:none;stroke:#edb120;stroke-width:30;stroke-linecap:butt;stroke-linejoin:bevel;stroke-miterlimit:10;stroke-dasharray:30, 30;stroke-dashoffset:0;stroke-opacity:1"
         d="m 526.672,482.176 v 49.347 l 0.047,24.676 0.058,24.676 0.047,24.676 0.043,24.676 0.047,24.671 0.074,24.676 0.215,24.676 0.219,24.676 0.203,24.676 0.219,24.671 0.207,24.676 0.265,24.676 0.403,24.676 0.39,24.676 0.391,24.671 0.398,24.676 0.391,24.676 0.524,24.676 0.699,24.674 0.687,24.67 0.707,24.68 0.696,24.68 0.707,24.67 0.531,24.68 0.398,24.67 0.399,24.67 0.386,24.68 0.407,24.68 0.39,24.67 0.383,24.67 0.375,24.68 0.383,24.68 0.375,24.67 0.367,24.68 0.391,24.67 0.125,24.67 0.054,24.68 0.051,24.68 0.055,24.67 0.059,24.67 0.05,24.68 0.309,24.68 0.34,24.67 0.343,24.68 0.336,24.67 0.348,24.67 0.336,24.68 0.254,24.68 0.25,24.67 0.254,24.67 0.246,24.68 0.258,24.68 0.261,24.67 0.293,24.68 0.293,24.67 0.289,24.67 0.293,24.68 0.301,24.68 0.668,24.67 1.918,24.67 1.914,24.68 1.906,24.68 1.911,24.67 1.921,24.68 1.672,24.67 1.231,24.67 1.238,24.68 1.231,24.68 1.242,24.67 1.23,24.67 0.653,24.68 v 24.68 24.67 24.68 24.67 24.67 l 4.589,24.68 7.817,24.68 7.801,24.67 7.8,24.67 7.797,24.68 7.801,24.68 3.188,24.67 1.261,24.68 1.258,24.67 1.27,24.67 1.257,24.68 1.262,24.68 12.809,24.67 15.285,24.67 15.285,24.68 15.27,24.68 15.285,24.67 15.285,24.68 0.902,24.67 v 24.67" /><path
         id="path2542"
         style="fill:none;stroke:#00ff00;stroke-width:30;stroke-linecap:butt;stroke-linejoin:bevel;stroke-miterlimit:10;stroke-dasharray:30, 30;stroke-dashoffset:0;stroke-opacity:1"
         d="m 547.172,482.176 v 49.347 l 0.027,24.676 0.039,24.676 0.028,24.676 0.023,24.676 0.031,24.671 0.106,24.676 0.449,24.676 0.441,24.676 0.45,24.676 0.453,24.671 0.433,24.676 0.989,24.676 2.304,24.676 2.293,24.676 2.297,24.671 2.293,24.676 2.297,24.676 2.004,24.676 1.582,24.674 1.574,24.67 1.59,24.68 1.574,24.68 1.582,24.67 1.563,24.68 1.519,24.67 1.532,24.67 1.523,24.68 1.535,24.68 1.524,24.67 0.847,24.67 0.465,24.68 0.481,24.68 0.464,24.67 0.481,24.68 0.465,24.67 0.976,24.67 1.117,24.68 1.125,24.68 1.118,24.67 1.117,24.67 1.125,24.68 0.644,24.68 0.571,24.67 0.578,24.68 0.578,24.67 0.582,24.67 0.578,24.68 0.813,24.68 0.8,24.67 0.817,24.67 0.804,24.68 0.809,24.68 0.727,24.67 0.179,24.68 0.188,24.67 0.183,24.67 0.172,24.68 0.18,24.68 1.25,24.67 4.727,24.67 4.738,24.68 4.726,24.68 4.727,24.67 4.73,24.68 5.25,24.67 6.188,24.67 6.18,24.68 6.187,24.68 6.188,24.67 6.179,24.67 3.278,24.68 v 24.68 24.67 24.68 24.67 24.67 l 14.027,24.68 23.836,24.68 23.84,24.67 23.836,24.67 23.843,24.68 23.84,24.68 7.953,24.67 1.348,24.68 1.336,24.67 1.344,24.67 1.332,24.68 1.351,24.68 41.61,24.67 50.25,24.67 50.242,24.68 50.243,24.68 50.26,24.67 50.25,24.68 2.95,24.67 v 24.67" /><path
         id="path2544"
         style="fill:none;stroke:#7e2f8e;stroke-width:30;stroke-linecap:butt;stroke-linejoin:bevel;stroke-miterlimit:10;stroke-dasharray:30, 30;stroke-dashoffset:0;stroke-opacity:1"
         d="m 571.035,482.176 v 24.676 l 0.043,24.671 0.856,24.676 0.855,24.676 0.856,24.676 0.855,24.676 0.855,24.671 0.743,24.676 0.187,24.676 0.188,24.676 0.187,24.676 0.18,24.671 0.203,24.676 1.379,24.676 4.262,24.676 4.25,24.676 4.261,24.671 4.254,24.676 4.258,24.676 3.254,24.676 1.84,24.674 1.836,24.67 1.832,24.68 1.828,24.68 1.844,24.67 2.507,24.68 3.09,24.67 3.106,24.67 3.09,24.68 3.089,24.68 3.106,24.67 1.199,24.67 0.18,24.68 0.172,24.68 0.172,24.67 0.171,24.68 0.176,24.67 1.317,24.67 1.683,24.68 1.672,24.68 1.672,24.67 1.68,24.67 1.672,24.68 1.816,24.68 1.828,24.67 1.832,24.68 1.844,24.67 1.832,24.67 1.828,24.68 1.066,24.68 1.063,24.67 1.074,24.67 1.063,24.68 1.066,24.68 0.992,24.67 0.403,24.68 0.39,24.67 0.406,24.67 0.399,24.68 0.394,24.68 1.801,24.67 6.352,24.67 6.355,24.68 6.344,24.68 6.352,24.67 6.351,24.68 7.777,24.67 10.391,24.67 10.379,24.68 10.387,24.68 10.379,24.67 10.39,24.67 5.496,24.68 v 24.68 24.67 24.68 24.67 24.67 l 22.469,24.68 38.191,24.68 38.196,24.67 38.191,24.67 38.199,24.68 38.204,24.68 13.011,24.67 2.543,24.68 2.528,24.67 2.535,24.67 2.527,24.68 2.535,24.68 65.786,24.67 79.32,24.67 79.35,24.68 79.33,24.68 79.33,24.67 79.33,24.68 4.67,24.67 v 24.67" /><path
         id="path2546"
         style="fill:none;stroke:#00ffff;stroke-width:30;stroke-linecap:butt;stroke-linejoin:bevel;stroke-miterlimit:10;stroke-dasharray:30, 30;stroke-dashoffset:0;stroke-opacity:1"
         d="m 594.316,482.176 v 24.676 l 0.11,24.671 1.863,24.676 1.859,24.676 1.86,24.676 1.867,24.676 1.859,24.671 1.606,24.676 0.426,24.676 0.422,24.676 0.433,24.676 0.422,24.671 0.426,24.676 1.929,24.676 5.512,24.676 5.504,24.676 5.512,24.671 5.515,24.676 5.512,24.676 3.824,24.676 1.411,24.674 1.41,24.67 1.41,24.68 1.41,24.68 1.41,24.67 2.828,24.68 4.071,24.67 4.082,24.67 4.07,24.68 4.09,24.68 4.07,24.67 2.035,24.67 0.938,24.68 0.929,24.68 0.93,24.67 0.93,24.68 0.937,24.67 1.117,24.67 1.176,24.68 1.196,24.68 1.175,24.67 1.184,24.67 1.18,24.68 2.578,24.68 2.761,24.67 2.774,24.68 2.769,24.67 2.766,24.67 2.762,24.68 2.105,24.68 2.102,24.67 2.113,24.67 2.102,24.68 2.101,24.68 1.875,24.67 0.164,24.68 0.157,24.67 0.152,24.67 0.156,24.68 0.156,24.68 1.899,24.67 7.539,24.67 7.543,24.68 7.539,24.68 7.543,24.67 7.547,24.68 10.386,24.67 15.622,24.67 15.625,24.68 15.613,24.68 15.621,24.67 15.625,24.67 8.273,24.68 v 24.68 24.67 24.68 24.67 24.67 l 31.039,24.68 52.774,24.68 52.777,24.67 52.766,24.67 52.78,24.68 52.78,24.68 16.62,24.67 1.59,24.68 1.57,24.67 1.59,24.67 1.57,24.68 1.58,24.68 90.5,24.67 109.53,24.67 109.55,24.68 109.55,24.68 109.54,24.67 109.53,24.68 6.45,24.67 v 24.67" /><path
         id="path2548"
         style="fill:none;stroke:#0072bd;stroke-width:30;stroke-linecap:butt;stroke-linejoin:bevel;stroke-miterlimit:10;stroke-dasharray:30, 30;stroke-dashoffset:0;stroke-opacity:1"
         d="m 647.828,482.176 v 24.676 l 0.113,24.671 1.903,24.676 1.914,24.676 1.89,24.676 1.911,24.676 1.906,24.671 1.973,24.676 2.296,24.676 2.293,24.676 2.297,24.676 2.293,24.671 2.305,24.676 3.051,24.676 4.898,24.676 4.902,24.676 4.891,24.671 4.899,24.676 4.906,24.676 4.379,24.676 3.652,24.674 3.66,24.67 3.66,24.68 3.653,24.68 3.652,24.67 4.402,24.68 5.063,24.67 5.062,24.67 5.063,24.68 5.062,24.68 5.071,24.67 4.695,24.67 4.516,24.68 4.515,24.68 4.504,24.67 4.516,24.68 4.5,24.67 1.824,24.67 0.988,24.68 0.992,24.68 0.989,24.67 0.992,24.67 0.996,24.68 2.445,24.68 2.633,24.67 2.649,24.68 2.636,24.67 2.649,24.67 2.64,24.68 6.668,24.68 6.653,24.67 6.66,24.67 6.66,24.68 6.652,24.68 5.969,24.67 0.781,24.68 0.789,24.67 0.786,24.67 0.796,24.68 0.778,24.68 2.605,24.67 8.52,24.67 8.511,24.68 8.504,24.68 8.512,24.67 8.516,24.68 13.879,24.67 23.722,24.67 23.723,24.68 23.723,24.68 23.722,24.67 23.724,24.67 12.55,24.68 v 24.68 24.67 24.68 24.67 24.67 l 40.88,24.68 69.49,24.68 69.49,24.67 69.5,24.67 69.48,24.68 69.5,24.68 24.15,24.67 5.25,24.68 5.25,24.67 5.25,24.67 5.26,24.68 5.25,24.68 118.79,24.67 143.12,24.67 143.09,24.68 143.12,24.68 143.11,24.67 143.12,24.68 8.42,24.67 v 24.67" /><path
         id="path2550"
         style="fill:none;stroke:#ff00ff;stroke-width:30;stroke-linecap:butt;stroke-linejoin:bevel;stroke-miterlimit:10;stroke-dasharray:30, 30;stroke-dashoffset:0;stroke-opacity:1"
         d="m 705.906,482.176 v 24.676 l 0.266,24.671 4.484,24.676 4.469,24.676 4.477,24.676 4.484,24.676 4.48,24.671 5.196,24.676 8.609,24.676 8.606,24.676 8.601,24.676 8.594,24.671 8.609,24.676 7.621,24.676 5.282,24.676 5.269,24.676 5.274,24.671 5.273,24.676 5.281,24.676 4.785,24.676 4.086,24.674 4.086,24.67 4.082,24.68 4.094,24.68 4.082,24.67 4.484,24.68 4.836,24.67 4.832,24.67 4.844,24.68 4.836,24.68 4.832,24.67 8.82,24.67 10.981,24.68 10.988,24.68 10.985,24.67 10.98,24.68 10.981,24.67 2.804,24.67 0.278,24.68 0.269,24.68 0.285,24.67 0.278,24.67 0.285,24.68 2.777,24.68 3.098,24.67 3.113,24.68 3.109,24.67 3.098,24.67 3.113,24.68 11.934,24.68 11.93,24.67 11.925,24.67 11.926,24.68 11.933,24.68 10.58,24.67 0.52,24.68 0.51,24.67 0.52,24.67 0.5,24.68 0.51,24.68 3.42,24.67 12.87,24.67 12.86,24.68 12.86,24.68 12.87,24.67 12.87,24.68 20.52,24.67 34.58,24.67 34.58,24.68 34.57,24.68 34.58,24.67 34.58,24.67 18.3,24.68 v 24.68 24.67 24.68 24.67 24.67 l 61.33,24.68 104.23,24.68 104.25,24.67 104.25,24.67 104.24,24.68 104.25,24.68 34.95,24.67 6.08,24.68 6.08,24.67 6.08,24.67 6.08,24.68 6.07,24.68 169.08,24.67 204.02,24.67 204,24.68 204.02,24.68 204.01,24.67 204.01,24.68 12,24.67 v 24.67" /><path
         id="path2552"
         style="fill:none;stroke:#d95319;stroke-width:30;stroke-linecap:butt;stroke-linejoin:bevel;stroke-miterlimit:10;stroke-dasharray:30, 30;stroke-dashoffset:0;stroke-opacity:1"
         d="m 753.113,482.176 v 24.676 l 0.703,24.671 11.875,24.676 11.872,24.676 11.886,24.676 11.875,24.676 11.879,24.671 10.633,24.676 4.867,24.676 4.871,24.676 4.867,24.676 4.86,24.671 4.867,24.676 5.098,24.676 5.648,24.676 5.649,24.676 5.648,24.671 5.652,24.676 5.641,24.676 7.375,24.676 9.824,24.674 9.832,24.67 9.84,24.68 9.824,24.68 9.832,24.67 6.293,24.68 3.164,24.67 3.176,24.67 3.164,24.68 3.164,24.68 3.156,24.67 10,24.67 13.715,24.68 13.719,24.68 13.708,24.67 13.72,24.68 13.72,24.67 3.4,24.67 0.23,24.68 0.22,24.68 0.24,24.67 0.22,24.67 0.24,24.68 1.53,24.68 1.71,24.67 1.69,24.68 1.72,24.67 1.7,24.67 1.71,24.68 16.91,24.68 16.9,24.67 16.91,24.67 16.91,24.68 16.9,24.68 15.02,24.67 0.77,24.68 0.79,24.67 0.78,24.67 0.77,24.68 0.79,24.68 2.83,24.67 9.53,24.67 9.54,24.68 9.54,24.68 9.52,24.67 9.54,24.68 23.09,24.67 47.98,24.67 47.97,24.68 47.97,24.68 47.97,24.67 47.98,24.67 25.39,24.68 v 24.68 24.67 24.68 24.67 24.67 l 78.03,24.68 132.66,24.68 132.66,24.67 132.65,24.67 132.66,24.68 132.66,24.68 50.68,24.67 16.51,24.68 16.51,24.67 16.5,24.67 16.52,24.68 16.51,24.68 198.9,24.67 237.99,24.67 237.99,24.68 237.98,24.68 237.99,24.67 237.99,24.68 13.99,24.67 v 24.67" /></g></g></svg>
