<?xml version="1.0" encoding="UTF-8" standalone="no"?>
<svg
   xmlns:dc="http://purl.org/dc/elements/1.1/"
   xmlns:cc="http://creativecommons.org/ns#"
   xmlns:rdf="http://www.w3.org/1999/02/22-rdf-syntax-ns#"
   xmlns:svg="http://www.w3.org/2000/svg"
   xmlns="http://www.w3.org/2000/svg"
   xmlns:sodipodi="http://sodipodi.sourceforge.net/DTD/sodipodi-0.dtd"
   xmlns:inkscape="http://www.inkscape.org/namespaces/inkscape"
   inkscape:version="1.0 (4035a4fb49, 2020-05-01)"
   sodipodi:docname="RainFR_RainExtr_EFFCI06_Costa.svg"
   viewBox="0 0 524 398.66666"
   height="398.66666"
   width="524"
   xml:space="preserve"
   id="svg1138"
   version="1.1"><metadata
     id="metadata1144"><rdf:RDF><cc:Work
         rdf:about=""><dc:format>image/svg+xml</dc:format><dc:type
           rdf:resource="http://purl.org/dc/dcmitype/StillImage" /><dc:title></dc:title></cc:Work></rdf:RDF></metadata><defs
     id="defs1142" /><sodipodi:namedview
     inkscape:current-layer="g1146"
     inkscape:window-maximized="0"
     inkscape:window-y="0"
     inkscape:window-x="0"
     inkscape:cy="199.33333"
     inkscape:cx="262"
     inkscape:zoom="1.8436455"
     showgrid="false"
     id="namedview1140"
     inkscape:window-height="510"
     inkscape:window-width="743"
     inkscape:pageshadow="2"
     inkscape:pageopacity="0"
     guidetolerance="10"
     gridtolerance="10"
     objecttolerance="10"
     borderopacity="1"
     bordercolor="#666666"
     pagecolor="#ffffff" /><g
     transform="matrix(1.3333333,0,0,-1.3333333,0,398.66667)"
     inkscape:label="ink_ext_XXXXXX"
     inkscape:groupmode="layer"
     id="g1146"><g
       transform="scale(0.1)"
       id="g1148"><path
         id="path1150"
         style="fill:#ffffff;fill-opacity:1;fill-rule:nonzero;stroke:none"
         d="M -30,0 H 4200 V 3165 H -30 Z" /><path
         id="path1152"
         style="fill:#ffffff;fill-opacity:1;fill-rule:nonzero;stroke:none"
         d="M -30,0 H 4200 V 3165 H -30 Z" /><path
         id="path1154"
         style="fill:#ffffff;fill-opacity:1;fill-rule:nonzero;stroke:none"
         d="M 525,457.5 H 3795 V 2925 H 525 Z" /><path
         id="path1156"
         style="fill:none;stroke:#929292;stroke-width:5.0025;stroke-linecap:butt;stroke-linejoin:round;stroke-miterlimit:10;stroke-dasharray:none;stroke-opacity:1"
         d="M 525,457.5 V 2925" /><path
         id="path1158"
         style="fill:none;stroke:#929292;stroke-width:5.0025;stroke-linecap:butt;stroke-linejoin:round;stroke-miterlimit:10;stroke-dasharray:none;stroke-opacity:1"
         d="M 992.145,457.5 V 2925" /><path
         id="path1160"
         style="fill:none;stroke:#929292;stroke-width:5.0025;stroke-linecap:butt;stroke-linejoin:round;stroke-miterlimit:10;stroke-dasharray:none;stroke-opacity:1"
         d="M 1459.28,457.5 V 2925" /><path
         id="path1162"
         style="fill:none;stroke:#929292;stroke-width:5.0025;stroke-linecap:butt;stroke-linejoin:round;stroke-miterlimit:10;stroke-dasharray:none;stroke-opacity:1"
         d="M 1926.43,457.5 V 2925" /><path
         id="path1164"
         style="fill:none;stroke:#929292;stroke-width:5.0025;stroke-linecap:butt;stroke-linejoin:round;stroke-miterlimit:10;stroke-dasharray:none;stroke-opacity:1"
         d="M 2393.57,457.5 V 2925" /><path
         id="path1166"
         style="fill:none;stroke:#929292;stroke-width:5.0025;stroke-linecap:butt;stroke-linejoin:round;stroke-miterlimit:10;stroke-dasharray:none;stroke-opacity:1"
         d="M 2860.72,457.5 V 2925" /><path
         id="path1168"
         style="fill:none;stroke:#929292;stroke-width:5.0025;stroke-linecap:butt;stroke-linejoin:round;stroke-miterlimit:10;stroke-dasharray:none;stroke-opacity:1"
         d="M 3327.86,457.5 V 2925" /><path
         id="path1170"
         style="fill:none;stroke:#929292;stroke-width:5.0025;stroke-linecap:butt;stroke-linejoin:round;stroke-miterlimit:10;stroke-dasharray:none;stroke-opacity:1"
         d="M 3795,457.5 V 2925" /><path
         id="path1172"
         style="fill:none;stroke:#929292;stroke-width:5.0025;stroke-linecap:butt;stroke-linejoin:round;stroke-miterlimit:10;stroke-dasharray:none;stroke-opacity:1"
         d="M 3795,457.5 H 525" /><path
         id="path1174"
         style="fill:none;stroke:#929292;stroke-width:5.0025;stroke-linecap:butt;stroke-linejoin:round;stroke-miterlimit:10;stroke-dasharray:none;stroke-opacity:1"
         d="M 3795,580.875 H 525" /><path
         id="path1176"
         style="fill:none;stroke:#929292;stroke-width:5.0025;stroke-linecap:butt;stroke-linejoin:round;stroke-miterlimit:10;stroke-dasharray:none;stroke-opacity:1"
         d="M 3795,704.25 H 525" /><path
         id="path1178"
         style="fill:none;stroke:#929292;stroke-width:5.0025;stroke-linecap:butt;stroke-linejoin:round;stroke-miterlimit:10;stroke-dasharray:none;stroke-opacity:1"
         d="M 3795,827.625 H 525" /><path
         id="path1180"
         style="fill:none;stroke:#929292;stroke-width:5.0025;stroke-linecap:butt;stroke-linejoin:round;stroke-miterlimit:10;stroke-dasharray:none;stroke-opacity:1"
         d="M 3795,951 H 525" /><path
         id="path1182"
         style="fill:none;stroke:#929292;stroke-width:5.0025;stroke-linecap:butt;stroke-linejoin:round;stroke-miterlimit:10;stroke-dasharray:none;stroke-opacity:1"
         d="M 3795,1074.38 H 525" /><path
         id="path1184"
         style="fill:none;stroke:#929292;stroke-width:5.0025;stroke-linecap:butt;stroke-linejoin:round;stroke-miterlimit:10;stroke-dasharray:none;stroke-opacity:1"
         d="M 3795,1197.75 H 525" /><path
         id="path1186"
         style="fill:none;stroke:#929292;stroke-width:5.0025;stroke-linecap:butt;stroke-linejoin:round;stroke-miterlimit:10;stroke-dasharray:none;stroke-opacity:1"
         d="M 3795,1321.13 H 525" /><path
         id="path1188"
         style="fill:none;stroke:#929292;stroke-width:5.0025;stroke-linecap:butt;stroke-linejoin:round;stroke-miterlimit:10;stroke-dasharray:none;stroke-opacity:1"
         d="M 3795,1444.5 H 525" /><path
         id="path1190"
         style="fill:none;stroke:#929292;stroke-width:5.0025;stroke-linecap:butt;stroke-linejoin:round;stroke-miterlimit:10;stroke-dasharray:none;stroke-opacity:1"
         d="M 3795,1567.88 H 525" /><path
         id="path1192"
         style="fill:none;stroke:#929292;stroke-width:5.0025;stroke-linecap:butt;stroke-linejoin:round;stroke-miterlimit:10;stroke-dasharray:none;stroke-opacity:1"
         d="M 3795,1691.25 H 525" /><path
         id="path1194"
         style="fill:none;stroke:#929292;stroke-width:5.0025;stroke-linecap:butt;stroke-linejoin:round;stroke-miterlimit:10;stroke-dasharray:none;stroke-opacity:1"
         d="M 3795,1814.63 H 525" /><path
         id="path1196"
         style="fill:none;stroke:#929292;stroke-width:5.0025;stroke-linecap:butt;stroke-linejoin:round;stroke-miterlimit:10;stroke-dasharray:none;stroke-opacity:1"
         d="M 3795,1938 H 525" /><path
         id="path1198"
         style="fill:none;stroke:#929292;stroke-width:5.0025;stroke-linecap:butt;stroke-linejoin:round;stroke-miterlimit:10;stroke-dasharray:none;stroke-opacity:1"
         d="M 3795,2061.38 H 525" /><path
         id="path1200"
         style="fill:none;stroke:#929292;stroke-width:5.0025;stroke-linecap:butt;stroke-linejoin:round;stroke-miterlimit:10;stroke-dasharray:none;stroke-opacity:1"
         d="M 3795,2184.75 H 525" /><path
         id="path1202"
         style="fill:none;stroke:#929292;stroke-width:5.0025;stroke-linecap:butt;stroke-linejoin:round;stroke-miterlimit:10;stroke-dasharray:none;stroke-opacity:1"
         d="M 3795,2308.13 H 525" /><path
         id="path1204"
         style="fill:none;stroke:#929292;stroke-width:5.0025;stroke-linecap:butt;stroke-linejoin:round;stroke-miterlimit:10;stroke-dasharray:none;stroke-opacity:1"
         d="M 3795,2431.5 H 525" /><path
         id="path1206"
         style="fill:none;stroke:#929292;stroke-width:5.0025;stroke-linecap:butt;stroke-linejoin:round;stroke-miterlimit:10;stroke-dasharray:none;stroke-opacity:1"
         d="M 3795,2554.88 H 525" /><path
         id="path1208"
         style="fill:none;stroke:#929292;stroke-width:5.0025;stroke-linecap:butt;stroke-linejoin:round;stroke-miterlimit:10;stroke-dasharray:none;stroke-opacity:1"
         d="M 3795,2678.25 H 525" /><path
         id="path1210"
         style="fill:none;stroke:#929292;stroke-width:5.0025;stroke-linecap:butt;stroke-linejoin:round;stroke-miterlimit:10;stroke-dasharray:none;stroke-opacity:1"
         d="M 3795,2801.63 H 525" /><path
         id="path1212"
         style="fill:none;stroke:#929292;stroke-width:5.0025;stroke-linecap:butt;stroke-linejoin:round;stroke-miterlimit:10;stroke-dasharray:none;stroke-opacity:1"
         d="M 3795,2925 H 525" /><path
         id="path1214"
         style="fill:none;stroke:#262626;stroke-width:5.0025;stroke-linecap:square;stroke-linejoin:round;stroke-miterlimit:10;stroke-dasharray:none;stroke-opacity:1"
         d="M 525,457.5 H 3795" /><path
         id="path1216"
         style="fill:none;stroke:#262626;stroke-width:5.0025;stroke-linecap:square;stroke-linejoin:round;stroke-miterlimit:10;stroke-dasharray:none;stroke-opacity:1"
         d="M 525,2925 H 3795" /><path
         id="path1218"
         style="fill:none;stroke:#262626;stroke-width:5.0025;stroke-linecap:square;stroke-linejoin:round;stroke-miterlimit:10;stroke-dasharray:none;stroke-opacity:1"
         d="m 525,457.5 v 32.699" /><path
         id="path1220"
         style="fill:none;stroke:#262626;stroke-width:5.0025;stroke-linecap:square;stroke-linejoin:round;stroke-miterlimit:10;stroke-dasharray:none;stroke-opacity:1"
         d="m 992.145,457.5 v 32.699" /><path
         id="path1222"
         style="fill:none;stroke:#262626;stroke-width:5.0025;stroke-linecap:square;stroke-linejoin:round;stroke-miterlimit:10;stroke-dasharray:none;stroke-opacity:1"
         d="m 1459.28,457.5 v 32.699" /><path
         id="path1224"
         style="fill:none;stroke:#262626;stroke-width:5.0025;stroke-linecap:square;stroke-linejoin:round;stroke-miterlimit:10;stroke-dasharray:none;stroke-opacity:1"
         d="m 1926.43,457.5 v 32.699" /><path
         id="path1226"
         style="fill:none;stroke:#262626;stroke-width:5.0025;stroke-linecap:square;stroke-linejoin:round;stroke-miterlimit:10;stroke-dasharray:none;stroke-opacity:1"
         d="m 2393.57,457.5 v 32.699" /><path
         id="path1228"
         style="fill:none;stroke:#262626;stroke-width:5.0025;stroke-linecap:square;stroke-linejoin:round;stroke-miterlimit:10;stroke-dasharray:none;stroke-opacity:1"
         d="m 2860.72,457.5 v 32.699" /><path
         id="path1230"
         style="fill:none;stroke:#262626;stroke-width:5.0025;stroke-linecap:square;stroke-linejoin:round;stroke-miterlimit:10;stroke-dasharray:none;stroke-opacity:1"
         d="m 3327.86,457.5 v 32.699" /><path
         id="path1232"
         style="fill:none;stroke:#262626;stroke-width:5.0025;stroke-linecap:square;stroke-linejoin:round;stroke-miterlimit:10;stroke-dasharray:none;stroke-opacity:1"
         d="m 3795,457.5 v 32.699" /><path
         id="path1234"
         style="fill:none;stroke:#262626;stroke-width:5.0025;stroke-linecap:square;stroke-linejoin:round;stroke-miterlimit:10;stroke-dasharray:none;stroke-opacity:1"
         d="m 525,2925 v -32.7" /><path
         id="path1236"
         style="fill:none;stroke:#262626;stroke-width:5.0025;stroke-linecap:square;stroke-linejoin:round;stroke-miterlimit:10;stroke-dasharray:none;stroke-opacity:1"
         d="m 992.145,2925 v -32.7" /><path
         id="path1238"
         style="fill:none;stroke:#262626;stroke-width:5.0025;stroke-linecap:square;stroke-linejoin:round;stroke-miterlimit:10;stroke-dasharray:none;stroke-opacity:1"
         d="m 1459.28,2925 v -32.7" /><path
         id="path1240"
         style="fill:none;stroke:#262626;stroke-width:5.0025;stroke-linecap:square;stroke-linejoin:round;stroke-miterlimit:10;stroke-dasharray:none;stroke-opacity:1"
         d="m 1926.43,2925 v -32.7" /><path
         id="path1242"
         style="fill:none;stroke:#262626;stroke-width:5.0025;stroke-linecap:square;stroke-linejoin:round;stroke-miterlimit:10;stroke-dasharray:none;stroke-opacity:1"
         d="m 2393.57,2925 v -32.7" /><path
         id="path1244"
         style="fill:none;stroke:#262626;stroke-width:5.0025;stroke-linecap:square;stroke-linejoin:round;stroke-miterlimit:10;stroke-dasharray:none;stroke-opacity:1"
         d="m 2860.72,2925 v -32.7" /><path
         id="path1246"
         style="fill:none;stroke:#262626;stroke-width:5.0025;stroke-linecap:square;stroke-linejoin:round;stroke-miterlimit:10;stroke-dasharray:none;stroke-opacity:1"
         d="m 3327.86,2925 v -32.7" /><path
         id="path1248"
         style="fill:none;stroke:#262626;stroke-width:5.0025;stroke-linecap:square;stroke-linejoin:round;stroke-miterlimit:10;stroke-dasharray:none;stroke-opacity:1"
         d="m 3795,2925 v -32.7" /><g
         transform="scale(10)"
         id="g1250"><text
           id="text1254"
           style="font-variant:normal;font-weight:normal;font-size:15.9998px;font-family:Helvetica;-inkscape-font-specification:Helvetica;writing-mode:lr-tb;fill:#262626;fill-opacity:1;fill-rule:nonzero;stroke:none"
           transform="matrix(1,0,0,-1,48,25.55)"><tspan
             id="tspan1252"
             sodipodi:role="line"
             y="0"
             x="0 42.214512 51.110401 84.428703 93.324593 102.22048 131.14333 140.03922 148.9351 177.85762 186.75351 195.6494 224.57224 233.46812 242.36401 271.28653 280.1824 289.07831 318.00116 326.89703 335.79291">050100150200250300350</tspan></text><text
           id="text1258"
           style="font-variant:normal;font-weight:normal;font-size:17.6002px;font-family:Helvetica;-inkscape-font-specification:Helvetica;writing-mode:lr-tb;fill:#262626;fill-opacity:1;fill-rule:nonzero;stroke:none"
           transform="matrix(1,0,0,-1,119.625,3.55)"><tspan
             id="tspan1256"
             sodipodi:role="line"
             y="0"
             x="0 12.707344 22.493055 26.400299 36.186012 41.078865 50.864578 54.771824 58.679066 63.571922 72.372025 82.15773 86.06498 95.850693 105.6364 114.4365 119.32935 124.22221 138.88318 153.54414 158.437 168.22272 178.00842 187.79413">Rainfall values [mm/12h]</tspan></text></g><path
         id="path1260"
         style="fill:none;stroke:#262626;stroke-width:5.0025;stroke-linecap:square;stroke-linejoin:round;stroke-miterlimit:10;stroke-dasharray:none;stroke-opacity:1"
         d="M 525,457.5 V 2925" /><path
         id="path1262"
         style="fill:none;stroke:#262626;stroke-width:5.0025;stroke-linecap:square;stroke-linejoin:round;stroke-miterlimit:10;stroke-dasharray:none;stroke-opacity:1"
         d="M 3795,457.5 V 2925" /><path
         id="path1264"
         style="fill:none;stroke:#262626;stroke-width:5.0025;stroke-linecap:square;stroke-linejoin:round;stroke-miterlimit:10;stroke-dasharray:none;stroke-opacity:1"
         d="m 525,457.5 h 32.699" /><path
         id="path1266"
         style="fill:none;stroke:#262626;stroke-width:5.0025;stroke-linecap:square;stroke-linejoin:round;stroke-miterlimit:10;stroke-dasharray:none;stroke-opacity:1"
         d="m 525,580.875 h 32.699" /><path
         id="path1268"
         style="fill:none;stroke:#262626;stroke-width:5.0025;stroke-linecap:square;stroke-linejoin:round;stroke-miterlimit:10;stroke-dasharray:none;stroke-opacity:1"
         d="m 525,704.25 h 32.699" /><path
         id="path1270"
         style="fill:none;stroke:#262626;stroke-width:5.0025;stroke-linecap:square;stroke-linejoin:round;stroke-miterlimit:10;stroke-dasharray:none;stroke-opacity:1"
         d="m 525,827.625 h 32.699" /><path
         id="path1272"
         style="fill:none;stroke:#262626;stroke-width:5.0025;stroke-linecap:square;stroke-linejoin:round;stroke-miterlimit:10;stroke-dasharray:none;stroke-opacity:1"
         d="m 525,951 h 32.699" /><path
         id="path1274"
         style="fill:none;stroke:#262626;stroke-width:5.0025;stroke-linecap:square;stroke-linejoin:round;stroke-miterlimit:10;stroke-dasharray:none;stroke-opacity:1"
         d="m 525,1074.38 h 32.699" /><path
         id="path1276"
         style="fill:none;stroke:#262626;stroke-width:5.0025;stroke-linecap:square;stroke-linejoin:round;stroke-miterlimit:10;stroke-dasharray:none;stroke-opacity:1"
         d="m 525,1197.75 h 32.699" /><path
         id="path1278"
         style="fill:none;stroke:#262626;stroke-width:5.0025;stroke-linecap:square;stroke-linejoin:round;stroke-miterlimit:10;stroke-dasharray:none;stroke-opacity:1"
         d="m 525,1321.13 h 32.699" /><path
         id="path1280"
         style="fill:none;stroke:#262626;stroke-width:5.0025;stroke-linecap:square;stroke-linejoin:round;stroke-miterlimit:10;stroke-dasharray:none;stroke-opacity:1"
         d="m 525,1444.5 h 32.699" /><path
         id="path1282"
         style="fill:none;stroke:#262626;stroke-width:5.0025;stroke-linecap:square;stroke-linejoin:round;stroke-miterlimit:10;stroke-dasharray:none;stroke-opacity:1"
         d="m 525,1567.88 h 32.699" /><path
         id="path1284"
         style="fill:none;stroke:#262626;stroke-width:5.0025;stroke-linecap:square;stroke-linejoin:round;stroke-miterlimit:10;stroke-dasharray:none;stroke-opacity:1"
         d="m 525,1691.25 h 32.699" /><path
         id="path1286"
         style="fill:none;stroke:#262626;stroke-width:5.0025;stroke-linecap:square;stroke-linejoin:round;stroke-miterlimit:10;stroke-dasharray:none;stroke-opacity:1"
         d="m 525,1814.63 h 32.699" /><path
         id="path1288"
         style="fill:none;stroke:#262626;stroke-width:5.0025;stroke-linecap:square;stroke-linejoin:round;stroke-miterlimit:10;stroke-dasharray:none;stroke-opacity:1"
         d="m 525,1938 h 32.699" /><path
         id="path1290"
         style="fill:none;stroke:#262626;stroke-width:5.0025;stroke-linecap:square;stroke-linejoin:round;stroke-miterlimit:10;stroke-dasharray:none;stroke-opacity:1"
         d="m 525,2061.38 h 32.699" /><path
         id="path1292"
         style="fill:none;stroke:#262626;stroke-width:5.0025;stroke-linecap:square;stroke-linejoin:round;stroke-miterlimit:10;stroke-dasharray:none;stroke-opacity:1"
         d="m 525,2184.75 h 32.699" /><path
         id="path1294"
         style="fill:none;stroke:#262626;stroke-width:5.0025;stroke-linecap:square;stroke-linejoin:round;stroke-miterlimit:10;stroke-dasharray:none;stroke-opacity:1"
         d="m 525,2308.13 h 32.699" /><path
         id="path1296"
         style="fill:none;stroke:#262626;stroke-width:5.0025;stroke-linecap:square;stroke-linejoin:round;stroke-miterlimit:10;stroke-dasharray:none;stroke-opacity:1"
         d="m 525,2431.5 h 32.699" /><path
         id="path1298"
         style="fill:none;stroke:#262626;stroke-width:5.0025;stroke-linecap:square;stroke-linejoin:round;stroke-miterlimit:10;stroke-dasharray:none;stroke-opacity:1"
         d="m 525,2554.88 h 32.699" /><path
         id="path1300"
         style="fill:none;stroke:#262626;stroke-width:5.0025;stroke-linecap:square;stroke-linejoin:round;stroke-miterlimit:10;stroke-dasharray:none;stroke-opacity:1"
         d="m 525,2678.25 h 32.699" /><path
         id="path1302"
         style="fill:none;stroke:#262626;stroke-width:5.0025;stroke-linecap:square;stroke-linejoin:round;stroke-miterlimit:10;stroke-dasharray:none;stroke-opacity:1"
         d="m 525,2801.63 h 32.699" /><path
         id="path1304"
         style="fill:none;stroke:#262626;stroke-width:5.0025;stroke-linecap:square;stroke-linejoin:round;stroke-miterlimit:10;stroke-dasharray:none;stroke-opacity:1"
         d="m 525,2925 h 32.699" /><path
         id="path1306"
         style="fill:none;stroke:#262626;stroke-width:5.0025;stroke-linecap:square;stroke-linejoin:round;stroke-miterlimit:10;stroke-dasharray:none;stroke-opacity:1"
         d="m 3795,457.5 h -32.7" /><path
         id="path1308"
         style="fill:none;stroke:#262626;stroke-width:5.0025;stroke-linecap:square;stroke-linejoin:round;stroke-miterlimit:10;stroke-dasharray:none;stroke-opacity:1"
         d="m 3795,580.875 h -32.7" /><path
         id="path1310"
         style="fill:none;stroke:#262626;stroke-width:5.0025;stroke-linecap:square;stroke-linejoin:round;stroke-miterlimit:10;stroke-dasharray:none;stroke-opacity:1"
         d="m 3795,704.25 h -32.7" /><path
         id="path1312"
         style="fill:none;stroke:#262626;stroke-width:5.0025;stroke-linecap:square;stroke-linejoin:round;stroke-miterlimit:10;stroke-dasharray:none;stroke-opacity:1"
         d="m 3795,827.625 h -32.7" /><path
         id="path1314"
         style="fill:none;stroke:#262626;stroke-width:5.0025;stroke-linecap:square;stroke-linejoin:round;stroke-miterlimit:10;stroke-dasharray:none;stroke-opacity:1"
         d="m 3795,951 h -32.7" /><path
         id="path1316"
         style="fill:none;stroke:#262626;stroke-width:5.0025;stroke-linecap:square;stroke-linejoin:round;stroke-miterlimit:10;stroke-dasharray:none;stroke-opacity:1"
         d="m 3795,1074.38 h -32.7" /><path
         id="path1318"
         style="fill:none;stroke:#262626;stroke-width:5.0025;stroke-linecap:square;stroke-linejoin:round;stroke-miterlimit:10;stroke-dasharray:none;stroke-opacity:1"
         d="m 3795,1197.75 h -32.7" /><path
         id="path1320"
         style="fill:none;stroke:#262626;stroke-width:5.0025;stroke-linecap:square;stroke-linejoin:round;stroke-miterlimit:10;stroke-dasharray:none;stroke-opacity:1"
         d="m 3795,1321.13 h -32.7" /><path
         id="path1322"
         style="fill:none;stroke:#262626;stroke-width:5.0025;stroke-linecap:square;stroke-linejoin:round;stroke-miterlimit:10;stroke-dasharray:none;stroke-opacity:1"
         d="m 3795,1444.5 h -32.7" /><path
         id="path1324"
         style="fill:none;stroke:#262626;stroke-width:5.0025;stroke-linecap:square;stroke-linejoin:round;stroke-miterlimit:10;stroke-dasharray:none;stroke-opacity:1"
         d="m 3795,1567.88 h -32.7" /><path
         id="path1326"
         style="fill:none;stroke:#262626;stroke-width:5.0025;stroke-linecap:square;stroke-linejoin:round;stroke-miterlimit:10;stroke-dasharray:none;stroke-opacity:1"
         d="m 3795,1691.25 h -32.7" /><path
         id="path1328"
         style="fill:none;stroke:#262626;stroke-width:5.0025;stroke-linecap:square;stroke-linejoin:round;stroke-miterlimit:10;stroke-dasharray:none;stroke-opacity:1"
         d="m 3795,1814.63 h -32.7" /><path
         id="path1330"
         style="fill:none;stroke:#262626;stroke-width:5.0025;stroke-linecap:square;stroke-linejoin:round;stroke-miterlimit:10;stroke-dasharray:none;stroke-opacity:1"
         d="m 3795,1938 h -32.7" /><path
         id="path1332"
         style="fill:none;stroke:#262626;stroke-width:5.0025;stroke-linecap:square;stroke-linejoin:round;stroke-miterlimit:10;stroke-dasharray:none;stroke-opacity:1"
         d="m 3795,2061.38 h -32.7" /><path
         id="path1334"
         style="fill:none;stroke:#262626;stroke-width:5.0025;stroke-linecap:square;stroke-linejoin:round;stroke-miterlimit:10;stroke-dasharray:none;stroke-opacity:1"
         d="m 3795,2184.75 h -32.7" /><path
         id="path1336"
         style="fill:none;stroke:#262626;stroke-width:5.0025;stroke-linecap:square;stroke-linejoin:round;stroke-miterlimit:10;stroke-dasharray:none;stroke-opacity:1"
         d="m 3795,2308.13 h -32.7" /><path
         id="path1338"
         style="fill:none;stroke:#262626;stroke-width:5.0025;stroke-linecap:square;stroke-linejoin:round;stroke-miterlimit:10;stroke-dasharray:none;stroke-opacity:1"
         d="m 3795,2431.5 h -32.7" /><path
         id="path1340"
         style="fill:none;stroke:#262626;stroke-width:5.0025;stroke-linecap:square;stroke-linejoin:round;stroke-miterlimit:10;stroke-dasharray:none;stroke-opacity:1"
         d="m 3795,2554.88 h -32.7" /><path
         id="path1342"
         style="fill:none;stroke:#262626;stroke-width:5.0025;stroke-linecap:square;stroke-linejoin:round;stroke-miterlimit:10;stroke-dasharray:none;stroke-opacity:1"
         d="m 3795,2678.25 h -32.7" /><path
         id="path1344"
         style="fill:none;stroke:#262626;stroke-width:5.0025;stroke-linecap:square;stroke-linejoin:round;stroke-miterlimit:10;stroke-dasharray:none;stroke-opacity:1"
         d="m 3795,2801.63 h -32.7" /><path
         id="path1346"
         style="fill:none;stroke:#262626;stroke-width:5.0025;stroke-linecap:square;stroke-linejoin:round;stroke-miterlimit:10;stroke-dasharray:none;stroke-opacity:1"
         d="m 3795,2925 h -32.7" /><g
         transform="scale(10)"
         id="g1348"><text
           id="text1392"
           style="font-variant:normal;font-weight:normal;font-size:15.9998px;font-family:Helvetica;-inkscape-font-specification:Helvetica;writing-mode:lr-tb;fill:#262626;fill-opacity:1;fill-rule:nonzero;stroke:none"
           transform="matrix(1,0,0,-1,38.3,40.125)"><tspan
             id="tspan1350"
             y="0"
             x="0">0</tspan><tspan
             id="tspan1352"
             y="-12.3375"
             x="4.5"> </tspan><tspan
             id="tspan1354"
             sodipodi:role="line"
             y="-24.674999"
             x="-9 -0.1041112">10</tspan><tspan
             id="tspan1356"
             y="-37.012501"
             x="4.5"> </tspan><tspan
             id="tspan1358"
             sodipodi:role="line"
             y="-49.349998"
             x="-9 -0.1041112">20</tspan><tspan
             id="tspan1360"
             y="-61.6875"
             x="4.5"> </tspan><tspan
             id="tspan1362"
             sodipodi:role="line"
             y="-74.025002"
             x="-9 -0.1041112">30</tspan><tspan
             id="tspan1364"
             y="-86.362503"
             x="4.5"> </tspan><tspan
             id="tspan1366"
             sodipodi:role="line"
             y="-98.699997"
             x="-9 -0.1041112">40</tspan><tspan
             id="tspan1368"
             y="-111.0375"
             x="4.5"> </tspan><tspan
             id="tspan1370"
             sodipodi:role="line"
             y="-123.375"
             x="-9 -0.1041112">50</tspan><tspan
             id="tspan1372"
             y="-135.71249"
             x="4.5"> </tspan><tspan
             id="tspan1374"
             sodipodi:role="line"
             y="-148.05"
             x="-9 -0.1041112">60</tspan><tspan
             id="tspan1376"
             y="-160.3875"
             x="4.5"> </tspan><tspan
             id="tspan1378"
             sodipodi:role="line"
             y="-172.72501"
             x="-9 -0.1041112">70</tspan><tspan
             id="tspan1380"
             y="-185.0625"
             x="4.5"> </tspan><tspan
             id="tspan1382"
             sodipodi:role="line"
             y="-197.39999"
             x="-9 -0.1041112">80</tspan><tspan
             id="tspan1384"
             y="-209.7375"
             x="4.5"> </tspan><tspan
             id="tspan1386"
             sodipodi:role="line"
             y="-222.075"
             x="-9 -0.1041112">90</tspan><tspan
             id="tspan1388"
             y="-234.41251"
             x="4.5"> </tspan><tspan
             id="tspan1390"
             sodipodi:role="line"
             y="-246.75"
             x="-18 -9.1041117 -0.2082224">100</tspan></text><text
           id="text1396"
           style="font-variant:normal;font-weight:normal;font-size:17.6002px;font-family:Helvetica;-inkscape-font-specification:Helvetica;writing-mode:lr-tb;fill:#262626;fill-opacity:1;fill-rule:nonzero;stroke:none"
           transform="matrix(0,1,1,0,13.55,109.5)"><tspan
             id="tspan1394"
             sodipodi:role="line"
             y="0"
             x="0 11.739333 21.525045 27.385912 36.186012 45.971722 55.757435 60.650288 64.557533 68.464775 78.250488 87.050591 91.943443 97.804314 113.45089">Percentiles (%)</tspan></text></g><path
         id="path1398"
         style="fill:none;stroke:#edb120;stroke-width:30;stroke-linecap:butt;stroke-linejoin:round;stroke-miterlimit:10;stroke-dasharray:none;stroke-opacity:1"
         d="m 526.566,482.176 1.223,24.676 2.422,24.671 3.406,24.676 4.352,24.676 1.902,24.676 1.074,24.676 0.227,24.671 1.019,24.676 0.793,24.676 2.047,24.676 1.297,24.676 3.184,24.671 3.832,24.676 0.515,24.676 0.235,24.676 0.875,24.676 2.047,24.671 0.168,24.676 1.125,24.676 0.3,24.676 0.036,24.674 1.343,24.67 0.817,24.68 0.324,24.68 0.5,24.67 0.82,24.68 0.922,24.67 0.262,24.67 v 24.68 24.68 24.67 l 2.558,24.67 0.516,24.68 1.898,24.68 1.141,24.67 0.27,24.68 2.886,24.67 3.801,24.67 0.797,24.68 0.047,24.68 0.297,24.67 0.929,24.67 0.602,24.68 0.652,24.68 1.207,24.67 2.168,24.68 1.395,24.67 1.914,24.67 1.711,24.68 0.957,24.68 0.527,24.67 0.86,24.67 2.949,24.68 2.355,24.68 0.141,24.67 6.309,24.68 0.593,24.67 2.813,24.67 1.738,24.68 1.254,24.68 1.223,24.67 0.765,24.67 1.16,24.68 2.2,24.68 1.394,24.67 0.758,24.68 4.238,24.67 4.5,24.67 3.11,24.68 2.664,24.68 1.261,24.67 2.25,24.67 11.895,24.68 16.566,24.68 13.973,24.67 7.297,24.68 0.367,24.67 2.242,24.67 6.391,24.68 8.422,24.68 6.929,24.67 2.321,24.67 4.355,24.68 3.422,24.68 5.465,24.67 2.746,24.68 1.027,24.67 9.817,24.67 14.476,24.68 5.821,24.68 17.593,24.67 3.438,24.67 6.492,24.68 12.457,24.68 60.137,24.67 22.508,24.68 22.23,24.67 91.508,24.67" /><path
         id="path1400"
         style="fill:none;stroke:#00ff00;stroke-width:30;stroke-linecap:butt;stroke-linejoin:round;stroke-miterlimit:10;stroke-dasharray:none;stroke-opacity:1"
         d="m 531.398,482.176 3.075,24.676 6.351,24.671 3.172,24.676 2.516,24.676 0.367,24.676 14.789,24.676 3.488,24.671 8.938,24.676 3.804,24.676 0.637,24.676 0.164,24.676 0.938,24.671 1.269,24.676 0.492,24.676 0.536,24.676 2.496,24.676 3.886,24.671 0.856,24.676 0.328,24.676 2.941,24.676 1.161,24.674 0.636,24.67 1.727,24.68 2.773,24.68 2.703,24.67 1.582,24.68 1.543,24.67 3.293,24.67 v 24.68 24.68 24.67 l 0.219,24.67 0.883,24.68 1.172,24.68 1.949,24.67 1.59,24.68 0.734,24.67 2.446,24.67 6.601,24.68 7.606,24.68 1.941,24.67 0.09,24.67 0.652,24.68 4.403,24.68 5.414,24.67 1.457,24.68 0.132,24.67 2.411,24.67 2.347,24.68 1.063,24.68 0.66,24.67 0.172,24.67 1.097,24.68 3.016,24.68 1.492,24.67 v 24.68 l 1.657,24.67 1.019,24.67 2.684,24.68 5.703,24.68 5.355,24.67 2.578,24.67 0.563,24.68 2.078,24.68 4.852,24.67 1.027,24.68 2.199,24.67 9.5,24.67 14.844,24.68 5.121,24.68 6.66,24.67 4.113,24.67 15.973,24.68 13.184,24.68 2.355,24.67 4.867,24.68 14.035,24.67 19.141,24.67 28.617,24.68 8.168,24.68 7.149,24.67 1.125,24.67 20.191,24.68 32.789,24.68 11.61,24.67 7.875,24.68 9.375,24.67 7.531,24.67 18.652,24.68 29.07,24.68 8.547,24.67 2.86,24.67 10.417,24.68 1.63,24.68 81.43,24.67 52.77,24.68 107.65,24.67 166.94,24.67" /><path
         id="path1402"
         style="fill:none;stroke:#7e2f8e;stroke-width:30;stroke-linecap:butt;stroke-linejoin:round;stroke-miterlimit:10;stroke-dasharray:none;stroke-opacity:1"
         d="m 537.699,482.176 4.559,24.676 6.09,24.671 3.336,24.676 1.293,24.676 10.875,24.676 8.855,24.676 6.707,24.671 11.535,24.676 3.793,24.676 1.11,24.676 0.472,24.676 1.883,24.671 3.797,24.676 4.258,24.676 4.343,24.676 1.434,24.676 0.801,24.671 7.074,24.676 0.367,24.676 3.883,24.676 3.848,24.674 1.851,24.67 4.907,24.68 3.343,24.68 0.227,24.67 0.187,24.68 v 24.67 24.67 l 0.051,24.68 0.57,24.68 1.106,24.67 0.906,24.67 1.828,24.68 6.016,24.68 3.137,24.67 0.695,24.68 1.98,24.67 5.485,24.67 7.746,24.68 5.258,24.68 0.711,24.67 0.316,24.67 2.789,24.68 1.442,24.68 0.246,24.67 7.679,24.68 3.242,24.67 1.161,24.67 2.589,24.68 1.965,24.68 0.391,24.67 0.766,24.67 0.214,24.68 1.375,24.68 3.704,24.67 3.609,24.68 0.23,24.67 5.215,24.67 4.551,24.68 6.008,24.68 5.062,24.67 2.203,24.67 0.946,24.68 2.281,24.68 4.629,24.67 5.277,24.68 2.883,24.67 1.617,24.67 18.528,24.68 28.468,24.68 9.137,24.67 1.543,24.67 6.824,24.68 20.813,24.68 15.992,24.67 7.184,24.68 25.011,24.67 34.59,24.67 16.582,24.68 22.383,24.68 42.57,24.67 13.309,24.67 3.64,24.68 8.59,24.68 24.68,24.67 13,24.68 6.94,24.67 14.84,24.67 17.63,24.68 19.13,24.68 13.96,24.67 10.55,24.67 3.66,24.68 60.56,24.68 65.6,24.67 20.75,24.68 135.86,24.67 232.32,24.67" /><path
         id="path1404"
         style="fill:none;stroke:#00ffff;stroke-width:30;stroke-linecap:butt;stroke-linejoin:round;stroke-miterlimit:10;stroke-dasharray:none;stroke-opacity:1"
         d="m 545.949,482.176 5.707,24.676 4.852,24.671 0.246,24.676 2.699,24.676 22.695,24.676 12.473,24.676 12.219,24.671 2.676,24.676 0.73,24.676 0.41,24.676 0.121,24.676 0.797,24.671 4.25,24.676 8.25,24.676 7.313,24.676 3.636,24.676 6.356,24.671 2.547,24.676 3.293,24.676 0.601,24.676 2.684,24.674 4.32,24.67 4.473,24.68 4.691,24.68 3.016,24.67 3.359,24.68 5.754,24.67 v 24.67 24.68 l 0.059,24.68 2.508,24.67 3.48,24.67 1.133,24.68 6.785,24.68 7.852,24.67 4.015,24.68 1.672,24.67 2.684,24.67 3.976,24.68 3.051,24.68 1.199,24.67 4.77,24.67 0.57,24.68 3.984,24.68 7.942,24.67 1.644,24.68 1.133,24.67 0.582,24.67 0.301,24.68 2.289,24.68 3.223,24.67 3.195,24.67 7.449,24.68 3.938,24.68 0.164,24.67 0.512,24.68 0.523,24.67 2.199,24.67 0.832,24.68 0.426,24.68 0.203,24.67 4.363,24.67 8.754,24.68 8.094,24.68 6.383,24.67 6.019,24.68 8.168,24.67 4.637,24.67 0.981,24.68 21.175,24.68 12.621,24.67 25.883,24.67 14.047,24.68 18.36,24.68 16.777,24.67 17.918,24.68 43.215,24.67 37.995,24.67 64.81,24.68 8.66,24.68 13.83,24.67 5.1,24.67 3.43,24.68 0.78,24.68 v 24.67 l 11.38,24.68 27.21,24.67 22.45,24.67 14.48,24.68 29.91,24.68 13.67,24.67 9.97,24.67 6.26,24.68 89.82,24.68 24.98,24.67 14,24.68 142.31,24.67 278.8,24.67" /><path
         id="path1406"
         style="fill:none;stroke:#0072bd;stroke-width:30;stroke-linecap:butt;stroke-linejoin:round;stroke-miterlimit:10;stroke-dasharray:none;stroke-opacity:1"
         d="m 570.172,482.176 0.578,24.676 1.043,24.671 2.551,24.676 10.054,24.676 19.668,24.676 26.743,24.676 1.8,24.671 4.344,24.676 2.227,24.676 0.906,24.676 1.644,24.676 1.141,24.671 3.953,24.676 11.668,24.676 14.274,24.676 9.031,24.676 10.316,24.671 9.325,24.676 3.074,24.676 5.289,24.676 1.094,24.674 v 24.67 24.68 l 0.562,24.68 0.609,24.67 1.11,24.68 5.91,24.67 11.203,24.67 0.922,24.68 3.93,24.68 19.773,24.67 3.41,24.67 8.918,24.68 2.86,24.68 1.699,24.67 5.004,24.68 3.699,24.67 0.816,24.67 0.989,24.68 0.683,24.68 2.52,24.67 5.273,24.67 3.692,24.68 0.375,24.68 4.144,24.67 4.215,24.68 1.766,24.67 7.222,24.67 5.301,24.68 3.426,24.68 4.344,24.67 4.742,24.67 13.476,24.68 0.75,24.68 6.785,24.67 2.223,24.68 8.91,24.67 1.43,24.67 12.551,24.68 5.441,24.68 6.152,24.67 6.247,24.67 5.222,24.68 7.403,24.68 2.48,24.67 1.777,24.68 2.965,24.67 8.055,24.67 1.769,24.68 18.321,24.68 11.281,24.67 8.281,24.67 5.918,24.68 53.071,24.68 50.91,24.67 2.8,24.68 30.08,24.67 72.51,24.67 12.29,24.68 13.8,24.68 21.27,24.67 1.39,24.67 39.52,24.68 25.61,24.68 16.69,24.67 18.29,24.68 16.18,24.67 14.13,24.67 29.37,24.68 44.96,24.68 16.48,24.67 32.97,24.67 15.99,24.68 24.19,24.68 29.24,24.67 25.43,24.68 102.99,24.67 295.16,24.67" /><path
         id="path1408"
         style="fill:none;stroke:#ff00ff;stroke-width:30;stroke-linecap:butt;stroke-linejoin:round;stroke-miterlimit:10;stroke-dasharray:none;stroke-opacity:1"
         d="m 591.547,482.176 4.832,24.676 8.168,24.671 12.785,24.676 13.184,24.676 15.218,24.676 23.274,24.676 4.828,24.671 3.676,24.676 1.289,24.676 6.273,24.676 19.699,24.676 13.614,24.671 2.633,24.676 8.781,24.676 14.051,24.676 12.703,24.676 V 901.648 926.324 951 l 3.187,24.676 7.27,24.674 3.726,24.67 4.762,24.68 3.031,24.68 5.016,24.67 17.933,24.68 21.629,24.67 1.207,24.67 6.465,24.68 9.203,24.68 9.024,24.67 5.781,24.67 1.785,24.68 3.52,24.68 4.25,24.67 3.488,24.68 6.059,24.67 6.195,24.67 1.586,24.68 7.781,24.68 25.36,24.67 0.511,24.67 7.942,24.68 0.172,24.68 0.097,24.67 16.793,24.68 8.551,24.67 11.902,24.67 12.297,24.68 8.274,24.68 6.062,24.67 2.352,24.67 2.117,24.68 8.847,24.68 19.95,24.67 5.27,24.68 2.17,24.67 3.2,24.67 4.87,24.68 2.81,24.68 16.92,24.67 13.84,24.67 6.63,24.68 12.16,24.68 4.51,24.67 6.84,24.68 15.01,24.67 22.18,24.67 5.68,24.68 11.55,24.68 3.09,24.67 23.5,24.67 22.93,24.68 25.93,24.68 40.66,24.67 31.28,24.68 0.98,24.67 9.48,24.67 30.53,24.68 1.19,24.68 33.61,24.67 2.19,24.67 62.82,24.68 25,24.68 10.9,24.67 11.5,24.68 26.84,24.67 52.17,24.67 52.76,24.68 19.87,24.68 14.86,24.67 71.42,24.67 0.07,24.68 41.06,24.68 26.8,24.67 5.82,24.68 95.13,24.67 485.41,24.67" /><path
         id="path1410"
         style="fill:none;stroke:#d95319;stroke-width:30;stroke-linecap:butt;stroke-linejoin:round;stroke-miterlimit:10;stroke-dasharray:none;stroke-opacity:1"
         d="m 614.266,482.176 20.925,24.676 5.399,24.671 6.547,24.676 10.172,24.676 26.062,24.676 10.043,24.676 1.664,24.671 14.324,24.676 36.676,24.676 20.707,24.676 10.942,24.676 5.82,24.671 v 24.676 24.676 l 2.59,24.676 9.367,24.676 2.269,24.671 15.864,24.676 24.301,24.676 9.074,24.676 11.976,24.674 21.188,24.67 14.574,24.68 17.961,24.68 14.305,24.67 4.257,24.68 9.278,24.67 5.754,24.67 0.308,24.68 3.215,24.68 22.09,24.67 5.941,24.67 0.727,24.68 3.391,24.68 4.707,24.67 3.714,24.68 1.934,24.67 3.309,24.67 5.869,24.68 3.46,24.68 1.29,24.67 5.17,24.67 0.42,24.68 31.24,24.68 13.94,24.67 10.47,24.68 2.87,24.67 0.04,24.67 0.52,24.68 2.82,24.68 9.84,24.67 16.49,24.67 10.6,24.68 2.77,24.68 12.69,24.67 v 24.68 l 0.52,24.67 43.24,24.67 12.71,24.68 10.37,24.68 7.43,24.67 1.32,24.67 7.72,24.68 13.25,24.68 4.53,24.67 6.49,24.68 2.08,24.67 3.36,24.67 11.49,24.68 20.96,24.68 6.4,24.67 0.88,24.67 6.99,24.68 26.16,24.68 60.37,24.67 65.59,24.68 22.25,24.67 3.15,24.67 14.35,24.68 0.1,24.68 4.47,24.67 9.5,24.67 11.61,24.68 30.84,24.68 22.53,24.67 16.51,24.68 47.67,24.67 56.95,24.67 26.26,24.68 28.9,24.68 39.21,24.67 32.41,24.67 25.26,24.68 23.39,24.68 12.52,24.67 19.12,24.68 168.94,24.67 625.7,24.67" /><path
         id="path1412"
         style="fill:none;stroke:#edb120;stroke-width:30;stroke-linecap:butt;stroke-linejoin:bevel;stroke-miterlimit:10;stroke-dasharray:30, 30;stroke-dashoffset:0;stroke-opacity:1"
         d="m 525,482.176 v 24.676 l 0.375,24.671 1.094,24.676 0.219,24.676 0.171,24.676 0.082,24.676 1.09,24.671 0.571,24.676 0.277,24.676 0.238,24.676 0.375,24.676 0.336,24.671 0.145,24.676 0.015,24.676 v 24.676 24.676 l 0.028,24.671 0.496,24.676 0.277,24.676 0.645,24.676 0.211,24.674 0.464,24.67 0.547,24.68 0.43,24.68 0.539,24.67 0.547,24.68 0.211,24.67 0.285,24.67 0.195,24.68 0.098,24.68 1.875,24.67 0.531,24.67 0.758,24.68 0.195,24.68 0.024,24.67 0.457,24.68 0.375,24.67 0.121,24.67 0.238,24.68 0.449,24.68 1.246,24.67 0.016,24.67 0.246,24.68 0.465,24.68 0.047,24.67 0.285,24.68 0.492,24.67 0.407,24.67 0.328,24.68 0.414,24.68 0.422,24.67 0.23,24.67 0.156,24.68 0.16,24.68 0.239,24.67 0.879,24.68 0.953,24.67 1.289,24.67 0.855,24.68 0.539,24.68 0.336,24.67 0.746,24.67 0.84,24.68 1.192,24.68 2.504,24.67 1.093,24.68 2.508,24.67 0.832,24.67 1.801,24.68 0.824,24.68 0.473,24.67 0.32,24.67 0.106,24.68 1.441,24.68 3.824,24.67 4.352,24.68 2.601,24.67 1.575,24.67 0.441,24.68 2.148,24.68 0.598,24.67 0.496,24.67 0.914,24.68 2.559,24.68 1.695,24.67 2.699,24.68 1.934,24.67 0.211,24.67 3.629,24.68 8.527,24.68 3.145,24.67 0.195,24.67 2.855,24.68 5.321,24.68 1.879,24.67 0.668,24.68 17.91,24.67 45.375,24.67" /><path
         id="path1414"
         style="fill:none;stroke:#00ff00;stroke-width:30;stroke-linecap:butt;stroke-linejoin:bevel;stroke-miterlimit:10;stroke-dasharray:30, 30;stroke-dashoffset:0;stroke-opacity:1"
         d="m 526.906,482.176 0.946,24.676 4.25,24.671 9.519,24.676 2.738,24.676 2.813,24.676 0.172,24.676 2.265,24.671 0.68,24.676 4.906,24.676 5.918,24.676 2.465,24.676 0.52,24.671 0.718,24.676 0.707,24.676 0.84,24.676 0.149,24.676 V 901.648 926.324 951 l 0.625,24.676 0.285,24.674 1.992,24.67 2.379,24.68 1.086,24.68 1.516,24.67 2.503,24.68 1.157,24.67 0.226,24.67 0.149,24.68 0.3,24.68 0.083,24.67 0.015,24.67 2.293,24.68 1.328,24.68 1.41,24.67 1.403,24.68 2.691,24.67 2.723,24.67 0.461,24.68 0.75,24.68 2.804,24.67 0.891,24.67 0.023,24.68 v 24.68 l 0.817,24.67 2.168,24.68 1.402,24.67 0.856,24.67 1.23,24.68 1.176,24.68 0.676,24.67 0.652,24.67 0.734,24.68 0.782,24.68 0.082,24.67 4.019,24.68 0.317,24.67 0.031,24.67 2.547,24.68 2.32,24.68 1.707,24.67 2.215,24.67 3.215,24.68 3.472,24.68 2.461,24.67 1.434,24.68 2.195,24.67 1.59,24.67 4.875,24.68 4.031,24.68 5.438,24.67 1.68,24.67 2.07,24.68 4.723,24.68 5.257,24.67 2.782,24.68 0.097,24.67 4.403,24.67 19.148,24.68 3.902,24.68 11.719,24.67 4.742,24.67 0.696,24.68 12.746,24.68 5.961,24.67 0.308,24.68 6.164,24.67 8.153,24.67 3.129,24.68 5.855,24.68 9.121,24.67 12.863,24.67 1.297,24.68 26.938,24.68 9.453,24.67 7.68,24.68 48.132,24.67 149.824,24.67" /><path
         id="path1416"
         style="fill:none;stroke:#7e2f8e;stroke-width:30;stroke-linecap:butt;stroke-linejoin:bevel;stroke-miterlimit:10;stroke-dasharray:30, 30;stroke-dashoffset:0;stroke-opacity:1"
         d="m 531.871,482.176 3.516,24.676 10.484,24.671 13.832,24.676 2.945,24.676 8.485,24.676 4.629,24.676 1.25,24.671 6.261,24.676 6.649,24.676 6.344,24.676 4.402,24.676 2.879,24.671 1.754,24.676 0.414,24.676 1.238,24.676 3.719,24.676 0.824,24.671 1.481,24.676 0.847,24.676 0.09,24.676 v 24.674 24.67 l 1.805,24.68 1.449,24.68 1.184,24.67 1.433,24.68 0.953,24.67 2.977,24.67 1.68,24.68 4.171,24.68 0.868,24.67 0.398,24.67 0.316,24.68 0.778,24.68 0.828,24.67 2.195,24.68 4.149,24.67 7.093,24.67 6.84,24.68 0.528,24.68 0.613,24.67 0.121,24.67 v 24.68 l 0.285,24.68 1.11,24.67 1.718,24.68 0.532,24.67 0.703,24.67 0.511,24.68 0.985,24.68 1.527,24.67 0.399,24.67 0.238,24.68 0.773,24.68 4.223,24.67 v 24.68 l 9.848,24.67 3.015,24.67 1.297,24.68 0.488,24.68 0.825,24.67 3.683,24.67 5.176,24.68 3.172,24.68 1.523,24.67 1.414,24.68 1.375,24.67 3.899,24.67 3.398,24.68 3.75,24.68 12.879,24.67 5.316,24.67 1.161,24.68 8.156,24.68 13.82,24.67 8.453,24.68 4.461,24.67 15.242,24.67 12.832,24.68 12.676,24.68 22.207,24.67 4.852,24.67 0.726,24.68 13.465,24.68 5.742,24.67 5.59,24.68 9.196,24.67 16.777,24.67 19.82,24.68 2.625,24.68 3.145,24.67 10.754,24.67 11.297,24.68 47.961,24.68 17.527,24.67 24.64,24.68 73.59,24.67 229.5,24.67" /><path
         id="path1418"
         style="fill:none;stroke:#00ffff;stroke-width:30;stroke-linecap:butt;stroke-linejoin:bevel;stroke-miterlimit:10;stroke-dasharray:30, 30;stroke-dashoffset:0;stroke-opacity:1"
         d="m 540.023,482.176 5.918,24.676 16.696,24.671 16.207,24.676 1.933,24.676 13.754,24.676 10.082,24.676 2.797,24.671 8.774,24.676 4.898,24.676 12.27,24.676 7.285,24.676 1.886,24.671 2.551,24.676 1.477,24.676 0.82,24.676 2.258,24.676 6.922,24.671 v 24.676 l 0.097,24.676 0.098,24.676 2.391,24.674 1.179,24.67 0.59,24.68 0.715,24.68 0.41,24.67 v 24.68 24.67 l 1.875,24.67 8.707,24.68 1.246,24.68 1.344,24.67 0.36,24.67 1.875,24.68 1.746,24.68 3.75,24.67 2.91,24.68 4.472,24.67 6.801,24.67 5.559,24.68 3.765,24.68 1.274,24.67 2.078,24.67 1.508,24.68 0.035,24.68 1.816,24.67 1.02,24.68 0.285,24.67 0.023,24.67 0.036,24.68 0.398,24.68 0.535,24.67 0.117,24.67 0.325,24.68 1.394,24.68 7.688,24.67 v 24.68 l 4.746,24.67 4.89,24.67 4.485,24.68 5.004,24.68 2.804,24.67 2.161,24.67 3.121,24.68 3.222,24.68 3.055,24.67 0.5,24.68 1.328,24.67 8.625,24.67 6.813,24.68 1.152,24.68 4.832,24.67 14.84,24.67 8.769,24.68 23.422,24.68 21.992,24.67 2.45,24.68 12.519,24.67 22.535,24.67 5.215,24.68 26.844,24.68 13.027,24.67 6.66,24.67 10.754,24.68 4.957,24.68 0.938,24.67 15.668,24.68 19.246,24.67 18.093,24.67 24.72,24.68 18.21,24.68 12.36,24.67 10.12,24.67 9.05,24.68 69.38,24.68 15.3,24.67 32.98,24.68 92.8,24.67 319.46,24.67" /><path
         id="path1420"
         style="fill:none;stroke:#0072bd;stroke-width:30;stroke-linecap:butt;stroke-linejoin:bevel;stroke-miterlimit:10;stroke-dasharray:30, 30;stroke-dashoffset:0;stroke-opacity:1"
         d="m 563.137,482.176 11.281,24.676 26.379,24.671 15.418,24.676 6.699,24.676 25.137,24.676 10.308,24.676 9.801,24.671 3.735,24.676 13.988,24.676 11.765,24.676 6.594,24.676 9.895,24.671 10.117,24.676 2.309,24.676 0.578,24.676 2.472,24.676 2.778,24.671 1.078,24.676 3.691,24.676 12.758,24.676 2.91,24.674 0.09,24.67 0.195,24.68 2.625,24.68 2.489,24.67 v 24.68 24.67 l 0.953,24.67 4.906,24.68 5.129,24.68 3.726,24.67 5.379,24.67 3.075,24.68 2.699,24.68 1.402,24.67 3.91,24.68 6.598,24.67 4.293,24.67 3.457,24.68 8.766,24.68 4.793,24.67 2.476,24.67 0.449,24.68 2.176,24.68 0.621,24.67 0.082,24.68 1.477,24.67 2.054,24.67 3.211,24.68 3.254,24.68 1.766,24.67 1.797,24.67 3.16,24.68 0.644,24.68 0.036,24.67 1.929,24.68 1.633,24.67 0.242,24.67 3.793,24.68 10.621,24.68 5.618,24.67 2.175,24.67 5.746,24.68 6.368,24.68 3.472,24.67 5.09,24.68 7.36,24.67 2.656,24.67 12.679,24.68 13.473,24.68 5.781,24.67 4.45,24.67 16.664,24.68 47.25,24.68 36.414,24.67 6.73,24.68 24,24.67 34.02,24.67 13.51,24.68 1.41,24.68 36.13,24.67 13.95,24.67 16.68,24.68 4.18,24.68 11.5,24.67 28.69,24.68 26.96,24.67 21.76,24.67 21.51,24.68 12.72,24.68 27.93,24.67 14.89,24.67 4.5,24.68 78.95,24.68 34.1,24.67 67.71,24.68 128.05,24.67 400.93,24.67" /><path
         id="path1422"
         style="fill:none;stroke:#ff00ff;stroke-width:30;stroke-linecap:butt;stroke-linejoin:bevel;stroke-miterlimit:10;stroke-dasharray:30, 30;stroke-dashoffset:0;stroke-opacity:1"
         d="m 607.582,482.176 17.461,24.676 33.809,24.671 7.418,24.676 20.257,24.676 19.907,24.676 24.238,24.676 13.98,24.671 30.239,24.676 29.687,24.676 9.449,24.676 1.598,24.676 10.949,24.671 14.59,24.676 6.777,24.676 4.293,24.676 4.25,24.676 8.715,24.671 v 24.676 l 1.059,24.676 6.301,24.676 5.113,24.674 13.156,24.67 7.207,24.68 4.957,24.68 5.461,24.67 1.785,24.68 v 24.67 24.67 l 2.071,24.68 18.703,24.68 1.515,24.67 2.407,24.67 0.382,24.68 1.082,24.68 4.801,24.67 6.465,24.68 3.848,24.67 0.711,24.67 2.015,24.68 4.989,24.68 1.269,24.67 2.414,24.67 11.953,24.68 5.91,24.68 2.215,24.67 0.344,24.68 0.441,24.67 4.075,24.67 3.129,24.68 0.761,24.68 0.766,24.67 3.578,24.67 9.228,24.68 1.57,24.68 14.2,24.67 v 24.68 l 0.66,24.67 1.85,24.67 4.28,24.68 3.27,24.68 2.34,24.67 6.43,24.67 8.52,24.68 8.79,24.68 18.51,24.67 24.4,24.68 2.56,24.67 5.02,24.67 9.6,24.68 36.13,24.68 8.25,24.67 17.19,24.67 17.47,24.68 56.56,24.68 50.24,24.67 23.4,24.68 46.57,24.67 5.19,24.67 13.08,24.68 39.81,24.68 35.51,24.67 17.04,24.67 3.27,24.68 0.24,24.68 44.25,24.67 57.58,24.68 36.21,24.67 24.99,24.67 31.02,24.68 36.76,24.68 50.82,24.67 17.24,24.67 15.91,24.68 102.93,24.68 19.66,24.67 20.81,24.68 219.93,24.67 618.49,24.67" /><path
         id="path1424"
         style="fill:none;stroke:#d95319;stroke-width:30;stroke-linecap:butt;stroke-linejoin:bevel;stroke-miterlimit:10;stroke-dasharray:30, 30;stroke-dashoffset:0;stroke-opacity:1"
         d="m 646.191,482.176 21.438,24.676 35.676,24.671 12.984,24.676 18.793,24.676 19.27,24.676 56.878,24.676 10.622,24.671 23.457,24.676 29.55,24.676 32.215,24.676 19.41,24.676 10.086,24.671 8.664,24.676 6.45,24.676 6.187,24.676 3.402,24.676 0.227,24.671 2.977,24.676 1.718,24.676 7.907,24.676 6.652,24.674 1.738,24.67 2.137,24.68 11.738,24.68 10.193,24.67 v 24.68 24.67 l 6.37,24.67 29.14,24.68 1.02,24.68 0.21,24.67 5.2,24.67 3.96,24.68 4.28,24.68 3.88,24.67 9.26,24.68 7.23,24.67 2.11,24.67 4.69,24.68 7.75,24.68 8.64,24.67 5.88,24.67 6.14,24.68 1.76,24.68 10.62,24.67 2.29,24.68 7.83,24.67 12.12,24.67 7.08,24.68 1.87,24.68 0.88,24.67 0.13,24.67 0.36,24.68 0.12,24.68 0.1,24.67 4.8,24.68 0.33,24.67 10.34,24.67 9.47,24.68 8.79,24.68 9.82,24.67 7.02,24.67 3.36,24.68 5.03,24.68 9.29,24.67 12.57,24.68 26.95,24.67 15.38,24.67 7.27,24.68 3.09,24.68 1.65,24.67 38.57,24.67 35.52,24.68 70.2,24.68 58.71,24.67 42.56,24.68 82.84,24.67 6.32,24.67 27.88,24.68 18.08,24.68 9.64,24.67 29.97,24.67 4.78,24.68 26.59,24.68 52.03,24.67 34.47,24.68 60.54,24.67 79.57,24.67 43.25,24.68 41.59,24.68 34.15,24.67 8.53,24.67 47.85,24.68 116.84,24.68 19.27,24.67 67.5,24.68 213.33,24.67 742.83,24.67" /></g></g></svg>
