<?xml version="1.0" encoding="UTF-8" standalone="no"?>
<svg
   xmlns:dc="http://purl.org/dc/elements/1.1/"
   xmlns:cc="http://creativecommons.org/ns#"
   xmlns:rdf="http://www.w3.org/1999/02/22-rdf-syntax-ns#"
   xmlns:svg="http://www.w3.org/2000/svg"
   xmlns="http://www.w3.org/2000/svg"
   xmlns:sodipodi="http://sodipodi.sourceforge.net/DTD/sodipodi-0.dtd"
   xmlns:inkscape="http://www.inkscape.org/namespaces/inkscape"
   inkscape:version="1.0 (4035a4fb49, 2020-05-01)"
   sodipodi:docname="RainFR_RainExtr_EFFCI01_Costa.svg"
   viewBox="0 0 524 398.66666"
   height="398.66666"
   width="524"
   xml:space="preserve"
   id="svg10"
   version="1.1"><metadata
     id="metadata16"><rdf:RDF><cc:Work
         rdf:about=""><dc:format>image/svg+xml</dc:format><dc:type
           rdf:resource="http://purl.org/dc/dcmitype/StillImage" /><dc:title></dc:title></cc:Work></rdf:RDF></metadata><defs
     id="defs14" /><sodipodi:namedview
     inkscape:current-layer="g18"
     inkscape:window-maximized="0"
     inkscape:window-y="0"
     inkscape:window-x="0"
     inkscape:cy="199.33333"
     inkscape:cx="262"
     inkscape:zoom="1.8436455"
     showgrid="false"
     id="namedview12"
     inkscape:window-height="510"
     inkscape:window-width="745"
     inkscape:pageshadow="2"
     inkscape:pageopacity="0"
     guidetolerance="10"
     gridtolerance="10"
     objecttolerance="10"
     borderopacity="1"
     bordercolor="#666666"
     pagecolor="#ffffff" /><g
     transform="matrix(1.3333333,0,0,-1.3333333,0,398.66667)"
     inkscape:label="ink_ext_XXXXXX"
     inkscape:groupmode="layer"
     id="g18"><g
       transform="scale(0.1)"
       id="g20"><path
         id="path22"
         style="fill:#ffffff;fill-opacity:1;fill-rule:nonzero;stroke:none"
         d="M -30,0 H 4200 V 3165 H -30 Z" /><path
         id="path24"
         style="fill:#ffffff;fill-opacity:1;fill-rule:nonzero;stroke:none"
         d="M -30,0 H 4200 V 3165 H -30 Z" /><path
         id="path26"
         style="fill:#ffffff;fill-opacity:1;fill-rule:nonzero;stroke:none"
         d="M 525,457.5 H 3795 V 2925 H 525 Z" /><path
         id="path28"
         style="fill:none;stroke:#929292;stroke-width:5.0025;stroke-linecap:butt;stroke-linejoin:round;stroke-miterlimit:10;stroke-dasharray:none;stroke-opacity:1"
         d="M 525,457.5 V 2925" /><path
         id="path30"
         style="fill:none;stroke:#929292;stroke-width:5.0025;stroke-linecap:butt;stroke-linejoin:round;stroke-miterlimit:10;stroke-dasharray:none;stroke-opacity:1"
         d="M 992.145,457.5 V 2925" /><path
         id="path32"
         style="fill:none;stroke:#929292;stroke-width:5.0025;stroke-linecap:butt;stroke-linejoin:round;stroke-miterlimit:10;stroke-dasharray:none;stroke-opacity:1"
         d="M 1459.28,457.5 V 2925" /><path
         id="path34"
         style="fill:none;stroke:#929292;stroke-width:5.0025;stroke-linecap:butt;stroke-linejoin:round;stroke-miterlimit:10;stroke-dasharray:none;stroke-opacity:1"
         d="M 1926.43,457.5 V 2925" /><path
         id="path36"
         style="fill:none;stroke:#929292;stroke-width:5.0025;stroke-linecap:butt;stroke-linejoin:round;stroke-miterlimit:10;stroke-dasharray:none;stroke-opacity:1"
         d="M 2393.57,457.5 V 2925" /><path
         id="path38"
         style="fill:none;stroke:#929292;stroke-width:5.0025;stroke-linecap:butt;stroke-linejoin:round;stroke-miterlimit:10;stroke-dasharray:none;stroke-opacity:1"
         d="M 2860.72,457.5 V 2925" /><path
         id="path40"
         style="fill:none;stroke:#929292;stroke-width:5.0025;stroke-linecap:butt;stroke-linejoin:round;stroke-miterlimit:10;stroke-dasharray:none;stroke-opacity:1"
         d="M 3327.86,457.5 V 2925" /><path
         id="path42"
         style="fill:none;stroke:#929292;stroke-width:5.0025;stroke-linecap:butt;stroke-linejoin:round;stroke-miterlimit:10;stroke-dasharray:none;stroke-opacity:1"
         d="M 3795,457.5 V 2925" /><path
         id="path44"
         style="fill:none;stroke:#929292;stroke-width:5.0025;stroke-linecap:butt;stroke-linejoin:round;stroke-miterlimit:10;stroke-dasharray:none;stroke-opacity:1"
         d="M 3795,457.5 H 525" /><path
         id="path46"
         style="fill:none;stroke:#929292;stroke-width:5.0025;stroke-linecap:butt;stroke-linejoin:round;stroke-miterlimit:10;stroke-dasharray:none;stroke-opacity:1"
         d="M 3795,580.875 H 525" /><path
         id="path48"
         style="fill:none;stroke:#929292;stroke-width:5.0025;stroke-linecap:butt;stroke-linejoin:round;stroke-miterlimit:10;stroke-dasharray:none;stroke-opacity:1"
         d="M 3795,704.25 H 525" /><path
         id="path50"
         style="fill:none;stroke:#929292;stroke-width:5.0025;stroke-linecap:butt;stroke-linejoin:round;stroke-miterlimit:10;stroke-dasharray:none;stroke-opacity:1"
         d="M 3795,827.625 H 525" /><path
         id="path52"
         style="fill:none;stroke:#929292;stroke-width:5.0025;stroke-linecap:butt;stroke-linejoin:round;stroke-miterlimit:10;stroke-dasharray:none;stroke-opacity:1"
         d="M 3795,951 H 525" /><path
         id="path54"
         style="fill:none;stroke:#929292;stroke-width:5.0025;stroke-linecap:butt;stroke-linejoin:round;stroke-miterlimit:10;stroke-dasharray:none;stroke-opacity:1"
         d="M 3795,1074.38 H 525" /><path
         id="path56"
         style="fill:none;stroke:#929292;stroke-width:5.0025;stroke-linecap:butt;stroke-linejoin:round;stroke-miterlimit:10;stroke-dasharray:none;stroke-opacity:1"
         d="M 3795,1197.75 H 525" /><path
         id="path58"
         style="fill:none;stroke:#929292;stroke-width:5.0025;stroke-linecap:butt;stroke-linejoin:round;stroke-miterlimit:10;stroke-dasharray:none;stroke-opacity:1"
         d="M 3795,1321.13 H 525" /><path
         id="path60"
         style="fill:none;stroke:#929292;stroke-width:5.0025;stroke-linecap:butt;stroke-linejoin:round;stroke-miterlimit:10;stroke-dasharray:none;stroke-opacity:1"
         d="M 3795,1444.5 H 525" /><path
         id="path62"
         style="fill:none;stroke:#929292;stroke-width:5.0025;stroke-linecap:butt;stroke-linejoin:round;stroke-miterlimit:10;stroke-dasharray:none;stroke-opacity:1"
         d="M 3795,1567.88 H 525" /><path
         id="path64"
         style="fill:none;stroke:#929292;stroke-width:5.0025;stroke-linecap:butt;stroke-linejoin:round;stroke-miterlimit:10;stroke-dasharray:none;stroke-opacity:1"
         d="M 3795,1691.25 H 525" /><path
         id="path66"
         style="fill:none;stroke:#929292;stroke-width:5.0025;stroke-linecap:butt;stroke-linejoin:round;stroke-miterlimit:10;stroke-dasharray:none;stroke-opacity:1"
         d="M 3795,1814.63 H 525" /><path
         id="path68"
         style="fill:none;stroke:#929292;stroke-width:5.0025;stroke-linecap:butt;stroke-linejoin:round;stroke-miterlimit:10;stroke-dasharray:none;stroke-opacity:1"
         d="M 3795,1938 H 525" /><path
         id="path70"
         style="fill:none;stroke:#929292;stroke-width:5.0025;stroke-linecap:butt;stroke-linejoin:round;stroke-miterlimit:10;stroke-dasharray:none;stroke-opacity:1"
         d="M 3795,2061.38 H 525" /><path
         id="path72"
         style="fill:none;stroke:#929292;stroke-width:5.0025;stroke-linecap:butt;stroke-linejoin:round;stroke-miterlimit:10;stroke-dasharray:none;stroke-opacity:1"
         d="M 3795,2184.75 H 525" /><path
         id="path74"
         style="fill:none;stroke:#929292;stroke-width:5.0025;stroke-linecap:butt;stroke-linejoin:round;stroke-miterlimit:10;stroke-dasharray:none;stroke-opacity:1"
         d="M 3795,2308.13 H 525" /><path
         id="path76"
         style="fill:none;stroke:#929292;stroke-width:5.0025;stroke-linecap:butt;stroke-linejoin:round;stroke-miterlimit:10;stroke-dasharray:none;stroke-opacity:1"
         d="M 3795,2431.5 H 525" /><path
         id="path78"
         style="fill:none;stroke:#929292;stroke-width:5.0025;stroke-linecap:butt;stroke-linejoin:round;stroke-miterlimit:10;stroke-dasharray:none;stroke-opacity:1"
         d="M 3795,2554.88 H 525" /><path
         id="path80"
         style="fill:none;stroke:#929292;stroke-width:5.0025;stroke-linecap:butt;stroke-linejoin:round;stroke-miterlimit:10;stroke-dasharray:none;stroke-opacity:1"
         d="M 3795,2678.25 H 525" /><path
         id="path82"
         style="fill:none;stroke:#929292;stroke-width:5.0025;stroke-linecap:butt;stroke-linejoin:round;stroke-miterlimit:10;stroke-dasharray:none;stroke-opacity:1"
         d="M 3795,2801.63 H 525" /><path
         id="path84"
         style="fill:none;stroke:#929292;stroke-width:5.0025;stroke-linecap:butt;stroke-linejoin:round;stroke-miterlimit:10;stroke-dasharray:none;stroke-opacity:1"
         d="M 3795,2925 H 525" /><path
         id="path86"
         style="fill:none;stroke:#262626;stroke-width:5.0025;stroke-linecap:square;stroke-linejoin:round;stroke-miterlimit:10;stroke-dasharray:none;stroke-opacity:1"
         d="M 525,457.5 H 3795" /><path
         id="path88"
         style="fill:none;stroke:#262626;stroke-width:5.0025;stroke-linecap:square;stroke-linejoin:round;stroke-miterlimit:10;stroke-dasharray:none;stroke-opacity:1"
         d="M 525,2925 H 3795" /><path
         id="path90"
         style="fill:none;stroke:#262626;stroke-width:5.0025;stroke-linecap:square;stroke-linejoin:round;stroke-miterlimit:10;stroke-dasharray:none;stroke-opacity:1"
         d="m 525,457.5 v 32.699" /><path
         id="path92"
         style="fill:none;stroke:#262626;stroke-width:5.0025;stroke-linecap:square;stroke-linejoin:round;stroke-miterlimit:10;stroke-dasharray:none;stroke-opacity:1"
         d="m 992.145,457.5 v 32.699" /><path
         id="path94"
         style="fill:none;stroke:#262626;stroke-width:5.0025;stroke-linecap:square;stroke-linejoin:round;stroke-miterlimit:10;stroke-dasharray:none;stroke-opacity:1"
         d="m 1459.28,457.5 v 32.699" /><path
         id="path96"
         style="fill:none;stroke:#262626;stroke-width:5.0025;stroke-linecap:square;stroke-linejoin:round;stroke-miterlimit:10;stroke-dasharray:none;stroke-opacity:1"
         d="m 1926.43,457.5 v 32.699" /><path
         id="path98"
         style="fill:none;stroke:#262626;stroke-width:5.0025;stroke-linecap:square;stroke-linejoin:round;stroke-miterlimit:10;stroke-dasharray:none;stroke-opacity:1"
         d="m 2393.57,457.5 v 32.699" /><path
         id="path100"
         style="fill:none;stroke:#262626;stroke-width:5.0025;stroke-linecap:square;stroke-linejoin:round;stroke-miterlimit:10;stroke-dasharray:none;stroke-opacity:1"
         d="m 2860.72,457.5 v 32.699" /><path
         id="path102"
         style="fill:none;stroke:#262626;stroke-width:5.0025;stroke-linecap:square;stroke-linejoin:round;stroke-miterlimit:10;stroke-dasharray:none;stroke-opacity:1"
         d="m 3327.86,457.5 v 32.699" /><path
         id="path104"
         style="fill:none;stroke:#262626;stroke-width:5.0025;stroke-linecap:square;stroke-linejoin:round;stroke-miterlimit:10;stroke-dasharray:none;stroke-opacity:1"
         d="m 3795,457.5 v 32.699" /><path
         id="path106"
         style="fill:none;stroke:#262626;stroke-width:5.0025;stroke-linecap:square;stroke-linejoin:round;stroke-miterlimit:10;stroke-dasharray:none;stroke-opacity:1"
         d="m 525,2925 v -32.7" /><path
         id="path108"
         style="fill:none;stroke:#262626;stroke-width:5.0025;stroke-linecap:square;stroke-linejoin:round;stroke-miterlimit:10;stroke-dasharray:none;stroke-opacity:1"
         d="m 992.145,2925 v -32.7" /><path
         id="path110"
         style="fill:none;stroke:#262626;stroke-width:5.0025;stroke-linecap:square;stroke-linejoin:round;stroke-miterlimit:10;stroke-dasharray:none;stroke-opacity:1"
         d="m 1459.28,2925 v -32.7" /><path
         id="path112"
         style="fill:none;stroke:#262626;stroke-width:5.0025;stroke-linecap:square;stroke-linejoin:round;stroke-miterlimit:10;stroke-dasharray:none;stroke-opacity:1"
         d="m 1926.43,2925 v -32.7" /><path
         id="path114"
         style="fill:none;stroke:#262626;stroke-width:5.0025;stroke-linecap:square;stroke-linejoin:round;stroke-miterlimit:10;stroke-dasharray:none;stroke-opacity:1"
         d="m 2393.57,2925 v -32.7" /><path
         id="path116"
         style="fill:none;stroke:#262626;stroke-width:5.0025;stroke-linecap:square;stroke-linejoin:round;stroke-miterlimit:10;stroke-dasharray:none;stroke-opacity:1"
         d="m 2860.72,2925 v -32.7" /><path
         id="path118"
         style="fill:none;stroke:#262626;stroke-width:5.0025;stroke-linecap:square;stroke-linejoin:round;stroke-miterlimit:10;stroke-dasharray:none;stroke-opacity:1"
         d="m 3327.86,2925 v -32.7" /><path
         id="path120"
         style="fill:none;stroke:#262626;stroke-width:5.0025;stroke-linecap:square;stroke-linejoin:round;stroke-miterlimit:10;stroke-dasharray:none;stroke-opacity:1"
         d="m 3795,2925 v -32.7" /><g
         transform="scale(10)"
         id="g122"><text
           id="text126"
           style="font-variant:normal;font-weight:normal;font-size:15.9998px;font-family:Helvetica;-inkscape-font-specification:Helvetica;writing-mode:lr-tb;fill:#262626;fill-opacity:1;fill-rule:nonzero;stroke:none"
           transform="matrix(1,0,0,-1,48,25.55)"><tspan
             id="tspan124"
             sodipodi:role="line"
             y="0"
             x="0 42.214512 51.110401 84.428703 93.324593 102.22048 131.14333 140.03922 148.9351 177.85762 186.75351 195.6494 224.57224 233.46812 242.36401 271.28653 280.1824 289.07831 318.00116 326.89703 335.79291">050100150200250300350</tspan></text><text
           id="text130"
           style="font-variant:normal;font-weight:normal;font-size:17.6002px;font-family:Helvetica;-inkscape-font-specification:Helvetica;writing-mode:lr-tb;fill:#262626;fill-opacity:1;fill-rule:nonzero;stroke:none"
           transform="matrix(1,0,0,-1,119.625,3.55)"><tspan
             id="tspan128"
             sodipodi:role="line"
             y="0"
             x="0 12.707344 22.493055 26.400299 36.186012 41.078865 50.864578 54.771824 58.679066 63.571922 72.372025 82.15773 86.06498 95.850693 105.6364 114.4365 119.32935 124.22221 138.88318 153.54414 158.437 168.22272 178.00842 187.79413">Rainfall values [mm/12h]</tspan></text></g><path
         id="path132"
         style="fill:none;stroke:#262626;stroke-width:5.0025;stroke-linecap:square;stroke-linejoin:round;stroke-miterlimit:10;stroke-dasharray:none;stroke-opacity:1"
         d="M 525,457.5 V 2925" /><path
         id="path134"
         style="fill:none;stroke:#262626;stroke-width:5.0025;stroke-linecap:square;stroke-linejoin:round;stroke-miterlimit:10;stroke-dasharray:none;stroke-opacity:1"
         d="M 3795,457.5 V 2925" /><path
         id="path136"
         style="fill:none;stroke:#262626;stroke-width:5.0025;stroke-linecap:square;stroke-linejoin:round;stroke-miterlimit:10;stroke-dasharray:none;stroke-opacity:1"
         d="m 525,457.5 h 32.699" /><path
         id="path138"
         style="fill:none;stroke:#262626;stroke-width:5.0025;stroke-linecap:square;stroke-linejoin:round;stroke-miterlimit:10;stroke-dasharray:none;stroke-opacity:1"
         d="m 525,580.875 h 32.699" /><path
         id="path140"
         style="fill:none;stroke:#262626;stroke-width:5.0025;stroke-linecap:square;stroke-linejoin:round;stroke-miterlimit:10;stroke-dasharray:none;stroke-opacity:1"
         d="m 525,704.25 h 32.699" /><path
         id="path142"
         style="fill:none;stroke:#262626;stroke-width:5.0025;stroke-linecap:square;stroke-linejoin:round;stroke-miterlimit:10;stroke-dasharray:none;stroke-opacity:1"
         d="m 525,827.625 h 32.699" /><path
         id="path144"
         style="fill:none;stroke:#262626;stroke-width:5.0025;stroke-linecap:square;stroke-linejoin:round;stroke-miterlimit:10;stroke-dasharray:none;stroke-opacity:1"
         d="m 525,951 h 32.699" /><path
         id="path146"
         style="fill:none;stroke:#262626;stroke-width:5.0025;stroke-linecap:square;stroke-linejoin:round;stroke-miterlimit:10;stroke-dasharray:none;stroke-opacity:1"
         d="m 525,1074.38 h 32.699" /><path
         id="path148"
         style="fill:none;stroke:#262626;stroke-width:5.0025;stroke-linecap:square;stroke-linejoin:round;stroke-miterlimit:10;stroke-dasharray:none;stroke-opacity:1"
         d="m 525,1197.75 h 32.699" /><path
         id="path150"
         style="fill:none;stroke:#262626;stroke-width:5.0025;stroke-linecap:square;stroke-linejoin:round;stroke-miterlimit:10;stroke-dasharray:none;stroke-opacity:1"
         d="m 525,1321.13 h 32.699" /><path
         id="path152"
         style="fill:none;stroke:#262626;stroke-width:5.0025;stroke-linecap:square;stroke-linejoin:round;stroke-miterlimit:10;stroke-dasharray:none;stroke-opacity:1"
         d="m 525,1444.5 h 32.699" /><path
         id="path154"
         style="fill:none;stroke:#262626;stroke-width:5.0025;stroke-linecap:square;stroke-linejoin:round;stroke-miterlimit:10;stroke-dasharray:none;stroke-opacity:1"
         d="m 525,1567.88 h 32.699" /><path
         id="path156"
         style="fill:none;stroke:#262626;stroke-width:5.0025;stroke-linecap:square;stroke-linejoin:round;stroke-miterlimit:10;stroke-dasharray:none;stroke-opacity:1"
         d="m 525,1691.25 h 32.699" /><path
         id="path158"
         style="fill:none;stroke:#262626;stroke-width:5.0025;stroke-linecap:square;stroke-linejoin:round;stroke-miterlimit:10;stroke-dasharray:none;stroke-opacity:1"
         d="m 525,1814.63 h 32.699" /><path
         id="path160"
         style="fill:none;stroke:#262626;stroke-width:5.0025;stroke-linecap:square;stroke-linejoin:round;stroke-miterlimit:10;stroke-dasharray:none;stroke-opacity:1"
         d="m 525,1938 h 32.699" /><path
         id="path162"
         style="fill:none;stroke:#262626;stroke-width:5.0025;stroke-linecap:square;stroke-linejoin:round;stroke-miterlimit:10;stroke-dasharray:none;stroke-opacity:1"
         d="m 525,2061.38 h 32.699" /><path
         id="path164"
         style="fill:none;stroke:#262626;stroke-width:5.0025;stroke-linecap:square;stroke-linejoin:round;stroke-miterlimit:10;stroke-dasharray:none;stroke-opacity:1"
         d="m 525,2184.75 h 32.699" /><path
         id="path166"
         style="fill:none;stroke:#262626;stroke-width:5.0025;stroke-linecap:square;stroke-linejoin:round;stroke-miterlimit:10;stroke-dasharray:none;stroke-opacity:1"
         d="m 525,2308.13 h 32.699" /><path
         id="path168"
         style="fill:none;stroke:#262626;stroke-width:5.0025;stroke-linecap:square;stroke-linejoin:round;stroke-miterlimit:10;stroke-dasharray:none;stroke-opacity:1"
         d="m 525,2431.5 h 32.699" /><path
         id="path170"
         style="fill:none;stroke:#262626;stroke-width:5.0025;stroke-linecap:square;stroke-linejoin:round;stroke-miterlimit:10;stroke-dasharray:none;stroke-opacity:1"
         d="m 525,2554.88 h 32.699" /><path
         id="path172"
         style="fill:none;stroke:#262626;stroke-width:5.0025;stroke-linecap:square;stroke-linejoin:round;stroke-miterlimit:10;stroke-dasharray:none;stroke-opacity:1"
         d="m 525,2678.25 h 32.699" /><path
         id="path174"
         style="fill:none;stroke:#262626;stroke-width:5.0025;stroke-linecap:square;stroke-linejoin:round;stroke-miterlimit:10;stroke-dasharray:none;stroke-opacity:1"
         d="m 525,2801.63 h 32.699" /><path
         id="path176"
         style="fill:none;stroke:#262626;stroke-width:5.0025;stroke-linecap:square;stroke-linejoin:round;stroke-miterlimit:10;stroke-dasharray:none;stroke-opacity:1"
         d="m 525,2925 h 32.699" /><path
         id="path178"
         style="fill:none;stroke:#262626;stroke-width:5.0025;stroke-linecap:square;stroke-linejoin:round;stroke-miterlimit:10;stroke-dasharray:none;stroke-opacity:1"
         d="m 3795,457.5 h -32.7" /><path
         id="path180"
         style="fill:none;stroke:#262626;stroke-width:5.0025;stroke-linecap:square;stroke-linejoin:round;stroke-miterlimit:10;stroke-dasharray:none;stroke-opacity:1"
         d="m 3795,580.875 h -32.7" /><path
         id="path182"
         style="fill:none;stroke:#262626;stroke-width:5.0025;stroke-linecap:square;stroke-linejoin:round;stroke-miterlimit:10;stroke-dasharray:none;stroke-opacity:1"
         d="m 3795,704.25 h -32.7" /><path
         id="path184"
         style="fill:none;stroke:#262626;stroke-width:5.0025;stroke-linecap:square;stroke-linejoin:round;stroke-miterlimit:10;stroke-dasharray:none;stroke-opacity:1"
         d="m 3795,827.625 h -32.7" /><path
         id="path186"
         style="fill:none;stroke:#262626;stroke-width:5.0025;stroke-linecap:square;stroke-linejoin:round;stroke-miterlimit:10;stroke-dasharray:none;stroke-opacity:1"
         d="m 3795,951 h -32.7" /><path
         id="path188"
         style="fill:none;stroke:#262626;stroke-width:5.0025;stroke-linecap:square;stroke-linejoin:round;stroke-miterlimit:10;stroke-dasharray:none;stroke-opacity:1"
         d="m 3795,1074.38 h -32.7" /><path
         id="path190"
         style="fill:none;stroke:#262626;stroke-width:5.0025;stroke-linecap:square;stroke-linejoin:round;stroke-miterlimit:10;stroke-dasharray:none;stroke-opacity:1"
         d="m 3795,1197.75 h -32.7" /><path
         id="path192"
         style="fill:none;stroke:#262626;stroke-width:5.0025;stroke-linecap:square;stroke-linejoin:round;stroke-miterlimit:10;stroke-dasharray:none;stroke-opacity:1"
         d="m 3795,1321.13 h -32.7" /><path
         id="path194"
         style="fill:none;stroke:#262626;stroke-width:5.0025;stroke-linecap:square;stroke-linejoin:round;stroke-miterlimit:10;stroke-dasharray:none;stroke-opacity:1"
         d="m 3795,1444.5 h -32.7" /><path
         id="path196"
         style="fill:none;stroke:#262626;stroke-width:5.0025;stroke-linecap:square;stroke-linejoin:round;stroke-miterlimit:10;stroke-dasharray:none;stroke-opacity:1"
         d="m 3795,1567.88 h -32.7" /><path
         id="path198"
         style="fill:none;stroke:#262626;stroke-width:5.0025;stroke-linecap:square;stroke-linejoin:round;stroke-miterlimit:10;stroke-dasharray:none;stroke-opacity:1"
         d="m 3795,1691.25 h -32.7" /><path
         id="path200"
         style="fill:none;stroke:#262626;stroke-width:5.0025;stroke-linecap:square;stroke-linejoin:round;stroke-miterlimit:10;stroke-dasharray:none;stroke-opacity:1"
         d="m 3795,1814.63 h -32.7" /><path
         id="path202"
         style="fill:none;stroke:#262626;stroke-width:5.0025;stroke-linecap:square;stroke-linejoin:round;stroke-miterlimit:10;stroke-dasharray:none;stroke-opacity:1"
         d="m 3795,1938 h -32.7" /><path
         id="path204"
         style="fill:none;stroke:#262626;stroke-width:5.0025;stroke-linecap:square;stroke-linejoin:round;stroke-miterlimit:10;stroke-dasharray:none;stroke-opacity:1"
         d="m 3795,2061.38 h -32.7" /><path
         id="path206"
         style="fill:none;stroke:#262626;stroke-width:5.0025;stroke-linecap:square;stroke-linejoin:round;stroke-miterlimit:10;stroke-dasharray:none;stroke-opacity:1"
         d="m 3795,2184.75 h -32.7" /><path
         id="path208"
         style="fill:none;stroke:#262626;stroke-width:5.0025;stroke-linecap:square;stroke-linejoin:round;stroke-miterlimit:10;stroke-dasharray:none;stroke-opacity:1"
         d="m 3795,2308.13 h -32.7" /><path
         id="path210"
         style="fill:none;stroke:#262626;stroke-width:5.0025;stroke-linecap:square;stroke-linejoin:round;stroke-miterlimit:10;stroke-dasharray:none;stroke-opacity:1"
         d="m 3795,2431.5 h -32.7" /><path
         id="path212"
         style="fill:none;stroke:#262626;stroke-width:5.0025;stroke-linecap:square;stroke-linejoin:round;stroke-miterlimit:10;stroke-dasharray:none;stroke-opacity:1"
         d="m 3795,2554.88 h -32.7" /><path
         id="path214"
         style="fill:none;stroke:#262626;stroke-width:5.0025;stroke-linecap:square;stroke-linejoin:round;stroke-miterlimit:10;stroke-dasharray:none;stroke-opacity:1"
         d="m 3795,2678.25 h -32.7" /><path
         id="path216"
         style="fill:none;stroke:#262626;stroke-width:5.0025;stroke-linecap:square;stroke-linejoin:round;stroke-miterlimit:10;stroke-dasharray:none;stroke-opacity:1"
         d="m 3795,2801.63 h -32.7" /><path
         id="path218"
         style="fill:none;stroke:#262626;stroke-width:5.0025;stroke-linecap:square;stroke-linejoin:round;stroke-miterlimit:10;stroke-dasharray:none;stroke-opacity:1"
         d="m 3795,2925 h -32.7" /><g
         transform="scale(10)"
         id="g220"><text
           id="text264"
           style="font-variant:normal;font-weight:normal;font-size:15.9998px;font-family:Helvetica;-inkscape-font-specification:Helvetica;writing-mode:lr-tb;fill:#262626;fill-opacity:1;fill-rule:nonzero;stroke:none"
           transform="matrix(1,0,0,-1,38.3,40.125)"><tspan
             id="tspan222"
             y="0"
             x="0">0</tspan><tspan
             id="tspan224"
             y="-12.3375"
             x="4.5"> </tspan><tspan
             id="tspan226"
             sodipodi:role="line"
             y="-24.674999"
             x="-9 -0.1041112">10</tspan><tspan
             id="tspan228"
             y="-37.012501"
             x="4.5"> </tspan><tspan
             id="tspan230"
             sodipodi:role="line"
             y="-49.349998"
             x="-9 -0.1041112">20</tspan><tspan
             id="tspan232"
             y="-61.6875"
             x="4.5"> </tspan><tspan
             id="tspan234"
             sodipodi:role="line"
             y="-74.025002"
             x="-9 -0.1041112">30</tspan><tspan
             id="tspan236"
             y="-86.362503"
             x="4.5"> </tspan><tspan
             id="tspan238"
             sodipodi:role="line"
             y="-98.699997"
             x="-9 -0.1041112">40</tspan><tspan
             id="tspan240"
             y="-111.0375"
             x="4.5"> </tspan><tspan
             id="tspan242"
             sodipodi:role="line"
             y="-123.375"
             x="-9 -0.1041112">50</tspan><tspan
             id="tspan244"
             y="-135.71249"
             x="4.5"> </tspan><tspan
             id="tspan246"
             sodipodi:role="line"
             y="-148.05"
             x="-9 -0.1041112">60</tspan><tspan
             id="tspan248"
             y="-160.3875"
             x="4.5"> </tspan><tspan
             id="tspan250"
             sodipodi:role="line"
             y="-172.72501"
             x="-9 -0.1041112">70</tspan><tspan
             id="tspan252"
             y="-185.0625"
             x="4.5"> </tspan><tspan
             id="tspan254"
             sodipodi:role="line"
             y="-197.39999"
             x="-9 -0.1041112">80</tspan><tspan
             id="tspan256"
             y="-209.7375"
             x="4.5"> </tspan><tspan
             id="tspan258"
             sodipodi:role="line"
             y="-222.075"
             x="-9 -0.1041112">90</tspan><tspan
             id="tspan260"
             y="-234.41251"
             x="4.5"> </tspan><tspan
             id="tspan262"
             sodipodi:role="line"
             y="-246.75"
             x="-18 -9.1041117 -0.2082224">100</tspan></text><text
           id="text268"
           style="font-variant:normal;font-weight:normal;font-size:17.6002px;font-family:Helvetica;-inkscape-font-specification:Helvetica;writing-mode:lr-tb;fill:#262626;fill-opacity:1;fill-rule:nonzero;stroke:none"
           transform="matrix(0,1,1,0,13.55,109.5)"><tspan
             id="tspan266"
             sodipodi:role="line"
             y="0"
             x="0 11.739333 21.525045 27.385912 36.186012 45.971722 55.757435 60.650288 64.557533 68.464775 78.250488 87.050591 91.943443 97.804314 113.45089">Percentiles (%)</tspan></text></g><path
         id="path270"
         style="fill:none;stroke:#edb120;stroke-width:30;stroke-linecap:butt;stroke-linejoin:round;stroke-miterlimit:10;stroke-dasharray:none;stroke-opacity:1"
         d="m 526.066,482.176 v 24.676 l 0.75,24.671 1.047,24.676 1.5,24.676 3.285,24.676 0.079,24.676 1.656,24.671 0.023,24.676 1.141,24.676 1.027,24.676 1.168,24.676 1.449,24.671 0.653,24.676 1.312,24.676 1.68,24.676 0.539,24.676 2.648,24.671 0.383,24.676 0.672,24.676 4.981,24.676 1.027,24.674 0.828,24.67 0.254,24.68 0.711,24.68 2.133,24.67 0.562,24.68 0.75,24.67 0.321,24.67 2.031,24.68 0.168,24.68 0.847,24.67 1.68,24.67 0.262,24.68 v 24.68 l 3.043,24.67 1.508,24.68 0.691,24.67 0.855,24.67 0.204,24.68 1.035,24.68 4.82,24.67 1.387,24.67 0.422,24.68 0.562,24.68 1.215,24.67 0.555,24.68 1.468,24.67 2.805,24.67 0.953,24.68 1.883,24.68 0.691,24.67 1.411,24.67 0.765,24.68 0.832,24.68 1.371,24.67 1.133,24.68 1.367,24.67 1.317,24.67 2.191,24.68 2.047,24.68 2.77,24.67 1.582,24.67 2.527,24.68 1.371,24.68 2.332,24.67 2.281,24.68 2.684,24.67 0.355,24.67 1.707,24.68 5.454,24.68 2.035,24.67 2.047,24.67 1.304,24.68 3.586,24.68 2,24.67 9.617,24.68 5.172,24.67 3.961,24.67 5.731,24.68 3.441,24.68 9.465,24.67 12.504,24.67 0.789,24.68 5.219,24.68 5.293,24.67 10.898,24.68 3.766,24.67 7.101,24.67 4.098,24.68 5.578,24.68 v 24.67 l 0.563,24.67 24.332,24.68 17.871,24.68 12.515,24.67 35.133,24.68 66.727,24.67 43.254,24.67" /><path
         id="path272"
         style="fill:none;stroke:#00ff00;stroke-width:30;stroke-linecap:butt;stroke-linejoin:round;stroke-miterlimit:10;stroke-dasharray:none;stroke-opacity:1"
         d="m 529.32,482.176 v 24.676 l 2.235,24.671 1.988,24.676 6.391,24.676 1.328,24.676 1.679,24.676 3.481,24.671 0.238,24.676 0.254,24.676 2.152,24.676 1.946,24.676 2.269,24.671 0.504,24.676 9.082,24.676 5.207,24.676 8.93,24.676 1.562,24.671 0.973,24.676 1.465,24.676 0.996,24.676 6.156,24.674 0.082,24.67 1.125,24.68 0.227,24.68 0.57,24.67 2.746,24.68 1.223,24.67 3.769,24.67 2.536,24.68 1.875,24.68 0.804,24.67 4.746,24.67 v 24.68 l 0.188,24.68 0.75,24.67 2.012,24.68 0.816,24.67 2.289,24.67 1.227,24.68 4.148,24.68 1.141,24.67 2.453,24.67 2.281,24.68 5.547,24.68 2.281,24.67 0.594,24.68 5.375,24.67 2.387,24.67 3.547,24.68 0.21,24.68 0.696,24.67 3.113,24.67 1.574,24.68 1.141,24.68 0.734,24.67 3.789,24.68 1.254,24.67 1.543,24.67 3.082,24.68 2.063,24.68 0.797,24.67 4.812,24.67 6.145,24.68 1.093,24.68 4.293,24.67 2.157,24.68 1.277,24.67 1.957,24.67 10.199,24.68 12.856,24.68 7.672,24.67 2.086,24.67 5.878,24.68 2.508,24.68 8.774,24.67 4.066,24.68 9.441,24.67 3.54,24.67 5.054,24.68 1.824,24.68 12.661,24.67 8.527,24.67 4.41,24.68 10.656,24.68 27.871,24.67 6.907,24.68 10.14,24.67 24.532,24.67 40.336,24.68 v 24.68 24.67 l 16.035,24.67 15.937,24.68 46.094,24.68 10.824,24.67 32.007,24.68 121.53,24.67 154.89,24.67" /><path
         id="path274"
         style="fill:none;stroke:#7e2f8e;stroke-width:30;stroke-linecap:butt;stroke-linejoin:round;stroke-miterlimit:10;stroke-dasharray:none;stroke-opacity:1"
         d="m 532.516,482.176 v 24.676 l 5.324,24.671 2.519,24.676 6.907,24.676 2.5,24.676 1.996,24.676 2.047,24.671 1.086,24.676 0.871,24.676 6.57,24.676 1.32,24.676 0.637,24.671 8.992,24.676 6.317,24.676 4.324,24.676 10.293,24.676 2.105,24.671 3.074,24.676 3.625,24.676 2.961,24.676 6,24.674 1.793,24.67 3.684,24.68 3.269,24.68 4.282,24.67 4.965,24.68 0.375,24.67 5.894,24.67 1.953,24.68 0.297,24.68 0.031,24.67 v 24.67 l 0.227,24.68 1.273,24.68 1.215,24.67 2.871,24.68 4.586,24.67 3.598,24.67 1.109,24.68 3.61,24.68 8.855,24.67 0.551,24.67 1.926,24.68 3.351,24.68 2.289,24.67 2.43,24.68 2.129,24.67 1.101,24.67 9.536,24.68 1.964,24.68 4.153,24.67 0.429,24.67 0.872,24.68 1.402,24.68 3.344,24.67 4.386,24.68 0.481,24.67 4.98,24.67 9.407,24.68 5.91,24.68 v 24.67 l 2.488,24.67 3.922,24.68 3.652,24.68 4.867,24.67 4.563,24.68 6.922,24.67 9.308,24.67 7.438,24.68 7.5,24.68 14.406,24.67 7.613,24.67 4.524,24.68 3.824,24.68 3.457,24.67 2.762,24.68 5.933,24.67 3.321,24.67 24.699,24.68 4.805,24.68 9.218,24.67 7.95,24.67 27.007,24.68 25.352,24.68 25.703,24.67 13.805,24.68 43.379,24.67 11.47,24.67 13.24,24.68 29.61,24.68 v 24.67 l 3.78,24.67 28.92,24.68 34.19,24.68 17.91,24.67 87.15,24.68 64.42,24.67 207.12,24.67" /><path
         id="path276"
         style="fill:none;stroke:#00ffff;stroke-width:30;stroke-linecap:butt;stroke-linejoin:round;stroke-miterlimit:10;stroke-dasharray:none;stroke-opacity:1"
         d="m 538.582,482.176 v 24.676 l 4.832,24.671 6.125,24.676 5.844,24.676 1.328,24.676 2.57,24.676 1.262,24.671 0.223,24.676 1.726,24.676 12.332,24.676 3,24.676 4.985,24.671 7.007,24.676 7.625,24.676 6.864,24.676 5.625,24.676 0.847,24.671 1.289,24.676 9.856,24.676 5.289,24.676 3.441,24.674 5.684,24.67 6.266,24.68 4.984,24.68 0.293,24.67 4.09,24.68 6.824,24.67 3.84,24.67 4.148,24.68 0.207,24.68 0.676,24.67 8.453,24.67 v 24.68 l 0.922,24.68 1.09,24.67 2.992,24.68 2.348,24.67 2.644,24.67 5.25,24.68 2.078,24.68 7.571,24.67 3.156,24.67 6.953,24.68 3.359,24.68 4.786,24.67 3.922,24.68 4.41,24.67 3.465,24.67 2.378,24.68 1.289,24.68 0.727,24.67 5.395,24.67 9.898,24.68 3.848,24.68 1.386,24.67 0.602,24.68 2.953,24.67 0.734,24.67 3.75,24.68 6.063,24.68 9.375,24.67 5.691,24.67 0.758,24.68 3.961,24.68 6.621,24.67 5.199,24.68 5.723,24.67 9.859,24.67 14.125,24.68 6.391,24.68 10.598,24.67 12.289,24.67 1.945,24.68 6.606,24.68 2.41,24.67 6.472,24.68 1.266,24.67 12.824,24.67 17.985,24.68 7.875,24.68 30.632,24.67 20.391,24.67 35.768,24.68 32.84,24.68 29.47,24.67 19.48,24.68 19.81,24.67 5.96,24.67 v 24.68 24.68 l 10.54,24.67 49.85,24.67 9.58,24.68 43.69,24.68 18.41,24.67 107.63,24.68 28.18,24.67 247.7,24.67" /><path
         id="path278"
         style="fill:none;stroke:#0072bd;stroke-width:30;stroke-linecap:butt;stroke-linejoin:round;stroke-miterlimit:10;stroke-dasharray:none;stroke-opacity:1"
         d="m 549.523,482.176 v 24.676 l 9.551,24.671 8.024,24.676 3.562,24.676 1.192,24.676 7.066,24.676 3.316,24.671 4.512,24.676 v 24.676 l 13.301,24.676 5.301,24.676 3.105,24.671 12.36,24.676 10.273,24.676 2.926,24.676 4.523,24.676 1.852,24.671 2.484,24.676 8.098,24.676 14.972,24.676 4.723,24.674 4.652,24.67 4.895,24.68 6.121,24.68 15.316,24.67 6.965,24.68 2.282,24.67 v 24.67 l 0.421,24.68 0.793,24.68 4.457,24.67 13.649,24.67 0.609,24.68 0.832,24.68 2.203,24.67 0.922,24.68 15.707,24.67 7.567,24.67 9.015,24.68 3.825,24.68 9.382,24.67 1.575,24.67 1.75,24.68 2.91,24.68 4.035,24.67 3.875,24.68 0.691,24.67 4.934,24.67 4.32,24.68 5.414,24.68 7.719,24.67 7.77,24.67 18.218,24.68 5.625,24.68 5.106,24.67 3.918,24.68 5.449,24.67 10.961,24.67 7.027,24.68 8.547,24.68 v 24.67 l 4.516,24.67 6.066,24.68 5.746,24.68 4.004,24.67 2.649,24.68 4.824,24.67 8.82,24.67 14.152,24.68 3.848,24.68 3.262,24.67 9.969,24.67 8.691,24.68 2.781,24.68 0.871,24.67 3.645,24.68 16.176,24.67 20.489,24.67 43.92,24.68 16.96,24.68 8.15,24.67 28.51,24.67 63.57,24.68 19.59,24.68 27.79,24.67 6.45,24.68 v 24.67 l 5.9,24.67 44.76,24.68 15.96,24.68 32.62,24.67 28.78,24.67 73.55,24.68 37.01,24.68 23.26,24.67 43.3,24.68 50.78,24.67 247.02,24.67" /><path
         id="path280"
         style="fill:none;stroke:#ff00ff;stroke-width:30;stroke-linecap:butt;stroke-linejoin:round;stroke-miterlimit:10;stroke-dasharray:none;stroke-opacity:1"
         d="m 563.184,482.176 v 24.676 l 12.832,24.671 15.578,24.676 4.168,24.676 7.793,24.676 10.41,24.676 1.574,24.671 10.719,24.676 12.129,24.676 6.621,24.676 9.383,24.676 13.851,24.671 v 24.676 l 1.754,24.676 6.399,24.676 5.039,24.676 31.441,24.671 5.398,24.676 3.579,24.676 12.226,24.676 6.18,24.674 12.414,24.67 3.883,24.68 0.968,24.68 11.79,24.67 2.152,24.68 2.476,24.67 4.528,24.67 3.773,24.68 8.02,24.68 23.601,24.67 8.168,24.67 1.086,24.68 6.457,24.68 5.692,24.67 5.132,24.68 1.821,24.67 6.969,24.67 7.058,24.68 6.395,24.68 6.668,24.67 7.562,24.67 4.981,24.68 3.269,24.68 25.063,24.67 4.629,24.68 7.14,24.67 1.508,24.67 2.168,24.68 23.609,24.68 17.528,24.67 13.14,24.67 9.637,24.68 6.953,24.68 16.964,24.67 1.08,24.68 6.02,24.67 7.33,24.67 4.64,24.68 2.37,24.68 3.03,24.67 3.75,24.67 2.22,24.68 5.51,24.68 2.68,24.67 16.59,24.68 4.17,24.67 12.7,24.67 6.2,24.68 8.07,24.68 12.5,24.67 5.54,24.67 19.71,24.68 15.82,24.68 3.8,24.67 5.55,24.68 30.14,24.67 10.35,24.67 13.5,24.68 44.54,24.68 40.44,24.67 23.8,24.67 17.4,24.68 36.78,24.68 v 24.67 24.68 l 29.94,24.67 12.07,24.67 38.53,24.68 19.81,24.68 38.55,24.67 56.84,24.67 65.21,24.68 66.43,24.68 43.65,24.67 50.23,24.68 6.64,24.67 245.33,24.67" /><path
         id="path282"
         style="fill:none;stroke:#d95319;stroke-width:30;stroke-linecap:butt;stroke-linejoin:round;stroke-miterlimit:10;stroke-dasharray:none;stroke-opacity:1"
         d="m 578.387,482.176 v 24.676 l 15.351,24.671 16.336,24.676 13.364,24.676 9.863,24.676 6.597,24.676 10.09,24.671 7.778,24.676 19.621,24.676 10.582,24.676 6.687,24.676 10.18,24.671 16.348,24.676 4.304,24.676 32.492,24.676 7.321,24.676 8.176,24.671 10.07,24.676 V 951 l 6.09,24.676 7.101,24.674 14.094,24.67 8.121,24.68 0.055,24.68 21.594,24.67 7.82,24.68 5.812,24.67 4.5,24.67 5.762,24.68 21.27,24.68 14.714,24.67 14.04,24.67 4.148,24.68 7.223,24.68 7.14,24.67 13.274,24.68 3.047,24.67 13.003,24.67 13.614,24.68 2.789,24.68 0.937,24.67 7.68,24.67 3.195,24.68 2.184,24.68 7.336,24.67 5.19,24.68 6.35,24.67 37.97,24.67 9.14,24.68 0.44,24.68 8.49,24.67 2.7,24.67 0.08,24.68 5.12,24.68 26.12,24.67 6.44,24.68 3.64,24.67 3.19,24.67 11.18,24.68 1.6,24.68 6.46,24.67 10.55,24.67 18.13,24.68 16.57,24.68 2.62,24.67 11.37,24.68 6.88,24.67 3.13,24.67 18.05,24.68 9.94,24.68 5.97,24.67 20.51,24.67 20.26,24.68 0.59,24.68 4.5,24.67 6.72,24.68 23.87,24.67 15.67,24.67 19.25,24.68 82.99,24.68 28.48,24.67 4.67,24.67 12.83,24.68 v 24.68 24.67 l 12.9,24.68 16.83,24.67 19.25,24.67 19.54,24.68 27.73,24.68 32.73,24.67 67.41,24.67 49.3,24.68 70.69,24.68 49.08,24.67 30.58,24.68 140.1,24.67 215.9,24.67" /><path
         id="path284"
         style="fill:none;stroke:#edb120;stroke-width:30;stroke-linecap:butt;stroke-linejoin:bevel;stroke-miterlimit:10;stroke-dasharray:30, 30;stroke-dashoffset:0;stroke-opacity:1"
         d="m 525,482.176 v 123.375 l 0.328,24.676 0.422,24.671 0.098,24.676 0.238,24.676 0.363,24.676 0.278,24.676 0.148,24.671 0.219,24.676 0.996,24.676 0.105,24.676 0.309,24.676 0.207,24.671 0.445,24.676 0.672,24.676 0.129,24.676 0.031,24.674 v 24.67 l 0.684,24.68 0.719,24.68 0.277,24.67 0.246,24.68 0.172,24.67 0.277,24.67 0.235,24.68 0.57,24.68 1.043,24.67 0.418,24.67 0.219,24.68 0.05,24.68 1.215,24.67 1.344,24.68 0.047,24.67 0.5,24.67 0.316,24.68 0.09,24.68 0.766,24.67 0.023,24.67 0.367,24.68 0.653,24.68 1.011,24.67 0.204,24.68 0.57,24.67 0.41,24.67 0.57,24.68 0.602,24.68 0.391,24.67 0.523,24.67 0.211,24.68 0.125,24.68 0.203,24.67 0.121,24.68 v 24.67 l 0.711,24.67 1.059,24.68 0.832,24.68 1.351,24.67 0.223,24.67 0.648,24.68 0.614,24.68 0.855,24.67 0.238,24.68 0.422,24.67 1.875,24.67 1.086,24.68 2.43,24.68 1.246,24.67 1.066,24.67 0.473,24.68 1.324,24.68 1.075,24.67 0.539,24.68 1.988,24.67 1.808,24.67 1.625,24.68 0.75,24.68 1.375,24.67 0.571,24.67 1.707,24.68 2.371,24.68 1.793,24.67 2.871,24.68 1.23,24.67 4.141,24.67 1.359,24.68 3.688,24.68 v 24.67 l 0.137,24.67 11.347,24.68 3.246,24.68 2.348,24.67 7.785,24.68 1.696,24.67 22.078,24.67" /><path
         id="path286"
         style="fill:none;stroke:#00ff00;stroke-width:30;stroke-linecap:butt;stroke-linejoin:bevel;stroke-miterlimit:10;stroke-dasharray:30, 30;stroke-dashoffset:0;stroke-opacity:1"
         d="m 526.086,482.176 v 24.676 l 0.594,24.671 1.215,24.676 1.238,24.676 3.578,24.676 4.926,24.676 0.144,24.671 0.742,24.676 2.461,24.676 1.118,24.676 2.894,24.676 2.219,24.671 0.269,24.676 2.649,24.676 1.551,24.676 2.875,24.676 2.691,24.671 0.262,24.676 6.066,24.676 1.125,24.676 0.481,24.674 1.277,24.67 0.051,24.68 0.195,24.68 0.758,24.67 0.586,24.68 2.945,24.67 0.879,24.67 0.906,24.68 0.16,24.68 2.098,24.67 3.008,24.67 0.344,24.68 0.414,24.68 0.578,24.67 2.625,24.68 2.535,24.67 2.273,24.67 0.387,24.68 2.25,24.68 1.684,24.67 0.133,24.67 1.281,24.68 1.222,24.68 1.809,24.67 0.023,24.68 0.75,24.67 3.196,24.67 0.801,24.68 1.507,24.68 1.207,24.67 0.731,24.67 0.457,24.68 0.238,24.68 1.141,24.67 0.734,24.68 0.863,24.67 2.497,24.67 0.812,24.68 1.32,24.68 1.59,24.67 v 24.67 l 1.731,24.68 3.519,24.68 4.184,24.67 2.078,24.68 3.922,24.67 1.051,24.67 1.535,24.68 1.293,24.68 2.726,24.67 3.926,24.67 1.973,24.68 0.988,24.68 1.246,24.67 6.09,24.68 3.57,24.67 4.715,24.67 2.063,24.68 3.429,24.68 1.071,24.67 4.097,24.67 4.891,24.68 3.351,24.68 3.606,24.67 10.344,24.68 13.394,24.67 4.988,24.67 18.239,24.68 0.812,24.68 v 24.67 l 3.352,24.67 12.441,24.68 12.293,24.68 17.828,24.67 32.567,24.68 14.367,24.67 64.668,24.67" /><path
         id="path288"
         style="fill:none;stroke:#7e2f8e;stroke-width:30;stroke-linecap:butt;stroke-linejoin:bevel;stroke-miterlimit:10;stroke-dasharray:30, 30;stroke-dashoffset:0;stroke-opacity:1"
         d="m 529.359,482.176 v 24.676 l 2.825,24.671 2.582,24.676 6.015,24.676 9.231,24.676 6.406,24.676 0.059,24.671 1.644,24.676 3.473,24.676 2.617,24.676 4.207,24.676 2.805,24.671 4.836,24.676 4.839,24.676 3.614,24.676 0.504,24.676 6.629,24.671 4.281,24.676 4.613,24.676 4.695,24.676 0.707,24.674 4.372,24.67 0.937,24.68 1.746,24.68 0.918,24.67 v 24.68 l 0.141,24.67 1.656,24.67 1.605,24.68 2.411,24.68 1.281,24.67 1.613,24.67 2.07,24.68 3.704,24.68 2.304,24.67 0.77,24.68 1.597,24.67 5.582,24.67 0.883,24.68 1.149,24.68 2.722,24.67 1.246,24.67 3.766,24.68 4.598,24.68 0.379,24.67 0.863,24.68 0.203,24.67 1.68,24.67 1.109,24.68 0.692,24.68 1.214,24.67 1.645,24.67 1.199,24.68 0.524,24.68 3.457,24.67 1.32,24.68 0.437,24.67 5.676,24.67 6.156,24.68 1.313,24.68 1.117,24.67 1.41,24.67 2.055,24.68 0.234,24.68 4.313,24.67 4.64,24.68 1.305,24.67 1.203,24.67 1.703,24.68 3.657,24.68 6.324,24.67 2.355,24.67 4.754,24.68 7.735,24.68 4.144,24.67 1.344,24.68 8.445,24.67 3.121,24.67 7.223,24.68 6.203,24.68 5.781,24.67 9.782,24.67 4.949,24.68 2.879,24.68 13.566,24.67 11.633,24.68 13.988,24.67 16.082,24.67 19.324,24.68 v 24.68 24.67 l 12.766,24.67 37.688,24.68 4.574,24.68 18.277,24.67 62.899,24.68 40.848,24.67 105.55,24.67" /><path
         id="path290"
         style="fill:none;stroke:#00ffff;stroke-width:30;stroke-linecap:butt;stroke-linejoin:bevel;stroke-miterlimit:10;stroke-dasharray:30, 30;stroke-dashoffset:0;stroke-opacity:1"
         d="m 534.328,482.176 v 24.676 l 5.828,24.671 5.641,24.676 8.469,24.676 16.589,24.676 4.379,24.676 0.692,24.671 2.918,24.676 0.426,24.676 8.925,24.676 5.371,24.676 2.09,24.671 9.61,24.676 2.593,24.676 4.868,24.676 5.429,24.676 4.008,24.671 14.586,24.676 4.02,24.676 4.043,24.676 1.636,24.674 0.735,24.67 1.312,24.68 8.055,24.68 0.113,24.67 2.277,24.68 0.918,24.67 0.239,24.67 1.109,24.68 0.824,24.68 v 24.67 l 4.391,24.67 6.058,24.68 2.446,24.68 0.961,24.67 0.761,24.68 3.063,24.67 4.035,24.67 2.039,24.68 3.024,24.68 0.652,24.67 1.426,24.67 4.976,24.68 2.297,24.68 1.988,24.67 4.778,24.68 3.312,24.67 1.864,24.67 1.234,24.68 2.844,24.68 0.3,24.67 0.293,24.67 0.719,24.68 0.774,24.68 7.746,24.67 1.14,24.68 4.02,24.67 2.797,24.67 2.168,24.68 2.738,24.68 3.645,24.67 6.617,24.67 0.711,24.68 0.781,24.68 5.512,24.67 4.582,24.68 2.453,24.67 6.008,24.67 1.918,24.68 5.019,24.68 2.602,24.67 6.652,24.67 5.813,24.68 7.449,24.68 6.457,24.67 4.215,24.68 3.336,24.67 19.949,24.67 12.66,24.68 6.781,24.68 0.699,24.67 6.575,24.67 6.945,24.68 19.508,24.68 6.742,24.67 27.691,24.68 13.59,24.67 12.293,24.67 12.555,24.68 v 24.68 24.67 l 32.211,24.67 39.006,24.68 32.06,24.68 19.48,24.67 84.09,24.68 49.28,24.67 145.11,24.67" /><path
         id="path292"
         style="fill:none;stroke:#0072bd;stroke-width:30;stroke-linecap:butt;stroke-linejoin:bevel;stroke-miterlimit:10;stroke-dasharray:30, 30;stroke-dashoffset:0;stroke-opacity:1"
         d="m 549.719,482.176 v 24.676 l 13.597,24.671 8.868,24.676 17.062,24.676 19.973,24.676 5.91,24.676 7.281,24.671 2.356,24.676 0.172,24.676 7.988,24.676 10.543,24.676 10.953,24.671 2.062,24.676 10.504,24.676 5.91,24.676 5.836,24.676 12.871,24.671 9.45,24.676 13.726,24.676 8.992,24.676 2.79,24.674 2.578,24.67 2.445,24.68 2.543,24.68 2.687,24.67 5.161,24.68 7.843,24.67 2.871,24.67 0.25,24.68 1.786,24.68 3.5,24.67 v 24.67 l 0.773,24.68 6.414,24.68 5.367,24.67 3.227,24.68 5.078,24.67 0.328,24.67 1.68,24.68 2.429,24.68 2.29,24.67 5.128,24.67 1.465,24.68 4.266,24.68 3.855,24.67 9.809,24.68 8.004,24.67 2.512,24.67 2.265,24.68 1.395,24.68 0.676,24.67 3.531,24.67 5.777,24.68 4.184,24.68 1.8,24.67 2.52,24.68 1.32,24.67 7.371,24.67 5.985,24.68 4.32,24.68 2.43,24.67 7.051,24.67 6.945,24.68 0.797,24.68 1.785,24.67 5.113,24.68 4.656,24.67 4.344,24.67 3.067,24.68 12.293,24.68 10.718,24.67 10.336,24.67 3.785,24.68 3.946,24.68 12.578,24.67 9.894,24.68 3,24.67 27.102,24.67 7.953,24.68 7.151,24.68 26.99,24.67 1.76,24.67 33.47,24.68 27.48,24.68 15.48,24.67 23.66,24.68 23.05,24.67 25.71,24.67 v 24.68 24.68 l 36.6,24.67 26.65,24.67 44.79,24.68 32.47,24.68 27.61,24.67 97.78,24.68 107.15,24.67 205.67,24.67" /><path
         id="path294"
         style="fill:none;stroke:#ff00ff;stroke-width:30;stroke-linecap:butt;stroke-linejoin:bevel;stroke-miterlimit:10;stroke-dasharray:30, 30;stroke-dashoffset:0;stroke-opacity:1"
         d="m 581.281,482.176 v 24.676 l 26.676,24.671 10.883,24.676 26.601,24.676 16.286,24.676 11.496,24.676 10.23,24.671 7.59,24.676 10.23,24.676 2.047,24.676 8.383,24.676 21.235,24.671 11.578,24.676 3.57,24.676 19.578,24.676 17.18,24.676 24.144,24.671 4.34,24.676 2.199,24.676 22.395,24.676 1.074,24.674 11.188,24.67 5.82,24.68 5.437,24.68 3.758,24.67 3.91,24.68 6.754,24.67 6.7,24.67 10.664,24.68 1.179,24.68 1.535,24.67 3.047,24.67 8.16,24.68 3.09,24.68 v 24.67 l 1.739,24.68 3.722,24.67 11.465,24.67 6.52,24.68 1.625,24.68 1.546,24.67 7.274,24.67 5.695,24.68 2.399,24.68 6.711,24.67 2.722,24.68 9.16,24.67 5.887,24.67 6.629,24.68 0.496,24.68 7.149,24.67 1.484,24.67 8.699,24.68 4.15,24.68 10.03,24.67 5.93,24.68 2.82,24.67 7.39,24.67 7.89,24.68 5.87,24.68 v 24.67 l 4.83,24.67 2.17,24.68 9.3,24.68 0.84,24.67 19.96,24.68 12.06,24.67 7.51,24.67 5.91,24.68 14.56,24.68 12.88,24.67 15.94,24.67 7.16,24.68 2.78,24.68 6.09,24.67 24.16,24.68 28.98,24.67 20.74,24.67 3.55,24.68 36.94,24.68 21.55,24.67 7.95,24.67 58.99,24.68 8.96,24.68 50.78,24.67 29.55,24.68 27.33,24.67 0.55,24.67 v 24.68 l 17.8,24.68 81.77,24.67 59.03,24.67 33.71,24.68 71.24,24.68 42.94,24.67 125.14,24.68 33.22,24.67 412,24.67" /><path
         id="path296"
         style="fill:none;stroke:#d95319;stroke-width:30;stroke-linecap:butt;stroke-linejoin:bevel;stroke-miterlimit:10;stroke-dasharray:30, 30;stroke-dashoffset:0;stroke-opacity:1"
         d="m 608.527,482.176 v 24.676 l 40.364,24.671 15.047,24.676 36.57,24.676 8.758,24.676 17.996,24.676 11.578,24.671 14.82,24.676 1.613,24.676 5.774,24.676 22.664,24.676 17.828,24.671 13.395,24.676 8.574,24.676 13.762,24.676 16.636,24.676 25.047,24.671 5.656,24.676 26.145,24.676 23.453,24.676 8.445,24.674 8.282,24.67 8.168,24.68 3.011,24.68 3.008,24.67 3.07,24.68 6.508,24.67 0.637,24.67 7.156,24.68 2.77,24.68 3.687,24.67 16.341,24.67 1.27,24.68 v 24.68 l 17.81,24.67 13.29,24.68 3.59,24.67 1.56,24.67 3.51,24.68 6.75,24.68 5.13,24.67 2.35,24.67 8.75,24.68 9.44,24.68 10.74,24.67 14.7,24.68 9.18,24.67 9.5,24.67 4.13,24.68 5.62,24.68 13.21,24.67 9.8,24.67 1.17,24.68 0.55,24.68 2.66,24.67 5.16,24.68 10.7,24.67 7.77,24.67 8.11,24.68 12.62,24.68 v 24.67 l 0.94,24.67 2.91,24.68 3.38,24.68 11.79,24.67 2.32,24.68 14.88,24.67 18.32,24.67 22.06,24.68 9.83,24.68 2.25,24.67 11.54,24.67 28.37,24.68 8.34,24.68 5.5,24.67 12.41,24.68 21.93,24.67 14.65,24.67 64.89,24.68 38.84,24.68 34.62,24.67 57.33,24.67 24.27,24.68 13.85,24.68 43.53,24.67 18.55,24.68 21.41,24.67 4.64,24.67 v 24.68 l 28.49,24.68 83.9,24.67 134.64,24.67 79.17,24.68 34.45,24.68 42.96,24.67 156.62,24.68 95.17,24.67 436.91,24.67" /></g></g></svg>
