<?xml version="1.0" encoding="UTF-8" standalone="no"?>
<svg
   xmlns:dc="http://purl.org/dc/elements/1.1/"
   xmlns:cc="http://creativecommons.org/ns#"
   xmlns:rdf="http://www.w3.org/1999/02/22-rdf-syntax-ns#"
   xmlns:svg="http://www.w3.org/2000/svg"
   xmlns="http://www.w3.org/2000/svg"
   xmlns:sodipodi="http://sodipodi.sourceforge.net/DTD/sodipodi-0.dtd"
   xmlns:inkscape="http://www.inkscape.org/namespaces/inkscape"
   inkscape:version="1.0 (4035a4fb49, 2020-05-01)"
   sodipodi:docname="RainFR_RainExtr_EFFCI06_Sierra_ZoomIn.svg"
   viewBox="0 0 524 398.66666"
   height="398.66666"
   width="524"
   xml:space="preserve"
   id="svg1990"
   version="1.1"><metadata
     id="metadata1996"><rdf:RDF><cc:Work
         rdf:about=""><dc:format>image/svg+xml</dc:format><dc:type
           rdf:resource="http://purl.org/dc/dcmitype/StillImage" /><dc:title></dc:title></cc:Work></rdf:RDF></metadata><defs
     id="defs1994" /><sodipodi:namedview
     inkscape:current-layer="g1998"
     inkscape:window-maximized="0"
     inkscape:window-y="0"
     inkscape:window-x="0"
     inkscape:cy="199.33333"
     inkscape:cx="262"
     inkscape:zoom="1.8436455"
     showgrid="false"
     id="namedview1992"
     inkscape:window-height="510"
     inkscape:window-width="743"
     inkscape:pageshadow="2"
     inkscape:pageopacity="0"
     guidetolerance="10"
     gridtolerance="10"
     objecttolerance="10"
     borderopacity="1"
     bordercolor="#666666"
     pagecolor="#ffffff" /><g
     transform="matrix(1.3333333,0,0,-1.3333333,0,398.66667)"
     inkscape:label="ink_ext_XXXXXX"
     inkscape:groupmode="layer"
     id="g1998"><g
       transform="scale(0.1)"
       id="g2000"><path
         id="path2002"
         style="fill:#ffffff;fill-opacity:1;fill-rule:nonzero;stroke:none"
         d="M -30,0 H 4200 V 3165 H -30 Z" /><path
         id="path2004"
         style="fill:#ffffff;fill-opacity:1;fill-rule:nonzero;stroke:none"
         d="M -30,0 H 4200 V 3165 H -30 Z" /><path
         id="path2006"
         style="fill:#ffffff;fill-opacity:1;fill-rule:nonzero;stroke:none"
         d="M 525,457.5 H 3795 V 2925 H 525 Z" /><path
         id="path2008"
         style="fill:none;stroke:#929292;stroke-width:5.0025;stroke-linecap:butt;stroke-linejoin:round;stroke-miterlimit:10;stroke-dasharray:none;stroke-opacity:1"
         d="M 525,457.5 V 2925" /><path
         id="path2010"
         style="fill:none;stroke:#929292;stroke-width:5.0025;stroke-linecap:butt;stroke-linejoin:round;stroke-miterlimit:10;stroke-dasharray:none;stroke-opacity:1"
         d="M 1179,457.5 V 2925" /><path
         id="path2012"
         style="fill:none;stroke:#929292;stroke-width:5.0025;stroke-linecap:butt;stroke-linejoin:round;stroke-miterlimit:10;stroke-dasharray:none;stroke-opacity:1"
         d="M 1833,457.5 V 2925" /><path
         id="path2014"
         style="fill:none;stroke:#929292;stroke-width:5.0025;stroke-linecap:butt;stroke-linejoin:round;stroke-miterlimit:10;stroke-dasharray:none;stroke-opacity:1"
         d="M 2487,457.5 V 2925" /><path
         id="path2016"
         style="fill:none;stroke:#929292;stroke-width:5.0025;stroke-linecap:butt;stroke-linejoin:round;stroke-miterlimit:10;stroke-dasharray:none;stroke-opacity:1"
         d="M 3141,457.5 V 2925" /><path
         id="path2018"
         style="fill:none;stroke:#929292;stroke-width:5.0025;stroke-linecap:butt;stroke-linejoin:round;stroke-miterlimit:10;stroke-dasharray:none;stroke-opacity:1"
         d="M 3795,457.5 V 2925" /><path
         id="path2020"
         style="fill:none;stroke:#929292;stroke-width:5.0025;stroke-linecap:butt;stroke-linejoin:round;stroke-miterlimit:10;stroke-dasharray:none;stroke-opacity:1"
         d="M 3795,457.5 H 525" /><path
         id="path2022"
         style="fill:none;stroke:#929292;stroke-width:5.0025;stroke-linecap:butt;stroke-linejoin:round;stroke-miterlimit:10;stroke-dasharray:none;stroke-opacity:1"
         d="M 3795,580.875 H 525" /><path
         id="path2024"
         style="fill:none;stroke:#929292;stroke-width:5.0025;stroke-linecap:butt;stroke-linejoin:round;stroke-miterlimit:10;stroke-dasharray:none;stroke-opacity:1"
         d="M 3795,704.25 H 525" /><path
         id="path2026"
         style="fill:none;stroke:#929292;stroke-width:5.0025;stroke-linecap:butt;stroke-linejoin:round;stroke-miterlimit:10;stroke-dasharray:none;stroke-opacity:1"
         d="M 3795,827.625 H 525" /><path
         id="path2028"
         style="fill:none;stroke:#929292;stroke-width:5.0025;stroke-linecap:butt;stroke-linejoin:round;stroke-miterlimit:10;stroke-dasharray:none;stroke-opacity:1"
         d="M 3795,951 H 525" /><path
         id="path2030"
         style="fill:none;stroke:#929292;stroke-width:5.0025;stroke-linecap:butt;stroke-linejoin:round;stroke-miterlimit:10;stroke-dasharray:none;stroke-opacity:1"
         d="M 3795,1074.38 H 525" /><path
         id="path2032"
         style="fill:none;stroke:#929292;stroke-width:5.0025;stroke-linecap:butt;stroke-linejoin:round;stroke-miterlimit:10;stroke-dasharray:none;stroke-opacity:1"
         d="M 3795,1197.75 H 525" /><path
         id="path2034"
         style="fill:none;stroke:#929292;stroke-width:5.0025;stroke-linecap:butt;stroke-linejoin:round;stroke-miterlimit:10;stroke-dasharray:none;stroke-opacity:1"
         d="M 3795,1321.13 H 525" /><path
         id="path2036"
         style="fill:none;stroke:#929292;stroke-width:5.0025;stroke-linecap:butt;stroke-linejoin:round;stroke-miterlimit:10;stroke-dasharray:none;stroke-opacity:1"
         d="M 3795,1444.5 H 525" /><path
         id="path2038"
         style="fill:none;stroke:#929292;stroke-width:5.0025;stroke-linecap:butt;stroke-linejoin:round;stroke-miterlimit:10;stroke-dasharray:none;stroke-opacity:1"
         d="M 3795,1567.88 H 525" /><path
         id="path2040"
         style="fill:none;stroke:#929292;stroke-width:5.0025;stroke-linecap:butt;stroke-linejoin:round;stroke-miterlimit:10;stroke-dasharray:none;stroke-opacity:1"
         d="M 3795,1691.25 H 525" /><path
         id="path2042"
         style="fill:none;stroke:#929292;stroke-width:5.0025;stroke-linecap:butt;stroke-linejoin:round;stroke-miterlimit:10;stroke-dasharray:none;stroke-opacity:1"
         d="M 3795,1814.63 H 525" /><path
         id="path2044"
         style="fill:none;stroke:#929292;stroke-width:5.0025;stroke-linecap:butt;stroke-linejoin:round;stroke-miterlimit:10;stroke-dasharray:none;stroke-opacity:1"
         d="M 3795,1938 H 525" /><path
         id="path2046"
         style="fill:none;stroke:#929292;stroke-width:5.0025;stroke-linecap:butt;stroke-linejoin:round;stroke-miterlimit:10;stroke-dasharray:none;stroke-opacity:1"
         d="M 3795,2061.38 H 525" /><path
         id="path2048"
         style="fill:none;stroke:#929292;stroke-width:5.0025;stroke-linecap:butt;stroke-linejoin:round;stroke-miterlimit:10;stroke-dasharray:none;stroke-opacity:1"
         d="M 3795,2184.75 H 525" /><path
         id="path2050"
         style="fill:none;stroke:#929292;stroke-width:5.0025;stroke-linecap:butt;stroke-linejoin:round;stroke-miterlimit:10;stroke-dasharray:none;stroke-opacity:1"
         d="M 3795,2308.13 H 525" /><path
         id="path2052"
         style="fill:none;stroke:#929292;stroke-width:5.0025;stroke-linecap:butt;stroke-linejoin:round;stroke-miterlimit:10;stroke-dasharray:none;stroke-opacity:1"
         d="M 3795,2431.5 H 525" /><path
         id="path2054"
         style="fill:none;stroke:#929292;stroke-width:5.0025;stroke-linecap:butt;stroke-linejoin:round;stroke-miterlimit:10;stroke-dasharray:none;stroke-opacity:1"
         d="M 3795,2554.88 H 525" /><path
         id="path2056"
         style="fill:none;stroke:#929292;stroke-width:5.0025;stroke-linecap:butt;stroke-linejoin:round;stroke-miterlimit:10;stroke-dasharray:none;stroke-opacity:1"
         d="M 3795,2678.25 H 525" /><path
         id="path2058"
         style="fill:none;stroke:#929292;stroke-width:5.0025;stroke-linecap:butt;stroke-linejoin:round;stroke-miterlimit:10;stroke-dasharray:none;stroke-opacity:1"
         d="M 3795,2801.63 H 525" /><path
         id="path2060"
         style="fill:none;stroke:#929292;stroke-width:5.0025;stroke-linecap:butt;stroke-linejoin:round;stroke-miterlimit:10;stroke-dasharray:none;stroke-opacity:1"
         d="M 3795,2925 H 525" /><path
         id="path2062"
         style="fill:none;stroke:#262626;stroke-width:5.0025;stroke-linecap:square;stroke-linejoin:round;stroke-miterlimit:10;stroke-dasharray:none;stroke-opacity:1"
         d="M 525,457.5 H 3795" /><path
         id="path2064"
         style="fill:none;stroke:#262626;stroke-width:5.0025;stroke-linecap:square;stroke-linejoin:round;stroke-miterlimit:10;stroke-dasharray:none;stroke-opacity:1"
         d="M 525,2925 H 3795" /><path
         id="path2066"
         style="fill:none;stroke:#262626;stroke-width:5.0025;stroke-linecap:square;stroke-linejoin:round;stroke-miterlimit:10;stroke-dasharray:none;stroke-opacity:1"
         d="m 525,457.5 v 32.699" /><path
         id="path2068"
         style="fill:none;stroke:#262626;stroke-width:5.0025;stroke-linecap:square;stroke-linejoin:round;stroke-miterlimit:10;stroke-dasharray:none;stroke-opacity:1"
         d="m 1179,457.5 v 32.699" /><path
         id="path2070"
         style="fill:none;stroke:#262626;stroke-width:5.0025;stroke-linecap:square;stroke-linejoin:round;stroke-miterlimit:10;stroke-dasharray:none;stroke-opacity:1"
         d="m 1833,457.5 v 32.699" /><path
         id="path2072"
         style="fill:none;stroke:#262626;stroke-width:5.0025;stroke-linecap:square;stroke-linejoin:round;stroke-miterlimit:10;stroke-dasharray:none;stroke-opacity:1"
         d="m 2487,457.5 v 32.699" /><path
         id="path2074"
         style="fill:none;stroke:#262626;stroke-width:5.0025;stroke-linecap:square;stroke-linejoin:round;stroke-miterlimit:10;stroke-dasharray:none;stroke-opacity:1"
         d="m 3141,457.5 v 32.699" /><path
         id="path2076"
         style="fill:none;stroke:#262626;stroke-width:5.0025;stroke-linecap:square;stroke-linejoin:round;stroke-miterlimit:10;stroke-dasharray:none;stroke-opacity:1"
         d="m 3795,457.5 v 32.699" /><path
         id="path2078"
         style="fill:none;stroke:#262626;stroke-width:5.0025;stroke-linecap:square;stroke-linejoin:round;stroke-miterlimit:10;stroke-dasharray:none;stroke-opacity:1"
         d="m 525,2925 v -32.7" /><path
         id="path2080"
         style="fill:none;stroke:#262626;stroke-width:5.0025;stroke-linecap:square;stroke-linejoin:round;stroke-miterlimit:10;stroke-dasharray:none;stroke-opacity:1"
         d="m 1179,2925 v -32.7" /><path
         id="path2082"
         style="fill:none;stroke:#262626;stroke-width:5.0025;stroke-linecap:square;stroke-linejoin:round;stroke-miterlimit:10;stroke-dasharray:none;stroke-opacity:1"
         d="m 1833,2925 v -32.7" /><path
         id="path2084"
         style="fill:none;stroke:#262626;stroke-width:5.0025;stroke-linecap:square;stroke-linejoin:round;stroke-miterlimit:10;stroke-dasharray:none;stroke-opacity:1"
         d="m 2487,2925 v -32.7" /><path
         id="path2086"
         style="fill:none;stroke:#262626;stroke-width:5.0025;stroke-linecap:square;stroke-linejoin:round;stroke-miterlimit:10;stroke-dasharray:none;stroke-opacity:1"
         d="m 3141,2925 v -32.7" /><path
         id="path2088"
         style="fill:none;stroke:#262626;stroke-width:5.0025;stroke-linecap:square;stroke-linejoin:round;stroke-miterlimit:10;stroke-dasharray:none;stroke-opacity:1"
         d="m 3795,2925 v -32.7" /><g
         transform="scale(10)"
         id="g2090"><text
           id="text2094"
           style="font-variant:normal;font-weight:normal;font-size:15.9998px;font-family:Helvetica;-inkscape-font-specification:Helvetica;writing-mode:lr-tb;fill:#262626;fill-opacity:1;fill-rule:nonzero;stroke:none"
           transform="matrix(1,0,0,-1,48,25.55)"><tspan
             id="tspan2092"
             sodipodi:role="line"
             y="0"
             x="0 60.9002 69.796089 126.30034 135.19623 191.70049 200.59637 257.10062 265.99652 318.00082 326.89673 335.7926">020406080100</tspan></text><text
           id="text2098"
           style="font-variant:normal;font-weight:normal;font-size:17.6002px;font-family:Helvetica;-inkscape-font-specification:Helvetica;writing-mode:lr-tb;fill:#262626;fill-opacity:1;fill-rule:nonzero;stroke:none"
           transform="matrix(1,0,0,-1,119.625,3.55)"><tspan
             id="tspan2096"
             sodipodi:role="line"
             y="0"
             x="0 12.707344 22.493055 26.400299 36.186012 41.078865 50.864578 54.771824 58.679066 63.571922 72.372025 82.15773 86.06498 95.850693 105.6364 114.4365 119.32935 124.22221 138.88318 153.54414 158.437 168.22272 178.00842 187.79413">Rainfall values [mm/12h]</tspan></text></g><path
         id="path2100"
         style="fill:none;stroke:#262626;stroke-width:5.0025;stroke-linecap:square;stroke-linejoin:round;stroke-miterlimit:10;stroke-dasharray:none;stroke-opacity:1"
         d="M 525,457.5 V 2925" /><path
         id="path2102"
         style="fill:none;stroke:#262626;stroke-width:5.0025;stroke-linecap:square;stroke-linejoin:round;stroke-miterlimit:10;stroke-dasharray:none;stroke-opacity:1"
         d="M 3795,457.5 V 2925" /><path
         id="path2104"
         style="fill:none;stroke:#262626;stroke-width:5.0025;stroke-linecap:square;stroke-linejoin:round;stroke-miterlimit:10;stroke-dasharray:none;stroke-opacity:1"
         d="m 525,457.5 h 32.699" /><path
         id="path2106"
         style="fill:none;stroke:#262626;stroke-width:5.0025;stroke-linecap:square;stroke-linejoin:round;stroke-miterlimit:10;stroke-dasharray:none;stroke-opacity:1"
         d="m 525,580.875 h 32.699" /><path
         id="path2108"
         style="fill:none;stroke:#262626;stroke-width:5.0025;stroke-linecap:square;stroke-linejoin:round;stroke-miterlimit:10;stroke-dasharray:none;stroke-opacity:1"
         d="m 525,704.25 h 32.699" /><path
         id="path2110"
         style="fill:none;stroke:#262626;stroke-width:5.0025;stroke-linecap:square;stroke-linejoin:round;stroke-miterlimit:10;stroke-dasharray:none;stroke-opacity:1"
         d="m 525,827.625 h 32.699" /><path
         id="path2112"
         style="fill:none;stroke:#262626;stroke-width:5.0025;stroke-linecap:square;stroke-linejoin:round;stroke-miterlimit:10;stroke-dasharray:none;stroke-opacity:1"
         d="m 525,951 h 32.699" /><path
         id="path2114"
         style="fill:none;stroke:#262626;stroke-width:5.0025;stroke-linecap:square;stroke-linejoin:round;stroke-miterlimit:10;stroke-dasharray:none;stroke-opacity:1"
         d="m 525,1074.38 h 32.699" /><path
         id="path2116"
         style="fill:none;stroke:#262626;stroke-width:5.0025;stroke-linecap:square;stroke-linejoin:round;stroke-miterlimit:10;stroke-dasharray:none;stroke-opacity:1"
         d="m 525,1197.75 h 32.699" /><path
         id="path2118"
         style="fill:none;stroke:#262626;stroke-width:5.0025;stroke-linecap:square;stroke-linejoin:round;stroke-miterlimit:10;stroke-dasharray:none;stroke-opacity:1"
         d="m 525,1321.13 h 32.699" /><path
         id="path2120"
         style="fill:none;stroke:#262626;stroke-width:5.0025;stroke-linecap:square;stroke-linejoin:round;stroke-miterlimit:10;stroke-dasharray:none;stroke-opacity:1"
         d="m 525,1444.5 h 32.699" /><path
         id="path2122"
         style="fill:none;stroke:#262626;stroke-width:5.0025;stroke-linecap:square;stroke-linejoin:round;stroke-miterlimit:10;stroke-dasharray:none;stroke-opacity:1"
         d="m 525,1567.88 h 32.699" /><path
         id="path2124"
         style="fill:none;stroke:#262626;stroke-width:5.0025;stroke-linecap:square;stroke-linejoin:round;stroke-miterlimit:10;stroke-dasharray:none;stroke-opacity:1"
         d="m 525,1691.25 h 32.699" /><path
         id="path2126"
         style="fill:none;stroke:#262626;stroke-width:5.0025;stroke-linecap:square;stroke-linejoin:round;stroke-miterlimit:10;stroke-dasharray:none;stroke-opacity:1"
         d="m 525,1814.63 h 32.699" /><path
         id="path2128"
         style="fill:none;stroke:#262626;stroke-width:5.0025;stroke-linecap:square;stroke-linejoin:round;stroke-miterlimit:10;stroke-dasharray:none;stroke-opacity:1"
         d="m 525,1938 h 32.699" /><path
         id="path2130"
         style="fill:none;stroke:#262626;stroke-width:5.0025;stroke-linecap:square;stroke-linejoin:round;stroke-miterlimit:10;stroke-dasharray:none;stroke-opacity:1"
         d="m 525,2061.38 h 32.699" /><path
         id="path2132"
         style="fill:none;stroke:#262626;stroke-width:5.0025;stroke-linecap:square;stroke-linejoin:round;stroke-miterlimit:10;stroke-dasharray:none;stroke-opacity:1"
         d="m 525,2184.75 h 32.699" /><path
         id="path2134"
         style="fill:none;stroke:#262626;stroke-width:5.0025;stroke-linecap:square;stroke-linejoin:round;stroke-miterlimit:10;stroke-dasharray:none;stroke-opacity:1"
         d="m 525,2308.13 h 32.699" /><path
         id="path2136"
         style="fill:none;stroke:#262626;stroke-width:5.0025;stroke-linecap:square;stroke-linejoin:round;stroke-miterlimit:10;stroke-dasharray:none;stroke-opacity:1"
         d="m 525,2431.5 h 32.699" /><path
         id="path2138"
         style="fill:none;stroke:#262626;stroke-width:5.0025;stroke-linecap:square;stroke-linejoin:round;stroke-miterlimit:10;stroke-dasharray:none;stroke-opacity:1"
         d="m 525,2554.88 h 32.699" /><path
         id="path2140"
         style="fill:none;stroke:#262626;stroke-width:5.0025;stroke-linecap:square;stroke-linejoin:round;stroke-miterlimit:10;stroke-dasharray:none;stroke-opacity:1"
         d="m 525,2678.25 h 32.699" /><path
         id="path2142"
         style="fill:none;stroke:#262626;stroke-width:5.0025;stroke-linecap:square;stroke-linejoin:round;stroke-miterlimit:10;stroke-dasharray:none;stroke-opacity:1"
         d="m 525,2801.63 h 32.699" /><path
         id="path2144"
         style="fill:none;stroke:#262626;stroke-width:5.0025;stroke-linecap:square;stroke-linejoin:round;stroke-miterlimit:10;stroke-dasharray:none;stroke-opacity:1"
         d="m 525,2925 h 32.699" /><path
         id="path2146"
         style="fill:none;stroke:#262626;stroke-width:5.0025;stroke-linecap:square;stroke-linejoin:round;stroke-miterlimit:10;stroke-dasharray:none;stroke-opacity:1"
         d="m 3795,457.5 h -32.7" /><path
         id="path2148"
         style="fill:none;stroke:#262626;stroke-width:5.0025;stroke-linecap:square;stroke-linejoin:round;stroke-miterlimit:10;stroke-dasharray:none;stroke-opacity:1"
         d="m 3795,580.875 h -32.7" /><path
         id="path2150"
         style="fill:none;stroke:#262626;stroke-width:5.0025;stroke-linecap:square;stroke-linejoin:round;stroke-miterlimit:10;stroke-dasharray:none;stroke-opacity:1"
         d="m 3795,704.25 h -32.7" /><path
         id="path2152"
         style="fill:none;stroke:#262626;stroke-width:5.0025;stroke-linecap:square;stroke-linejoin:round;stroke-miterlimit:10;stroke-dasharray:none;stroke-opacity:1"
         d="m 3795,827.625 h -32.7" /><path
         id="path2154"
         style="fill:none;stroke:#262626;stroke-width:5.0025;stroke-linecap:square;stroke-linejoin:round;stroke-miterlimit:10;stroke-dasharray:none;stroke-opacity:1"
         d="m 3795,951 h -32.7" /><path
         id="path2156"
         style="fill:none;stroke:#262626;stroke-width:5.0025;stroke-linecap:square;stroke-linejoin:round;stroke-miterlimit:10;stroke-dasharray:none;stroke-opacity:1"
         d="m 3795,1074.38 h -32.7" /><path
         id="path2158"
         style="fill:none;stroke:#262626;stroke-width:5.0025;stroke-linecap:square;stroke-linejoin:round;stroke-miterlimit:10;stroke-dasharray:none;stroke-opacity:1"
         d="m 3795,1197.75 h -32.7" /><path
         id="path2160"
         style="fill:none;stroke:#262626;stroke-width:5.0025;stroke-linecap:square;stroke-linejoin:round;stroke-miterlimit:10;stroke-dasharray:none;stroke-opacity:1"
         d="m 3795,1321.13 h -32.7" /><path
         id="path2162"
         style="fill:none;stroke:#262626;stroke-width:5.0025;stroke-linecap:square;stroke-linejoin:round;stroke-miterlimit:10;stroke-dasharray:none;stroke-opacity:1"
         d="m 3795,1444.5 h -32.7" /><path
         id="path2164"
         style="fill:none;stroke:#262626;stroke-width:5.0025;stroke-linecap:square;stroke-linejoin:round;stroke-miterlimit:10;stroke-dasharray:none;stroke-opacity:1"
         d="m 3795,1567.88 h -32.7" /><path
         id="path2166"
         style="fill:none;stroke:#262626;stroke-width:5.0025;stroke-linecap:square;stroke-linejoin:round;stroke-miterlimit:10;stroke-dasharray:none;stroke-opacity:1"
         d="m 3795,1691.25 h -32.7" /><path
         id="path2168"
         style="fill:none;stroke:#262626;stroke-width:5.0025;stroke-linecap:square;stroke-linejoin:round;stroke-miterlimit:10;stroke-dasharray:none;stroke-opacity:1"
         d="m 3795,1814.63 h -32.7" /><path
         id="path2170"
         style="fill:none;stroke:#262626;stroke-width:5.0025;stroke-linecap:square;stroke-linejoin:round;stroke-miterlimit:10;stroke-dasharray:none;stroke-opacity:1"
         d="m 3795,1938 h -32.7" /><path
         id="path2172"
         style="fill:none;stroke:#262626;stroke-width:5.0025;stroke-linecap:square;stroke-linejoin:round;stroke-miterlimit:10;stroke-dasharray:none;stroke-opacity:1"
         d="m 3795,2061.38 h -32.7" /><path
         id="path2174"
         style="fill:none;stroke:#262626;stroke-width:5.0025;stroke-linecap:square;stroke-linejoin:round;stroke-miterlimit:10;stroke-dasharray:none;stroke-opacity:1"
         d="m 3795,2184.75 h -32.7" /><path
         id="path2176"
         style="fill:none;stroke:#262626;stroke-width:5.0025;stroke-linecap:square;stroke-linejoin:round;stroke-miterlimit:10;stroke-dasharray:none;stroke-opacity:1"
         d="m 3795,2308.13 h -32.7" /><path
         id="path2178"
         style="fill:none;stroke:#262626;stroke-width:5.0025;stroke-linecap:square;stroke-linejoin:round;stroke-miterlimit:10;stroke-dasharray:none;stroke-opacity:1"
         d="m 3795,2431.5 h -32.7" /><path
         id="path2180"
         style="fill:none;stroke:#262626;stroke-width:5.0025;stroke-linecap:square;stroke-linejoin:round;stroke-miterlimit:10;stroke-dasharray:none;stroke-opacity:1"
         d="m 3795,2554.88 h -32.7" /><path
         id="path2182"
         style="fill:none;stroke:#262626;stroke-width:5.0025;stroke-linecap:square;stroke-linejoin:round;stroke-miterlimit:10;stroke-dasharray:none;stroke-opacity:1"
         d="m 3795,2678.25 h -32.7" /><path
         id="path2184"
         style="fill:none;stroke:#262626;stroke-width:5.0025;stroke-linecap:square;stroke-linejoin:round;stroke-miterlimit:10;stroke-dasharray:none;stroke-opacity:1"
         d="m 3795,2801.63 h -32.7" /><path
         id="path2186"
         style="fill:none;stroke:#262626;stroke-width:5.0025;stroke-linecap:square;stroke-linejoin:round;stroke-miterlimit:10;stroke-dasharray:none;stroke-opacity:1"
         d="m 3795,2925 h -32.7" /><g
         transform="scale(10)"
         id="g2188"><text
           id="text2232"
           style="font-variant:normal;font-weight:normal;font-size:15.9998px;font-family:Helvetica;-inkscape-font-specification:Helvetica;writing-mode:lr-tb;fill:#262626;fill-opacity:1;fill-rule:nonzero;stroke:none"
           transform="matrix(1,0,0,-1,38.3,40.125)"><tspan
             id="tspan2190"
             y="0"
             x="0">0</tspan><tspan
             id="tspan2192"
             y="-12.3375"
             x="4.5"> </tspan><tspan
             id="tspan2194"
             sodipodi:role="line"
             y="-24.674999"
             x="-9 -0.1041112">10</tspan><tspan
             id="tspan2196"
             y="-37.012501"
             x="4.5"> </tspan><tspan
             id="tspan2198"
             sodipodi:role="line"
             y="-49.349998"
             x="-9 -0.1041112">20</tspan><tspan
             id="tspan2200"
             y="-61.6875"
             x="4.5"> </tspan><tspan
             id="tspan2202"
             sodipodi:role="line"
             y="-74.025002"
             x="-9 -0.1041112">30</tspan><tspan
             id="tspan2204"
             y="-86.362503"
             x="4.5"> </tspan><tspan
             id="tspan2206"
             sodipodi:role="line"
             y="-98.699997"
             x="-9 -0.1041112">40</tspan><tspan
             id="tspan2208"
             y="-111.0375"
             x="4.5"> </tspan><tspan
             id="tspan2210"
             sodipodi:role="line"
             y="-123.375"
             x="-9 -0.1041112">50</tspan><tspan
             id="tspan2212"
             y="-135.71249"
             x="4.5"> </tspan><tspan
             id="tspan2214"
             sodipodi:role="line"
             y="-148.05"
             x="-9 -0.1041112">60</tspan><tspan
             id="tspan2216"
             y="-160.3875"
             x="4.5"> </tspan><tspan
             id="tspan2218"
             sodipodi:role="line"
             y="-172.72501"
             x="-9 -0.1041112">70</tspan><tspan
             id="tspan2220"
             y="-185.0625"
             x="4.5"> </tspan><tspan
             id="tspan2222"
             sodipodi:role="line"
             y="-197.39999"
             x="-9 -0.1041112">80</tspan><tspan
             id="tspan2224"
             y="-209.7375"
             x="4.5"> </tspan><tspan
             id="tspan2226"
             sodipodi:role="line"
             y="-222.075"
             x="-9 -0.1041112">90</tspan><tspan
             id="tspan2228"
             y="-234.41251"
             x="4.5"> </tspan><tspan
             id="tspan2230"
             sodipodi:role="line"
             y="-246.75"
             x="-18 -9.1041117 -0.2082224">100</tspan></text><text
           id="text2236"
           style="font-variant:normal;font-weight:normal;font-size:17.6002px;font-family:Helvetica;-inkscape-font-specification:Helvetica;writing-mode:lr-tb;fill:#262626;fill-opacity:1;fill-rule:nonzero;stroke:none"
           transform="matrix(0,1,1,0,13.55,109.5)"><tspan
             id="tspan2234"
             sodipodi:role="line"
             y="0"
             x="0 11.739333 21.525045 27.385912 36.186012 45.971722 55.757435 60.650288 64.557533 68.464775 78.250488 87.050591 91.943443 97.804314 113.45089">Percentiles (%)</tspan></text></g><path
         id="path2238"
         style="fill:none;stroke:#edb120;stroke-width:30;stroke-linecap:butt;stroke-linejoin:round;stroke-miterlimit:10;stroke-dasharray:none;stroke-opacity:1"
         d="m 528.398,482.176 0.329,24.676 0.527,24.671 1.633,24.676 5.265,24.676 5.43,24.676 1.598,24.676 5.527,24.671 5.82,24.676 1.442,24.676 1.242,24.676 2.027,24.676 1.11,24.671 2.812,24.676 3.203,24.676 3.403,24.676 3.828,24.676 5.031,24.671 3.238,24.676 2.094,24.676 13.215,24.676 6.242,24.674 4.902,24.67 12.332,24.68 6.774,24.68 1.039,24.67 0.195,24.68 0.594,24.67 1.441,24.67 2.645,24.68 3.301,24.68 2.976,24.67 2.68,24.67 1.078,24.68 6.18,24.68 2.16,24.67 4.215,24.68 1.215,24.67 0.363,24.67 8.691,24.68 2.258,24.68 0.688,24.67 4.058,24.67 0.293,24.68 1.274,24.68 0.324,24.67 0.496,24.68 4.019,24.67 6.872,24.67 1.566,24.68 6.082,24.68 3.074,24.67 1.305,24.67 0.195,24.68 4.848,24.68 9.84,24.67 0.816,24.68 0.426,24.67 0.879,24.67 2.945,24.68 10.891,24.68 7.875,24.67 0.82,24.67 2.09,24.68 9.293,24.68 4.019,24.67 7.653,24.68 6.082,24.67 11.219,24.67 29.492,24.68 7.258,24.68 5.664,24.67 8.632,24.67 2.188,24.68 0.879,24.68 5.527,24.67 21.254,24.68 18.637,24.67 8.703,24.67 7.297,24.68 20.273,24.68 11.571,24.67 8.601,24.67 7.719,24.68 21.547,24.68 46.563,24.67 22.47,24.68 11.51,24.67 9.05,24.67 48.01,24.68 80.96,24.68 40.91,24.67 2.25,24.67 37.75,24.68 46.85,24.68 31.27,24.67 62.09,24.68 114.45,24.67 867.3,24.67" /><path
         id="path2240"
         style="fill:none;stroke:#00ff00;stroke-width:30;stroke-linecap:butt;stroke-linejoin:round;stroke-miterlimit:10;stroke-dasharray:none;stroke-opacity:1"
         d="m 535.598,482.176 2.91,24.676 1.305,24.671 2.812,24.676 3.301,24.676 8.273,24.676 8.504,24.676 4.777,24.671 13.469,24.676 10.922,24.676 7.59,24.676 9.117,24.676 4.32,24.671 1.735,24.676 3.89,24.676 24.364,24.676 13.437,24.676 7.848,24.671 3.367,24.676 0.231,24.676 7.289,24.676 7.847,24.674 10.403,24.67 7.191,24.68 4.582,24.68 3.789,24.67 5.301,24.68 1.5,24.67 5.594,24.67 7.554,24.68 2.715,24.68 2.024,24.67 1.441,24.67 7.359,24.68 3.172,24.68 0.914,24.67 2.16,24.68 4.868,24.67 1.605,24.67 0.125,24.68 1.996,24.68 16.156,24.67 1.442,24.67 3.859,24.68 6.078,24.68 0.817,24.67 11.91,24.68 2.09,24.67 0.031,24.67 7.523,24.68 v 24.68 l 0.653,24.67 5.625,24.67 2.941,24.68 3.86,24.68 0.652,24.67 0.984,24.68 2.844,24.67 10.039,24.67 11.281,24.68 9.286,24.68 5.886,24.67 25.93,24.67 8.961,24.68 6.152,24.68 8.953,24.67 7.192,24.68 18.285,24.67 8.012,24.67 1.925,24.68 6.872,24.68 12.585,24.67 15.532,24.67 19.105,24.68 1.23,24.68 4.36,24.67 12.45,24.68 11.97,24.67 11.32,24.67 1.79,24.68 3.17,24.68 14.56,24.67 32.01,24.67 42.25,24.68 25.18,24.68 31.59,24.67 67.52,24.68 26.88,24.67 22.4,24.67 39.67,24.68 7,24.68 5.75,24.67 109.67,24.67 157.16,24.68 28.26,24.68 29.43,24.67 105.06,24.68 210.07,24.67 1197.3,24.67" /><path
         id="path2242"
         style="fill:none;stroke:#7e2f8e;stroke-width:30;stroke-linecap:butt;stroke-linejoin:round;stroke-miterlimit:10;stroke-dasharray:none;stroke-opacity:1"
         d="m 540.504,482.176 4.805,24.676 3.269,24.671 1.406,24.676 5.196,24.676 9.226,24.676 9.188,24.676 14.355,24.671 22.789,24.676 11.446,24.676 5.558,24.676 3.992,24.676 8.766,24.671 33.414,24.676 20.438,24.676 11.187,24.676 13.18,24.676 9.383,24.671 7.421,24.676 6.766,24.676 5.82,24.676 3.106,24.674 1.508,24.67 2.16,24.68 5.851,24.68 6.278,24.67 6.84,24.68 7.093,24.67 3.27,24.67 2.191,24.68 0.485,24.68 v 24.67 l 5.82,24.67 2.453,24.68 2.785,24.68 2.781,24.67 3.165,24.68 7.753,24.67 1.305,24.67 6.512,24.68 2.676,24.68 6.968,24.67 12.164,24.67 6.512,24.68 0.457,24.68 6.473,24.67 4.351,24.68 0.387,24.67 1.246,24.67 13.442,24.68 0.031,24.68 2.906,24.67 4.254,24.67 2.715,24.68 9.414,24.68 1.508,24.67 10.793,24.68 4.933,24.67 0.621,24.67 2.786,24.68 8.367,24.68 35.543,24.67 13.343,24.67 16.254,24.68 9.711,24.68 0.946,24.67 6.244,24.68 17.79,24.67 3.86,24.67 18.67,24.68 24.53,24.68 11.51,24.67 17.89,24.67 5.68,24.68 16.26,24.68 3.89,24.67 2.32,24.68 2.52,24.67 6.57,24.67 6.05,24.68 17.52,24.68 35.49,24.67 18.21,24.67 22.76,24.68 30.15,24.68 48.04,24.67 29.23,24.68 54.61,24.67 33.06,24.67 24.49,24.68 12.3,24.68 43.81,24.67 185.21,24.67 177.64,24.68 3.1,24.68 56.57,24.67 85.12,24.68 222.03,24.67 1358.03,24.67" /><path
         id="path2244"
         style="fill:none;stroke:#00ffff;stroke-width:30;stroke-linecap:butt;stroke-linejoin:round;stroke-miterlimit:10;stroke-dasharray:none;stroke-opacity:1"
         d="m 546.586,482.176 2.512,24.676 8.34,24.671 5.886,24.676 5.59,24.676 9.457,24.676 7.289,24.676 21.121,24.671 20.699,24.676 6.122,24.676 6.859,24.676 7.426,24.676 19.097,24.671 48.524,24.676 26.226,24.676 11.512,24.676 8.141,24.676 7.558,24.671 3.399,24.676 16.875,24.676 7.386,24.676 2.161,24.674 3.269,24.67 4.711,24.68 1.5,24.68 5.168,24.67 2.742,24.68 1.442,24.67 4.64,24.67 2.657,24.68 0.878,24.68 0.098,24.67 6.246,24.67 2.063,24.68 8.437,24.68 7.621,24.67 1.305,24.68 5.07,24.67 3.727,24.67 5.82,24.68 1.207,24.68 2.879,24.67 8.305,24.67 2.617,24.68 10.402,24.68 12.684,24.67 13.273,24.68 1.606,24.67 0.816,24.67 v 24.68 l 4.02,24.68 6.347,24.67 22.528,24.67 4.156,24.68 0.391,24.68 0.757,24.67 0.614,24.68 3.074,24.67 12.496,24.67 21.059,24.68 13.899,24.68 0.36,24.67 4.02,24.67 22.27,24.68 8.5,24.68 7.52,24.67 12.2,24.68 19.03,24.67 2.71,24.67 7.1,24.68 13.99,24.68 31.76,24.67 8.82,24.67 16.36,24.68 9.48,24.68 17.3,24.67 8.53,24.68 15.96,24.67 15.33,24.67 34.74,24.68 23.4,24.68 24.99,24.67 24.52,24.67 41.89,24.68 7.68,24.68 18.06,24.67 47.74,24.68 30.74,24.67 5.89,24.67 26.35,24.68 54.7,24.68 98.34,24.67 215.62,24.67 166.05,24.68 7.85,24.68 22.5,24.67 45.52,24.68 274.64,24.67 1393.64,24.21" /><path
         id="path2246"
         style="fill:none;stroke:#0072bd;stroke-width:30;stroke-linecap:butt;stroke-linejoin:round;stroke-miterlimit:10;stroke-dasharray:none;stroke-opacity:1"
         d="m 559.363,482.176 11.059,24.676 8.992,24.671 4.738,24.676 11.086,24.676 8.535,24.676 2.161,24.676 26.55,24.671 24.786,24.676 10.335,24.676 4.973,24.676 16.41,24.676 13.313,24.671 43.328,24.676 54.965,24.676 23.222,24.676 14.579,24.676 11.347,24.671 6.871,24.676 5.528,24.676 5.781,24.676 2.687,24.674 2.254,24.67 0.723,24.68 0.719,24.68 4.508,24.67 1.41,24.68 6.082,24.67 7.027,24.67 3.434,24.68 0.82,24.68 1.141,24.67 2.226,24.67 15.141,24.68 3.105,24.68 1.703,24.67 6.407,24.68 4.875,24.67 3.203,24.67 12.191,24.68 17.004,24.68 1.574,24.67 3.535,24.67 6.571,24.68 5.847,24.68 3.571,24.67 3.726,24.68 6.707,24.67 8.297,24.67 0.63,24.68 12.91,24.68 14.82,24.67 0.95,24.67 1.04,24.68 0.72,24.68 4.91,24.67 13.92,24.68 41.54,24.67 7.91,24.67 1.21,24.68 0.69,24.68 2.25,24.67 12.69,24.67 7.03,24.68 24.72,24.68 6.21,24.67 20.64,24.68 10.26,24.67 31.36,24.67 5.11,24.68 11.67,24.68 34.92,24.67 21.75,24.67 2.55,24.68 2.61,24.68 6.48,24.67 12.88,24.68 23.38,24.67 28.78,24.67 18.7,24.68 10.31,24.68 27.07,24.67 46.99,24.67 42.34,24.68 64.56,24.68 15.76,24.67 21.51,24.68 37.41,24.67 8.76,24.67 59.82,24.68 84.59,24.68 104.34,24.67 228.06,24.67 143.38,24.68 15.34,24.68 34.7,24.67 55.95,24.68 280.2,24.67 1124.65,17.28" /><path
         id="path2248"
         style="fill:none;stroke:#ff00ff;stroke-width:30;stroke-linecap:butt;stroke-linejoin:round;stroke-miterlimit:10;stroke-dasharray:none;stroke-opacity:1"
         d="m 573.816,482.176 14.918,24.676 7.125,24.671 18.153,24.676 11.734,24.676 9.031,24.676 11.086,24.676 27.172,24.671 22.102,24.676 11.445,24.676 24.066,24.676 13.149,24.676 19.094,24.671 36.265,24.676 48.008,24.676 36,24.676 26.227,24.676 10.004,24.671 5.363,24.676 8.273,24.676 2.684,24.676 0.879,24.674 3.14,24.67 6.344,24.68 7.098,24.68 4.769,24.67 9.09,24.68 6.871,24.67 2.16,24.67 1.797,24.68 14.125,24.68 3.598,24.67 0.098,24.67 1.402,24.68 6.274,24.68 23.91,24.67 10.18,24.68 27.75,24.67 6.61,24.67 3.4,24.68 0.98,24.68 0.07,24.67 5.88,24.67 5.11,24.68 4.93,24.68 16.12,24.67 5.69,24.68 3.44,24.67 5.39,24.67 3.27,24.68 0.69,24.68 3.96,24.67 13.6,24.67 4.22,24.68 8.76,24.68 13.11,24.67 29.4,24.68 2.22,24.67 18.25,24.67 3.43,24.68 10.53,24.68 25.9,24.67 23.25,24.67 19.88,24.68 23.48,24.68 32.21,24.67 4.41,24.68 17.99,24.67 14.71,24.67 2.29,24.68 10.27,24.68 11.84,24.67 20.86,24.67 10.36,24.68 22.21,24.68 43.56,24.67 4.29,24.68 17.09,24.67 30.21,24.67 36.86,24.68 40.22,24.68 31.36,24.67 8.7,24.67 10.04,24.68 13.89,24.68 26.23,24.67 73.64,24.68 84.5,24.67 59.77,24.67 81.07,24.68 133.94,24.68 94.6,24.67 100.32,24.67 133.65,24.68 193.09,24.68 41.1,24.67 14,24.68 331.97,24.67 717.37,9.69" /><path
         id="path2250"
         style="fill:none;stroke:#d95319;stroke-width:30;stroke-linecap:butt;stroke-linejoin:round;stroke-miterlimit:10;stroke-dasharray:none;stroke-opacity:1"
         d="m 579.285,482.176 21.449,24.676 8.762,24.671 15.727,24.676 40.453,24.676 42.707,24.676 19.914,24.676 6.867,24.671 4.574,24.676 9.063,24.676 8.008,24.676 20.703,24.676 23.929,24.671 35.844,24.676 81.129,24.676 36.785,24.676 10.305,24.676 4.644,24.671 1.403,24.676 1.566,24.676 5.43,24.676 5.266,24.674 4.351,24.67 1.828,24.68 4.836,24.68 13.192,24.67 19.25,24.68 27.8,24.67 7.19,24.67 5.82,24.68 2.29,24.68 1.18,24.67 0.19,24.67 0.92,24.68 10.89,24.68 21.88,24.67 7.78,24.68 6.57,24.67 2.68,24.67 2.2,24.68 1.04,24.68 19.3,24.67 8.23,24.67 23.06,24.68 1.6,24.68 6.18,24.67 16.42,24.68 3.52,24.67 15.99,24.67 0.96,24.68 0.88,24.68 24.52,24.67 26.03,24.67 4.84,24.68 5.16,24.68 3.61,24.67 20.43,24.68 5.13,24.67 1.54,24.67 1.24,24.68 9.46,24.68 8.04,24.67 38.12,24.67 46.47,24.68 27.57,24.68 13.18,24.67 1.43,24.68 10.63,24.67 29.11,24.67 29.69,24.68 12.17,24.68 19.29,24.67 5.91,24.67 5.47,24.68 19.06,24.68 46.07,24.67 33.88,24.68 9.78,24.67 26.38,24.67 42,24.68 85.34,24.68 17.07,24.67 44.54,24.67 55.1,24.68 20.79,24.68 38.04,24.67 16.18,24.68 14.75,24.67 53.1,24.67 127.3,24.68 92.19,24.68 70.89,24.67 204.11,24.67 172.14,24.68 11.93,24.68 91.53,24.67 179.42,24.68 308.03,24.67 444.89,4.69" /><path
         id="path2252"
         style="fill:none;stroke:#edb120;stroke-width:30;stroke-linecap:butt;stroke-linejoin:bevel;stroke-miterlimit:10;stroke-dasharray:30, 30;stroke-dashoffset:0;stroke-opacity:1"
         d="m 525,482.176 v 74.023 l 0.262,24.676 0.488,24.676 0.359,24.676 0.758,24.671 0.555,24.676 0.359,24.676 0.293,24.676 0.129,24.676 0.524,24.671 0.554,24.676 0.196,24.676 0.097,24.676 0.067,24.676 2.949,24.671 1.371,24.676 0.652,24.676 0.461,24.676 0.68,24.674 0.723,24.67 0.492,24.68 0.75,24.68 0.554,24.67 0.196,24.68 1.082,24.67 0.359,24.67 0.098,24.68 0.039,24.68 3.297,24.67 0.847,24.67 0.137,24.68 v 24.68 l 0.031,24.67 0.262,24.68 0.262,24.67 0.097,24.67 0.165,24.68 0.324,24.68 2.945,24.67 1.305,24.67 0.855,24.68 0.489,24.68 2.781,24.67 1.957,24.68 1.051,24.67 3.007,24.67 0.457,24.68 1.082,24.68 2.258,24.67 0.582,24.67 1.082,24.68 2.063,24.68 0.683,24.67 1.372,24.68 0.523,24.67 2.258,24.67 0.722,24.68 0.418,24.68 2.852,24.67 4.25,24.67 3.465,24.68 2.058,24.68 1.797,24.67 3.34,24.68 1.305,24.67 2.453,24.67 4.055,24.68 7.488,24.68 5.816,24.67 0.625,24.67 3.114,24.68 3.785,24.68 4.386,24.67 10.301,24.68 3.336,24.67 0.156,24.67 1.743,24.68 5.554,24.68 7.321,24.67 7.066,24.67 1.012,24.68 4.711,24.68 7.328,24.67 7.715,24.68 8.437,24.67 1.016,24.67 20.269,24.68 31.688,24.68 6.933,24.67 6.344,24.67 32.469,24.68 40.414,24.68 17.141,24.67 34.402,24.68 88.812,24.67 278.244,24.67" /><path
         id="path2254"
         style="fill:none;stroke:#00ff00;stroke-width:30;stroke-linecap:butt;stroke-linejoin:bevel;stroke-miterlimit:10;stroke-dasharray:30, 30;stroke-dashoffset:0;stroke-opacity:1"
         d="m 526.371,482.176 0.555,24.676 1.871,24.671 2.871,24.676 5.008,24.676 7.156,24.676 3.699,24.676 4.282,24.671 2.91,24.676 1.636,24.676 3.043,24.676 5.684,24.676 9.453,24.671 7.656,24.676 2.153,24.676 1.867,24.676 9.058,24.676 4.45,24.671 1.793,24.676 1.867,24.676 2.519,24.676 2.61,24.674 0.758,24.67 1.304,24.68 6.871,24.68 2.676,24.67 2.192,24.68 3.171,24.67 2.754,24.67 5.032,24.68 1.371,24.68 2.648,24.67 1.277,24.67 1.508,24.68 3.133,24.68 1.051,24.67 4.906,24.68 0.719,24.67 6.969,24.67 3.589,24.68 3.465,24.68 3.571,24.67 2.707,24.67 2.812,24.68 0.594,24.68 2.715,24.67 1.371,24.68 11.711,24.67 1.273,24.67 1.344,24.68 1.137,24.68 10.793,24.67 0.39,24.67 3.895,24.68 2.383,24.68 6.636,24.67 4.391,24.68 4.047,24.67 4.39,24.67 0.973,24.68 1.082,24.68 0.395,24.67 1.179,24.67 8.008,24.68 3.274,24.68 13.109,24.67 2.684,24.68 4.476,24.67 13.606,24.67 7.679,24.68 3.992,24.68 3.563,24.67 5.691,24.67 15.172,24.68 13.41,24.68 10.688,24.67 3.211,24.68 7.648,24.67 5.004,24.67 3.699,24.68 12.164,24.68 23.407,24.67 24.269,24.67 9.813,24.68 14.676,24.68 5.46,24.67 10.665,24.68 18.046,24.67 47.251,24.67 59.42,24.68 12.78,24.68 24.63,24.67 53.79,24.67 27.07,24.68 18.52,24.68 31.77,24.67 24.93,24.68 118.5,24.67 917.34,24.67" /><path
         id="path2256"
         style="fill:none;stroke:#7e2f8e;stroke-width:30;stroke-linecap:butt;stroke-linejoin:bevel;stroke-miterlimit:10;stroke-dasharray:30, 30;stroke-dashoffset:0;stroke-opacity:1"
         d="m 531.113,482.176 2.75,24.676 2.844,24.671 5.297,24.676 7.59,24.676 13.5,24.676 15.957,24.676 7.328,24.671 6.144,24.676 4.387,24.676 6.211,24.676 19.52,24.676 10.629,24.671 11.25,24.676 11.671,24.676 4.125,24.676 5.422,24.676 11.383,24.671 10.953,24.676 8.727,24.676 3.933,24.676 7.813,24.674 4.711,24.67 3.105,24.68 1.078,24.68 0.36,24.67 5.461,24.68 3.039,24.67 2.812,24.67 5.364,24.68 2.519,24.68 9.938,24.67 2.644,24.67 2.719,24.68 4.027,24.68 3.989,24.67 5.199,24.68 1.437,24.67 2.813,24.67 0.324,24.68 2.551,24.68 12.621,24.67 9.976,24.67 11.442,24.68 1.637,24.68 2.16,24.67 4.086,24.68 0.129,24.67 2.421,24.67 4.188,24.68 1.535,24.68 7.816,24.67 1.403,24.67 0.523,24.68 3.008,24.68 4.711,24.67 4.32,24.68 1.567,24.67 9.218,24.67 25.411,24.68 4.679,24.68 2.055,24.67 4.613,24.67 1.633,24.68 8.313,24.68 8.726,24.67 21.024,24.68 19.164,24.67 1.996,24.67 1.761,24.68 7.493,24.68 30.832,24.67 11.482,24.67 1.8,24.68 6.47,24.68 16.31,24.67 15.54,24.68 16.12,24.67 11.52,24.67 4.93,24.68 5.98,24.68 8.28,24.67 5.79,24.67 22.85,24.68 42.87,24.68 12.85,24.67 24.6,24.68 45.06,24.67 85.24,24.67 86.46,24.68 21.68,24.68 26.49,24.67 3.96,24.67 3.69,24.68 18.97,24.68 92.01,24.67 141.11,24.68 102.74,24.67 1248.94,24.67" /><path
         id="path2258"
         style="fill:none;stroke:#00ffff;stroke-width:30;stroke-linecap:butt;stroke-linejoin:bevel;stroke-miterlimit:10;stroke-dasharray:30, 30;stroke-dashoffset:0;stroke-opacity:1"
         d="m 538.148,482.176 4.118,24.676 4.418,24.671 7.289,24.676 8.242,24.676 19.484,24.676 26.422,24.676 17.598,24.671 9.351,24.676 6.082,24.676 7.981,24.676 16.965,24.676 33.359,24.671 16.84,24.676 3.629,24.676 11.871,24.676 16.613,24.676 8.953,24.671 6.25,24.676 3.035,24.676 21.196,24.676 9.644,24.674 5.625,24.67 4.676,24.68 1.145,24.68 0.722,24.67 4.446,24.68 9.187,24.67 3.137,24.67 10.402,24.68 3.336,24.68 0.879,24.67 7.395,24.67 9.156,24.68 1.734,24.68 9.024,24.67 11.316,24.68 4.02,24.67 0.359,24.67 0.527,24.68 1.926,24.68 9.059,24.67 4.117,24.67 0.265,24.68 4.282,24.68 10.793,24.67 3.496,24.68 2.062,24.67 5.625,24.67 4.02,24.68 12.719,24.68 1.468,24.67 1.344,24.67 8.863,24.68 7.293,24.68 9.778,24.67 23.117,24.68 1.703,24.67 4.706,24.67 8.37,24.68 25.35,24.68 3.1,24.67 12.86,24.67 4.31,24.68 13.27,24.68 8.73,24.67 3.27,24.68 10.57,24.67 17.66,24.67 28.71,24.68 9.22,24.68 1.3,24.67 3.8,24.67 16.97,24.68 27.86,24.68 2.64,24.67 5.34,24.68 2.32,24.67 3.99,24.67 11.12,24.68 18.28,24.68 12.3,24.67 29.33,24.67 45.61,24.68 35.51,24.68 37.77,24.67 15.01,24.68 60.89,24.67 105.49,24.67 36.68,24.68 25.05,24.68 54.32,24.67 63.21,24.67 60.13,24.68 27.08,24.68 94.11,24.67 141.3,24.68 102.91,24.67 1541.44,24.67" /><path
         id="path2260"
         style="fill:none;stroke:#0072bd;stroke-width:30;stroke-linecap:butt;stroke-linejoin:bevel;stroke-miterlimit:10;stroke-dasharray:30, 30;stroke-dashoffset:0;stroke-opacity:1"
         d="m 560.738,482.176 2.617,24.676 8.34,24.671 12.75,24.676 10.989,24.676 32.046,24.676 38.586,24.676 40.75,24.671 26.938,24.676 7.687,24.676 5.985,24.676 4.449,24.676 39.105,24.671 51.114,24.676 28.707,24.676 21.422,24.676 9.613,24.676 7.391,24.671 9.019,24.676 7.981,24.676 20.437,24.676 7.621,24.674 22.266,24.67 20.73,24.68 4.419,24.68 0.95,24.67 4.84,24.68 4.87,24.67 1.24,24.67 0.85,24.68 12.26,24.68 9.49,24.67 5.03,24.67 1.9,24.68 21.35,24.68 4.16,24.67 0.36,24.68 17.55,24.67 6.97,24.67 3.44,24.68 4.38,24.68 1.57,24.67 8.04,24.67 3.44,24.68 1.47,24.68 4.41,24.67 0.2,24.68 7.1,24.67 8.99,24.67 15.43,24.68 8.57,24.68 2.09,24.67 7.78,24.67 16.98,24.68 47.31,24.68 40.78,24.67 4.15,24.68 11.18,24.67 8.67,24.67 27.57,24.68 3.43,24.68 14.09,24.67 4.22,24.67 3.69,24.68 9.43,24.68 1.01,24.67 3.6,24.68 1.96,24.67 10.95,24.67 14.78,24.68 4.02,24.68 25.31,24.67 67.53,24.67 5.56,24.68 13.21,24.68 14.61,24.67 16.19,24.68 11.81,24.67 15.85,24.67 31.86,24.68 23.15,24.68 13.04,24.67 44.97,24.67 48.62,24.68 28.58,24.68 42.55,24.67 62.59,24.68 46.55,24.67 83.69,24.67 28.19,24.68 43.62,24.68 49.77,24.67 134.79,24.67 183.54,24.68 18.87,24.68 66.38,24.67 149.44,24.68 243.15,24.67 883.72,10.88" /><path
         id="path2262"
         style="fill:none;stroke:#ff00ff;stroke-width:30;stroke-linecap:butt;stroke-linejoin:bevel;stroke-miterlimit:10;stroke-dasharray:30, 30;stroke-dashoffset:0;stroke-opacity:1"
         d="m 605.086,482.176 9.023,24.676 10.957,24.671 15.922,24.676 20.864,24.676 41.363,24.676 45.75,24.676 72.426,24.671 44.476,24.676 5.781,24.676 30.415,24.676 27.699,24.676 23.054,24.671 67.954,24.676 37.41,24.676 9.31,24.676 36.76,24.676 32.5,24.671 18.93,24.676 5.4,24.676 0.13,24.676 14.49,24.674 16.51,24.67 9.55,24.68 12.92,24.68 35.8,24.67 26.26,24.68 21.22,24.67 13.57,24.67 5.63,24.68 4.45,24.68 10.59,24.67 2.29,24.67 5.26,24.68 21.68,24.68 8.67,24.67 12.29,24.68 2.43,24.67 10.52,24.67 10.14,24.68 4.84,24.68 13.41,24.67 16.84,24.67 5.95,24.68 18.8,24.68 0.98,24.67 24.17,24.68 12.75,24.67 12.98,24.67 15.07,24.68 6.84,24.68 21.52,24.67 9.03,24.67 4.28,24.68 25.51,24.68 16.71,24.67 1.56,24.68 11.97,24.67 36.43,24.67 8.9,24.68 29.65,24.68 55.06,24.67 41.54,24.67 0.88,24.68 4.81,24.68 7.06,24.67 11.61,24.68 15.53,24.67 6.35,24.67 23.8,24.68 14.03,24.68 17.86,24.67 30.14,24.67 35.02,24.68 28.09,24.68 46.7,24.67 6.7,24.68 24.85,24.67 42.68,24.67 17.36,24.68 24,24.68 13.58,24.67 58.69,24.67 106.67,24.68 42.21,24.68 41.47,24.67 26.22,24.68 41.01,24.67 67.69,24.67 99.11,24.68 20.83,24.68 80.51,24.67 290.67,24.67 297.11,24.68 38.88,24.68 15.54,24.67 174.94,24.68 222.52,10.68" /><path
         id="path2264"
         style="fill:none;stroke:#d95319;stroke-width:30;stroke-linecap:butt;stroke-linejoin:bevel;stroke-miterlimit:10;stroke-dasharray:30, 30;stroke-dashoffset:0;stroke-opacity:1"
         d="m 647.234,482.176 13.043,24.676 27.93,24.671 23.086,24.676 5.559,24.676 32.668,24.676 53.664,24.676 108.367,24.671 67.191,24.676 3.504,24.676 35.934,24.676 40.84,24.676 37.34,24.671 50.2,24.676 42.54,24.676 43.04,24.676 31.52,24.676 11.57,24.671 1.8,24.676 34.57,24.676 21.81,24.676 10.73,24.674 10.36,24.67 2.81,24.68 3.21,24.68 48.72,24.67 35.94,24.68 6.24,24.67 33.45,24.67 30.71,24.68 34.33,24.68 22.93,24.67 7.39,24.67 23.12,24.68 16.25,24.68 7.26,24.67 5.37,24.68 13.82,24.67 2.52,24.67 39.63,24.68 5.59,24.68 7.2,24.67 4.91,24.67 0.32,24.68 32.53,24.68 4.26,24.67 4.94,24.68 2.68,24.67 21.75,24.67 7.15,24.68 11.75,24.68 9.67,24.67 7.62,24.67 9.75,24.68 11.51,24.68 21.97,24.67 11.35,24.68 65.79,24.67 56.11,24.67 17.86,24.68 3.4,24.68 23.74,24.67 67.13,24.67 34.3,24.68 18.68,24.68 22.23,24.67 54.68,24.68 6.27,24.67 18.29,24.67 18.01,24.68 19.59,24.68 18.02,24.67 10.14,24.67 32.86,24.68 93.03,24.68 17.27,24.67 20.27,24.68 6.64,24.67 28.42,24.67 41.85,24.68 14.03,24.68 2.32,24.67 41.2,24.67 107.95,24.68 73.99,24.68 64.55,24.67 33.88,24.68 4.55,24.67 15.1,24.67 89.51,24.68 114.24,24.68 134.21,24.67 396.16,24.67 145.97,11.4" /></g></g></svg>
