<?xml version="1.0" encoding="UTF-8" standalone="no"?>
<svg
   xmlns:dc="http://purl.org/dc/elements/1.1/"
   xmlns:cc="http://creativecommons.org/ns#"
   xmlns:rdf="http://www.w3.org/1999/02/22-rdf-syntax-ns#"
   xmlns:svg="http://www.w3.org/2000/svg"
   xmlns="http://www.w3.org/2000/svg"
   xmlns:sodipodi="http://sodipodi.sourceforge.net/DTD/sodipodi-0.dtd"
   xmlns:inkscape="http://www.inkscape.org/namespaces/inkscape"
   inkscape:version="1.0 (4035a4fb49, 2020-05-01)"
   sodipodi:docname="RainFR_RainExtr_EFFCI10_Costa_ZoomIn.svg"
   viewBox="0 0 524 398.66666"
   height="398.66666"
   width="524"
   xml:space="preserve"
   id="svg2554"
   version="1.1"><metadata
     id="metadata2560"><rdf:RDF><cc:Work
         rdf:about=""><dc:format>image/svg+xml</dc:format><dc:type
           rdf:resource="http://purl.org/dc/dcmitype/StillImage" /><dc:title></dc:title></cc:Work></rdf:RDF></metadata><defs
     id="defs2558" /><sodipodi:namedview
     inkscape:current-layer="g2562"
     inkscape:window-maximized="0"
     inkscape:window-y="0"
     inkscape:window-x="0"
     inkscape:cy="199.33333"
     inkscape:cx="262"
     inkscape:zoom="1.8436455"
     showgrid="false"
     id="namedview2556"
     inkscape:window-height="510"
     inkscape:window-width="743"
     inkscape:pageshadow="2"
     inkscape:pageopacity="0"
     guidetolerance="10"
     gridtolerance="10"
     objecttolerance="10"
     borderopacity="1"
     bordercolor="#666666"
     pagecolor="#ffffff" /><g
     transform="matrix(1.3333333,0,0,-1.3333333,0,398.66667)"
     inkscape:label="ink_ext_XXXXXX"
     inkscape:groupmode="layer"
     id="g2562"><g
       transform="scale(0.1)"
       id="g2564"><path
         id="path2566"
         style="fill:#ffffff;fill-opacity:1;fill-rule:nonzero;stroke:none"
         d="M -30,0 H 4200 V 3165 H -30 Z" /><path
         id="path2568"
         style="fill:#ffffff;fill-opacity:1;fill-rule:nonzero;stroke:none"
         d="M -30,0 H 4200 V 3165 H -30 Z" /><path
         id="path2570"
         style="fill:#ffffff;fill-opacity:1;fill-rule:nonzero;stroke:none"
         d="M 525,457.5 H 3795 V 2925 H 525 Z" /><path
         id="path2572"
         style="fill:none;stroke:#929292;stroke-width:5.0025;stroke-linecap:butt;stroke-linejoin:round;stroke-miterlimit:10;stroke-dasharray:none;stroke-opacity:1"
         d="M 525,457.5 V 2925" /><path
         id="path2574"
         style="fill:none;stroke:#929292;stroke-width:5.0025;stroke-linecap:butt;stroke-linejoin:round;stroke-miterlimit:10;stroke-dasharray:none;stroke-opacity:1"
         d="M 1179,457.5 V 2925" /><path
         id="path2576"
         style="fill:none;stroke:#929292;stroke-width:5.0025;stroke-linecap:butt;stroke-linejoin:round;stroke-miterlimit:10;stroke-dasharray:none;stroke-opacity:1"
         d="M 1833,457.5 V 2925" /><path
         id="path2578"
         style="fill:none;stroke:#929292;stroke-width:5.0025;stroke-linecap:butt;stroke-linejoin:round;stroke-miterlimit:10;stroke-dasharray:none;stroke-opacity:1"
         d="M 2487,457.5 V 2925" /><path
         id="path2580"
         style="fill:none;stroke:#929292;stroke-width:5.0025;stroke-linecap:butt;stroke-linejoin:round;stroke-miterlimit:10;stroke-dasharray:none;stroke-opacity:1"
         d="M 3141,457.5 V 2925" /><path
         id="path2582"
         style="fill:none;stroke:#929292;stroke-width:5.0025;stroke-linecap:butt;stroke-linejoin:round;stroke-miterlimit:10;stroke-dasharray:none;stroke-opacity:1"
         d="M 3795,457.5 V 2925" /><path
         id="path2584"
         style="fill:none;stroke:#929292;stroke-width:5.0025;stroke-linecap:butt;stroke-linejoin:round;stroke-miterlimit:10;stroke-dasharray:none;stroke-opacity:1"
         d="M 3795,457.5 H 525" /><path
         id="path2586"
         style="fill:none;stroke:#929292;stroke-width:5.0025;stroke-linecap:butt;stroke-linejoin:round;stroke-miterlimit:10;stroke-dasharray:none;stroke-opacity:1"
         d="M 3795,580.875 H 525" /><path
         id="path2588"
         style="fill:none;stroke:#929292;stroke-width:5.0025;stroke-linecap:butt;stroke-linejoin:round;stroke-miterlimit:10;stroke-dasharray:none;stroke-opacity:1"
         d="M 3795,704.25 H 525" /><path
         id="path2590"
         style="fill:none;stroke:#929292;stroke-width:5.0025;stroke-linecap:butt;stroke-linejoin:round;stroke-miterlimit:10;stroke-dasharray:none;stroke-opacity:1"
         d="M 3795,827.625 H 525" /><path
         id="path2592"
         style="fill:none;stroke:#929292;stroke-width:5.0025;stroke-linecap:butt;stroke-linejoin:round;stroke-miterlimit:10;stroke-dasharray:none;stroke-opacity:1"
         d="M 3795,951 H 525" /><path
         id="path2594"
         style="fill:none;stroke:#929292;stroke-width:5.0025;stroke-linecap:butt;stroke-linejoin:round;stroke-miterlimit:10;stroke-dasharray:none;stroke-opacity:1"
         d="M 3795,1074.38 H 525" /><path
         id="path2596"
         style="fill:none;stroke:#929292;stroke-width:5.0025;stroke-linecap:butt;stroke-linejoin:round;stroke-miterlimit:10;stroke-dasharray:none;stroke-opacity:1"
         d="M 3795,1197.75 H 525" /><path
         id="path2598"
         style="fill:none;stroke:#929292;stroke-width:5.0025;stroke-linecap:butt;stroke-linejoin:round;stroke-miterlimit:10;stroke-dasharray:none;stroke-opacity:1"
         d="M 3795,1321.13 H 525" /><path
         id="path2600"
         style="fill:none;stroke:#929292;stroke-width:5.0025;stroke-linecap:butt;stroke-linejoin:round;stroke-miterlimit:10;stroke-dasharray:none;stroke-opacity:1"
         d="M 3795,1444.5 H 525" /><path
         id="path2602"
         style="fill:none;stroke:#929292;stroke-width:5.0025;stroke-linecap:butt;stroke-linejoin:round;stroke-miterlimit:10;stroke-dasharray:none;stroke-opacity:1"
         d="M 3795,1567.88 H 525" /><path
         id="path2604"
         style="fill:none;stroke:#929292;stroke-width:5.0025;stroke-linecap:butt;stroke-linejoin:round;stroke-miterlimit:10;stroke-dasharray:none;stroke-opacity:1"
         d="M 3795,1691.25 H 525" /><path
         id="path2606"
         style="fill:none;stroke:#929292;stroke-width:5.0025;stroke-linecap:butt;stroke-linejoin:round;stroke-miterlimit:10;stroke-dasharray:none;stroke-opacity:1"
         d="M 3795,1814.63 H 525" /><path
         id="path2608"
         style="fill:none;stroke:#929292;stroke-width:5.0025;stroke-linecap:butt;stroke-linejoin:round;stroke-miterlimit:10;stroke-dasharray:none;stroke-opacity:1"
         d="M 3795,1938 H 525" /><path
         id="path2610"
         style="fill:none;stroke:#929292;stroke-width:5.0025;stroke-linecap:butt;stroke-linejoin:round;stroke-miterlimit:10;stroke-dasharray:none;stroke-opacity:1"
         d="M 3795,2061.38 H 525" /><path
         id="path2612"
         style="fill:none;stroke:#929292;stroke-width:5.0025;stroke-linecap:butt;stroke-linejoin:round;stroke-miterlimit:10;stroke-dasharray:none;stroke-opacity:1"
         d="M 3795,2184.75 H 525" /><path
         id="path2614"
         style="fill:none;stroke:#929292;stroke-width:5.0025;stroke-linecap:butt;stroke-linejoin:round;stroke-miterlimit:10;stroke-dasharray:none;stroke-opacity:1"
         d="M 3795,2308.13 H 525" /><path
         id="path2616"
         style="fill:none;stroke:#929292;stroke-width:5.0025;stroke-linecap:butt;stroke-linejoin:round;stroke-miterlimit:10;stroke-dasharray:none;stroke-opacity:1"
         d="M 3795,2431.5 H 525" /><path
         id="path2618"
         style="fill:none;stroke:#929292;stroke-width:5.0025;stroke-linecap:butt;stroke-linejoin:round;stroke-miterlimit:10;stroke-dasharray:none;stroke-opacity:1"
         d="M 3795,2554.88 H 525" /><path
         id="path2620"
         style="fill:none;stroke:#929292;stroke-width:5.0025;stroke-linecap:butt;stroke-linejoin:round;stroke-miterlimit:10;stroke-dasharray:none;stroke-opacity:1"
         d="M 3795,2678.25 H 525" /><path
         id="path2622"
         style="fill:none;stroke:#929292;stroke-width:5.0025;stroke-linecap:butt;stroke-linejoin:round;stroke-miterlimit:10;stroke-dasharray:none;stroke-opacity:1"
         d="M 3795,2801.63 H 525" /><path
         id="path2624"
         style="fill:none;stroke:#929292;stroke-width:5.0025;stroke-linecap:butt;stroke-linejoin:round;stroke-miterlimit:10;stroke-dasharray:none;stroke-opacity:1"
         d="M 3795,2925 H 525" /><path
         id="path2626"
         style="fill:none;stroke:#262626;stroke-width:5.0025;stroke-linecap:square;stroke-linejoin:round;stroke-miterlimit:10;stroke-dasharray:none;stroke-opacity:1"
         d="M 525,457.5 H 3795" /><path
         id="path2628"
         style="fill:none;stroke:#262626;stroke-width:5.0025;stroke-linecap:square;stroke-linejoin:round;stroke-miterlimit:10;stroke-dasharray:none;stroke-opacity:1"
         d="M 525,2925 H 3795" /><path
         id="path2630"
         style="fill:none;stroke:#262626;stroke-width:5.0025;stroke-linecap:square;stroke-linejoin:round;stroke-miterlimit:10;stroke-dasharray:none;stroke-opacity:1"
         d="m 525,457.5 v 32.699" /><path
         id="path2632"
         style="fill:none;stroke:#262626;stroke-width:5.0025;stroke-linecap:square;stroke-linejoin:round;stroke-miterlimit:10;stroke-dasharray:none;stroke-opacity:1"
         d="m 1179,457.5 v 32.699" /><path
         id="path2634"
         style="fill:none;stroke:#262626;stroke-width:5.0025;stroke-linecap:square;stroke-linejoin:round;stroke-miterlimit:10;stroke-dasharray:none;stroke-opacity:1"
         d="m 1833,457.5 v 32.699" /><path
         id="path2636"
         style="fill:none;stroke:#262626;stroke-width:5.0025;stroke-linecap:square;stroke-linejoin:round;stroke-miterlimit:10;stroke-dasharray:none;stroke-opacity:1"
         d="m 2487,457.5 v 32.699" /><path
         id="path2638"
         style="fill:none;stroke:#262626;stroke-width:5.0025;stroke-linecap:square;stroke-linejoin:round;stroke-miterlimit:10;stroke-dasharray:none;stroke-opacity:1"
         d="m 3141,457.5 v 32.699" /><path
         id="path2640"
         style="fill:none;stroke:#262626;stroke-width:5.0025;stroke-linecap:square;stroke-linejoin:round;stroke-miterlimit:10;stroke-dasharray:none;stroke-opacity:1"
         d="m 3795,457.5 v 32.699" /><path
         id="path2642"
         style="fill:none;stroke:#262626;stroke-width:5.0025;stroke-linecap:square;stroke-linejoin:round;stroke-miterlimit:10;stroke-dasharray:none;stroke-opacity:1"
         d="m 525,2925 v -32.7" /><path
         id="path2644"
         style="fill:none;stroke:#262626;stroke-width:5.0025;stroke-linecap:square;stroke-linejoin:round;stroke-miterlimit:10;stroke-dasharray:none;stroke-opacity:1"
         d="m 1179,2925 v -32.7" /><path
         id="path2646"
         style="fill:none;stroke:#262626;stroke-width:5.0025;stroke-linecap:square;stroke-linejoin:round;stroke-miterlimit:10;stroke-dasharray:none;stroke-opacity:1"
         d="m 1833,2925 v -32.7" /><path
         id="path2648"
         style="fill:none;stroke:#262626;stroke-width:5.0025;stroke-linecap:square;stroke-linejoin:round;stroke-miterlimit:10;stroke-dasharray:none;stroke-opacity:1"
         d="m 2487,2925 v -32.7" /><path
         id="path2650"
         style="fill:none;stroke:#262626;stroke-width:5.0025;stroke-linecap:square;stroke-linejoin:round;stroke-miterlimit:10;stroke-dasharray:none;stroke-opacity:1"
         d="m 3141,2925 v -32.7" /><path
         id="path2652"
         style="fill:none;stroke:#262626;stroke-width:5.0025;stroke-linecap:square;stroke-linejoin:round;stroke-miterlimit:10;stroke-dasharray:none;stroke-opacity:1"
         d="m 3795,2925 v -32.7" /><g
         transform="scale(10)"
         id="g2654"><text
           id="text2658"
           style="font-variant:normal;font-weight:normal;font-size:15.9998px;font-family:Helvetica;-inkscape-font-specification:Helvetica;writing-mode:lr-tb;fill:#262626;fill-opacity:1;fill-rule:nonzero;stroke:none"
           transform="matrix(1,0,0,-1,48,25.55)"><tspan
             id="tspan2656"
             sodipodi:role="line"
             y="0"
             x="0 60.9002 69.796089 126.30034 135.19623 191.70049 200.59637 257.10062 265.99652 318.00082 326.89673 335.7926">020406080100</tspan></text><text
           id="text2662"
           style="font-variant:normal;font-weight:normal;font-size:17.6002px;font-family:Helvetica;-inkscape-font-specification:Helvetica;writing-mode:lr-tb;fill:#262626;fill-opacity:1;fill-rule:nonzero;stroke:none"
           transform="matrix(1,0,0,-1,119.625,3.55)"><tspan
             id="tspan2660"
             sodipodi:role="line"
             y="0"
             x="0 12.707344 22.493055 26.400299 36.186012 41.078865 50.864578 54.771824 58.679066 63.571922 72.372025 82.15773 86.06498 95.850693 105.6364 114.4365 119.32935 124.22221 138.88318 153.54414 158.437 168.22272 178.00842 187.79413">Rainfall values [mm/12h]</tspan></text></g><path
         id="path2664"
         style="fill:none;stroke:#262626;stroke-width:5.0025;stroke-linecap:square;stroke-linejoin:round;stroke-miterlimit:10;stroke-dasharray:none;stroke-opacity:1"
         d="M 525,457.5 V 2925" /><path
         id="path2666"
         style="fill:none;stroke:#262626;stroke-width:5.0025;stroke-linecap:square;stroke-linejoin:round;stroke-miterlimit:10;stroke-dasharray:none;stroke-opacity:1"
         d="M 3795,457.5 V 2925" /><path
         id="path2668"
         style="fill:none;stroke:#262626;stroke-width:5.0025;stroke-linecap:square;stroke-linejoin:round;stroke-miterlimit:10;stroke-dasharray:none;stroke-opacity:1"
         d="m 525,457.5 h 32.699" /><path
         id="path2670"
         style="fill:none;stroke:#262626;stroke-width:5.0025;stroke-linecap:square;stroke-linejoin:round;stroke-miterlimit:10;stroke-dasharray:none;stroke-opacity:1"
         d="m 525,580.875 h 32.699" /><path
         id="path2672"
         style="fill:none;stroke:#262626;stroke-width:5.0025;stroke-linecap:square;stroke-linejoin:round;stroke-miterlimit:10;stroke-dasharray:none;stroke-opacity:1"
         d="m 525,704.25 h 32.699" /><path
         id="path2674"
         style="fill:none;stroke:#262626;stroke-width:5.0025;stroke-linecap:square;stroke-linejoin:round;stroke-miterlimit:10;stroke-dasharray:none;stroke-opacity:1"
         d="m 525,827.625 h 32.699" /><path
         id="path2676"
         style="fill:none;stroke:#262626;stroke-width:5.0025;stroke-linecap:square;stroke-linejoin:round;stroke-miterlimit:10;stroke-dasharray:none;stroke-opacity:1"
         d="m 525,951 h 32.699" /><path
         id="path2678"
         style="fill:none;stroke:#262626;stroke-width:5.0025;stroke-linecap:square;stroke-linejoin:round;stroke-miterlimit:10;stroke-dasharray:none;stroke-opacity:1"
         d="m 525,1074.38 h 32.699" /><path
         id="path2680"
         style="fill:none;stroke:#262626;stroke-width:5.0025;stroke-linecap:square;stroke-linejoin:round;stroke-miterlimit:10;stroke-dasharray:none;stroke-opacity:1"
         d="m 525,1197.75 h 32.699" /><path
         id="path2682"
         style="fill:none;stroke:#262626;stroke-width:5.0025;stroke-linecap:square;stroke-linejoin:round;stroke-miterlimit:10;stroke-dasharray:none;stroke-opacity:1"
         d="m 525,1321.13 h 32.699" /><path
         id="path2684"
         style="fill:none;stroke:#262626;stroke-width:5.0025;stroke-linecap:square;stroke-linejoin:round;stroke-miterlimit:10;stroke-dasharray:none;stroke-opacity:1"
         d="m 525,1444.5 h 32.699" /><path
         id="path2686"
         style="fill:none;stroke:#262626;stroke-width:5.0025;stroke-linecap:square;stroke-linejoin:round;stroke-miterlimit:10;stroke-dasharray:none;stroke-opacity:1"
         d="m 525,1567.88 h 32.699" /><path
         id="path2688"
         style="fill:none;stroke:#262626;stroke-width:5.0025;stroke-linecap:square;stroke-linejoin:round;stroke-miterlimit:10;stroke-dasharray:none;stroke-opacity:1"
         d="m 525,1691.25 h 32.699" /><path
         id="path2690"
         style="fill:none;stroke:#262626;stroke-width:5.0025;stroke-linecap:square;stroke-linejoin:round;stroke-miterlimit:10;stroke-dasharray:none;stroke-opacity:1"
         d="m 525,1814.63 h 32.699" /><path
         id="path2692"
         style="fill:none;stroke:#262626;stroke-width:5.0025;stroke-linecap:square;stroke-linejoin:round;stroke-miterlimit:10;stroke-dasharray:none;stroke-opacity:1"
         d="m 525,1938 h 32.699" /><path
         id="path2694"
         style="fill:none;stroke:#262626;stroke-width:5.0025;stroke-linecap:square;stroke-linejoin:round;stroke-miterlimit:10;stroke-dasharray:none;stroke-opacity:1"
         d="m 525,2061.38 h 32.699" /><path
         id="path2696"
         style="fill:none;stroke:#262626;stroke-width:5.0025;stroke-linecap:square;stroke-linejoin:round;stroke-miterlimit:10;stroke-dasharray:none;stroke-opacity:1"
         d="m 525,2184.75 h 32.699" /><path
         id="path2698"
         style="fill:none;stroke:#262626;stroke-width:5.0025;stroke-linecap:square;stroke-linejoin:round;stroke-miterlimit:10;stroke-dasharray:none;stroke-opacity:1"
         d="m 525,2308.13 h 32.699" /><path
         id="path2700"
         style="fill:none;stroke:#262626;stroke-width:5.0025;stroke-linecap:square;stroke-linejoin:round;stroke-miterlimit:10;stroke-dasharray:none;stroke-opacity:1"
         d="m 525,2431.5 h 32.699" /><path
         id="path2702"
         style="fill:none;stroke:#262626;stroke-width:5.0025;stroke-linecap:square;stroke-linejoin:round;stroke-miterlimit:10;stroke-dasharray:none;stroke-opacity:1"
         d="m 525,2554.88 h 32.699" /><path
         id="path2704"
         style="fill:none;stroke:#262626;stroke-width:5.0025;stroke-linecap:square;stroke-linejoin:round;stroke-miterlimit:10;stroke-dasharray:none;stroke-opacity:1"
         d="m 525,2678.25 h 32.699" /><path
         id="path2706"
         style="fill:none;stroke:#262626;stroke-width:5.0025;stroke-linecap:square;stroke-linejoin:round;stroke-miterlimit:10;stroke-dasharray:none;stroke-opacity:1"
         d="m 525,2801.63 h 32.699" /><path
         id="path2708"
         style="fill:none;stroke:#262626;stroke-width:5.0025;stroke-linecap:square;stroke-linejoin:round;stroke-miterlimit:10;stroke-dasharray:none;stroke-opacity:1"
         d="m 525,2925 h 32.699" /><path
         id="path2710"
         style="fill:none;stroke:#262626;stroke-width:5.0025;stroke-linecap:square;stroke-linejoin:round;stroke-miterlimit:10;stroke-dasharray:none;stroke-opacity:1"
         d="m 3795,457.5 h -32.7" /><path
         id="path2712"
         style="fill:none;stroke:#262626;stroke-width:5.0025;stroke-linecap:square;stroke-linejoin:round;stroke-miterlimit:10;stroke-dasharray:none;stroke-opacity:1"
         d="m 3795,580.875 h -32.7" /><path
         id="path2714"
         style="fill:none;stroke:#262626;stroke-width:5.0025;stroke-linecap:square;stroke-linejoin:round;stroke-miterlimit:10;stroke-dasharray:none;stroke-opacity:1"
         d="m 3795,704.25 h -32.7" /><path
         id="path2716"
         style="fill:none;stroke:#262626;stroke-width:5.0025;stroke-linecap:square;stroke-linejoin:round;stroke-miterlimit:10;stroke-dasharray:none;stroke-opacity:1"
         d="m 3795,827.625 h -32.7" /><path
         id="path2718"
         style="fill:none;stroke:#262626;stroke-width:5.0025;stroke-linecap:square;stroke-linejoin:round;stroke-miterlimit:10;stroke-dasharray:none;stroke-opacity:1"
         d="m 3795,951 h -32.7" /><path
         id="path2720"
         style="fill:none;stroke:#262626;stroke-width:5.0025;stroke-linecap:square;stroke-linejoin:round;stroke-miterlimit:10;stroke-dasharray:none;stroke-opacity:1"
         d="m 3795,1074.38 h -32.7" /><path
         id="path2722"
         style="fill:none;stroke:#262626;stroke-width:5.0025;stroke-linecap:square;stroke-linejoin:round;stroke-miterlimit:10;stroke-dasharray:none;stroke-opacity:1"
         d="m 3795,1197.75 h -32.7" /><path
         id="path2724"
         style="fill:none;stroke:#262626;stroke-width:5.0025;stroke-linecap:square;stroke-linejoin:round;stroke-miterlimit:10;stroke-dasharray:none;stroke-opacity:1"
         d="m 3795,1321.13 h -32.7" /><path
         id="path2726"
         style="fill:none;stroke:#262626;stroke-width:5.0025;stroke-linecap:square;stroke-linejoin:round;stroke-miterlimit:10;stroke-dasharray:none;stroke-opacity:1"
         d="m 3795,1444.5 h -32.7" /><path
         id="path2728"
         style="fill:none;stroke:#262626;stroke-width:5.0025;stroke-linecap:square;stroke-linejoin:round;stroke-miterlimit:10;stroke-dasharray:none;stroke-opacity:1"
         d="m 3795,1567.88 h -32.7" /><path
         id="path2730"
         style="fill:none;stroke:#262626;stroke-width:5.0025;stroke-linecap:square;stroke-linejoin:round;stroke-miterlimit:10;stroke-dasharray:none;stroke-opacity:1"
         d="m 3795,1691.25 h -32.7" /><path
         id="path2732"
         style="fill:none;stroke:#262626;stroke-width:5.0025;stroke-linecap:square;stroke-linejoin:round;stroke-miterlimit:10;stroke-dasharray:none;stroke-opacity:1"
         d="m 3795,1814.63 h -32.7" /><path
         id="path2734"
         style="fill:none;stroke:#262626;stroke-width:5.0025;stroke-linecap:square;stroke-linejoin:round;stroke-miterlimit:10;stroke-dasharray:none;stroke-opacity:1"
         d="m 3795,1938 h -32.7" /><path
         id="path2736"
         style="fill:none;stroke:#262626;stroke-width:5.0025;stroke-linecap:square;stroke-linejoin:round;stroke-miterlimit:10;stroke-dasharray:none;stroke-opacity:1"
         d="m 3795,2061.38 h -32.7" /><path
         id="path2738"
         style="fill:none;stroke:#262626;stroke-width:5.0025;stroke-linecap:square;stroke-linejoin:round;stroke-miterlimit:10;stroke-dasharray:none;stroke-opacity:1"
         d="m 3795,2184.75 h -32.7" /><path
         id="path2740"
         style="fill:none;stroke:#262626;stroke-width:5.0025;stroke-linecap:square;stroke-linejoin:round;stroke-miterlimit:10;stroke-dasharray:none;stroke-opacity:1"
         d="m 3795,2308.13 h -32.7" /><path
         id="path2742"
         style="fill:none;stroke:#262626;stroke-width:5.0025;stroke-linecap:square;stroke-linejoin:round;stroke-miterlimit:10;stroke-dasharray:none;stroke-opacity:1"
         d="m 3795,2431.5 h -32.7" /><path
         id="path2744"
         style="fill:none;stroke:#262626;stroke-width:5.0025;stroke-linecap:square;stroke-linejoin:round;stroke-miterlimit:10;stroke-dasharray:none;stroke-opacity:1"
         d="m 3795,2554.88 h -32.7" /><path
         id="path2746"
         style="fill:none;stroke:#262626;stroke-width:5.0025;stroke-linecap:square;stroke-linejoin:round;stroke-miterlimit:10;stroke-dasharray:none;stroke-opacity:1"
         d="m 3795,2678.25 h -32.7" /><path
         id="path2748"
         style="fill:none;stroke:#262626;stroke-width:5.0025;stroke-linecap:square;stroke-linejoin:round;stroke-miterlimit:10;stroke-dasharray:none;stroke-opacity:1"
         d="m 3795,2801.63 h -32.7" /><path
         id="path2750"
         style="fill:none;stroke:#262626;stroke-width:5.0025;stroke-linecap:square;stroke-linejoin:round;stroke-miterlimit:10;stroke-dasharray:none;stroke-opacity:1"
         d="m 3795,2925 h -32.7" /><g
         transform="scale(10)"
         id="g2752"><text
           id="text2796"
           style="font-variant:normal;font-weight:normal;font-size:15.9998px;font-family:Helvetica;-inkscape-font-specification:Helvetica;writing-mode:lr-tb;fill:#262626;fill-opacity:1;fill-rule:nonzero;stroke:none"
           transform="matrix(1,0,0,-1,38.3,40.125)"><tspan
             id="tspan2754"
             y="0"
             x="0">0</tspan><tspan
             id="tspan2756"
             y="-12.3375"
             x="4.5"> </tspan><tspan
             id="tspan2758"
             sodipodi:role="line"
             y="-24.674999"
             x="-9 -0.1041112">10</tspan><tspan
             id="tspan2760"
             y="-37.012501"
             x="4.5"> </tspan><tspan
             id="tspan2762"
             sodipodi:role="line"
             y="-49.349998"
             x="-9 -0.1041112">20</tspan><tspan
             id="tspan2764"
             y="-61.6875"
             x="4.5"> </tspan><tspan
             id="tspan2766"
             sodipodi:role="line"
             y="-74.025002"
             x="-9 -0.1041112">30</tspan><tspan
             id="tspan2768"
             y="-86.362503"
             x="4.5"> </tspan><tspan
             id="tspan2770"
             sodipodi:role="line"
             y="-98.699997"
             x="-9 -0.1041112">40</tspan><tspan
             id="tspan2772"
             y="-111.0375"
             x="4.5"> </tspan><tspan
             id="tspan2774"
             sodipodi:role="line"
             y="-123.375"
             x="-9 -0.1041112">50</tspan><tspan
             id="tspan2776"
             y="-135.71249"
             x="4.5"> </tspan><tspan
             id="tspan2778"
             sodipodi:role="line"
             y="-148.05"
             x="-9 -0.1041112">60</tspan><tspan
             id="tspan2780"
             y="-160.3875"
             x="4.5"> </tspan><tspan
             id="tspan2782"
             sodipodi:role="line"
             y="-172.72501"
             x="-9 -0.1041112">70</tspan><tspan
             id="tspan2784"
             y="-185.0625"
             x="4.5"> </tspan><tspan
             id="tspan2786"
             sodipodi:role="line"
             y="-197.39999"
             x="-9 -0.1041112">80</tspan><tspan
             id="tspan2788"
             y="-209.7375"
             x="4.5"> </tspan><tspan
             id="tspan2790"
             sodipodi:role="line"
             y="-222.075"
             x="-9 -0.1041112">90</tspan><tspan
             id="tspan2792"
             y="-234.41251"
             x="4.5"> </tspan><tspan
             id="tspan2794"
             sodipodi:role="line"
             y="-246.75"
             x="-18 -9.1041117 -0.2082224">100</tspan></text><text
           id="text2800"
           style="font-variant:normal;font-weight:normal;font-size:17.6002px;font-family:Helvetica;-inkscape-font-specification:Helvetica;writing-mode:lr-tb;fill:#262626;fill-opacity:1;fill-rule:nonzero;stroke:none"
           transform="matrix(0,1,1,0,13.55,109.5)"><tspan
             id="tspan2798"
             sodipodi:role="line"
             y="0"
             x="0 11.739333 21.525045 27.385912 36.186012 45.971722 55.757435 60.650288 64.557533 68.464775 78.250488 87.050591 91.943443 97.804314 113.45089">Percentiles (%)</tspan></text></g><path
         id="path2802"
         style="fill:none;stroke:#edb120;stroke-width:30;stroke-linecap:butt;stroke-linejoin:round;stroke-miterlimit:10;stroke-dasharray:none;stroke-opacity:1"
         d="m 576.961,482.176 v 24.676 l 0.027,24.671 0.723,24.676 0.687,24.676 0.723,24.676 0.68,24.676 0.691,24.671 0.75,24.676 0.856,24.676 0.847,24.676 0.883,24.676 0.848,24.671 0.847,24.676 2.493,24.676 6.277,24.676 6.277,24.676 6.309,24.671 6.285,24.676 6.305,24.676 5.558,24.676 4.547,24.674 4.543,24.67 4.547,24.68 4.543,24.68 4.547,24.67 2.324,24.68 0.426,24.67 0.391,24.67 0.39,24.68 0.399,24.68 0.418,24.67 3.437,24.67 5.137,24.68 5.097,24.68 5.102,24.67 5.129,24.68 5.109,24.67 4.739,24.67 4.613,24.68 4.605,24.68 4.614,24.67 4.582,24.67 4.605,24.68 1.438,24.68 1.015,24.67 1.012,24.68 0.98,24.67 1.012,24.67 1.024,24.68 5.031,24.68 5.004,24.67 5.039,24.67 5.031,24.68 5.004,24.68 4.574,24.67 1.246,24.68 1.242,24.67 1.239,24.67 1.215,24.68 1.238,24.68 4.582,24.67 15.367,24.67 15.406,24.68 15.399,24.68 15.402,24.67 15.367,24.68 24.332,24.67 40.711,24.67 40.68,24.68 40.711,24.68 40.708,24.67 40.68,24.67 21.55,24.68 v 24.68 24.67 24.68 24.67 24.67 l 65.4,24.68 111.15,24.68 111.15,24.67 111.18,24.67 111.14,24.68 111.15,24.68 38.16,24.67 7.72,24.68 7.72,24.67 7.71,24.67 7.72,24.68 7.72,24.68 84.49,24.67 100.91,24.67 100.92,24.68 100.91,24.68 100.91,24.67 100.92,24.68 5.94,24.67 v 24.67" /><path
         id="path2804"
         style="fill:none;stroke:#00ff00;stroke-width:30;stroke-linecap:butt;stroke-linejoin:round;stroke-miterlimit:10;stroke-dasharray:none;stroke-opacity:1"
         d="m 600.238,482.176 v 24.676 l 0.559,24.671 9.613,24.676 9.586,24.676 9.613,24.676 9.61,24.676 9.582,24.671 8.207,24.676 1.769,24.676 1.735,24.676 1.761,24.676 1.731,24.671 1.734,24.676 5.203,24.676 13.5,24.676 13.508,24.676 13.508,24.671 13.5,24.676 13.508,24.676 10.101,24.676 5.235,24.674 5.238,24.67 5.227,24.68 5.234,24.68 5.227,24.67 3.535,24.68 1.992,24.67 2.027,24.67 1.992,24.68 2.036,24.68 1.992,24.67 4.09,24.67 5.226,24.68 5.235,24.68 5.199,24.67 5.234,24.68 5.199,24.67 3.727,24.67 3.238,24.68 3.235,24.68 3.238,24.67 3.242,24.67 3.231,24.68 12.984,24.68 14.258,24.67 14.254,24.68 14.289,24.67 14.258,24.67 14.257,24.68 10.168,24.68 10.211,24.67 10.168,24.67 10.199,24.68 10.172,24.68 9.121,24.67 0.981,24.68 0.984,24.67 0.981,24.67 1.011,24.68 0.985,24.68 2.715,24.67 8.234,24.67 8.275,24.68 8.27,24.68 8.27,24.67 8.28,24.68 23.74,24.67 52.13,24.67 52.08,24.68 52.1,24.68 52.09,24.67 52.12,24.67 27.57,24.68 v 24.68 24.67 24.68 24.67 24.67 l 120.04,24.68 204.01,24.68 204.06,24.67 204.04,24.67 204.05,24.68 204.05,24.68 79.81,24.67 28.1,24.68 28.06,24.67 28.08,24.67 28.09,24.68 28.06,24.68 175.3,24.67 206.83,24.67 206.83,24.68 206.86,24.68 206.82,24.67 88.75,10.59" /><path
         id="path2806"
         style="fill:none;stroke:#7e2f8e;stroke-width:30;stroke-linecap:butt;stroke-linejoin:round;stroke-miterlimit:10;stroke-dasharray:none;stroke-opacity:1"
         d="m 618.75,482.176 v 24.676 l 0.75,24.671 12.789,24.676 12.785,24.676 12.817,24.676 12.789,24.676 12.789,24.671 11.277,24.676 4.254,24.676 4.215,24.676 4.254,24.676 4.25,24.671 4.215,24.676 9.937,24.676 23.613,24.676 23.579,24.676 23.609,24.671 23.574,24.676 23.609,24.676 16.387,24.676 6.047,24.674 6.082,24.67 6.082,24.68 6.082,24.68 6.082,24.67 6.016,24.68 5.984,24.67 5.985,24.67 5.984,24.68 5.988,24.68 5.946,24.67 3.339,24.67 1.868,24.68 1.859,24.68 1.867,24.67 1.86,24.68 1.898,24.67 4.582,24.67 5.422,24.68 5.461,24.68 5.429,24.67 5.43,24.67 5.43,24.68 11.867,24.68 12.719,24.67 12.759,24.68 12.72,24.67 12.72,24.67 12.72,24.68 9.55,24.68 9.51,24.67 9.55,24.67 9.55,24.68 9.55,24.68 8.86,24.67 3.92,24.68 3.9,24.67 3.92,24.67 3.92,24.68 3.89,24.68 7.46,24.67 18.93,24.67 18.97,24.68 18.93,24.68 18.93,24.67 18.94,24.68 37.3,24.67 70.97,24.67 70.99,24.68 70.95,24.68 71,24.67 70.96,24.67 37.57,24.68 v 24.68 24.67 24.68 24.67 24.67 l 153.07,24.68 260.19,24.68 260.23,24.67 260.2,24.67 260.22,24.68 260.23,24.68 80.96,24.67 6.28,24.68 6.31,24.67 6.28,24.67 6.31,24.68 6.28,24.68 238.29,24.67 287.98,24.67 48.07,4.12" /><path
         id="path2808"
         style="fill:none;stroke:#00ffff;stroke-width:30;stroke-linecap:butt;stroke-linejoin:round;stroke-miterlimit:10;stroke-dasharray:none;stroke-opacity:1"
         d="m 635.984,482.176 v 24.676 l 1.344,24.671 23.047,24.676 23.055,24.676 23.023,24.676 23.051,24.676 23.055,24.671 20.375,24.676 7.875,24.676 7.882,24.676 7.914,24.676 7.883,24.671 7.91,24.676 12.364,24.676 23.152,24.676 23.121,24.676 23.145,24.671 23.121,24.676 23.152,24.676 15.797,24.676 5.363,24.674 5.325,24.67 5.363,24.68 5.363,24.68 5.332,24.67 5.723,24.68 6.015,24.67 6.056,24.67 6.01,24.68 6.02,24.68 6.05,24.67 15.99,24.67 21.45,24.68 21.45,24.68 21.42,24.67 21.45,24.68 21.46,24.67 10.03,24.67 6.57,24.68 6.54,24.68 6.58,24.67 6.54,24.67 6.54,24.68 3.99,24.68 3.66,24.67 3.63,24.68 3.63,24.67 3.66,24.67 3.63,24.68 2.62,24.68 2.61,24.67 2.65,24.67 2.62,24.68 2.61,24.68 2.98,24.67 5.43,24.68 5.43,24.67 5.46,24.67 5.43,24.68 5.46,24.68 7.81,24.67 15.53,24.67 15.54,24.68 15.53,24.68 15.53,24.67 15.53,24.68 43.04,24.67 93.49,24.67 93.48,24.68 93.49,24.68 93.5,24.67 93.48,24.67 49.51,24.68 v 24.68 24.67 24.68 24.67 24.67 l 157.22,24.68 267.26,24.68 267.22,24.67 267.26,24.67 267.26,24.68 267.25,24.68 84.7,24.67 8.6,24.68 8.6,24.67 8.6,24.67 8.6,24.68 8.6,24.68 278.37,24.56" /><path
         id="path2810"
         style="fill:none;stroke:#0072bd;stroke-width:30;stroke-linecap:butt;stroke-linejoin:round;stroke-miterlimit:10;stroke-dasharray:none;stroke-opacity:1"
         d="m 691.574,482.176 v 24.676 l 2.094,24.671 35.676,24.676 35.672,24.676 35.675,24.676 35.68,24.676 35.676,24.671 30.152,24.676 4.184,24.676 4.183,24.676 4.215,24.676 4.188,24.671 4.183,24.676 10.075,24.676 24.164,24.676 24.164,24.676 24.165,24.671 24.17,24.676 24.13,24.676 19.49,24.676 12.75,24.674 12.75,24.67 12.76,24.68 12.75,24.68 12.72,24.67 16.45,24.68 19.65,24.67 19.68,24.67 19.66,24.68 19.69,24.68 19.68,24.67 21.59,24.67 22.62,24.68 22.6,24.68 22.63,24.67 22.62,24.68 22.63,24.67 8.99,24.67 4.78,24.68 4.77,24.68 4.78,24.67 4.81,24.67 4.77,24.68 7.78,24.68 8.21,24.67 8.21,24.68 8.21,24.67 8.2,24.67 8.21,24.68 34.99,24.68 35.02,24.67 34.99,24.67 34.99,24.68 35.02,24.68 31.59,24.67 6.05,24.68 6.08,24.67 6.08,24.67 6.05,24.68 6.08,24.68 11.22,24.67 27.9,24.67 27.86,24.68 27.89,24.68 27.89,24.67 27.89,24.68 51.87,24.67 95.77,24.67 95.79,24.68 95.77,24.68 95.75,24.67 95.78,24.67 50.71,24.68 v 24.68 24.67 24.68 24.67 24.67 l 142.58,24.68 242.34,24.68 242.33,24.67 242.34,24.67 242.34,24.68 242.34,24.68 3.63,1.14" /><path
         id="path2812"
         style="fill:none;stroke:#ff00ff;stroke-width:30;stroke-linecap:butt;stroke-linejoin:round;stroke-miterlimit:10;stroke-dasharray:none;stroke-opacity:1"
         d="m 766.621,482.176 v 24.676 l 2.813,24.671 47.804,24.676 47.813,24.676 47.804,24.676 47.805,24.676 47.81,24.671 39.8,24.676 2.38,24.676 2.39,24.676 2.39,24.676 2.39,24.671 2.38,24.676 16.03,24.676 48.82,24.676 48.81,24.676 48.83,24.671 48.81,24.676 48.83,24.676 31.42,24.676 6.55,24.674 6.56,24.67 6.55,24.68 6.57,24.68 6.57,24.67 19.36,24.68 30.73,24.67 30.72,24.67 30.73,24.68 30.74,24.68 30.74,24.67 13.4,24.67 3.99,24.68 3.96,24.68 3.96,24.67 3.96,24.68 3.95,24.67 12.73,24.67 15.36,24.68 15.37,24.68 15.4,24.67 15.37,24.67 15.4,24.68 37.41,24.68 40.32,24.67 40.35,24.68 40.35,24.67 40.32,24.67 40.36,24.68 0.06,24.68 0.07,24.67 0.09,24.67 0.07,24.68 0.07,24.68 1.66,24.67 13.47,24.68 13.48,24.67 13.5,24.67 13.48,24.68 13.5,24.68 37.08,24.67 113.86,24.67 113.86,24.68 113.86,24.68 113.83,24.67 113.87,24.68 108.13,24.67 97.68,24.67 97.64,24.68 97.68,24.68 97.64,24.67 97.67,24.67 51.7,24.68 v 24.68 24.67 24.68 24.67 24.67 l 120.07,24.68 204.12,24.68 204.11,24.67 23.61,2.85" /><path
         id="path2814"
         style="fill:none;stroke:#d95319;stroke-width:30;stroke-linecap:butt;stroke-linejoin:round;stroke-miterlimit:10;stroke-dasharray:none;stroke-opacity:1"
         d="m 904.059,482.176 v 24.676 l 2.16,24.671 36.855,24.676 36.848,24.676 36.848,24.676 36.86,24.676 36.85,24.671 41.01,24.676 60.4,24.676 60.39,24.676 60.4,24.676 60.36,24.671 60.4,24.676 45.65,24.676 10.27,24.676 10.27,24.676 10.26,24.671 10.27,24.676 10.24,24.676 14.48,24.676 20.51,24.674 20.46,24.67 20.51,24.68 20.5,24.68 20.47,24.67 25.51,24.68 29.98,24.67 29.96,24.67 29.98,24.68 29.95,24.68 29.99,24.67 41.3,24.67 47.45,24.68 47.48,24.68 47.48,24.67 47.48,24.68 47.48,24.67 13.38,24.67 2.91,24.68 2.87,24.68 2.88,24.67 2.88,24.67 2.91,24.68 4.74,24.68 5,24.67 5,24.68 5.01,24.67 5,24.67 5,24.68 4.91,24.68 4.9,24.67 4.9,24.67 4.91,24.68 4.94,24.68 18.25,24.67 118.47,24.68 118.44,24.67 118.47,24.67 118.44,24.68 118.47,24.68 94.27,24.67 15.64,24.67 15.66,24.68 15.63,24.68 15.66,24.67 15.63,24.68 59.46,24.67 139.65,24.67 139.7,24.68 139.69,24.68 139.7,24.67 139.66,24.67 70.99,23.69" /><path
         id="path2816"
         style="fill:none;stroke:#edb120;stroke-width:30;stroke-linecap:butt;stroke-linejoin:bevel;stroke-miterlimit:10;stroke-dasharray:30, 30;stroke-dashoffset:0;stroke-opacity:1"
         d="m 530.852,482.176 v 49.347 l 0.164,24.676 0.195,24.676 0.164,24.676 0.164,24.676 0.164,24.671 0.266,24.676 0.75,24.676 0.75,24.676 0.719,24.676 0.75,24.671 0.757,24.676 0.914,24.676 1.403,24.676 1.375,24.676 1.379,24.671 1.371,24.676 1.375,24.676 1.828,24.676 2.453,24.674 2.422,24.67 2.453,24.68 2.453,24.68 2.453,24.67 1.86,24.68 1.41,24.67 1.371,24.67 1.371,24.68 1.402,24.68 1.375,24.67 1.34,24.67 1.313,24.68 1.336,24.68 1.312,24.67 1.305,24.68 1.344,24.67 0.457,24.67 0.195,24.68 0.164,24.68 0.195,24.67 0.196,24.67 0.195,24.68 1.082,24.68 1.176,24.67 1.215,24.68 1.171,24.67 1.215,24.67 1.176,24.68 0.879,24.68 0.883,24.67 0.886,24.67 0.883,24.68 0.879,24.68 0.914,24.67 1.02,24.68 1.043,24.67 1.011,24.67 1.016,24.68 1.047,24.68 2.355,24.67 6.707,24.67 6.696,24.68 6.676,24.68 6.707,24.67 6.703,24.68 5.851,24.67 4.313,24.67 4.32,24.68 4.32,24.68 4.34,24.67 4.321,24.67 2.289,24.68 v 24.68 24.67 24.68 24.67 24.67 l 16.054,24.68 27.34,24.68 27.301,24.67 27.305,24.67 27.308,24.68 27.301,24.68 11.152,24.67 4.418,24.68 4.41,24.67 4.418,24.67 4.411,24.68 4.414,24.68 44.836,24.67 53.5,24.67 53.488,24.68 53.465,24.68 53.5,24.67 53.5,24.68 3.14,24.67 v 24.67" /><path
         id="path2818"
         style="fill:none;stroke:#00ff00;stroke-width:30;stroke-linecap:butt;stroke-linejoin:bevel;stroke-miterlimit:10;stroke-dasharray:30, 30;stroke-dashoffset:0;stroke-opacity:1"
         d="m 602.594,482.176 v 49.347 l 0.097,24.676 0.137,24.676 0.098,24.676 0.097,24.676 0.098,24.671 0.359,24.676 1.567,24.676 1.574,24.676 1.57,24.676 1.567,24.671 1.539,24.676 3.465,24.676 8.047,24.676 8.039,24.676 8.015,24.671 8.043,24.676 8.047,24.676 6.996,24.676 5.528,24.674 5.519,24.67 5.567,24.68 5.519,24.68 5.527,24.67 5.461,24.68 5.332,24.67 5.364,24.67 5.332,24.68 5.363,24.68 5.324,24.67 2.977,24.67 1.636,24.68 1.672,24.68 1.633,24.67 1.668,24.68 1.633,24.67 3.398,24.67 3.93,24.68 3.922,24.68 3.922,24.67 3.926,24.67 3.921,24.68 2.258,24.68 1.992,24.67 2.036,24.68 2.023,24.67 2.027,24.67 2.024,24.68 2.851,24.68 2.813,24.67 2.84,24.67 2.812,24.68 2.844,24.68 2.551,24.67 0.621,24.68 0.652,24.67 0.621,24.67 0.625,24.68 0.621,24.68 4.379,24.67 16.547,24.67 16.582,24.68 16.547,24.68 16.543,24.67 16.547,24.68 18.383,24.67 21.644,24.67 21.645,24.68 21.652,24.68 21.645,24.67 21.642,24.67 11.49,24.68 v 24.68 24.67 24.68 24.67 24.67 l 49.07,24.68 83.42,24.68 83.45,24.67 83.42,24.67 83.45,24.68 83.45,24.68 27.83,24.67 4.71,24.68 4.68,24.67 4.7,24.67 4.68,24.68 4.71,24.68 145.64,24.67 175.86,24.67 175.86,24.68 175.86,24.68 175.9,24.67 175.86,24.68 10.33,24.67 v 24.67" /><path
         id="path2820"
         style="fill:none;stroke:#7e2f8e;stroke-width:30;stroke-linecap:butt;stroke-linejoin:bevel;stroke-miterlimit:10;stroke-dasharray:30, 30;stroke-dashoffset:0;stroke-opacity:1"
         d="m 686.113,482.176 v 24.676 l 0.168,24.671 3.008,24.676 2.969,24.676 3.015,24.676 2.969,24.676 3.008,24.671 2.586,24.676 0.652,24.676 0.653,24.676 0.656,24.676 0.656,24.671 0.684,24.676 4.84,24.676 14.914,24.676 14.875,24.676 14.918,24.671 14.871,24.676 14.918,24.676 11.406,24.676 6.414,24.674 6.441,24.67 6.407,24.68 6.41,24.68 6.445,24.67 8.758,24.68 10.824,24.67 10.86,24.67 10.824,24.68 10.82,24.68 10.859,24.67 4.215,24.67 0.625,24.68 0.582,24.68 0.625,24.67 0.59,24.68 0.625,24.67 4.606,24.67 5.886,24.68 5.856,24.68 5.851,24.67 5.887,24.67 5.852,24.68 6.343,24.68 6.414,24.67 6.403,24.68 6.445,24.67 6.41,24.67 6.407,24.68 3.726,24.68 3.731,24.67 3.761,24.67 3.731,24.68 3.726,24.68 3.465,24.67 1.41,24.68 1.371,24.67 1.403,24.67 1.413,24.68 1.37,24.68 6.31,24.67 22.23,24.67 22.24,24.68 22.2,24.68 22.24,24.67 22.24,24.68 27.2,24.67 36.37,24.67 36.33,24.68 36.36,24.68 36.33,24.67 36.36,24.67 19.23,24.68 v 24.68 24.67 24.68 24.67 24.67 l 78.64,24.68 133.68,24.68 133.67,24.67 133.68,24.67 133.68,24.68 133.71,24.68 45.55,24.67 8.9,24.68 8.86,24.67 8.86,24.67 8.87,24.68 8.85,24.68 230.24,24.67 277.66,24.67 277.69,24.68 277.66,24.68 277.65,24.67 270.23,24.02" /><path
         id="path2822"
         style="fill:none;stroke:#00ffff;stroke-width:30;stroke-linecap:butt;stroke-linejoin:bevel;stroke-miterlimit:10;stroke-dasharray:30, 30;stroke-dashoffset:0;stroke-opacity:1"
         d="m 767.602,482.176 v 24.676 l 0.39,24.671 6.512,24.676 6.5,24.676 6.512,24.676 6.539,24.676 6.511,24.671 5.625,24.676 1.5,24.676 1.469,24.676 1.508,24.676 1.469,24.671 1.508,24.676 6.734,24.676 19.293,24.676 19.297,24.676 19.289,24.671 19.289,24.676 19.297,24.676 13.375,24.676 4.933,24.674 4.942,24.67 4.937,24.68 4.942,24.68 4.933,24.67 9.879,24.68 14.258,24.67 14.285,24.67 14.262,24.68 14.29,24.68 14.25,24.67 7.14,24.67 3.27,24.68 3.26,24.68 3.24,24.67 3.27,24.68 3.27,24.67 3.92,24.67 4.13,24.68 4.15,24.68 4.12,24.67 4.15,24.67 4.12,24.68 9.02,24.68 9.69,24.67 9.71,24.68 9.67,24.67 9.69,24.67 9.68,24.68 7.35,24.68 7.36,24.67 7.39,24.67 7.36,24.68 7.36,24.68 6.57,24.67 0.55,24.68 0.56,24.67 0.52,24.67 0.56,24.68 0.55,24.68 6.65,24.67 26.38,24.67 26.39,24.68 26.39,24.68 26.42,24.67 26.39,24.68 36.36,24.67 54.68,24.67 54.67,24.68 54.68,24.68 54.67,24.67 54.67,24.67 28.94,24.68 v 24.68 24.67 24.68 24.67 24.67 l 108.66,24.68 184.7,24.68 184.72,24.67 184.69,24.67 184.72,24.68 184.72,24.68 58.21,24.67 5.52,24.68 5.53,24.67 5.53,24.67 5.52,24.68 5.53,24.68 316.73,24.67 383.37,24.67 312.19,20.1" /><path
         id="path2824"
         style="fill:none;stroke:#0072bd;stroke-width:30;stroke-linecap:butt;stroke-linejoin:bevel;stroke-miterlimit:10;stroke-dasharray:30, 30;stroke-dashoffset:0;stroke-opacity:1"
         d="m 954.906,482.176 v 24.676 l 0.391,24.671 6.676,24.676 6.668,24.676 6.636,24.676 6.676,24.676 6.668,24.671 6.899,24.676 8.05,24.676 8.04,24.676 8.01,24.676 8.04,24.671 8.04,24.676 10.7,24.676 17.14,24.676 17.16,24.676 17.14,24.671 17.13,24.676 17.17,24.676 15.34,24.676 12.79,24.674 12.78,24.67 12.82,24.68 12.78,24.68 12.79,24.67 15.4,24.68 17.73,24.67 17.72,24.67 17.72,24.68 17.72,24.68 17.72,24.67 16.45,24.67 15.8,24.68 15.79,24.68 15.8,24.67 15.79,24.68 15.76,24.67 6.38,24.67 3.47,24.68 3.46,24.68 3.47,24.67 3.46,24.67 3.47,24.68 8.57,24.68 9.22,24.67 9.25,24.68 9.26,24.67 9.25,24.67 9.26,24.68 23.31,24.68 23.29,24.67 23.31,24.67 23.31,24.68 23.28,24.68 20.9,24.67 2.75,24.68 2.74,24.67 2.75,24.67 2.78,24.68 2.75,24.68 9.09,24.67 29.82,24.67 29.79,24.68 29.79,24.68 29.79,24.67 29.79,24.68 48.59,24.67 83.02,24.67 83.03,24.68 83.03,24.68 83.02,24.67 83.03,24.67 43.95,24.68 v 24.68 24.67 24.68 24.67 24.67 l 143.06,24.68 243.22,24.68 243.23,24.67 243.22,24.67 243.22,24.68 243.23,24.68 84.52,24.67 18.38,24.68 18.38,24.67 8.66,11.63" /><path
         id="path2826"
         style="fill:none;stroke:#ff00ff;stroke-width:30;stroke-linecap:butt;stroke-linejoin:bevel;stroke-miterlimit:10;stroke-dasharray:30, 30;stroke-dashoffset:0;stroke-opacity:1"
         d="m 1158.17,482.176 v 24.676 l 0.92,24.671 15.7,24.676 15.66,24.676 15.66,24.676 15.69,24.676 15.67,24.671 18.21,24.676 30.12,24.676 30.11,24.676 30.12,24.676 30.08,24.671 30.12,24.676 26.68,24.676 18.48,24.676 18.45,24.676 18.47,24.671 18.44,24.676 18.48,24.676 16.74,24.676 14.33,24.674 14.28,24.67 14.29,24.68 14.33,24.68 14.28,24.67 15.7,24.68 16.94,24.67 16.91,24.67 16.93,24.68 16.95,24.68 16.9,24.67 30.87,24.67 38.42,24.68 38.45,24.68 38.46,24.67 38.46,24.68 38.42,24.67 9.81,24.67 0.98,24.68 0.95,24.68 0.98,24.67 0.98,24.67 0.98,24.68 9.71,24.68 10.86,24.67 10.89,24.68 10.89,24.67 10.85,24.67 10.89,24.68 41.76,24.68 41.76,24.67 41.75,24.67 41.73,24.68 41.76,24.68 37.05,24.67 1.8,24.68 1.8,24.67 1.79,24.67 1.77,24.68 1.8,24.68 11.96,24.67 45.03,24.67 45.03,24.68 45.03,24.68 45.02,24.67 45.04,24.68 71.84,24.67 121.02,24.67 121.03,24.68 120.98,24.68 121.02,24.67 121.03,24.67 64.06,24.68 v 24.68 24.67 24.68 24.67 24.67 l 214.64,24.68 332.23,22.47" /><path
         id="path2828"
         style="fill:none;stroke:#d95319;stroke-width:30;stroke-linecap:butt;stroke-linejoin:bevel;stroke-miterlimit:10;stroke-dasharray:30, 30;stroke-dashoffset:0;stroke-opacity:1"
         d="m 1323.41,482.176 v 24.676 l 2.45,24.671 41.55,24.676 41.57,24.676 41.59,24.676 41.56,24.676 41.57,24.671 37.24,24.676 17.04,24.676 17.04,24.676 17.03,24.676 17.01,24.671 17.03,24.676 17.86,24.676 19.75,24.676 19.78,24.676 19.75,24.671 19.78,24.676 19.76,24.676 25.8,24.676 34.4,24.674 34.39,24.67 34.44,24.68 34.4,24.68 34.4,24.67 22.04,24.68 11.09,24.67 11.09,24.67 11.08,24.68 11.08,24.68 11.05,24.67 35,24.67 48,24.68 48.01,24.68 48,24.67 48,24.68 48,24.67 11.91,24.67 0.81,24.68 0.79,24.68 0.82,24.67 0.78,24.67 0.81,24.68 5.37,24.68 5.98,24.67 5.96,24.68 5.98,24.67 5.95,24.67 5.98,24.68 59.2,24.68 59.15,24.67 59.18,24.67 59.19,24.68 59.15,24.68 52.56,24.67 2.71,24.68 2.75,24.67 2.71,24.67 2.74,24.68 2.72,24.68 9.94,24.67 33.36,24.67 33.38,24.68 33.35,24.68 33.36,24.67 33.39,24.68 80.83,24.67 167.92,24.67 167.88,24.68 167.91,24.68 167.89,24.67 129.94,19.1" /></g></g></svg>
