<?xml version="1.0" encoding="UTF-8" standalone="no"?>
<svg
   xmlns:dc="http://purl.org/dc/elements/1.1/"
   xmlns:cc="http://creativecommons.org/ns#"
   xmlns:rdf="http://www.w3.org/1999/02/22-rdf-syntax-ns#"
   xmlns:svg="http://www.w3.org/2000/svg"
   xmlns="http://www.w3.org/2000/svg"
   xmlns:sodipodi="http://sodipodi.sourceforge.net/DTD/sodipodi-0.dtd"
   xmlns:inkscape="http://www.inkscape.org/namespaces/inkscape"
   inkscape:version="1.0 (4035a4fb49, 2020-05-01)"
   sodipodi:docname="RainFR_RainExtr_EFFCI10_Sierra_ZoomIn.svg"
   viewBox="0 0 524 398.66666"
   height="398.66666"
   width="524"
   xml:space="preserve"
   id="svg3118"
   version="1.1"><metadata
     id="metadata3124"><rdf:RDF><cc:Work
         rdf:about=""><dc:format>image/svg+xml</dc:format><dc:type
           rdf:resource="http://purl.org/dc/dcmitype/StillImage" /><dc:title></dc:title></cc:Work></rdf:RDF></metadata><defs
     id="defs3122" /><sodipodi:namedview
     inkscape:current-layer="g3126"
     inkscape:window-maximized="0"
     inkscape:window-y="0"
     inkscape:window-x="0"
     inkscape:cy="199.33333"
     inkscape:cx="262"
     inkscape:zoom="1.8436455"
     showgrid="false"
     id="namedview3120"
     inkscape:window-height="510"
     inkscape:window-width="743"
     inkscape:pageshadow="2"
     inkscape:pageopacity="0"
     guidetolerance="10"
     gridtolerance="10"
     objecttolerance="10"
     borderopacity="1"
     bordercolor="#666666"
     pagecolor="#ffffff" /><g
     transform="matrix(1.3333333,0,0,-1.3333333,0,398.66667)"
     inkscape:label="ink_ext_XXXXXX"
     inkscape:groupmode="layer"
     id="g3126"><g
       transform="scale(0.1)"
       id="g3128"><path
         id="path3130"
         style="fill:#ffffff;fill-opacity:1;fill-rule:nonzero;stroke:none"
         d="M -30,0 H 4200 V 3165 H -30 Z" /><path
         id="path3132"
         style="fill:#ffffff;fill-opacity:1;fill-rule:nonzero;stroke:none"
         d="M -30,0 H 4200 V 3165 H -30 Z" /><path
         id="path3134"
         style="fill:#ffffff;fill-opacity:1;fill-rule:nonzero;stroke:none"
         d="M 525,457.5 H 3795 V 2925 H 525 Z" /><path
         id="path3136"
         style="fill:none;stroke:#929292;stroke-width:5.0025;stroke-linecap:butt;stroke-linejoin:round;stroke-miterlimit:10;stroke-dasharray:none;stroke-opacity:1"
         d="M 525,457.5 V 2925" /><path
         id="path3138"
         style="fill:none;stroke:#929292;stroke-width:5.0025;stroke-linecap:butt;stroke-linejoin:round;stroke-miterlimit:10;stroke-dasharray:none;stroke-opacity:1"
         d="M 1179,457.5 V 2925" /><path
         id="path3140"
         style="fill:none;stroke:#929292;stroke-width:5.0025;stroke-linecap:butt;stroke-linejoin:round;stroke-miterlimit:10;stroke-dasharray:none;stroke-opacity:1"
         d="M 1833,457.5 V 2925" /><path
         id="path3142"
         style="fill:none;stroke:#929292;stroke-width:5.0025;stroke-linecap:butt;stroke-linejoin:round;stroke-miterlimit:10;stroke-dasharray:none;stroke-opacity:1"
         d="M 2487,457.5 V 2925" /><path
         id="path3144"
         style="fill:none;stroke:#929292;stroke-width:5.0025;stroke-linecap:butt;stroke-linejoin:round;stroke-miterlimit:10;stroke-dasharray:none;stroke-opacity:1"
         d="M 3141,457.5 V 2925" /><path
         id="path3146"
         style="fill:none;stroke:#929292;stroke-width:5.0025;stroke-linecap:butt;stroke-linejoin:round;stroke-miterlimit:10;stroke-dasharray:none;stroke-opacity:1"
         d="M 3795,457.5 V 2925" /><path
         id="path3148"
         style="fill:none;stroke:#929292;stroke-width:5.0025;stroke-linecap:butt;stroke-linejoin:round;stroke-miterlimit:10;stroke-dasharray:none;stroke-opacity:1"
         d="M 3795,457.5 H 525" /><path
         id="path3150"
         style="fill:none;stroke:#929292;stroke-width:5.0025;stroke-linecap:butt;stroke-linejoin:round;stroke-miterlimit:10;stroke-dasharray:none;stroke-opacity:1"
         d="M 3795,580.875 H 525" /><path
         id="path3152"
         style="fill:none;stroke:#929292;stroke-width:5.0025;stroke-linecap:butt;stroke-linejoin:round;stroke-miterlimit:10;stroke-dasharray:none;stroke-opacity:1"
         d="M 3795,704.25 H 525" /><path
         id="path3154"
         style="fill:none;stroke:#929292;stroke-width:5.0025;stroke-linecap:butt;stroke-linejoin:round;stroke-miterlimit:10;stroke-dasharray:none;stroke-opacity:1"
         d="M 3795,827.625 H 525" /><path
         id="path3156"
         style="fill:none;stroke:#929292;stroke-width:5.0025;stroke-linecap:butt;stroke-linejoin:round;stroke-miterlimit:10;stroke-dasharray:none;stroke-opacity:1"
         d="M 3795,951 H 525" /><path
         id="path3158"
         style="fill:none;stroke:#929292;stroke-width:5.0025;stroke-linecap:butt;stroke-linejoin:round;stroke-miterlimit:10;stroke-dasharray:none;stroke-opacity:1"
         d="M 3795,1074.38 H 525" /><path
         id="path3160"
         style="fill:none;stroke:#929292;stroke-width:5.0025;stroke-linecap:butt;stroke-linejoin:round;stroke-miterlimit:10;stroke-dasharray:none;stroke-opacity:1"
         d="M 3795,1197.75 H 525" /><path
         id="path3162"
         style="fill:none;stroke:#929292;stroke-width:5.0025;stroke-linecap:butt;stroke-linejoin:round;stroke-miterlimit:10;stroke-dasharray:none;stroke-opacity:1"
         d="M 3795,1321.13 H 525" /><path
         id="path3164"
         style="fill:none;stroke:#929292;stroke-width:5.0025;stroke-linecap:butt;stroke-linejoin:round;stroke-miterlimit:10;stroke-dasharray:none;stroke-opacity:1"
         d="M 3795,1444.5 H 525" /><path
         id="path3166"
         style="fill:none;stroke:#929292;stroke-width:5.0025;stroke-linecap:butt;stroke-linejoin:round;stroke-miterlimit:10;stroke-dasharray:none;stroke-opacity:1"
         d="M 3795,1567.88 H 525" /><path
         id="path3168"
         style="fill:none;stroke:#929292;stroke-width:5.0025;stroke-linecap:butt;stroke-linejoin:round;stroke-miterlimit:10;stroke-dasharray:none;stroke-opacity:1"
         d="M 3795,1691.25 H 525" /><path
         id="path3170"
         style="fill:none;stroke:#929292;stroke-width:5.0025;stroke-linecap:butt;stroke-linejoin:round;stroke-miterlimit:10;stroke-dasharray:none;stroke-opacity:1"
         d="M 3795,1814.63 H 525" /><path
         id="path3172"
         style="fill:none;stroke:#929292;stroke-width:5.0025;stroke-linecap:butt;stroke-linejoin:round;stroke-miterlimit:10;stroke-dasharray:none;stroke-opacity:1"
         d="M 3795,1938 H 525" /><path
         id="path3174"
         style="fill:none;stroke:#929292;stroke-width:5.0025;stroke-linecap:butt;stroke-linejoin:round;stroke-miterlimit:10;stroke-dasharray:none;stroke-opacity:1"
         d="M 3795,2061.38 H 525" /><path
         id="path3176"
         style="fill:none;stroke:#929292;stroke-width:5.0025;stroke-linecap:butt;stroke-linejoin:round;stroke-miterlimit:10;stroke-dasharray:none;stroke-opacity:1"
         d="M 3795,2184.75 H 525" /><path
         id="path3178"
         style="fill:none;stroke:#929292;stroke-width:5.0025;stroke-linecap:butt;stroke-linejoin:round;stroke-miterlimit:10;stroke-dasharray:none;stroke-opacity:1"
         d="M 3795,2308.13 H 525" /><path
         id="path3180"
         style="fill:none;stroke:#929292;stroke-width:5.0025;stroke-linecap:butt;stroke-linejoin:round;stroke-miterlimit:10;stroke-dasharray:none;stroke-opacity:1"
         d="M 3795,2431.5 H 525" /><path
         id="path3182"
         style="fill:none;stroke:#929292;stroke-width:5.0025;stroke-linecap:butt;stroke-linejoin:round;stroke-miterlimit:10;stroke-dasharray:none;stroke-opacity:1"
         d="M 3795,2554.88 H 525" /><path
         id="path3184"
         style="fill:none;stroke:#929292;stroke-width:5.0025;stroke-linecap:butt;stroke-linejoin:round;stroke-miterlimit:10;stroke-dasharray:none;stroke-opacity:1"
         d="M 3795,2678.25 H 525" /><path
         id="path3186"
         style="fill:none;stroke:#929292;stroke-width:5.0025;stroke-linecap:butt;stroke-linejoin:round;stroke-miterlimit:10;stroke-dasharray:none;stroke-opacity:1"
         d="M 3795,2801.63 H 525" /><path
         id="path3188"
         style="fill:none;stroke:#929292;stroke-width:5.0025;stroke-linecap:butt;stroke-linejoin:round;stroke-miterlimit:10;stroke-dasharray:none;stroke-opacity:1"
         d="M 3795,2925 H 525" /><path
         id="path3190"
         style="fill:none;stroke:#262626;stroke-width:5.0025;stroke-linecap:square;stroke-linejoin:round;stroke-miterlimit:10;stroke-dasharray:none;stroke-opacity:1"
         d="M 525,457.5 H 3795" /><path
         id="path3192"
         style="fill:none;stroke:#262626;stroke-width:5.0025;stroke-linecap:square;stroke-linejoin:round;stroke-miterlimit:10;stroke-dasharray:none;stroke-opacity:1"
         d="M 525,2925 H 3795" /><path
         id="path3194"
         style="fill:none;stroke:#262626;stroke-width:5.0025;stroke-linecap:square;stroke-linejoin:round;stroke-miterlimit:10;stroke-dasharray:none;stroke-opacity:1"
         d="m 525,457.5 v 32.699" /><path
         id="path3196"
         style="fill:none;stroke:#262626;stroke-width:5.0025;stroke-linecap:square;stroke-linejoin:round;stroke-miterlimit:10;stroke-dasharray:none;stroke-opacity:1"
         d="m 1179,457.5 v 32.699" /><path
         id="path3198"
         style="fill:none;stroke:#262626;stroke-width:5.0025;stroke-linecap:square;stroke-linejoin:round;stroke-miterlimit:10;stroke-dasharray:none;stroke-opacity:1"
         d="m 1833,457.5 v 32.699" /><path
         id="path3200"
         style="fill:none;stroke:#262626;stroke-width:5.0025;stroke-linecap:square;stroke-linejoin:round;stroke-miterlimit:10;stroke-dasharray:none;stroke-opacity:1"
         d="m 2487,457.5 v 32.699" /><path
         id="path3202"
         style="fill:none;stroke:#262626;stroke-width:5.0025;stroke-linecap:square;stroke-linejoin:round;stroke-miterlimit:10;stroke-dasharray:none;stroke-opacity:1"
         d="m 3141,457.5 v 32.699" /><path
         id="path3204"
         style="fill:none;stroke:#262626;stroke-width:5.0025;stroke-linecap:square;stroke-linejoin:round;stroke-miterlimit:10;stroke-dasharray:none;stroke-opacity:1"
         d="m 3795,457.5 v 32.699" /><path
         id="path3206"
         style="fill:none;stroke:#262626;stroke-width:5.0025;stroke-linecap:square;stroke-linejoin:round;stroke-miterlimit:10;stroke-dasharray:none;stroke-opacity:1"
         d="m 525,2925 v -32.7" /><path
         id="path3208"
         style="fill:none;stroke:#262626;stroke-width:5.0025;stroke-linecap:square;stroke-linejoin:round;stroke-miterlimit:10;stroke-dasharray:none;stroke-opacity:1"
         d="m 1179,2925 v -32.7" /><path
         id="path3210"
         style="fill:none;stroke:#262626;stroke-width:5.0025;stroke-linecap:square;stroke-linejoin:round;stroke-miterlimit:10;stroke-dasharray:none;stroke-opacity:1"
         d="m 1833,2925 v -32.7" /><path
         id="path3212"
         style="fill:none;stroke:#262626;stroke-width:5.0025;stroke-linecap:square;stroke-linejoin:round;stroke-miterlimit:10;stroke-dasharray:none;stroke-opacity:1"
         d="m 2487,2925 v -32.7" /><path
         id="path3214"
         style="fill:none;stroke:#262626;stroke-width:5.0025;stroke-linecap:square;stroke-linejoin:round;stroke-miterlimit:10;stroke-dasharray:none;stroke-opacity:1"
         d="m 3141,2925 v -32.7" /><path
         id="path3216"
         style="fill:none;stroke:#262626;stroke-width:5.0025;stroke-linecap:square;stroke-linejoin:round;stroke-miterlimit:10;stroke-dasharray:none;stroke-opacity:1"
         d="m 3795,2925 v -32.7" /><g
         transform="scale(10)"
         id="g3218"><text
           id="text3222"
           style="font-variant:normal;font-weight:normal;font-size:15.9998px;font-family:Helvetica;-inkscape-font-specification:Helvetica;writing-mode:lr-tb;fill:#262626;fill-opacity:1;fill-rule:nonzero;stroke:none"
           transform="matrix(1,0,0,-1,48,25.55)"><tspan
             id="tspan3220"
             sodipodi:role="line"
             y="0"
             x="0 60.9002 69.796089 126.30034 135.19623 191.70049 200.59637 257.10062 265.99652 318.00082 326.89673 335.7926">020406080100</tspan></text><text
           id="text3226"
           style="font-variant:normal;font-weight:normal;font-size:17.6002px;font-family:Helvetica;-inkscape-font-specification:Helvetica;writing-mode:lr-tb;fill:#262626;fill-opacity:1;fill-rule:nonzero;stroke:none"
           transform="matrix(1,0,0,-1,119.625,3.55)"><tspan
             id="tspan3224"
             sodipodi:role="line"
             y="0"
             x="0 12.707344 22.493055 26.400299 36.186012 41.078865 50.864578 54.771824 58.679066 63.571922 72.372025 82.15773 86.06498 95.850693 105.6364 114.4365 119.32935 124.22221 138.88318 153.54414 158.437 168.22272 178.00842 187.79413">Rainfall values [mm/12h]</tspan></text></g><path
         id="path3228"
         style="fill:none;stroke:#262626;stroke-width:5.0025;stroke-linecap:square;stroke-linejoin:round;stroke-miterlimit:10;stroke-dasharray:none;stroke-opacity:1"
         d="M 525,457.5 V 2925" /><path
         id="path3230"
         style="fill:none;stroke:#262626;stroke-width:5.0025;stroke-linecap:square;stroke-linejoin:round;stroke-miterlimit:10;stroke-dasharray:none;stroke-opacity:1"
         d="M 3795,457.5 V 2925" /><path
         id="path3232"
         style="fill:none;stroke:#262626;stroke-width:5.0025;stroke-linecap:square;stroke-linejoin:round;stroke-miterlimit:10;stroke-dasharray:none;stroke-opacity:1"
         d="m 525,457.5 h 32.699" /><path
         id="path3234"
         style="fill:none;stroke:#262626;stroke-width:5.0025;stroke-linecap:square;stroke-linejoin:round;stroke-miterlimit:10;stroke-dasharray:none;stroke-opacity:1"
         d="m 525,580.875 h 32.699" /><path
         id="path3236"
         style="fill:none;stroke:#262626;stroke-width:5.0025;stroke-linecap:square;stroke-linejoin:round;stroke-miterlimit:10;stroke-dasharray:none;stroke-opacity:1"
         d="m 525,704.25 h 32.699" /><path
         id="path3238"
         style="fill:none;stroke:#262626;stroke-width:5.0025;stroke-linecap:square;stroke-linejoin:round;stroke-miterlimit:10;stroke-dasharray:none;stroke-opacity:1"
         d="m 525,827.625 h 32.699" /><path
         id="path3240"
         style="fill:none;stroke:#262626;stroke-width:5.0025;stroke-linecap:square;stroke-linejoin:round;stroke-miterlimit:10;stroke-dasharray:none;stroke-opacity:1"
         d="m 525,951 h 32.699" /><path
         id="path3242"
         style="fill:none;stroke:#262626;stroke-width:5.0025;stroke-linecap:square;stroke-linejoin:round;stroke-miterlimit:10;stroke-dasharray:none;stroke-opacity:1"
         d="m 525,1074.38 h 32.699" /><path
         id="path3244"
         style="fill:none;stroke:#262626;stroke-width:5.0025;stroke-linecap:square;stroke-linejoin:round;stroke-miterlimit:10;stroke-dasharray:none;stroke-opacity:1"
         d="m 525,1197.75 h 32.699" /><path
         id="path3246"
         style="fill:none;stroke:#262626;stroke-width:5.0025;stroke-linecap:square;stroke-linejoin:round;stroke-miterlimit:10;stroke-dasharray:none;stroke-opacity:1"
         d="m 525,1321.13 h 32.699" /><path
         id="path3248"
         style="fill:none;stroke:#262626;stroke-width:5.0025;stroke-linecap:square;stroke-linejoin:round;stroke-miterlimit:10;stroke-dasharray:none;stroke-opacity:1"
         d="m 525,1444.5 h 32.699" /><path
         id="path3250"
         style="fill:none;stroke:#262626;stroke-width:5.0025;stroke-linecap:square;stroke-linejoin:round;stroke-miterlimit:10;stroke-dasharray:none;stroke-opacity:1"
         d="m 525,1567.88 h 32.699" /><path
         id="path3252"
         style="fill:none;stroke:#262626;stroke-width:5.0025;stroke-linecap:square;stroke-linejoin:round;stroke-miterlimit:10;stroke-dasharray:none;stroke-opacity:1"
         d="m 525,1691.25 h 32.699" /><path
         id="path3254"
         style="fill:none;stroke:#262626;stroke-width:5.0025;stroke-linecap:square;stroke-linejoin:round;stroke-miterlimit:10;stroke-dasharray:none;stroke-opacity:1"
         d="m 525,1814.63 h 32.699" /><path
         id="path3256"
         style="fill:none;stroke:#262626;stroke-width:5.0025;stroke-linecap:square;stroke-linejoin:round;stroke-miterlimit:10;stroke-dasharray:none;stroke-opacity:1"
         d="m 525,1938 h 32.699" /><path
         id="path3258"
         style="fill:none;stroke:#262626;stroke-width:5.0025;stroke-linecap:square;stroke-linejoin:round;stroke-miterlimit:10;stroke-dasharray:none;stroke-opacity:1"
         d="m 525,2061.38 h 32.699" /><path
         id="path3260"
         style="fill:none;stroke:#262626;stroke-width:5.0025;stroke-linecap:square;stroke-linejoin:round;stroke-miterlimit:10;stroke-dasharray:none;stroke-opacity:1"
         d="m 525,2184.75 h 32.699" /><path
         id="path3262"
         style="fill:none;stroke:#262626;stroke-width:5.0025;stroke-linecap:square;stroke-linejoin:round;stroke-miterlimit:10;stroke-dasharray:none;stroke-opacity:1"
         d="m 525,2308.13 h 32.699" /><path
         id="path3264"
         style="fill:none;stroke:#262626;stroke-width:5.0025;stroke-linecap:square;stroke-linejoin:round;stroke-miterlimit:10;stroke-dasharray:none;stroke-opacity:1"
         d="m 525,2431.5 h 32.699" /><path
         id="path3266"
         style="fill:none;stroke:#262626;stroke-width:5.0025;stroke-linecap:square;stroke-linejoin:round;stroke-miterlimit:10;stroke-dasharray:none;stroke-opacity:1"
         d="m 525,2554.88 h 32.699" /><path
         id="path3268"
         style="fill:none;stroke:#262626;stroke-width:5.0025;stroke-linecap:square;stroke-linejoin:round;stroke-miterlimit:10;stroke-dasharray:none;stroke-opacity:1"
         d="m 525,2678.25 h 32.699" /><path
         id="path3270"
         style="fill:none;stroke:#262626;stroke-width:5.0025;stroke-linecap:square;stroke-linejoin:round;stroke-miterlimit:10;stroke-dasharray:none;stroke-opacity:1"
         d="m 525,2801.63 h 32.699" /><path
         id="path3272"
         style="fill:none;stroke:#262626;stroke-width:5.0025;stroke-linecap:square;stroke-linejoin:round;stroke-miterlimit:10;stroke-dasharray:none;stroke-opacity:1"
         d="m 525,2925 h 32.699" /><path
         id="path3274"
         style="fill:none;stroke:#262626;stroke-width:5.0025;stroke-linecap:square;stroke-linejoin:round;stroke-miterlimit:10;stroke-dasharray:none;stroke-opacity:1"
         d="m 3795,457.5 h -32.7" /><path
         id="path3276"
         style="fill:none;stroke:#262626;stroke-width:5.0025;stroke-linecap:square;stroke-linejoin:round;stroke-miterlimit:10;stroke-dasharray:none;stroke-opacity:1"
         d="m 3795,580.875 h -32.7" /><path
         id="path3278"
         style="fill:none;stroke:#262626;stroke-width:5.0025;stroke-linecap:square;stroke-linejoin:round;stroke-miterlimit:10;stroke-dasharray:none;stroke-opacity:1"
         d="m 3795,704.25 h -32.7" /><path
         id="path3280"
         style="fill:none;stroke:#262626;stroke-width:5.0025;stroke-linecap:square;stroke-linejoin:round;stroke-miterlimit:10;stroke-dasharray:none;stroke-opacity:1"
         d="m 3795,827.625 h -32.7" /><path
         id="path3282"
         style="fill:none;stroke:#262626;stroke-width:5.0025;stroke-linecap:square;stroke-linejoin:round;stroke-miterlimit:10;stroke-dasharray:none;stroke-opacity:1"
         d="m 3795,951 h -32.7" /><path
         id="path3284"
         style="fill:none;stroke:#262626;stroke-width:5.0025;stroke-linecap:square;stroke-linejoin:round;stroke-miterlimit:10;stroke-dasharray:none;stroke-opacity:1"
         d="m 3795,1074.38 h -32.7" /><path
         id="path3286"
         style="fill:none;stroke:#262626;stroke-width:5.0025;stroke-linecap:square;stroke-linejoin:round;stroke-miterlimit:10;stroke-dasharray:none;stroke-opacity:1"
         d="m 3795,1197.75 h -32.7" /><path
         id="path3288"
         style="fill:none;stroke:#262626;stroke-width:5.0025;stroke-linecap:square;stroke-linejoin:round;stroke-miterlimit:10;stroke-dasharray:none;stroke-opacity:1"
         d="m 3795,1321.13 h -32.7" /><path
         id="path3290"
         style="fill:none;stroke:#262626;stroke-width:5.0025;stroke-linecap:square;stroke-linejoin:round;stroke-miterlimit:10;stroke-dasharray:none;stroke-opacity:1"
         d="m 3795,1444.5 h -32.7" /><path
         id="path3292"
         style="fill:none;stroke:#262626;stroke-width:5.0025;stroke-linecap:square;stroke-linejoin:round;stroke-miterlimit:10;stroke-dasharray:none;stroke-opacity:1"
         d="m 3795,1567.88 h -32.7" /><path
         id="path3294"
         style="fill:none;stroke:#262626;stroke-width:5.0025;stroke-linecap:square;stroke-linejoin:round;stroke-miterlimit:10;stroke-dasharray:none;stroke-opacity:1"
         d="m 3795,1691.25 h -32.7" /><path
         id="path3296"
         style="fill:none;stroke:#262626;stroke-width:5.0025;stroke-linecap:square;stroke-linejoin:round;stroke-miterlimit:10;stroke-dasharray:none;stroke-opacity:1"
         d="m 3795,1814.63 h -32.7" /><path
         id="path3298"
         style="fill:none;stroke:#262626;stroke-width:5.0025;stroke-linecap:square;stroke-linejoin:round;stroke-miterlimit:10;stroke-dasharray:none;stroke-opacity:1"
         d="m 3795,1938 h -32.7" /><path
         id="path3300"
         style="fill:none;stroke:#262626;stroke-width:5.0025;stroke-linecap:square;stroke-linejoin:round;stroke-miterlimit:10;stroke-dasharray:none;stroke-opacity:1"
         d="m 3795,2061.38 h -32.7" /><path
         id="path3302"
         style="fill:none;stroke:#262626;stroke-width:5.0025;stroke-linecap:square;stroke-linejoin:round;stroke-miterlimit:10;stroke-dasharray:none;stroke-opacity:1"
         d="m 3795,2184.75 h -32.7" /><path
         id="path3304"
         style="fill:none;stroke:#262626;stroke-width:5.0025;stroke-linecap:square;stroke-linejoin:round;stroke-miterlimit:10;stroke-dasharray:none;stroke-opacity:1"
         d="m 3795,2308.13 h -32.7" /><path
         id="path3306"
         style="fill:none;stroke:#262626;stroke-width:5.0025;stroke-linecap:square;stroke-linejoin:round;stroke-miterlimit:10;stroke-dasharray:none;stroke-opacity:1"
         d="m 3795,2431.5 h -32.7" /><path
         id="path3308"
         style="fill:none;stroke:#262626;stroke-width:5.0025;stroke-linecap:square;stroke-linejoin:round;stroke-miterlimit:10;stroke-dasharray:none;stroke-opacity:1"
         d="m 3795,2554.88 h -32.7" /><path
         id="path3310"
         style="fill:none;stroke:#262626;stroke-width:5.0025;stroke-linecap:square;stroke-linejoin:round;stroke-miterlimit:10;stroke-dasharray:none;stroke-opacity:1"
         d="m 3795,2678.25 h -32.7" /><path
         id="path3312"
         style="fill:none;stroke:#262626;stroke-width:5.0025;stroke-linecap:square;stroke-linejoin:round;stroke-miterlimit:10;stroke-dasharray:none;stroke-opacity:1"
         d="m 3795,2801.63 h -32.7" /><path
         id="path3314"
         style="fill:none;stroke:#262626;stroke-width:5.0025;stroke-linecap:square;stroke-linejoin:round;stroke-miterlimit:10;stroke-dasharray:none;stroke-opacity:1"
         d="m 3795,2925 h -32.7" /><g
         transform="scale(10)"
         id="g3316"><text
           id="text3360"
           style="font-variant:normal;font-weight:normal;font-size:15.9998px;font-family:Helvetica;-inkscape-font-specification:Helvetica;writing-mode:lr-tb;fill:#262626;fill-opacity:1;fill-rule:nonzero;stroke:none"
           transform="matrix(1,0,0,-1,38.3,40.125)"><tspan
             id="tspan3318"
             y="0"
             x="0">0</tspan><tspan
             id="tspan3320"
             y="-12.3375"
             x="4.5"> </tspan><tspan
             id="tspan3322"
             sodipodi:role="line"
             y="-24.674999"
             x="-9 -0.1041112">10</tspan><tspan
             id="tspan3324"
             y="-37.012501"
             x="4.5"> </tspan><tspan
             id="tspan3326"
             sodipodi:role="line"
             y="-49.349998"
             x="-9 -0.1041112">20</tspan><tspan
             id="tspan3328"
             y="-61.6875"
             x="4.5"> </tspan><tspan
             id="tspan3330"
             sodipodi:role="line"
             y="-74.025002"
             x="-9 -0.1041112">30</tspan><tspan
             id="tspan3332"
             y="-86.362503"
             x="4.5"> </tspan><tspan
             id="tspan3334"
             sodipodi:role="line"
             y="-98.699997"
             x="-9 -0.1041112">40</tspan><tspan
             id="tspan3336"
             y="-111.0375"
             x="4.5"> </tspan><tspan
             id="tspan3338"
             sodipodi:role="line"
             y="-123.375"
             x="-9 -0.1041112">50</tspan><tspan
             id="tspan3340"
             y="-135.71249"
             x="4.5"> </tspan><tspan
             id="tspan3342"
             sodipodi:role="line"
             y="-148.05"
             x="-9 -0.1041112">60</tspan><tspan
             id="tspan3344"
             y="-160.3875"
             x="4.5"> </tspan><tspan
             id="tspan3346"
             sodipodi:role="line"
             y="-172.72501"
             x="-9 -0.1041112">70</tspan><tspan
             id="tspan3348"
             y="-185.0625"
             x="4.5"> </tspan><tspan
             id="tspan3350"
             sodipodi:role="line"
             y="-197.39999"
             x="-9 -0.1041112">80</tspan><tspan
             id="tspan3352"
             y="-209.7375"
             x="4.5"> </tspan><tspan
             id="tspan3354"
             sodipodi:role="line"
             y="-222.075"
             x="-9 -0.1041112">90</tspan><tspan
             id="tspan3356"
             y="-234.41251"
             x="4.5"> </tspan><tspan
             id="tspan3358"
             sodipodi:role="line"
             y="-246.75"
             x="-18 -9.1041117 -0.2082224">100</tspan></text><text
           id="text3364"
           style="font-variant:normal;font-weight:normal;font-size:17.6002px;font-family:Helvetica;-inkscape-font-specification:Helvetica;writing-mode:lr-tb;fill:#262626;fill-opacity:1;fill-rule:nonzero;stroke:none"
           transform="matrix(0,1,1,0,13.55,109.5)"><tspan
             id="tspan3362"
             sodipodi:role="line"
             y="0"
             x="0 11.739333 21.525045 27.385912 36.186012 45.971722 55.757435 60.650288 64.557533 68.464775 78.250488 87.050591 91.943443 97.804314 113.45089">Percentiles (%)</tspan></text></g><path
         id="path3366"
         style="fill:none;stroke:#edb120;stroke-width:30;stroke-linecap:butt;stroke-linejoin:round;stroke-miterlimit:10;stroke-dasharray:none;stroke-opacity:1"
         d="m 528.629,482.176 0.527,24.676 1.078,24.671 1.11,24.676 2.258,24.676 3.691,24.676 3.695,24.676 4.547,24.671 5.754,24.676 5.758,24.676 4.84,24.676 3.465,24.676 3.464,24.671 6.899,24.676 12.855,24.676 12.817,24.676 11.215,24.676 7.918,24.671 7.875,24.676 6.152,24.676 2.062,24.676 2.024,24.674 1.73,24.67 0.887,24.68 0.848,24.68 0.718,24.67 0.235,24.68 0.254,24.67 0.691,24.67 2.356,24.68 2.351,24.68 1.996,24.67 0.43,24.67 0.387,24.68 0.625,24.68 1.761,24.67 1.77,24.68 2.055,24.67 3.921,24.67 3.961,24.68 3.758,24.68 1.867,24.67 1.86,24.67 1.742,24.68 0.098,24.68 0.058,24.67 0.235,24.68 3.757,24.67 3.793,24.67 3.758,24.68 2.488,24.68 2.485,24.67 2.519,24.67 1.043,24.68 1.02,24.68 1.012,24.67 1.859,24.68 1.965,24.67 1.929,24.67 3.504,24.68 3.688,24.68 3.668,24.67 0.781,24.67 0.395,24.68 0.39,24.68 3.731,24.67 4.281,24.68 4.32,24.67 3.563,24.67 3.398,24.68 3.403,24.68 18.308,24.67 22.305,24.67 22.336,24.68 11.668,24.68 8.242,24.67 8.273,24.68 7.59,24.67 7.36,24.67 7.355,24.68 7.027,24.68 6.93,24.67 6.902,24.67 4.942,24.68 3.922,24.68 3.922,24.67 13.41,24.68 18.765,24.67 18.805,24.67 27.402,24.68 33.024,24.68 33.035,24.67 77.53,24.67 110.36,24.68 110.36,24.68 376.54,24.67 598.35,24.68 598.34,24.67 290.12,24.67" /><path
         id="path3368"
         style="fill:none;stroke:#00ff00;stroke-width:30;stroke-linecap:butt;stroke-linejoin:round;stroke-miterlimit:10;stroke-dasharray:none;stroke-opacity:1"
         d="m 539.422,482.176 1.207,24.676 2.484,24.671 2.489,24.676 4.711,24.676 7.417,24.676 7.395,24.676 16.574,24.671 28.942,24.676 28.972,24.676 18.934,24.676 3.531,24.676 3.531,24.671 3.438,24.676 3.367,24.676 3.367,24.676 5.332,24.676 9.254,24.671 9.285,24.676 6.832,24.676 1.207,24.676 1.18,24.674 1.41,24.67 1.895,24.68 1.863,24.68 2.024,24.67 2.39,24.68 2.387,24.67 2.519,24.67 3.008,24.68 3.008,24.68 3.301,24.67 4.613,24.67 4.641,24.68 4.515,24.68 3.793,24.67 3.828,24.68 4.02,24.67 5.723,24.67 5.722,24.68 5.528,24.68 3.597,24.67 3.563,24.67 3.594,24.68 4.058,24.68 4.02,24.67 4.027,24.68 3.066,24.67 3.047,24.67 3.074,24.68 0.196,24.68 0.164,24.67 0.195,24.67 1.801,24.68 1.859,24.68 1.868,24.67 0.976,24.68 0.949,24.67 0.946,24.67 5.363,24.68 5.789,24.68 5.793,24.67 3.949,24.67 3.731,24.68 3.726,24.68 16.156,24.67 18.411,24.68 18.414,24.67 7.16,24.67 4.703,24.68 4.711,24.68 6.18,24.67 6.578,24.67 6.57,24.68 8.699,24.68 9.317,24.67 9.351,24.68 11.481,24.67 12.265,24.67 12.262,24.68 9.742,24.68 8.6,24.67 8.63,24.67 6.12,24.68 4.9,24.68 4.88,24.67 4.31,24.68 3.99,24.67 3.99,24.67 48.3,24.68 77.07,24.68 77.08,24.67 115.13,24.67 143.16,24.68 143.2,24.68 528.88,24.67 850.37,24.68 760.37,22.06" /><path
         id="path3370"
         style="fill:none;stroke:#7e2f8e;stroke-width:30;stroke-linecap:butt;stroke-linejoin:round;stroke-miterlimit:10;stroke-dasharray:none;stroke-opacity:1"
         d="m 548.902,482.176 1.567,24.676 3.211,24.671 3.203,24.676 7.328,24.676 12.262,24.676 12.226,24.676 24.883,24.671 41.957,24.676 41.984,24.676 28.223,24.676 6.996,24.676 7.028,24.671 5.109,24.676 1.828,24.676 1.801,24.676 1.566,24.676 1.11,24.671 1.113,24.676 1.019,24.676 0.817,24.676 0.816,24.674 1.207,24.67 2.289,24.68 2.289,24.68 4.379,24.67 10.86,24.68 10.89,24.67 8.961,24.67 1.891,24.68 1.867,24.68 1.734,24.67 1.047,24.67 1.075,24.68 1.8,24.68 5.918,24.67 5.953,24.68 6.278,24.67 8.504,24.67 8.5,24.68 7.949,24.68 2.258,24.67 2.25,24.67 2.226,24.68 1.375,24.68 1.403,24.67 1.339,24.68 0.098,24.67 0.07,24.67 0.094,24.68 7.195,24.68 7.192,24.67 7.199,24.67 4.117,24.68 4.02,24.68 4.027,24.67 0.488,24.68 0.293,24.67 0.293,24.67 7.231,24.68 7.914,24.68 7.91,24.67 15.699,24.67 16.805,24.68 16.777,24.68 10.563,24.67 9.418,24.68 9.453,24.67 2.547,24.67 1.043,24.68 1.053,24.68 6.01,24.67 7.33,24.67 7.32,24.68 12.88,24.68 14.69,24.67 14.72,24.68 11.66,24.67 10.57,24.67 10.56,24.68 9.65,24.68 9.22,24.67 9.22,24.67 4.52,24.68 2.12,24.68 2.16,24.67 2.16,24.68 2.12,24.67 2.16,24.67 56.47,24.68 91.79,24.68 91.75,24.67 148.66,24.67 190.55,24.68 190.54,24.68 589.87,24.67 922.66,24.68 373.34,9.98" /><path
         id="path3372"
         style="fill:none;stroke:#00ffff;stroke-width:30;stroke-linecap:butt;stroke-linejoin:round;stroke-miterlimit:10;stroke-dasharray:none;stroke-opacity:1"
         d="m 563.16,482.176 3.074,24.676 6.309,24.671 6.316,24.676 9.118,24.676 12.527,24.676 12.523,24.676 26.453,24.671 45.458,24.676 45.421,24.676 28.215,24.676 1.739,24.676 1.695,24.671 2.129,24.676 2.843,24.676 2.813,24.676 4.641,24.676 8.273,24.671 8.273,24.676 6.051,24.676 0.918,24.676 0.914,24.674 2.84,24.67 7.856,24.68 7.875,24.68 6.117,24.67 0.625,24.68 0.613,24.67 1.801,24.67 6.219,24.68 6.207,24.68 5.5,24.67 2.347,24.67 2.391,24.68 2.941,24.68 6.375,24.67 6.344,24.68 6.016,24.67 3.57,24.67 3.563,24.68 3.562,24.68 3.563,24.67 3.57,24.67 3.594,24.68 4.152,24.68 4.187,24.67 4.184,24.68 4.352,24.67 4.347,24.67 4.352,24.68 12.883,24.68 12.918,24.67 12.882,24.67 0.75,24.68 0.36,24.68 0.359,24.67 4.449,24.68 4.739,24.67 4.711,24.67 6.863,24.68 7.066,24.68 7.094,24.67 12.69,24.67 13.51,24.68 13.47,24.68 6.44,24.67 5.17,24.68 5.13,24.67 3.63,24.67 3.3,24.68 3.3,24.68 7,24.67 8.01,24.67 8.01,24.68 3.67,24.68 2.29,24.67 2.29,24.68 17.69,24.67 23.44,24.67 23.48,24.68 13.31,24.68 8.9,24.67 8.89,24.67 3.89,24.68 1.4,24.68 1.41,24.67 4.72,24.68 6.6,24.67 6.6,24.67 57.23,24.68 90.12,24.68 90.12,24.67 148.75,24.67 191.98,24.68 191.95,24.68 620.16,24.67 976.98,24.68 216.86,5.47" /><path
         id="path3374"
         style="fill:none;stroke:#0072bd;stroke-width:30;stroke-linecap:butt;stroke-linejoin:round;stroke-miterlimit:10;stroke-dasharray:none;stroke-opacity:1"
         d="m 577.844,482.176 4.383,24.676 9.019,24.671 9.031,24.676 13.371,24.676 18.571,24.676 18.547,24.676 32.566,24.671 51.57,24.676 51.532,24.676 32.476,24.676 3.039,24.676 3.074,24.671 3.989,24.676 5.625,24.676 5.625,24.676 5.363,24.676 4.738,24.671 4.778,24.676 4.578,24.676 4.117,24.676 4.125,24.674 3.824,24.67 3.039,24.68 3.074,24.68 2.911,24.67 2.586,24.68 2.609,24.67 4.848,24.67 13.273,24.68 13.246,24.68 11.309,24.67 2.453,24.67 2.488,24.68 3.789,24.68 11.317,24.67 11.281,24.68 10.558,24.67 5.235,24.67 5.265,24.68 4.84,24.68 1.242,24.67 1.211,24.67 1.469,24.68 5.106,24.68 5.136,24.67 5.09,24.68 4.23,24.67 4.18,24.67 4.22,24.68 5.23,24.68 5.27,24.67 5.23,24.67 0.49,24.68 0.36,24.68 0.32,24.67 0.2,24.68 0.16,24.67 0.2,24.67 21.29,24.68 23.44,24.68 23.42,24.67 6.86,24.67 4.62,24.68 4.57,24.68 9.59,24.67 10.49,24.68 10.5,24.67 10.24,24.67 10.16,24.68 10.21,24.68 14.42,24.67 15.53,24.67 15.56,24.68 19.69,24.68 21.02,24.67 21.06,24.68 6.81,24.67 1.47,24.67 1.46,24.68 1.64,24.68 1.7,24.67 1.73,24.67 2.79,24.68 3.3,24.68 3.34,24.67 16.64,24.68 24.23,24.67 24.23,24.67 66.74,24.68 94.41,24.68 94.37,24.67 153.98,24.67 197.9,24.68 197.9,24.68 698.08,24.67 914.75,20.24" /><path
         id="path3376"
         style="fill:none;stroke:#ff00ff;stroke-width:30;stroke-linecap:butt;stroke-linejoin:round;stroke-miterlimit:10;stroke-dasharray:none;stroke-opacity:1"
         d="m 600.375,482.176 7.777,24.676 16.028,24.671 16.019,24.676 16.156,24.676 16.321,24.676 16.347,24.676 32.762,24.671 55.074,24.676 55.063,24.676 36.914,24.676 8.934,24.676 8.925,24.671 8.731,24.676 8.371,24.676 8.367,24.676 10.109,24.676 13.598,24.671 13.578,24.676 10.492,24.676 3.5,24.676 3.465,24.674 3.078,24.67 1.86,24.68 1.894,24.68 1.508,24.67 0.391,24.68 0.39,24.67 4.649,24.67 20.464,24.68 20.51,24.68 19,24.67 12.52,24.67 12.49,24.68 11.15,24.68 3.73,24.67 3.73,24.68 3.46,24.67 1.61,24.67 1.6,24.68 1.96,24.68 5.46,24.67 5.46,24.67 5.23,24.68 1.74,24.68 1.7,24.67 1.69,24.68 1.12,24.67 1.08,24.67 1.11,24.68 1.76,24.68 1.8,24.67 1.77,24.67 2.49,24.68 2.52,24.68 2.48,24.67 4.42,24.68 4.54,24.67 4.51,24.67 4.18,24.68 4.13,24.68 4.15,24.67 13.18,24.67 14.46,24.68 14.41,24.68 8.48,24.67 7.38,24.68 7.39,24.67 38.03,24.67 44.8,24.68 44.83,24.68 9.94,24.67 0.56,24.67 0.52,24.68 9.06,24.68 11.77,24.67 11.81,24.68 13.5,24.67 14.16,24.67 14.19,24.68 6.64,24.68 3.4,24.67 3.37,24.67 41.7,24.68 60.81,24.68 60.83,24.67 30.63,24.68 13.41,24.67 13.41,24.67 42.31,24.68 61.19,24.68 61.14,24.67 123.42,24.67 169.32,24.68 169.32,24.68 810.73,24.67 689.05,12.64" /><path
         id="path3378"
         style="fill:none;stroke:#d95319;stroke-width:30;stroke-linecap:butt;stroke-linejoin:round;stroke-miterlimit:10;stroke-dasharray:none;stroke-opacity:1"
         d="m 611.266,482.176 17.945,24.676 37.09,24.671 37.043,24.676 21.457,24.676 2.746,24.676 2.773,24.676 32.602,24.671 73.09,24.676 73.117,24.676 49.078,24.676 12.164,24.676 12.168,24.671 8.438,24.676 2.023,24.676 2.031,24.676 8.499,24.676 21.55,24.671 21.51,24.676 15.12,24.676 0.26,24.676 0.26,24.674 0.81,24.67 2.36,24.68 2.32,24.68 1.86,24.67 0.36,24.68 0.33,24.67 1.34,24.67 4.91,24.68 4.91,24.68 5.72,24.67 9.38,24.67 9.38,24.68 8.54,24.68 3.63,24.67 3.63,24.68 4.06,24.67 7.16,24.67 7.19,24.68 7.49,24.68 10.3,24.67 10.3,24.67 9.81,24.68 2.13,24.68 2.12,24.67 2.26,24.68 6.5,24.67 6.54,24.67 6.51,24.68 5.3,24.68 5.33,24.67 5.29,24.67 0.63,24.68 0.49,24.68 0.46,24.67 17.19,24.68 18.32,24.67 18.28,24.67 3.24,24.68 1.73,24.68 1.73,24.67 0.92,24.67 0.81,24.68 0.79,24.68 8.14,24.67 9.45,24.68 9.45,24.67 28.45,24.67 32.67,24.68 32.63,24.68 18.58,24.67 14.77,24.67 14.79,24.68 12.26,24.68 11.44,24.67 11.49,24.68 20.56,24.67 23.97,24.67 24,24.68 31.42,24.68 34.7,24.67 34.69,24.67 49.48,24.68 56.83,24.68 56.84,24.67 54.54,24.68 53.24,24.67 53.26,24.67 53.21,24.68 53.16,24.68 53.21,24.67 79.62,24.67 99.08,24.68 99.09,24.68 1019.25,24.67 356.53,4.93" /><path
         id="path3380"
         style="fill:none;stroke:#edb120;stroke-width:30;stroke-linecap:butt;stroke-linejoin:bevel;stroke-miterlimit:10;stroke-dasharray:30, 30;stroke-dashoffset:0;stroke-opacity:1"
         d="m 525,482.176 v 74.023 l 0.164,24.676 0.293,24.676 0.332,24.676 0.613,24.671 1.02,24.676 0.976,24.676 1.274,24.676 1.605,24.676 1.637,24.671 1.313,24.676 0.652,24.676 0.68,24.676 0.527,24.676 0.195,24.671 0.231,24.676 0.457,24.676 1.082,24.676 1.109,24.674 1.141,24.67 1.379,24.68 1.371,24.68 1.043,24.67 0.097,24.68 0.098,24.67 0.137,24.67 0.262,24.68 0.261,24.68 0.254,24.67 0.106,24.67 0.097,24.68 0.36,24.68 1.695,24.67 1.676,24.68 1.535,24.67 0.129,24.67 0.164,24.68 0.226,24.68 0.914,24.67 0.954,24.67 0.914,24.68 0.652,24.68 0.621,24.67 0.625,24.68 0.359,24.67 0.321,24.67 0.332,24.68 1.469,24.68 1.472,24.67 1.504,24.67 0.75,24.68 0.789,24.68 0.75,24.67 1.18,24.68 1.207,24.67 1.242,24.67 0.723,24.68 0.687,24.68 0.653,24.67 0.886,24.67 0.914,24.68 0.914,24.68 0.364,24.67 0.261,24.68 0.254,24.67 0.789,24.67 0.883,24.68 0.914,24.68 2.258,24.67 2.613,24.67 2.653,24.68 1.14,24.68 0.719,24.67 0.692,24.68 1.441,24.67 1.695,24.67 1.699,24.68 11.321,24.68 15.492,24.67 15.504,24.67 10.004,24.68 7.23,24.68 7.223,24.67 3.144,24.68 0.778,24.67 0.82,24.67 18.051,24.68 29.265,24.68 29.301,24.67 66.676,24.67 94.207,24.68 94.18,24.68 120.036,24.67 141.53,24.68 141.53,24.67 68.6,24.67" /><path
         id="path3382"
         style="fill:none;stroke:#00ff00;stroke-width:30;stroke-linecap:butt;stroke-linejoin:bevel;stroke-miterlimit:10;stroke-dasharray:30, 30;stroke-dashoffset:0;stroke-opacity:1"
         d="m 526.508,482.176 1.043,24.676 2.16,24.671 2.16,24.676 3.395,24.676 4.875,24.676 4.871,24.676 7.949,24.671 12.027,24.676 12.071,24.676 10.238,24.676 7.355,24.676 7.387,24.671 4.973,24.676 0.816,24.676 0.82,24.676 0.75,24.676 0.622,24.671 0.585,24.676 2.196,24.676 5.851,24.676 5.852,24.674 4.777,24.67 1.965,24.68 1.992,24.68 1.93,24.67 1.859,24.68 1.836,24.67 2.91,24.67 6.739,24.68 6.734,24.68 5.918,24.67 2.324,24.67 2.317,24.68 2.093,24.68 0.856,24.67 0.875,24.68 0.855,24.67 0.914,24.67 0.946,24.68 0.82,24.68 0.164,24.67 0.164,24.67 0.196,24.68 0.914,24.68 0.914,24.67 0.886,24.68 0.457,24.67 0.43,24.67 0.418,24.68 4.281,24.68 4.254,24.67 4.281,24.67 0.887,24.68 0.789,24.68 0.817,24.67 3.496,24.68 3.664,24.67 3.691,24.67 1.508,24.68 1.305,24.68 1.273,24.67 0.789,24.67 0.719,24.68 0.723,24.68 5.879,24.67 6.8,24.68 6.805,24.67 1.574,24.67 0.391,24.68 0.359,24.68 11.836,24.67 14.91,24.67 14.91,24.68 7.657,24.68 5.363,24.67 5.363,24.68 2.121,24.67 0.887,24.67 0.883,24.68 10.367,24.68 14.481,24.67 14.492,24.67 6.597,24.68 2.657,24.68 2.648,24.67 15.395,24.68 22.726,24.67 22.731,24.67 16.312,24.68 12.137,24.68 12.164,24.67 110.561,24.67 183.15,24.68 183.12,24.68 378.76,24.67 541.74,24.68 541.74,24.67 262.65,24.67" /><path
         id="path3384"
         style="fill:none;stroke:#7e2f8e;stroke-width:30;stroke-linecap:butt;stroke-linejoin:bevel;stroke-miterlimit:10;stroke-dasharray:30, 30;stroke-dashoffset:0;stroke-opacity:1"
         d="m 531.57,482.176 2.293,24.676 4.774,24.671 4.738,24.676 8.438,24.676 12.816,24.676 12.855,24.676 18.055,24.671 25.078,24.676 25.082,24.676 19.125,24.676 9.973,24.676 9.976,24.671 8.758,24.676 6.707,24.676 6.676,24.676 4.738,24.676 0.848,24.671 0.887,24.676 1.664,24.676 3.597,24.676 3.602,24.674 3.066,24.67 1.606,24.68 1.605,24.68 2.774,24.67 6.347,24.68 6.375,24.67 5.04,24.67 0.226,24.68 0.231,24.68 0.847,24.67 3.66,24.67 3.7,24.68 4.414,24.68 8.402,24.67 8.406,24.68 7.778,24.67 3.144,24.67 3.172,24.68 3.238,24.68 3.758,24.67 3.758,24.67 3.629,24.68 1.051,24.68 1.082,24.67 1.14,24.68 4.028,24.67 4.019,24.67 4.02,24.68 2.586,24.68 2.582,24.67 2.617,24.67 0.523,24.68 0.489,24.68 0.457,24.67 0.164,24.68 0.129,24.67 0.136,24.67 3.629,24.68 3.988,24.68 3.993,24.67 10.851,24.67 11.805,24.68 11.805,24.68 3.66,24.67 2.16,24.68 2.191,24.67 1.797,24.67 1.703,24.68 1.696,24.68 0.496,24.67 0.164,24.67 0.195,24.68 24.359,24.68 32.11,24.67 32.113,24.68 12.195,24.67 4.743,24.67 4.748,24.68 1.73,24.68 0.46,24.67 0.42,24.67 20.02,24.68 29.79,24.68 29.78,24.67 11.74,24.68 1.41,24.67 1.44,24.67 14.61,24.68 23.22,24.68 23.21,24.67 141.89,24.67 229.36,24.68 229.36,24.68 549.2,24.67 815.76,24.68 669.14,20.24" /><path
         id="path3386"
         style="fill:none;stroke:#00ffff;stroke-width:30;stroke-linecap:butt;stroke-linejoin:bevel;stroke-miterlimit:10;stroke-dasharray:30, 30;stroke-dashoffset:0;stroke-opacity:1"
         d="m 538.926,482.176 3.242,24.676 6.668,24.671 6.703,24.676 14.453,24.676 23.805,24.676 23.812,24.676 28.508,24.671 34.957,24.676 34.957,24.676 24.887,24.676 9.418,24.676 9.383,24.671 9.644,24.676 10.141,24.676 10.105,24.676 6.899,24.676 0.523,24.671 0.528,24.676 1.07,24.676 2.355,24.676 2.356,24.674 2.062,24.67 1.274,24.68 1.308,24.68 2.391,24.67 5.852,24.68 5.855,24.67 5.559,24.67 4.507,24.68 4.516,24.68 4.805,24.67 6.179,24.67 6.18,24.68 6.61,24.68 9.121,24.67 9.125,24.68 9.16,24.67 9.48,24.67 9.477,24.68 8.965,24.68 3.562,24.67 3.563,24.67 3.433,24.68 1.313,24.68 1.304,24.67 1.411,24.68 4.187,24.67 4.215,24.67 4.184,24.68 3.765,24.68 3.758,24.67 3.758,24.67 5.203,24.68 5.226,24.68 5.239,24.67 8.367,24.68 8.566,24.67 8.535,24.67 2.129,24.68 1.5,24.68 1.466,24.67 1.97,24.67 2.03,24.68 2.03,24.68 8.56,24.67 9.75,24.68 9.78,24.67 5.58,24.67 4.68,24.68 4.71,24.68 5.27,24.67 5.42,24.67 5.47,24.68 10.17,24.68 11.7,24.67 11.7,24.68 26.04,24.67 31.35,24.67 31.36,24.68 10.99,24.68 2.13,24.67 2.12,24.67 1.18,24.68 0.69,24.68 0.65,24.67 23.81,24.68 37.01,24.67 37.02,24.67 32.99,24.68 30.35,24.68 30.34,24.67 147.51,24.67 233.85,24.68 233.83,24.68 670.97,24.67 1035.25,24.68 76.68,1.82" /><path
         id="path3388"
         style="fill:none;stroke:#0072bd;stroke-width:30;stroke-linecap:butt;stroke-linejoin:bevel;stroke-miterlimit:10;stroke-dasharray:30, 30;stroke-dashoffset:0;stroke-opacity:1"
         d="m 562.672,482.176 6.016,24.676 12.425,24.671 12.391,24.676 28.254,24.676 47.219,24.676 47.222,24.676 49.535,24.671 52.621,24.676 52.614,24.676 34.234,24.676 5.988,24.676 5.977,24.671 4.711,24.676 2.488,24.676 2.453,24.676 4.477,24.676 8.469,24.671 8.437,24.676 5.918,24.676 0.067,24.676 0.097,24.674 4.449,24.67 16.02,24.68 16.055,24.68 13.081,24.67 3.86,24.68 3.86,24.67 4.94,24.67 9.02,24.68 9.02,24.68 7.46,24.67 0.46,24.67 0.45,24.68 2.69,24.68 15.05,24.67 15.03,24.68 14.13,24.67 7.46,24.67 7.45,24.68 6.87,24.68 0.98,24.67 1.01,24.67 1.7,24.68 12.33,24.68 12.36,24.67 12.17,24.68 5.92,24.67 5.91,24.67 5.96,24.68 5.13,24.68 5.14,24.67 5.09,24.67 15.25,24.68 15.53,24.68 15.53,24.67 14.19,24.68 14.09,24.67 14.09,24.67 7.72,24.68 7.1,24.68 7.09,24.67 9.59,24.67 9.91,24.68 9.93,24.68 2.07,24.67 0.65,24.68 0.62,24.67 5.43,24.67 6.5,24.68 6.48,24.68 2.03,24.67 0.82,24.67 0.81,24.68 10.86,24.68 14.1,24.67 14.09,24.68 4.51,24.67 0.95,24.67 0.94,24.68 32.67,24.68 46.47,24.67 46.44,24.67 34.5,24.68 28.44,24.68 28.48,24.67 30.12,24.68 31,24.67 31,24.67 41.1,24.68 47.61,24.68 47.65,24.67 159.87,24.67 242.6,24.68 242.57,24.68 869.98,24.67 438.67,7.77" /><path
         id="path3390"
         style="fill:none;stroke:#ff00ff;stroke-width:30;stroke-linecap:butt;stroke-linejoin:bevel;stroke-miterlimit:10;stroke-dasharray:30, 30;stroke-dashoffset:0;stroke-opacity:1"
         d="m 618.781,482.176 8.473,24.676 17.461,24.671 17.461,24.676 49.117,24.676 87.141,24.676 87.113,24.676 67.695,24.671 41.266,24.676 41.262,24.676 35.87,24.676 27.57,24.676 27.57,24.671 19.52,24.676 5.43,24.676 5.46,24.676 5.89,24.676 6.76,24.671 6.77,24.676 6.96,24.676 7.4,24.676 7.39,24.674 10.5,24.67 18.76,24.68 18.81,24.68 18.48,24.67 17.58,24.68 17.57,24.67 14.16,24.67 1.33,24.68 1.34,24.68 2.07,24.67 5.39,24.67 5.43,24.68 6.11,24.68 10.14,24.67 10.13,24.68 10.21,24.67 10.4,24.67 10.4,24.68 9.74,24.68 3.24,24.67 3.27,24.67 4.97,24.68 32.02,24.68 32,24.67 31.33,24.68 9.16,24.67 9.19,24.67 9.18,24.68 12.3,24.68 12.3,24.67 12.33,24.67 9.64,24.68 9.58,24.68 9.56,24.67 9.28,24.68 9.22,24.67 9.25,24.67 12.53,24.68 12.85,24.68 12.82,24.67 3.56,24.67 2.29,24.68 2.26,24.68 36.42,24.67 42.52,24.68 42.54,24.67 7.78,24.67 0.1,24.68 0.1,24.68 5.49,24.67 6.93,24.67 6.93,24.68 6.68,24.68 6.63,24.67 6.61,24.68 14.94,24.67 18.06,24.67 18.08,24.68 42.77,24.68 53.53,24.67 53.49,24.67 41.47,24.68 35.45,24.68 35.44,24.67 46.43,24.68 52.75,24.67 52.75,24.67 54.54,24.68 55.72,24.68 55.72,24.67 181.03,24.67 273.37,24.68 273.34,24.68 596.74,12.04" /><path
         id="path3392"
         style="fill:none;stroke:#d95319;stroke-width:30;stroke-linecap:butt;stroke-linejoin:bevel;stroke-miterlimit:10;stroke-dasharray:30, 30;stroke-dashoffset:0;stroke-opacity:1"
         d="m 667.703,482.176 7.649,24.676 15.765,24.671 15.758,24.676 68.047,24.676 130.801,24.676 130.767,24.676 82.93,24.671 17.92,24.676 17.92,24.676 31.68,24.676 52.92,24.676 52.9,24.671 34.83,24.676 3.23,24.676 3.27,24.676 4.45,24.676 6.94,24.671 6.9,24.676 4.83,24.676 0.04,24.676 0.06,24.674 6.05,24.67 22.11,24.68 22.07,24.68 18.9,24.67 8.96,24.68 8.96,24.67 16.12,24.67 42.77,24.68 42.78,24.68 36.58,24.67 8.77,24.67 8.76,24.68 9.49,24.68 13.27,24.67 13.28,24.68 11.71,24.67 0.26,24.67 0.29,24.68 1.83,24.68 17.47,24.67 17.46,24.67 17.39,24.68 16.19,24.68 16.22,24.67 16.09,24.68 13.37,24.67 13.34,24.67 13.38,24.68 3.16,24.68 3.18,24.67 3.17,24.67 2.49,24.68 2.48,24.68 2.45,24.67 36.1,24.68 38.27,24.67 38.25,24.67 21.19,24.68 19.49,24.68 19.53,24.67 8.01,24.67 6.4,24.68 6.42,24.68 36.26,24.67 41.62,24.68 41.6,24.67 12.75,24.67 6.35,24.68 6.38,24.68 5,24.67 4.61,24.67 4.64,24.68 22.66,24.68 28.45,24.67 28.45,24.68 16.58,24.67 12.13,24.67 12.17,24.68 48.55,24.68 64.46,24.67 64.41,24.67 26.04,24.68 6.86,24.68 6.83,24.67 59.48,24.68 89.54,24.67 89.54,24.67 67.23,24.68 52.71,24.68 52.7,24.67 214.42,24.67 333.54,24.68 333.54,24.68 4.12,0.06" /></g></g></svg>
