<?xml version="1.0" encoding="UTF-8" standalone="no"?>
<svg
   xmlns:dc="http://purl.org/dc/elements/1.1/"
   xmlns:cc="http://creativecommons.org/ns#"
   xmlns:rdf="http://www.w3.org/1999/02/22-rdf-syntax-ns#"
   xmlns:svg="http://www.w3.org/2000/svg"
   xmlns="http://www.w3.org/2000/svg"
   xmlns:sodipodi="http://sodipodi.sourceforge.net/DTD/sodipodi-0.dtd"
   xmlns:inkscape="http://www.inkscape.org/namespaces/inkscape"
   inkscape:version="1.0 (4035a4fb49, 2020-05-01)"
   sodipodi:docname="RainFR_RainExtr_EFFCI10_Sierra.svg"
   viewBox="0 0 524 398.66666"
   height="398.66666"
   width="524"
   xml:space="preserve"
   id="svg2830"
   version="1.1"><metadata
     id="metadata2836"><rdf:RDF><cc:Work
         rdf:about=""><dc:format>image/svg+xml</dc:format><dc:type
           rdf:resource="http://purl.org/dc/dcmitype/StillImage" /><dc:title></dc:title></cc:Work></rdf:RDF></metadata><defs
     id="defs2834" /><sodipodi:namedview
     inkscape:current-layer="g2838"
     inkscape:window-maximized="0"
     inkscape:window-y="0"
     inkscape:window-x="0"
     inkscape:cy="199.33333"
     inkscape:cx="262"
     inkscape:zoom="1.8436455"
     showgrid="false"
     id="namedview2832"
     inkscape:window-height="510"
     inkscape:window-width="743"
     inkscape:pageshadow="2"
     inkscape:pageopacity="0"
     guidetolerance="10"
     gridtolerance="10"
     objecttolerance="10"
     borderopacity="1"
     bordercolor="#666666"
     pagecolor="#ffffff" /><g
     transform="matrix(1.3333333,0,0,-1.3333333,0,398.66667)"
     inkscape:label="ink_ext_XXXXXX"
     inkscape:groupmode="layer"
     id="g2838"><g
       transform="scale(0.1)"
       id="g2840"><path
         id="path2842"
         style="fill:#ffffff;fill-opacity:1;fill-rule:nonzero;stroke:none"
         d="M -30,0 H 4200 V 3165 H -30 Z" /><path
         id="path2844"
         style="fill:#ffffff;fill-opacity:1;fill-rule:nonzero;stroke:none"
         d="M -30,0 H 4200 V 3165 H -30 Z" /><path
         id="path2846"
         style="fill:#ffffff;fill-opacity:1;fill-rule:nonzero;stroke:none"
         d="M 525,457.5 H 3795 V 2925 H 525 Z" /><path
         id="path2848"
         style="fill:none;stroke:#929292;stroke-width:5.0025;stroke-linecap:butt;stroke-linejoin:round;stroke-miterlimit:10;stroke-dasharray:none;stroke-opacity:1"
         d="M 525,457.5 V 2925" /><path
         id="path2850"
         style="fill:none;stroke:#929292;stroke-width:5.0025;stroke-linecap:butt;stroke-linejoin:round;stroke-miterlimit:10;stroke-dasharray:none;stroke-opacity:1"
         d="M 992.145,457.5 V 2925" /><path
         id="path2852"
         style="fill:none;stroke:#929292;stroke-width:5.0025;stroke-linecap:butt;stroke-linejoin:round;stroke-miterlimit:10;stroke-dasharray:none;stroke-opacity:1"
         d="M 1459.28,457.5 V 2925" /><path
         id="path2854"
         style="fill:none;stroke:#929292;stroke-width:5.0025;stroke-linecap:butt;stroke-linejoin:round;stroke-miterlimit:10;stroke-dasharray:none;stroke-opacity:1"
         d="M 1926.43,457.5 V 2925" /><path
         id="path2856"
         style="fill:none;stroke:#929292;stroke-width:5.0025;stroke-linecap:butt;stroke-linejoin:round;stroke-miterlimit:10;stroke-dasharray:none;stroke-opacity:1"
         d="M 2393.57,457.5 V 2925" /><path
         id="path2858"
         style="fill:none;stroke:#929292;stroke-width:5.0025;stroke-linecap:butt;stroke-linejoin:round;stroke-miterlimit:10;stroke-dasharray:none;stroke-opacity:1"
         d="M 2860.72,457.5 V 2925" /><path
         id="path2860"
         style="fill:none;stroke:#929292;stroke-width:5.0025;stroke-linecap:butt;stroke-linejoin:round;stroke-miterlimit:10;stroke-dasharray:none;stroke-opacity:1"
         d="M 3327.86,457.5 V 2925" /><path
         id="path2862"
         style="fill:none;stroke:#929292;stroke-width:5.0025;stroke-linecap:butt;stroke-linejoin:round;stroke-miterlimit:10;stroke-dasharray:none;stroke-opacity:1"
         d="M 3795,457.5 V 2925" /><path
         id="path2864"
         style="fill:none;stroke:#929292;stroke-width:5.0025;stroke-linecap:butt;stroke-linejoin:round;stroke-miterlimit:10;stroke-dasharray:none;stroke-opacity:1"
         d="M 3795,457.5 H 525" /><path
         id="path2866"
         style="fill:none;stroke:#929292;stroke-width:5.0025;stroke-linecap:butt;stroke-linejoin:round;stroke-miterlimit:10;stroke-dasharray:none;stroke-opacity:1"
         d="M 3795,580.875 H 525" /><path
         id="path2868"
         style="fill:none;stroke:#929292;stroke-width:5.0025;stroke-linecap:butt;stroke-linejoin:round;stroke-miterlimit:10;stroke-dasharray:none;stroke-opacity:1"
         d="M 3795,704.25 H 525" /><path
         id="path2870"
         style="fill:none;stroke:#929292;stroke-width:5.0025;stroke-linecap:butt;stroke-linejoin:round;stroke-miterlimit:10;stroke-dasharray:none;stroke-opacity:1"
         d="M 3795,827.625 H 525" /><path
         id="path2872"
         style="fill:none;stroke:#929292;stroke-width:5.0025;stroke-linecap:butt;stroke-linejoin:round;stroke-miterlimit:10;stroke-dasharray:none;stroke-opacity:1"
         d="M 3795,951 H 525" /><path
         id="path2874"
         style="fill:none;stroke:#929292;stroke-width:5.0025;stroke-linecap:butt;stroke-linejoin:round;stroke-miterlimit:10;stroke-dasharray:none;stroke-opacity:1"
         d="M 3795,1074.38 H 525" /><path
         id="path2876"
         style="fill:none;stroke:#929292;stroke-width:5.0025;stroke-linecap:butt;stroke-linejoin:round;stroke-miterlimit:10;stroke-dasharray:none;stroke-opacity:1"
         d="M 3795,1197.75 H 525" /><path
         id="path2878"
         style="fill:none;stroke:#929292;stroke-width:5.0025;stroke-linecap:butt;stroke-linejoin:round;stroke-miterlimit:10;stroke-dasharray:none;stroke-opacity:1"
         d="M 3795,1321.13 H 525" /><path
         id="path2880"
         style="fill:none;stroke:#929292;stroke-width:5.0025;stroke-linecap:butt;stroke-linejoin:round;stroke-miterlimit:10;stroke-dasharray:none;stroke-opacity:1"
         d="M 3795,1444.5 H 525" /><path
         id="path2882"
         style="fill:none;stroke:#929292;stroke-width:5.0025;stroke-linecap:butt;stroke-linejoin:round;stroke-miterlimit:10;stroke-dasharray:none;stroke-opacity:1"
         d="M 3795,1567.88 H 525" /><path
         id="path2884"
         style="fill:none;stroke:#929292;stroke-width:5.0025;stroke-linecap:butt;stroke-linejoin:round;stroke-miterlimit:10;stroke-dasharray:none;stroke-opacity:1"
         d="M 3795,1691.25 H 525" /><path
         id="path2886"
         style="fill:none;stroke:#929292;stroke-width:5.0025;stroke-linecap:butt;stroke-linejoin:round;stroke-miterlimit:10;stroke-dasharray:none;stroke-opacity:1"
         d="M 3795,1814.63 H 525" /><path
         id="path2888"
         style="fill:none;stroke:#929292;stroke-width:5.0025;stroke-linecap:butt;stroke-linejoin:round;stroke-miterlimit:10;stroke-dasharray:none;stroke-opacity:1"
         d="M 3795,1938 H 525" /><path
         id="path2890"
         style="fill:none;stroke:#929292;stroke-width:5.0025;stroke-linecap:butt;stroke-linejoin:round;stroke-miterlimit:10;stroke-dasharray:none;stroke-opacity:1"
         d="M 3795,2061.38 H 525" /><path
         id="path2892"
         style="fill:none;stroke:#929292;stroke-width:5.0025;stroke-linecap:butt;stroke-linejoin:round;stroke-miterlimit:10;stroke-dasharray:none;stroke-opacity:1"
         d="M 3795,2184.75 H 525" /><path
         id="path2894"
         style="fill:none;stroke:#929292;stroke-width:5.0025;stroke-linecap:butt;stroke-linejoin:round;stroke-miterlimit:10;stroke-dasharray:none;stroke-opacity:1"
         d="M 3795,2308.13 H 525" /><path
         id="path2896"
         style="fill:none;stroke:#929292;stroke-width:5.0025;stroke-linecap:butt;stroke-linejoin:round;stroke-miterlimit:10;stroke-dasharray:none;stroke-opacity:1"
         d="M 3795,2431.5 H 525" /><path
         id="path2898"
         style="fill:none;stroke:#929292;stroke-width:5.0025;stroke-linecap:butt;stroke-linejoin:round;stroke-miterlimit:10;stroke-dasharray:none;stroke-opacity:1"
         d="M 3795,2554.88 H 525" /><path
         id="path2900"
         style="fill:none;stroke:#929292;stroke-width:5.0025;stroke-linecap:butt;stroke-linejoin:round;stroke-miterlimit:10;stroke-dasharray:none;stroke-opacity:1"
         d="M 3795,2678.25 H 525" /><path
         id="path2902"
         style="fill:none;stroke:#929292;stroke-width:5.0025;stroke-linecap:butt;stroke-linejoin:round;stroke-miterlimit:10;stroke-dasharray:none;stroke-opacity:1"
         d="M 3795,2801.63 H 525" /><path
         id="path2904"
         style="fill:none;stroke:#929292;stroke-width:5.0025;stroke-linecap:butt;stroke-linejoin:round;stroke-miterlimit:10;stroke-dasharray:none;stroke-opacity:1"
         d="M 3795,2925 H 525" /><path
         id="path2906"
         style="fill:none;stroke:#262626;stroke-width:5.0025;stroke-linecap:square;stroke-linejoin:round;stroke-miterlimit:10;stroke-dasharray:none;stroke-opacity:1"
         d="M 525,457.5 H 3795" /><path
         id="path2908"
         style="fill:none;stroke:#262626;stroke-width:5.0025;stroke-linecap:square;stroke-linejoin:round;stroke-miterlimit:10;stroke-dasharray:none;stroke-opacity:1"
         d="M 525,2925 H 3795" /><path
         id="path2910"
         style="fill:none;stroke:#262626;stroke-width:5.0025;stroke-linecap:square;stroke-linejoin:round;stroke-miterlimit:10;stroke-dasharray:none;stroke-opacity:1"
         d="m 525,457.5 v 32.699" /><path
         id="path2912"
         style="fill:none;stroke:#262626;stroke-width:5.0025;stroke-linecap:square;stroke-linejoin:round;stroke-miterlimit:10;stroke-dasharray:none;stroke-opacity:1"
         d="m 992.145,457.5 v 32.699" /><path
         id="path2914"
         style="fill:none;stroke:#262626;stroke-width:5.0025;stroke-linecap:square;stroke-linejoin:round;stroke-miterlimit:10;stroke-dasharray:none;stroke-opacity:1"
         d="m 1459.28,457.5 v 32.699" /><path
         id="path2916"
         style="fill:none;stroke:#262626;stroke-width:5.0025;stroke-linecap:square;stroke-linejoin:round;stroke-miterlimit:10;stroke-dasharray:none;stroke-opacity:1"
         d="m 1926.43,457.5 v 32.699" /><path
         id="path2918"
         style="fill:none;stroke:#262626;stroke-width:5.0025;stroke-linecap:square;stroke-linejoin:round;stroke-miterlimit:10;stroke-dasharray:none;stroke-opacity:1"
         d="m 2393.57,457.5 v 32.699" /><path
         id="path2920"
         style="fill:none;stroke:#262626;stroke-width:5.0025;stroke-linecap:square;stroke-linejoin:round;stroke-miterlimit:10;stroke-dasharray:none;stroke-opacity:1"
         d="m 2860.72,457.5 v 32.699" /><path
         id="path2922"
         style="fill:none;stroke:#262626;stroke-width:5.0025;stroke-linecap:square;stroke-linejoin:round;stroke-miterlimit:10;stroke-dasharray:none;stroke-opacity:1"
         d="m 3327.86,457.5 v 32.699" /><path
         id="path2924"
         style="fill:none;stroke:#262626;stroke-width:5.0025;stroke-linecap:square;stroke-linejoin:round;stroke-miterlimit:10;stroke-dasharray:none;stroke-opacity:1"
         d="m 3795,457.5 v 32.699" /><path
         id="path2926"
         style="fill:none;stroke:#262626;stroke-width:5.0025;stroke-linecap:square;stroke-linejoin:round;stroke-miterlimit:10;stroke-dasharray:none;stroke-opacity:1"
         d="m 525,2925 v -32.7" /><path
         id="path2928"
         style="fill:none;stroke:#262626;stroke-width:5.0025;stroke-linecap:square;stroke-linejoin:round;stroke-miterlimit:10;stroke-dasharray:none;stroke-opacity:1"
         d="m 992.145,2925 v -32.7" /><path
         id="path2930"
         style="fill:none;stroke:#262626;stroke-width:5.0025;stroke-linecap:square;stroke-linejoin:round;stroke-miterlimit:10;stroke-dasharray:none;stroke-opacity:1"
         d="m 1459.28,2925 v -32.7" /><path
         id="path2932"
         style="fill:none;stroke:#262626;stroke-width:5.0025;stroke-linecap:square;stroke-linejoin:round;stroke-miterlimit:10;stroke-dasharray:none;stroke-opacity:1"
         d="m 1926.43,2925 v -32.7" /><path
         id="path2934"
         style="fill:none;stroke:#262626;stroke-width:5.0025;stroke-linecap:square;stroke-linejoin:round;stroke-miterlimit:10;stroke-dasharray:none;stroke-opacity:1"
         d="m 2393.57,2925 v -32.7" /><path
         id="path2936"
         style="fill:none;stroke:#262626;stroke-width:5.0025;stroke-linecap:square;stroke-linejoin:round;stroke-miterlimit:10;stroke-dasharray:none;stroke-opacity:1"
         d="m 2860.72,2925 v -32.7" /><path
         id="path2938"
         style="fill:none;stroke:#262626;stroke-width:5.0025;stroke-linecap:square;stroke-linejoin:round;stroke-miterlimit:10;stroke-dasharray:none;stroke-opacity:1"
         d="m 3327.86,2925 v -32.7" /><path
         id="path2940"
         style="fill:none;stroke:#262626;stroke-width:5.0025;stroke-linecap:square;stroke-linejoin:round;stroke-miterlimit:10;stroke-dasharray:none;stroke-opacity:1"
         d="m 3795,2925 v -32.7" /><g
         transform="scale(10)"
         id="g2942"><text
           id="text2946"
           style="font-variant:normal;font-weight:normal;font-size:15.9998px;font-family:Helvetica;-inkscape-font-specification:Helvetica;writing-mode:lr-tb;fill:#262626;fill-opacity:1;fill-rule:nonzero;stroke:none"
           transform="matrix(1,0,0,-1,48,25.55)"><tspan
             id="tspan2944"
             sodipodi:role="line"
             y="0"
             x="0 42.214512 51.110401 84.428703 93.324593 102.22048 131.14333 140.03922 148.9351 177.85762 186.75351 195.6494 224.57224 233.46812 242.36401 271.28653 280.1824 289.07831 318.00116 326.89703 335.79291">050100150200250300350</tspan></text><text
           id="text2950"
           style="font-variant:normal;font-weight:normal;font-size:17.6002px;font-family:Helvetica;-inkscape-font-specification:Helvetica;writing-mode:lr-tb;fill:#262626;fill-opacity:1;fill-rule:nonzero;stroke:none"
           transform="matrix(1,0,0,-1,119.625,3.55)"><tspan
             id="tspan2948"
             sodipodi:role="line"
             y="0"
             x="0 12.707344 22.493055 26.400299 36.186012 41.078865 50.864578 54.771824 58.679066 63.571922 72.372025 82.15773 86.06498 95.850693 105.6364 114.4365 119.32935 124.22221 138.88318 153.54414 158.437 168.22272 178.00842 187.79413">Rainfall values [mm/12h]</tspan></text></g><path
         id="path2952"
         style="fill:none;stroke:#262626;stroke-width:5.0025;stroke-linecap:square;stroke-linejoin:round;stroke-miterlimit:10;stroke-dasharray:none;stroke-opacity:1"
         d="M 525,457.5 V 2925" /><path
         id="path2954"
         style="fill:none;stroke:#262626;stroke-width:5.0025;stroke-linecap:square;stroke-linejoin:round;stroke-miterlimit:10;stroke-dasharray:none;stroke-opacity:1"
         d="M 3795,457.5 V 2925" /><path
         id="path2956"
         style="fill:none;stroke:#262626;stroke-width:5.0025;stroke-linecap:square;stroke-linejoin:round;stroke-miterlimit:10;stroke-dasharray:none;stroke-opacity:1"
         d="m 525,457.5 h 32.699" /><path
         id="path2958"
         style="fill:none;stroke:#262626;stroke-width:5.0025;stroke-linecap:square;stroke-linejoin:round;stroke-miterlimit:10;stroke-dasharray:none;stroke-opacity:1"
         d="m 525,580.875 h 32.699" /><path
         id="path2960"
         style="fill:none;stroke:#262626;stroke-width:5.0025;stroke-linecap:square;stroke-linejoin:round;stroke-miterlimit:10;stroke-dasharray:none;stroke-opacity:1"
         d="m 525,704.25 h 32.699" /><path
         id="path2962"
         style="fill:none;stroke:#262626;stroke-width:5.0025;stroke-linecap:square;stroke-linejoin:round;stroke-miterlimit:10;stroke-dasharray:none;stroke-opacity:1"
         d="m 525,827.625 h 32.699" /><path
         id="path2964"
         style="fill:none;stroke:#262626;stroke-width:5.0025;stroke-linecap:square;stroke-linejoin:round;stroke-miterlimit:10;stroke-dasharray:none;stroke-opacity:1"
         d="m 525,951 h 32.699" /><path
         id="path2966"
         style="fill:none;stroke:#262626;stroke-width:5.0025;stroke-linecap:square;stroke-linejoin:round;stroke-miterlimit:10;stroke-dasharray:none;stroke-opacity:1"
         d="m 525,1074.38 h 32.699" /><path
         id="path2968"
         style="fill:none;stroke:#262626;stroke-width:5.0025;stroke-linecap:square;stroke-linejoin:round;stroke-miterlimit:10;stroke-dasharray:none;stroke-opacity:1"
         d="m 525,1197.75 h 32.699" /><path
         id="path2970"
         style="fill:none;stroke:#262626;stroke-width:5.0025;stroke-linecap:square;stroke-linejoin:round;stroke-miterlimit:10;stroke-dasharray:none;stroke-opacity:1"
         d="m 525,1321.13 h 32.699" /><path
         id="path2972"
         style="fill:none;stroke:#262626;stroke-width:5.0025;stroke-linecap:square;stroke-linejoin:round;stroke-miterlimit:10;stroke-dasharray:none;stroke-opacity:1"
         d="m 525,1444.5 h 32.699" /><path
         id="path2974"
         style="fill:none;stroke:#262626;stroke-width:5.0025;stroke-linecap:square;stroke-linejoin:round;stroke-miterlimit:10;stroke-dasharray:none;stroke-opacity:1"
         d="m 525,1567.88 h 32.699" /><path
         id="path2976"
         style="fill:none;stroke:#262626;stroke-width:5.0025;stroke-linecap:square;stroke-linejoin:round;stroke-miterlimit:10;stroke-dasharray:none;stroke-opacity:1"
         d="m 525,1691.25 h 32.699" /><path
         id="path2978"
         style="fill:none;stroke:#262626;stroke-width:5.0025;stroke-linecap:square;stroke-linejoin:round;stroke-miterlimit:10;stroke-dasharray:none;stroke-opacity:1"
         d="m 525,1814.63 h 32.699" /><path
         id="path2980"
         style="fill:none;stroke:#262626;stroke-width:5.0025;stroke-linecap:square;stroke-linejoin:round;stroke-miterlimit:10;stroke-dasharray:none;stroke-opacity:1"
         d="m 525,1938 h 32.699" /><path
         id="path2982"
         style="fill:none;stroke:#262626;stroke-width:5.0025;stroke-linecap:square;stroke-linejoin:round;stroke-miterlimit:10;stroke-dasharray:none;stroke-opacity:1"
         d="m 525,2061.38 h 32.699" /><path
         id="path2984"
         style="fill:none;stroke:#262626;stroke-width:5.0025;stroke-linecap:square;stroke-linejoin:round;stroke-miterlimit:10;stroke-dasharray:none;stroke-opacity:1"
         d="m 525,2184.75 h 32.699" /><path
         id="path2986"
         style="fill:none;stroke:#262626;stroke-width:5.0025;stroke-linecap:square;stroke-linejoin:round;stroke-miterlimit:10;stroke-dasharray:none;stroke-opacity:1"
         d="m 525,2308.13 h 32.699" /><path
         id="path2988"
         style="fill:none;stroke:#262626;stroke-width:5.0025;stroke-linecap:square;stroke-linejoin:round;stroke-miterlimit:10;stroke-dasharray:none;stroke-opacity:1"
         d="m 525,2431.5 h 32.699" /><path
         id="path2990"
         style="fill:none;stroke:#262626;stroke-width:5.0025;stroke-linecap:square;stroke-linejoin:round;stroke-miterlimit:10;stroke-dasharray:none;stroke-opacity:1"
         d="m 525,2554.88 h 32.699" /><path
         id="path2992"
         style="fill:none;stroke:#262626;stroke-width:5.0025;stroke-linecap:square;stroke-linejoin:round;stroke-miterlimit:10;stroke-dasharray:none;stroke-opacity:1"
         d="m 525,2678.25 h 32.699" /><path
         id="path2994"
         style="fill:none;stroke:#262626;stroke-width:5.0025;stroke-linecap:square;stroke-linejoin:round;stroke-miterlimit:10;stroke-dasharray:none;stroke-opacity:1"
         d="m 525,2801.63 h 32.699" /><path
         id="path2996"
         style="fill:none;stroke:#262626;stroke-width:5.0025;stroke-linecap:square;stroke-linejoin:round;stroke-miterlimit:10;stroke-dasharray:none;stroke-opacity:1"
         d="m 525,2925 h 32.699" /><path
         id="path2998"
         style="fill:none;stroke:#262626;stroke-width:5.0025;stroke-linecap:square;stroke-linejoin:round;stroke-miterlimit:10;stroke-dasharray:none;stroke-opacity:1"
         d="m 3795,457.5 h -32.7" /><path
         id="path3000"
         style="fill:none;stroke:#262626;stroke-width:5.0025;stroke-linecap:square;stroke-linejoin:round;stroke-miterlimit:10;stroke-dasharray:none;stroke-opacity:1"
         d="m 3795,580.875 h -32.7" /><path
         id="path3002"
         style="fill:none;stroke:#262626;stroke-width:5.0025;stroke-linecap:square;stroke-linejoin:round;stroke-miterlimit:10;stroke-dasharray:none;stroke-opacity:1"
         d="m 3795,704.25 h -32.7" /><path
         id="path3004"
         style="fill:none;stroke:#262626;stroke-width:5.0025;stroke-linecap:square;stroke-linejoin:round;stroke-miterlimit:10;stroke-dasharray:none;stroke-opacity:1"
         d="m 3795,827.625 h -32.7" /><path
         id="path3006"
         style="fill:none;stroke:#262626;stroke-width:5.0025;stroke-linecap:square;stroke-linejoin:round;stroke-miterlimit:10;stroke-dasharray:none;stroke-opacity:1"
         d="m 3795,951 h -32.7" /><path
         id="path3008"
         style="fill:none;stroke:#262626;stroke-width:5.0025;stroke-linecap:square;stroke-linejoin:round;stroke-miterlimit:10;stroke-dasharray:none;stroke-opacity:1"
         d="m 3795,1074.38 h -32.7" /><path
         id="path3010"
         style="fill:none;stroke:#262626;stroke-width:5.0025;stroke-linecap:square;stroke-linejoin:round;stroke-miterlimit:10;stroke-dasharray:none;stroke-opacity:1"
         d="m 3795,1197.75 h -32.7" /><path
         id="path3012"
         style="fill:none;stroke:#262626;stroke-width:5.0025;stroke-linecap:square;stroke-linejoin:round;stroke-miterlimit:10;stroke-dasharray:none;stroke-opacity:1"
         d="m 3795,1321.13 h -32.7" /><path
         id="path3014"
         style="fill:none;stroke:#262626;stroke-width:5.0025;stroke-linecap:square;stroke-linejoin:round;stroke-miterlimit:10;stroke-dasharray:none;stroke-opacity:1"
         d="m 3795,1444.5 h -32.7" /><path
         id="path3016"
         style="fill:none;stroke:#262626;stroke-width:5.0025;stroke-linecap:square;stroke-linejoin:round;stroke-miterlimit:10;stroke-dasharray:none;stroke-opacity:1"
         d="m 3795,1567.88 h -32.7" /><path
         id="path3018"
         style="fill:none;stroke:#262626;stroke-width:5.0025;stroke-linecap:square;stroke-linejoin:round;stroke-miterlimit:10;stroke-dasharray:none;stroke-opacity:1"
         d="m 3795,1691.25 h -32.7" /><path
         id="path3020"
         style="fill:none;stroke:#262626;stroke-width:5.0025;stroke-linecap:square;stroke-linejoin:round;stroke-miterlimit:10;stroke-dasharray:none;stroke-opacity:1"
         d="m 3795,1814.63 h -32.7" /><path
         id="path3022"
         style="fill:none;stroke:#262626;stroke-width:5.0025;stroke-linecap:square;stroke-linejoin:round;stroke-miterlimit:10;stroke-dasharray:none;stroke-opacity:1"
         d="m 3795,1938 h -32.7" /><path
         id="path3024"
         style="fill:none;stroke:#262626;stroke-width:5.0025;stroke-linecap:square;stroke-linejoin:round;stroke-miterlimit:10;stroke-dasharray:none;stroke-opacity:1"
         d="m 3795,2061.38 h -32.7" /><path
         id="path3026"
         style="fill:none;stroke:#262626;stroke-width:5.0025;stroke-linecap:square;stroke-linejoin:round;stroke-miterlimit:10;stroke-dasharray:none;stroke-opacity:1"
         d="m 3795,2184.75 h -32.7" /><path
         id="path3028"
         style="fill:none;stroke:#262626;stroke-width:5.0025;stroke-linecap:square;stroke-linejoin:round;stroke-miterlimit:10;stroke-dasharray:none;stroke-opacity:1"
         d="m 3795,2308.13 h -32.7" /><path
         id="path3030"
         style="fill:none;stroke:#262626;stroke-width:5.0025;stroke-linecap:square;stroke-linejoin:round;stroke-miterlimit:10;stroke-dasharray:none;stroke-opacity:1"
         d="m 3795,2431.5 h -32.7" /><path
         id="path3032"
         style="fill:none;stroke:#262626;stroke-width:5.0025;stroke-linecap:square;stroke-linejoin:round;stroke-miterlimit:10;stroke-dasharray:none;stroke-opacity:1"
         d="m 3795,2554.88 h -32.7" /><path
         id="path3034"
         style="fill:none;stroke:#262626;stroke-width:5.0025;stroke-linecap:square;stroke-linejoin:round;stroke-miterlimit:10;stroke-dasharray:none;stroke-opacity:1"
         d="m 3795,2678.25 h -32.7" /><path
         id="path3036"
         style="fill:none;stroke:#262626;stroke-width:5.0025;stroke-linecap:square;stroke-linejoin:round;stroke-miterlimit:10;stroke-dasharray:none;stroke-opacity:1"
         d="m 3795,2801.63 h -32.7" /><path
         id="path3038"
         style="fill:none;stroke:#262626;stroke-width:5.0025;stroke-linecap:square;stroke-linejoin:round;stroke-miterlimit:10;stroke-dasharray:none;stroke-opacity:1"
         d="m 3795,2925 h -32.7" /><g
         transform="scale(10)"
         id="g3040"><text
           id="text3084"
           style="font-variant:normal;font-weight:normal;font-size:15.9998px;font-family:Helvetica;-inkscape-font-specification:Helvetica;writing-mode:lr-tb;fill:#262626;fill-opacity:1;fill-rule:nonzero;stroke:none"
           transform="matrix(1,0,0,-1,38.3,40.125)"><tspan
             id="tspan3042"
             y="0"
             x="0">0</tspan><tspan
             id="tspan3044"
             y="-12.3375"
             x="4.5"> </tspan><tspan
             id="tspan3046"
             sodipodi:role="line"
             y="-24.674999"
             x="-9 -0.1041112">10</tspan><tspan
             id="tspan3048"
             y="-37.012501"
             x="4.5"> </tspan><tspan
             id="tspan3050"
             sodipodi:role="line"
             y="-49.349998"
             x="-9 -0.1041112">20</tspan><tspan
             id="tspan3052"
             y="-61.6875"
             x="4.5"> </tspan><tspan
             id="tspan3054"
             sodipodi:role="line"
             y="-74.025002"
             x="-9 -0.1041112">30</tspan><tspan
             id="tspan3056"
             y="-86.362503"
             x="4.5"> </tspan><tspan
             id="tspan3058"
             sodipodi:role="line"
             y="-98.699997"
             x="-9 -0.1041112">40</tspan><tspan
             id="tspan3060"
             y="-111.0375"
             x="4.5"> </tspan><tspan
             id="tspan3062"
             sodipodi:role="line"
             y="-123.375"
             x="-9 -0.1041112">50</tspan><tspan
             id="tspan3064"
             y="-135.71249"
             x="4.5"> </tspan><tspan
             id="tspan3066"
             sodipodi:role="line"
             y="-148.05"
             x="-9 -0.1041112">60</tspan><tspan
             id="tspan3068"
             y="-160.3875"
             x="4.5"> </tspan><tspan
             id="tspan3070"
             sodipodi:role="line"
             y="-172.72501"
             x="-9 -0.1041112">70</tspan><tspan
             id="tspan3072"
             y="-185.0625"
             x="4.5"> </tspan><tspan
             id="tspan3074"
             sodipodi:role="line"
             y="-197.39999"
             x="-9 -0.1041112">80</tspan><tspan
             id="tspan3076"
             y="-209.7375"
             x="4.5"> </tspan><tspan
             id="tspan3078"
             sodipodi:role="line"
             y="-222.075"
             x="-9 -0.1041112">90</tspan><tspan
             id="tspan3080"
             y="-234.41251"
             x="4.5"> </tspan><tspan
             id="tspan3082"
             sodipodi:role="line"
             y="-246.75"
             x="-18 -9.1041117 -0.2082224">100</tspan></text><text
           id="text3088"
           style="font-variant:normal;font-weight:normal;font-size:17.6002px;font-family:Helvetica;-inkscape-font-specification:Helvetica;writing-mode:lr-tb;fill:#262626;fill-opacity:1;fill-rule:nonzero;stroke:none"
           transform="matrix(0,1,1,0,13.55,109.5)"><tspan
             id="tspan3086"
             sodipodi:role="line"
             y="0"
             x="0 11.739333 21.525045 27.385912 36.186012 45.971722 55.757435 60.650288 64.557533 68.464775 78.250488 87.050591 91.943443 97.804314 113.45089">Percentiles (%)</tspan></text></g><path
         id="path3090"
         style="fill:none;stroke:#edb120;stroke-width:30;stroke-linecap:butt;stroke-linejoin:round;stroke-miterlimit:10;stroke-dasharray:none;stroke-opacity:1"
         d="m 526.035,482.176 0.149,24.676 0.308,24.671 0.324,24.676 0.645,24.676 1.051,24.676 1.054,24.676 1.297,24.671 1.653,24.676 1.64,24.676 1.383,24.676 0.988,24.676 0.989,24.671 1.972,24.676 3.676,24.676 3.66,24.676 3.203,24.676 2.266,24.671 2.25,24.676 1.754,24.676 0.594,24.676 0.578,24.674 0.492,24.67 0.258,24.68 0.238,24.68 0.203,24.67 0.067,24.68 0.074,24.67 0.195,24.67 0.676,24.68 0.676,24.68 0.57,24.67 0.121,24.67 0.109,24.68 0.176,24.68 0.508,24.67 0.504,24.68 0.586,24.67 1.125,24.67 1.129,24.68 1.074,24.68 0.531,24.67 0.535,24.67 0.493,24.68 0.031,24.68 0.015,24.67 0.067,24.68 1.074,24.67 1.086,24.67 1.074,24.68 0.711,24.68 0.707,24.67 0.719,24.67 0.301,24.68 0.293,24.68 0.285,24.67 0.531,24.68 0.563,24.67 0.547,24.67 1.003,24.68 1.051,24.68 1.051,24.67 0.223,24.67 0.113,24.68 0.113,24.68 1.067,24.67 1.222,24.68 1.231,24.67 1.019,24.67 0.973,24.68 0.969,24.68 5.234,24.67 6.375,24.67 6.375,24.68 3.34,24.68 2.351,24.67 2.364,24.68 2.168,24.67 2.101,24.67 2.106,24.68 2.011,24.68 1.981,24.67 1.965,24.67 1.418,24.68 1.117,24.68 1.125,24.67 3.824,24.68 5.363,24.67 5.375,24.67 7.832,24.68 9.434,24.68 9.434,24.67 22.148,24.67 31.539,24.68 31.531,24.68 107.579,24.67 170.962,24.68 170.96,24.67 82.89,24.67" /><path
         id="path3092"
         style="fill:none;stroke:#00ff00;stroke-width:30;stroke-linecap:butt;stroke-linejoin:round;stroke-miterlimit:10;stroke-dasharray:none;stroke-opacity:1"
         d="m 529.117,482.176 0.344,24.676 0.715,24.671 0.711,24.676 1.343,24.676 2.122,24.676 2.109,24.676 4.738,24.671 8.274,24.676 8.273,24.676 5.406,24.676 1.012,24.676 1.012,24.671 0.976,24.676 0.969,24.676 0.957,24.676 1.524,24.676 2.648,24.671 2.648,24.676 1.957,24.676 0.344,24.676 0.34,24.674 0.395,24.67 0.543,24.68 0.531,24.68 0.586,24.67 0.679,24.68 0.684,24.67 0.719,24.67 0.855,24.68 0.864,24.68 0.945,24.67 1.312,24.67 1.328,24.68 1.29,24.68 1.082,24.67 1.093,24.68 1.149,24.67 1.633,24.67 1.636,24.68 1.582,24.68 1.028,24.67 1.019,24.67 1.028,24.68 1.156,24.68 1.152,24.67 1.149,24.68 0.878,24.67 0.872,24.67 0.875,24.68 0.054,24.68 0.043,24.67 0.063,24.67 0.508,24.68 0.531,24.68 0.535,24.67 0.285,24.68 0.27,24.67 0.269,24.67 1.531,24.68 1.657,24.68 1.648,24.67 1.133,24.67 1.066,24.68 1.067,24.68 4.617,24.67 5.258,24.68 5.258,24.67 2.046,24.67 1.344,24.68 1.352,24.68 1.761,24.67 1.883,24.67 1.875,24.68 2.481,24.68 2.664,24.67 2.676,24.68 3.277,24.67 3.504,24.67 3.504,24.68 2.781,24.68 2.461,24.67 2.465,24.67 1.75,24.68 1.402,24.68 1.387,24.67 1.238,24.68 1.141,24.67 1.136,24.67 13.801,24.68 22.02,24.68 22.019,24.67 32.899,24.67 40.902,24.68 40.914,24.68 151.11,24.67 242.962,24.68 242.96,24.67 117.8,24.67" /><path
         id="path3094"
         style="fill:none;stroke:#7e2f8e;stroke-width:30;stroke-linecap:butt;stroke-linejoin:round;stroke-miterlimit:10;stroke-dasharray:none;stroke-opacity:1"
         d="m 531.832,482.176 0.441,24.676 0.918,24.671 0.922,24.676 2.09,24.676 3.504,24.676 3.496,24.676 7.11,24.671 11.984,24.676 11.992,24.676 8.063,24.676 2.003,24.676 2.008,24.671 1.457,24.676 0.524,24.676 0.511,24.676 0.45,24.676 0.324,24.671 0.312,24.676 0.293,24.676 0.235,24.676 0.23,24.674 0.348,24.67 0.652,24.68 0.653,24.68 1.25,24.67 3.105,24.68 3.113,24.67 2.559,24.67 0.539,24.68 0.531,24.68 0.496,24.67 0.301,24.67 0.305,24.68 0.519,24.68 1.688,24.67 1.703,24.68 1.793,24.67 2.43,24.67 2.429,24.68 2.274,24.68 0.644,24.67 0.645,24.67 0.629,24.68 0.398,24.68 0.399,24.67 0.382,24.68 0.028,24.67 0.015,24.67 0.032,24.68 2.054,24.68 2.055,24.67 2.055,24.67 1.175,24.68 1.157,24.68 1.148,24.67 0.133,24.68 0.09,24.67 0.086,24.67 2.062,24.68 2.262,24.68 2.258,24.67 4.484,24.67 4.801,24.68 4.793,24.68 3.023,24.67 2.692,24.68 2.699,24.67 0.73,24.67 0.297,24.68 0.293,24.68 1.727,24.67 2.094,24.67 2.089,24.68 3.684,24.68 4.191,24.67 4.2,24.68 3.339,24.67 3.016,24.67 3.02,24.68 2.754,24.68 2.64,24.67 2.633,24.67 1.289,24.68 0.609,24.68 0.614,24.67 0.617,24.68 0.605,24.67 0.614,24.67 16.14,24.68 26.223,24.68 26.219,24.67 42.472,24.67 54.442,24.68 54.441,24.68 168.532,24.67 263.62,24.68 263.61,24.67 127.81,24.67" /><path
         id="path3096"
         style="fill:none;stroke:#00ffff;stroke-width:30;stroke-linecap:butt;stroke-linejoin:round;stroke-miterlimit:10;stroke-dasharray:none;stroke-opacity:1"
         d="m 535.906,482.176 0.875,24.676 1.801,24.671 1.809,24.676 2.601,24.676 3.578,24.676 3.578,24.676 7.559,24.671 12.992,24.676 12.973,24.676 8.062,24.676 0.496,24.676 0.489,24.671 0.605,24.676 0.813,24.676 0.801,24.676 1.328,24.676 2.363,24.671 2.367,24.676 1.727,24.676 0.261,24.676 0.262,24.674 0.813,24.67 2.242,24.68 2.25,24.68 1.746,24.67 0.18,24.68 0.179,24.67 0.512,24.67 1.777,24.68 1.778,24.68 1.566,24.67 0.676,24.67 0.683,24.68 0.84,24.68 1.821,24.67 1.808,24.68 1.719,24.67 1.019,24.67 1.02,24.68 1.02,24.68 1.019,24.67 1.012,24.67 1.027,24.68 1.195,24.68 1.192,24.67 1.191,24.68 1.246,24.67 1.246,24.67 1.243,24.68 3.675,24.68 3.692,24.67 3.683,24.67 0.215,24.68 0.106,24.68 0.097,24.67 1.278,24.68 1.347,24.67 1.352,24.67 1.957,24.68 2.016,24.68 2.035,24.67 3.621,24.67 3.855,24.68 3.856,24.68 1.836,24.67 1.476,24.68 1.473,24.67 1.035,24.67 0.945,24.68 0.938,24.68 2,24.67 2.289,24.67 2.285,24.68 1.051,24.68 0.652,24.67 0.653,24.68 5.054,24.67 6.7,24.67 6.71,24.68 3.805,24.68 2.543,24.67 2.543,24.67 1.109,24.68 0.399,24.68 0.402,24.67 1.344,24.68 1.891,24.67 1.89,24.67 16.348,24.68 25.75,24.68 25.746,24.67 42.504,24.67 54.844,24.68 54.847,24.68 177.187,24.67 279.14,24.68 279.13,24.67 135.33,24.67" /><path
         id="path3098"
         style="fill:none;stroke:#0072bd;stroke-width:30;stroke-linecap:butt;stroke-linejoin:round;stroke-miterlimit:10;stroke-dasharray:none;stroke-opacity:1"
         d="m 540.098,482.176 1.254,24.676 2.578,24.671 2.582,24.676 3.816,24.676 5.309,24.676 5.297,24.676 9.304,24.671 14.731,24.676 14.722,24.676 9.278,24.676 0.871,24.676 0.879,24.671 1.14,24.676 1.61,24.676 1.605,24.676 1.531,24.676 1.356,24.671 1.367,24.676 1.305,24.676 1.176,24.676 1.179,24.674 1.094,24.67 0.871,24.68 0.875,24.68 0.836,24.67 0.734,24.68 0.75,24.67 1.379,24.67 3.797,24.68 3.778,24.68 3.234,24.67 0.703,24.67 0.707,24.68 1.086,24.68 3.234,24.67 3.223,24.68 3.016,24.67 1.492,24.67 1.508,24.68 1.379,24.68 0.363,24.67 0.344,24.67 0.418,24.68 1.457,24.68 1.468,24.67 1.457,24.68 1.207,24.67 1.192,24.67 1.207,24.68 1.492,24.68 1.508,24.67 1.492,24.67 0.145,24.68 0.097,24.68 0.098,24.67 0.051,24.68 0.054,24.67 0.051,24.67 6.082,24.68 6.699,24.68 6.688,24.67 1.965,24.67 1.312,24.68 1.313,24.68 2.738,24.67 3,24.68 3,24.67 2.918,24.67 2.91,24.68 2.918,24.68 4.117,24.67 4.442,24.67 4.445,24.68 5.625,24.68 6.008,24.67 6.015,24.68 1.942,24.67 0.422,24.67 0.418,24.68 0.465,24.68 0.488,24.67 0.496,24.67 0.793,24.68 0.945,24.68 0.953,24.67 4.754,24.68 6.922,24.67 6.926,24.67 19.07,24.68 26.973,24.68 26.961,24.67 43.996,24.67 56.543,24.68 56.539,24.68 199.454,24.67 318.54,24.68 318.54,24.67 154.45,24.67" /><path
         id="path3100"
         style="fill:none;stroke:#ff00ff;stroke-width:30;stroke-linecap:butt;stroke-linejoin:round;stroke-miterlimit:10;stroke-dasharray:none;stroke-opacity:1"
         d="m 546.531,482.176 2.231,24.676 4.574,24.671 4.582,24.676 4.613,24.676 4.664,24.676 4.672,24.676 9.36,24.671 15.726,24.676 15.738,24.676 10.551,24.676 2.551,24.676 2.551,24.671 2.488,24.676 2.395,24.676 2.39,24.676 2.887,24.676 3.887,24.671 3.875,24.676 3,24.676 1.007,24.676 0.989,24.674 0.879,24.67 0.531,24.68 0.539,24.68 0.43,24.67 0.113,24.68 0.109,24.67 1.328,24.67 5.852,24.68 5.855,24.68 5.43,24.67 3.578,24.67 3.571,24.68 3.179,24.68 1.067,24.67 1.066,24.68 0.996,24.67 0.457,24.67 0.457,24.68 0.555,24.68 1.562,24.67 1.559,24.67 1.5,24.68 0.496,24.68 0.488,24.67 0.477,24.68 0.324,24.67 0.309,24.67 0.312,24.68 0.504,24.68 0.516,24.67 0.504,24.67 0.711,24.68 0.722,24.68 0.703,24.67 1.27,24.68 1.297,24.67 1.289,24.67 1.191,24.68 1.18,24.68 1.184,24.67 3.765,24.67 4.133,24.68 4.117,24.68 2.422,24.67 2.109,24.68 2.114,24.67 10.867,24.67 12.797,24.68 12.808,24.68 2.844,24.67 0.156,24.67 0.153,24.68 2.586,24.68 3.367,24.67 3.367,24.68 3.863,24.67 4.043,24.67 4.059,24.68 1.894,24.68 0.969,24.67 0.969,24.67 11.91,24.68 17.375,24.68 17.379,24.67 8.754,24.68 3.832,24.67 3.832,24.67 12.09,24.68 17.472,24.68 17.477,24.67 35.258,24.67 48.375,24.68 48.382,24.68 231.64,24.67 384.35,24.68 384.36,24.67 186.35,24.67" /><path
         id="path3102"
         style="fill:none;stroke:#d95319;stroke-width:30;stroke-linecap:butt;stroke-linejoin:round;stroke-miterlimit:10;stroke-dasharray:none;stroke-opacity:1"
         d="m 549.645,482.176 5.128,24.676 10.598,24.671 10.582,24.676 6.129,24.676 0.789,24.676 0.793,24.676 9.316,24.671 20.879,24.676 20.887,24.676 14.027,24.676 3.481,24.676 3.473,24.671 2.406,24.676 0.586,24.676 0.578,24.676 2.43,24.676 6.156,24.671 6.14,24.676 4.321,24.676 0.078,24.676 0.074,24.674 0.231,24.67 0.675,24.68 0.661,24.68 0.531,24.67 0.105,24.68 0.09,24.67 0.383,24.67 1.402,24.68 1.403,24.68 1.636,24.67 2.684,24.67 2.68,24.68 2.437,24.68 1.039,24.67 1.035,24.68 1.157,24.67 2.046,24.67 2.055,24.68 2.141,24.68 2.945,24.67 2.941,24.67 2.805,24.68 0.606,24.68 0.609,24.67 0.645,24.68 1.859,24.67 1.867,24.67 1.859,24.68 1.516,24.68 1.524,24.67 1.507,24.67 0.18,24.68 0.141,24.68 0.129,24.67 4.914,24.68 5.234,24.67 5.219,24.67 0.929,24.68 0.497,24.68 0.496,24.67 0.261,24.67 0.231,24.68 0.226,24.68 2.325,24.67 2.699,24.68 2.703,24.67 8.129,24.67 9.328,24.68 9.324,24.68 5.309,24.67 4.222,24.67 4.223,24.68 3.504,24.68 3.27,24.67 3.277,24.68 5.879,24.67 6.847,24.67 6.856,24.68 8.984,24.68 9.91,24.67 9.914,24.67 14.137,24.68 16.238,24.68 16.239,24.67 15.582,24.68 15.211,24.67 15.218,24.67 15.204,24.68 15.187,24.68 15.203,24.67 22.751,24.67 28.31,24.68 28.3,24.68 291.22,24.67 510.31,24.68 510.3,24.67 247.42,24.67" /><path
         id="path3104"
         style="fill:none;stroke:#edb120;stroke-width:30;stroke-linecap:butt;stroke-linejoin:bevel;stroke-miterlimit:10;stroke-dasharray:30, 30;stroke-dashoffset:0;stroke-opacity:1"
         d="m 525,482.176 v 74.023 l 0.047,24.676 0.082,24.676 0.098,24.676 0.179,24.671 0.285,24.676 0.286,24.676 0.359,24.676 0.457,24.676 0.465,24.671 0.375,24.676 0.187,24.676 0.196,24.676 0.148,24.676 0.063,24.671 0.058,24.676 0.137,24.676 0.305,24.676 0.316,24.674 0.328,24.67 0.391,24.68 0.398,24.68 0.301,24.67 0.023,24.68 0.028,24.67 0.039,24.67 0.074,24.68 0.074,24.68 0.074,24.67 0.032,24.67 0.023,24.68 0.106,24.68 0.488,24.67 0.469,24.68 0.445,24.67 0.035,24.67 0.047,24.68 0.066,24.68 0.262,24.67 0.27,24.67 0.265,24.68 0.188,24.68 0.172,24.67 0.179,24.68 0.106,24.67 0.09,24.67 0.097,24.68 0.418,24.68 0.422,24.67 0.426,24.67 0.219,24.68 0.226,24.68 0.207,24.67 0.34,24.68 0.344,24.67 0.351,24.67 0.211,24.68 0.196,24.68 0.187,24.67 0.254,24.67 0.258,24.68 0.262,24.68 0.105,24.67 0.074,24.68 0.075,24.67 0.226,24.67 0.254,24.68 0.254,24.68 0.644,24.67 0.75,24.67 0.758,24.68 0.324,24.68 0.211,24.67 0.192,24.68 0.414,24.67 0.488,24.67 0.481,24.68 3.23,24.68 4.434,24.67 4.425,24.67 2.864,24.68 2.062,24.68 2.063,24.67 0.902,24.68 0.223,24.67 0.234,24.67 5.152,24.68 8.364,24.68 8.375,24.67 19.051,24.67 26.91,24.68 26.91,24.68 34.297,24.67 40.441,24.68 40.43,24.67 19.605,24.67" /><path
         id="path3106"
         style="fill:none;stroke:#00ff00;stroke-width:30;stroke-linecap:butt;stroke-linejoin:bevel;stroke-miterlimit:10;stroke-dasharray:30, 30;stroke-dashoffset:0;stroke-opacity:1"
         d="m 525.426,482.176 0.301,24.676 0.617,24.671 0.621,24.676 0.969,24.676 1.394,24.676 1.387,24.676 2.273,24.671 3.442,24.676 3.441,24.676 2.926,24.676 2.101,24.676 2.114,24.671 1.418,24.676 0.234,24.676 0.238,24.676 0.211,24.676 0.18,24.671 0.164,24.676 0.629,24.676 1.676,24.676 1.672,24.674 1.363,24.67 0.555,24.68 0.57,24.68 0.555,24.67 0.535,24.68 0.523,24.67 0.824,24.67 1.93,24.68 1.926,24.68 1.687,24.67 0.668,24.67 0.66,24.68 0.598,24.68 0.242,24.67 0.254,24.68 0.242,24.67 0.262,24.67 0.27,24.68 0.23,24.68 0.055,24.67 0.043,24.67 0.054,24.68 0.262,24.68 0.262,24.67 0.258,24.68 0.125,24.67 0.121,24.67 0.121,24.68 1.23,24.68 1.215,24.67 1.223,24.67 0.246,24.68 0.223,24.68 0.234,24.67 1.004,24.68 1.043,24.67 1.058,24.67 0.426,24.68 0.375,24.68 0.367,24.67 0.227,24.67 0.203,24.68 0.203,24.68 1.688,24.67 1.941,24.68 1.942,24.67 0.449,24.67 0.113,24.68 0.098,24.68 3.383,24.67 4.261,24.67 4.258,24.68 2.191,24.68 1.532,24.67 1.535,24.68 0.601,24.67 0.254,24.67 0.254,24.68 2.965,24.68 4.133,24.67 4.137,24.67 1.89,24.68 0.758,24.68 0.758,24.67 4.402,24.68 6.489,24.67 6.496,24.67 4.664,24.68 3.465,24.68 3.472,24.67 31.59,24.67 52.328,24.68 52.32,24.68 108.215,24.67 154.782,24.68 154.79,24.67 75.04,24.67" /><path
         id="path3108"
         style="fill:none;stroke:#7e2f8e;stroke-width:30;stroke-linecap:butt;stroke-linejoin:bevel;stroke-miterlimit:10;stroke-dasharray:30, 30;stroke-dashoffset:0;stroke-opacity:1"
         d="m 526.875,482.176 0.66,24.676 1.356,24.671 1.359,24.676 2.406,24.676 3.668,24.676 3.668,24.676 5.16,24.671 7.164,24.676 7.168,24.676 5.469,24.676 2.848,24.676 2.851,24.671 2.496,24.676 1.922,24.676 1.907,24.676 1.355,24.676 0.242,24.671 0.254,24.676 0.473,24.676 1.027,24.676 1.027,24.674 0.879,24.67 0.457,24.68 0.457,24.68 0.793,24.67 1.817,24.68 1.82,24.67 1.442,24.67 0.058,24.68 0.07,24.68 0.239,24.67 1.051,24.67 1.058,24.68 1.258,24.68 2.402,24.67 2.399,24.68 2.226,24.67 0.895,24.67 0.906,24.68 0.922,24.68 1.082,24.67 1.07,24.67 1.035,24.68 0.301,24.68 0.309,24.67 0.328,24.68 1.148,24.67 1.149,24.67 1.148,24.68 0.742,24.68 0.735,24.67 0.75,24.67 0.148,24.68 0.145,24.68 0.125,24.67 0.047,24.68 0.035,24.67 0.039,24.67 1.035,24.68 1.141,24.68 1.14,24.67 3.106,24.67 3.375,24.68 3.367,24.68 1.047,24.67 0.617,24.68 0.629,24.67 0.512,24.67 0.488,24.68 0.484,24.68 0.137,24.67 0.051,24.67 0.054,24.68 6.961,24.68 9.172,24.67 9.18,24.68 3.48,24.67 1.356,24.67 1.359,24.68 0.492,24.68 0.129,24.67 0.121,24.67 5.723,24.68 8.512,24.68 8.504,24.67 3.359,24.68 0.399,24.67 0.414,24.67 4.175,24.68 6.629,24.68 6.641,24.67 40.535,24.67 65.527,24.68 65.536,24.68 156.913,24.67 233.07,24.68 233.08,24.67 113.01,24.67" /><path
         id="path3110"
         style="fill:none;stroke:#00ffff;stroke-width:30;stroke-linecap:butt;stroke-linejoin:bevel;stroke-miterlimit:10;stroke-dasharray:30, 30;stroke-dashoffset:0;stroke-opacity:1"
         d="m 528.984,482.176 0.922,24.676 1.903,24.671 1.914,24.676 4.132,24.676 6.801,24.676 6.805,24.676 8.144,24.671 9.989,24.676 9.984,24.676 7.11,24.676 2.691,24.676 2.687,24.671 2.75,24.676 2.895,24.676 2.891,24.676 1.972,24.676 0.149,24.671 0.148,24.676 0.309,24.676 0.675,24.676 0.676,24.674 0.582,24.67 0.371,24.68 0.368,24.68 0.679,24.67 1.672,24.68 1.676,24.67 1.59,24.67 1.289,24.68 1.289,24.68 1.375,24.67 1.762,24.67 1.769,24.68 1.891,24.68 2.601,24.67 2.61,24.68 2.609,24.67 2.715,24.67 2.707,24.68 2.559,24.68 1.019,24.67 1.02,24.67 0.984,24.68 0.367,24.68 0.375,24.67 0.406,24.68 1.192,24.67 1.207,24.67 1.191,24.68 1.082,24.68 1.071,24.67 1.074,24.67 1.484,24.68 1.5,24.68 1.492,24.67 2.395,24.68 2.445,24.67 2.438,24.67 0.605,24.68 0.434,24.68 0.422,24.67 0.554,24.67 0.586,24.68 0.578,24.68 2.446,24.67 2.781,24.68 2.797,24.67 1.598,24.67 1.335,24.68 1.348,24.68 1.5,24.67 1.555,24.67 1.558,24.68 2.903,24.68 3.347,24.67 3.344,24.68 7.438,24.67 8.957,24.67 8.961,24.68 3.144,24.68 0.606,24.67 0.609,24.67 0.328,24.68 0.203,24.68 0.188,24.67 6.797,24.68 10.582,24.67 10.574,24.67 9.426,24.68 8.672,24.68 8.671,24.67 42.141,24.67 66.809,24.68 66.812,24.68 191.704,24.67 295.79,24.68 295.78,24.67 143.42,24.67" /><path
         id="path3112"
         style="fill:none;stroke:#0072bd;stroke-width:30;stroke-linecap:butt;stroke-linejoin:bevel;stroke-miterlimit:10;stroke-dasharray:30, 30;stroke-dashoffset:0;stroke-opacity:1"
         d="m 535.762,482.176 1.718,24.676 3.555,24.671 3.539,24.676 8.071,24.676 13.492,24.676 13.492,24.676 14.152,24.671 15.032,24.676 15.039,24.676 9.777,24.676 1.711,24.676 1.711,24.671 1.34,24.676 0.714,24.676 0.696,24.676 1.285,24.676 2.422,24.671 2.406,24.676 1.695,24.676 0.016,24.676 0.031,24.674 1.266,24.67 4.582,24.68 4.582,24.68 3.738,24.67 1.102,24.68 1.101,24.67 1.418,24.67 2.571,24.68 2.582,24.68 2.129,24.67 0.136,24.67 0.125,24.68 0.766,24.68 4.297,24.67 4.301,24.68 4.035,24.67 2.129,24.67 2.136,24.68 1.957,24.68 0.278,24.67 0.293,24.67 0.488,24.68 3.523,24.68 3.528,24.67 3.48,24.68 1.688,24.67 1.691,24.67 1.695,24.68 1.473,24.68 1.469,24.67 1.457,24.67 4.348,24.68 4.441,24.68 4.437,24.67 4.059,24.68 4.02,24.67 4.027,24.67 2.207,24.68 2.031,24.68 2.024,24.67 2.738,24.67 2.828,24.68 2.844,24.68 0.59,24.67 0.183,24.68 0.18,24.67 1.551,24.67 1.859,24.68 1.852,24.68 0.578,24.67 0.234,24.67 0.231,24.68 3.105,24.68 4.027,24.67 4.02,24.68 1.293,24.67 0.269,24.67 0.278,24.68 9.328,24.68 13.277,24.67 13.266,24.67 9.855,24.68 8.129,24.68 8.141,24.67 8.601,24.68 8.856,24.67 8.859,24.67 11.746,24.68 13.602,24.68 13.613,24.67 45.676,24.67 69.315,24.68 69.31,24.68 248.56,24.67 397.96,24.68 397.95,24.67 192.95,24.67" /><path
         id="path3114"
         style="fill:none;stroke:#ff00ff;stroke-width:30;stroke-linecap:butt;stroke-linejoin:bevel;stroke-miterlimit:10;stroke-dasharray:30, 30;stroke-dashoffset:0;stroke-opacity:1"
         d="m 551.797,482.176 2.414,24.676 4.996,24.671 4.988,24.676 14.032,24.676 24.902,24.676 24.883,24.676 19.343,24.671 11.79,24.676 11.789,24.676 10.254,24.676 7.875,24.676 7.875,24.671 5.578,24.676 1.547,24.676 1.558,24.676 1.688,24.676 1.929,24.671 1.934,24.676 1.996,24.676 2.105,24.676 2.118,24.674 3,24.67 5.363,24.68 5.367,24.68 5.281,24.67 5.024,24.68 5.019,24.67 4.043,24.67 0.383,24.68 0.383,24.68 0.59,24.67 1.539,24.67 1.551,24.68 1.75,24.68 2.894,24.67 2.902,24.68 2.911,24.67 2.968,24.67 2.977,24.68 2.785,24.68 0.922,24.67 0.937,24.67 1.418,24.68 9.149,24.68 9.144,24.67 8.946,24.68 2.617,24.67 2.625,24.67 2.625,24.68 3.519,24.68 3.508,24.67 3.528,24.67 2.75,24.68 2.738,24.68 2.73,24.67 2.657,24.68 2.632,24.67 2.645,24.67 3.578,24.68 3.668,24.68 3.668,24.67 1.012,24.67 0.66,24.68 0.644,24.68 10.403,24.67 12.152,24.68 12.149,24.67 2.226,24.67 0.031,24.68 0.024,24.68 1.574,24.67 1.98,24.67 1.981,24.68 1.902,24.68 1.899,24.67 1.883,24.68 4.277,24.67 5.152,24.67 5.164,24.68 12.227,24.68 15.293,24.67 15.285,24.67 11.844,24.68 10.133,24.68 10.121,24.67 13.269,24.68 15.07,24.67 15.07,24.67 15.59,24.68 15.91,24.68 15.93,24.67 51.72,24.67 78.1,24.68 78.1,24.68 349.38,24.67 575.42,24.68 575.43,24.67 278.99,24.67" /><path
         id="path3116"
         style="fill:none;stroke:#d95319;stroke-width:30;stroke-linecap:butt;stroke-linejoin:bevel;stroke-miterlimit:10;stroke-dasharray:30, 30;stroke-dashoffset:0;stroke-opacity:1"
         d="m 565.77,482.176 2.191,24.676 4.5,24.671 4.508,24.676 19.437,24.676 37.375,24.676 37.356,24.676 23.699,24.671 5.117,24.676 5.121,24.676 9.055,24.676 15.117,24.676 15.113,24.671 9.954,24.676 0.921,24.676 0.938,24.676 1.269,24.676 1.981,24.671 1.969,24.676 1.382,24.676 0.016,24.676 0.012,24.674 1.734,24.67 6.317,24.68 6.304,24.68 5.403,24.67 2.554,24.68 2.559,24.67 4.605,24.67 12.227,24.68 12.215,24.68 10.457,24.67 2.504,24.67 2.504,24.68 2.707,24.68 3.797,24.67 3.796,24.68 3.344,24.67 0.074,24.67 0.082,24.68 0.528,24.68 4.984,24.67 4.988,24.67 4.973,24.68 4.621,24.68 4.633,24.67 4.598,24.68 3.828,24.67 3.808,24.67 3.817,24.68 0.91,24.68 0.906,24.67 0.906,24.67 0.707,24.68 0.711,24.68 0.707,24.67 10.313,24.68 10.926,24.67 10.933,24.67 6.055,24.68 5.562,24.68 5.582,24.67 2.286,24.67 1.839,24.68 1.829,24.68 10.359,24.67 11.895,24.68 11.886,24.67 3.637,24.67 1.816,24.68 1.825,24.68 1.429,24.67 1.313,24.67 1.328,24.68 6.473,24.68 8.125,24.67 8.14,24.68 4.73,24.67 3.47,24.67 3.47,24.68 13.88,24.68 18.41,24.67 18.4,24.67 7.44,24.68 1.96,24.68 1.96,24.67 17,24.68 25.58,24.67 25.57,24.67 19.22,24.68 15.06,24.68 15.06,24.67 61.26,24.67 95.29,24.68 95.3,24.68 421.1,24.67 692.62,24.68 692.61,24.67 335.81,24.67" /></g></g></svg>
