<?xml version="1.0" encoding="UTF-8" standalone="no"?>
<svg
   xmlns:dc="http://purl.org/dc/elements/1.1/"
   xmlns:cc="http://creativecommons.org/ns#"
   xmlns:rdf="http://www.w3.org/1999/02/22-rdf-syntax-ns#"
   xmlns:svg="http://www.w3.org/2000/svg"
   xmlns="http://www.w3.org/2000/svg"
   xmlns:sodipodi="http://sodipodi.sourceforge.net/DTD/sodipodi-0.dtd"
   xmlns:inkscape="http://www.inkscape.org/namespaces/inkscape"
   inkscape:version="1.0 (4035a4fb49, 2020-05-01)"
   sodipodi:docname="DiurnalCycle.svg"
   viewBox="0 0 469.33334 368"
   height="368"
   width="469.33334"
   xml:space="preserve"
   id="svg10"
   version="1.1"><metadata
     id="metadata16"><rdf:RDF><cc:Work
         rdf:about=""><dc:format>image/svg+xml</dc:format><dc:type
           rdf:resource="http://purl.org/dc/dcmitype/StillImage" /><dc:title></dc:title></cc:Work></rdf:RDF></metadata><defs
     id="defs14" /><sodipodi:namedview
     inkscape:current-layer="g18"
     inkscape:window-maximized="0"
     inkscape:window-y="0"
     inkscape:window-x="0"
     inkscape:cy="184"
     inkscape:cx="234.66667"
     inkscape:zoom="1.4637784"
     showgrid="false"
     id="namedview12"
     inkscape:window-height="510"
     inkscape:window-width="823"
     inkscape:pageshadow="2"
     inkscape:pageopacity="0"
     guidetolerance="10"
     gridtolerance="10"
     objecttolerance="10"
     borderopacity="1"
     bordercolor="#666666"
     pagecolor="#ffffff" /><g
     transform="matrix(1.3333333,0,0,-1.3333333,0,368)"
     inkscape:label="ink_ext_XXXXXX"
     inkscape:groupmode="layer"
     id="g18"><g
       transform="scale(0.1)"
       id="g20"><path
         id="path22"
         style="fill:#ffffff;fill-opacity:1;fill-rule:nonzero;stroke:none"
         d="M -360,-200 H 3870 V 2965 H -360 Z" /><path
         id="path24"
         style="fill:#ffffff;fill-opacity:1;fill-rule:nonzero;stroke:none"
         d="M -360,-200 H 3870 V 2965 H -360 Z" /><path
         id="path26"
         style="fill:#ffffff;fill-opacity:1;fill-rule:nonzero;stroke:none"
         d="M 187.5,145 H 3465 V 2725 H 187.5 Z" /><path
         id="path28"
         style="fill:none;stroke:#dfdfdf;stroke-width:5.0025;stroke-linecap:butt;stroke-linejoin:round;stroke-miterlimit:10;stroke-dasharray:none;stroke-opacity:1"
         d="M 187.5,145 V 2725" /><path
         id="path30"
         style="fill:none;stroke:#dfdfdf;stroke-width:5.0025;stroke-linecap:butt;stroke-linejoin:round;stroke-miterlimit:10;stroke-dasharray:none;stroke-opacity:1"
         d="M 597.188,145 V 2725" /><path
         id="path32"
         style="fill:none;stroke:#dfdfdf;stroke-width:5.0025;stroke-linecap:butt;stroke-linejoin:round;stroke-miterlimit:10;stroke-dasharray:none;stroke-opacity:1"
         d="M 1006.88,145 V 2725" /><path
         id="path34"
         style="fill:none;stroke:#dfdfdf;stroke-width:5.0025;stroke-linecap:butt;stroke-linejoin:round;stroke-miterlimit:10;stroke-dasharray:none;stroke-opacity:1"
         d="M 1416.56,145 V 2725" /><path
         id="path36"
         style="fill:none;stroke:#dfdfdf;stroke-width:5.0025;stroke-linecap:butt;stroke-linejoin:round;stroke-miterlimit:10;stroke-dasharray:none;stroke-opacity:1"
         d="M 1826.25,145 V 2725" /><path
         id="path38"
         style="fill:none;stroke:#dfdfdf;stroke-width:5.0025;stroke-linecap:butt;stroke-linejoin:round;stroke-miterlimit:10;stroke-dasharray:none;stroke-opacity:1"
         d="M 2235.94,145 V 2725" /><path
         id="path40"
         style="fill:none;stroke:#dfdfdf;stroke-width:5.0025;stroke-linecap:butt;stroke-linejoin:round;stroke-miterlimit:10;stroke-dasharray:none;stroke-opacity:1"
         d="M 2645.63,145 V 2725" /><path
         id="path42"
         style="fill:none;stroke:#dfdfdf;stroke-width:5.0025;stroke-linecap:butt;stroke-linejoin:round;stroke-miterlimit:10;stroke-dasharray:none;stroke-opacity:1"
         d="M 3055.31,145 V 2725" /><path
         id="path44"
         style="fill:none;stroke:#dfdfdf;stroke-width:5.0025;stroke-linecap:butt;stroke-linejoin:round;stroke-miterlimit:10;stroke-dasharray:none;stroke-opacity:1"
         d="M 3465,145 V 2725" /><path
         id="path46"
         style="fill:none;stroke:#dfdfdf;stroke-width:5.0025;stroke-linecap:butt;stroke-linejoin:round;stroke-miterlimit:10;stroke-dasharray:none;stroke-opacity:1"
         d="M 3465,145 H 187.5" /><path
         id="path48"
         style="fill:none;stroke:#dfdfdf;stroke-width:5.0025;stroke-linecap:butt;stroke-linejoin:round;stroke-miterlimit:10;stroke-dasharray:none;stroke-opacity:1"
         d="M 3465,431.664 H 187.5" /><path
         id="path50"
         style="fill:none;stroke:#dfdfdf;stroke-width:5.0025;stroke-linecap:butt;stroke-linejoin:round;stroke-miterlimit:10;stroke-dasharray:none;stroke-opacity:1"
         d="M 3465,718.332 H 187.5" /><path
         id="path52"
         style="fill:none;stroke:#dfdfdf;stroke-width:5.0025;stroke-linecap:butt;stroke-linejoin:round;stroke-miterlimit:10;stroke-dasharray:none;stroke-opacity:1"
         d="M 3465,1005 H 187.5" /><path
         id="path54"
         style="fill:none;stroke:#dfdfdf;stroke-width:5.0025;stroke-linecap:butt;stroke-linejoin:round;stroke-miterlimit:10;stroke-dasharray:none;stroke-opacity:1"
         d="M 3465,1291.67 H 187.5" /><path
         id="path56"
         style="fill:none;stroke:#dfdfdf;stroke-width:5.0025;stroke-linecap:butt;stroke-linejoin:round;stroke-miterlimit:10;stroke-dasharray:none;stroke-opacity:1"
         d="M 3465,1578.33 H 187.5" /><path
         id="path58"
         style="fill:none;stroke:#dfdfdf;stroke-width:5.0025;stroke-linecap:butt;stroke-linejoin:round;stroke-miterlimit:10;stroke-dasharray:none;stroke-opacity:1"
         d="M 3465,1865 H 187.5" /><path
         id="path60"
         style="fill:none;stroke:#dfdfdf;stroke-width:5.0025;stroke-linecap:butt;stroke-linejoin:round;stroke-miterlimit:10;stroke-dasharray:none;stroke-opacity:1"
         d="M 3465,2151.67 H 187.5" /><path
         id="path62"
         style="fill:none;stroke:#dfdfdf;stroke-width:5.0025;stroke-linecap:butt;stroke-linejoin:round;stroke-miterlimit:10;stroke-dasharray:none;stroke-opacity:1"
         d="M 3465,2438.34 H 187.5" /><path
         id="path64"
         style="fill:none;stroke:#dfdfdf;stroke-width:5.0025;stroke-linecap:butt;stroke-linejoin:round;stroke-miterlimit:10;stroke-dasharray:none;stroke-opacity:1"
         d="M 3465,2725 H 187.5" /><path
         id="path66"
         style="fill:none;stroke:#262626;stroke-width:5.0025;stroke-linecap:square;stroke-linejoin:round;stroke-miterlimit:10;stroke-dasharray:none;stroke-opacity:1"
         d="M 187.5,145 H 3465" /><path
         id="path68"
         style="fill:none;stroke:#262626;stroke-width:5.0025;stroke-linecap:square;stroke-linejoin:round;stroke-miterlimit:10;stroke-dasharray:none;stroke-opacity:1"
         d="M 187.5,2725 H 3465" /><path
         id="path70"
         style="fill:none;stroke:#262626;stroke-width:5.0025;stroke-linecap:square;stroke-linejoin:round;stroke-miterlimit:10;stroke-dasharray:none;stroke-opacity:1"
         d="m 187.5,145 v 32.773" /><path
         id="path72"
         style="fill:none;stroke:#262626;stroke-width:5.0025;stroke-linecap:square;stroke-linejoin:round;stroke-miterlimit:10;stroke-dasharray:none;stroke-opacity:1"
         d="m 597.188,145 v 32.773" /><path
         id="path74"
         style="fill:none;stroke:#262626;stroke-width:5.0025;stroke-linecap:square;stroke-linejoin:round;stroke-miterlimit:10;stroke-dasharray:none;stroke-opacity:1"
         d="m 1006.88,145 v 32.773" /><path
         id="path76"
         style="fill:none;stroke:#262626;stroke-width:5.0025;stroke-linecap:square;stroke-linejoin:round;stroke-miterlimit:10;stroke-dasharray:none;stroke-opacity:1"
         d="m 1416.56,145 v 32.773" /><path
         id="path78"
         style="fill:none;stroke:#262626;stroke-width:5.0025;stroke-linecap:square;stroke-linejoin:round;stroke-miterlimit:10;stroke-dasharray:none;stroke-opacity:1"
         d="m 1826.25,145 v 32.773" /><path
         id="path80"
         style="fill:none;stroke:#262626;stroke-width:5.0025;stroke-linecap:square;stroke-linejoin:round;stroke-miterlimit:10;stroke-dasharray:none;stroke-opacity:1"
         d="m 2235.94,145 v 32.773" /><path
         id="path82"
         style="fill:none;stroke:#262626;stroke-width:5.0025;stroke-linecap:square;stroke-linejoin:round;stroke-miterlimit:10;stroke-dasharray:none;stroke-opacity:1"
         d="m 2645.63,145 v 32.773" /><path
         id="path84"
         style="fill:none;stroke:#262626;stroke-width:5.0025;stroke-linecap:square;stroke-linejoin:round;stroke-miterlimit:10;stroke-dasharray:none;stroke-opacity:1"
         d="m 3055.31,145 v 32.773" /><path
         id="path86"
         style="fill:none;stroke:#262626;stroke-width:5.0025;stroke-linecap:square;stroke-linejoin:round;stroke-miterlimit:10;stroke-dasharray:none;stroke-opacity:1"
         d="m 3465,145 v 32.773" /><path
         id="path88"
         style="fill:none;stroke:#262626;stroke-width:5.0025;stroke-linecap:square;stroke-linejoin:round;stroke-miterlimit:10;stroke-dasharray:none;stroke-opacity:1"
         d="m 187.5,2725 v -32.77" /><path
         id="path90"
         style="fill:none;stroke:#262626;stroke-width:5.0025;stroke-linecap:square;stroke-linejoin:round;stroke-miterlimit:10;stroke-dasharray:none;stroke-opacity:1"
         d="m 597.188,2725 v -32.77" /><path
         id="path92"
         style="fill:none;stroke:#262626;stroke-width:5.0025;stroke-linecap:square;stroke-linejoin:round;stroke-miterlimit:10;stroke-dasharray:none;stroke-opacity:1"
         d="m 1006.88,2725 v -32.77" /><path
         id="path94"
         style="fill:none;stroke:#262626;stroke-width:5.0025;stroke-linecap:square;stroke-linejoin:round;stroke-miterlimit:10;stroke-dasharray:none;stroke-opacity:1"
         d="m 1416.56,2725 v -32.77" /><path
         id="path96"
         style="fill:none;stroke:#262626;stroke-width:5.0025;stroke-linecap:square;stroke-linejoin:round;stroke-miterlimit:10;stroke-dasharray:none;stroke-opacity:1"
         d="m 1826.25,2725 v -32.77" /><path
         id="path98"
         style="fill:none;stroke:#262626;stroke-width:5.0025;stroke-linecap:square;stroke-linejoin:round;stroke-miterlimit:10;stroke-dasharray:none;stroke-opacity:1"
         d="m 2235.94,2725 v -32.77" /><path
         id="path100"
         style="fill:none;stroke:#262626;stroke-width:5.0025;stroke-linecap:square;stroke-linejoin:round;stroke-miterlimit:10;stroke-dasharray:none;stroke-opacity:1"
         d="m 2645.63,2725 v -32.77" /><path
         id="path102"
         style="fill:none;stroke:#262626;stroke-width:5.0025;stroke-linecap:square;stroke-linejoin:round;stroke-miterlimit:10;stroke-dasharray:none;stroke-opacity:1"
         d="m 3055.31,2725 v -32.77" /><path
         id="path104"
         style="fill:none;stroke:#262626;stroke-width:5.0025;stroke-linecap:square;stroke-linejoin:round;stroke-miterlimit:10;stroke-dasharray:none;stroke-opacity:1"
         d="m 3465,2725 v -32.77" /><g
         transform="scale(10)"
         id="g106"><text
           id="text110"
           style="font-variant:normal;font-weight:normal;font-size:9.99975px;font-family:Helvetica;-inkscape-font-specification:Helvetica;writing-mode:lr-tb;fill:#262626;fill-opacity:1;fill-rule:nonzero;stroke:none"
           transform="matrix(1,0,0,-1,13.125,0.75)"><tspan
             id="tspan108"
             sodipodi:role="line"
             y="0"
             x="0 5.5598612 40.968777 46.528637 81.937553 87.497414 122.90633 128.46619 163.87511 169.43497 204.84387 210.40373 245.81265 251.37251 286.78143 292.34128 327.75021 333.31006">121824303642485460</tspan></text></g><path
         id="path112"
         style="fill:none;stroke:#262626;stroke-width:5.0025;stroke-linecap:square;stroke-linejoin:round;stroke-miterlimit:10;stroke-dasharray:none;stroke-opacity:1"
         d="M 187.5,145 V 2725" /><path
         id="path114"
         style="fill:none;stroke:#262626;stroke-width:5.0025;stroke-linecap:square;stroke-linejoin:round;stroke-miterlimit:10;stroke-dasharray:none;stroke-opacity:1"
         d="M 3465,145 V 2725" /><path
         id="path116"
         style="fill:none;stroke:#262626;stroke-width:5.0025;stroke-linecap:square;stroke-linejoin:round;stroke-miterlimit:10;stroke-dasharray:none;stroke-opacity:1"
         d="m 187.5,145 h 32.773" /><path
         id="path118"
         style="fill:none;stroke:#262626;stroke-width:5.0025;stroke-linecap:square;stroke-linejoin:round;stroke-miterlimit:10;stroke-dasharray:none;stroke-opacity:1"
         d="m 187.5,431.664 h 32.773" /><path
         id="path120"
         style="fill:none;stroke:#262626;stroke-width:5.0025;stroke-linecap:square;stroke-linejoin:round;stroke-miterlimit:10;stroke-dasharray:none;stroke-opacity:1"
         d="m 187.5,718.332 h 32.773" /><path
         id="path122"
         style="fill:none;stroke:#262626;stroke-width:5.0025;stroke-linecap:square;stroke-linejoin:round;stroke-miterlimit:10;stroke-dasharray:none;stroke-opacity:1"
         d="m 187.5,1005 h 32.773" /><path
         id="path124"
         style="fill:none;stroke:#262626;stroke-width:5.0025;stroke-linecap:square;stroke-linejoin:round;stroke-miterlimit:10;stroke-dasharray:none;stroke-opacity:1"
         d="m 187.5,1291.67 h 32.773" /><path
         id="path126"
         style="fill:none;stroke:#262626;stroke-width:5.0025;stroke-linecap:square;stroke-linejoin:round;stroke-miterlimit:10;stroke-dasharray:none;stroke-opacity:1"
         d="m 187.5,1578.33 h 32.773" /><path
         id="path128"
         style="fill:none;stroke:#262626;stroke-width:5.0025;stroke-linecap:square;stroke-linejoin:round;stroke-miterlimit:10;stroke-dasharray:none;stroke-opacity:1"
         d="m 187.5,1865 h 32.773" /><path
         id="path130"
         style="fill:none;stroke:#262626;stroke-width:5.0025;stroke-linecap:square;stroke-linejoin:round;stroke-miterlimit:10;stroke-dasharray:none;stroke-opacity:1"
         d="m 187.5,2151.67 h 32.773" /><path
         id="path132"
         style="fill:none;stroke:#262626;stroke-width:5.0025;stroke-linecap:square;stroke-linejoin:round;stroke-miterlimit:10;stroke-dasharray:none;stroke-opacity:1"
         d="m 187.5,2438.34 h 32.773" /><path
         id="path134"
         style="fill:none;stroke:#262626;stroke-width:5.0025;stroke-linecap:square;stroke-linejoin:round;stroke-miterlimit:10;stroke-dasharray:none;stroke-opacity:1"
         d="m 187.5,2725 h 32.773" /><path
         id="path136"
         style="fill:none;stroke:#262626;stroke-width:5.0025;stroke-linecap:square;stroke-linejoin:round;stroke-miterlimit:10;stroke-dasharray:none;stroke-opacity:1"
         d="m 3465,145 h -32.77" /><path
         id="path138"
         style="fill:none;stroke:#262626;stroke-width:5.0025;stroke-linecap:square;stroke-linejoin:round;stroke-miterlimit:10;stroke-dasharray:none;stroke-opacity:1"
         d="m 3465,431.664 h -32.77" /><path
         id="path140"
         style="fill:none;stroke:#262626;stroke-width:5.0025;stroke-linecap:square;stroke-linejoin:round;stroke-miterlimit:10;stroke-dasharray:none;stroke-opacity:1"
         d="m 3465,718.332 h -32.77" /><path
         id="path142"
         style="fill:none;stroke:#262626;stroke-width:5.0025;stroke-linecap:square;stroke-linejoin:round;stroke-miterlimit:10;stroke-dasharray:none;stroke-opacity:1"
         d="m 3465,1005 h -32.77" /><path
         id="path144"
         style="fill:none;stroke:#262626;stroke-width:5.0025;stroke-linecap:square;stroke-linejoin:round;stroke-miterlimit:10;stroke-dasharray:none;stroke-opacity:1"
         d="m 3465,1291.67 h -32.77" /><path
         id="path146"
         style="fill:none;stroke:#262626;stroke-width:5.0025;stroke-linecap:square;stroke-linejoin:round;stroke-miterlimit:10;stroke-dasharray:none;stroke-opacity:1"
         d="m 3465,1578.33 h -32.77" /><path
         id="path148"
         style="fill:none;stroke:#262626;stroke-width:5.0025;stroke-linecap:square;stroke-linejoin:round;stroke-miterlimit:10;stroke-dasharray:none;stroke-opacity:1"
         d="m 3465,1865 h -32.77" /><path
         id="path150"
         style="fill:none;stroke:#262626;stroke-width:5.0025;stroke-linecap:square;stroke-linejoin:round;stroke-miterlimit:10;stroke-dasharray:none;stroke-opacity:1"
         d="m 3465,2151.67 h -32.77" /><path
         id="path152"
         style="fill:none;stroke:#262626;stroke-width:5.0025;stroke-linecap:square;stroke-linejoin:round;stroke-miterlimit:10;stroke-dasharray:none;stroke-opacity:1"
         d="m 3465,2438.34 h -32.77" /><path
         id="path154"
         style="fill:none;stroke:#262626;stroke-width:5.0025;stroke-linecap:square;stroke-linejoin:round;stroke-miterlimit:10;stroke-dasharray:none;stroke-opacity:1"
         d="m 3465,2725 h -32.77" /><g
         transform="scale(10)"
         id="g156"><text
           id="text178"
           style="font-variant:normal;font-weight:normal;font-size:9.99975px;font-family:Helvetica;-inkscape-font-specification:Helvetica;writing-mode:lr-tb;fill:#262626;fill-opacity:1;fill-rule:nonzero;stroke:none"
           transform="matrix(1,0,0,-1,0.5,10.75)"><tspan
             id="tspan158"
             sodipodi:role="line"
             y="0"
             x="0 5.5598612 8.3397913">1.5</tspan><tspan
             id="tspan160"
             y="-28.6668"
             x="8.25">2</tspan><tspan
             id="tspan162"
             sodipodi:role="line"
             y="-57.333199"
             x="0 5.5598612 8.3397913">2.5</tspan><tspan
             id="tspan164"
             y="-86"
             x="8.25">3</tspan><tspan
             id="tspan166"
             sodipodi:role="line"
             y="-114.6668"
             x="0 5.5598612 8.3397913">3.5</tspan><tspan
             id="tspan168"
             y="-143.33321"
             x="8.25">4</tspan><tspan
             id="tspan170"
             sodipodi:role="line"
             y="-172"
             x="0 5.5598612 8.3397913">4.5</tspan><tspan
             id="tspan172"
             y="-200.66679"
             x="8.25">5</tspan><tspan
             id="tspan174"
             sodipodi:role="line"
             y="-229.33321"
             x="0 5.5598612 8.3397913">5.5</tspan><tspan
             id="tspan176"
             y="-258"
             x="8.25">6</tspan></text></g><path
         id="path180"
         style="fill:none;stroke:#ff0000;stroke-width:20.0025;stroke-linecap:butt;stroke-linejoin:round;stroke-miterlimit:10;stroke-dasharray:none;stroke-opacity:1"
         d="m 187.5,1146.31 409.688,-274.716 409.692,-137.332 409.68,338.238 409.69,43.25 409.69,-458.852 409.69,-88.043 409.68,523.015 409.69,187.53" /><path
         id="path182"
         style="fill:#ff0000;fill-opacity:1;fill-rule:nonzero;stroke:none"
         d="m 210.832,1146.31 c 0,-12.88 -10.445,-23.33 -23.332,-23.33 -12.887,0 -23.332,10.45 -23.332,23.33 0,12.89 10.445,23.33 23.332,23.33 12.887,0 23.332,-10.44 23.332,-23.33" /><path
         id="path184"
         style="fill:#ff0000;fill-opacity:1;fill-rule:nonzero;stroke:none"
         d="m 620.52,871.594 c 0,-12.883 -10.446,-23.332 -23.332,-23.332 -12.887,0 -23.333,10.449 -23.333,23.332 0,12.886 10.446,23.336 23.333,23.336 12.886,0 23.332,-10.45 23.332,-23.336" /><path
         id="path186"
         style="fill:#ff0000;fill-opacity:1;fill-rule:nonzero;stroke:none"
         d="m 1030.21,734.262 c 0,-12.887 -10.45,-23.332 -23.33,-23.332 -12.892,0 -23.337,10.445 -23.337,23.332 0,12.883 10.445,23.332 23.337,23.332 12.88,0 23.33,-10.449 23.33,-23.332" /><path
         id="path188"
         style="fill:#ff0000;fill-opacity:1;fill-rule:nonzero;stroke:none"
         d="m 1439.89,1072.5 c 0,-12.89 -10.44,-23.33 -23.33,-23.33 -12.88,0 -23.33,10.44 -23.33,23.33 0,12.89 10.45,23.33 23.33,23.33 12.89,0 23.33,-10.44 23.33,-23.33" /><path
         id="path190"
         style="fill:#ff0000;fill-opacity:1;fill-rule:nonzero;stroke:none"
         d="m 1849.58,1115.75 c 0,-12.88 -10.44,-23.33 -23.33,-23.33 -12.89,0 -23.33,10.45 -23.33,23.33 0,12.89 10.44,23.33 23.33,23.33 12.89,0 23.33,-10.44 23.33,-23.33" /><path
         id="path192"
         style="fill:#ff0000;fill-opacity:1;fill-rule:nonzero;stroke:none"
         d="m 2259.27,656.895 c 0,-12.883 -10.45,-23.332 -23.33,-23.332 -12.89,0 -23.33,10.449 -23.33,23.332 0,12.886 10.44,23.335 23.33,23.335 12.88,0 23.33,-10.449 23.33,-23.335" /><path
         id="path194"
         style="fill:#ff0000;fill-opacity:1;fill-rule:nonzero;stroke:none"
         d="m 2668.96,568.859 c 0,-12.886 -10.45,-23.332 -23.33,-23.332 -12.89,0 -23.34,10.446 -23.34,23.332 0,12.883 10.45,23.332 23.34,23.332 12.88,0 23.33,-10.449 23.33,-23.332" /><path
         id="path196"
         style="fill:#ff0000;fill-opacity:1;fill-rule:nonzero;stroke:none"
         d="m 3078.64,1091.87 c 0,-12.89 -10.44,-23.33 -23.33,-23.33 -12.88,0 -23.33,10.44 -23.33,23.33 0,12.88 10.45,23.33 23.33,23.33 12.89,0 23.33,-10.45 23.33,-23.33" /><path
         id="path198"
         style="fill:#ff0000;fill-opacity:1;fill-rule:nonzero;stroke:none"
         d="m 3488.33,1279.39 c 0,-12.88 -10.44,-23.33 -23.33,-23.33 -12.89,0 -23.33,10.45 -23.33,23.33 0,12.89 10.44,23.34 23.33,23.34 12.89,0 23.33,-10.45 23.33,-23.34" /><path
         id="path200"
         style="fill:none;stroke:#0000ff;stroke-width:20.0025;stroke-linecap:butt;stroke-linejoin:round;stroke-miterlimit:10;stroke-dasharray:none;stroke-opacity:1"
         d="m 187.5,654.316 409.688,-175.843 409.692,-78.809 409.68,181.305 409.69,3.582 409.69,-269.797 409.69,-20.715 409.68,310.238 409.69,94.621" /><path
         id="path202"
         style="fill:#0000ff;fill-opacity:1;fill-rule:nonzero;stroke:none"
         d="m 210.832,654.316 c 0,-12.886 -10.445,-23.336 -23.332,-23.336 -12.887,0 -23.332,10.45 -23.332,23.336 0,12.883 10.445,23.332 23.332,23.332 12.887,0 23.332,-10.449 23.332,-23.332" /><path
         id="path204"
         style="fill:#0000ff;fill-opacity:1;fill-rule:nonzero;stroke:none"
         d="m 620.52,478.473 c 0,-12.887 -10.446,-23.332 -23.332,-23.332 -12.887,0 -23.333,10.445 -23.333,23.332 0,12.882 10.446,23.332 23.333,23.332 12.886,0 23.332,-10.45 23.332,-23.332" /><path
         id="path206"
         style="fill:#0000ff;fill-opacity:1;fill-rule:nonzero;stroke:none"
         d="m 1030.21,399.664 c 0,-12.887 -10.45,-23.332 -23.33,-23.332 -12.892,0 -23.337,10.445 -23.337,23.332 0,12.883 10.445,23.332 23.337,23.332 12.88,0 23.33,-10.449 23.33,-23.332" /><path
         id="path208"
         style="fill:#0000ff;fill-opacity:1;fill-rule:nonzero;stroke:none"
         d="m 1439.89,580.965 c 0,-12.887 -10.44,-23.332 -23.33,-23.332 -12.88,0 -23.33,10.445 -23.33,23.332 0,12.883 10.45,23.332 23.33,23.332 12.89,0 23.33,-10.449 23.33,-23.332" /><path
         id="path210"
         style="fill:#0000ff;fill-opacity:1;fill-rule:nonzero;stroke:none"
         d="m 1849.58,584.555 c 0,-12.887 -10.44,-23.336 -23.33,-23.336 -12.89,0 -23.33,10.449 -23.33,23.336 0,12.883 10.44,23.332 23.33,23.332 12.89,0 23.33,-10.449 23.33,-23.332" /><path
         id="path212"
         style="fill:#0000ff;fill-opacity:1;fill-rule:nonzero;stroke:none"
         d="m 2259.27,314.75 c 0,-12.883 -10.45,-23.332 -23.33,-23.332 -12.89,0 -23.33,10.449 -23.33,23.332 0,12.887 10.44,23.336 23.33,23.336 12.88,0 23.33,-10.449 23.33,-23.336" /><path
         id="path214"
         style="fill:#0000ff;fill-opacity:1;fill-rule:nonzero;stroke:none"
         d="m 2668.96,294.039 c 0,-12.883 -10.45,-23.332 -23.33,-23.332 -12.89,0 -23.34,10.449 -23.34,23.332 0,12.887 10.45,23.332 23.34,23.332 12.88,0 23.33,-10.445 23.33,-23.332" /><path
         id="path216"
         style="fill:#0000ff;fill-opacity:1;fill-rule:nonzero;stroke:none"
         d="m 3078.64,604.277 c 0,-12.886 -10.44,-23.332 -23.33,-23.332 -12.88,0 -23.33,10.446 -23.33,23.332 0,12.883 10.45,23.332 23.33,23.332 12.89,0 23.33,-10.449 23.33,-23.332" /><path
         id="path218"
         style="fill:#0000ff;fill-opacity:1;fill-rule:nonzero;stroke:none"
         d="m 3488.33,698.898 c 0,-12.886 -10.44,-23.332 -23.33,-23.332 -12.89,0 -23.33,10.446 -23.33,23.332 0,12.883 10.44,23.332 23.33,23.332 12.89,0 23.33,-10.449 23.33,-23.332" /><path
         id="path220"
         style="fill:none;stroke:#ff0000;stroke-width:20.0025;stroke-linecap:butt;stroke-linejoin:bevel;stroke-miterlimit:10;stroke-dasharray:60, 60;stroke-dashoffset:0;stroke-opacity:1"
         d="m 187.5,929.363 409.688,411.517 409.692,1294.56 409.68,-289.74 409.69,-1240.72 409.69,263.56 409.69,1193.61 409.68,-228.36 L 3465,1148.16" /><path
         id="path222"
         style="fill:#ff0000;fill-opacity:1;fill-rule:nonzero;stroke:none"
         d="m 210.832,929.367 c 0,-12.883 -10.445,-23.332 -23.332,-23.332 -12.887,0 -23.332,10.449 -23.332,23.332 0,12.887 10.445,23.332 23.332,23.332 12.887,0 23.332,-10.445 23.332,-23.332" /><path
         id="path224"
         style="fill:#ff0000;fill-opacity:1;fill-rule:nonzero;stroke:none"
         d="m 620.52,1340.88 c 0,-12.88 -10.446,-23.33 -23.332,-23.33 -12.887,0 -23.333,10.45 -23.333,23.33 0,12.89 10.446,23.33 23.333,23.33 12.886,0 23.332,-10.44 23.332,-23.33" /><path
         id="path226"
         style="fill:#ff0000;fill-opacity:1;fill-rule:nonzero;stroke:none"
         d="m 1030.21,2635.44 c 0,-12.89 -10.45,-23.33 -23.33,-23.33 -12.892,0 -23.337,10.44 -23.337,23.33 0,12.88 10.445,23.33 23.337,23.33 12.88,0 23.33,-10.45 23.33,-23.33" /><path
         id="path228"
         style="fill:#ff0000;fill-opacity:1;fill-rule:nonzero;stroke:none"
         d="m 1439.89,2345.7 c 0,-12.89 -10.44,-23.34 -23.33,-23.34 -12.88,0 -23.33,10.45 -23.33,23.34 0,12.88 10.45,23.33 23.33,23.33 12.89,0 23.33,-10.45 23.33,-23.33" /><path
         id="path230"
         style="fill:#ff0000;fill-opacity:1;fill-rule:nonzero;stroke:none"
         d="m 1849.58,1104.98 c 0,-12.88 -10.44,-23.33 -23.33,-23.33 -12.89,0 -23.33,10.45 -23.33,23.33 0,12.89 10.44,23.34 23.33,23.34 12.89,0 23.33,-10.45 23.33,-23.34" /><path
         id="path232"
         style="fill:#ff0000;fill-opacity:1;fill-rule:nonzero;stroke:none"
         d="m 2259.27,1368.54 c 0,-12.89 -10.45,-23.34 -23.33,-23.34 -12.89,0 -23.33,10.45 -23.33,23.34 0,12.88 10.44,23.33 23.33,23.33 12.88,0 23.33,-10.45 23.33,-23.33" /><path
         id="path234"
         style="fill:#ff0000;fill-opacity:1;fill-rule:nonzero;stroke:none"
         d="m 2668.96,2562.16 c 0,-12.89 -10.45,-23.34 -23.33,-23.34 -12.89,0 -23.34,10.45 -23.34,23.34 0,12.88 10.45,23.33 23.34,23.33 12.88,0 23.33,-10.45 23.33,-23.33" /><path
         id="path236"
         style="fill:#ff0000;fill-opacity:1;fill-rule:nonzero;stroke:none"
         d="m 3078.64,2333.79 c 0,-12.88 -10.44,-23.33 -23.33,-23.33 -12.88,0 -23.33,10.45 -23.33,23.33 0,12.89 10.45,23.34 23.33,23.34 12.89,0 23.33,-10.45 23.33,-23.34" /><path
         id="path238"
         style="fill:#ff0000;fill-opacity:1;fill-rule:nonzero;stroke:none"
         d="m 3488.33,1148.16 c 0,-12.88 -10.44,-23.33 -23.33,-23.33 -12.89,0 -23.33,10.45 -23.33,23.33 0,12.89 10.44,23.33 23.33,23.33 12.89,0 23.33,-10.44 23.33,-23.33" /><path
         id="path240"
         style="fill:none;stroke:#0000ff;stroke-width:20.0025;stroke-linecap:butt;stroke-linejoin:bevel;stroke-miterlimit:10;stroke-dasharray:60, 60;stroke-dashoffset:0;stroke-opacity:1"
         d="m 187.5,503.441 409.688,383.454 409.692,810.025 409.68,-177.31 409.69,-898.872 409.69,306 409.69,749.212 409.68,-158.11 L 3465,646.914" /><path
         id="path242"
         style="fill:#0000ff;fill-opacity:1;fill-rule:nonzero;stroke:none"
         d="m 210.832,503.441 c 0,-12.886 -10.445,-23.332 -23.332,-23.332 -12.887,0 -23.332,10.446 -23.332,23.332 0,12.887 10.445,23.332 23.332,23.332 12.887,0 23.332,-10.445 23.332,-23.332" /><path
         id="path244"
         style="fill:#0000ff;fill-opacity:1;fill-rule:nonzero;stroke:none"
         d="m 620.52,886.891 c 0,-12.883 -10.446,-23.332 -23.332,-23.332 -12.887,0 -23.333,10.449 -23.333,23.332 0,12.886 10.446,23.332 23.333,23.332 12.886,0 23.332,-10.446 23.332,-23.332" /><path
         id="path246"
         style="fill:#0000ff;fill-opacity:1;fill-rule:nonzero;stroke:none"
         d="m 1030.21,1696.93 c 0,-12.89 -10.45,-23.34 -23.33,-23.34 -12.892,0 -23.337,10.45 -23.337,23.34 0,12.88 10.445,23.33 23.337,23.33 12.88,0 23.33,-10.45 23.33,-23.33" /><path
         id="path248"
         style="fill:#0000ff;fill-opacity:1;fill-rule:nonzero;stroke:none"
         d="m 1439.89,1519.62 c 0,-12.89 -10.44,-23.34 -23.33,-23.34 -12.88,0 -23.33,10.45 -23.33,23.34 0,12.88 10.45,23.33 23.33,23.33 12.89,0 23.33,-10.45 23.33,-23.33" /><path
         id="path250"
         style="fill:#0000ff;fill-opacity:1;fill-rule:nonzero;stroke:none"
         d="m 1849.58,620.738 c 0,-12.883 -10.44,-23.332 -23.33,-23.332 -12.89,0 -23.33,10.449 -23.33,23.332 0,12.887 10.44,23.332 23.33,23.332 12.89,0 23.33,-10.445 23.33,-23.332" /><path
         id="path252"
         style="fill:#0000ff;fill-opacity:1;fill-rule:nonzero;stroke:none"
         d="m 2259.27,926.738 c 0,-12.886 -10.45,-23.332 -23.33,-23.332 -12.89,0 -23.33,10.446 -23.33,23.332 0,12.883 10.44,23.332 23.33,23.332 12.88,0 23.33,-10.449 23.33,-23.332" /><path
         id="path254"
         style="fill:#0000ff;fill-opacity:1;fill-rule:nonzero;stroke:none"
         d="m 2668.96,1675.95 c 0,-12.88 -10.45,-23.33 -23.33,-23.33 -12.89,0 -23.34,10.45 -23.34,23.33 0,12.89 10.45,23.33 23.34,23.33 12.88,0 23.33,-10.44 23.33,-23.33" /><path
         id="path256"
         style="fill:#0000ff;fill-opacity:1;fill-rule:nonzero;stroke:none"
         d="m 3078.64,1517.84 c 0,-12.89 -10.44,-23.34 -23.33,-23.34 -12.88,0 -23.33,10.45 -23.33,23.34 0,12.88 10.45,23.33 23.33,23.33 12.89,0 23.33,-10.45 23.33,-23.33" /><path
         id="path258"
         style="fill:#0000ff;fill-opacity:1;fill-rule:nonzero;stroke:none"
         d="m 3488.33,646.914 c 0,-12.887 -10.44,-23.336 -23.33,-23.336 -12.89,0 -23.33,10.449 -23.33,23.336 0,12.883 10.44,23.332 23.33,23.332 12.89,0 23.33,-10.449 23.33,-23.332" /></g></g></svg>
